<?xml version="1.0" standalone="no"?>
<!DOCTYPE svg PUBLIC "-//W3C//DTD SVG 20010904//EN"
 "http://www.w3.org/TR/2001/REC-SVG-20010904/DTD/svg10.dtd">
<svg version="1.0" xmlns="http://www.w3.org/2000/svg"
 width="700.000000pt" height="700.000000pt" viewBox="0 0 700.000000 700.000000"
 preserveAspectRatio="xMidYMid meet">
<metadata>
Created by potrace 1.14, written by Peter Selinger 2001-2017
</metadata>
<g transform="translate(0.000000,700.000000) scale(0.100000,-0.100000)"
fill="#000000" stroke="none">
<path d="M2637 6923 c-19 -43 -74 -158 -121 -256 -47 -98 -86 -179 -86 -181 0
-2 -30 -66 -66 -142 -179 -376 -234 -492 -314 -664 -37 -80 -96 -203 -130
-275 -34 -71 -80 -168 -102 -215 -59 -126 -192 -407 -264 -559 -35 -73 -64
-135 -64 -137 0 -1 -40 -87 -90 -190 -49 -102 -90 -188 -90 -190 0 -1 -32 -69
-70 -149 -39 -80 -70 -148 -70 -151 0 -2 456 -4 1014 -4 987 0 1015 -1 1011
-19 -2 -10 -6 -34 -9 -52 -9 -54 -146 -881 -150 -909 -6 -29 -65 -391 -72
-435 -2 -16 -9 -52 -14 -80 -5 -27 -12 -72 -16 -100 -4 -27 -8 -52 -9 -55 -3
-12 -16 -87 -19 -115 -3 -16 -7 -46 -11 -65 -3 -19 -8 -46 -10 -60 -9 -59 -16
-106 -20 -120 -2 -8 -7 -37 -10 -65 -4 -27 -8 -57 -10 -65 -3 -8 -7 -33 -10
-55 -4 -22 -8 -51 -11 -65 -2 -14 -7 -41 -10 -60 -3 -19 -7 -42 -9 -50 -2 -8
-7 -35 -10 -60 -3 -25 -8 -58 -11 -75 -4 -23 -58 -347 -99 -595 -2 -14 -11
-68 -20 -120 -9 -52 -18 -108 -21 -125 -2 -16 -9 -55 -14 -85 -5 -30 -12 -68
-14 -85 -3 -16 -12 -70 -20 -120 -9 -50 -18 -108 -21 -130 l-6 -40 42 65 c23
36 58 91 78 123 20 31 63 99 96 150 33 50 90 139 126 197 68 109 837 1317 894
1405 17 28 76 120 130 205 54 85 122 191 150 235 69 107 306 480 326 513 43
71 189 298 199 309 5 7 10 15 10 19 0 4 10 21 23 38 20 27 164 252 254 399 18
29 37 59 43 67 6 8 116 182 246 385 129 204 259 408 289 455 259 406 353 555
350 560 -2 3 -437 5 -968 4 l-965 0 12 25 c14 31 90 180 191 376 40 77 125
244 190 370 65 127 150 293 190 370 40 77 136 265 214 418 l142 277 -33 1
c-67 1 -1077 15 -1754 24 l-371 5 -36 -77z"/>
</g>
</svg>
