<?xml version="1.0" encoding="utf-8"?>
<!-- Generator: Adobe Illustrator 18.1.1, SVG Export Plug-In . SVG Version: 6.00 Build 0)  -->
<svg version="1.1" id="Layer_1" xmlns="http://www.w3.org/2000/svg" xmlns:xlink="http://www.w3.org/1999/xlink" x="0px" y="0px"
	 viewBox="-1250 -1250 3000 3000" enable-background="new -1250 -1250 3000 3000" xml:space="preserve">
<g>
	<g>
		<path fill="#CCCCCC" d="M1163.6-301.8c0,33.9-33.9,61.8-76.1,61.8h-32.3c0.5,6.4,0.8,12.9,0.8,19.6v552.3
			c0,25.3-3.9,48.6-10.4,67.8h0.9c0,340,0,339.5,0,520.8c0,180.7-155.2,167.6-155.2,167.6H495.4v-88c0,0,314.5,0,395.9,0
			s66.6-79.7,66.6-79.7V416.9c-10.7-21.5-17.2-51.5-17.2-85v-552.3c0-6.7,0.3-13.2,0.8-19.6h-32.9c-42.2,0-76.1-27.3-76.1-61.8
			c0-33.9,33.9-61.8,76.1-61.8h44.6v-220c0-16.9,6.7-31.9,17.4-41.7l34.4-334l21.8,331.9c12.2,9.7,20.4,25.9,20.4,43.8v220h40.4
			C1129.7-363.1,1163.6-335.7,1163.6-301.8z"/>
		<path fill="#CCCCCC" d="M1548.8-301.8c0,33.9-31.5,61.8-70.7,61.8h-22.3c0.5,6.4,0.9,12.9,0.9,19.6v552.3
			c0,32.3-6.6,61.4-17.2,82.8c0,531.2,0,531,0,743.6c0,180.7-266.3,167.6-266.3,167.6H495.4v-88c0,0,539.2,4.2,678.3,0
			c182.5-5.9,180.7-79.7,180.7-79.7V420.2c-12.4-21.8-20.2-53.1-20.2-88.3v-552.3c0-6.7,0.4-13.2,0.9-19.6h-22.3
			c-38.6,0-70.7-27.3-70.7-61.8c0-33.9,31.5-61.8,70.7-61.8h36.3v-220c0-18.8,8.3-35.3,20.9-44.8l31.4-331l20.7,332.2
			c11.9,9.7,19.7,25.7,19.7,43.5v220h36.3C1517.3-363.1,1548.8-335.7,1548.8-301.8z"/>
		<path fill="#CCCCCC" d="M506.7-462.3v1825.7c0,88-71.3,158.7-158.7,158.7H-703.1c-88,0-158.7-71.3-158.7-158.7V-462.3
			c0-88,71.3-158.7,158.7-158.7H347.9C435.9-621.1,506.7-549.7,506.7-462.3z"/>
	</g>
	<g>
		<path fill="#424345" d="M400.3,1006h395.9c0,0,155.2,13.1,155.2-167.6c0-181.3,0-180.7,0-520.8h-88.6v520.8
			c0,0,14.9,79.7-66.6,79.7s-395.9,0-395.9,0V1006z"/>
		<path fill="#424345" d="M400.3,1243.8H1078c0,0,266.3,13.1,266.3-167.6c0-214.6,0-212.2,0-758.6h-85v758.6
			c0,0,1.8,73.7-180.7,79.7c-139.1,4.2-678.3,0-678.3,0V1243.8L400.3,1243.8z"/>
		<path fill="#F9E1D6" stroke="#231F20" stroke-width="23.7797" stroke-miterlimit="10" d="M397.3,1281.3
			c0,88-71.3,158.7-158.7,158.7H-812.5c-88,0-158.7-71.3-158.7-158.7V-544.4c0-88,71.3-158.7,158.7-158.7H238.6
			c88,0,158.7,71.3,158.7,158.7V1281.3L397.3,1281.3z"/>
		<circle fill="#F15B2B" cx="-288.2" cy="749.8" r="432.2"/>
		
			<radialGradient id="SVGID_1_" cx="-1296.8931" cy="2999.4487" r="1744.4165" gradientTransform="matrix(0.2222 0 0 0.2222 0 83.3444)" gradientUnits="userSpaceOnUse">
			<stop  offset="0" style="stop-color:#FF916E"/>
			<stop  offset="0.5645" style="stop-color:#DE4A1B"/>
			<stop  offset="1" style="stop-color:#F16233"/>
		</radialGradient>
		<circle fill="url(#SVGID_1_)" stroke="#262227" stroke-width="5.9449" stroke-miterlimit="10" cx="-288.2" cy="749.8" r="387.6"/>
		<circle fill="#6D3560" cx="-791.1" cy="70.9" r="70.7"/>
		<circle fill="#6D3560" cx="214.8" cy="70.9" r="70.7"/>
		<path fill="#EC2227" d="M845.5-302.4c0-66,26.2-118.9,57.7-118.9l0,0c32.1,0,57.7,52.9,57.7,118.9v552.3
			c0,66-26.2,118.9-57.7,118.9l0,0c-32.1,0-57.7-52.9-57.7-118.9V-302.4L845.5-302.4z"/>
		<path fill="#262223" d="M1239.1-302.4c0-66,27.3-118.9,61.2-118.9l0,0c33.9,0,61.2,52.9,61.2,118.9v552.3
			c0,66-27.3,118.9-61.2,118.9l0,0c-33.9,0-61.2-52.9-61.2-118.9V-302.4z"/>
		<polygon fill="#FCB449" points="871.7,-671 909.7,-1041.4 934.1,-671 		"/>
		<polygon fill="#FCB449" points="1271.2,-671 1306.3,-1041.4 1329.4,-671 		"/>
		<path fill="#EC2227" d="M858-665.7c0-29.7,20.8-53.5,47-53.5l0,0c25.6,0,47,24.4,47,53.5v397.7c0,29.7-20.8,53.5-47,53.5l0,0
			c-25.6,0-47-24.4-47-53.5V-665.7z"/>
		<path fill="#262223" d="M1253.9-665.7c0-29.7,20.8-53.5,46.4-53.5l0,0c25.6,0,46.4,24.4,46.4,53.5v397.7
			c0,29.7-20.8,53.5-46.4,53.5l0,0c-25.6,0-46.4-24.4-46.4-53.5V-665.7z"/>
		<path fill="#921A1D" d="M1068.5-383.9c0,33.9-33.9,61.8-76.1,61.8H813.4c-42.2,0-76.1-27.3-76.1-61.8l0,0
			c0-33.9,33.9-61.8,76.1-61.8h178.9C1034.6-445.1,1068.5-417.8,1068.5-383.9L1068.5-383.9z"/>
		<path fill="#1A1718" d="M1453.7-383.9c0,33.9-31.5,61.8-70.7,61.8h-165.3c-38.6,0-70.7-27.3-70.7-61.8l0,0
			c0-33.9,31.5-61.8,70.7-61.8h165.3C1422.2-445.1,1453.7-417.8,1453.7-383.9L1453.7-383.9z"/>
		
			<line fill="none" stroke="#009444" stroke-width="35.6696" stroke-linecap="round" stroke-linejoin="round" stroke-miterlimit="10" x1="-288.2" y1="180.9" x2="-288.2" y2="236.8"/>
		
			<line fill="none" stroke="#009444" stroke-width="35.6696" stroke-linecap="round" stroke-linejoin="round" stroke-miterlimit="10" x1="-435.6" y1="200.5" x2="-420.7" y2="254"/>
		
			<line fill="none" stroke="#009444" stroke-width="35.6696" stroke-linecap="round" stroke-linejoin="round" stroke-miterlimit="10" x1="-572.9" y1="257" x2="-545" y2="305.7"/>
		
			<line fill="none" stroke="#009444" stroke-width="35.6696" stroke-linecap="round" stroke-linejoin="round" stroke-miterlimit="10" x1="-690.6" y1="347.4" x2="-651.4" y2="387.2"/>
		
			<line fill="none" stroke="#009444" stroke-width="35.6696" stroke-linecap="round" stroke-linejoin="round" stroke-miterlimit="10" x1="-781" y1="465.7" x2="-732.9" y2="493"/>
		
			<line fill="none" stroke="#009444" stroke-width="35.6696" stroke-linecap="round" stroke-linejoin="round" stroke-miterlimit="10" x1="-838.1" y1="603" x2="-784" y2="617.3"/>
		
			<line fill="none" stroke="#3B3536" stroke-width="35.6696" stroke-linecap="round" stroke-linejoin="round" stroke-miterlimit="10" x1="-857.7" y1="749.8" x2="-801.2" y2="749.8"/>
		
			<line fill="none" stroke="#3B3536" stroke-width="35.6696" stroke-linecap="round" stroke-linejoin="round" stroke-miterlimit="10" x1="-838.1" y1="897.3" x2="-784" y2="883"/>
		
			<line fill="none" stroke="#3B3536" stroke-width="35.6696" stroke-linecap="round" stroke-linejoin="round" stroke-miterlimit="10" x1="-781" y1="1034.6" x2="-732.9" y2="1006.6"/>
		
			<line fill="none" stroke="#3B3536" stroke-width="35.6696" stroke-linecap="round" stroke-linejoin="round" stroke-miterlimit="10" x1="-690.6" y1="1152.3" x2="-651.4" y2="1112.5"/>
		
			<line fill="none" stroke="#3B3536" stroke-width="35.6696" stroke-linecap="round" stroke-linejoin="round" stroke-miterlimit="10" x1="-572.9" y1="1242.7" x2="-545" y2="1194.5"/>
		
			<line fill="none" stroke="#3B3536" stroke-width="35.6696" stroke-linecap="round" stroke-linejoin="round" stroke-miterlimit="10" x1="-435.6" y1="1299.7" x2="-420.7" y2="1245.6"/>
		
			<line fill="none" stroke="#92278F" stroke-width="35.6696" stroke-linecap="round" stroke-linejoin="round" stroke-miterlimit="10" x1="-288.2" y1="1318.8" x2="-288.2" y2="1262.9"/>
		
			<line fill="none" stroke="#92278F" stroke-width="35.6696" stroke-linecap="round" stroke-linejoin="round" stroke-miterlimit="10" x1="-140.7" y1="1299.7" x2="-155.6" y2="1245.6"/>
		
			<line fill="none" stroke="#92278F" stroke-width="35.6696" stroke-linecap="round" stroke-linejoin="round" stroke-miterlimit="10" x1="-3.4" y1="1242.7" x2="-31.9" y2="1194.5"/>
		
			<line fill="none" stroke="#92278F" stroke-width="35.6696" stroke-linecap="round" stroke-linejoin="round" stroke-miterlimit="10" x1="114.3" y1="1152.3" x2="74.5" y2="1112.5"/>
		
			<line fill="none" stroke="#92278F" stroke-width="35.6696" stroke-linecap="round" stroke-linejoin="round" stroke-miterlimit="10" x1="204.7" y1="1034.6" x2="155.9" y2="1006.6"/>
		
			<line fill="none" stroke="#92278F" stroke-width="35.6696" stroke-linecap="round" stroke-linejoin="round" stroke-miterlimit="10" x1="261.7" y1="897.3" x2="207" y2="883"/>
		
			<line fill="none" stroke="#ED1C24" stroke-width="35.6696" stroke-linecap="round" stroke-linejoin="round" stroke-miterlimit="10" x1="280.8" y1="749.8" x2="224.9" y2="749.8"/>
		
			<line fill="none" stroke="#ED1C24" stroke-width="35.6696" stroke-linecap="round" stroke-linejoin="round" stroke-miterlimit="10" x1="261.7" y1="603" x2="207" y2="617.3"/>
		
			<line fill="none" stroke="#ED1C24" stroke-width="35.6696" stroke-linecap="round" stroke-linejoin="round" stroke-miterlimit="10" x1="204.7" y1="465.7" x2="155.9" y2="493"/>
		
			<line fill="none" stroke="#ED1C24" stroke-width="35.6696" stroke-linecap="round" stroke-linejoin="round" stroke-miterlimit="10" x1="114.3" y1="347.4" x2="74.5" y2="387.2"/>
		
			<line fill="none" stroke="#ED1C24" stroke-width="35.6696" stroke-linecap="round" stroke-linejoin="round" stroke-miterlimit="10" x1="-3.4" y1="257" x2="-31.9" y2="305.7"/>
		
			<line fill="none" stroke="#ED1C24" stroke-width="35.6696" stroke-linecap="round" stroke-linejoin="round" stroke-miterlimit="10" x1="-140.7" y1="200.5" x2="-155.6" y2="254"/>
		<path fill="#873318" d="M57.8,465.1l-629.6,629.6c-8.3,8.3-22.6,8.3-30.9,0l-29.1-29.1c-8.3-8.3-8.3-22.6,0-30.9L-1.6,404.4
			c8.3-8.3,22.6-8.3,30.9,0l29.1,29.1C66.7,442.5,66.7,456.7,57.8,465.1z"/>
		<line fill="none" stroke="#CF7C61" stroke-width="35.6696" stroke-miterlimit="10" x1="43.6" y1="419.3" x2="-287" y2="749.8"/>
		<g enable-background="new    ">
			<path fill="#FF7400" d="M-702-542.7c1.5-6.4,3.2-13.5,5.1-21.3c1.9-7.8,3.5-14.7,4.9-20.5c1.4-5.8,2.1-8.9,2.2-9.2
				c0-0.1,0-0.1,0.1-0.2c0.6-2.3,1.8-4.1,3.8-5.5c1.9-1.4,4-2.1,6.4-2.1c0.8,0,3.2,0,7.1,0c3.9,0,8.3,0,13.1,0c4.8,0,8.9,0,12.5,0
				c3.5,0,5.5,0,5.8,0h0.2h0.1c4.9,0,8.9,1.8,12,5.5c3,3.6,4,7.8,3,12.6c-0.2,1-0.9,3.6-1.9,7.8c-1,4.2-2.1,8.8-3.3,13.8
				c-1.2,5.1-2.8,11.4-4.6,19.1c-2.8,7.8-7.8,11.7-15,11.7c-1,0-4.3,0-9.8,0c-5.5,0-11.6,0-18.4,0c-6.7,0-12.6,0-17.6,0
				c-5,0-7.7,0-8.2,0C-704.4-532.4-703.5-536.3-702-542.7z M-650.4-554c0.9-3.7,1.9-7.7,3-12.1c1.1-4.4,2.4-10,4.1-16.7
				c0.1-0.7-0.1-1.2-0.5-1.7c-0.4-0.5-0.9-0.7-1.6-0.7c-0.7,0-2.5,0-5.4,0c-2.9,0-6.2,0-9.8,0c-3.6,0-6.7,0-9.3,0
				c-2.6,0-4.1,0-4.3,0c-0.2,1-0.8,3.4-1.8,7.3c-0.9,3.9-2,8.2-3.2,13c-1.2,4.8-2.6,10.7-4.4,17.9c0.7,0,2.7,0,5.9,0
				c3.2,0,6.8,0,10.7,0c3.9,0,7.3,0,10.1,0c2.9,0,4.4,0,4.7,0C-651.8-548.1-651.2-550.4-650.4-554z"/>
			<path fill="#FF7400" d="M-630.6-531l13.2-53.4h17.2l-13,53.4H-630.6z M-613.1-601.6h17.2l-3.2,12.5h-17.2L-613.1-601.6z"/>
			<path fill="#FF7400" d="M-584.9-526.4h8.9c1,0,2-0.3,3-1c1-0.7,1.6-1.5,1.9-2.4l0.3-1.5l-11.7-0.1c-5.1-0.3-8.9-1.4-11.5-3.4
				c-2.6-2-4.6-4.6-5.9-7.9c-2.9-7.2-2.3-15.4,1.9-24.6c5.6-10.5,14.7-16.1,27.3-16.9h29.4l-3.5,14.5h-17.1h-7.5h-0.1
				c-4.2,0.1-7.6,1.3-10.1,3.5c-2.6,2.1-4.3,4.6-5.1,7.5c-2.4,8.1,0,12.2,7.2,12.3h7.1h3.1h0.1l4.7-19h16.7l-6.1,25.1l-2.7,10.4
				c-1.2,4.8-4,9-8.3,12.6c-4.4,3.6-8.9,5.4-13.6,5.4H-588L-584.9-526.4z"/>
			<path fill="#FF7400" d="M-546.3-531l13.2-53.4h17.2l-13,53.4H-546.3z M-528.7-601.6h17.2l-3.2,12.5H-532L-528.7-601.6z"/>
			<path fill="#FF7400" d="M-516.7-549.1l12.9-52.5h16.9c-2.9,11.2-4.3,17-4.4,17.3h12.5l-3.8,15.4H-495c-0.9,3.7-1.7,6.8-2.2,9.3
				c-0.6,2.5-1.1,4.7-1.6,6.7c-0.5,2-0.8,3.2-0.9,3.7c-0.1,0.9,0.1,1.7,0.6,2.4c0.5,0.7,1.3,1,2.2,1h8.8l-3.6,14.7h-11.4
				c-4.7,0-8.3-1.8-11-5.4C-516.9-540.1-517.7-544.3-516.7-549.1z"/>
			<path fill="#FF7400" d="M-461.8-531.3c-5.1-0.3-8.9-1.4-11.5-3.4c-2.6-2-4.6-4.6-5.9-7.9c-2.9-7.2-2.3-15.4,1.9-24.6
				c5.6-10.5,14.7-16.1,27.3-16.9h30.3l-12.8,53L-461.8-531.3z M-441.5-564L-441.5-564l1.3-5.6h-8.1c-4.4,0.1-7.9,1.2-10.5,3.5
				c-2.6,2.1-4.3,4.6-5.1,7.5c-2.4,8.1,0,12.2,7.2,12.3h11L-441.5-564z"/>
			<path fill="#FF7400" d="M-407.6-601.6h17.2l-13.4,52.5c-0.1,0.9,0.1,1.7,0.6,2.4c0.6,0.7,1.3,1,2.2,1h9.4l-3.7,14.7H-407
				c-4.8,0-8.6-1.8-11.4-5.4c-2.8-3.6-3.8-7.8-2.9-12.6L-407.6-601.6z"/>
			<path fill="#140900" d="M-292-531c-1.7,0-3.6,0-5.7,0c-2.1,0-3.9,0-5.5,0s-2.4,0-2.6,0c0.5-1.8,1.2-4.7,2.2-8.8
				c1-4.1,2.2-8.4,3.3-13c1.2-4.6,2.6-10.3,4.3-17c-2.9,4.3-6.2,9.1-9.8,14.2c-3.6,5.2-8.2,11.6-13.7,19.4c-2.5,0-4.7-0.8-6.6-2.3
				c-2-1.6-3.2-3.6-3.8-6.2c-0.1-0.6-0.5-2.2-1-4.9c-0.5-2.7-1.1-5.7-1.7-9.1c-0.6-3.3-1.4-7.6-2.4-12.6c-0.5,1.8-1.2,4.9-2.2,9.1
				c-1,4.3-2.2,8.8-3.3,13.5c-1.2,4.8-2.6,10.6-4.3,17.6c-0.3,0-1.3,0-3,0c-1.7,0-3.6,0-5.7,0c-2.1,0-3.9,0-5.5,0s-2.4,0-2.6,0h-0.1
				c0.3-1.4,1.3-5.3,2.8-11.7c1.5-6.4,3.3-13.5,5.2-21.3c1.9-7.8,4.3-17.7,7.2-29.6c2-5.3,5.5-7.9,10.4-7.9c0.3,0,0.9,0,1.9,0
				c1,0,2.1,0,3.3,0c1.2,0,2.2,0,3.1,0c0.9,0,1.4,0,1.5,0h0.1h0.1c0.1,0.7,0.6,3.1,1.3,7c0.7,3.9,1.6,8.3,2.5,13.2
				c0.9,4.9,2.1,11.1,3.6,18.5l27.6-38.7c0.5,0,1.7,0,3.7,0c2,0,4.1,0,6.5,0c2.4,0,4.4,0,6.1,0c1.7,0,2.7,0,2.8,0
				c-0.4,1.5-1.4,5.8-3.2,13c-1.7,7.2-3.7,15.2-5.8,24c-2.1,8.8-4.9,20-8.1,33.5C-289.3-531-290.3-531-292-531z"/>
			<path fill="#140900" d="M-265.4-584.2h17.1l-8.5,35.1c-0.1,0.9,0.1,1.7,0.6,2.4c0.5,0.7,1.3,1,2.2,1h11.9l9.9-38.5h17.1
				l-13.3,53.1h-15.5l-0.1,0.1h-16.1c-4.7,0-8.4-1.8-11.1-5.4c-2.8-3.6-3.6-7.8-2.6-12.6L-265.4-584.2z"/>
			<path fill="#140900" d="M-203.5-601.6h17.2l-13.4,52.5c-0.1,0.9,0.1,1.7,0.6,2.4c0.6,0.7,1.3,1,2.2,1h9.4l-3.7,14.7h-11.8
				c-4.8,0-8.6-1.8-11.4-5.4c-2.8-3.6-3.8-7.8-2.9-12.6L-203.5-601.6z"/>
			<path fill="#140900" d="M-179.7-549.1l12.9-52.5h16.9c-2.9,11.2-4.3,17-4.4,17.3h12.5l-3.8,15.4H-158c-0.9,3.7-1.7,6.8-2.2,9.3
				c-0.6,2.5-1.1,4.7-1.6,6.7c-0.5,2-0.8,3.2-0.9,3.7c-0.1,0.9,0.1,1.7,0.6,2.4c0.5,0.7,1.3,1,2.2,1h8.8l-3.6,14.7h-11.4
				c-4.7,0-8.3-1.8-11-5.4C-179.9-540.1-180.7-544.3-179.7-549.1z"/>
			<path fill="#140900" d="M-147.8-531l13.2-53.4h17.2l-13,53.4H-147.8z M-130.3-601.6h17.2l-3.2,12.5h-17.2L-130.3-601.6z"/>
			<path fill="#140900" d="M-49.5-531h-17.1l8.8-35.1c0.1-0.9-0.1-1.7-0.6-2.4c-0.6-0.7-1.3-1-2.2-1H-67h-1.1c0,1.1-0.2,2.2-0.5,3.4
				l-8.8,35.1h-17.1l8.8-35.1c0.1-0.9-0.1-1.7-0.6-2.4c-0.6-0.7-1.3-1-2.2-1h-7.4l-9.3,38.5h-17.2l12.9-53.1h15.6v-0.1h11.8
				c6.7,0,11.2,3.4,13.6,10.2l2.4-10.2h5.9l0.1-0.1h5.9c4.7,0,8.5,1.8,11.2,5.4c2.7,3.6,3.6,7.8,2.5,12.6L-49.5-531z"/>
			<path fill="#140900" d="M-19.4-531.3c-5.1-0.3-8.9-1.4-11.5-3.4c-2.6-2-4.6-4.6-5.9-7.9c-2.9-7.2-2.3-15.4,1.9-24.6
				c5.6-10.5,14.7-16.1,27.3-16.9H9.7c5.3,0.3,8.8,1.9,10.5,4.7c1.7,2.8,2.1,5.9,1.2,9.3l-0.1,0.5l-4.7,19h-31
				c-1.7-0.2-2.6-1.5-2.6-3.8s0.7-4.6,2.2-6.9c1.5-2.3,3.7-3.6,6.5-3.9h6.1h5.5l1.1-4.4H4.3H-6.2h-0.1c-4.2,0.1-7.6,1.3-10.1,3.5
				c-2.6,2.1-4.3,4.6-5.1,7.5c-2,8,0.4,12.1,7.2,12.3h8h22L12.1-531L-19.4-531.3z"/>
			<path fill="#140900" d="M23.1-549.1L36-601.6h16.9c-2.9,11.2-4.3,17-4.4,17.3H61l-3.8,15.4H44.8c-0.9,3.7-1.7,6.8-2.2,9.3
				c-0.6,2.5-1.1,4.7-1.6,6.7c-0.5,2-0.8,3.2-0.9,3.7c-0.1,0.9,0.1,1.7,0.6,2.4c0.5,0.7,1.3,1,2.2,1h8.8L48-531H36.7
				c-4.7,0-8.3-1.8-11-5.4C22.9-540.1,22.1-544.3,23.1-549.1z"/>
			<path fill="#140900" d="M78-531.3c-5.1-0.3-8.9-1.4-11.5-3.4c-2.6-2-4.6-4.6-5.9-7.9c-2.9-7.2-2.3-15.4,1.9-24.6
				c5.6-10.5,14.7-16.1,27.3-16.9h17.3c5.3,0.3,8.8,1.9,10.5,4.7c1.7,2.8,2.1,5.9,1.2,9.3l-0.1,0.5l-4.7,19h-31
				c-1.7-0.2-2.6-1.5-2.6-3.8s0.7-4.6,2.2-6.9c1.5-2.3,3.7-3.6,6.5-3.9h6.1h5.5l1.1-4.4h-0.2H91.1H91c-4.2,0.1-7.6,1.3-10.1,3.5
				c-2.6,2.1-4.3,4.6-5.1,7.5c-2,8,0.4,12.1,7.2,12.3h8h22l-3.7,15.2L78-531.3z"/>
			<path fill="#140900" d="M142.1-584.2H159l-3.9,15.2h-9.2c-1,0-2,0.4-2.9,1.1c-0.8,0.7-1.4,1.7-1.7,2.8l-8.3,34.1h-16.9l9.2-38.5
				C127.8-578.1,133.4-583,142.1-584.2z"/>
		</g>
		<path fill="#1DC4A4" stroke="#331919" stroke-width="23.7797" stroke-miterlimit="10" d="M239.5-58.7H-815.8
			c-22.4,0-41.3-18.4-41.3-41.6v-303.8c0-22.6,18.3-41.6,41.3-41.6H239.5c22.4,0,41.3,18.4,41.3,41.6v303.8
			C280.8-77.7,262.5-58.7,239.5-58.7z"/>
		<g enable-background="new    ">
			<path fill="#ED1C24" d="M268,210.8l-36.4,105.7h-27l-36-105.7h25.7l22,73.6c1.2,4,1.9,7.5,2.1,10.5h0.4c0.3-3.3,1.1-6.9,2.3-10.8
				l21.9-73.3H268z"/>
		</g>
		<g enable-background="new    ">
			<path fill="#009444" d="M-757.3,210.8l-36.4,105.7h-27l-36-105.7h25.7l22,73.6c1.2,4,1.9,7.5,2.1,10.5h0.4
				c0.3-3.3,1.1-6.9,2.3-10.8l21.9-73.3H-757.3z"/>
		</g>
		<g enable-background="new    ">
			<path fill="#92278F" d="M243.4,1281.2h22.2v10.4h-38.2v-8.3c12.1-8.3,22.5-24.5,22.5-44.9c0-18.6-11-39.6-32.6-39.6
				c-21.4,0-33.4,19.8-33.4,39.7c0,19,10.6,37.2,22.7,44.7v8.3h-38.4v-10.4H190v-0.6c-10.1-8.3-19.9-23.4-19.9-43
				c0-29,20.4-49.4,47.4-49.4c28.2,0,45.9,21.3,45.9,48.2c0,20.8-10,35.8-20.1,44.2V1281.2z"/>
		</g>
		<g enable-background="new    ">
			<path fill="#3B3536" d="M-756.6,1291.6h-26l-7.5-23.5h-37.6l-7.4,23.5H-861l38.5-105.7h28.2L-756.6,1291.6z M-795.5,1249.8
				l-11.4-35.5c-0.8-2.7-1.4-5.8-1.8-9.5h-0.6c-0.2,3.1-0.9,6.2-1.8,9.2l-11.5,35.8H-795.5z"/>
		</g>
		<g enable-background="new    ">
			<path fill="#0E0E0E" d="M-209-160.1v21.5h-64.4v-55.1c0-3,0.2-5.5,0.7-7.5c0.5-2,1.4-3.9,2.6-5.6s3.5-4.2,6.6-7.4l24.2-23.2
				c1.8-1.8,3.3-3.4,4.4-4.7c1.1-1.3,1.8-2.5,2.2-3.4c0.4-0.9,0.7-1.9,0.7-2.9c0.1-1,0.1-2.3,0.1-4v-33.2c0-7-3.4-10.5-10.2-10.5
				h-1.5c-6.8,0-10.2,3.5-10.2,10.5v18.5h-24v-20c0-20.5,9.6-30.7,28.7-30.7h12.5c19.1,0,28.7,10.2,28.7,30.7v42.9
				c0,3.3-0.5,6.2-1.4,8.7c-0.9,2.5-3.3,5.6-7.1,9.2l-26.4,25.5c-3.3,3.2-5.2,5.3-5.7,6.5c-0.5,1.2-0.8,2.3-0.9,3.5
				c-0.1,1.2-0.1,2.7-0.1,4.7v25.9H-209z"/>
			<path fill="#0E0E0E" d="M-93.2-160.1v21.5h-64.4v-55.1c0-3,0.2-5.5,0.7-7.5c0.5-2,1.4-3.9,2.6-5.6s3.5-4.2,6.6-7.4l24.2-23.2
				c1.8-1.8,3.3-3.4,4.4-4.7c1.1-1.3,1.8-2.5,2.2-3.4c0.4-0.9,0.7-1.9,0.7-2.9c0.1-1,0.1-2.3,0.1-4v-33.2c0-7-3.4-10.5-10.2-10.5
				h-1.5c-6.8,0-10.2,3.5-10.2,10.5v18.5h-24v-20c0-20.5,9.6-30.7,28.7-30.7h12.5c19.1,0,28.7,10.2,28.7,30.7v42.9
				c0,3.3-0.5,6.2-1.4,8.7c-0.9,2.5-3.3,5.6-7.1,9.2l-26.4,25.5c-3.3,3.2-5.2,5.3-5.7,6.5c-0.5,1.2-0.8,2.3-0.9,3.5
				c-0.1,1.2-0.1,2.7-0.1,4.7v25.9H-93.2z"/>
			<path fill="#0E0E0E" d="M-15.3-138.7c-19.1,0-28.7-10.2-28.7-30.7v-117.8c0-20.5,9.6-30.7,28.7-30.7H1.4
				c19.1,0,28.7,10.2,28.7,30.7v117.8c0,20.5-9.6,30.7-28.7,30.7H-15.3z M-10.6-296.1c-6.3,0-9.5,3.5-9.5,10.5v114.8
				c0,7,3.6,10.5,10.7,10.5h6c6.3,0,9.5-3.5,9.5-10.5v-114.8c0-7-3.6-10.5-10.7-10.5H-10.6z"/>
			<path fill="#0E0E0E" d="M217.4-317.8l-28.9,179.2h-28.4l-28.9-179.2h23.7l19.5,136.7l19.5-136.7H217.4z"/>
		</g>
		<g enable-background="new    ">
			<path d="M-794.8-348.4v15h-11.8v-15h-14.7v-11.2h14.7v-15.5h11.8v15.5h13.8v11.2H-794.8z"/>
			<path d="M-757.9-308.3v-96h22.3c12,0,18,6.1,18,18.4v63.6c0,9.3-5.1,13.9-15.4,13.9H-757.9z M-745.1-319.9h9.6
				c3.4,0,5.1-1.4,5.1-4.3v-61.5c0-4.6-1.9-7-5.7-7h-9V-319.9z"/>
			<path d="M-656-330.8v6.1c0,10.9-5.1,16.3-15.4,16.3h-8.3c-10.3,0-15.4-5.4-15.4-16.3V-388c0-10.9,5.1-16.3,15.4-16.3h8.3
				c10.2,0,15.4,5.4,15.4,16.3v10.8h-12.8v-9.9c0-3.7-1.9-5.6-5.7-5.6h-2.5c-3.4,0-5.1,1.9-5.1,5.6v61.5c0,3.7,1.7,5.6,5.1,5.6h3.2
				c3.4,0,5.1-1.9,5.1-5.6v-5.2H-656z"/>
		</g>
	</g>
</g>
</svg>
