<svg id="Layer_1" data-name="Layer 1" xmlns="http://www.w3.org/2000/svg" viewBox="0 0 801.39 801.39">
  <defs>
    <style>
      .rabota6-1 {
      fill: #cbcbcb;
      }

      .rabota6-2 {
      fill: #dfdfdf;
      }

      .rabota6-3 {
      fill: #ededed;
      }

      .rabota6-4 {
      fill: #a0a0a0;
      }

      .rabota6-5 {
      fill: #a1a1a1;
      }

      .rabota6-6 {
      fill: #686868;
      }

      .rabota6-7 {
      fill: #2d6ab6;
      }

      .rabota6-8 {
      fill: #f9de11;
      }

      .rabota6-9 {
      fill: #cdcdcd;
      }

      .rabota6-10 {
      fill: #732426;
      }

      .rabota6-11 {
      fill: #2885e0;
      }

      .rabota6-12 {
      fill: #fefefe;
      }

      .rabota6-13 {
      fill: #c72425;
      }

      .rabota6-14 {
      fill: #d6a388;
      }

      .rabota6-15 {
      fill: #4e3939;
      }
    </style>
  </defs>
  <g>
    <path class="rabota6-1"
      d="M436.76,290.23c5.92-3.31,12-6.37,17.73-10,6.75-4.24,13.68-3.75,20.51-1.08,12.19,4.76,20.95,13.68,28.24,24.32a81.94,81.94,0,0,1,13.88,35.83c1.27,9.35-2.27,25.16-12.81,30.1-11.67,5.48-22.48,12.81-33.69,19.3-1.27.73-2.51,1.69-4.13,1.56-2.4-2.86-3.08-6.5-4.35-9.84-2.19-5.77-5.72-6.28-10.38-1.33-2.71,3.41-7,6.51-6.9,10.87.18,6.57-2.92,11.66-5.21,17.21-2.4-.37-3.79,2.07-6,2.15,6-13.8,5.14-27.5.11-41.43a80.29,80.29,0,0,0-15-25.43c-9.87-11.47-21-20.24-37.25-19.18,7.14-5.59,15.24-9.56,23.11-13.94,0,3.46,0,6.93,0,10.39,0,1.74.13,3.26,2,4.05,2.7,1.13,5.36,2.36,8,3.54,1.46.64.66-.68.94-1.07l-.06.05c3.78-1.73,6.91-3.95,8.66-8.06C428.22,308.85,432.55,299.57,436.76,290.23Z" />
    <path class="rabota6-2"
      d="M381.5,323.31c16.26-1.06,27.38,7.71,37.25,19.18a80.29,80.29,0,0,1,15,25.43c5,13.93,5.91,27.63-.11,41.43l-5.12,4c-2.42,1-4.8,2.07-7.49,2-7.1,1.63-13.14-1.87-19.45-4.06-3.58-3.42-9.13-4.66-11-10,5.24-1.93,10.82-1.09,16.23-1.88,7.75-1.12,12.47-5.53,12.84-13.63.84-18.78-8.3-32.28-23.05-42.43-7.82-5.39-14.17-4.16-20.59,3.08-5.93,6.69-11.56,13.65-17.43,20.4-5.55,6.39-10.65,12.9-8.82,22.19l-30.07-4.81c2.92-2,1.08-3.4-.5-5q-15.09-15-30.12-30.14c-1.36-1.37-3.22-2.44-3.43-4.68q15.45,1.9,30.89,3.8c14.23,1.77,28.47,3.41,42.67,5.38,6.88.95,6.84,1.23,6.45-5.3.17-8.77,2.52-16.57,9.74-22.3C377.2,324.6,379,323.22,381.5,323.31Z" />
    <path class="rabota6-3"
      d="M404.64,201.39c0-34.79.05-69.58-.14-104.37,0-4,1-6.4,4.83-7.38,4.4-1.13,6,2.53,8.12,5,.77.93.8,2.49,1.17,3.76.67,1.14,1.31,2.31,2,3.43,9.91,15.45,17.51,31.88,17.79,50.55.39,26.29,0,52.6,0,78.9-2.36.4-3.63-1.25-5-2.66q-12.16-12.16-24.35-24.32C407.79,203.09,406.78,201.36,404.64,201.39Z" />
    <path class="rabota6-3"
      d="M285.6,344.5c.21,2.24,2.07,3.31,3.43,4.68q15,15.1,30.12,30.14c1.58,1.57,3.42,3,.5,5-12.53-2-25.07-4-37.6-6q-23.43-3.8-46.84-7.68c-11-1.83-19.92-7.45-27.92-14.94-5.3-5-10.87-9.64-16.24-14.54-1.9-1.73-4.49-3.41-2.89-6.65s5.1-2.28,7.82-2.89c.85-.19,1.89.44,2.85.7a6.55,6.55,0,0,0,1.79.82c16.06,2.08,32.14,4,48.19,6.18C261.08,341,273.47,341.87,285.6,344.5Z" />
    <path class="rabota6-3"
      d="M535.43,589a9.4,9.4,0,0,1,1.16,4.27c.08,7.44-4.63,9.14-9.33,6.33-11-6.57-23.34-11.31-32.09-21.28-2.29-2.6-4.4-5.36-6.59-8a40.77,40.77,0,0,0-4-10c-.44-1.58-.78-3.19-1.34-4.73q-8.36-23-16.78-46c-2.53-7.13-5-14.28-7.64-21.37-.57-1.51-2.24-3.14-.41-4.28,1.47-.92,2.47,1.21,3.45,2.19,14.37,14.3,28.6,28.72,43.08,42.89,3,2.92,5.5,6.51,9.51,8.3,3.43,8.61,6.69,17.3,10.35,25.81,3.3,7.72,5.23,16,9.81,23.19l-.06-.1C534.58,587.21,534.35,588.3,535.43,589Z" />
    <path class="rabota6-2"
      d="M404.64,201.39c2.14,0,3.15,1.7,4.41,3q12.21,12.12,24.35,24.32c1.4,1.41,2.67,3.06,5,2.66q.06,7.22.13,14.44c.18,18.58-2.68,36.62-10.14,53.72-4,9.09-8.56,17.91-12.87,26.85l.06-.05c-.32.35-.63.71-.94,1.07-2.68-1.18-5.34-2.41-8-3.54-1.9-.79-2.06-2.31-2-4.05,0-3.46,0-6.93,0-10.39Z" />
    <path class="rabota6-1"
      d="M349.72,389.1c-1.83-9.29,3.27-15.8,8.82-22.19,5.87-6.75,11.5-13.71,17.43-20.4,6.42-7.24,12.77-8.47,20.59-3.08,14.75,10.15,23.89,23.65,23.05,42.43-.37,8.1-5.09,12.51-12.84,13.63-5.41.79-11-.05-16.23,1.88a90.75,90.75,0,0,0-16.79.89C362.63,403.71,354.4,399.58,349.72,389.1Zm16.33,1.22c4.73-.09,6.69-2.5,6.63-6.9-.06-4-2.64-5.58-5.95-6-3.53-.41-6.28,2.86-6.15,6.72C360.72,388.19,363,390,366.05,390.32Z" />
    <path class="rabota6-4"
      d="M484.58,560.26a40.77,40.77,0,0,1,4,10c-5.73,3.36-11.35,6.91-17.21,10-3.65,1.93-5.21,4.25-5.05,8.57.49,13.46-.28,26.91-.92,40.36a45.43,45.43,0,0,1-5.21,3.72c-11,5.81-21.34,3.69-31.21-3-.87-10.22-.27-20.45-.31-30.67l2.89,1c1.38,2.32,2.91,1.93,4.19,0,1.08-1.61,1.76-3.41-1.09-4.13-1.73-2-4.76-2.48-6.11-5-.61-3.15,1.78-6.93-2.56-9.29-8.18-4.43-16.19-9.18-24.27-13.8-2.23-4.2-.92-8.64-.91-13,1.66.75,3.4,1.36,5,2.26,12.82,7.37,25.67,14.7,38.36,22.3,2.43,1.45,3.88,1.2,6.19-.14C461.66,573,473.15,566.66,484.58,560.26Z" />
    <path class="rabota6-2"
      d="M400.81,555.12c0,4.36-1.32,8.8.91,13-2.15,2.1-.64,4.82-1.22,7.19a4,4,0,0,0-4.61,2.72c-.82,2.31,1.38,2.91,2.77,3.89l2,1.37-.12,48A4,4,0,0,0,395.9,634c-.84,2.32,1.34,2.92,2.74,3.89l2,1.37q0,24,0,48c-1.91,0-4.14-.46-4.78,2.18s1,3.46,3.08,4.08c.67.2,1.15,1.06,1.71,1.62,0,5.15-.21,10.31.07,15.44.22,4.15-1.5,5.69-5.47,5.69s-5.69-1.26-5.64-5.53c.18-16.11,0-32.22,0-48.33l0-7.07q0-24.42-.05-48.83c0-2.11,0-4.23,0-6.34q0-19.81,0-39.62l-.06-9.21.06-7,.21-5c.75-.61.93-1.23,0-1.87l-.3,0c.1-.69.2-1.38.31-2.07.72-8.06,2.37-16.11,0-24.16l-.21-3.52.2-.33c.9-.63.86-1.29,0-2,0-.68,0-1.36,0-2.05a2.83,2.83,0,0,0,0-3.94c-.14-1.25-.27-2.5-.41-3.76l.09-7.16c.3-.56,1-1.36.84-1.63-2.85-4.73,1.51-8.44,1.77-12.71,0-.7,1-.63,1.65-.64,1.78,0,3.57-.08,5.35-.13.73,4.46,1.81,9-4.19,11a1.47,1.47,0,0,0-1,2c.34,1,1.23.93,2.05,1,1.25.15,3.64-.09,3.22,1.3-1.15,3.89,1.83,7.86,0,11.16-2.07,3.86-1.37,7.68-1.63,11.55l-.07.07c-1.88.22-2.71-3.22-5-1.56.47.95.7,2.09,1.39,2.66,2.87,2.36,3.8,4.35.49,7.42-1.51,1.39-1.92,4.22,1.34,5.49,2.4.94,3.56,3.9,2.9,5.45-1.15,2.67,1.11,3.07,1.74,4.49,0,.67.05,1.33.07,2-.9.66-1,1.32,0,2l.29-.14A85.84,85.84,0,0,0,400.81,555.12Z" />
    <path class="rabota6-2"
      d="M429,629.94c9.86,6.67,20.18,8.79,31.2,3a45.43,45.43,0,0,0,5.21-3.72c1.84,1.35,1.06,3.34,1.13,5.07.7,17.41-1,34.78-.88,52.18a7,7,0,0,1-2.89,6c-7.83,6.15-23.49,5.79-31.17-.49a7.47,7.47,0,0,1-3-6.39c.11-9.79.12-19.58.17-29.38,2.21.37,3.68-.21,4.32-2.66.42-1.58.65-2.85-.84-3.87-1.2-.83-2.43-1.61-3.65-2.42Z" />
    <path class="rabota6-5"
      d="M534.61,586.29c-4.58-7.17-6.51-15.47-9.81-23.19-3.66-8.51-6.92-17.2-10.35-25.81-.05-2.44-1.62-4.32-2.45-6.47-16.83-43.52-33.56-87.09-50.68-130.5-2.83-7.18-4.14-15.16-9.56-21.2,4.66-4.95,8.19-4.44,10.38,1.33,1.27,3.34,1.95,7,4.35,9.84,1.94,8.44,5.75,16.2,8.87,24.21q14.61,37.53,29.35,75c.84,2.14,1.92,4.2,2.89,6.29.08,2.39,1.19,4.45,2,6.61,3.91,10.19,8,20.31,11.62,30.6,1.39,4,2.48,4.24,6.13,2.2,7.91-4.42,15.23-9.93,23.83-13.1.1.48.23,1,.32,1.44,1.31,7.32-.64,12.61-8.22,15.56-4.73,1.84-8.93,5-13.44,7.49-2.49,1.36-3.34,2.73-2.46,5.84C530.53,563.56,533.47,574.74,534.61,586.29Z" />
    <path class="rabota6-5"
      d="M415.55,326.33c4.31-8.94,8.9-17.76,12.87-26.85,7.46-17.1,10.32-35.14,10.14-53.72q-.07-7.23-.13-14.44c0-26.3.4-52.61,0-78.9-.28-18.67-7.88-35.1-17.79-50.55-.72-1.12-1.36-2.29-2-3.43,5.33,1.74,7.5,6.86,10.61,10.67,11.28,13.79,17.43,29.73,17.47,47.73.06,28.65-.05,57.31,0,86,.05,16.55-4,32.19-10,47.43-4.2,9.34-8.53,18.62-12.54,28C422.46,322.38,419.33,324.6,415.55,326.33Z" />
    <path class="rabota6-5"
      d="M285.6,344.5c-12.13-2.63-24.52-3.54-36.79-5.19-16.05-2.15-32.13-4.1-48.19-6.18a6.55,6.55,0,0,1-1.79-.82,78.09,78.09,0,0,1,24-1.43c25.6,2.42,51.07,6,76.56,9.35,22.05,2.91,44.14,5.45,66.22,8.15.39,6.53.43,6.25-6.45,5.3-14.2-2-28.44-3.61-42.67-5.38Q301.05,346.38,285.6,344.5Z" />
    <path class="rabota6-6"
      d="M551.2,522.11c-8.6,3.17-15.92,8.68-23.83,13.1-3.65,2-4.74,1.77-6.13-2.2-3.6-10.29-7.71-20.41-11.62-30.6-.83-2.16-1.94-4.22-2-6.61q21,12.06,42,24.08C550.56,520.41,551.31,520.91,551.2,522.11Z" />
    <path class="rabota6-6"
      d="M389.83,539.25l-.21,5c-9.13-5.09-18.32-10.06-27.33-15.36-2.3-1.36-3.87-1.27-5.67.37a46.25,46.25,0,0,1-6.17-3.89c-2-1.7-5.68-1.52-5.88-5.21l20.95-11.85c-2.28,10.46,2,15.86,12.53,16h1.5c.69,7.9,4.2,12.47,10,13l.3,0Z" />
    <path class="rabota6-5"
      d="M344.57,520.2c.2,3.69,3.9,3.51,5.88,5.21a46.25,46.25,0,0,0,6.17,3.89c-.16,1.89,0,3.51,2,4.6,10.34,5.77,20.63,11.61,30.94,17.43l.06,9.21c-10-4.44-18.95-10.74-28.55-15.9-4.52-2.43-8.8-5.31-13.39-7.56-3.93-1.93-6-4.56-5-9C343.32,525.48,341,522.14,344.57,520.2Z" />
    <path class="rabota6-7"
      d="M369.55,451.81c3.13,0,6.27-.19,9.4-.06,2.89.11,4.31-1.22,4.62-3.95.55-5,2.57-9.56,4.24-14.21s4.87-7.83,10.28-7.83l1,.39c-3.4.17-3.81,2.46-3.66,5.16-1.43.41-1.52,1.54-1.53,2.75,0,5,0,9.93-.06,14.9l-.36,2.39a10.36,10.36,0,0,0-1.13,2.09c-1.35,4.86-4.05,7.57-9.55,7.09a11.83,11.83,0,0,0-7.06,1.66c.39-4.68-2.42-7.29-6.23-8.79C367.13,452.46,369.29,452.32,369.55,451.81Z" />
    <path class="rabota6-8"
      d="M399.11,426.14l-1-.38c-1.42-5.43.21-10.13,3.47-14.43,6.31,2.19,12.35,5.69,19.45,4.06.24,2.58,1.93,4.92,1.28,7.65a10.14,10.14,0,0,1-6.73,4.54,26.08,26.08,0,0,1-16-1.3Z" />
    <path class="rabota6-9"
      d="M428.57,647.21c1.22.81,2.45,1.59,3.65,2.42,1.49,1,1.26,2.29.84,3.87-.64,2.45-2.11,3-4.32,2.66-8.68-6.8-18.6-11.52-28.13-16.92l-2-1.37c-1.4-1-3.58-1.57-2.74-3.89a4,4,0,0,1,4.62-2.69A243.78,243.78,0,0,0,428.57,647.21Z" />
    <path class="rabota6-9"
      d="M400.58,695.13c-.56-.56-1-1.42-1.71-1.62-2.12-.62-3.69-1.57-3.08-4.08s2.87-2.14,4.78-2.18l34,20c-.93,1.6-2.42,3-2,5.11-8.43-3.33-15.82-8.57-23.68-13C406.2,697.86,403.37,696.54,400.58,695.13Z" />
    <path class="rabota6-9"
      d="M389.61,655.33l0,7.07c-3.57-.1-6-2.68-8.85-4.23-7.12-3.84-14.1-7.95-21.11-12-2.12-1.23-4.1-2.84-2.45-5.53,1.57-2.54,3.83-1.26,5.69-.21q11.17,6.36,22.28,12.88C386.57,654.15,387.89,655.17,389.61,655.33Z" />
    <path class="rabota6-1"
      d="M389.55,488.38l-.09,7.16c-2.23-.88-4.43-2-6.86-.62.1-2.12-.53-3.77-2.84-4.3-1.51-2.06-3.78-2.78-6.09-3.41-.46-.88-1-2.14-2.12-1.54-1.65.86-.05,2.37-.28,3.57-1.95-5.86-7.16-7.95-12.1-10.25-2.7-1.25-3.3-3.38-2.14-5.63,1.36-2.67,3.4-1.55,5.34-.24,1,.67,2.22,1.73,3.47.24,1.82.37.54,5.27,4.24,2.92,2.77,4.27,7.72,5.57,11.51,8.46l1.05-.49C384.21,486.86,387,487.49,389.55,488.38Z" />
    <path class="rabota6-9"
      d="M389.6,600.16c0,2.11,0,4.23,0,6.34-3.81-.4-6.6-2.94-9.77-4.68-6.67-3.65-13.37-7.26-19.88-11.19-1.74-1-5.33-1.62-3.23-5.36,1.92-3.42,4.49-1.59,6.38-.5,8.47,4.84,16.76,10,25.13,15A5.48,5.48,0,0,0,389.6,600.16Z" />
    <path class="rabota6-10"
      d="M379.55,524.31h-1.5c-10.57-.1-14.81-5.5-12.53-16L372.3,503c2.26,1.28.74,3.53,1.33,5.24,0,1.44,0,2.85,1.9,3.18-.12,1.46.92,1.91,2,2.31.53,2.92,3.73,3.26,5.15,5.32C381,520.44,382.62,523.77,379.55,524.31Z" />
    <path class="rabota6-11"
      d="M370.08,476.28c-3.7,2.35-2.42-2.55-4.24-2.92a46.31,46.31,0,0,0-5.47-12.44c-1.42-2.16-2.81-4.7-1.18-7.59,1.75-3.12,4.42-2,7-1.75,1.13.12,2.27.16,3.4.23-.26.51-2.42.65,0,1.59,3.81,1.5,6.62,4.11,6.23,8.79l-5.37-.52c3.23-4.29-1.74-4.4-3.23-6.24a3,3,0,0,0-4.38-.62c-1.62,1.24-1.52,2.91.05,4.22,1.07.9.76,2.12,1.08,3.19C366.92,466.49,367.86,471.66,370.08,476.28Z" />
    <path class="rabota6-11"
      d="M373.63,508.24c-.59-1.71.93-4-1.33-5.24,1.68-4.74-1.45-9.11-1-13.75.23-1.21-1.37-2.72.28-3.58,1.13-.6,1.66.66,2.12,1.54q1.09,6.44,2.18,12.87c0,3,0,6,0,9l-.2.2Z" />
    <path class="rabota6-2"
      d="M432.6,712.34c-.44-2.13,1-3.51,2-5.11,2.06.18,2.38,1.69,1.75,3.07S435,713.88,432.6,712.34Z" />
    <path class="rabota6-5"
      d="M535.43,589c-1.08-.69-.85-1.78-.88-2.8C535.63,586.88,535.48,588,535.43,589Z" />
    <path class="rabota6-2"
      d="M415.56,427.58A10.19,10.19,0,0,0,422.3,423c2.86,2,4-2.38,6.49-1.77,2.41-.58,4.09.93,5.94,2,1.55.91,3,1.13,2.84-1.37-.33-5.06,1.38-9.81,2.08-14.72,2.29-5.55,5.39-10.64,5.21-17.21-.12-4.36,4.19-7.46,6.9-10.87,5.42,6,6.73,14,9.56,21.2,17.12,43.41,33.85,87,50.68,130.5.83,2.15,2.4,4,2.45,6.47-4-1.79-6.52-5.38-9.51-8.3-14.48-14.17-28.71-28.59-43.08-42.89-1-1-2-3.11-3.45-2.19-1.83,1.14-.16,2.77.41,4.28,2.65,7.09,5.11,14.24,7.64,21.37-1.56,5.37-.61,10.86-.58,16.27,0,4.66-1.92,7.59-5.9,9.43-10,4.6-19.58,4.43-28.73-2.11l-1.59-1,.16-.11a3.35,3.35,0,0,1,.76-2.7c6.9-8,7.6-17.3,6.38-27.33-.65-5.29-2.12-10.58-1.48-16,1.68.81,3,2.35,5.09,2.26,3.94-.53,6.62-3.61,10.12-5,3.92-1.52,4.63-4,3.17-7.82-3.71-9.87-7.12-19.86-10.72-29.77-.48-1.33-.84-3-2.75-3.13l-24.55-14.26A2.07,2.07,0,0,0,415.56,427.58Z" />
    <path class="rabota6-5"
      d="M439.65,407.2c-.7,4.91-2.41,9.66-2.08,14.72.16,2.5-1.29,2.28-2.84,1.37-1.85-1.09-3.53-2.6-5.94-2q-.15-3.94-.29-7.89l5.12-4C435.86,409.27,437.25,406.83,439.65,407.2Z" />
    <path class="rabota6-5"
      d="M414.67,327.35c.31-.36.62-.72.94-1.07C415.33,326.67,416.13,328,414.67,327.35Z" />
    <path class="rabota6-6"
      d="M431.25,533.15c9.15,6.54,18.78,6.71,28.73,2.11,4-1.84,5.93-4.77,5.9-9.43,0-5.41-1-10.9.58-16.27q8.4,23,16.78,46c.56,1.54.9,3.15,1.34,4.73-11.43,6.4-22.92,12.71-34.25,19.28-2.31,1.34-3.76,1.59-6.19.14-12.69-7.6-25.54-14.93-38.36-22.3-1.57-.9-3.31-1.51-5-2.26a85.84,85.84,0,0,1,0-16l2.68,0a42.35,42.35,0,0,0,2.88,3.88c3.12,3.37,7.24,2.74,11,2s1.72-4.37,2.62-6.59c3.87,2.25,7.79,4.42,11.58,6.79,2.05,1.29,3.41.76,4.49-1.12s.47-3.31-1.54-4.37c-3.51-1.86-6.91-3.94-10.34-5.92l5.64-1.81-.16.11C430.08,532.64,430.35,533.38,431.25,533.15Z" />
    <path class="rabota6-12"
      d="M366.05,390.32c-3-.33-5.33-2.13-5.47-6.15-.13-3.86,2.62-7.13,6.15-6.72,3.31.39,5.89,2,5.95,6C372.74,387.82,370.78,390.23,366.05,390.32Z" />
    <path class="rabota6-9"
      d="M428.67,599.27l-28-16-2-1.37c-1.39-1-3.59-1.58-2.77-3.89a4,4,0,0,1,4.61-2.72c4.16,4.14,9.61,6.23,14.58,9.06,4.36,2.49,8.3,5.91,13.47,6.84,1.35,2.5,4.38,2.94,6.11,5-1.85.75-2.21,2.62-3.1,4.1Z" />
    <path class="rabota6-2"
      d="M431.56,600.29c.89-1.48,1.25-3.35,3.1-4.1,2.85.72,2.17,2.52,1.09,4.13C434.47,602.22,432.94,602.61,431.56,600.29Z" />
    <path class="rabota6-1"
      d="M424.17,533.83c3.44,2,6.84,4.07,10.35,5.93,2,1.06,2.7,2.36,1.54,4.37s-2.44,2.41-4.49,1.12c-3.79-2.37-7.71-4.54-11.58-6.79l-2.4-1.14-3.76-2.06a6.28,6.28,0,0,0-3.89-2c-2.11-2.6-7.14.34-7.87-4.61-2.41,2.07-.93,4.6-1.65,6.66-.63-1.42-2.89-1.82-1.74-4.49.66-1.55-.5-4.51-2.9-5.45-3.26-1.27-2.85-4.1-1.34-5.49,3.31-3.07,2.38-5.06-.49-7.42-.69-.57-.92-1.71-1.39-2.66,2.3-1.66,3.13,1.78,5,1.56.15.72.14,1.58,1.24,1.49a.45.45,0,0,0,.31-.32c.1-1.09-.75-1.11-1.48-1.24.26-3.87-.44-7.69,1.63-11.55,1.78-3.3-1.2-7.27,0-11.16.42-1.39-2-1.15-3.22-1.3-.82-.1-1.71,0-2.05-1a1.47,1.47,0,0,1,1-2c6-1.92,4.92-6.5,4.19-11h.41c1.86,1.6.56,3.84,1.16,5.7l-.15,14.23,1.74,3c-.09,1.53-1.83,2.21-1.81,3.92.08,6.12,0,12.25-.05,18.37a2.62,2.62,0,0,0,2.68,2.92,12.23,12.23,0,0,0,4.75,2.88c3.89,3,8.4,5,12.69,7.35Z" />
    <path class="rabota6-1"
      d="M389.56,551.33c-10.31-5.82-20.6-11.66-30.94-17.43-2-1.09-2.16-2.71-2-4.6,1.8-1.64,3.37-1.73,5.67-.37,9,5.3,18.2,10.27,27.33,15.36Z" />
    <path class="rabota6-13"
      d="M379.55,524.31c3.07-.54,1.49-3.87,3.14-5.26,1.05-.85,3.08-.61,3-2.72l3.1-.13,1.11,19.06c-.11.69-.21,1.38-.31,2.07C383.75,536.78,380.24,532.21,379.55,524.31Z" />
    <path class="rabota6-10"
      d="M382.6,494.92c2.43-1.41,4.63-.26,6.86.62.14,1.26.27,2.51.41,3.76s0,2.63,0,3.94c0,.69,0,1.37,0,2.05l0,2-.2.33c-3,.92-6.06,3.59-9-.2a.66.66,0,0,0-.71-.22A15.68,15.68,0,0,1,382.6,494.92Z" />
    <path class="rabota6-10"
      d="M400.42,535.26c.72-2.06-.76-4.59,1.65-6.66.73,4.95,5.76,2,7.87,4.61-1.3,2.47-3.83,1.87-5.92,2.34-.78-.13-1.78-.49-2.06.55s.75,1.18,1.54,1.31l0,1.72-2.68,0-.29.14c0-.66,0-1.32,0-2S400.44,535.93,400.42,535.26Z" />
    <path class="rabota6-1"
      d="M389.87,535.26l-1.11-19.06c1.42-1.5.59-3.33.76-5l.35-.09C392.24,519.15,390.59,527.2,389.87,535.26Z" />
    <path class="rabota6-11"
      d="M380.69,507.38c2.91,3.79,6,1.12,9,.2l.21,3.52-.35.09-8.74.34C379.63,510.17,380.39,508.77,380.69,507.38Z" />
    <path class="rabota6-1" d="M389.89,503.24c0-1.31,0-2.63,0-3.94A2.83,2.83,0,0,1,389.89,503.24Z" />
    <path class="rabota6-1" d="M389.86,507.25l0-2C390.72,506,390.76,506.62,389.86,507.25Z" />
    <path class="rabota6-1" d="M389.83,539.25l0-1.87C390.76,538,390.58,538.64,389.83,539.25Z" />
    <path class="rabota6-1"
      d="M400.49,537.26c0,.65,0,1.31,0,2C399.5,538.58,399.59,537.92,400.49,537.26Z" />
    <path class="rabota6-13"
      d="M396.44,471.93c-3,.86-4.13-.09-3.85-3.34.49-5.73.63-11.49.91-17.24l.36-2.39c2.67.3.71-4.17,3.68-3.57.19,7.12,6.13,5.57,10.24,6.78,2.58,1.21,4.64,3.58,7.79,3.55,0,2.3-.06,4.6,0,6.9.22,5.85-1.87,12.57,5.81,15.68.17.07.15.61.21.93l-7.89,6.82-1.19-.07a6.8,6.8,0,0,1-.61-2.29c1.52-11.14,1.34-11.5-8.51-16.54a17.45,17.45,0,0,1-2.06-1.36c-3-2.19-4.6-1.49-5.22,2.27C395.91,469.49,396.75,470.63,396.44,471.93Z" />
    <path class="rabota6-10"
      d="M397.54,445.39c-3-.6-1,3.87-3.68,3.57,0-5,.06-9.93.06-14.9,0-1.21.1-2.34,1.53-2.76.59,1.39-.81,3.86,2.15,4Z" />
    <path class="rabota6-13"
      d="M397.6,435.27c-3-.11-1.56-2.58-2.15-4-.15-2.69.26-5,3.66-5.15l.46.13q.14,3.29.29,6.57C398.72,433.3,397.59,433.75,397.6,435.27Z" />
    <path class="rabota6-14"
      d="M399.86,432.85q-.15-3.28-.29-6.57a26.08,26.08,0,0,0,16,1.3,2.07,2.07,0,0,1,.28.71l-.3,5.66C410,438.38,404.9,435.77,399.86,432.85Z" />
    <path class="rabota6-11"
      d="M381.59,484.74c-2.14-6-2-12.6-4.91-18.42a1.25,1.25,0,0,1,.89-1.91c1.15-.16,1.32.94,1.57,1.6,2.27,5.86,4.47,11.76,3.5,18.24Z" />
    <path class="rabota6-3"
      d="M375.85,500.08q-1.08-6.43-2.18-12.87c2.31.63,4.58,1.35,6.09,3.41l-2.37,8.69Z" />
    <path class="rabota6-11"
      d="M377.39,499.31l2.37-8.69c2.31.53,2.94,2.18,2.84,4.3A15.68,15.68,0,0,0,380,507.16h-2.37Q377.49,503.24,377.39,499.31Z" />
    <path class="rabota6-7"
      d="M377.61,507.17H380a.66.66,0,0,1,.71.22c-.3,1.39-1.06,2.79.09,4.15-.1,3.36,2.92,3.55,4.88,4.8.11,2.11-1.92,1.87-3,2.72-1.41-2.06-4.61-2.4-5.14-5.32-.38-1.53,1.23-3.15-.21-4.63Z" />
    <path class="rabota6-11"
      d="M377.34,509.1c1.44,1.48-.17,3.1.21,4.63-1.1-.4-2.14-.85-2-2.31,0-.72.06-1.44.1-2.16l.2-.2Z" />
    <path class="rabota6-7" d="M375.63,509.26c0,.72-.07,1.44-.1,2.16-1.87-.33-1.91-1.74-1.9-3.18Z" />
    <path class="rabota6-14"
      d="M370.39,461.67c-2,1.71-4.42-.83-6.48.55-.32-1.07,0-2.29-1.08-3.19-1.57-1.31-1.67-3-.05-4.22a3,3,0,0,1,4.38.62C368.65,457.27,373.62,457.38,370.39,461.67Z" />
    <path class="rabota6-6" d="M377.34,509.1l-1.51,0c0-3,0-6,0-9l1.54-.77q.11,3.93.22,7.86Z" />
    <path class="rabota6-6"
      d="M415.54,434l.3-5.66,24.55,14.26.18,45.7c-2.07.09-3.41-1.45-5.09-2.26-.16-2.63-1.82-2.8-3.86-2.35l-2.1-1.34c-2.51-1.32-4.7-3.49-7.9-3.07-.06-.32,0-.86-.21-.93-7.68-3.11-5.59-9.83-5.81-15.68-.09-2.3,0-4.6,0-6.9q0-4.2,0-8.41Z" />
    <path class="rabota6-4"
      d="M440.57,488.25l-.18-45.7c1.91.16,2.27,1.8,2.75,3.13,3.6,9.91,7,19.9,10.72,29.77,1.46,3.86.75,6.3-3.17,7.82C447.19,484.64,444.51,487.72,440.57,488.25Z" />
    <path class="rabota6-11"
      d="M431.62,483.64c2-.45,3.7-.28,3.86,2.35-.64,5.43.83,10.72,1.48,16,1.22,10,.52,19.35-6.38,27.33a3.35,3.35,0,0,0-.76,2.7l-5.64,1.81-3.6-2.21c2.4-1.43,5.59-1.5,7.24-4.21l1.13-.12c4.3-5.46,5.56-11.84,5.67-18.58C434.77,500.22,432.6,492,431.62,483.64Z" />
    <path class="rabota6-11" d="M431.25,533.15c-.9.23-1.17-.51-1.59-1Z" />
    <path class="rabota6-11"
      d="M403.48,539.13c0-.58,0-1.15,0-1.72.17-.62.34-1.24.52-1.86,2.09-.47,4.62.13,5.92-2.34a6.23,6.23,0,0,1,3.88,2c-.25,1-.61,1.87-1.86,1.93-2,.1-4.17,1.53-3.49,3s3.39,2.77,5.17,2.71c3.06-.09,4.05-2.69,3.95-5.58l2.4,1.14c-.9,2.22,1,5.91-2.62,6.59s-7.89,1.33-11-2A42.35,42.35,0,0,1,403.48,539.13Z" />
    <path class="rabota6-10"
      d="M396.44,471.93c.31-1.3-.53-2.44-.3-3.87.62-3.76,2.18-4.46,5.22-2.27a17.45,17.45,0,0,0,2.06,1.36c9.85,5,10,5.4,8.51,16.54a6.8,6.8,0,0,0,.61,2.29l-8.17.36c-1.89-2.13-1.1-5.58-3.64-7.38-.6-1.86.7-4.1-1.16-5.7Z" />
    <path class="rabota6-13"
      d="M403.14,521.4a2.62,2.62,0,0,1-2.68-2.92c0-6.12.13-12.25.05-18.37,0-1.71,1.72-2.39,1.81-3.92,4.36-.3,8.77-.3,13-1.66.77.48,1.41.21,2.26,0,3.9-1.15,6-5.63,10.53-5.54.07,4.2-1.8,8.06-.59,12.65,1,3.88,2.19,9.4-3.63,11.93-2.48,0-4.08,2-6.21,2.74C412.81,517.94,408.91,522.34,403.14,521.4Zm16.64-21.89H404.6A18.43,18.43,0,0,0,419.78,499.51Z" />
    <path class="rabota6-13"
      d="M427.82,527.42c-1.65,2.71-4.84,2.78-7.24,4.21-4.29-2.35-8.8-4.31-12.69-7.34,6.14-3.6,12.52-6.52,19.76-7Q427.74,522.38,427.82,527.42Z" />
    <path class="rabota6-14"
      d="M415.31,494.53c-4.22,1.36-8.63,1.36-13,1.66l-1.74-3c1.84-2,4.05-3.73,3.79-6.85l8.17-.36,1.19.07C418.1,488.16,416.8,491.32,415.31,494.53Z" />
    <path class="rabota6-10"
      d="M427.65,517.32c-7.24.45-13.62,3.37-19.76,7a12.37,12.37,0,0,1-4.75-2.89c5.77.94,9.67-3.46,14.53-5.13,2.13-.73,3.73-2.74,6.21-2.74C423.93,516,428,514.49,427.65,517.32Z" />
    <path class="rabota6-6"
      d="M417.59,537.32c.1,2.89-.89,5.49-3.95,5.58-1.78.06-4.51-1.26-5.17-2.71s1.48-2.9,3.49-3c1.25-.06,1.61-.94,1.86-1.93Z" />
    <path class="rabota6-7"
      d="M404.37,486.34c.26,3.12-1.95,4.88-3.79,6.85l.15-14.23C403.27,480.76,402.48,484.21,404.37,486.34Z" />
    <path class="rabota6-2"
      d="M397.64,511.24c.73.13,1.58.15,1.48,1.24a.45.45,0,0,1-.31.32c-1.1.09-1.09-.77-1.24-1.49Z" />
    <path class="rabota6-10"
      d="M385.66,516.33c-2-1.25-5-1.44-4.88-4.8l8.74-.34c-.17,1.68.66,3.51-.76,5Z" />
    <path class="rabota6-6"
      d="M404,535.55c-.18.62-.35,1.24-.52,1.86-.79-.13-1.85-.15-1.54-1.31S403.24,535.42,404,535.55Z" />
    <path class="rabota6-15"
      d="M415.54,434q0,6.69,0,13.36c-2.93,1.09-4.53,4.28-7.78,4.86-4.11-1.21-10,.34-10.24-6.78l.06-10.12c0-1.52,1.12-2,2.26-2.42C404.9,435.77,410,438.38,415.54,434Z" />
    <path class="rabota6-7"
      d="M415.31,494.53c1.49-3.21,2.79-6.37-1.58-8.48l7.89-6.82c3.2-.42,5.39,1.75,7.9,3.07-1.79,1.94-.45,4.39-1.08,6.52l-.33.13c-4.51-.09-6.64,4.39-10.54,5.54C416.72,494.74,416.08,495,415.31,494.53Z" />
    <path class="rabota6-7"
      d="M407.78,452.17c3.25-.58,4.85-3.77,7.78-4.86q0,4.21,0,8.41C412.42,455.75,410.36,453.38,407.78,452.17Z" />
    <path class="rabota6-2"
      d="M428.44,488.82c.63-2.13-.71-4.58,1.08-6.52l2.1,1.34c1,8.36,3.15,16.58,3,25.08-.11,6.74-1.37,13.12-5.67,18.58Z" />
    <path class="rabota6-6"
      d="M428.44,488.82,429,527.3l-1.13.12q-.07-5-.17-10.1c.32-2.83-3.72-1.33-3.77-3.79,5.82-2.53,4.65-8,3.63-11.93-1.21-4.59.66-8.45.59-12.65Z" />
    <path class="rabota6-15" d="M419.78,499.51a18.43,18.43,0,0,1-15.18,0Z" />
  </g>
</svg>