<svg id="Layer_1" data-name="Layer 1" xmlns="http://www.w3.org/2000/svg"
  viewBox="0 0 1089.39 1089.39">
  <defs>
    <style>
      .rabota10-1 {
      fill: #cbcbcb;
      }

      .rabota10-2 {
      fill: #cc2223;
      }

      .rabota10-3 {
      fill: #ec5a2c;
      }

      .rabota10-4 {
      fill: #782120;
      }

      .rabota10-5 {
      fill: #077ff7;
      }

      .rabota10-6 {
      fill: #863419;
      }

      .rabota10-7 {
      fill: #a3a09e;
      }

      .rabota10-8 {
      fill: #fcdf09;
      }

      .rabota10-9 {
      fill: #b14422;
      }

      .rabota10-10 {
      fill: #4b3838;
      }

      .rabota10-11 {
      fill: #ca2225;
      }

      .rabota10-12 {
      fill: #2965b4;
      }

      .rabota10-13 {
      fill: #dda888;
      }

      .rabota10-14 {
      fill: #9e4c2a;
      }

      .rabota10-15 {
      fill: #88361b;
      }

      .rabota10-16 {
      fill: #69696a;
      }

      .rabota10-17 {
      fill: #f9f7f4;
      }

      .rabota10-18 {
      fill: #fefefe;
      }
    </style>
  </defs>
  <g>
    <path class="rabota10-1"
      d="M608.47,568.73q37.06,21.19,74.14,42.38,28.59,16.33,57.21,32.64c2.31,1.32,4.7,2.51,6.22,4.84-.44.56-.75,1.33-1.32,1.66C710.43,669.91,676,689.33,642,709.45c-29.65,17.53-59.84,34.14-89.65,51.4-3.8,2.2-6.37,2.58-10.38.26-29.82-17.28-59.88-34.15-89.77-51.31-15-8.64-29.89-17.6-44.82-26.42,4.83-6,12.21-8.19,18.46-12,15.81-9.6,32-18.6,48-27.83,1.88-1.08,3.81-2.09,6.09-2,.69,4.95.88,10.07,4.71,14-1.74,6.3-1.83,12.09,3,17.51,7,8,13.58,16.37,20.37,24.55a41,41,0,0,0,26.55,14.83c15,2.16,21.18-4.75,17.13-19.33S539.26,666,529.52,654.5l4.08-35c2.86-1.58,1.31-4.29,1.52-6.47s.11-4.55,2.35-5.63c6.17-3,11.3-8.1,18.44-9.11,1,7.37-3.11,15.6,3.77,21.95,1.6,4.12-.38,8-.66,12-.35,5.11-.24,11.14,6.3,11.87,5.17.58,11,2.47,15.94-1.8a3.83,3.83,0,0,1,5.32.32c2.5,2.55,5.76,2.55,8.77,2.68,15.91.7,31.83,1.1,47.75,1.7,4,.15,5.85-2,7.49-5.4,1.87-3.95-.4-6-2.67-8a41.57,41.57,0,0,0-12.68-8.22c-9.18-3.61-18.28-7.41-27.41-11.13Q608.15,591.51,608.47,568.73Z" />
    <path class="rabota10-2"
      d="M484.63,655.55c-3.83-3.9-4-9-4.71-14,.36-13.05.42-26.12,1.16-39.15,1.07-18.95,8.54-36.58,12-55,4.58-24.12,10.84-48.09,7.89-73,6.77.22,12.89,3,19.12,5.11,11.69,3.95,20,1.13,20.3-8.93.5-14.67,4.44-29,3.62-43.72,3,.3,5.68,2.2,8.81,1.23l4.26,0c6.86-.69,14.21,2.5,20.53-2.55,9.27-.08,17.22-3.75,24.57-9-6.42,16.25-20.74,27-29.06,42-6.94,12.51-14.49,24.68-16.09,39.33-4,4.3-3.64,10.19-5.36,15.3-4.89,14.55-10.73,29.05-13.28,44.07-3.47,20.5-4.65,41.43-4.82,62.32q-2.05,17.48-4.09,35c-8.44,9.9-19.67,10.08-31.33,9.26C492.11,663.33,487.57,660.89,484.63,655.55Z" />
    <path class="rabota10-3"
      d="M737.56,771.69c-5.07.26-4.29,4-4.29,7.26q0,46.26.07,92.54c0,11.24-6.91,18.48-19.18,20.06a77,77,0,0,0,1.08-9.27q.1-62.6,0-125.21c0-2,1.12-4.74-1.4-5.86-2.34-1-3.83,1.53-5.67,2.49-1,.49-1.5,1.77-2.23,2.7-8,1.62-14.87,5.1-19.89,11.74-5-1.88-7.67,2.49-11.32,4.24l-4.83,2.94q-23.6,13.51-47.19,27c-2.25,1.29-4.82,2.25-6,4.91-7.46,2.13-14.09,5.91-20.46,10.23l-8.56,4.29c-6.81,5.36-14.58,9.11-22.11,13.25a12.76,12.76,0,0,0-1,3.39c-.07,16-.13,31.94,0,47.92,0,2.59.09,6.46,1.67,7.55,6.13,4.28,3.63,10.2,4,15.6-3.79,2.39-4.89,5.7-4.82,10.23.3,17-.07,34.12.27,51.17.11,5.64-1,9.61-6.71,11.73-4.2,1.56-7.45,5.19-12.08,6,0-2.31-.09-4.62-.14-6.93q.07-46,.2-92c0-3,.94-6,1.54-8.91,1.83-9,4.08-18.46-2.87-26.66.06-.49.13-1,.19-1.46,2.4-7.93,5.09-15.8,4-24.31-.5-3.68.78-6,4.34-8.08,29.74-17,59.28-34.39,88.95-51.53,23.24-13.43,46.43-27,69.94-39.9,11.3-6.23,21.55-14.42,33.94-18.66.14,5.46.11,10.94.46,16.39.22,3.38-1.28,5.16-4.08,6.66-3.1,1.66-6.48,3-8.88,5.75-3.42,9.78-1.15,19.85-1.39,29.79C733.1,771.26,735.91,771,737.56,771.69Z" />
    <path class="rabota10-4"
      d="M557.07,497.85c1.6-14.65,9.15-26.82,16.09-39.33,8.32-15,22.64-25.76,29.06-42-.35-2.55,3.36-3.13,2.82-5.78l0,0c4.44.88,2.9,4.45,2.92,7,.13,16,.08,31.94.09,47.91l-.12,81.71a23.64,23.64,0,0,0-.11,11.58v2.88c-1.87,14.48-.65,29.08-1.56,43.59-2,2.85-1,6.1-1.06,9.14,0,5.78-4.13,10.38-8.1,10.55-12.59.51-25.91,3.89-37.39-4.87-6.88-6.35-2.8-14.58-3.77-21.95,3.22-10.93,2.8-22.41,5.05-33.5A129,129,0,0,0,557.07,497.85Z" />
    <path class="rabota10-5"
      d="M502.16,306.47c-8.21-10-12.32-20.82-7.53-33.73,2.72-7.33,7.4-12.66,14.83-15.39l15.79,17.16c4.5,3.84,7.92,8.58,11.42,13.31,3.23,4.36,6.84,8.43,10.29,12.63,3.63.17,2.81,4.27,5.42,5.91,6.32,4,11.81,2.08,18.13.16,14.34-4.36,27.81-10.29,40.09-18.89a20.58,20.58,0,0,1,11.14-5.42c10,1.61,13.44,5.84,13,16-.07,1.91-.61,3.85.63,5.61-2.75,7.19-9.63,9.49-15.46,13-2.43,1.48-5,2.79-7.46,4.17-2,.1-4.27-.41-4.58,2.6h0a7.23,7.23,0,0,0-7,3.07c-1.71-.18-3.1.52-4.67,1.17-13.17,5.47-26.27,11.18-40.37,14-1.64-.35-3.56-.26-4.87-1.12-9.21-6-18.27-12.24-27.41-18.35C516.17,317.4,510.34,310.36,502.16,306.47Z" />
    <path class="rabota10-6"
      d="M546.86,981.69c0,2.31.09,4.62.14,6.93-6.41-.87-9.18-4-9.09-11,.38-29.21.06-58.43.27-87.64,0-4.85-1.16-7.73-5.69-10.25-22.32-12.4-44.6-24.91-66.43-38.16-6.45-3.91-11.27-4-16.74.47-1.71-5.37,0-12.62-7.29-15-3.64-1.18-7.12-6.24-10.1-4.12-3.71,2.63-2.76,8.32-2.37,12.91,2,23.08,1.69,46.14.24,69.25-.32,5.09-3.68,11.43,2.61,15.7-6.82,1.42-10.87-1.57-10.88-8.26,0-28.49-.3-57,.2-85.46.14-7.94-1.69-13-9.26-16.36-6.77-3-7.77-20.79-2.07-26-.22,3.23,1.9,4.57,4.39,5.93,9.92,5.44,19.89,10.81,29.6,16.61,28.69,17.11,57.74,33.56,87,49.59,6.83,3.74,11.51,8,9.92,16.73-.57,3.14-1.76,7.84.91,9.67,4,2.73,3.26,6,3.27,9.47.05,26.87,0,53.74.07,80.61C545.61,976.12,544.67,979.17,546.86,981.69Z" />
    <path class="rabota10-7"
      d="M407.35,683.38c14.93,8.82,29.78,17.78,44.82,26.42,29.89,17.16,59.95,34,89.77,51.31,4,2.32,6.58,1.94,10.38-.26,29.81-17.26,60-33.87,89.65-51.4,34-20.12,68.46-39.54,102.75-59.2.57-.33.88-1.1,1.32-1.66,2.72,6.4,2.92,11.86-4.72,15.23-3.65,1.61-7.32,3.68-8,8.35-.69-1.53-1.65-3.69-3.49-2.32-5,3.75-11.31,5.46-15.78,10l-2,.72-.31.07-.06.36-.38.33c-4,0-6.36,2.62-8.7,5.29a26.63,26.63,0,0,0-4,1.52c-27.17,15.56-54.4,31-81.43,46.84-11.39,6.66-23.64,11.9-34.05,20.22-4.89,1.22-8.65,4.49-12.76,7.12l-4.59,2.74c-7.31,1.95-12.41,8.41-20,9.8l-7.51-3.75c-9.4-5.43-18.64-11.16-28.23-16.21-8.49-4.47-16-10.82-25.56-13.25-6-4.29-11.34-9.68-18.93-11.28-5.43-4-10.82-8-17.29-10.19a40.54,40.54,0,0,0-11.81-7.2c-1.7-2.28-4.22-2.9-6.82-3.33a16.07,16.07,0,0,0-8-4.8c-3.21-2.09-6.37-4.27-9.65-6.25C405.06,694.42,404.18,691.69,407.35,683.38Z" />
    <path class="rabota10-8"
      d="M535.61,207.73c-9.73-8.18-10.79-13.28-5.78-24.21,3.22-7,5.63-14.37,8.85-21.37,3.61-7.88,20.77-14.22,30.3-11.68,14.62,3.9,22.11,14.26,27.08,27.38.42,1.11.22,2.6.9,3.45,7.37,9.27,5,17.68-2,25.77-.9.18-2.11.05-2.69.59-7.45,7-16.55,8.35-26.23,8.35-7.37,0-14.66-.1-21.66-2.77Z" />
    <path class="rabota10-9"
      d="M747,710.16c-12.39,4.24-22.64,12.43-33.94,18.66-23.51,12.95-46.7,26.47-69.94,39.9-29.67,17.14-59.21,34.5-88.95,51.53-3.56,2-4.84,4.4-4.34,8.08,1.14,8.51-1.55,16.38-4,24.31-1.09-3.45.67-7.25-1.54-10.59-5.8-8.74-4.49-22,2.77-29,7.46-1.46,12.52-7.42,19.26-10.23l23.2-14.23c6.45-1.37,9.21-5,8.36-11.87-.61-5,0-10.13-.18-15.2-.12-3.52,1.11-6,4.2-7.75,5-2.8,10-5.72,15-8.59,0,7.68.07,15.35,0,23-.05,3.77,1.22,4.83,4.59,2.83q16.91-10.07,33.83-20.09c6.31-1.92,7.28-5.13,3-10.37-2.4-2.94-3.77-6.7-6-9.81-2.56-3.62-1.42-5.5,2-7.73,4-2.6,5,.21,6.51,2.63s3.11,4.85,4.66,7.27H666l.1.46-.07-.15c.83,1.45,1.8,2.84,2.48,4.36,2.59,5.79,5.18,5.28,7.86.09,7.55-.86,12.76-5.73,18.8-10.38L671.8,712.4l10.06-5.29c6.32,7.4,15.09,10.75,23.71,14.36l.52,0h.53c5.7-1.61,7.8-5.28,7.53-11.22-.39-8.34,0-16.7,0-25,2.38,2.45,1.25,5.51,1.3,8.29.15,7.55.05,15.11.05,24.34,6.56-5.22,13.17-6.73,17.69-11.69a1,1,0,0,0,.78-.61C739.51,703.67,743.71,705.69,747,710.16Z" />
    <path class="rabota10-9"
      d="M436.46,713a40.54,40.54,0,0,1,11.81,7.2l1.41,6.2c-1.84,7.23-2.78,14.45.34,21.6a5,5,0,0,0-.54,1.33c-1.48,16-.35,32.08-.6,48.12a4.16,4.16,0,0,0,2.62,3.94c7.26,3.65,13.68,8.84,21.43,11.58,4.16,3,7.95,6.71,13.35,7.55,9.77,7.25,20.76,12.44,31.29,18.39,4.32.89,6.54,7.28,12.2,4.64,3.31,1.86,3.48,7.34,8.44,7.3,2,2.14,5,2.26,7.52,3.26,6.95,8.2,4.7,17.71,2.87,26.66-.6,2.93-1.53,5.88-1.54,8.91q-.16,46-.2,92c-2.19-2.52-1.25-5.57-1.26-8.37-.07-26.87,0-53.74-.07-80.61,0-3.42.74-6.74-3.27-9.47-2.67-1.83-1.48-6.53-.91-9.67,1.59-8.74-3.09-13-9.92-16.73-29.3-16-58.35-32.48-87-49.59-9.71-5.8-19.68-11.17-29.6-16.61-2.49-1.36-4.61-2.7-4.39-5.93,2.69-2.23,5.26-5.11,9-1.61l2.63,1a8.53,8.53,0,0,0,7.35,2.93,5.18,5.18,0,0,0,1.19-.17c.14,0,.24-.4.24-.61q0-31.05-.11-62.11c0-.82-.84-1.64-1.28-2.46v-2.92C431.1,716,431.38,711.54,436.46,713Z" />
    <path class="rabota10-10"
      d="M605,410.73c.54,2.65-3.17,3.23-2.82,5.78-7.35,5.28-15.3,8.95-24.57,9-4.48-.05-9-.28-13.44-.07-2.52.12-6-1.49-7.09,2.62l-4.26,0c-3.08-4.71-7.09-2.8-11-1.55.53,1.5,1.45.29,2.19.32.82,14.72-3.12,29.05-3.62,43.72-.35,10.06-8.61,12.88-20.3,8.93-6.23-2.11-12.35-4.89-19.12-5.11-1.69-4.51-9.42-4.87-7.93-11.56.63-2.45,2.1-3,4.32-1.92a73.13,73.13,0,0,0,8.51,3.79c8.14,2.56,15.79,6.86,24.59,7.13,2.61.08,4.54-.2,4.93-3.63,1.18-10.47,3.27-20.85,2.84-31.46-.09-2.26.73-5.12-3-5.42-.9-4.31,3.64-7.34,2.73-11.65,2.49-5.82,2.91-12.33,6.11-17.9a82,82,0,0,0,27.87.43c14.33-2.13,28-5.46,38.62-16.32a11,11,0,0,0,3.42,5.6q1.4,2.39,2.8,4.77c-.17,3,2.18,5.11,3,7.9,4.66,16.45,2.17,33.19,2.75,49.8.08,9.29-.63,9.87-14.54,11.77,0-16,0-31.94-.09-47.91,0-2.58,1.52-6.15-2.92-7V400c-7.09,12.08-20.24,10.76-29.18,18.67,4,1.06,6.33.22,8.92-.34C591.94,416.74,597.59,411.32,605,410.73Zm-47.58,11.59v0c3.38,0,6.77.08,10.15,0,2.07-.06,5.46.75,5.64-1.71.23-3.09-3.34-3.78-5.84-3.87-7.49-.25-15-.11-22.47-.12-1.79,0-3.5.21-3.61,2.53-.13,2.67,1.67,3.15,3.81,3.15Z" />
    <path class="rabota10-11"
      d="M502.16,306.47c8.18,3.89,14,10.93,21.4,15.88,9.14,6.11,18.2,12.34,27.41,18.35,1.31.86,3.23.77,4.86,1.12l-.24,37.95c-1.62,1-3.23,2.73-5.12,2.13-7.23-2.29-13.51,1.21-19.93,3.18-2.89.89-6.67,2.08-6.42,6.57l-2,2c-5.81-1.47-10.48-5.28-15.81-7.74,4.9-16.78,2.77-33.44-.86-50.09C503.31,326.18,501.08,316.5,502.16,306.47Z" />
    <path class="rabota10-12"
      d="M547,300.45c-3.45-4.2-7.06-8.27-10.29-12.63-3.5-4.73-6.92-9.47-11.42-13.31.81-1,2.86.23,2.76-2.81-.24-7.82-2.24-14.65-7.52-20.44l11.6-7.25c0,5.5,1.77,8.79,7.81,10.75,10.61,3.44,21.06,2.31,31.66,1.36,8.12,1.8,12.58-5.54,19.14-7.65.46,2.95-1.35,6.55,2.44,8.56-.78,6.35-1.44,13.15-7.29,16.86-11.45,7.26-23.22,14.05-35.11,20.56C547.9,296,546.69,297.47,547,300.45Z" />
    <path class="rabota10-11"
      d="M610.62,385.86C600,396.72,586.33,400.05,572,402.18a82,82,0,0,1-27.87-.43c1.26-8,1.24-7.93,7.45-5.94,1,.32,2.32-.2,3.43-.53,5.49-1.67,7.53-7.21,5.44-14.69,2-1.85,4.43-1.6,6.83-1.71,10.32-.48,18.06-4.89,25.05-12.92,7.14-8.19,9.51-16.72,8.54-27-.39-4.07,0-8.21,0-12.31a7.23,7.23,0,0,1,7-3.07v39.75h2.77c0-12.58,0-25.17-.06-37.76,0-1.28-1.5-1.74-2.73-2,.31-3,2.62-2.5,4.58-2.6C615,342.71,612.05,364.27,610.62,385.86Z" />
    <path class="rabota10-13"
      d="M590.7,248.47c-6.56,2.11-11,9.45-19.14,7.65L534.12,233.9c-3.38-5.05-3.29-10.75-3.25-16.49,0-2.91,1-4.57,4.09-4.37,7.65,3.42,2.75,11.66,6.32,17.68,2.92-6.19,1.72-12.07,3.08-17.48,7,2.67,14.29,2.78,21.66,2.77,9.68,0,18.78-1.4,26.23-8.35.58-.54,1.79-.41,2.69-.59,2.21.43,5.07-.35,5.73,3.05-8.21-2.37-8.59-2.11-8.5,6.34.07,6.75.22,13.5.34,20.25C591.46,240.56,593.6,244.9,590.7,248.47Zm-3.07-10c-.06-1.3.06-3-1.55-2.68a9.24,9.24,0,0,0-7.44,5.66c-.43,1.07,1,2.15,2.29,2.07C584.25,243.29,586.7,241.75,587.63,238.46Z" />
    <path class="rabota10-14"
      d="M535.28,431.3c3.72.3,2.9,3.16,3,5.42.43,10.61-1.66,21-2.84,31.46-.39,3.43-2.32,3.71-4.93,3.63-8.8-.27-16.45-4.57-24.59-7.13a73.13,73.13,0,0,1-8.51-3.79c-2.22-1-3.69-.53-4.32,1.92-.13-3.76-4.5-5.53-4.4-9.38s-.1-7.75.3-11.58c.58-5.48.63-11.44,3.68-16,2-3.07,6.81.59,10.18-1a20.94,20.94,0,0,0,1.88-1.1c2.41,3.81,6.11,4.63,10.26,4.44a9.51,9.51,0,0,1,6,2.87v21.58l1.32,0v-21.5l4.54-.08C529.66,430.38,532.39,434.07,535.28,431.3Zm-15.1,27c-.24.41-.61.77-.62,1.14s.34.76.52,1.14c.22-.36.6-.71.62-1.08S520.38,458.71,520.18,458.28Z" />
    <path class="rabota10-9"
      d="M432.41,920.82c-6.29-4.27-2.93-10.61-2.61-15.7,1.45-23.11,1.75-46.17-.24-69.25-.39-4.59-1.34-10.28,2.37-12.91,3-2.12,6.46,2.94,10.1,4.12,7.28,2.35,5.58,9.6,7.29,15q-.15,28.91-.28,57.8c-.05,13.87,0,13.87-13.68,19.43-1.28,0-2.46.2-3,1.55Z" />
    <path class="rabota10-1"
      d="M675.06,224.89c3.79.31,3.08,4.85,5.8,6.16a55.52,55.52,0,0,1,6.43,26.55c0,.17.31.34.48.5-6.38,8.37-13.43,15.83-24.49,17.77-.06-1.19-.14-2.38-.18-3.57-.34-9.87-4.69-12.8-13.73-9.19-2.2.89-4.34,1.93-6.51,2.9-7-6.49-5.38-15.56-7-23.64l12.81-18.93C655.92,231.25,664.47,231.72,675.06,224.89Zm-17.69,23.66c.77-5.32-3.09-7-7-7-4.45,0-7.87,2.72-7.48,7.83.33,4.37,3.08,7.36,7.45,7.26C655,256.51,658,253.89,657.37,248.55Z" />
    <path class="rabota10-12"
      d="M635.82,242.37c1.66,8.08,0,17.15,7,23.63-1.9,3.64-5,7.17-8.82,6.47-5.18-1-7.17,1.84-9.61,4.92-5.34-3-9.09-8.29-14.88-10.68-3.16-4.93-.73-10.59-2-15.77l.14-2.65c.89-6.39.27-12.85.93-19.3.36-3.49,1.8-9.66-3.41-12.71-.56-1.95-1.13-3.89-1.69-5.83,4.92-1.73,7.5,1.74,10,4.79C621,224.21,628.4,233.32,635.82,242.37Z" />
    <path class="rabota10-15"
      d="M705.93,756.4c.73-.93,1.27-2.21,2.23-2.7,1.84-1,3.33-3.53,5.67-2.49,2.52,1.12,1.4,3.85,1.4,5.86q.1,62.61,0,125.21a77,77,0,0,1-1.08,9.27c-3.21.61-4.95-2.06-7.34-3.29q0-26.71-.07-53.44c4.31-6,7.11-12.46,5.72-20.1L704,799.89c2.68-2,1.34-4.9,1.41-7.35C705.7,780.5,705.77,768.45,705.93,756.4Z" />
    <path class="rabota10-13"
      d="M624.43,277.39c2.44-3.08,4.43-5.88,9.61-4.92,3.8.7,6.92-2.83,8.82-6.47,2.17-1,4.31-2,6.51-2.89,9-3.61,13.39-.68,13.73,9.19,0,1.19.12,2.38.18,3.57.61,5.36-3.25,8.22-6.55,11.23-6.67,6.11-13.47,12.09-21.32,16.71-1.24-1.76-.7-3.7-.63-5.61.4-10.15-3.06-14.38-13-16A5.94,5.94,0,0,0,624.43,277.39Z" />
    <path class="rabota10-6"
      d="M429.4,718.73c0,1,0,1.95,0,2.92l0,65.35a8.53,8.53,0,0,1-7.35-2.93c-.11-.51-.23-1-.34-1.52,0-1.21.05-2.43.07-3.62.13-9.55.38-19.13.26-28.69,0-1.82,1.93-5.43-2-5.38-3.24,0-3.67,3.06-3.78,5.93-.21,5.45,1,11-.86,16.34-6.93-1.49-9-6-7.91-12.58a14.19,14.19,0,0,0,.07-5c-1.33-6.47,1.75-10,7.32-12.63,2.73-1.28,6.77-1.88,6.69-6.38,0-.62,0-1.24,0-1.85,0-2.28,0-4.57,0-6.85v-3.27q.07-6.87.13-13.72a16,16,0,0,1,8,4.81Z" />
    <path class="rabota10-3"
      d="M733.17,706.17c-4.52,5-11.13,6.47-17.69,11.69,0-9.23.1-16.79-.05-24.34,0-2.78,1.08-5.84-1.3-8.29,0-1.79-.07-3.58-.1-5.37,4.47-4.55,10.76-6.26,15.78-10,1.84-1.37,2.8.79,3.49,2.32,0,1.12,0,2.24,0,3.35Q733.24,690.84,733.17,706.17Z" />
    <path class="rabota10-10"
      d="M521,431.11a9.51,9.51,0,0,0-6-2.87c0-9.17-.05-18.33,0-27.49,0-3.41-.59-6.4-4.43-7.21-4.41-.93-5,2.61-6,5.56a3.23,3.23,0,0,0-1-.16c-3.16-5.16-.22-9.07,2.64-13,5.33,2.46,10,6.27,15.81,7.74a28.89,28.89,0,0,0,13.12,5.81l-4.8,20c-.24,4.15-4.39,7.09-3.58,11.57l-4.54.08A9.72,9.72,0,0,0,521,431.11Z" />
    <path class="rabota10-16"
      d="M675.06,224.89c-10.59,6.83-19.14,6.36-26.43-1.45,1-4.88,2.07-9.73,2.81-14.64a9.24,9.24,0,0,1,5.62-7.6c1.84,1.09,2.51,4.09,5.51,3.31,2.51-.65,2.09-2.63,2.08-4.43,5.82,1.87,8.3,6,8.63,12C673.51,216.37,674.44,220.62,675.06,224.89Z" />
    <path class="rabota10-15"
      d="M669.89,775.32l4.83-2.94c4.61,2.17,6.49,6.56,8.84,10.64,6.66,11.55,13.46,23,20.21,34.51l.14,15c-2.8-.06-3-2.71-3.9-4.32C689.88,810.65,679.91,793,669.89,775.32Z" />
    <path class="rabota10-3"
      d="M534.12,233.9l37.44,22.22c-10.6.95-21,2.08-31.66-1.36-6-2-7.85-5.25-7.81-10.75Q533.11,239,534.12,233.9Z" />
    <path class="rabota10-7"
      d="M664.65,200.08c0,1.8.43,3.78-2.08,4.43-3,.78-3.67-2.22-5.51-3.31,2.34-2.07,1.75-4.85,1.75-7.45q0-24.66,0-49.34c0-1.94,0-3.87.08-5.81.09-2.26.41-4.69,3.35-4.6,2.73.07,2.47,2.58,2.56,4.41.15,3.14.09,6.29.07,9.43Q664.79,174,664.65,200.08Z" />
    <path class="rabota10-11"
      d="M603.48,210.45c.56,1.94,1.13,3.88,1.69,5.82q-.12,10.83-.23,21.67c-1.81,1.35-4.53.79-6,1.84-4.61,3.38-5.71.87-6.47-3.07-.12-6.75-.27-13.5-.34-20.25-.09-8.45.29-8.71,8.5-6.34Z" />
    <path class="rabota10-10"
      d="M504.71,423.8a19.48,19.48,0,0,1-1.87,1.1c-3.37,1.55-8.13-2.11-10.18,1-3.05,4.55-3.1,10.51-3.68,16-.4,3.83-.22,7.72-.3,11.58-5.18-11.26-2.94-22.92-1.85-34.51,12.56-1.9,12.56-1.9,11.9-12.24l4.63-6.33c1,7.35-1.17,14.9,1.32,22.17A3.92,3.92,0,0,1,504.71,423.8Z" />
    <path class="rabota10-14"
      d="M622.56,453.93c-.58-16.61,1.91-33.35-2.75-49.8-.79-2.79-3.14-4.87-3-7.9,2.63-.06,5.2.1,7.17,2.22a9.06,9.06,0,0,1,2.89,5.67C628.17,421,627.91,437.66,622.56,453.93Z" />
    <path class="rabota10-11"
      d="M520.49,251.26c5.28,5.79,7.28,12.62,7.52,20.44.1,3-2,1.84-2.76,2.81l-15.79-17.16Z" />
    <path class="rabota10-13"
      d="M687.77,258.1c-.17-.16-.48-.33-.48-.5a55.52,55.52,0,0,0-6.43-26.55c6.86.36,11.3,3.9,12.47,10.61C694.43,248,693.9,254.07,687.77,258.1Z" />
    <path class="rabota10-9"
      d="M596.28,817.49c6.37-4.32,13-8.1,20.46-10.23,2.52,12-8.08,12.14-14.47,16.09-1.93-.28-4.83.55-3.61-3.29C599.33,818,597.72,817.75,596.28,817.49Z" />
    <path class="rabota10-9"
      d="M737.56,771.69c-1.65-.74-4.46-.43-4.41-2.94.24-9.94-2-20,1.39-29.79,3.14,2.26,5.59,5.67,9.89,6l.06,2.92c-5.65-.3-7.63,2.53-7.18,7.93.43,5.22.45,10.47.66,15.7Z" />
    <path class="rabota10-8"
      d="M624,398.45c-2-2.12-4.54-2.28-7.17-2.22q-1.41-2.39-2.8-4.77a52.54,52.54,0,0,0,2.67-6.59c1-3.71,3.72-3.32,6.29-2.88,2.8.48,3.77,2.39,3.17,5.21C625.37,390.94,624.72,394.7,624,398.45Z" />
    <path class="rabota10-3"
      d="M738,771.51c-.21-5.23-.23-10.48-.66-15.7-.45-5.4,1.53-8.23,7.18-7.94q0,10.15.1,20.3C742.5,769.52,740.58,771.2,738,771.51Z" />
    <path class="rabota10-3"
      d="M415.35,767.13c1.84-5.36.65-10.89.86-16.34.11-2.87.54-5.88,3.78-5.93,3.94-.05,2,3.56,2,5.38.12,9.56-.13,19.14-.26,28.69-.14-1.92-.67-3.9-.34-5.71C422.35,768.05,419.91,766.62,415.35,767.13Z" />
    <path class="rabota10-3"
      d="M703.91,832.55q-.07-7.51-.14-15c2.37-2.58,5.35-3.25,8.7-2.81,1.39,7.64-1.41,14.08-5.72,20.1-.38.06-.75.13-1.12.21Z" />
    <path class="rabota10-9"
      d="M570.34,909.49c-.4-5.4,2.1-11.32-4-15.6-1.58-1.09-1.65-5-1.67-7.55-.14-16-.08-32,0-47.92a12.76,12.76,0,0,1,1-3.39c0,12.08-.09,24.17-.05,36.25,0,7.35-.6,14.48,4.21,21.39C572.94,897.23,571.74,903.79,570.34,909.49Z" />
    <path class="rabota10-8"
      d="M498.73,406.68c.66,10.34.66,10.34-11.9,12.24-.71-3.73,1.64-6.82,2.67-10C490.89,404.55,494.81,404,498.73,406.68Z" />
    <path class="rabota10-10"
      d="M544.36,213.24c-1.36,5.41-.16,11.29-3.08,17.48-3.57-6,1.33-14.26-6.32-17.68.22-1.77.43-3.54.65-5.31Z" />
    <path class="rabota10-16"
      d="M705.63,835c.37-.08.74-.15,1.12-.21q0,26.71.07,53.44c-1.55-.86-1.37-2.36-1.36-3.77Q705.54,859.76,705.63,835Z" />
    <path class="rabota10-13"
      d="M606.23,605.46c.91-14.51-.31-29.11,1.56-43.59q.33,3.43.68,6.86-.33,22.77-.64,45.55C604.54,611.84,607.44,608.28,606.23,605.46Z" />
    <path class="rabota10-14"
      d="M596.28,817.49c1.44.26,3.05.48,2.38,2.57-1.22,3.84,1.68,3,3.61,3.29-2.33,3.13-4.95,3.08-8,1-1.94-1.35-3.92-2.87-6.56-2.52Z" />
    <path class="rabota10-7"
      d="M733.17,706.17q.06-15.33.14-30.65c1.51,10,.49,20,.64,30A1,1,0,0,1,733.17,706.17Z" />
    <path class="rabota10-14"
      d="M504.68,422.52c-2.49-7.27-.34-14.82-1.32-22.17l.27-1.41a3.23,3.23,0,0,1,1,.16C506,406.9,505.28,414.71,504.68,422.52Z" />
    <path class="rabota10-13"
      d="M744.59,768.17q-.06-10.14-.1-20.3l-.06-2.91C747.52,752.68,747.24,760.42,744.59,768.17Z" />
    <path class="rabota10-13" d="M607.79,559a23.64,23.64,0,0,1,.11-11.58A32.42,32.42,0,0,1,607.79,559Z" />
    <path class="rabota10-3" d="M421.67,782.55c.11.51.23,1,.34,1.52l-2.63-1Z" />
    <path class="rabota10-7" d="M421.54,718.58v3.27A2.1,2.1,0,0,1,421.54,718.58Z" />
    <path class="rabota10-6"
      d="M432.32,920.83c.58-1.35,1.76-1.55,3-1.55C434.79,920.68,433.55,920.75,432.32,920.83Z" />
    <path class="rabota10-7"
      d="M421.53,728.7c0,.61,0,1.23,0,1.85C420.61,729.92,420.65,729.31,421.53,728.7Z" />
    <path class="rabota10-10"
      d="M484.63,655.55c2.94,5.34,7.48,7.78,13.56,8.21,11.66.82,22.89.64,31.33-9.26,9.74,11.52,18.05,23.89,22.13,38.61s-2.14,21.49-17.13,19.33A41,41,0,0,1,508,697.61c-6.79-8.18-13.33-16.59-20.37-24.55C482.8,667.64,482.89,661.85,484.63,655.55Z" />
    <path class="rabota10-10"
      d="M606.23,605.46c1.21,2.82-1.69,6.38,1.6,8.82,9.13,3.72,18.23,7.52,27.41,11.13a41.57,41.57,0,0,1,12.68,8.22c2.27,2.06,4.54,4.09,2.67,8-1.64,3.44-3.44,5.55-7.49,5.4-15.92-.6-31.84-1-47.75-1.7-3-.13-6.27-.13-8.77-2.68a3.83,3.83,0,0,0-5.32-.32c-4.94,4.27-10.77,2.38-15.94,1.8-6.54-.73-6.65-6.76-6.3-11.87.28-4,2.26-7.9.66-12,11.48,8.76,24.8,5.38,37.39,4.87,4-.17,8.08-4.77,8.1-10.55C605.19,611.56,604.23,608.31,606.23,605.46Z" />
    <path class="rabota10-4"
      d="M557.12,428.09c1.14-4.11,4.57-2.5,7.09-2.62,4.47-.21,9,0,13.44.07C571.33,430.59,564,427.4,557.12,428.09Z" />
    <path class="rabota10-4"
      d="M544.05,426.83c-.74,0-1.66,1.18-2.19-.32,3.91-1.25,7.92-3.16,11,1.55C549.73,429,547,427.13,544.05,426.83Z" />
    <path class="rabota10-15"
      d="M545.73,854.1c-2.54-1-5.47-1.12-7.52-3.26q-.08-8.15-.14-16.29v-44c-7.49,4.07-14.36,7.21-20.2,12.15-8.75,3.34-8.57,3.26-4.63,11.16,5,10.16,12.29,19.08,16.53,29.68-5.66,2.64-7.88-3.75-12.2-4.64-.9-4.59-3.86-8.19-6.2-12-3.07-5-4.48-13.2-9.63-14.33s-10.24,5.1-15.46,8c-5.4-.84-9.19-4.52-13.35-7.55,5.92-3.62,11.7-7.5,17.81-10.76,3.89-2.08,4.37-3.82,2.07-7.68-10.31-17.35-20.28-34.9-30.37-52.38-1.5-2.68-2.7-5.6-4.56-8-2.31-3-2.75-8.09-8.2-7.76l-1.41-6.2c6.47,2.19,11.86,6.22,17.29,10.19a63.08,63.08,0,0,0,2.64,5.86c10.07,17.53,20.29,35,30.28,52.57,4.4,7.76,5.14,8,12.21,1l24.49-13.55c2-1.12,3.36-2.67,3.1-5.17l7.51,3.75c1.8,2.08,1.08,4.61,1.11,7,.14,10.39.18,20.78.25,31.17-7.26,7-8.57,20.31-2.77,29,2.21,3.34.45,7.14,1.54,10.59C545.86,853.12,545.79,853.61,545.73,854.1Z" />
    <path class="rabota10-9"
      d="M712.47,814.72c-3.35-.44-6.33.23-8.7,2.81-6.75-11.5-13.55-23-20.21-34.51-2.35-4.08-4.23-8.47-8.84-10.64,3.65-1.75,6.32-6.12,11.32-4.24,6.09,10.53,12.88,20.65,18,31.75Z" />
    <path class="rabota10-4"
      d="M600.88,326.66c0,4.1-.4,8.24,0,12.31,1,10.27-1.4,18.8-8.54,27-7,8-14.73,12.44-25.05,12.92-2.4.11-4.87-.14-6.83,1.7-1.41-1.53-3.07-1.58-4.86-.81l.24-37.95c14.11-2.81,27.21-8.52,40.38-14C597.78,327.18,599.17,326.48,600.88,326.66Z" />
    <path class="rabota10-11"
      d="M607.51,250.94c1.31,5.18-1.12,10.84,2,15.77-1.52,7.07,0,14,1.05,20.92-12.28,8.6-25.75,14.53-40.09,18.89-6.32,1.92-11.81,3.83-18.13-.16-2.61-1.64-1.79-5.74-5.42-5.91-.27-3,.94-4.44,3.78-6,11.89-6.51,23.66-13.3,35.11-20.56,5.85-3.71,6.51-10.51,7.29-16.86C596.52,251.68,601.78,250.75,607.51,250.94Z" />
    <path class="rabota10-15"
      d="M665.58,732.89c-1.55-2.42-3.12-4.84-4.66-7.27s-2.52-5.23-6.51-2.63c-3.42,2.23-4.56,4.11-2,7.73,2.21,3.11,3.58,6.87,6,9.81,4.28,5.24,3.31,8.45-3,10.37-3-5.17-6.21-10.2-8.8-15.55-2.12-4.37-4-5.53-8.49-2.5-6.75,4.53-14,8.23-21.1,12.28-5,2.87-10,5.79-15,8.59-3.09,1.73-4.32,4.23-4.2,7.75.18,5.07-.43,10.2.18,15.2.85,6.85-1.91,10.5-8.36,11.87-.11-7.16-.16-14.33-.38-21.49-.05-1.45.48-4.51-1.2-4.12-9.72,2.25-2.75-5.54-4.89-7.72,10.41-8.32,22.66-13.56,34.05-20.22,27-15.81,54.26-31.28,81.43-46.84a26.63,26.63,0,0,1,4-1.52c-.65,2.57.86,4.72,1.34,7.07-6.81,5.38-14.51,9.31-22.1,13.41L671.8,712.4l23.39,14.87c-6,4.65-11.25,9.52-18.8,10.38-3.66-1-6.31-4.33-10.34-4.45l.08.15A.55.55,0,0,1,665.58,732.89Z" />
    <path class="rabota10-3"
      d="M565.3,779.6l1.11,23.16c-6.74,2.82-11.8,8.78-19.26,10.24-.07-10.39-.11-20.78-.25-31.17,0-2.35.69-4.88-1.11-7,7.59-1.39,12.69-7.85,20-9.8q0,3.84.05,7.7a1.4,1.4,0,0,1-.41,1.19A5.17,5.17,0,0,0,565.3,779.6Z" />
    <path class="rabota10-3"
      d="M484.49,741.66c-1.65,1-.56,1.78,0,2.81q13.13,22.65,26.16,45.37c-7.07,6.92-7.81,6.73-12.21-1-10-17.59-20.21-35-30.28-52.57a63.08,63.08,0,0,1-2.64-5.86C473.15,732,478.49,737.37,484.49,741.66Z" />
    <path class="rabota10-6"
      d="M714,679.86c0,1.79.06,3.58.1,5.37,0,8.35-.37,16.71,0,25,.27,5.94-1.83,9.61-7.53,11.22,0-6.48-.09-13,0-19.45,0-2.84-.63-7,.91-8.27,4.4-3.59,3.47-8,3.79-12.44l.38-.33s.37-.43.37-.43Z" />
    <path class="rabota10-3"
      d="M711.32,681.34c-.32,4.39.61,8.85-3.79,12.44-1.54,1.25-.86,5.43-.91,8.27-.09,6.49,0,13,0,19.45h-.53l-.53,0c-.77-9.24,2-18.69-1.6-27.77-.48-2.35-2-4.5-1.34-7.07C705,684,707.34,681.32,711.32,681.34Z" />
    <path class="rabota10-14"
      d="M565.84,772.77q0-3.85-.05-7.7l4.59-2.74C569.73,766.19,573.33,771.89,565.84,772.77Z" />
    <path class="rabota10-14"
      d="M429.4,718.73l.24-9.06c2.6.42,5.12,1,6.82,3.32C431.38,711.54,431.1,716,429.4,718.73Z" />
    <path class="rabota10-3" d="M712.07,680.58s-.38.43-.37.43l.06-.36Z" />
    <path class="rabota10-17" d="M665.58,732.89a.55.55,0,0,0,.55.46l-.11-.46Z" />
    <path class="rabota10-3"
      d="M529.77,843.54c-4.24-10.6-11.48-19.52-16.53-29.68-3.94-7.9-4.12-7.82,4.63-11.16,1,1.59,2.06,3.19,3.12,4.76,6,8.87,9.78,19.07,17.08,27.09q.07,8.15.14,16.29C533.25,850.88,533.08,845.4,529.77,843.54Z" />
    <path class="rabota10-3"
      d="M462.44,742.14,450,748c-3.12-7.15-2.18-14.37-.34-21.6,5.45-.33,5.89,4.8,8.2,7.76C459.74,736.54,460.94,739.46,462.44,742.14Z" />
    <path class="rabota10-14"
      d="M429.36,787l0-65.35c.45.82,1.29,1.64,1.29,2.46q.13,31,.11,62.11c0,.21-.1.57-.24.61A5.18,5.18,0,0,1,429.36,787Z" />
    <path class="rabota10-1"
      d="M555.59,379.77c1.79-.77,3.45-.72,4.86.81,2.09,7.49,0,13-5.44,14.7-1.11.33-2.44.85-3.43.53-6.21-2-6.19-2.06-7.45,5.94-3.2,5.57-3.62,12.08-6.11,17.9-2.54,0-5.12,2.54-7.62-.13l4.8-20c2-5.89.77-8-4.6-6.65-2.65.65-4.56.55-6.48-1.18-.25-4.49,3.53-5.68,6.42-6.57,6.42-2,12.7-5.47,19.93-3.18C552.36,382.5,554,380.73,555.59,379.77Z" />
    <path class="rabota10-15"
      d="M557.46,422.32H545.14c-2.14,0-3.94-.48-3.81-3.15.11-2.32,1.82-2.53,3.61-2.53,7.49,0,15-.13,22.47.12,2.5.09,6.07.78,5.84,3.87-.18,2.46-3.57,1.65-5.64,1.71-3.38.11-6.77,0-10.15,0Z" />
    <path class="rabota10-9"
      d="M605,410.73c-7.45.59-13.1,6-20.29,7.55-2.59.56-4.9,1.4-8.92.34C584.77,410.71,597.92,412,605,400v10.81Z" />
    <path class="rabota10-5"
      d="M530.4,419.52c2.5,2.67,5.08.16,7.62.13.91,4.31-3.63,7.34-2.73,11.65-2.9,2.77-5.63-.92-8.47-.21C526,426.61,530.16,423.67,530.4,419.52Z" />
    <path class="rabota10-9"
      d="M524.12,391.65c1.92,1.73,3.83,1.83,6.48,1.18,5.37-1.33,6.65.76,4.6,6.65a28.89,28.89,0,0,1-13.12-5.81Z" />
    <path class="rabota10-15"
      d="M607.51,250.94c-5.73-.19-11,.74-14.37,6.09-3.79-2-2-5.61-2.44-8.56,2.9-3.57.76-7.91,1.81-11.76.76,3.94,1.86,6.45,6.47,3.07,1.43-1.05,4.15-.49,6-1.84,1.23,3.36-2,7.89,2.71,10.35Z" />
    <path class="rabota10-2"
      d="M607.91,323.6c1.23.23,2.71.69,2.73,2,.1,12.59.06,25.18.06,37.76h-2.77V323.59Z" />
    <path class="rabota10-3"
      d="M587.63,238.46c-.93,3.29-3.38,4.83-6.7,5-1.25.08-2.72-1-2.29-2.07a9.24,9.24,0,0,1,7.44-5.66C587.69,235.51,587.57,237.16,587.63,238.46Z" />
    <path class="rabota10-3"
      d="M504.68,422.52c.6-7.81,1.27-15.62-.08-23.42,1-3,1.55-6.49,6-5.56,3.84.81,4.45,3.8,4.43,7.21-.06,9.16,0,18.32,0,27.49-4.15.19-7.85-.63-10.26-4.44A4.22,4.22,0,0,0,504.68,422.52Z" />
    <path class="rabota10-15" d="M521,431.11a9.72,9.72,0,0,1,1.32.06v21.5l-1.32,0Z" />
    <path class="rabota10-15"
      d="M520.18,458.28c.2.43.54.83.52,1.2s-.4.72-.62,1.08c-.18-.38-.53-.76-.52-1.14S519.94,458.69,520.18,458.28Z" />
    <path class="rabota10-18"
      d="M657.37,248.55c.65,5.34-2.35,8-7,8.06-4.37.1-7.12-2.89-7.45-7.26-.39-5.11,3-7.82,7.48-7.83C654.28,241.52,658.14,243.23,657.37,248.55Z" />
    <path class="rabota10-16"
      d="M607.65,248.29c-4.69-2.46-1.48-7-2.71-10.35q.1-10.83.23-21.67c5.21,3.06,3.77,9.23,3.41,12.72C607.92,235.44,608.54,241.9,607.65,248.29Z" />
    <path class="rabota10-14"
      d="M565.3,779.6a5.17,5.17,0,0,1,.13-5.64C565.39,775.84,565.35,777.72,565.3,779.6Z" />
  </g>
</svg>