<svg id="Layer_1" data-name="Layer 1" xmlns="http://www.w3.org/2000/svg" viewBox="0 0 801.39 801.39">
  <defs>
    <style>
      .rabota2-1 {
      fill: #0580f8;
      }

      .rabota2-2 {
      fill: #2568b8;
      }

      .rabota2-3 {
      fill: #676767;
      }

      .rabota2-4 {
      fill: #a09f9f;
      }

      .rabota2-5 {
      fill: #fadf09;
      }

      .rabota2-6 {
      fill: #4b3937;
      }

      .rabota2-7 {
      fill: #423b3c;
      }

      .rabota2-8 {
      fill: #d9d8d8;
      }

      .rabota2-9 {
      fill: #cbcbcb;
      }

      .rabota2-10 {
      fill: #d8a984;
      }

      .rabota2-11 {
      fill: #382b2b;
      }

      .rabota2-12 {
      fill: #127ae6;
      }

      .rabota2-13 {
      fill: #c42629;
      }

      .rabota2-14 {
      fill: #514546;
      }

      .rabota2-15 {
      fill: #e3444e;
      }

      .rabota2-16 {
      fill: #f5f4f3;
      }

      .rabota2-17 {
      fill: #ad4120;
      }
    </style>
  </defs>
  <g>
    <path class="rabota2-1"
      d="M319.31,450.31c.74-21.95-2.93-43.26-9.39-64.15a22.8,22.8,0,0,1-1.41-8.59l.06-26.27c1.08-8.68,4.24-16.34,11-22.21,6.85,1.71,2.24,7.63,4.1,11.17-6.37,6.05-6.72,13.84-7,22-.29,8.63,4.12,13.4,11.17,16.86,3.52,1.73,7.18,3.36,10.28,5.7,6.8,5.14,14.62,8.12,22.59,10.31,7.36,2,12.9-3.28,15.14-12.76,2-8.49,3.6-17.19,10-23.85,4-3,6.74,1.61,10.24,1.59l.52,1.32c-2,2.12-4.32,3.79-6,6.46-6.15,10-3.72,20.89-3.51,31.39.08,4.06,3.73,8,9.39,6.85,6.11-.89,9,1.43,7.9,7.85a17,17,0,0,0,.13,3.41c-4.4,4.89-2.21,10.82-2.57,16.34-1.8,6.32-3.38,12.67-2.59,19.34-4.42,4.8-9.64,9-15.77,10.63-21.59,5.74-42.59,5.15-61.69-8.37C322.3,453,318.83,452.71,319.31,450.31Z" />
    <path class="rabota2-2"
      d="M329.09,671.49c-5.56-2.2-7.58-6.77-8.36-12.27-1.31-9.32-1.12-18.7-1.34-28.07l-.12-5.12L319,614.08c1.29-6.52-1.17-12.6-2.28-18.83,1.57-3,1-6.19,1-9.38-.28-18.71-.46-37.43-.68-56.14,9.59,5.52,19.94,7.72,31,8.6,7.46.6,13.83-3.91,21.09-2.79,0,.52-.09,1-.13,1.56-1.81-.48-3.86-1.09-4.22,1.64-.95,7.12-4.81,13.72-3.72,21.19a19.15,19.15,0,0,0-1.84,9.65c-7.43,21.77-2.52,43.22,1.65,64.69-.5,6.9,1,13.55,2.25,20.28,1.54,8.24-2.87,13.67-10.85,15.66C344.52,672.13,336.75,670.26,329.09,671.49Z" />
    <path class="rabota2-3"
      d="M396.64,361.41l-.52-1.32c.08-2.28.22-4.56.22-6.84q0-82.59.08-165.18c0-3-.83-6.27,2.91-8.39,8.1-4.59,15.87-9.77,24.46-13.45,0,1.83,0,3.67.08,5.51,0,1.55-.05,3.11-.08,4.66q.09,62.82.16,125.64c-3.16-.14-5.18-2.71-7.92-3.74-3.41-1.28-7.12-6.25-10.27-.09-2.76,5.39,3.18,5.44,5.51,7.55,3.85,3.47,9.66,4.15,12.82,8.7q-.07,25.25-.16,50.48Z" />
    <path class="rabota2-4"
      d="M423.79,166.23c-8.59,3.68-16.36,8.86-24.46,13.45-3.74,2.12-2.91,5.34-2.91,8.39q-.09,82.59-.08,165.18c0,2.28-.14,4.56-.22,6.84-3.5,0-6.27-4.63-10.24-1.59-.7-1.45.11-3.4-2.37-4.3-4.06-1.47-7.88-3.63-11.81-5.5-.17-3.95-.68-7.89,5.1-8.55,3.33-.38,3.07-3.42,3.1-5.95a119.48,119.48,0,0,0-2.83-28.4l.45-4.95c3.57-4.51,7.46-9.85,4.53-15.24-4.95-9.09-8.07-19.13-14.24-27.56q0-22.67,0-45.34a33.28,33.28,0,0,0,20.17-7c3.74-2.93,5.84-6.13,2.89-10.39s-7-3.49-10.78-.92c-3.35,2.24-6.67,4.51-11,3.62,8.33-6.86,9.85-13,5.23-21.08,2.53-2.07,2.35-5.14,2.94-7.93.06-3.06.11-6.12.17-9.18,12.94-11.87,25.7-10.06,38.29.59C418.22,162.6,422.12,162.84,423.79,166.23Z" />
    <path class="rabota2-4"
      d="M369,537.1c0-.52.09-1,.13-1.56,4.23-.56,8.72.61,12.65-1.84,1.71-.36,3.7-1,4.59,1.13,1.39,3.41,4.33,3.27,7.15,3.6,0,.75,0,1.5,0,2.25-2.64,1.05-2.4,3.21-2.06,5.4-.06.57-.13,1.14-.19,1.7l-2,6.74c-1.5,3.74-6.1,7-2,11.65-.34,1.35-.67,2.69-1,4l-.08.33c-1.73.33-2.08,1.69-2.37,3.12-5.84,14.84.35,36.66,13.18,46.41-.2,2.72-.56,5.44-.57,8.15q-.11,37.35-.1,74.71c-9.83-3.28-17.91-9.76-26.87-14.62-2.37-1.29-1.32-4.11-1.65-6.3-.63-4.12,1.71-8.63-1.65-12.37a7.53,7.53,0,0,0,1.73-4.95c-.15-10.64-.18-21.28-.25-31.91q0-30.16-.07-60.32l.12-9.6C368.76,554.31,366.38,545.58,369,537.1Z" />
    <path class="rabota2-5"
      d="M396.64,361.41l27.29,3.53c7.56,1.26,7.31-5,7.91-9.16,1-7.17,2.16-14.24,4.54-21.09l14.91.36c6.24,3.89,6,10.12,4.49,15.78-3.73,14-7.64,28-15.53,40.47-2.62,3.66-7.28,4-10.6,6.47-2.38.65-5.2-.52-7.19,1.74a11.78,11.78,0,0,0-8.43,1.6c-5.5,3.17-12.52.45-17.47,5-5.66,1.16-9.31-2.78-9.39-6.84-.21-10.5-2.64-21.41,3.51-31.39C392.32,365.2,394.64,363.53,396.64,361.41Z" />
    <path class="rabota2-5"
      d="M367.81,258.05c6.17,8.43,9.29,18.47,14.24,27.56,2.93,5.39-1,10.73-4.53,15.24-4.44,2.7-8.84,5.5-14,6.66-15.44,3.47-29.77,1.65-42.25-8.91-4.36-15.71,11.67-45.28,29.48-44.06C356.7,255,362.17,256.67,367.81,258.05Z" />
    <path class="rabota2-6"
      d="M321.26,298.6c12.48,10.56,26.81,12.38,42.25,8.91,5.17-1.16,9.57-4,14-6.66l-.45,4.95c-6.13,8.89-7,19.66-9.67,29.6-3.31,12.29-11.29,17.44-22.34,20.11-1.74.42-3.71-.06-5.14,1.45-11-1.84-13.59-4.49-16.24-16.7-1.86-3.54,2.75-9.46-4.11-11.17,2.31-2.11,3.84-4.48,2.66-7.78Q321.75,310,321.26,298.6Z" />
    <path class="rabota2-3"
      d="M396.3,702.93q0-37.35.1-74.71c0-2.71.37-5.43.57-8.15l9.13.39c5.27,5.21,13.19,6.58,18,12.42,0,16.19-.27,32.38,0,48.56.09,4.82-1.46,7.55-5.72,9.53C410.82,694.51,404.28,700.06,396.3,702.93Z" />
    <path class="rabota2-7"
      d="M291.57,628.93c-22.75-23.88-26-52.83-21.9-83.76,2.43-18.53,6.09-36.75,12.77-54.26a94.69,94.69,0,0,1,15.87-27.71c3.51,2,3.93,5.6,4.81,9a1.36,1.36,0,0,0-1.51,1.28c-6.19,4.69-9.75,11.37-13,18.08-14.58,30.09-18,61.6-11.46,94.3,0,1.37.11,3.43,1.54,3.17,2.34-.42.68-2.47.67-3.84-.05-.57-.09-1.13-.14-1.7,2.26-.07,5.77,1.86,3.89-3.54-1.2-3.45-.8-7.47-1.05-11.25-.14-2.19,1.61-1.57,2.8-1.75.7,12.65,2.4,25,8.62,36.42,2.35,4.31,5,6.23,9.62,3.35,2.6.9,3.36,5.65,7.18,3.75,4.42-2.19,5.58.81,6.91,3.83-8.58,2.64-16.67,6.81-25.85,8l2.39,4.54Zm-10.06-23.64c-.54-2.74-1.66-5.1-5-8.3,1.09,5.13,1.9,8.25,4.72,10.45-.33,4,2.68,3.23,5,3.41,2.73,7.5,6.55,8.87,13.68,5-3.2-4.65-9.69-3.45-13.33-7.44.1-1.09.19-2.19.28-3.29,1,0,2.93.32,2.23-1.24-1.64-3.66-2-8.08-5.77-11.37-1.8,5.6,2.27,8.73,3.6,12.67ZM276,594.74a8.32,8.32,0,0,0,0,1.83c.17.61.6.61.84,0a1.81,1.81,0,0,0,.07-1.1C276.86,595.25,276.48,595.11,276,594.74Z" />
    <path class="rabota2-7"
      d="M423.79,176.4c0-1.55,0-3.11.08-4.66,15.12,3.52,30.57,5.14,45.95,6.48,27.76,2.43,55.57,3.5,83.5,2,37.2-2,72.81-11,107.88-22.76,6.87-2.31,13.6-5.08,20.49-7.33,1.59-.52,4.08-2.9,5.26-.05,1.28,3.06-2.18,2.91-3.76,3.51-17.87,6.74-36,12.65-54.38,17.9C581.19,185.1,532.6,186.2,483.6,183,463.54,181.7,443.75,178.43,423.79,176.4Z" />
    <path class="rabota2-7"
      d="M342.86,165.93c-34.54,14.29-71.06,15.27-107.59,15.67a833.29,833.29,0,0,1-127.73-8.38c-2.4-.34-7.29,2.65-7-1.82.2-2.84,5.39-1.66,8.43-1.28,37,4.6,74.11,7.73,111.35,7.95,35.8.21,71.76,0,106.57-10.5,5.42-1.64,10.66-3.9,16-5.88A4.16,4.16,0,0,1,342.86,165.93Z" />
    <path class="rabota2-1"
      d="M393.5,540.68c0-.75,0-1.5,0-2.25,7.92-1.72,14.51-6.25,21.43-10.11,5.92-3.3,9.5-7.72,8.37-14.89l.66-3,1.88-1.18q3.24,8.19,6.49,16.36l-1.59,17.89c-2.24,3.51-.33,7.7-1.82,11.34-2.76,1.78-5,1.49-7.34-1.07-1.75-1.95-3.41-4-6.38-4.76-7.94-2-15.78-4-23.93-1.25.06-.56.13-1.13.19-1.69C395,545.37,393.34,542.68,393.5,540.68Z" />
    <path class="rabota2-3"
      d="M399.43,453.05c-.79-6.67.79-13,2.59-19.34,7.93-3.37,14.26-9.34,21.79-13.36q0,20.41-.05,40.84c-4-2.15-7.91-4.37-11.93-6.43-2.81-1.43-4.78-.09-6.19,2.33-1.54,2.62-.21,4.2,2,5.47,2,1.12,3.85,2.36,5.76,3.53-1.9,1.23-4.65,0-6.22,2.17-2.21-.05-3.32-2-5-2.91l-2.79-2.66C402.74,459.49,404,456.28,399.43,453.05Z" />
    <path class="rabota2-8"
      d="M342.86,165.93a4.16,4.16,0,0,0,0-4.24c7.24-11.41,23-12.26,34.47-1.84-.06,3.06-.11,6.12-.17,9.18a21.9,21.9,0,0,1-20.22,7.1c-5.94-.83-9.56-4.86-13.8-8.16C343.08,167.29,343,166.61,342.86,165.93Z" />
    <path class="rabota2-9"
      d="M374.26,177c4.62,8.08,3.1,14.22-5.23,21.08-5.44.08-10.89,1.48-16.3-.28-7.09-1.45-10.12-5.88-9.75-13,.21-4,.16-8.06.22-12.09C352.51,181.66,363,182.4,374.26,177Z" />
    <path class="rabota2-9"
      d="M413.45,466.1c-1.92-1.18-3.81-2.42-5.77-3.54-2.25-1.27-3.58-2.85-2-5.47,1.41-2.42,3.38-3.76,6.19-2.33,4,2.06,8,4.28,11.93,6.43,11.81,7.55,24.82,13.14,35.92,21.87-1,2.3-2.74,4.3-2.86,7-7.74-3.13-14.74-7.68-22.08-11.55-1.7-.9-2.92-3.87-5.67-2-3.45-2.33-5.25-7.06-10.29-7.07C417.43,467.59,415.41,466.89,413.45,466.1Z" />
    <path class="rabota2-3"
      d="M352.73,197.76c5.41,1.76,10.86.36,16.3.28,4.37.89,7.69-1.38,11-3.62,3.83-2.57,7.82-3.37,10.78.92s.85,7.46-2.89,10.39a33.28,33.28,0,0,1-20.17,7C359.71,210.81,353.23,207.3,352.73,197.76Z" />
    <path class="rabota2-9"
      d="M424.13,632.88c-4.84-5.84-12.76-7.21-18-12.42a33,33,0,0,0,9.53-4.19c2.75,1.38,4.91,3.93,8.24,4.15,9.5,5.68,18.93,11.46,28.53,17a40.78,40.78,0,0,1,8.68,6.31c-2.34,1.17-4.17,2.73-4.26,5.61-10.11-3.28-18.44-9.89-27.63-14.87C427.53,633.54,426.07,632.6,424.13,632.88Z" />
    <path class="rabota2-10"
      d="M451.29,335.05l-14.91-.36c-1.38-5.31-4.94-10.44-1.35-16.16,3.77-.59,2.8-4.17,4-6.37,2.45-1.61,3.26-5.88,7.52-4.53,4.06,1.28,5.3,4.57,6.13,8.26.4,1.76,1.05,3.46,1.58,5.18-.53,3.26-1,6.51-1.57,9.77Z" />
    <path class="rabota2-2"
      d="M391.25,547.78c8.15-2.74,16-.71,23.93,1.25,3,.74,4.63,2.81,6.38,4.76,2.3,2.56,4.58,2.85,7.34,1.06a1.71,1.71,0,0,0,.38.7c-.68,1.67-1.51,3.36-.49,5.13,3.58,6.2.78,11.52-2.23,16.82.25-9.92-5.53-16.79-14-20.67-7.86-3.61-15.59-1.45-23.33-2.31Z" />
    <path class="rabota2-11"
      d="M367.61,632.78c.07,10.63.1,21.27.25,31.91a7.53,7.53,0,0,1-1.73,4.95c-4.29.68-6.87,4.62-10.95,5.72-9.27,2.49-18.06,1.89-26.09-3.87,7.66-1.23,15.43.64,23.14-1.28,8-2,12.39-7.42,10.85-15.66-1.27-6.73-2.75-13.38-2.25-20.28C363,633.49,365.14,632.34,367.61,632.78Z" />
    <path class="rabota2-12"
      d="M418.78,469.39c5,0,6.84,4.74,10.29,7.07,5.09,12.78,4.38,26.21,4.37,39.55-2.21-1.71-3.15-4.18-4.05-6.68-.78-2.15-.46-5.16-4-5.13-.59-8.76-1.25-17.5-6-25.28q-1.25-2.71-2.5-5.42C418.73,472.68,418.2,470.78,418.78,469.39Z" />
    <path class="rabota2-9"
      d="M439,312.16c-1.21,2.2-.24,5.78-4,6.37-4-.34-6.46-4.94-10.94-4.07-3.16-4.55-9-5.23-12.82-8.7-2.33-2.11-8.27-2.16-5.51-7.55,3.15-6.16,6.86-1.19,10.27.09,2.74,1,4.76,3.6,7.92,3.74C428.11,306.73,434.82,307.58,439,312.16Z" />
    <path class="rabota2-3"
      d="M423.87,620.42c-3.33-.22-5.49-2.77-8.24-4.15a9.85,9.85,0,0,0,.23-1.32c5.3-5,5.3-6.37-1-9.55-2.86-1.43-3.56-3.33-3.15-6,.76-4.9,1.7-9.78,2.57-14.67,2.47-.55,5.83,1.33,7.05-2.6h2.5Z" />
    <path class="rabota2-9"
      d="M429.28,555.55a1.71,1.71,0,0,1-.38-.7c1.49-3.63-.42-7.82,1.82-11.33,8.82,8.36,20.54,12.19,30.15,19.33-2.36,1.66-2.95,4.38-4.05,6.79-7.67-2.26-13.79-7.52-20.93-10.81C433.66,557.79,431.48,556.65,429.28,555.55Z" />
    <path class="rabota2-13"
      d="M423.81,420.35c-7.53,4-13.86,10-21.79,13.36.36-5.52-1.83-11.45,2.57-16.34a16.42,16.42,0,0,0,5.65-1.35c5.45-2.23,8.74-7.31,13.93-9.76C426.55,411,425.78,415.7,423.81,420.35Z" />
    <path class="rabota2-12"
      d="M423.79,582.14h-2.5c-.67,0-1.35-.13-2-.13-2,0-3.76-.41-3.4-3,.41-2.95,1.9-1,3.31-.82,2.65.39,2.1-2.13,1.85-3.28-.78-3.57-1.88-7.1-5-9.51-.84-1.44-2.24-2.1-3.62-2.92-12.6-7.47-13.39-7.4-23.35,2.8a6.12,6.12,0,0,1-1.84.86c-4.1-4.71.5-7.92,2-11.66,7.74.86,15.47-1.3,23.33,2.31,8.46,3.88,14.24,10.75,14,20.67Z" />
    <path class="rabota2-5"
      d="M322.23,321.31c1.18,3.3-.35,5.67-2.66,7.78-6.76,5.87-9.92,13.53-11,22.21-2.92,5.76-2.73,11.91-2.26,18.09,1.41-3.34,1.76-7.2.54-9.19-6.66-10.88-3.3-21,2.71-30.59C312.34,325.17,315.7,320.52,322.23,321.31Z" />
    <path class="rabota2-3"
      d="M424.17,406.26c-5.19,2.45-8.48,7.53-13.93,9.76a16.42,16.42,0,0,1-5.65,1.35,17,17,0,0,1-.13-3.41c1.09-6.42-1.79-8.74-7.9-7.85,4.95-4.55,12-1.83,17.47-5a11.78,11.78,0,0,1,8.43-1.6C424.42,401.4,423.94,403.92,424.17,406.26Z" />
    <path class="rabota2-9"
      d="M429.65,397.77c3.32-2.5,8-2.81,10.6-6.47,7,3.91,14.54,6.92,20.68,12.29-1.72,1.7-3.51,3.35-4.22,5.79-5.09-.73-9.11-3.74-13.41-6.18S434.88,397.86,429.65,397.77Z" />
    <path class="rabota2-7"
      d="M374.26,177c-11.3,5.44-21.75,4.7-31.06-4.28,0-1.57,0-3.14,0-4.71,4.24,3.3,7.86,7.33,13.8,8.16A21.9,21.9,0,0,0,377.2,169C376.61,171.82,376.79,174.89,374.26,177Z" />
    <path class="rabota2-14"
      d="M291.57,628.93l2.16-2.1c10.17,8,13.8,7.9,25.54-.8l.12,5.12c-4,1.56-7.48,4.19-11.94,4.79C300.59,636.87,295.51,634.33,291.57,628.93Z" />
    <path class="rabota2-5"
      d="M303.12,472.18c-.88-3.38-1.3-7-4.81-9,2.08-2.48,2.19-7.19,7.21-6.3-.12,1.92,1.49,2.21,2.71,2.87.19,1.08.38,2.16.56,3.24a6.4,6.4,0,0,1,.87,6.27c-2.64-.11-4.37,1.88-6.55,2.85Z" />
    <path class="rabota2-8"
      d="M452.7,330.84c.52-3.26,1-6.51,1.57-9.77a22.27,22.27,0,0,1,4.52,1.32c2.83,1.47,6.06,3,4,7.19-1.92,3.93-4.68,4.56-8.14,1.68C454.21,330.88,453.36,331,452.7,330.84Z" />
    <path class="rabota2-9"
      d="M425.37,504.21c3.56,0,3.24,3,4,5.12.9,2.5,1.84,5,4.05,6.68-.7,3.17,3.55,6.92-1.13,9.63q-3.24-8.19-6.49-16.35C425.67,507.61,425.52,505.91,425.37,504.21Z" />
    <path class="rabota2-14"
      d="M308.23,459.77c-1.22-.66-2.83-.95-2.71-2.87,3.94-3.56,8.88-5,13.79-6.59-.48,2.4,3,2.69,2.66,5-.58.07-1.17.12-1.76.18C315.06,453.7,311.91,457.46,308.23,459.77Z" />
    <path class="rabota2-8"
      d="M456.71,409.38c.71-2.44,2.5-4.09,4.22-5.79,3.31,1.77,3.42,4.05.85,6.5C459.93,411.86,457.92,413,456.71,409.38Z" />
    <path class="rabota2-8"
      d="M456.82,490c.12-2.66,1.85-4.66,2.86-7,2.52.52,4.57,1.45,3.08,4.58C461.56,490.16,460.29,493,456.82,490Z" />
    <path class="rabota2-8"
      d="M456.82,569.64c1.1-2.41,1.69-5.13,4.05-6.79,2.48,1.13,3.59,3,1.86,5.34C461.33,570.11,459.6,572.5,456.82,569.64Z" />
    <path class="rabota2-8"
      d="M456.82,649.31c.09-2.88,1.92-4.44,4.26-5.61,3,.58,2.75,2.43,1.64,4.48C461.24,650.91,459.28,651.52,456.82,649.31Z" />
    <path class="rabota2-2"
      d="M306.31,369.39c-.47-6.18-.66-12.33,2.26-18.09l-.06,26.27C306.68,375.13,307.47,372,306.31,369.39Z" />
    <path class="rabota2-5"
      d="M323.68,340.26c2.65,12.21,5.22,14.86,16.24,16.7,5.14,5.83,10.83,7.28,17.74,2.83,5.06-3.27,10.11-6.45,14-11.09,3.93,1.87,7.75,4,11.81,5.5,2.48.9,1.67,2.85,2.37,4.3-6.41,6.66-8,15.36-10,23.85-2.24,9.48-7.78,14.8-15.14,12.76-8-2.19-15.79-5.17-22.59-10.31-3.1-2.34-6.76-4-10.28-5.7-7.05-3.46-11.46-8.23-11.17-16.86C317,354.1,317.31,346.31,323.68,340.26Z" />
    <path class="rabota2-15"
      d="M320.21,455.49c.59-.06,1.18-.11,1.76-.18,19.1,13.52,40.1,14.11,61.69,8.37,6.13-1.62,11.35-5.83,15.77-10.63,4.53,3.23,3.31,6.44,0,9.64-4-.5-5.84,1.35-5.78,5.29l-11,5.81c-3.81.38-7.62.9-11.44,1.11-18.31,1-36-.82-52-10.92,0-2.23,0-4.47,0-6.7Z" />
    <path class="rabota2-1"
      d="M317,529.73q-1.53-6.51-3.07-13,.11-11.24.22-22.48c2.72-.24,4.1,4,7.3,2.18,3.26.37,5.18,4.34,8.95,3.33,1.22,2.33,3.32,2.51,5.59,2.28a83.15,83.15,0,0,0,37.12,1.65c2.57-.45,3.44.39,4.19,2.92,2.22,7.56,4.7,15.06,7.49,22.42,1.37,3.58-.63,4.06-3.07,4.69-3.95,2.46-8.44,1.29-12.67,1.85-7.26-1.12-13.63,3.39-21.09,2.79C337,537.45,326.63,535.25,317,529.73Z" />
    <path class="rabota2-14"
      d="M319,614.08l-1.85.2c-1.33-3-2.49-6-6.91-3.83-3.82,1.9-4.58-2.85-7.18-3.75-10.2-10.77-14.5-23.83-14.9-38.41,1.18.81,1.63,2.62,3.47,2.51,1.45,9.42,3.5,18.67,8.86,26.78,5.17,7.82,6.92,7.92,13,1.16,1.06-1.17,2.13-2.32,3.2-3.49C317.87,601.48,320.33,607.56,319,614.08Z" />
    <path class="rabota2-9" d="M361,559.93l6.64,2.93-.12,9.6-8.36-2.88A19.15,19.15,0,0,1,361,559.93Z" />
    <path class="rabota2-10"
      d="M371.7,348.7c-3.93,4.64-9,7.82-14,11.09-6.91,4.45-12.6,3-17.74-2.83,1.43-1.51,3.4-1,5.14-1.45,11.05-2.67,19-7.82,22.34-20.11,2.68-9.94,3.54-20.71,9.67-29.6a119.48,119.48,0,0,1,2.83,28.4c0,2.53.23,5.57-3.1,5.95C371,340.81,371.53,344.75,371.7,348.7Z" />
    <path class="rabota2-7"
      d="M330.44,499.73c-3.77,1-5.69-3-8.95-3.33.06-3.73-2.95-5.25-5.52-6.46-.86-.4-2.12,2.37-1.78,4.28q-.1,11.23-.22,22.48c-2.26-1.06-2.64-3.14-2.91-5.3.36-3.83.84-7.75-.4-11.43-3.42-10.16-2.41-20.41-1-30.69a6.4,6.4,0,0,0-.87-6.27c3.68-1.53,7.63-2.56,10.4-5.73,0,2.23,0,4.47,0,6.7-2.35,2.74-.92,5,1,7,1.49,1.57,4.27,1.71,4.84,4.33.35,1.57.77,3,2.63,1.17l5.8,2.12c-.06.6-.11,1.2-.17,1.81l-2.77,0-5.53.11c-.78-.38-2.08-.59-2.26-1.16C322,477,320.21,475,318,475.61c-2.72.8-2.31,4.31-2.12,6.36a8.58,8.58,0,0,0,3.08,6.47c6,4.45,12.26,8,19.81,8.89.79,3,2.79,2.59,4.95,1.75,1.13,0,2.26.09,3.4.12,7.73.18,15.45.71,23.18-.47,3.39-.53,5-2.31,5-5.31,0-3.24-2.91-2.05-4.7-2.38-4.22-.77-8.48-1.42-12.72-2.12,0-1.52-.41-2.7-2.16-2.88-1.91-.19-3,.6-3.19,2.6-4.33-.15-8.89.75-12.55-2.62,3.2-1.14,7.67,2.22,9.77-2.78,6.49-.63,12.64,2.16,19.26,1.48,7.07-.73,11.26-3.43,13.63-10.93l11-5.81c.93,3.59,3.27,6.71,2.86,10.78-.44,4.39,0,8.77,2.59,12.64a35.34,35.34,0,0,1-13.36,6.51c-3.55.84-4.89,2.7-4.06,6.45,1.53,6.87,2.89,13.72,5.72,20.27s4.7,7.61,11.3,3.87c8.38-4.74,16.91-9.23,24.62-15.07,1.13,7.17-2.45,11.59-8.37,14.89-6.92,3.86-13.51,8.39-21.43,10.11-2.82-.33-5.76-.19-7.15-3.6-.89-2.17-2.88-1.49-4.59-1.13,2.46-.64,4.46-1.12,3.09-4.7-2.79-7.36-5.27-14.86-7.49-22.42-.75-2.53-1.62-3.37-4.19-2.92A83.15,83.15,0,0,1,336,502C335.25,498.6,332.52,500,330.44,499.73Zm33-13.68c-.89.07-2,.06-2,1.25s1.08,1.25,2,1.24,2,0,2-1.23S364.32,486.14,363.44,486.05Zm8.55,2.54c.81-.22,2-.16,1.74-1.47-.22-1-1.26-1.16-2.17-1s-2,.12-1.75,1.44C370,488.54,371.07,488.59,372,488.59Z" />
    <path class="rabota2-11"
      d="M415.86,615a9.85,9.85,0,0,1-.23,1.32,33,33,0,0,1-9.53,4.19l-9.13-.39c-12.83-9.75-19-31.57-13.18-46.41,1.55-.47,2.81-1.15,2.37-3.12a3,3,0,0,1,.09-.32c2.61,1.25,5.43.39,8.09.85,5,.87,10.36,3.8,9.77,8.58a96.4,96.4,0,0,0-.53,21.49C404.94,614.3,404.57,615.28,415.86,615Z" />
    <path class="rabota2-7"
      d="M415.86,615c-11.29.33-10.92-.65-12.28-13.81a96.4,96.4,0,0,1,.53-21.49c.59-4.78-4.76-7.71-9.77-8.58-2.66-.46-5.48.4-8.09-.85.32-1.36.65-2.7,1-4.05a5.87,5.87,0,0,0,1.84-.85c10-10.2,10.75-10.27,23.35-2.8,1.38.82,2.78,1.48,3.62,2.91a15.86,15.86,0,0,1-1.44,6.44c-1.88,4.09-2.56,8.52-.37,12.88-.87,4.89-1.81,9.77-2.57,14.67-.41,2.65.29,4.55,3.15,6C421.16,608.58,421.16,610,415.86,615Z" />
    <path class="rabota2-2"
      d="M393.5,540.68c-.16,2,1.46,4.69-2.06,5.41C391.1,543.89,390.86,541.73,393.5,540.68Z" />
    <path class="rabota2-7"
      d="M386.16,570.54c.44,2-.82,2.65-2.37,3.12C384.08,572.23,384.43,570.87,386.16,570.54Z" />
    <path class="rabota2-14"
      d="M284.73,561.38l.13,5.55c-1.19.18-2.94-.44-2.8,1.75.25,3.78-.15,7.8,1.05,11.25,1.88,5.4-1.63,3.47-3.89,3.54-1.24-7.87.5-15.64.87-23.45Z" />
    <path class="rabota2-14"
      d="M286.54,608.4l-.35,2.45c-2.32-.18-5.33.64-5-3.41.11-.72.22-1.43.32-2.15l5.37-.12-.06-.06C286.73,606.21,286.64,607.31,286.54,608.4Z" />
    <path class="rabota2-9"
      d="M281.51,605.29c-.1.72-.21,1.43-.32,2.15-2.82-2.2-3.63-5.32-4.72-10.45C279.85,600.19,281,602.55,281.51,605.29Z" />
    <path class="rabota2-14"
      d="M277.15,585.84l2.21-.67c0,1.37,1.67,3.42-.67,3.84C277.26,589.27,277.11,587.21,277.15,585.84Z" />
    <path class="rabota2-9"
      d="M276,594.74c.48.37.86.51.93.74a1.81,1.81,0,0,1-.07,1.1c-.24.6-.67.6-.84,0A8.32,8.32,0,0,1,276,594.74Z" />
    <path class="rabota2-16"
      d="M301.61,473.46a1.36,1.36,0,0,1,1.51-1.28v-.05c-.15.7-.31,1.4-.47,2.09C302.29,474,302,473.72,301.61,473.46Z" />
    <path class="rabota2-17"
      d="M423.28,513.43c-7.71,5.84-16.24,10.33-24.62,15.07-6.6,3.74-8.45,2.74-11.3-3.87s-4.19-13.4-5.72-20.27c-.83-3.75.51-5.61,4.06-6.45a35.46,35.46,0,0,0,13.37-6.51l8.5-2.78c8-4.49,10.42-4,12.93,4,1.79,5.74,2.34,11.87,3.44,17.83Z" />
    <path class="rabota2-6"
      d="M423.94,510.45c-1.1-6-1.65-12.09-3.44-17.83-2.51-8-4.92-8.49-12.93-4-.12-4.74-4.36-8.63-2.82-13.71,2.69,1.24,1.57-3.59,4.11-2.58,1.94,9.08,2.67,9.53,10.53,6.6,4.73,7.77,5.39,16.51,6,25.27.15,1.71.3,3.41.45,5.09Z" />
    <path class="rabota2-13"
      d="M404.75,474.91c-1.54,5.08,2.7,9,2.82,13.71l-8.5,2.78c-2.55-3.87-3-8.25-2.6-12.64.41-4.07-1.93-7.19-2.86-10.78-.06-3.94,1.78-5.79,5.78-5.29l2.79,2.66C401.47,469,405.42,471.31,404.75,474.91Z" />
    <path class="rabota2-2"
      d="M418.78,469.39c-.58,1.39,0,3.29-1.88,4.11-1.43-2.3-2.65-4.93-6.19-3.92l-3.49-1.32c1.57-2.15,4.32-.94,6.22-2.17C415.41,466.89,417.43,467.59,418.78,469.39Z" />
    <path class="rabota2-14"
      d="M407.22,468.26l3.49,1.32c-.62.92-1.23,1.84-1.85,2.75-2.54-1-1.42,3.82-4.11,2.58.67-3.6-3.28-6-2.57-9.56C403.9,466.25,405,468.21,407.22,468.26Z" />
    <path class="rabota2-5"
      d="M408.86,472.33c.62-.91,1.23-1.83,1.85-2.75,3.54-1,4.76,1.62,6.19,3.92q1.26,2.7,2.5,5.42C411.53,481.86,410.8,481.41,408.86,472.33Z" />
    <path class="rabota2-2"
      d="M414.24,584.75c-2.19-4.36-1.51-8.79.37-12.88a15.86,15.86,0,0,0,1.44-6.44c3.09,2.42,4.19,6,5,9.52.25,1.15.8,3.67-1.85,3.28-1.41-.21-2.9-2.13-3.31.82-.36,2.56,1.38,3,3.4,3,.68,0,1.36.08,2,.13C420.07,586.08,416.71,584.2,414.24,584.75Z" />
    <path class="rabota2-17"
      d="M302.64,474.22c.16-.69.32-1.39.47-2.09,2.18-1,3.91-3,6.55-2.85-1.41,10.28-2.42,20.53,1,30.69,1.24,3.68.76,7.6.4,11.43q-2.71-7.84-5.44-15.71l-2.36-4.29c-.17-4.23-.07-8.49-1.52-12.57Z" />
    <path class="rabota2-8"
      d="M319.19,457.28c-2.77,3.17-6.72,4.2-10.4,5.73-.18-1.08-.37-2.16-.56-3.24,3.68-2.31,6.83-6.07,12-4.28Z" />
    <path class="rabota2-12"
      d="M325.06,475.33c-.57-2.62-3.35-2.76-4.84-4.33-2-2.06-3.39-4.28-1-7,16,10.1,33.71,11.93,52,10.92,3.82-.21,7.63-.73,11.44-1.11-2.37,7.5-6.56,10.2-13.63,10.93-6.62.68-12.77-2.11-19.26-1.48l-13.58-2.95-2.68-1.67-5.8-2.12C327.34,474.93,326.22,475.09,325.06,475.33Z" />
    <path class="rabota2-7"
      d="M301.74,478.83c1.45,4.08,1.35,8.34,1.52,12.57-6,6.4-10.15,13.49-8.13,22.76-3.52,18.73-6.24,37.52-3.46,56.64-1.84.11-2.29-1.7-3.47-2.51-1.92-6.53-.93-13.37-1.93-21.32-1.94,5.56-.74,10.09-1.54,14.41L280.09,560c2.36-17.75,3.78-35.66,9.35-52.85C292.63,497.33,296.09,487.6,301.74,478.83Zm-15.47,63.89c-.17.38-.55.85-.44,1.12s.7.36,1.08.52c.17-.38.55-.84.44-1.11S286.65,542.88,286.27,542.72Z" />
    <path class="rabota2-14"
      d="M295.13,514.16c-2-9.27,2.1-16.36,8.13-22.76l2.36,4.29-3.44,4.09c-.72.12-1.59.15-.67,1.2Q298.32,507.57,295.13,514.16Z" />
    <path class="rabota2-7" d="M301.51,501c-.92-1.05-.05-1.08.67-1.2Z" />
    <path class="rabota2-2"
      d="M314.19,494.22c-.34-1.91.92-4.68,1.78-4.28,2.57,1.21,5.58,2.73,5.52,6.46C318.29,498.24,316.91,494,314.19,494.22Z" />
    <path class="rabota2-14"
      d="M330.44,499.73c2.08.22,4.81-1.13,5.59,2.28C333.76,502.24,331.66,502.06,330.44,499.73Z" />
    <path class="rabota2-12"
      d="M357.88,488.92c4.24.7,8.5,1.35,12.72,2.12,1.79.33,4.7-.86,4.7,2.38,0,3-1.59,4.78-5,5.31-7.73,1.18-15.45.65-23.18.47-1.14,0-2.27-.08-3.4-.12-.88-2.76-3.14-1.63-4.95-1.75-7.55-.87-13.84-4.44-19.81-8.89A8.58,8.58,0,0,1,315.9,482c-.19-2.05-.6-5.56,2.12-6.36,2.19-.64,4,1.34,4.74,3.79.18.57,1.48.78,2.26,1.16.67,3.37,3.4,2.29,5.5,2.55,3.15,1,5.76,3.73,9.46,2.91,3.66,3.37,8.22,2.47,12.55,2.62Z" />
    <path class="rabota2-6"
      d="M340,486c-3.7.82-6.31-1.94-9.46-2.91l0-2.66,2.77,0,2.85-.14,13.58,2.95C347.65,488.24,343.18,484.88,340,486Z" />
    <path class="rabota2-6"
      d="M357.88,488.92l-5.35-.28c.15-2,1.28-2.79,3.19-2.6C357.47,486.22,357.9,487.4,357.88,488.92Z" />
    <path class="rabota2-6"
      d="M363.44,486.05c.88.09,2,0,2,1.26s-1.09,1.22-2,1.23-2,0-2-1.24S362.55,486.12,363.44,486.05Z" />
    <path class="rabota2-6"
      d="M372,488.59c-.91,0-2,0-2.17-1.07-.29-1.32.91-1.33,1.75-1.44s1.95,0,2.17,1C374,488.43,372.8,488.37,372,488.59Z" />
    <path class="rabota2-14" d="M330.55,480.45l0,2.66c-2.1-.26-4.83.82-5.5-2.55Z" />
    <path class="rabota2-14"
      d="M338.79,497.33c1.81.12,4.07-1,4.95,1.75C341.58,499.92,339.58,500.32,338.79,497.33Z" />
    <path class="rabota2-14"
      d="M325.06,475.33c1.16-.24,2.28-.4,2.63,1.17C325.83,478.32,325.41,476.9,325.06,475.33Z" />
    <path class="rabota2-14" d="M336.17,480.29l-2.85.14c.06-.61.11-1.21.17-1.81Z" />
    <path class="rabota2-14"
      d="M286.27,542.72c.38.16,1,.25,1.08.53s-.27.73-.44,1.11c-.38-.16-1-.25-1.08-.52S286.1,543.1,286.27,542.72Z" />
  </g>
</svg>