<svg id="Layer_1" data-name="Layer 1" xmlns="http://www.w3.org/2000/svg" viewBox="0 0 1084.7 1084.7">
  <defs>
    <style>
      .rabota8-1 {
      fill: #cc2122;
      }

      .rabota8-2 {
      fill: #5ca5fb;
      }

      .rabota8-3 {
      fill: #782222;
      }

      .rabota8-4 {
      fill: #4b3837;
      }

      .rabota8-5 {
      fill: #9f9f9f;
      }

      .rabota8-6 {
      fill: #fbde09;
      }

      .rabota8-7 {
      fill: #6c6c6c;
      }

      .rabota8-8 {
      fill: #f14344;
      }

      .rabota8-9 {
      fill: #ca272a;
      }

      .rabota8-10 {
      fill: #0980f6;
      }

      .rabota8-11 {
      fill: #dca989;
      }

      .rabota8-12 {
      fill: #deddde;
      }

      .rabota8-13 {
      fill: #3f2c2c;
      }

      .rabota8-14 {
      fill: #c5c4c4;
      }

      .rabota8-15 {
      fill: #676767;
      }

      .rabota8-16 {
      fill: #faf9f9;
      }

      .rabota8-17 {
      fill: #a2a2a2;
      }

      .rabota8-18 {
      fill: #fefefe;
      }
    </style>
  </defs>
  <g>
    <path class="rabota8-1"
      d="M392.35,875c-9.52-10.29-5.33-23.63-7.86-35.47-1.14-5.35.37-11.1-2.27-16.27,0-5.51.46-11.07-.14-16.52-.72-6.49,2.52-13.69-3.12-19.39,2.25-5.39,1.12-11,.54-16.39-3.71-34.77-12.66-68.44-21.51-102.13-6.48-20.79-6.55-20.27-28.48-23-11.43-1.39-20.06-9.5-29.28-15.87-6.41-4.43-4.27-11-5.11-16.83-.12-.82-.86-.69-1.21.26-.11.31-.18.63-.27.94-3.07-9.45-2.74-18.92-.11-28.39,2.07-.32,3.42-4.37,6.4-.65a18.69,18.69,0,0,0,7.71,5.65c28.41,11.47,57.44,10.85,86.33,3.31,8.75-2.28,18.46-6,22.82-15.89.79,22.26-.3,44.78,2.78,66.72,6.57,46.86,7.24,94.73,22.62,140.18a71.85,71.85,0,0,1,3.38,24.2c0,17.25,0,34.52-.16,51.79,0,3.48-.08,6.78-2.62,10C431.44,885.91,405.82,888,392.35,875Z" />
    <path class="rabota8-1"
      d="M293.82,573.25A55.25,55.25,0,0,1,295,552.89c10-38.14,4.19-75.85-4.57-113.1-3.69-15.66-7.28-31-6.81-47.15,2.65-18.4,6.38-36.27,23.44-47.59.8,7.12-.19,14.42,2.22,21.37-3.84-.7-5.06,2-6.37,4.76-4.78,10.05-5.88,20.46-4.29,31.47.93,6.46,4.09,11.4,9.23,14.26,15.66,8.73,31.46,17.3,47.67,24.94,11.22,5.28,19.5.73,24.08-11,5.5-14.12,7-30.07,18.77-41.36,5.73,1.43,10.69,4.36,15.35,7.88-11.11,5.54-14.66,16.63-16.95,27-3.16,14.35-.85,28.46,10.55,39.66,3.8,3.74,10,3.14,13,8-4.83,29.29-6.94,58.64-2.83,88.23.49,3.51-.07,7.16-.15,10.74-3,.6-4.3,2.11-2.74,5.15,0,0,.17-.07.16-.08-3-1.23-4.64-.11-5.24,2.91-10.41,7-22.62,10.2-34.43,11.45C346.44,593.45,318.15,591.88,293.82,573.25Z" />
    <path class="rabota8-2"
      d="M523.48,885.35l2.11-1.11c.38,3.8,3.58,4.26,6.28,5.3,24.07,9.22,48.66,17.11,72.22,27.71,1.93.87,4.58,2,6.46-.56-7-5.54-15.2-8.88-23.09-12.75-18.5-9.08-36.27-19.63-55.48-27.26-24.9-12.07-26-40.53-20.86-60,.19-.73,1.42-1.19,2.16-1.77,5.73,5.87,11.27,12,20,13.47,2.69,3.61,6.49,3.16,10.27,2.86l2.25.38c5.4,3.69,11.48,3.72,17.64,3.28,22.92,1.14,45.25-.24,64.5-14.91,0,2.59,1,6-.24,7.66-9.95,13.58.59,21.24,8.18,29.75,2.84,3.18,6.24,5.88,8.9,9.19,12.64,15.62,29.83,27.71,36.92,47.62,1.24,11.58-2.27,21.9-8.32,31.56-6.67,10.66-17,15.26-29.34,12.36C600.2,947.88,556.45,937.4,512.68,927,513.17,912.32,514,897.7,523.48,885.35Z" />
    <path class="rabota8-2"
      d="M518.62,637.53,532,630.46c7,6.74,9.55,14.94,8.41,24.56-.65,5.5-.75,11.07-.93,16.61-.42,13,9.52,19.73,20.73,13.55,9.39-5.17,18.27-11.25,27.37-16.93C603.73,668.76,617,664,624,648c1.11-7,2.23-14,3.46-21.78,3.75,2.93,2.33,5.85,3.09,8.2,1.15,7.83-3.07,16.45,3.48,23.47l.54,27.6c.28,12.72-2.22,25.59,2.11,38.09a3.3,3.3,0,0,0,1.32,1.35l-.24,53.53c-4.47,5.37-4.19,11.06-1.19,17-4.67,6-4.11,15.22-11.71,19.51a81.66,81.66,0,0,1-19.31,8.77c-16.57,5-33.35,4-50.18,3.37-5.05-1.79-10.13-3.45-15.59-3.4-11.4-1.81-19.07-9.69-27.2-16.8-.28-6.29,1.92-12.1,3.6-18,10.57,8,21.09,16,31.73,23.85,4.19,3.09,7.66,7.78,13.84,7,16.55,5.92,27.39,3.23,28.85-7.8.93-7,0-14.19-.09-21.3l4.86-14.06c9.68-1.37,28.69-19.68,28.94-28.77.42-15.4.05-30.83.22-46.25.06-5.51-1.94-6.32-6.39-3.73-13,7.58-26,15.09-39.06,22.64-3.89,2.26-6.14,5.08-6,10.19.36,14.42,0,28.86.09,43.29,0,2.82-1,6.07,2.44,7.89-.21.89-.42,1.77-.64,2.65-16.56-10-30.64-23.43-46.74-34-6.3-4.15-9.5-8.89-8.11-16.6,4.8-26.69,4.7-53.62,4.12-80.6C524.07,647.09,523.38,641.72,518.62,637.53Z" />
    <path class="rabota8-3"
      d="M293.64,614.38c.09-.31.16-.63.27-.94.35-1,1.09-1.08,1.21-.26.84,5.87-1.3,12.4,5.11,16.83,9.22,6.37,17.85,14.48,29.28,15.87,21.93,2.68,22,2.16,28.48,23-3.1,14.58-5.88,29.23-9.42,43.69a73.59,73.59,0,0,0-1.37,27.08q2.81,22.27,5.57,44.54c3,11,1.63,22.16,1.81,33.26.18,11.75-6.16,17.92-17.87,18-10.51.06-21,.06-31.52.08-7.31-4.71-9.52-11.88-9.73-20.05Q292.87,714.91,293.64,614.38Z" />
    <path class="rabota8-4"
      d="M309.23,366.42c-2.41-6.95-1.42-14.25-2.22-21.37q-.15-7-.31-13.94c0-6.83.35-13.68,0-20.5-1.19-25.68,8.9-34.81,34.81-42.84,9.82-3,19.2-1,28.57,1.94,15.27,9,19.5,22.56,16.37,39.25a51.63,51.63,0,0,0-.44,5.86,34.64,34.64,0,0,0-7,14.93c-2.91,14.13-8.44,27.37-12.75,41-10.8,13.71-25.92,16.29-42,16.31C316.34,382.3,306.84,378.69,309.23,366.42Z" />
    <path class="rabota8-5"
      d="M687.52,541.68c-14.41-4.9-26.4-14.26-39.41-21.69-50.91-29.08-101.57-58.58-152.32-87.92.21-2.28.43-4.57.64-6.85l9.48,2.63c2.76,5.78,8.37,6.68,13.73,8,3.16,5.41,8.27,7.12,14.11,7.47h0c2.59,6.17,8,7.43,13.83,7.83h0c6.63,8.47,15.9,12.55,25.83,15.54,1.22,2.24,3.6,1.86,5.55,2.43.13,4.09,3.45,5.18,6.28,6.79q43.83,25.11,87.65,50.25c2.22,1.27,4.33,3.82,7,2.63,3-1.34,1.61-4.67,1.61-7.1q.12-147.71.16-295.43c0-5.21-1.58-8.26-6.28-10.9q-40.65-22.83-81-46.29-86.26-49.92-172.45-99.93c-5.22-3-11.08-10.21-16.13-6.75S404.34,74.56,404.1,81a6.91,6.91,0,0,1-6.39,3.81q.33-17.87.68-35.73c1.86.53,3.92.7,5.55,1.63q58.31,33.5,116.53,67.12,80.79,46.6,161.64,93.11c5.2,3,7.36,6.16,7.35,12.28C689.23,329.34,689.86,435.52,687.52,541.68Z" />
    <path class="rabota8-6"
      d="M496.43,425.22c-.21,2.28-.43,4.57-.64,6.85-6.36,4.84-2.75,12.71-5.7,18.94-3.37,7.12-3.81,17.38-11.23,20.2-10.05,3.81-21.5,6.68-32.48,3.78-8.7-2.3-17.38-2.26-26.1-3-3-4.85-9.21-4.25-13-8-11.4-11.2-13.71-25.31-10.55-39.66,2.29-10.39,5.84-21.48,16.95-27,3.86-.14,7,.29,10.64,3,11.19,8.18,20.21,18.28,29.22,28.57,1.25,1.44,4.34,7.38,6.66,1.64,2.11-5.19,5.75-10.42,4.45-16.69.68-1.78,1.35-3.57,2-5.35,3-1.38,1.68-4,1.87-6.24,1.87-5.43,4.68-10.58,4.93-16.49,6.51-7.7,10.18-7.73,18.68-2,4.07,2.73,2.82,8.77,7.78,10.36l.36,2.86q-.92,6.41-1.82,12.8C494.93,414.53,496.9,420,496.43,425.22Z" />
    <path class="rabota8-7"
      d="M687.52,541.68c2.34-106.16,1.71-212.34,1.94-318.51,0-6.12-2.15-9.31-7.35-12.28q-81-46.32-161.64-93.11Q462.23,84.2,403.94,50.66c-1.63-.93-3.69-1.1-5.55-1.63,3-7.06,7.39-8.62,14.37-4.58q139.8,80.89,279.81,161.47c4.92,2.83,6.6,6,6.57,11.59q-1.07,156.44-1.7,312.87C697.41,537.66,694.94,541.52,687.52,541.68Z" />
    <path class="rabota8-1"
      d="M561.72,819.68c-6.18.78-9.65-3.91-13.84-7-10.64-7.86-21.16-15.89-31.73-23.85-4.56-3.69-8.87-7.78-13.75-11-12.88-8.48-17.42-20.27-15.95-35.33,2.23-22.77,3.38-45.65,5.95-68.38,1.89-16.65,11.14-28.93,26.22-36.59,4.76,4.19,5.45,9.56,5.58,15.65.58,27,.68,53.91-4.12,80.6-1.39,7.71,1.81,12.45,8.11,16.6,16.1,10.62,30.18,24,46.75,34q-.78,2.55-1.55,5.08C560.6,795.19,556.45,805.94,561.72,819.68Z" />
    <path class="rabota8-8"
      d="M717.59,848.4c1.1-4.25,4.79-6,8.07-7.94,36.06-20.89,72.23-41.58,108.22-62.58,6.54-3.81,11.91-4.43,16.89,1.94-.6.75-1,1.77-1.81,2.21-37.87,21.82-75.67,43.74-113.74,65.19-6.39,3.6-7.29,8.66-5.55,14,7.3,22.27,15.23,44.34,22.92,66.48q0,24.66-.1,49.32c-2.7,1.34-5.09.3-7.4-1-14.16-8.13-28.27-16.36-42.49-24.38-4.15-2.35-5.9-5.35-5.73-10.24.32-9.15,0-18.33-.06-27.49-1.54-13,2.48-24.4,9.42-35.22C712.13,869.43,719.45,860.59,717.59,848.4Z" />
    <path class="rabota8-1"
      d="M752.49,977q.06-24.66.1-49.32c5-1,8.36-4.8,12.55-7.19,24.37-13.88,48.58-28.07,73.24-41.42,4.25-2.3,4.72-4.51,4.62-8.17,2.87-.37,6.37,1.43,8.26-2.37,9.18.41,15.35-6.63,23.25-9.41.18,15.06.23,30.13.62,45.19.12,4.4-2.23,6.26-5.57,8.17q-54.43,31.18-108.75,62.58C758.17,976.57,755.62,977.83,752.49,977Z" />
    <path class="rabota8-9"
      d="M637.73,778.42l.24-53.53c-.34-12.61,2-25.37-2-37.8l-1.47-1.64-.54-27.6q0-5.7,0-11.4c.06-8.42.16-16.83.14-25.25,0-2.73,1.07-6.14-3.3-6.83-.19-11.84,1.66-24-4.9-34.93,16.72,5.66,22.94,14.9,23.33,35.07.22,11.11,1.07,22.32.06,33.34-3.16,34.37,7.79,66.4,15.17,99.06,4.14,18.3,8,36.68,12.19,55,.94,4.07,1,7.71-1.27,11.27a4,4,0,0,0-1.51,0c-7.14-11.17-15.17-12.58-27.5-4.84-1.28-7.55,1.41-15.59-2.56-25.38-2.91,10-.76,17.87-2,25.43-5.3-3-1.68-8.49-3.38-12.49Z" />
    <path class="rabota8-10"
      d="M638.42,795.83c1.7,4-1.92,9.46,3.38,12.49-.52,2.74.08,5,2.58,6.6.82,14.14,2.91,27.6,15.47,37,3,2.28,4.78,6.25,9.48,4.93,5.07-1.42,4.38-5.71,4.56-9.52l1.67-1.57c4-8.26,1.2-16.89,1.37-25.36a1.43,1.43,0,0,0,.83-.77c13.55,9.2,27.68,17.6,39.83,28.74,1.86,12.19-5.46,21-11.36,30.23-6.94,10.82-11,22.23-9.42,35.22l-15.15.39c-7.09-19.91-24.28-32-36.92-47.62-2.66-3.31-6.06-6-8.9-9.19-7.59-8.51-18.13-16.17-8.18-29.75,1.25-1.7.22-5.07.24-7.66,1.1-3-.2-4.52-3.07-5.13,7.6-4.29,7-13.47,11.71-19.51A11,11,0,0,1,638.42,795.83Z" />
    <path class="rabota8-11"
      d="M552,565.76c-.21-24,15.91-35.93,38.91-28.82,15.6,4.82,23.92,16.17,23.86,32.47,0,3.91.13,7.83.2,11.74q-.11,10.51-.19,21c-6.54,3.68-13,7.51-19.62,11-16.1,8.48-33.69-1.82-33.7-19.64V562.39Z" />
    <path class="rabota8-4"
      d="M552,565.76l9.46-3.37v31.17c0,17.82,17.6,28.12,33.7,19.64,6.63-3.5,13.08-7.33,19.62-11,4.38,1.2,6.43,4.62,8,8.49.55,12.42-1.59,24.92,1.17,37.28-7,16-20.23,20.8-36.43,20.29C572.86,662.91,564,651.63,557,638.44c-4.59-12.19-3.55-24.91-3.07-37.47.27-7-1-12.59-7.37-16.2C548,578.34,544.51,570.46,552,565.76Zm57.62,51.56c-3.87,1.93-9.23,1.79-10.4,7-.32,1.43,1.51,2,2.74,2C607.7,626.34,608.87,622.05,609.64,617.32Z" />
    <path class="rabota8-3"
      d="M874.51,859.11c-7.9,2.78-14.07,9.82-23.26,9.41-.06-4.2,3.84-5.74,6.28-6.65,8.05-3,7.81-8,5.42-14.67q-8.09-22.5-15.59-45.21c-1.09-3.3-2.29-4.51-5.38-2.39-7.19,4.94-15.87,7.58-21.93,14.24-.95-.06-2.11-.51-2.8-.11q-37.85,21.63-75.61,43.4c-4.72,2.7-4,6-1.37,9.66,1.47,5.31,2.3,10.9,4.54,15.86,4.13,9.17,4.79,19.91,12.3,27.54l2.54,1.72c3,2.94,6.13,3,9.75.87q35.34-21,70.77-41.77l2.83-.12c.1,3.66-.37,5.87-4.62,8.17-24.66,13.35-48.87,27.54-73.24,41.42-4.19,2.39-7.57,6.18-12.55,7.19-7.69-22.14-15.62-44.21-22.92-66.48-1.74-5.31-.84-10.37,5.55-14C773.29,825.77,811.09,803.85,849,782c.77-.44,1.21-1.46,1.81-2.21,3,18.81,10.29,36.32,16,54.31C869.43,842.43,873.87,850.19,874.51,859.11Z" />
    <path class="rabota8-12"
      d="M397.71,84.76A6.89,6.89,0,0,0,404.09,81,10.21,10.21,0,0,0,412,77.61c2.59-2.79,5.14-3,8.64-.85,13.67,8.3,27.65,16.11,41.33,24.41,2.84,1.72,6.87,2.94,7,7.46l-39.35,23.6c-3.15-1.68-6.32-3.33-9.45-5-15.34-8.35-29.56-18.76-46-25C380.22,94,391,92.1,397.71,84.76Z" />
    <path class="rabota8-4"
      d="M392.35,875c13.47,13,39.09,10.91,50.44-3.67,2.54-3.25,2.6-6.55,2.62-10,.13-17.27.12-34.54.16-51.79a5.61,5.61,0,0,1,.72,1.8c0,10.21-1.9,20.24,15.19,17.89,9.91-1.37,16.74,8.19,19.59,18.64s-.43,17.5-9.59,23c-7.56,4.52-14.39,10.24-21.7,15.2-15.66,10.63-32,10.17-48.32,1.93C396.39,885.42,392.35,881.45,392.35,875Z" />
    <path class="rabota8-6"
      d="M386.05,314.82a49.43,49.43,0,0,1,.43-5.86c3.13-16.69-1.1-30.26-16.37-39.25,6-9.84,13.59-18.65,18.35-29.25,2.33-4.68,2.8-10.82,9.46-12.11,9.05-.74,15.4,3.37,19.42,11.19,1,1.92.6,4.63,3.6,5.07-.4,4.59-4.82,8.17-3.3,13.23-2.94,8.26-7.92,15.86-8.21,25-5.31.68-2.57,6.66-5.76,8.72-2.81,4.06-4.13,9.09-8.06,12.42-2.73,4.77-4.63,10.1-9.18,13.66C386.3,316.69,386.17,315.76,386.05,314.82Z" />
    <path class="rabota8-5"
      d="M374.12,102.17c16.47,6.26,30.69,16.67,46,25,3.13,1.71,6.3,3.36,9.44,5q-.21,40.23-.43,80.46c-1.34-.44-3.19-4.93-3.74.62-.35,3.42,2.13,8.25-3.94,9.33,0-5.74-.6-11.52,2.36-16.93,1.21-2.22-1-2.45-2.52-2.8l.21-39.15-.21-14.21c-.39-4.29,2.5-9.52-2.48-12.53-11.59-7-23.41-13.63-35.43-20.57-2,5-1.16,9.2-.93,13.33-.18,4.62-1.55,9.39,1.87,13.5-4.91,9.57-.8,19.82-2.25,29.63-1.91,12.93.92,22.79,15,27.06,4.55,1.37,8.45,4.87,12.64,7.39-3.57,2.29-2.55,8.43-7.8,9.31-9.18-5.31-17.05-12.94-27.66-15.75Z" />
    <path class="rabota8-4"
      d="M523.48,885.35c-9.52,12.35-10.31,27-10.8,41.66a29.67,29.67,0,0,0,2.26,3.16c2.48,2.64,8.19,3.35,6.44,8.49-1.46,4.3-6,5.78-10.08,7-11.9,3.54-24.4-2.67-27-14.43s-2.93-24.26.57-36c5-16.71,17.78-21.41,32.46-13C519.35,883.39,521.45,884.32,523.48,885.35Z" />
    <path class="rabota8-13"
      d="M305.19,835.46c10.51,0,21,0,31.52-.08,11.71-.06,18.05-6.23,17.87-18-.18-11.1,1.21-22.31-1.81-33.27,9-1.1,18.17-3.65,26.19,3.22,5.64,5.7,2.4,12.9,3.12,19.39.6,5.45.14,11,.14,16.52-9.31,5.27-18.55,10.67-28,15.79C337.19,848.35,320.8,847,305.19,835.46Z" />
    <path class="rabota8-9"
      d="M557,638.44c7,13.19,15.91,24.47,30.58,29.81-9.1,5.68-18,11.76-27.37,16.93-11.21,6.18-21.15-.53-20.73-13.55.18-5.54.28-11.11.93-16.61,1.14-9.62-1.39-17.82-8.41-24.56l8.16-5.58C545.71,629.42,548.36,637.62,557,638.44Z" />
    <path class="rabota8-4"
      d="M293.82,573.25c24.33,18.63,52.62,20.2,81.23,17.16,11.81-1.25,24-4.46,34.43-11.45,2.17.14,4.28,0,6-1.57a1.54,1.54,0,0,1,1.32,1C412.43,588.32,402.72,592,394,594.3c-28.89,7.54-57.92,8.16-86.33-3.31a18.69,18.69,0,0,1-7.71-5.65c-3-3.72-4.33.33-6.4.65Q293.67,579.6,293.82,573.25Z" />
    <path class="rabota8-10"
      d="M532,876.68c19.21,7.63,37,18.18,55.48,27.26,7.89,3.87,16.09,7.21,23.09,12.75-1.88,2.58-4.53,1.43-6.46.56-23.56-10.6-48.15-18.49-72.22-27.71-2.7-1-5.9-1.5-6.28-5.3Z" />
    <path class="rabota8-14"
      d="M374.31,200.92c10.61,2.81,18.48,10.44,27.66,15.75,1.36,4.84-2.66,7.8-4.05,11.68-6.66,1.29-7.13,7.43-9.46,12.11-16.25-6.83-16.22-20.39-14.37-34.72C374.29,204.15,374.24,202.53,374.31,200.92Z" />
    <path class="rabota8-6"
      d="M306.7,331.11q.15,7,.31,13.94c-17.06,11.32-20.79,29.19-23.44,47.59-8.46-14.36-2.73-39.08,8.23-48.79C296.66,339.54,300.49,333.87,306.7,331.11Z" />
    <path class="rabota8-11"
      d="M557,638.44c-8.59-.82-11.24-9-16.84-13.56,6.7-5.78,7.45-12.49,4.86-20.86-1.9-6.17-3.92-13.26,1.54-19.25,6.41,3.61,7.64,9.21,7.37,16.2C553.4,613.53,552.36,626.25,557,638.44Z" />
    <path class="rabota8-2"
      d="M622.79,610.68c-1.56-3.87-3.61-7.29-8-8.49q.09-10.52.19-21c3.37-2.26,7.11-2.15,10.91-1.71,6.56,10.95,4.71,23.09,4.9,34.93C624.7,620.58,625.57,611.67,622.79,610.68Z" />
    <path class="rabota8-4"
      d="M512.55,806.83c8.13,7.11,15.8,15,27.2,16.8.06,4.63-4,3.63-6.51,4.78-8.69-1.46-14.23-7.6-20-13.47C513,812.24,512.79,809.53,512.55,806.83Z" />
    <path class="rabota8-14"
      d="M675.56,845.79l-1.67,1.57q0-17.13,0-34.25a4,4,0,0,1,1.51,0l2.38,6.51a1.43,1.43,0,0,1-.83.77C674.24,828.77,676.64,837.37,675.56,845.79Z" />
    <path class="rabota8-3"
      d="M415.46,577.39c-1.7,1.62-3.81,1.71-6,1.57.6-3,2.26-4.14,5.24-2.91A3.54,3.54,0,0,1,415.46,577.39Z" />
    <path class="rabota8-3"
      d="M414.56,576.13c-1.56-3-.28-4.55,2.74-5.15C416.54,572.78,420.07,576.86,414.56,576.13Z" />
    <path class="rabota8-6"
      d="M309.23,366.42c-2.39,12.27,7.11,15.88,15,20.65,1.3,5.42,6.41,2.11,9.6,4.09,13.32,8.25,33.52,1.28,40.74-13.24l3.5.14c6.63,4,14.57,5.7,20.25,11.41-11.75,11.29-13.27,27.24-18.77,41.36-4.58,11.75-12.86,16.3-24.08,11-16.21-7.64-32-16.21-47.67-24.94-5.14-2.86-8.3-7.8-9.23-14.26-1.59-11-.49-21.42,4.29-31.47C304.17,368.43,305.39,365.72,309.23,366.42Z" />
    <path class="rabota8-4"
      d="M624.83,814.89c2.87.61,4.17,2.15,3.07,5.13-19.25,14.67-41.58,16.05-64.49,14.91-1.1-4.59-4.94-2.94-7.83-3.45,0-1.2-.07-2.39-.11-3.59l-.14-.86c16.84.64,33.62,1.58,50.19-3.37A81.66,81.66,0,0,0,624.83,814.89Z" />
    <path class="rabota8-15"
      d="M533.24,828.41c2.49-1.15,6.57-.15,6.51-4.78,5.46,0,10.54,1.61,15.59,3.4l.13.86c-4.05.88-9.79-4.17-12,3.38C539.73,831.57,535.93,832,533.24,828.41Z" />
    <path class="rabota8-15" d="M555.58,831.48c2.89.51,6.73-1.14,7.83,3.45-6.17.44-12.25.41-17.65-3.28Z" />
    <path class="rabota8-13"
      d="M555.58,831.48l-9.82.17-2.25-.38c2.17-7.55,7.91-2.5,12-3.38C555.51,829.09,555.54,830.28,555.58,831.48Z" />
    <path class="rabota8-10"
      d="M575.58,781.77c-3.4-1.81-2.45-5.06-2.45-7.88,0-14.43.27-28.87-.09-43.29-.13-5.11,2.12-7.93,6-10.19,13-7.55,26.06-15.06,39.06-22.64,4.45-2.59,6.45-1.78,6.39,3.73-.17,15.42.2,30.85-.22,46.25-.25,9.09-19.26,27.4-28.94,28.76-.39-3.32.09-6.82-2-9.81,3.38-11.2,6.74-22.41,10.16-33.6.56-1.84,2-4.24-.23-5.14-2.72-1.08-3.68,1.52-4.48,3.81-3.91,11.31-7.93,22.59-11.91,33.88C576.66,766.47,581,777.52,575.58,781.77Z" />
    <path class="rabota8-11"
      d="M561.72,819.68c-5.27-13.74-1.12-24.49,11.67-30.17l17.09,1.07c.09,7.11,1,14.33.09,21.3C589.11,822.91,578.27,825.6,561.72,819.68Z" />
    <path class="rabota8-13"
      d="M590.48,790.58l-17.09-1.07q.76-2.53,1.55-5.08l.63-2.65c5.38-4.26,1.09-15.31,11.35-16.13,2.16.31,4.07,2.12,6.45,1.05,2.06,3,1.58,6.49,2,9.81Z" />
    <path class="rabota8-15"
      d="M622.79,610.68c2.78,1,1.91,9.9,8,3.69,4.37.69,3.29,4.1,3.3,6.83,0,8.42-.08,16.83-.14,25.25-3.49-3.36.32-8.79-3.44-12.07-.76-2.35.66-5.27-3.09-8.2C626.2,633.94,625.08,641,624,648,621.2,635.6,623.34,623.1,622.79,610.68Z" />
    <path class="rabota8-5"
      d="M634.54,685.45l1.47,1.62q.33,18.23.64,36.47C632.32,711,634.82,698.17,634.54,685.45Z" />
    <path class="rabota8-15"
      d="M636.65,723.54q-.31-18.24-.64-36.47c4,12.45,1.62,25.21,2,37.82A3.3,3.3,0,0,1,636.65,723.54Z" />
    <path class="rabota8-5"
      d="M630.52,634.38c3.76,3.28,0,8.71,3.44,12.07q0,5.7,0,11.4C627.45,650.83,631.67,642.21,630.52,634.38Z" />
    <path class="rabota8-11"
      d="M386.43,317.63c-1.59,11.86,2.06,23.46,1.65,35.31-.2,5.81-1.52,10.37-6.95,12.93-6.09,2.88-5.79,7.19-3.06,12.19l-3.51-.13c.25-5.88-2.3-8.52-8.29-7.16,4.31-13.65,9.84-26.89,12.75-41a34.64,34.64,0,0,1,7-14.93Z" />
    <path class="rabota8-8"
      d="M366.27,370.77c6-1.36,8.54,1.28,8.29,7.16-7.21,14.51-27.41,21.48-40.73,13.23-3.19-2-8.3,1.33-9.6-4.09C340.35,387.06,355.47,384.48,366.27,370.77Z" />
    <path class="rabota8-14"
      d="M469,108.63c-.14-4.52-4.17-5.74-7-7.46-13.68-8.3-27.66-16.11-41.33-24.41-3.5-2.12-6.05-1.94-8.64.85A10.21,10.21,0,0,1,404.09,81c.25-6.39-3.35-15.07,1.72-18.53s10.91,3.74,16.13,6.75Q508.22,119,594.39,169.1q40.36,23.35,81,46.29c4.7,2.64,6.29,5.69,6.28,10.9q-.18,147.72-.16,295.43c0,2.43,1.38,5.76-1.61,7.1-2.65,1.19-4.76-1.36-7-2.63Q629.07,501,585.24,475.94c-2.83-1.61-6.15-2.7-6.28-6.79l8.1,1.76c6.73-.63,10.1-4.05,9.81-11.09-.29-6.83-.13-13.67-.16-20.5,1.23-12.43-2.18-25.1,2-37.37l4.08,5c-.76,4.84,2.67,6.24,6.21,7.56l-.33,34.72c-3.1-1-7.37-4.58-7.76,2.16-.49,8.47-.12,17,0,25.51,0,3.28,2.52,4.87,5.1,5,3.41.11,2.62-3.13,2.64-5.19.1-9.16,0-18.33,0-27.49a15.59,15.59,0,0,0,1.93.09c1.67,2.39,4.17,1.85,6.52,1.86,2.75,2,5.7,2.71,8.5.43.65-.52.59-2.44.25-3.53-1.27-4.1-4.76-1.69-7.25-2.27-.06-1.47-.13-2.95-.2-4.42,0-9.46,2.51-19.47-5.76-27.19,3-4,7.62-5.66,11.62-8.24,4.37-2.82,10.52-3.59,12-9.95.9-4.76-1.86-10.06,2.15-14.35l7.16.42a37.28,37.28,0,0,1-1.37,19.75c-1.66,8.66-10.51,8.43-15.85,12.45-8.73,6.56-9.14,6,.2,11.67-.06,3.93.91,8.24-.38,11.71-2.57,6.94,8.33,19.68-8.51,20.67-.3,0-.77,1.09-.79,1.69-.28,9.79-1.22,19.65.55,29.34.53,2.85,4,4.73,7,4.17s1.88-3.74,1.92-5.84c.14-6.22-.15-12.45.16-18.66.12-2.46-2-6.75,2.81-6.84,3.21-.07,4.41,2.8,5.22,6.06,2,8.09,1.48,16.24,1.65,24.39.06,2.9-.48,6.06,4.71,4.6,15.46-4.34,23-13.76,22.92-29.71,0-5.56-.26-11.12-.4-16.69.16-9.77.23-19.54.51-29.31.15-5.12-1.38-6.6-6.13-3.76-7,4.17-14.13,8.08-21.21,12.11-3.15-.59-6.14-1.48-8.22-4.18,4.53-5.8,11.61-7.81,17.41-11.73,2.37-1.61,6.58-2,6.9-4.76.42-3.73-4.11-4.31-6.6-6.15,3-12.37,2.78-25.72,11.06-36.49l6.78,1.82c7.7-2.38,10.1-7.44,9.61-15.48-.73-12-.13-24.11-.23-36.18,0-3,1.21-6.88-3.65-7.71q-1.92-4.56-3.83-9.13A11.36,11.36,0,0,1,668,298c4.63-1.81,7.5-4.54,7.42-10.18-.22-14.41.09-28.83.09-43.24,0-2.37,1-5.64-3.3-5.64-5.68-10.19-14.24-11.75-24.52-8.18-1.66-2.06-.55-5.6-3.69-6.86-6.59-12.3-15.22-14.34-21.59-5.1-5,.68-3.68,4.62-3.72,7.62-.13,9.47.39,19-.17,28.4-.62,10.56-.58,20.48,10.15,26.51-2.5,1.85-6.16,2.56-6.45,6.57-3,.25-3.6,2.24-3.6,4.8,0,15,0,30.09,0,45.13,0,5.45,3,8.37,8.26,9.2-1.56,9.8.76,18.79,5.72,27.22q-.19,9.91-.38,19.83l-5.93-.11c-7.11-22.12-22.86-41.51-19.85-66.84-8,24.51,7.65,43.85,13.66,65.4-8.24-8.8-12.13-20.61-23.23-26.26,0-6.76,0-13.51,0-20.26,0-3.17.58-6.72-4.06-7.37-1-7.28-7.56-8.72-12.49-12.09-6.35-4.33-15.85-4.26-18.9-13.26,9.72,1.38,15.91,10.48,25.67,11.76l8.06-3.89c3.66.88,7.38,1.61,10.51,3.92,8-.46,11.1-4.34,11-12.6-.35-32.12-.07-64.25-.16-96.38,0-3.08,1.36-6.64-1.87-9.15-6.25-8.67-16.51-11.15-25.1-16.22-29.8-17.63-59.37-35.67-89.55-52.61-9-5-17.06-12.21-27.64-14.29C471,118.79,477.21,112.12,469,108.63Z" />
    <path class="rabota8-16"
      d="M587.06,470.91l-8.1-1.76c-2-.57-4.33-.19-5.55-2.43-6.91-8-16.24-12-25.83-15.54h0c-3.4-4.76-8.34-6.78-13.83-7.83h0l-2.06-4.09c.08-2.57,0-5.16.26-7.71.52-5-2.5-12.13,1.51-14.41s8.64,3.95,13.18,6.07c-1.63,3.4-10.28,3.46-4.86,10.21a3.82,3.82,0,0,0,1.9,3.93c1.25,2.37,2.92,4.41,5.87,3.43s1.89-3.48,1.58-5.6c.17-1.51.05-2.92-1.4-3.85q-.06-3.3-.11-6.6l33.42,18.66,3.67,2.45Q586.89,458.36,587.06,470.91Zm-10-21.08c-1.18-3.75-2.15-8.07-7.49-8.48-3.59-.28-4.38,2.1-4,5,.68,4.65,3.34,7.74,8.06,8.32C576.78,455.09,577.07,452.57,577,449.83Z" />
    <path class="rabota8-14"
      d="M547.58,451.18c9.59,3.56,18.92,7.54,25.83,15.54C563.48,463.73,554.21,459.65,547.58,451.18Z" />
    <path class="rabota8-14"
      d="M496.43,425.22c.47-5.19-1.5-10.69,2-15.47-.94,7.48.91,13.66,8.06,17.39l-.63.72Z" />
    <path class="rabota8-14"
      d="M531.7,439.24l2.06,4.09c-5.85-.35-11-2.06-14.12-7.47l.61-.75,5.66.25C527.05,437.83,528.81,439.38,531.7,439.24Z" />
    <path class="rabota8-14"
      d="M519.64,435.86c-5.36-1.33-11-2.23-13.73-8l.62-.7c5,1.84,10.13,3.61,13.72,8Z" />
    <path class="rabota8-14"
      d="M533.76,443.34c5.49,1.05,10.43,3.07,13.83,7.83C541.73,450.77,536.35,449.51,533.76,443.34Z" />
    <path class="rabota8-17"
      d="M464.64,413.84C444,402,423.38,390,402.57,378.37c-5.36-3-6.87-6.77-6.81-12.65.24-20.58-.06-41.17-.15-61.75,3.93-3.33,5.25-8.36,8.06-12.42,0,23.42.49,46.85-.07,70.25-.24,10.53,4.74,14.09,14,14.4l3.79,2.28c1.41,5.19,5.62,5.55,9.93,5.74,2.14,0,4.53,1.08,5.82-1.83,4.14-9.34-1-23.54-10.24-28.16l.07.08a78.6,78.6,0,0,0-17.25-9.5c0-1.45,0-2.91,0-4.36,9.72,2.69,16.91,10.7,28,13.58,0-30.68-.08-60.61.07-90.55,0-6.08-3-4.16-6.09-3-5.22-9.51-.9-19.83-2.51-29.65l33.49-18.24c1.53,3.61,4.86,5.11,8,6.91,33.1,19.11,66,38.55,99.35,57.21,11.79,6.6,22.24,16.08,36.23,18.44q-.25,5.26-.49,10.53c-3.74-.31-6.68-2.42-9.8-4.23Q569.44,286,542.84,270.71c-2.44,2.91-1.34,8.33-5.58,7.83-4-.46-5.25-4.92-5.1-8.47.23-5.34-3-7.34-6.86-9.52-15.08-8.5-30-17.2-45.06-25.8-5-2.88-10.91-9.06-15.35-6.8-4.9,2.5-1.06,10.71-2.12,16.32-4.54,1.57-9.92,1.9-11.6,7.77-3.54.07-7.38.13-8.9,4-.78,2,1.82,2,3.21,2.5a10.13,10.13,0,0,0-.06,1.74c-.3,26.05-.29,52.12-1,78.16-.35,12.24-1,24,12.63,30-4.07,2.36-8.2-5.95-12-.18s-1.29,20.54,4,25.93c1.31,5.27,5.58,5.54,9.84,5.83l0,0c.51,4.75,5.92,4.94,7.81,8.4C466,410.27,465.32,412.06,464.64,413.84Zm-26.15-26.95c-1.54-.42-2.48.07-2.37,1.08a2.72,2.72,0,0,0,1.73,1.78c.56.14,1.37-.68,2.06-1.07Z" />
    <path class="rabota8-17"
      d="M531.7,439.24c-2.89.14-4.65-1.41-5.79-3.88,0-4.87-.5-9.8.11-14.59,1.17-9.33-3-13.91-11.88-15l.06,0c-3.29-5.08-9-6.28-13.91-8.86-.12-.95-.24-1.91-.35-2.86.21-.69.41-1.39.62-2.1,8.34,4,15.63,10.15,25.73,13.5v-100l2,.44c.13,3.93,3.12,3.24,5.56,3.43l-.45,3.46c-1.56,3.74-1.23,7.68-1.24,11.58-.06,21.52.79,43.09-.46,64.54-.86,14.79,1.41,26.21,16.93,31.43.81.27,1.35,1.36,2,2.07l-1,1.14-3-.36c-4.54-2.11-9.12-8.36-13.18-6.06s-1,9.43-1.51,14.41C531.69,434.08,531.78,436.67,531.7,439.24Z" />
    <path class="rabota8-11"
      d="M500.56,392c-.21.71-.41,1.41-.62,2.1-5-1.59-3.72-7.63-7.79-10.36-8.5-5.7-12.17-5.67-18.69,2-.24-2-.47-4-.71-6.06l-.15-5.16c2.16-11.34,7.7-21.29,13.09-31.27,1.79-3.31,4.41-1.15,6.73-.48l5.76,17.53C501.51,370.68,495.37,381.77,500.56,392Z" />
    <path class="rabota8-16"
      d="M472.75,379.7c.24,2,.47,4,.71,6.06-.24,5.91-3,11.06-4.92,16.49l-9.68-2.17,0,0c-2-4-5.69-5.36-9.84-5.83-5.26-5.39-7.78-20.14-4-25.93s7.93,2.54,12,.18l-.07-.11C460.07,375.13,467.63,375.72,472.75,379.7Z" />
    <path class="rabota8-16"
      d="M500.29,397c4.87,2.58,10.62,3.78,13.91,8.86-3.33.4-7.69-1-7.9,4.73-.15,4.48,2.25,7.36,5.7,9.64,1.73,1.14,4.11,2,5.09-.17C518.9,416,519,411.79,515,408.5c-.61-.5-.57-1.8-.83-2.73,8.89,1.09,13.05,5.67,11.88,15-.61,4.79-.11,9.72-.11,14.59l-5.66-.25c-3.59-4.35-8.68-6.12-13.72-8-7.15-3.74-9-9.92-8.06-17.4Q499.39,403.35,500.29,397Z" />
    <path class="rabota8-14"
      d="M458.86,400.08l9.68,2.17c-.19,2.22,1.09,4.86-1.87,6.24C464.78,405,459.37,404.83,458.86,400.08Z" />
    <path class="rabota8-8"
      d="M843,870.89l-2.82.12c-.75-5.1-6.17-4.7-8.85-7.53-5.28-7.23-11.46-10.76-19.92-4.8.05-6.81-.43-13.69.31-20.42.66-6-2-7.86-7.07-8.23,5.86-4.7,13.72-7.5,15.4-16.19,6.06-6.66,14.74-9.3,21.93-14.24,3.09-2.12,4.29-.91,5.38,2.39q7.54,22.69,15.59,45.21c2.39,6.65,2.63,11.68-5.42,14.67-2.44.91-6.34,2.45-6.28,6.65C849.37,872.32,845.87,870.52,843,870.89Z" />
    <path class="rabota8-11"
      d="M673.87,813.11q0,17.11,0,34.25c-.18,3.81.51,8.1-4.56,9.52-4.7,1.32-6.45-2.65-9.48-4.93-12.56-9.43-14.65-22.89-15.48-37l2-6.65C658.7,800.53,666.73,801.94,673.87,813.11Z" />
    <path class="rabota8-1"
      d="M646.37,808.27l-2,6.65c-2.49-1.56-3.09-3.86-2.57-6.6,1.25-7.56-.9-15.39,2-25.43C647.78,792.68,645.09,800.72,646.37,808.27Z" />
    <path class="rabota8-7"
      d="M675.56,845.79c1.08-8.42-1.32-17,1.37-25.36C676.76,828.9,679.52,837.53,675.56,845.79Z" />
    <path class="rabota8-11"
      d="M609.64,617.32c-.77,4.73-1.94,9-7.66,9-1.23,0-3.06-.57-2.74-2C600.41,619.11,605.77,619.25,609.64,617.32Z" />
    <path class="rabota8-1"
      d="M804.64,830c5.12.37,7.74,2.27,7.08,8.23-.74,6.73-.26,13.61-.31,20.42l-8,6.06-7.67,3.87c-4.34,1.38-6.84,5.17-10.21,7.82l-1.71,1.23c-4.2-.24-7.88.55-9.77,4.91l.06,0c-4.09.66-7.65,2.22-9.91,5.94l0,0c-4.85,0-6.76,2.6-6.73,7.26,0,4.83-.25,9.67-.39,14.5-7.52-7.63-8.18-18.37-12.31-27.54-2.24-5-3.07-10.55-4.53-15.86l8.16-4.45c4.69,1.85,7.5.19,8.62-4.62l.4-.25c9.38.66,15-7.15,22.74-10.11,2.39-.91,4.14-1.87,2.94-4.81l.37-.2c8.86-.79,16.38-3.94,21.12-12Z" />
    <path class="rabota8-6"
      d="M783.82,877.66l1.71-1.23c4.74,2.82,9.65,5.41,14.14,8.59,1.46,1-.83,5.67,4,4.39,3.86-1,3.23-4.12,3.9-6.71,6.82,1.67,11-3.32,16.06-6.26l8.35-3.73c-2.86-3.13-9.68-6-.69-9.23,2.68,2.83,8.1,2.43,8.85,7.53q-35.4,20.87-70.78,41.77c-3.62,2.15-6.73,2.07-9.74-.87,0-2.57.54-5.32-.18-7.68-1-3.39-1.45-6.67,1.46-8.79,3.25-2.37,4.7,2.13,7.23,3.06,6.08,2.23,11.72,8.13,17.75.11l8.94-5.64c-12.37-4.59-14.15-3.86-14.84,5.12-7.44.35-13.68-1.28-15.78-9.66l0,0c4.46-.06,8.75-.39,9.91-5.94l-.06,0C778.6,883.49,781.47,881.09,783.82,877.66Z" />
    <path class="rabota8-11"
      d="M764.24,888.43c2.1,8.38,8.34,10,15.78,9.67l5.9.51c-6,8-11.67,2.12-17.75-.11-2.53-.93-4-5.43-7.23-3.06-2.91,2.12-2.49,5.4-1.46,8.79.72,2.36.17,5.11.18,7.68l-2.55-1.72c.15-4.83.43-9.67.4-14.5C757.48,891,759.39,888.44,764.24,888.43Z" />
    <path class="rabota8-15"
      d="M462.72,212.64l-33.49,18.24-2.17-2.14c.67-5.36,3.45-10.43,2.1-16.05q.21-40.23.43-80.46L469,108.63c8.26,3.49,2.05,10.16,3.35,15.18L464.75,128c-3.58,6.43-1.2,13.33-1.54,20l.4,19-.51,44C463,211.54,462.83,212.09,462.72,212.64Z" />
    <path class="rabota8-16"
      d="M431.74,260.53c3.08-1.21,6.12-3.13,6.09,3-.15,29.94-.07,59.87-.07,90.55-11.08-2.88-18.27-10.89-28-13.58q-.18-28.8-.34-57.62c.29-9.13,5.27-16.73,8.21-25,.6,1.08,1.61,2.11,1.74,3.24.53,4.63,2.6,8.52,7.43,8.39C432.27,269.32,431,264.05,431.74,260.53Zm-15.12,41.09c-2.46,8.41,7.18,11.05,6.37,17.94-.09.76,3.38,2.33,3.54.16.35-4.58,6.54-.58,6.54-5.27s-3.79-5.6-6.67-7.4S420.22,303.6,416.62,301.62Z" />
    <path class="rabota8-11"
      d="M397.92,228.35c1.39-3.88,5.41-6.84,4.05-11.68,5.25-.88,4.23-7,7.8-9.31l11.55-4.45c1.52.35,3.73.58,2.52,2.8-3,5.41-2.31,11.19-2.36,16.93,0,1.88,0,3.76,0,5.65l-.52,16.32c-3-.44-2.61-3.15-3.6-5.07C413.32,231.72,407,227.61,397.92,228.35Z" />
    <path class="rabota8-14"
      d="M409.43,282.83q.17,28.82.34,57.62c0,1.45,0,2.91,0,4.36,1.46,10.76-4.77,23.45,7.88,31.39-9.27-.31-14.25-3.87-14-14.4.56-23.4.11-46.83.07-70.25C406.86,289.49,404.12,283.51,409.43,282.83Z" />
    <path class="rabota8-14"
      d="M420.94,244.61q.26-8.16.52-16.32l5.6.45,2.17,2.14c1.61,9.82-2.71,20.14,2.51,29.65-.77,3.52.53,8.79-4.93,8.94-4.83.13-6.9-3.76-7.43-8.39-.13-1.13-1.14-2.16-1.74-3.24C416.12,252.78,420.54,249.2,420.94,244.61Z" />
    <path class="rabota8-12"
      d="M421.32,202.91l-11.55,4.45c-4.19-2.52-8.09-6-12.64-7.39-14.11-4.27-16.94-14.13-15-27.06,1.45-9.81-2.66-20.06,2.25-29.63,12.57,6.52,24,15,37.18,20.48Zm-33.11-43.52c.78,12.17,1.67,13.2,9.49,12.82a5.21,5.21,0,0,1,2.62,1.21c3.36,2.19,8.27,3,7.43,8.86-.32,2.19,1.15,3.73,3.13,4.37a2.61,2.61,0,0,0,2.19-1.31c1.49-4.52,5.84-9.18-1.82-12.88S396.56,164.18,388.21,159.39Z" />
    <path class="rabota8-15"
      d="M421.53,163.76c-13.14-5.47-24.61-14-37.18-20.48-3.42-4.11-2.05-8.88-1.87-13.5,3.52,1.64,7.12,3.14,10.56,4.92,9.46,4.88,17.68,12.13,28.28,14.85Z" />
    <path class="rabota8-13"
      d="M421.32,149.55c-10.6-2.72-18.82-10-28.28-14.85-3.44-1.78-7-3.28-10.56-4.92-.23-4.13-1-8.29.93-13.33,12,6.94,23.84,13.57,35.43,20.57C423.82,140,420.93,145.26,421.32,149.55Z" />
    <path class="rabota8-17"
      d="M427.06,228.74l-5.6-.45c0-1.89,0-3.77,0-5.65,6.07-1.08,3.59-5.91,3.94-9.33.55-5.55,2.4-1.06,3.74-.62C430.51,218.31,427.73,223.38,427.06,228.74Z" />
    <path class="rabota8-14"
      d="M593.37,766.7c-2.38,1.07-4.29-.74-6.45-1.05,4-11.29,8-22.57,11.9-33.88.8-2.29,1.76-4.89,4.48-3.81,2.27.9.79,3.3.23,5.14C600.11,744.29,596.75,755.5,593.37,766.7Z" />
    <path class="rabota8-12"
      d="M462.77,244.27c1.06-5.61-2.78-13.82,2.12-16.32,4.44-2.26,10.31,3.92,15.35,6.8,15,8.6,30,17.3,45.06,25.8,3.88,2.18,7.09,4.18,6.86,9.52-.15,3.55,1.1,8,5.1,8.47,4.24.5,3.14-4.92,5.58-7.83Q569.41,286.08,596,301.5c3.12,1.81,6.06,3.92,9.8,4.23a68.4,68.4,0,0,1-.18,19.33c-3.13-2.31-6.85-3-10.52-3.92-1.76-3.16-4.87-4.17-8.06-5.05-4.32-2.26-8.71-4.41-12.95-6.81q-46.74-26.5-93.44-53.09C477.18,248.48,468.57,248.47,462.77,244.27Z" />
    <path class="rabota8-5"
      d="M630.32,425.63c2.08,2.7,5.07,3.59,8.22,4.18-.19,9.69-.35,19.39-.57,29.09-.11,5.16,1.24,6.27,6.17,3.4,7-4,13.36-9.17,21.23-11.53.14,5.57.38,11.13.4,16.69.06,16-7.46,25.37-22.92,29.71-5.19,1.46-4.65-1.7-4.71-4.6-.17-8.15.35-16.3-1.65-24.39-.81-3.26-2-6.13-5.22-6.06-4.79.09-2.69,4.38-2.81,6.84-.31,6.21,0,12.44-.16,18.66,0,2.1,1.08,5.28-1.92,5.84s-6.47-1.32-7-4.17c-1.77-9.69-.83-19.55-.55-29.34,0-.6.49-1.67.79-1.69,16.84-1,5.94-13.73,8.51-20.67,1.29-3.47.32-7.78.38-11.72A5.53,5.53,0,0,1,630.32,425.63Z" />
    <path class="rabota8-12"
      d="M464.75,128l7.55-4.19c10.58,2.08,18.66,9.25,27.64,14.29,30.18,16.94,59.75,35,89.55,52.61,8.59,5.07,18.85,7.55,25.1,16.22l-7.73,4.12c-34.62-19.87-69.27-39.65-103.81-59.64C490.1,143.92,476.52,137.44,464.75,128Z" />
    <path class="rabota8-7"
      d="M606.86,211.05l7.73-4.12c3.23,2.51,1.86,6.07,1.87,9.15.09,32.13-.19,64.26.16,96.38.09,8.26-3,12.14-11,12.6a68.4,68.4,0,0,0,.18-19.33q.24-5.26.49-10.53c0-1.09-.1-2.17-.14-3.26q.11-22,.22-44.07c.22-6.9.95-13.82-.57-20.68Q606.33,219.12,606.86,211.05Z" />
    <path class="rabota8-17"
      d="M480.64,256.19q46.71,26.55,93.44,53.09c4.24,2.4,8.63,4.55,12.95,6.82,0,3,0,5.95,0,8.93-9.76-1.28-15.95-10.38-25.67-11.76h0c-6.35-5.58-12.75-11.09-21.76-11.75l.06,0c-2.71-4.48-6.92-6.72-11.82-7.93l-3.63-.35c-.63-3.51-2.51-5.58-6.29-5.44l-3.57-.45c-.35-2.46-1.71-3.73-4.24-3.61h0a57,57,0,0,0-21.87-13.4l-1.81-.36C483,266,478.88,262.35,480.64,256.19Z" />
    <path class="rabota8-15"
      d="M665.37,450.77c-7.87,2.36-14.28,7.49-21.23,11.53-4.93,2.87-6.28,1.76-6.17-3.4.22-9.7.38-19.4.57-29.09,7.08-4,14.22-7.94,21.21-12.11,4.75-2.84,6.28-1.36,6.13,3.76C665.6,431.23,665.53,441,665.37,450.77Z" />
    <path class="rabota8-5"
      d="M592.76,338.62c4.64.65,4,4.2,4.06,7.37,0,6.75,0,13.5,0,20.26-.68,2.47.93,4.2,2,6.09-4.25,7.23-.93,15.14-2.06,22.65-.49,2.64.75,4.79,2,7-4.19,12.27-.78,24.94-2,37.37l-9.55-2q-.12-48.27-.26-96.54Z" />
    <path class="rabota8-5"
      d="M668,298a11.36,11.36,0,0,0-.18,1.84c-10.5-3.37-22.36-5.27-21.91-20.39l.36-11.57a57.13,57.13,0,0,0,0-31.36l.78-2.67c7.18,1.16,12.22,6.88,19,8.9-.1,15.39-.25,30.77-.26,46.16C665.76,292,664.77,295.55,668,298Zm-8.06-9.42c0-13,0-25.91,0-38.85,0-2.5-1.08-4.86-3.68-4.93-3.45-.09-2.69,3.07-2.71,5.12-.1,10.75,0,21.51,0,32.26C653.45,285.91,654.77,288.48,659.89,288.56Z" />
    <path class="rabota8-5"
      d="M665.87,368.32l-6.78-1.82-8.77-5.88c-3.76-2.91-1.83-7.05-2.3-10.67-.8-6.19,1.67-12.67-1.63-18.64q.11-14.15.22-28.27c7.33,1.17,12.31,7.52,19.55,8.89Zm-6-10c0-13.2,0-25.91,0-38.61,0-3-1-5.51-4.09-5.52-3.53,0-2.26,3.27-2.35,5.2-.45,10.1-.65,20.2-1,30.29C652.28,354,653.21,357.39,659.9,358.28Z" />
    <path class="rabota8-17"
      d="M628.63,281.31c-10.74-6-10.78-15.95-10.16-26.51.56-9.44,0-18.93.17-28.4,0-3-1.3-6.94,3.72-7.62a45.63,45.63,0,0,0,16.07,8.09c-2.25,3.13-2.09,6.71-2,10.3.14,15.25-.82,30.54,1.87,45.68C634.61,285,631.58,283.4,628.63,281.31Zm-4.24-53.51c0,13.44.06,25.8,0,38.16,0,4.87,2.14,7.18,7,7.07C634.83,245.45,633,231.92,624.39,227.8Z" />
    <path class="rabota8-17"
      d="M626.84,347c-5.23-.83-8.24-3.75-8.26-9.2,0-15,0-30.09,0-45.13,0-2.56.6-4.55,3.6-4.8l14.16,9.71q-.29,26.67-.58,53.34a5.2,5.2,0,0,1-1.66-.18c-2.57,2.3-1.36,5.48-1.9,8.26C627.83,356.16,632.36,349.35,626.84,347Zm-2.53-27.87h.09c0,6.2-.07,12.4,0,18.6,0,2.64,1.8,4.13,4.19,4.73,2.07.53,3.16-.89,3.18-2.63.15-12.4.28-24.8.15-37.19,0-3.1-2.87-4.68-5.45-4.57-3.47.15-2,3.44-2.12,5.39C624.17,308.68,624.31,313.91,624.31,319.14Z" />
    <path class="rabota8-12"
      d="M592.76,338.62l-5.86,2.2c-5-.87-8.82-4.12-13.23-6.17-13.9-6.46-25.13-17.79-40.29-21.88l.45-3.45,7.57-4.11c7.14,1.48,12,8.62,20,8.05h0c3,9,12.55,8.93,18.9,13.26C585.2,329.9,591.71,331.34,592.76,338.62Z" />
    <path class="rabota8-12"
      d="M636.33,297.59l-14.16-9.71c.29-4,4-4.72,6.45-6.57,3,2.09,6,3.72,9.63,1.54l7.61-3.42c-.45,15.12,11.41,17,21.91,20.39q1.9,4.56,3.83,9.13l-5.44,3c-7.24-1.37-12.22-7.72-19.55-8.89C646.22,292.1,646.22,292.1,636.33,297.59Z" />
    <path class="rabota8-7"
      d="M666.16,311.93l5.44-3c4.86.83,3.62,4.7,3.65,7.71.1,12.07-.5,24.16.23,36.18.49,8-1.91,13.1-9.61,15.48Q666,340.14,666.16,311.93Z" />
    <path class="rabota8-7"
      d="M668,298c-3.18-2.43-2.19-6-2.19-9.09,0-15.39.16-30.77.26-46.16l6.14-3.81c4.29,0,3.3,3.27,3.3,5.64,0,14.41-.31,28.83-.09,43.24C675.45,293.44,672.58,296.17,668,298Z" />
    <path class="rabota8-7"
      d="M645.86,279.43l-7.61,3.42c-2.69-15.14-1.73-30.43-1.87-45.68,0-3.59-.2-7.17,2-10.3l5.52-3c3.14,1.26,2,4.8,3.69,6.86-.21,1-.41,2.06-.61,3.09l-.78,2.67,0,31.36Z" />
    <path class="rabota8-4"
      d="M598.83,372.34c-1.07-1.89-2.68-3.62-2-6.09,11.1,5.65,15,17.46,23.23,26.26-6-21.55-21.64-40.89-13.66-65.4-3,25.33,12.74,44.72,19.85,66.84-3.37,1.5-7.06,2.45-9.37,5.69C611.43,390.17,607.48,379.7,598.83,372.34Z" />
    <path class="rabota8-16"
      d="M630.32,425.63a5.53,5.53,0,0,0-1.81.24c-9.34-5.64-8.93-5.1-.2-11.66,5.34-4,14.19-3.79,15.85-12.45L648,403c2.49,1.84,7,2.42,6.6,6.15-.32,2.78-4.53,3.15-6.9,4.76C641.93,417.82,634.85,419.83,630.32,425.63Z" />
    <path class="rabota8-17"
      d="M587.16,437.36l9.55,2c0,6.83-.13,13.67.16,20.5.29,7-3.08,10.46-9.81,11.09q-.16-12.56-.34-25.1c.35-1.6,2.41-3.27-.2-4.75C586.73,439.83,587,438.59,587.16,437.36Z" />
    <path class="rabota8-16"
      d="M616.88,399.64c2.31-3.24,6-4.19,9.37-5.69l5.93.11c1.12,1.12,2.26,2.21,4,1.88-1.45,6.36-7.6,7.13-12,9.95-4,2.58-8.66,4.2-11.62,8.24l-3.62.36c-3.54-1.32-7-2.72-6.21-7.56a3.74,3.74,0,0,0,3.82-3.05C610.63,403.9,613.46,401.06,616.88,399.64Z" />
    <path class="rabota8-5"
      d="M608.64,449.16c0,9.16.07,18.33,0,27.49,0,2.06.77,5.3-2.64,5.19-2.58-.09-5.07-1.68-5.1-5-.07-8.51-.44-17,0-25.51.39-6.74,4.66-3.17,7.76-2.16Z" />
    <path class="rabota8-17"
      d="M609,414.49l3.62-.36c8.27,7.72,5.73,17.73,5.76,27.19-5,.31-9.13,1.42-7.82,7.93a15.59,15.59,0,0,1-1.93-.09l0,0Z" />
    <path class="rabota8-4"
      d="M648,403l-3.87-1.23A37.39,37.39,0,0,0,645.54,382c.3-1.67.6-3.33.91-5,3.09-5,3-10.83,3.87-16.39l8.77,5.88C650.81,377.27,651,390.62,648,403Z" />
    <path class="rabota8-9"
      d="M646.45,377c-.31,1.67-.61,3.33-.91,5l-7.17-.42-5.81-7.36c-5-8.43-7.28-17.42-5.72-27.22,5.52,2.34,1,9.15,5.35,12a20.61,20.61,0,0,0,3.8,11.54C637.86,375.31,642.06,376.32,646.45,377Z" />
    <path class="rabota8-12"
      d="M647,233.83c.2-1,.4-2.06.61-3.09,10.28-3.57,18.84-2,24.52,8.18L666,242.73C659.25,240.71,654.21,235,647,233.83Z" />
    <path class="rabota8-12"
      d="M644,223.88l-5.52,3a45.63,45.63,0,0,1-16.07-8.09C628.73,209.54,637.36,211.58,644,223.88Z" />
    <path class="rabota8-13"
      d="M632.56,374.23l5.81,7.36c-4,4.29-1.25,9.59-2.15,14.35-1.78.33-2.92-.76-4-1.88Z" />
    <path class="rabota8-5"
      d="M610.57,449.25c-1.31-6.51,2.85-7.62,7.82-7.93.07,1.47.14,2.95.2,4.42.09,1.95.39,4-1.5,5.37C614.74,451.1,612.24,451.64,610.57,449.25Z" />
    <path class="rabota8-2"
      d="M617.09,451.11c1.89-1.4,1.59-3.42,1.5-5.37,2.49.58,6-1.83,7.25,2.27.34,1.09.4,3-.25,3.53C622.79,453.82,619.84,453.14,617.09,451.11Z" />
    <path class="rabota8-7" d="M587,325c0-3,0-5.95,0-8.93,3.19.87,6.3,1.88,8.06,5Z" />
    <path class="rabota8-4"
      d="M606.62,403.88a3.74,3.74,0,0,1-3.82,3.05l-4.08-5c-1.2-2.17-2.44-4.32-2-6.95Z" />
    <path class="rabota8-17"
      d="M583.05,443.37l-33.42-18.65a2.93,2.93,0,0,0,0-1.18l1-1.13a163.36,163.36,0,0,1,32.56,18.49Z" />
    <path class="rabota8-14"
      d="M577,449.83c.06,2.74-.23,5.26-3.39,4.88-4.72-.58-7.38-3.67-8.06-8.32-.42-2.94.37-5.32,4-5C574.86,441.76,575.83,446.08,577,449.83Z" />
    <path class="rabota8-14"
      d="M549.6,423.54a2.93,2.93,0,0,1,0,1.18q0,3.28.11,6.59l-8,2.09c-5.42-6.75,3.23-6.81,4.86-10.21Z" />
    <path class="rabota8-17"
      d="M541.79,433.4l8-2.09c1.45.93,1.57,2.34,1.4,3.86l-7.45,2.16A3.82,3.82,0,0,1,541.79,433.4Z" />
    <path class="rabota8-14"
      d="M543.69,437.33l7.45-2.16c.31,2.11,1.3,4.64-1.58,5.59S544.94,439.7,543.69,437.33Z" />
    <path class="rabota8-5" d="M583.05,443.37c0-.82.08-1.65.13-2.47l3.34.16c2.61,1.48.55,3.15.2,4.75Z" />
    <path class="rabota8-18"
      d="M492.42,342.79c-2.32-.67-4.94-2.83-6.73.48-5.39,10-10.93,19.93-13.08,31.27L457,368.35l.07.11c-13.63-6.08-13-17.81-12.63-30,.73-26,.72-52.11,1-78.16,3.92,2.22,7.72,4.66,11.77,6.61,12.37,5.95,22.59,16,36.43,19.15l-.57,3.34Zm-31.07-14.93c-1.84,7.88,6.17,11.06,5.89,17.26,0,.4,3.07,1.77,2.87.89-1.36-5.88,6.92-2.14,6.47-6.94s-4.65-4.92-7.4-6.84C467.08,330.76,464.7,329.7,461.35,327.86Z" />
    <path class="rabota8-12"
      d="M606.14,291.94c0,1.09.09,2.17.14,3.26-14-2.36-24.44-11.84-36.23-18.44-33.34-18.66-66.25-38.1-99.35-57.21-3.12-1.8-6.45-3.3-8-6.91.11-.55.24-1.1.38-1.65,3.51-.13,6.18,2,9,3.56Q539.14,253.21,606.14,291.94Z" />
    <path class="rabota8-16"
      d="M417.61,376.2c-12.65-7.94-6.42-20.63-7.88-31.39a78.6,78.6,0,0,1,17.25,9.5c-1.92.28-4,.19-5.72.9-4.66,1.88-3.35,5.39-2.21,8.94,1.27,4,4.14,6.45,7.83,5.63,4.33-1,2.58-5.35,2.38-8.27-.17-2.47-1.52-4.86-2.35-7.28,9.25,4.62,14.38,18.82,10.24,28.16-1.29,2.91-3.68,1.88-5.82,1.83-2.13-4-5.63-5.54-9.93-5.74Z" />
    <path class="rabota8-12"
      d="M493.62,286c-13.84-3.14-24.06-13.2-36.43-19.15-4.05-1.95-7.85-4.39-11.77-6.61a11.24,11.24,0,0,1,.05-1.74l6.41-4.24c2.75-.31,4.74,1.23,7.06,2.42,9.06,4.64,16.73,12.24,27.51,13.3l1.82.36c2.19,6.2,8.39,8,12.87,11.63C498.92,283.85,496.64,285.62,493.62,286Z" />
    <path class="rabota8-14"
      d="M486.45,270c-10.78-1.06-18.45-8.66-27.51-13.3-2.32-1.19-4.31-2.73-7.06-2.42-.24-.75-.47-1.49-.71-2.23,1.68-5.87,7.06-6.2,11.6-7.77,5.8,4.2,14.41,4.21,17.87,11.92C478.88,262.35,483,266,486.45,270Z" />
    <path class="rabota8-14"
      d="M426.91,354.23c.83,2.42,2.18,4.81,2.35,7.28.2,2.92,1.95,7.31-2.38,8.27-3.69.82-6.56-1.68-7.83-5.63-1.14-3.55-2.45-7.06,2.21-8.94,1.74-.71,3.8-.62,5.72-.9Z" />
    <path class="rabota8-7"
      d="M451.17,252c.24.74.47,1.48.71,2.23l-6.41,4.24c-1.38-.49-4-.53-3.2-2.5C443.79,252.17,447.63,252.11,451.17,252Z" />
    <path class="rabota8-14"
      d="M421.4,378.48c4.3.2,7.8,1.79,9.93,5.74C427,384,422.81,383.67,421.4,378.48Z" />
    <path class="rabota8-14"
      d="M449,394.21c4.15.47,7.8,1.79,9.84,5.83C454.58,399.75,450.31,399.48,449,394.21Z" />
    <path class="rabota8-14"
      d="M438.49,386.89l1.42,1.79c-.69.39-1.5,1.21-2.06,1.07a2.72,2.72,0,0,1-1.73-1.78C436,387,437,386.47,438.49,386.89Z" />
    <path class="rabota8-18"
      d="M586.52,441.06l-3.34-.16a163.36,163.36,0,0,0-32.56-18.49c-.66-.72-1.2-1.81-2-2.08-15.52-5.22-17.79-16.64-16.93-31.43,1.25-21.45.4-43,.46-64.54,0-3.9-.32-7.84,1.24-11.58,15.16,4.08,26.39,15.41,40.29,21.87,4.41,2.05,8.26,5.3,13.23,6.17q.14,48.27.26,96.54C587,438.59,586.73,439.83,586.52,441.06ZM565.9,390.54c-2-5.92-8.33-6.41-12.39-9.56-.82-.63-3.08-.94-3.3-.57-2.64,4.38,1.45,6,3.59,8.56.69.83.54,2.46.59,3.73.09,2.56,1.2,4.27,3.71,5C558,392.66,564.39,394.62,565.9,390.54Zm-.72-50.08c-.55-4.39-3.22-7.36-8.2-7.38-3.77,0-3.36,3.17-3.46,5.77-.22,5.57,3.35,7.49,8,7.72C565.25,346.75,565.15,343.65,565.18,340.46Z" />
    <path class="rabota8-16"
      d="M500.56,392c-5.19-10.22.95-21.31-2.38-31.67q.1-34.35.22-68.7l3.45-1.58c6,8.47,15.11,12.14,24.44,15.41v100C516.19,402.14,508.9,396,500.56,392Zm3.92-39c-.39,7.84,7.12,11.28,7,17.73,0,.2,1.64.43,2.52.65-1.08-5.25,6.08-2,6.36-6.32.26-4-2.82-4.84-5.11-6.31C512.26,356.82,509,355.35,504.48,353Zm13.57-37.42c.38-5.57-1.87-9.07-6.75-9.62-3.94-.44-3,3.31-3.3,5.72-.51,4.85,2.43,7.38,6.52,8.34C518.89,321,517.76,317.28,518.05,315.57Z" />
    <path class="rabota8-12"
      d="M526.29,305.45c-9.33-3.27-18.39-6.94-24.44-15.41,1.16-2.58,5.33-2.72,5.15-6.38l3.13.09h0c.17,2.67,1.52,3.94,4.24,3.61l3.57.44c.49,3.68,2.34,5.78,6.29,5.45l3.63.35c-.36,4.63,4.62,5.19,6.31,8.26l-5.9,4Z" />
    <path class="rabota8-7"
      d="M528.27,305.89l5.9-4,5.51-.33-.06,0,1.78,3.7-7.57,4.11C531.39,309.13,528.4,309.82,528.27,305.89Z" />
    <path class="rabota8-5" d="M498.4,291.62q-.11,34.35-.22,68.7l-5.76-17.53.63-53.44Z" />
    <path class="rabota8-17"
      d="M457,368.35l15.65,6.19c0,1.72.09,3.44.14,5.16C467.63,375.72,460.07,375.13,457,368.35Z" />
    <path class="rabota8-14"
      d="M514.14,405.77c.26.93.22,2.23.83,2.73,4,3.29,3.93,7.45,2.12,11.51-1,2.19-3.36,1.31-5.09.17-3.45-2.28-5.85-5.16-5.7-9.64.21-5.74,4.57-4.33,7.9-4.73Z" />
    <path class="rabota8-11"
      d="M831.33,863.48c-9,3.19-2.17,6.1.69,9.23l-8.36,3.74c-.08-3.19-.17-6.38-.25-9.58-.11-4.18-3.66-5.46-5.78-3.65-4.33,3.7-9.57,1.58-14,3.6l-.27-2.08,8-6.06C819.87,852.72,826.05,856.25,831.33,863.48Z" />
    <path class="rabota8-11"
      d="M807.61,882.7c-.67,2.59,0,5.7-3.9,6.71-4.87,1.28-2.58-3.36-4-4.39-4.49-3.18-9.4-5.77-14.14-8.59,3.37-2.65,5.87-6.44,10.21-7.82a3.76,3.76,0,0,1,.19,1.82c-.1,6.48,4.44,3.75,7.57,3.81.43,1.86-6.29,5.92,1.64,5.44C807.63,879.53,807.39,881.21,807.61,882.7Z" />
    <path class="rabota8-8"
      d="M757.46,857.47c7.62-6.6,16.5-11,25.68-14.92,1.2,2.94-.55,3.9-2.94,4.81C772.44,850.32,766.84,858.13,757.46,857.47Z" />
    <path class="rabota8-8"
      d="M783.51,842.35a66,66,0,0,1,21.13-12C799.89,838.41,792.37,841.56,783.51,842.35Z" />
    <path class="rabota8-11"
      d="M774.11,882.53c-1.16,5.55-5.45,5.88-9.91,5.94C766.46,884.75,770,883.19,774.11,882.53Z" />
    <path class="rabota8-8"
      d="M748.44,862.34c2.08-3,5.26-4,8.63-4.61C755.94,862.53,753.13,864.19,748.44,862.34Z" />
    <path class="rabota8-11"
      d="M783.82,877.66c-2.35,3.43-5.22,5.83-9.77,4.91C775.94,878.21,779.62,877.42,783.82,877.66Z" />
    <path class="rabota8-12"
      d="M795.93,870.43a3.76,3.76,0,0,0-.19-1.82l7.67-3.87.27,2.08,0,0C800.69,867.07,799.41,871.1,795.93,870.43Z" />
    <path class="rabota8-12"
      d="M807.61,882.7c-.22-1.49,0-3.17-2.47-3-7.93.48-1.21-3.58-1.64-5.44q.11-3.72.22-7.46l0,0c4.38-2,9.62.1,14-3.6,2.12-1.81,5.67-.53,5.78,3.65.08,3.2.17,6.39.25,9.58C818.65,879.38,814.43,884.37,807.61,882.7Z" />
    <path class="rabota8-12" d="M785.92,898.61l-5.9-.51c.69-9,2.47-9.72,14.84-5.13Z" />
    <path class="rabota8-5"
      d="M606.14,291.94q-67-38.72-134.07-77.39c-2.79-1.6-5.46-3.69-9-3.56l.51-44c19.86,9.42,38.36,21.29,57.44,32.11,28.49,16.16,56.88,32.51,85.31,48.77Q606.24,269.9,606.14,291.94Zm-109.87-99.1c-.51-1.65-1.91-1.67-3.25-1.79l-8.16-5.54c0,9.48,0,17.21,0,24.94,0,5.41,3.31,6.46,7.73,6.28l3.65,2.89c3.18.6,4.35,4.69,7.93,4.58l3.91,2.33c2.55,2,4.29,5.22,8,5.46l2,.42,1.87,1c1.27,3.52,4.5,2.38,7,2.94,1.3,1.61,2.47,3.39,4.75,3.77,1.48,1.75,3.52,1.87,5.58,1.91l4.41,4.19a10.52,10.52,0,0,0,1.86.45c2.16,1.86,4.25,3.85,7.31,4,1.66-3.85.61-7.16-1.24-10.43-1.44-2.56-1.8-5.07.07-7.82,4.54-6.66,1.44-10-5.38-11.43l-2.64-2.14-3.69-.3c-1.37-2.43-2.2-5.42-5.78-5.55l-4-2c-1.67-3.05-5-2-7.51-3-.61-1-.74-2.48-2.42-2.41a4.84,4.84,0,0,0-1.48-.84,10.38,10.38,0,0,0-8.38-4c-1.45-2.53-3.82-2-6.08-1.8-.23-3.59-2.37-5.26-5.73-5.71Zm69.35,40.75c-2.07,27.15-.6,29.49,24.07,39.21C594.4,249.48,590.26,242.58,565.62,233.59Z" />
    <path class="rabota8-12"
      d="M606.36,247.87c-28.43-16.26-56.82-32.61-85.31-48.77C502,188.28,483.47,176.41,463.61,167q-.19-9.5-.4-19c3.87-.13,6.8,2.27,9.84,4,28.61,16.36,57,33,85.71,49.27,15.57,8.82,30.1,19.56,47,25.91C607.31,234.05,606.58,241,606.36,247.87Z" />
    <path class="rabota8-17"
      d="M605.79,227.19c-16.93-6.35-31.46-17.09-47-25.91C530.09,185,501.66,168.37,473.05,152c-3-1.73-6-4.13-9.84-4,.34-6.68-2-13.58,1.54-20,11.77,9.44,25.35,15.92,38.3,23.41,34.54,20,69.19,39.77,103.81,59.64Q606.32,219.12,605.79,227.19Z" />
    <path class="rabota8-4"
      d="M416.62,301.62c3.6,2,6.78,3.56,9.78,5.43s6.67,2.64,6.67,7.4-6.19.69-6.54,5.27c-.16,2.17-3.63.6-3.54-.16C423.8,312.67,414.16,310,416.62,301.62Z" />
    <path class="rabota8-4"
      d="M388.21,159.39c8.35,4.79,15.46,9.42,23,13.07s3.31,8.36,1.82,12.88a2.61,2.61,0,0,1-2.19,1.31c-2-.64-3.45-2.18-3.13-4.37.84-5.84-4.07-6.67-7.43-8.86a5.21,5.21,0,0,0-2.62-1.21C389.88,172.59,389,171.56,388.21,159.39Z" />
    <path class="rabota8-14"
      d="M510.13,283.75l-3.13-.09L501.14,282c-4.48-3.66-10.68-5.43-12.87-11.63A57,57,0,0,1,510.13,283.75Z" />
    <path class="rabota8-14"
      d="M541.4,305.21l-1.78-3.7c9,.66,15.41,6.17,21.76,11.75C553.41,313.83,548.54,306.69,541.4,305.21Z" />
    <path class="rabota8-14"
      d="M539.68,301.54l-5.51.33c-1.69-3.07-6.67-3.63-6.31-8.26C532.76,294.82,537,297.06,539.68,301.54Z" />
    <path class="rabota8-14"
      d="M524.23,293.26c-4,.33-5.8-1.77-6.29-5.45C521.72,287.68,523.6,289.75,524.23,293.26Z" />
    <path class="rabota8-14"
      d="M514.37,287.37c-2.72.33-4.07-.94-4.24-3.61C512.66,283.64,514,284.91,514.37,287.37Z" />
    <path class="rabota8-14"
      d="M606.62,403.88,596.77,395c1.13-7.52-2.19-15.43,2.06-22.66,8.65,7.36,12.6,17.83,18,27.3C613.46,401.06,610.63,403.9,606.62,403.88Z" />
    <path class="rabota8-13"
      d="M659.89,288.56c-5.12-.08-6.44-2.65-6.44-6.4,0-10.75-.07-21.51,0-32.26,0-2.05-.74-5.21,2.71-5.12,2.6.07,3.68,2.43,3.68,4.93C659.91,262.65,659.89,275.59,659.89,288.56Z" />
    <path class="rabota8-17" d="M646.22,267.86l0-31.36A57.13,57.13,0,0,1,646.22,267.86Z" />
    <path class="rabota8-7"
      d="M636.33,297.59c9.89-5.49,9.89-5.49,10.28,5.45q-.11,14.13-.22,28.27c-.06,3.26-.37,6.54-.13,9.78.56,7.76-3,10.89-10.51,9.84Q636.05,324.26,636.33,297.59Z" />
    <path class="rabota8-14"
      d="M635.75,350.93c7.56,1.05,11.07-2.08,10.51-9.84-.24-3.24.07-6.52.13-9.78,3.3,6,.83,12.45,1.63,18.64.47,3.62-1.46,7.76,2.3,10.67-.9,5.56-.78,11.36-3.87,16.39-4.39-.69-8.59-1.7-10.46-6.47.13-6.67,1.69-13.48-1.9-19.79A5.2,5.2,0,0,0,635.75,350.93Z" />
    <path class="rabota8-13"
      d="M659.9,358.28c-6.69-.89-7.62-4.28-7.45-8.64.39-10.09.59-20.19,1-30.29.09-1.93-1.18-5.22,2.35-5.2,3.1,0,4.11,2.51,4.09,5.52C659.87,332.37,659.9,345.08,659.9,358.28Z" />
    <path class="rabota8-13"
      d="M624.39,227.8c8.65,4.12,10.44,17.65,7,45.23-4.85.11-7-2.2-7-7.07C624.45,253.6,624.39,241.24,624.39,227.8Z" />
    <path class="rabota8-4"
      d="M624.31,319.14c0-5.23-.14-10.46.07-15.67.08-2-1.35-5.24,2.12-5.39,2.58-.11,5.42,1.47,5.45,4.57.13,12.39,0,24.79-.15,37.19,0,1.74-1.11,3.16-3.18,2.63-2.39-.6-4.15-2.09-4.19-4.73-.1-6.2,0-12.4,0-18.6Z" />
    <path class="rabota8-13"
      d="M634.09,350.75c3.59,6.31,2,13.12,1.9,19.79a20.61,20.61,0,0,1-3.8-11.54C632.73,356.23,631.52,353.05,634.09,350.75Z" />
    <path class="rabota8-4"
      d="M461.35,327.86c3.35,1.84,5.73,2.9,7.83,4.37,2.75,1.92,7,2.17,7.4,6.84s-7.83,1.06-6.47,6.94c.2.88-2.89-.49-2.87-.89C467.52,338.92,459.51,335.74,461.35,327.86Z" />
    <path class="rabota8-7"
      d="M501.14,282l5.86,1.68c.18,3.66-4,3.8-5.15,6.38l-3.45,1.58-5.35-2.27.57-3.34C496.64,285.62,498.92,283.85,501.14,282Z" />
    <path class="rabota8-4"
      d="M565.9,390.54c-1.51,4.08-7.94,2.12-7.8,7.14-2.51-.71-3.62-2.42-3.71-5,0-1.27.1-2.9-.59-3.73-2.14-2.56-6.23-4.18-3.59-8.56.22-.37,2.48-.06,3.3.57C557.57,384.13,563.86,384.62,565.9,390.54Z" />
    <path class="rabota8-14"
      d="M565.18,340.46c0,3.19.07,6.29-3.67,6.11-4.64-.23-8.21-2.15-8-7.72.1-2.6-.31-5.78,3.46-5.77C562,333.1,564.63,336.07,565.18,340.46Z" />
    <path class="rabota8-4"
      d="M504.48,353c4.5,2.36,7.78,3.83,10.77,5.75,2.29,1.47,5.37,2.33,5.11,6.31-.28,4.28-7.44,1.07-6.36,6.32-.88-.22-2.53-.45-2.52-.65C511.6,364.27,504.09,360.83,504.48,353Z" />
    <path class="rabota8-14"
      d="M518.05,315.57c-.29,1.71.84,5.45-3.53,4.44-4.09-1-7-3.49-6.52-8.34.26-2.41-.64-6.16,3.3-5.72C516.18,306.5,518.43,310,518.05,315.57Z" />
    <path class="rabota8-6"
      d="M803.72,866.78q-.12,3.74-.22,7.46c-3.13-.06-7.67,2.67-7.57-3.81C799.41,871.1,800.69,867.07,803.72,866.78Z" />
    <path class="rabota8-16"
      d="M565.62,233.59c24.64,9,28.78,15.89,24.07,39.21C565,263.08,563.55,260.74,565.62,233.59Z" />
    <path class="rabota8-10"
      d="M492.57,216.73c-4.42.18-7.77-.87-7.73-6.28.06-7.73,0-15.46,0-24.94l8.16,5.54c.13.82.27,1.65.41,2.47l0,3.32c-2.27,3.41-6.32,6.74-.47,10.51l.3,3.43c-.06,1.35-.12,2.69-.17,4C492.89,215.45,492.73,216.09,492.57,216.73Z" />
    <path class="rabota8-9"
      d="M544.37,221c6.82,1.44,9.92,4.76,5.38,11.42-1.87,2.75-1.51,5.26-.07,7.82,1.85,3.27,2.9,6.58,1.24,10.43-3.06-.12-5.15-2.11-7.31-4Q544,233.81,544.37,221Z" />
    <path class="rabota8-10"
      d="M532.26,213c3.58.13,4.41,3.12,5.78,5.56q-.35,11.74-.7,23.5c-2.06,0-4.1-.16-5.58-1.91Q532,226.54,532.26,213Z" />
    <path class="rabota8-10"
      d="M520.73,207.9c2.5,1,5.83,0,7.5,3l-.72,6.52c-2.18-.42-4.67-1.25-5.41,1.88-1,4.08,0,7.57,4.12,9.58-3.49,2.88.76,4.93.79,7.43-2.52-.56-5.75.58-7-3Q520.37,220.64,520.73,207.9Z" />
    <path class="rabota8-4"
      d="M527,236.34c0-2.5-4.28-4.55-.79-7.43,2.81-3.55.62-7.67,1.29-11.46l.72-6.52,4,2q-.25,13.57-.5,27.15C529.48,239.73,528.31,238,527,236.34Z" />
    <path class="rabota8-13"
      d="M502.36,198.86c2.26-.19,4.63-.73,6.08,1.8-.76,5.33.19,10.18,4,14.21a4.58,4.58,0,0,0-.15,1.88l-2.26.08-5.07-.11c-.08-.68-.15-1.36-.23-2,.19-.23.58-.57.53-.67a9,9,0,0,0-1-1.26,2.09,2.09,0,0,1-1.57-.57c-.2-1.14-.41-2.29-.61-3.44.07-2.84,1.43-5.94-1.6-8.19Z" />
    <path class="rabota8-15" d="M537.34,242q.35-11.75.7-23.5l3.69.29q0,13.69,0,27.4Z" />
    <path class="rabota8-10"
      d="M510.05,216.83l2.26-.08c5.94,3.91,3.74,9.86,3.8,15.24-3.76-.24-5.5-3.44-8.05-5.47C508.47,223.24,507.69,219.71,510.05,216.83Z" />
    <path class="rabota8-10"
      d="M512.46,214.87c-3.83-4-4.78-8.88-4-14.21a10.35,10.35,0,0,1,8.37,4C515.15,208,518.8,213.54,512.46,214.87Z" />
    <path class="rabota8-10"
      d="M502.74,212.18a2.09,2.09,0,0,0,1.57.57c.15.64.29,1.29.44,1.93s.15,1.36.23,2c-.28,2.49-.55,5-.83,7.48-3.58.11-4.75-4-7.93-4.58.18-3.12.35-6.24.53-9.35Z" />
    <path class="rabota8-13"
      d="M496.75,210.26c-.18,3.12-.35,6.24-.53,9.36l-3.65-2.89c.16-.64.32-1.28.49-1.92,1.55-1.28,1.54-2.62.17-4-.1-1.14-.2-2.28-.31-3.43,2.39-3.41,2.08-6.93.48-10.51l0-3.32,2.84-.68.36.31c-.16,2.86-.89,5.81,1.21,8.35-.43,1.79-.85,3.59-1.28,5.38C496.62,208,496.69,209.13,496.75,210.26Z" />
    <path class="rabota8-15"
      d="M512.46,214.87c6.34-1.33,2.69-6.9,4.35-10.22a4.77,4.77,0,0,1,1.49.84l-.18,26.92-2-.42c-.05-5.38,2.15-11.33-3.79-15.24A4.58,4.58,0,0,1,512.46,214.87Z" />
    <path class="rabota8-13"
      d="M518.12,232.41l.18-26.92c1.68-.07,1.81,1.42,2.43,2.41q-.37,12.75-.74,25.49Z" />
    <path class="rabota8-13"
      d="M541.75,246.21q0-13.69,0-27.4l2.64,2.15q-.37,12.84-.76,25.7A10.52,10.52,0,0,1,541.75,246.21Z" />
    <path class="rabota8-4"
      d="M504.15,224.2c.28-2.49.55-5,.83-7.48l5.07.11c-2.36,2.88-1.58,6.41-2,9.69Z" />
    <path class="rabota8-15"
      d="M497.84,201.5c-2.1-2.54-1.37-5.49-1.21-8.35,3.36.45,5.5,2.12,5.73,5.71l-1.83,1.7Z" />
    <path class="rabota8-15"
      d="M496.27,192.84l-2.84.68c-.14-.82-.28-1.65-.41-2.47C494.36,191.17,495.76,191.19,496.27,192.84Z" />
    <path class="rabota8-15"
      d="M493.4,196.84c1.6,3.58,1.91,7.1-.48,10.51C487.08,203.58,491.13,200.25,493.4,196.84Z" />
    <path class="rabota8-15"
      d="M493.23,210.78c1.37,1.41,1.38,2.75-.17,4C493.11,213.47,493.17,212.13,493.23,210.78Z" />
    <path class="rabota8-2"
      d="M527.51,217.45c-.67,3.79,1.52,7.91-1.29,11.46-4.12-2-5.07-5.5-4.12-9.58C522.84,216.2,525.33,217,527.51,217.45Z" />
    <path class="rabota8-7"
      d="M497.84,201.5l2.69-.94c3,2.24,1.67,5.34,1.6,8.18l-5.57-1.86C497,205.09,497.41,203.29,497.84,201.5Z" />
    <path class="rabota8-15"
      d="M496.56,206.88l5.57,1.86c.2,1.15.41,2.3.61,3.44l-6-1.91C496.69,209.13,496.62,208,496.56,206.88Z" />
    <path class="rabota8-4"
      d="M504.75,214.68c-.15-.64-.29-1.29-.44-1.93a9,9,0,0,1,1,1.26C505.33,214.11,504.94,214.45,504.75,214.68Z" />
  </g>
</svg>