<svg id="Layer_1" data-name="Layer 1" xmlns="http://www.w3.org/2000/svg" viewBox="0 0 801.39 801.39">
  <defs>
    <style>
      .rabota7-1 {
      fill: #a0a0a0;
      }

      .rabota7-2 {
      fill: #a2a2a2;
      }

      .rabota7-3 {
      fill: #a1a1a1;
      }

      .rabota7-4 {
      fill: #0780f7;
      }

      .rabota7-5 {
      fill: #047ff9;
      }

      .rabota7-6 {
      fill: #2768b8;
      }

      .rabota7-7 {
      fill: #68696b;
      }

      .rabota7-8 {
      fill: #cacbcc;
      }

      .rabota7-9 {
      fill: #f14445;
      }

      .rabota7-10 {
      fill: #f9de0f;
      }

      .rabota7-11 {
      fill: #4d3c3a;
      }

      .rabota7-12 {
      fill: #6d6d6e;
      }

      .rabota7-13 {
      fill: #463e3e;
      }

      .rabota7-14 {
      fill: #ddd;
      }

      .rabota7-15 {
      fill: #c92525;
      }

      .rabota7-16 {
      fill: #747474;
      }

      .rabota7-17 {
      fill: #edd61f;
      }

      .rabota7-18 {
      fill: #d6b086;
      }

      .rabota7-19 {
      fill: #822622;
      }

      .rabota7-20 {
      fill: #f8f8f8;
      }
    </style>
  </defs>
  <g>
    <path class="rabota7-1"
      d="M511.42,682.58a38,38,0,0,0-.8,4.93c-.12,3.63-2.69,4.26-5.37,4.25s-5.76-.55-6.19-4.22c-.24-2,.33-4.15-1.39-5.77,1.42-.57,1.33-1.81,1.36-3q0-25.31,0-50.62v-7.88l.06-3.64q0-25.2,0-50.4l-.06-2.87c0-1.65,0-3.3,0-5,0-1.23,0-2.46,0-3.68q0-25.26.05-50.52c0-1,0-2.06-.05-3.09,0-2.19,0-4.38,0-6.57l0-3.84q0-25.18,0-50.38c0-1,0-2.07-.05-3.11,0-1.78,0-3.55,0-5.33l0-3.72q0-25.14,0-50.29c0-1.11,0-2.22,0-3.33,0-1.52,0-3.05,0-4.57l0-3.78L499,315.55v-2.82l0-6.66,0-3.6q0-25.49,0-51l0-2.73c0-2.18,0-4.37,0-6.55l0-3.59q0-11.9,0-23.77c-.68-6.94,1.51-14.07-1.33-20.88,2.68-4.44.78-9.31,1.32-13.95l0-3.4c.5-2.86-.87-4.47-3.36-5.7-1.74-.85-4.08-1.15-4.71-3.55,3.35-3.51,10.24-4.63,8-11.9q.22-10.89.46-21.8c3.63,1,7.27,1.79,10.94.11.07,4.73,0,9.47.27,14.19.39,6.35-1.2,12.81,1,19.07-1.74,6.33-1,12.83-1.2,19.26q.24,9.85.5,19.72l-.3,26.93c-.07.88-.13,1.76-.2,2.64.44,2.16-.9,4.59,1,6.53-.33,1.51-.65,3-1,4.53,0,1,0,2.07,0,3.11q0,24.64,0,49.3c.39,2.3-.91,4.84.95,6.95-.32,1.5-.64,3-.95,4.51v3.11q0,24.63,0,49.27c.38,2.32-.88,4.86.93,7,0,1,0,2,.07,3l-1,3.14,0,48.8c0,2.76,0,5.53,0,8.29,0,.65,0,1.3,0,1.95v3.52q0,24.54,0,49.07c.47,2.22-.94,4.73,1,6.71l-1,4.6c0,1.22,0,2.43,0,3.65q0,24.39,0,48.77,0,3.81,0,7.62v5.42l-.06,48.89c.49,2.51-.88,5.23.88,7.59l-.84,2.28c0,1.06,0,2.11,0,3.16q0,24.69,0,49.37C510.9,678,509.52,680.51,511.42,682.58Z" />
    <path class="rabota7-2"
      d="M428.24,641.65c-.76,0-1.52,0-2.28,0-8.26.17-8.87-.39-8.87-8.45V456.92c0-20.91,0-41.83-.06-62.74,0-1.93,1-4.23-1.18-5.78,1.14-5.66,2.37-11.3,3.36-17,.37-2.15.8-4.61-2.06-5.74a26.37,26.37,0,0,0-1.43-3.69q-12.59-22-25.29-43.92c-.69-1.2-1-3.05-3.14-2.72-.36-1.62.92-4-2.05-4.4.09-4.12-2.62-4.72-5.85-4.67-2.3-2.72.17-7.31-3.68-9.42a7.3,7.3,0,0,1,5.53-2.13c8.48,7,15.08,15.79,22.47,23.83Q439.94,358,476.2,397.45l-14.71,9.35c-1.69-.29-2.46.48-2.48,2.13-8.62,2.2-15-1.23-20.08-8a54.22,54.22,0,0,0-3.74-5c-1.24-1.31-2.42-3.57-4.45-3-2.42.69-1.33,3.24-1.34,4.94-.07,16.27,0,32.54,0,48.81l0,3.29,1.35,2c-1.51.42-3.27.73-1.18,2.71l-.18,55.73v3.41a5.68,5.68,0,0,0,0,1.09q-2.2,1.92.14,3.67-.07,27.21-.16,54.43l0,2.8.12,1.71c-1.9,1.09-.75,2.34-.18,3.56v57.1a3.51,3.51,0,0,0,0,1.12A2.42,2.42,0,0,0,428.24,641.65Z" />
    <path class="rabota7-3"
      d="M535.63,626.63l-.42.24-.49,0-3.42.06c-.49-.92-1-1.84-1.46-2.75,0-1.12,0-2.23-.05-3.34l0-42.71c1.32-3.53,2.61-7.08,4-10.6.63-1.62,1.48-3.54.1-4.77s-2.22,1.7-3.83,1.39c-.08-.65-.15-1.3-.23-2a3,3,0,0,0-1.36-3.08c2.28-14.19,1.2-28.43.57-42.66,1.58-3.54,3.26-7,4.7-10.63.65-1.62,2.39-3.65.88-5.08-1.95-1.84-2.65,2.09-4.59,1.77l-.3-2.16c1.78-1.26.27-2.61.1-3.92l0-44c1.3-3.47,2.65-6.91,3.86-10.41.58-1.67,2.36-3.68.94-5.1-2-1.95-2.66,2-4.58,1.71-.07-.69-.15-1.39-.22-2.09v-3.93c-.07-7.38,0-14.76-.27-22.14-.24-6.56,1-13.18-.74-19.68,1.64-3.82,3.32-7.62,4.88-11.47.66-1.64,2.8-3.41,1-5.1-2-1.93-2.83,2-4.78,1.62l-.15-2c0-1.35,0-2.7,0-4.05-.08-3.57-.1-7.14-.23-10.71-.38-10.31.83-20.65-.61-30.94,1.56-3.77,3.17-7.52,4.66-11.32.56-1.45,2.4-3,1-4.48s-3,1-4.65.72l-.12-1.16c0-1.27,0-2.54,0-3.8l0-44c-.2-4.16,3.05-7.14,3.78-11,.3-1.55,2.44-3,1-4.52s-3,.86-4.64.62c0-.39-.11-.78-.17-1.17,0-1.29,0-2.59,0-3.88-.07-3.57-.1-7.13-.21-10.69-.35-11,.79-22.09-.61-33.09.28-1.32.57-2.63.86-3.94,3.51-2.42,6.76-5.38,11.38-5.48q0,214.66,0,429.33c0,3.23.55,7-4.7,6.32Z" />
    <path class="rabota7-3"
      d="M399.75,220.65c6.22-10.24,11-21.23,16.53-31.83,1.2-2.31.81-4.84.81-7.28q0-44.49,0-89c0-1.87-.43-3.82.64-5.57,3.6,2,7.47,1.07,11.25,1l.48,41.18c-1.18,1-.82,1.85.23,2.64l-.18,1.86c-1.8,1.12-.66,2.34-.12,3.54l0,47.93-1.16,1.15c-.93-1.17-1.94-2.29-2.76-3.54-1-1.52-2-3-4-1.52-1.81,1.34-.49,2.58.28,3.88,2.7,4.55,5.55,9,8,13.74,4,7.9,9.9,14.84,12.52,23.47,2.91,9.56,1.2,14.48-7.16,19.43-11.55,6.84-23.21,13.49-34.89,20.11-8.37,4.76-8.35,4.65-5.46,14.06.37,1.22,2.72,3.82-1.25,4-2.63-1.52-5.51-.66-8.28-.88a49.39,49.39,0,0,0-10.74-17.47c.56-3.83-.91-7.83,1-11.55,2.09.13,3.46,1.49,4.71,2.92,1.73,2,3,2,4.18-.55C389.32,241.73,395.46,231.65,399.75,220.65Z" />
    <path class="rabota7-4"
      d="M338.05,621c-1.06-1.85-.41-3.83.05-5.54,3.69-13.67,1.19-26.93-2.23-40.2a81.06,81.06,0,0,1-1.3-9c.7-3.84,1.6-7.66,1.31-11.61,1.86-1.69,1.54-5.55,5.31-5.33,2.3,2.24,1.16,5.08,1.36,7.69-4.68,2.6-4.87,12.42-.09,15.34a83.06,83.06,0,0,0,14,7.27c3,1.1,6.35,1.89,8.56-3.21,1.85-4.26.5-10.51,6.42-12.75,1.49,0,2.63,1.75,4.3.89-.61,2-4.26,2.73-2.26,5.72v0c-2.95-.36-3.09,1.82-3.37,3.79-1,6.93,1.28,12.2,7.93,15.15a91.92,91.92,0,0,0-2.22,17.55,19.11,19.11,0,0,1,0,2.27c-.65,5.52,2.65,12.67-6.11,14.9-.28.07-.56,1-.47,1.45a1.53,1.53,0,0,0,2.22,1c4.84-2,4.25,1.39,4.39,4.27.26,5.4-1.22,11,1.86,16.08,1.9,15.57,4,31.1,7.84,46.32-.11,4.47-.28,9-.31,13.48-.07,9.56-2,11.4-11.64,10.71-1.49-.11-2.95-.46-4.43-.7-3.38-5-2.1-10.92-3.12-16.34.88-4.46-.22-8.73-1.55-13,.54-12.46-2.89-24.18-6.67-35.83.31-6.28-3-8-8.8-7.72-5.2.28-8.95-3.31-9.73-8.44-.17-1.08.1-2.32-1.44-2.61a14.55,14.55,0,0,1,.09-9c.18,2.46,2.93,1.78,4.05,3.32s2.62.09,3.23-.8c1.21-1.77-.86-2.4-1.76-2.59C341.36,623.24,339.85,621.88,338.05,621Zm18.88,4.55c-1.34,0-2.29,0-3.23,0-2,0-4.79-.48-4.92,2.39-.15,3.33,2.91,1.88,4.68,2.23a6.71,6.71,0,0,0,2.82,0c2.77-.65,7.81,1.94,7.77-2.56C364,623.49,359.06,626.66,356.93,625.56Z" />
    <path class="rabota7-4"
      d="M361,242.38q-14.83-53.91-29.66-107.82c-.75-2.73-1.25-5.53-1.86-8.3,1.74-.62,3.15,0,4.81.75A160.67,160.67,0,0,1,357,140.45c8,5.54,13.83,13.61,14,23.44.55,30,.2,60,.19,90,0,1.88.33,4-2.3,4.49l-4.29-.56-.27-1.73C364.72,251.16,362.54,246.85,361,242.38Z" />
    <path class="rabota7-1"
      d="M349.54,258a10.79,10.79,0,0,0-3.28-8.57q-35.88-38.89-71.45-78.08c-4.09-4.48-8.15-9-12.29-13.43-1.35-1.45-2.27-2.61.16-3.9,6.81-3.64,13.59-7.36,20.38-11,11.05,1.93,16.18,10.59,21.19,19.09q15.45,26.24,30.4,52.76c8.37,14.85,17.75,29.12,25.17,44.5a5.77,5.77,0,0,1-4.52,2.39C353.41,260.39,350.91,260.05,349.54,258Z" />
    <path class="rabota7-5"
      d="M341.51,269.8l-63.65-8.9c-6-.84-12-1.81-18-2.41-2.8-.28-4-1.14-3.95-4.13.17-9.69,0-19.38.21-29.08.07-3.45.88-6.81,4.76-8.2,3.16.41,6.38-.64,9.53.61,9,3.54,16.77,9.36,24.94,14.23,17.13,10.21,34.41,20.18,51.56,30.36,1.34.79,3.63.13,3.86,2.58Z" />
    <path class="rabota7-5"
      d="M366.23,306.18c.16-.8.32-1.6.47-2.41,3.26-1.61,5.95-4.68,7.44,2.53.75,3.63,1.23,7.83,2.94,11.65,2.68,6,4.1,12.6,5.49,19.07,1.58,7.39,5.07,14.22,6,21.77.86,6.81,4.2,13,5.36,19.68,1.24,7.13,3.87,13.85,5.84,20.7,1.67,5.79.81,12.47,5.42,17.59,1.25,1.39.14,4.58,2,6.72,1.17,1.31.7,3.33-1.75,3.69C399,423.56,392.45,420,386,416.32c-4.85-2.79-10-5.28-12.87-10.5l-3-3.74-3.74-10.37c0-10.64,0-21.29,0-31.93Q366.36,333,366.23,306.18Z" />
    <path class="rabota7-1"
      d="M317.6,370.56c-3.82-2.43-4.77-6.84-7-10.35-4.25-6.72-8-13.73-12-20.59a39.78,39.78,0,0,1-4.37-10.42c-2.28-9.17-.75-13.25,7.32-17.93,9.81-5.7,19.73-11.21,29.6-16.8,4.31,5.45,10,6.93,16.64,5.94a24.23,24.23,0,0,1,4,.07,7.67,7.67,0,0,1,.05,1.07c-2.37,4.9-4.71,9.83-7.13,14.7Q331.18,343.42,317.6,370.56Z" />
    <path class="rabota7-1"
      d="M318.82,663.37c-4-3.87-3.51-9.12-4.4-14-.29-1.55.48-3.44-1.45-4.46,2.45-4.15,1-8.31,0-12.47,1-8.78-2.48-16.93-3.52-25.42a38.44,38.44,0,0,0-3.42-10.77c-.68-3.15-.29-7-5.17-7.2-5.42-.23-10-2.59-14.11-6-.57-3.33.19-6.82-1.13-10.07.41-1.15.83-2.31,1.25-3.46,12.41,6.79,24.84,6.61,37.29.15,1.72,1.23,1.26,3.08,1.17,4.7-.74,14.08,2,27.89,3.67,41.73,1.24,10.06,5.39,19.67,5.65,30-1,2.13-.8,4.42-.83,6.68-.12,8-2.49,10.36-10.53,10.42C321.83,663.27,320.33,663.33,318.82,663.37Z" />
    <path class="rabota7-1"
      d="M325.72,532.24c-.37,11-2.72,21.88-.12,32.84a2.28,2.28,0,0,1-.85,2.53c-1.18-1.38-1.85,0-2.76.45-12,5.64-23.78,5.9-35.18-1.67-.16-.71-.33-1.41-.49-2.12l.1-5.72a7.53,7.53,0,0,0,1.36-5.13,9.49,9.49,0,0,0,1.17-4.78,77.53,77.53,0,0,0-5.57-30.26c3.54.69,6.67,3.46,10.61,2.1,3.45-.35,5.77,2.21,8.52,3.5,5.58,2.64,8.31,2,11.61-3.46,2.32.2,2.49-2.4,4.08-3.14.13,2.26.45,4.52.37,6.77C318.39,529.19,320.63,531.93,325.72,532.24Z" />
    <path class="rabota7-2"
      d="M540.9,69.79c.11,13.42.27,26.85.33,40.27.09,19.68.1,39.35.14,59-4,2-7.35,5.51-12.23,5.69-1.15-12.71,1.24-25.46-.46-38.16l-.06.07,1.2-2.81c1.6-4,3.18-8,4.78-12,.35-.87.92-1.84-.07-2.51a1.85,1.85,0,0,0-2.52.48c-.73.84-1.42,1.72-2.12,2.58-1.34-1.07-.76-2.72-1.23-4,1.21-1.14,1.45-2.2-.24-3.12,1.18-13.45.19-26.93.55-40.39,0-2-.62-4.19.71-6.09C533.27,70.79,537.13,69.78,540.9,69.79Z" />
    <path class="rabota7-6"
      d="M551.24,153.22c8.76-5.26,17.51-10.54,26.29-15.76,3.55-2.11,7-1.17,10.16.89,7.88,5.09,11.78,12.67,12.82,21.74.4,3.49-.74,7-4,8.9-8.14,4.72-15.92,10.11-24.64,13.81a77.63,77.63,0,0,0,.07-9C571.05,165.12,562.47,151.14,551.24,153.22Z" />
    <path class="rabota7-6"
      d="M337.83,632.73c1.54.29,1.27,1.53,1.44,2.61.78,5.13,4.53,8.72,9.73,8.44,5.77-.31,9.11,1.44,8.8,7.71-3.3,11.75-4.06,23.55-.81,35.44a8.68,8.68,0,0,0-.26,1.66c.56,14,.56,14-13.58,14.7-.19,0-.37.05-.56.07-3.95-1.26-3.95-4.69-4-7.83-.3-9.4-.4-18.8-.63-28.2,0-1.64.48-3.41-.81-4.86a106,106,0,0,0-.11-16.81C339,641.46,337.26,637,337.83,632.73Z" />
    <path class="rabota7-7"
      d="M286.8,583.12c4.11,3.39,8.69,5.75,14.11,6,4.88.22,4.49,4,5.17,7.2-.27,4.56-4.73,8.37-2.45,13.4-2.25,7.6.87,14.86,1.38,22.28a86.55,86.55,0,0,0,.51,9.63c.61,4-1.59,6.49-5.71,6.77-3,.2-6.07.1-9.11.14-3.62-1.13-3.83-4.24-3.9-7.18-.16-6.91-.09-13.82-.11-20.73q-.09-8.93-.19-17.85a27.6,27.6,0,0,0-.29-9.11q-.43-2.82-.89-5.64A8.34,8.34,0,0,0,286.8,583.12Z" />
    <path class="rabota7-8"
      d="M529.14,174.78c4.88-.18,8.19-3.71,12.23-5.69,1.65-1.17,3.74-1.82,4.55-4,2.25.32,3.86-1,5.68-2,4.43-2.39,8.42-1.11,11,3.27,3.63,6.21,3.1,8.9-1.88,12.37-1.68,1.18-4.63,1.11-4.79,4.12-5.86.9-10.46,4.13-14.71,8-4.62.1-7.87,3.06-11.38,5.48-2.42.18-3.08,2.35-4.34,3.83-2.12-1.9-3.39.52-4.94,1.08-3.36,1.22-5.87,4.22-9.61,4.72q-.26-9.85-.5-19.72c3-1.55,6.64-2.19,8.2-5.78C523.08,180.34,526.43,178.14,529.14,174.78Z" />
    <path class="rabota7-9"
      d="M286.42,558.55c0,1.9-.07,3.81-.1,5.72-8.29,3.12-15.4,8.43-23.14,12.56-2.5,1.33-2.8,3.57-1.81,6.35,2.94,8.32,5.63,16.74,8.42,25.12q-.15,10.22-.31,20.41c-6.29-3.46-12.6-6.89-18.85-10.42-1.08-.62-2.68-1.22-2.55-2.8.72-8.5-2.42-17.34,3-25.46,2.64-4,6-7.91,5.7-13.34-.1-1.57,1.47-2.12,2.58-2.76Q272.85,566.2,286.42,558.55Z" />
    <path class="rabota7-10"
      d="M325.72,532.24c-5.09-.31-7.33-3-7.15-8.09.08-2.25-.24-4.51-.37-6.77,2.83-2.09,4.9-4.9,7.09-7.6,9.85-2,12.91-5.15,14.06-15.25.49-4.3,2.73-8.23,2.35-12.66,5.32-2.29,9.92-1.75,13.34,3.41-2.53,3.74-4.35,7.88-4.18,12.38.27,6.91-2.23,12.33-7,17.17-5.16,5.23-10.75,10.08-15.1,16.09C328.21,531.69,326.76,531.82,325.72,532.24Z" />
    <path class="rabota7-11"
      d="M342.55,557.05c-.2-2.61.94-5.45-1.36-7.69.89-2.35.72-4.77.64-7.22-.41-12.53,3.83-16.85,16.6-17l3.05.1c7.65,5.12,6.71,12,4.08,19.34-1.14.37-.91,1.43-1.23,2.26-1.94,4.95-2,10.86-7,14.26C348.23,564.21,345.75,563.53,342.55,557.05Z" />
    <path class="rabota7-10"
      d="M378,589.27c-6.65-2.95-8.89-8.22-7.93-15.15.28-2,.42-4.15,3.37-3.79.28,2.23-.53,4.65,1.44,6.57.7-2.4,1.92-4.9-1.44-6.59-2-3,1.65-3.76,2.26-5.72,4.15,1.84,6.79,5.44,10,8.41.95.87,1.54,3.09,3.44,2.23,1.58-.72,2-2.41,2.61-4.07,1.35-3.93-1-7.85.29-11.7,4.07-2.6,8.06-.07,12.08.19a3.84,3.84,0,0,1,1.1,5.11c-4.51,6.63-4.2,14.66-6.87,21.79-1.21,3.24-9.31,5.34-14.85,3.72C381.67,589.73,380,589,378,589.27Zm-2.71-8.45-.94-.41c-.13.32-.44.7-.35.92s.58.29.89.43C375,581.45,375.16,581.14,375.29,580.82Z" />
    <path class="rabota7-6"
      d="M405.5,427.17c2.45-.36,2.92-2.38,1.75-3.69-1.9-2.14-.79-5.33-2-6.72-4.61-5.12-3.75-11.8-5.42-17.59-2-6.85-4.6-13.57-5.84-20.7-1.16-6.68-4.5-12.87-5.36-19.68-.95-7.55-4.44-14.38-6-21.77-1.39-6.47-2.81-13.09-5.49-19.07-1.71-3.82-2.19-8-2.94-11.65-1.49-7.21-4.18-4.14-7.44-2.53l-.44,0c-.18-2.78,2.42-3.16,3.9-4.49l5.55-2.46c3.85,2.11,1.38,6.7,3.68,9.43l3.48,15,2.12,4.21a46.92,46.92,0,0,0,.85,5.58c6.57,24.11,13.12,48.23,19.92,72.27.85,3,.43,6.84,3.73,8.94,1,2.94-.64,6.32,1.45,9.09.41,2.71,2.23,5.58-.93,7.87l-2.82.18Z" />
    <path class="rabota7-12"
      d="M359.82,259.29c-7.42-15.38-16.8-29.65-25.17-44.5q-15-26.52-30.4-52.76c-5-8.5-10.14-17.16-21.19-19.09,4-2.87,7.9-1.58,11.6.55,5.09,2.93,8.47,7.49,11.35,12.5q23.88,41.43,47.86,82.79c1.26,2.17,1.69,5.19,4.79,5.94.28,4.59,3.14,7.91,5.67,11.38l.27,1.73Z" />
    <path class="rabota7-6"
      d="M368.89,258.39c2.63-.54,2.3-2.61,2.3-4.49,0-30,.36-60-.19-90-.18-9.83-6-17.9-14-23.44A160.67,160.67,0,0,0,334.28,127c-1.66-.78-3.07-1.37-4.81-.75.14-3.72,1.88-5.06,4.82-3.4,8.89,5,18,9.81,26.43,15.47a30.24,30.24,0,0,1,13.95,26c.17,21.45,0,42.91.06,64.36,0,2-.78,4.19.87,6l-.12,15.4c-1.89,3.72-.42,7.72-1,11.55Z" />
    <path class="rabota7-10"
      d="M290.21,488.23c-3.6-10,.94-19.74,10.8-23.3,4.25-1.54,10.68.86,12.3,5a81.1,81.1,0,0,0,4.5,10.07c1.56,2.84-1,4.47-2,6.54-1.81-.31-1.56,2-2.94,2.3C305.22,492.26,297.69,491.11,290.21,488.23Zm17.14-15.44,5.44-2.05c-2.75-.93-4.39.07-5.56,1.91l-1.43.55a3.46,3.46,0,0,0,.3.39C306.53,473.34,306.94,473.07,307.35,472.79Z" />
    <path class="rabota7-8"
      d="M351.77,300.48a24.23,24.23,0,0,0-4-.07c-6.63,1-12.33-.49-16.64-5.94,1.7-6.08,6.93-10,9.4-15.65,4.33-2.61,8.42-6.84,13.71-1.55,2.85,2.85,5.37,5.92,6.55,9.79,2.6,8.54,1.08,10.85-7.69,12.45C352.62,299.6,352.21,300.15,351.77,300.48ZM342.52,293a2.83,2.83,0,0,0-2.79-2.75c-1.46-.09-2.56.39-2.65,2.09s.55,3,2.33,3.22S342.14,294.81,342.52,293Z" />
    <path class="rabota7-6"
      d="M350.73,264.86c-.23-2.45-2.52-1.79-3.86-2.58-17.15-10.18-34.43-20.15-51.56-30.36-8.17-4.87-15.95-10.69-24.94-14.23-3.15-1.25-6.37-.2-9.53-.61,4.54-4.22,9-4.19,14.38-1,12.3,7.43,24.91,14.33,37.38,21.47q16.14,9.22,32.26,18.48c1.46.84,2.84,2,4.68,1.88,1.37,2.09,3.87,2.43,5.76,3.72-.93,2-3.05,2.52-4.65,3.69Z" />
    <path class="rabota7-13"
      d="M407.19,429.44l2.82-.18q-2.91,28.55-5.81,57.09c-1.89,18.85-3.72,37.7-5.61,56.55-.17,1.69-.55,3.37-.84,5-1.4,2.2,1.72,6.78-3.64,6.9q2.25-21.75,4.51-43.49Q402.9,470.4,407.19,429.44Z" />
    <path class="rabota7-13"
      d="M361.48,525.23l-3.05-.1c2-25.84,3.62-51.72,6.09-77.51,1.45-15.21,2.69-30.5,5.65-45.54,1,1.25,2,2.5,3,3.74-1.55.69-1.29,2.25-1.44,3.43-2.93,23.87-5.56,47.77-7.27,71.76C363.37,495.74,362.46,510.49,361.48,525.23Z" />
    <path class="rabota7-4"
      d="M555.91,182.92c.16-3,3.11-2.94,4.79-4.12,5-3.47,5.51-6.16,1.88-12.37-2.56-4.38-6.55-5.66-11-3.27-1.82,1-3.43,2.3-5.68,2-.52-5-.66-9.83,5.32-11.92,11.23-2.08,19.81,11.9,20.73,20.56a77.63,77.63,0,0,1-.07,9C565.7,187.93,563.57,187.94,555.91,182.92Z" />
    <path class="rabota7-10"
      d="M314.12,520.52c-3.3,5.49-6,6.1-11.61,3.46-2.75-1.29-5.07-3.85-8.52-3.5,0-1.65-1.45-1.88-2.48-2.6-4.83-3.39-5.07-11.6-.53-15.94,0,3.58,2.57,5,5.33,6.28,8.38,3.55,11.32,2.9,15.67-3.47,2.34.06,3.58,2.75,6,2.52C317.42,511.89,313.06,515.41,314.12,520.52Z" />
    <path class="rabota7-7"
      d="M375.48,250l.12-15.4,24.15-14c-4.29,11-10.43,21.08-15.38,31.75-1.17,2.5-2.45,2.52-4.18.55C378.94,251.52,377.57,250.16,375.48,250Z" />
    <path class="rabota7-14"
      d="M351.77,300.48c.44-.33.85-.88,1.34-1,8.77-1.6,10.29-3.91,7.69-12.45-1.18-3.87-3.7-6.94-6.55-9.79-5.29-5.29-9.38-1.06-13.71,1.55a20.31,20.31,0,0,1,1-9l9.22-4.94-.08.51c1.32,2.85,4.06,4.39,6.25,6.33,7.56,6.72,12.52,14.4,11,25-.23,1.61.65,2.48,2.27,2.58-1.48,1.33-4.08,1.71-3.9,4.49-4-.43-8.09.83-11.94-1-.48-1.13-1.48-1.19-2.5-1.22A7.67,7.67,0,0,0,351.77,300.48Z" />
    <path class="rabota7-15"
      d="M269.48,628.71q.15-10.2.31-20.4c3.09-1.16,7-1.22,7.86-5.51,3,.94,5.89-2.91,8.85,0q.09,8.94.19,17.86c-4.5.83-7.78,4.08-11.78,5.91C273.14,627.33,271.79,629.22,269.48,628.71Z" />
    <path class="rabota7-11"
      d="M296.31,508.22c-2.76-1.26-5.3-2.7-5.32-6.27-.42-1.85-.83-3.71-1.24-5.56,1.05-2.67.53-5.43.46-8.16,7.48,2.88,15,4,22.67.65C309.76,504.71,308.58,507.11,296.31,508.22Z" />
    <path class="rabota7-16"
      d="M528.42,115.25c1.69.92,1.45,2,.24,3.12-14,1.84-28.12,3.61-42.17,5.53-18.93,2.59-37.85,5.29-56.78,7.95-1-.79-1.41-1.64-.23-2.64,20.79-3,41.57-6,62.37-9C504,118.49,516.23,116.9,528.42,115.25Z" />
    <path class="rabota7-16"
      d="M428.24,641.65a2.42,2.42,0,0,1,1.2-2.34q11.13,6.27,22.25,12.56L499,678.76c0,1.2.06,2.44-1.36,3Z" />
    <path class="rabota7-17"
      d="M283.38,518.38A77.53,77.53,0,0,1,289,548.64a9.49,9.49,0,0,1-1.17,4.78c-5-3.68-3.49-9.77-4.87-14.61-3.39-11.85-4.15-24.1-.33-36.23.52-1.64,1.21-2.21,2.79-1.86a6.19,6.19,0,0,0-1.36,5.1A32.25,32.25,0,0,1,283.38,518.38Z" />
    <path class="rabota7-13"
      d="M369.14,716.65c1.48.24,2.94.59,4.43.7,9.62.69,11.57-1.15,11.64-10.71,0-4.51.2-9,.31-13.48,0,1.53.2,3.05.1,4.55-.17,2.36.32,3.22,3.12,3,4-.36,6.64,1.61,7.87,5.8,1.17,4-.66,6-3.65,7.85-3.83,2.35-6.9,6-11.74,6.59S372.16,720.93,369.14,716.65Z" />
    <path class="rabota7-16"
      d="M351.82,301.55c1,0,2,.09,2.5,1.22q-16.06,32-32.14,63.94c-1,1.91-2.24,3.53-4.58,3.84q13.54-27.14,27.09-54.3C347.11,311.38,349.45,306.45,351.82,301.55Z" />
    <path class="rabota7-16"
      d="M531.3,626.88l3.42-.06-23.3,55.76c-1.9-2.07-.52-4.61-1-6.9C518.5,659.89,524.38,643.16,531.3,626.88Z" />
    <path class="rabota7-13"
      d="M342.59,703.36c.19,0,.37-.06.56-.07,14.14-.71,14.14-.71,13.58-14.7a8.68,8.68,0,0,1,.26-1.66c2.58-1.53,5-.65,7.48.4,1.33,4.25,2.43,8.52,1.55,13,0,.28,0,.6,0,.93l.16-.07c-2-1.32-2.08-1.43-5.59.8C354.82,705.66,349,707.9,342.59,703.36Z" />
    <path class="rabota7-13"
      d="M410.94,421.39c-2.09-2.77-.43-6.15-1.45-9.09,1.55-15.71,5.11-31.08,7.66-46.62,2.86,1.13,2.43,3.59,2.06,5.74-1,5.68-2.22,11.32-3.36,17Q413.41,404.9,410.94,421.39Z" />
    <path class="rabota7-13"
      d="M290.7,648.52c3,0,6.09.06,9.11-.14,4.12-.28,6.32-2.74,5.71-6.77A86.55,86.55,0,0,1,305,632a12.71,12.71,0,0,1,8,.51c.94,4.16,2.4,8.32,0,12.47-4.76,2.09-8.59,6.38-14.41,6C295.72,650.77,292.86,650.8,290.7,648.52Z" />
    <path class="rabota7-18"
      d="M296.31,508.22c12.27-1.11,13.45-3.51,16.57-19.34,1.38-.26,1.13-2.61,2.94-2.3-.15,2.92-.83,5.87.33,8.75,1.84,4.56-3.74,5.85-4.17,9.42C307.63,511.12,304.69,511.77,296.31,508.22Z" />
    <path class="rabota7-13"
      d="M337,645.66a106,106,0,0,1,.11,16.81c-7.43,5.31-11.58,5.52-18.28.9,1.51,0,3-.1,4.52-.12,8-.06,10.41-2.4,10.53-10.42,0-2.26-.2-4.55.83-6.68Z" />
    <path class="rabota7-2"
      d="M283.38,518.38a32.25,32.25,0,0,0,.63-12.56,6.19,6.19,0,0,1,1.36-5.1c.12-2.8,1.25-4.58,4.38-4.33.41,1.85.82,3.71,1.24,5.56-4.55,4.33-4.31,12.54.52,15.93,1,.72,2.47,1,2.48,2.6C290.05,521.84,286.92,519.07,283.38,518.38Z" />
    <path class="rabota7-13"
      d="M286.81,566.4c11.4,7.56,23.17,7.3,35.18,1.66.91-.43,1.58-1.83,2.76-.45l-.54,2.13c-12.45,6.46-24.88,6.64-37.29-.15l-.85-1Z" />
    <path class="rabota7-6"
      d="M377.68,646.84c-3.08-5.07-1.6-10.68-1.86-16.08-.14-2.88.45-6.23-4.39-4.27a1.53,1.53,0,0,1-2.22-1c-.09-.45.19-1.38.47-1.45,8.76-2.23,5.46-9.38,6.11-14.9a19.11,19.11,0,0,0,0-2.27c1.76,9,.86,18,1.15,27.06C377.07,638.2,377.42,642.52,377.68,646.84Z" />
    <path class="rabota7-18"
      d="M314.12,520.52c-1.06-5.11,3.3-8.63,3.89-13.25,2.75-.09,4.13,3.8,7.28,2.51-2.19,2.7-4.26,5.51-7.09,7.6C316.61,518.12,316.44,520.72,314.12,520.52Z" />
    <path class="rabota7-18"
      d="M394.11,554.84c5.36-.12,2.24-4.7,3.64-6.9,2.76,3.56,5.87,6.92,6.36,11.71-4-.26-8-2.79-12.08-.19Z" />
    <path class="rabota7-12"
      d="M540.9,69.79c-3.77,0-7.63,1-11.22-1-.57-5.58,3.61-4.49,6.67-4.55C540,64.15,542,65.82,540.9,69.79Z" />
    <path class="rabota7-12"
      d="M429,88c-3.78,0-7.65,1-11.25-1-.22-5.54,3.89-4.45,7-4.43C428.24,82.62,430.09,84.29,429,88Z" />
    <path class="rabota7-18"
      d="M341.86,479.56c.14-4,4-5,6.16-7.29,1.2-1.29,3,0,3.55,1.42a42.6,42.6,0,0,1,1.57,5.87C349.38,477.59,345.62,475.74,341.86,479.56Z" />
    <path class="rabota7-17"
      d="M341.86,479.56c3.76-3.82,7.52-2,11.28,0,2.45,1.3,2.45,3.42,1.9,5.72-3.42-5.16-8-5.7-13.34-3.41C341.75,481.1,341.81,480.33,341.86,479.56Z" />
    <path class="rabota7-1"
      d="M364.33,256.1c-2.53-3.47-5.39-6.79-5.67-11.38.09-1.47,1.74-1.37,2.33-2.34C362.54,246.85,364.72,251.16,364.33,256.1Z" />
    <path class="rabota7-14"
      d="M335.88,554.69c.29,3.95-.61,7.77-1.31,11.61C331.23,561.91,331.86,556.31,335.88,554.69Z" />
    <path class="rabota7-6"
      d="M338.05,621c1.8.87,3.31,2.23,5.39,2.68.9.19,3,.82,1.76,2.59-.61.89-2.2,2.22-3.23.8s-3.87-.86-4.05-3.32C338,622.85,338,621.93,338.05,621Z" />
    <path class="rabota7-16" d="M535.63,626.63l.9-.06-.44.11Z" />
    <path class="rabota7-7"
      d="M393.52,279.93c4-.15,1.62-2.75,1.25-4-2.89-9.41-2.91-9.3,5.46-14.06,11.68-6.62,23.34-13.27,34.89-20.11,8.36-4.95,10.07-9.87,7.16-19.43-2.62-8.63-8.48-15.57-12.52-23.47-2.41-4.7-5.26-9.19-8-13.74-.77-1.3-2.09-2.54-.28-3.88,2-1.51,3,0,4,1.52.82,1.25,1.83,2.37,2.76,3.54.29,2.75,2.11,4.59,3.84,6.48-.05,1.84,1.19,3.1,2,4.58,4.38,8.11,9.89,15.63,12.8,24.52a17.49,17.49,0,0,1-.85,11.36c-1.63,3.75-.72,6.26,1.31,9,.7,2.74,1.74,5.44,2,8.22.42,4.38,2.62,4.85,6.42,4.28,14.37-2.16,28.79-4,43.19-6l0,2.73q-20.81,2.9-41.62,5.78c-4.22.57-8.42.91-7.59,7.06a6.25,6.25,0,0,1-1.52,4.2c-2.81,3.44-.55,4.7,2.14,6.25,9.85,5.66,19.63,11.45,29.44,17.19-3.88,1.24-7-2.12-10.66-1.85-5.67-6-13.5-8.57-20.28-12.81-6.47-4.06-13-1.44-16.21,6.1-2.82.53-5.89,2-8.42,1.41-9-2.26-17.93-4.12-27.23-3.84-1.31,0-2.62-.07-3.93-.16-.07,0-.13-.49-.12-.76C393,280,393.33,280,393.52,279.93Z" />
    <path class="rabota7-14"
      d="M432.11,192.81c-1.73-1.89-3.55-3.73-3.84-6.48l1.16-1.15c6.73-.66,11.09-6,16.83-8.63,9.12-4.24,17.06-10.77,26.65-14.21,4.37,2.19,9.23,3.63,12.28,7.88-3.8,1.91-7.69,3.67-11,6.6,9.63,8.28,14.18,8.16,22.61-.29l2.15.1c0,1.14,0,2.27,0,3.41-1.85.92-3.75,1.75-5.54,2.77q-19.38,11-38.74,22.1C446.78,201.63,440.47,195.32,432.11,192.81Zm48.63-7.46c-.23-2.56-10.33-7.09-13-5.61-7.12,4-14.14,8.12-21.19,12.22-.95.55-2.18,1-2,2.45.36,2.37,10.68,6.79,12.93,5.52q10.39-5.87,20.76-11.83C479.38,187.47,480.82,187.07,480.74,185.35Z" />
    <path class="rabota7-8"
      d="M447.36,242.3c-2-2.77-2.94-5.28-1.31-9a17.49,17.49,0,0,0,.85-11.36l8.82-4.5,42-23.43c2.84,6.81.65,13.94,1.33,20.88-3.58-.3-6.06,2.29-9.07,3.47-1.08-.21-2.36-.11-3.19-.67-2.31-1.58-4.79-2.75-7.07-.72s-1.19,4.74,0,7.12L478,226.71c-1.83-.74-3.08-.13-3.85,1.64l-2.74,1.24-4.62-1.75c-2.13-.81-4.21-2.91-6.48-.36-2.41,2.71-.31,4.74,1.12,6.85C457.47,238.26,452.1,239.73,447.36,242.3Z" />
    <path class="rabota7-12"
      d="M499,377.87c-9.12,1.17-18.23,2.41-27.35,3.48-3.28.39-2.81,1.59-1.11,3.43,2.43,2.63,4.71,5.39,7.23,7.92,2.83,2.84,1.6,4.07-1.6,4.75Q439.94,358,403.71,318.56c-7.39-8-14-16.82-22.47-23.83a6.6,6.6,0,0,1,3.58-3.94c1.31,1.6,2.69,3.16,3.92,4.81,2.76,3.69,5.64,5.83,9.39,1.14,1.1.41,2.65.07,3,1.79-.53,2.5-8,1.25-3.68,6.18,6.28,7.21,13,14.06,19.48,21.06,2,2.1,3.21,5.13,6.69,5.37.11,1.87.05,3.82,2.33,4.59a4.2,4.2,0,0,0,3.06,2.54c7,10.17,17.09,17.81,24.15,27.83,7.83,11.11,17.11,15,30.19,10.83,5-1.6,10.45-1.64,15.7-2.39C499,375.65,499,376.76,499,377.87Z" />
    <path class="rabota7-7"
      d="M497.68,194l-42,23.43c-2.41-4-.78-8.32-1-12.5q19.36-11.06,38.74-22.1c1.79-1,3.69-1.85,5.54-2.77C498.46,184.67,500.36,189.54,497.68,194Z" />
    <path class="rabota7-12"
      d="M511.63,167.05c6.88-14.55,13.5-29.21,18.26-44.63.7-.86,1.39-1.74,2.12-2.58a1.85,1.85,0,0,1,2.52-.48c1,.67.42,1.64.07,2.51-1.6,4-3.18,8-4.78,12-1.2.59-1.35,1.64-1.2,2.81l.06-.07c-2.43,2.75-3.64,6.27-4.44,9.6-2.15,8.92-11.64,16.25-5.83,27,1,1.91.19,4.82.22,7.27-1.56,3.59-5.2,4.23-8.2,5.78C510.65,179.88,509.89,173.38,511.63,167.05Z" />
    <path class="rabota7-16"
      d="M429.44,514.92,499,554.72c0,1.22,0,2.45,0,3.68l-69.42-39.81Q427.24,516.83,429.44,514.92Z" />
    <path class="rabota7-16"
      d="M499,176.63l-2.15-.1a24.38,24.38,0,0,0-11.64-6.31c-3.05-4.25-7.91-5.69-12.28-7.88q-21.21-13.47-43.5-25.09c-.54-1.2-1.68-2.42.12-3.54q21.11,12,42.2,23.93c1.79,1,3.7,1.82,5.55,2.73,4.19,3,8.29,6.22,13.63,7,.63,2.4,3,2.7,4.71,3.55C498.11,172.16,499.48,173.77,499,176.63Z" />
    <path class="rabota7-16"
      d="M430.77,452Q461.85,469.85,493,487.7c2,1.12,4.05,2,6.08,3l0,3.85-69.41-39.85C427.5,452.71,429.26,452.4,430.77,452Z" />
    <path class="rabota7-16"
      d="M429.58,577.53c17.2,9.79,34.38,19.65,51.63,29.36,5.89,3.32,11.45,7.28,17.82,9.73l-.06,3.64q-29.31-16.69-58.64-33.39c-3.58-2-6.89-4.6-10.93-5.78C428.83,579.87,427.68,578.62,429.58,577.53Z" />
    <path class="rabota7-16"
      d="M499,370,435,333.05c-1.79-1-3.65-1.93-5.48-2.89-1.91-1.19-.41-2.39,0-3.59q31.53,18.1,63.06,36.19c2.13,1.22,4.35,2.29,6.53,3.43C499,367.45,499,368.71,499,370Z" />
    <path class="rabota7-16"
      d="M499,440.32,429.42,450l0-3.29q31.42-4.35,62.84-8.7c2.25-.32,4.51-.55,6.76-.82C499,438.25,499,439.29,499,440.32Z" />
    <path class="rabota7-16"
      d="M499,504.2c-22.12,2.85-44.26,5.6-66.22,9.56a21.48,21.48,0,0,1-3.41.07v-3.41q27.21-3.71,54.44-7.4c5-.68,10.09-1.28,15.14-1.91C499,502.14,499,503.17,499,504.2Z" />
    <path class="rabota7-16"
      d="M499,628.14q-32,4.47-64,9c-1.87.26-3.72.71-5.57,1.08v-3.43q30.55-4.25,61.11-8.48c2.81-.39,5.63-.66,8.45-1Z" />
    <path class="rabota7-16"
      d="M499,566.22q-30.56,4.28-61.12,8.53c-2.81.39-5.62.72-8.44,1.07,0-.93,0-1.86,0-2.8q31.13-4.47,62.24-8.94c2.42-.34,4.87-.49,7.3-.73Z" />
    <path class="rabota7-14"
      d="M490.91,167.38c-5.34-.79-9.44-4-13.63-7,1.63-4.1,6.26-3.8,9-6.09,3.74-3.19,6.37-1.15,9.45.63.9.52,2.16.4,3.25.57C501.15,162.75,494.26,163.87,490.91,167.38Z" />
    <path class="rabota7-16"
      d="M528.79,390.75q-7.74,18.45-15.52,36.88c-.8,1.88-1.87,3.64-2.82,5.45,0-2.76,0-5.53,0-8.29,6.26-10.76,9.71-22.76,14.93-34a60.85,60.85,0,0,0,4.57-15c2,.36,2.77-3.55,4.78-1.62,1.76,1.69-.38,3.46-1,5.1C532.11,383.13,530.43,386.93,528.79,390.75Z" />
    <path class="rabota7-16"
      d="M529.76,578.08c-7.22,13.8-12.15,28.6-18.47,42.79-1.76-2.36-.39-5.08-.88-7.59,7.6-16,15.49-31.82,19.59-49.18,1.61.31,2.38-2.69,3.83-1.39s.53,3.15-.1,4.77C532.37,571,531.08,574.55,529.76,578.08Z" />
    <path class="rabota7-16"
      d="M529.81,264.06c-5.17,7.77-7.52,16.82-11.34,25.2-2.52,5.51-4.73,11.17-7.07,16.76-1.86-2.11-.56-4.65-.95-6.95,7.43-16.28,15.65-32.24,19.54-49.9,1.64.24,3.21-2.2,4.64-.62s-.74,3-1,4.52C532.86,256.92,529.61,259.9,529.81,264.06Z" />
    <path class="rabota7-16"
      d="M529,328.13,511.38,369.9c-1.81-2.13-.55-4.67-.93-7,7.37-16.28,15.66-32.2,19.49-49.86,1.67.27,3.23-2.18,4.65-.72s-.41,3-1,4.48C532.13,320.61,530.52,324.36,529,328.13Z" />
    <path class="rabota7-16"
      d="M529.8,452.39c-6.16,10.44-9.5,22.13-14.6,33-1.36,2.92-2.5,5.93-3.74,8.9-2-2-.57-4.49-1-6.71,7.43-16,15.17-31.85,19.6-49,1.92.3,2.63-3.66,4.58-1.71,1.42,1.42-.36,3.43-.94,5.1C532.45,445.48,531.1,448.92,529.8,452.39Z" />
    <path class="rabota7-16"
      d="M529,516.41c-5.18,12.4-10.32,24.81-15.55,37.18-.79,1.88-1.11,4.07-3,5.38q0-3.81,0-7.62c7.42-15.93,15.19-31.72,19.53-48.88,1.94.32,2.64-3.61,4.59-1.77,1.51,1.43-.23,3.46-.88,5.08C532.24,509.38,530.56,512.87,529,516.41Z" />
    <path class="rabota7-16"
      d="M461.49,406.8c12.4,7.3,24.63,14.9,37.52,21.36l0,3.72-40-22.95C459,407.28,459.8,406.51,461.49,406.8Z" />
    <path class="rabota7-16"
      d="M511.63,233.16l13.85-32.93c1.26-1.48,1.92-3.65,4.34-3.83-.29,1.31-.58,2.62-.86,3.94q-8.78,20.9-17.54,41.79c-1.89-1.94-.55-4.37-1-6.53C511.57,235.15,511.68,234.19,511.63,233.16Z" />
    <path class="rabota7-16"
      d="M478,226.71l21,11.92,0,3.59-24.86-13.87C474.93,226.58,476.18,226,478,226.71Z" />
    <path class="rabota7-12"
      d="M499.4,133.68c-1.22-5.26,3.05-5.15,5.88-5.2s6.46.63,5.06,5.31C506.67,135.47,503,134.72,499.4,133.68Z" />
    <path class="rabota7-16"
      d="M510.43,498.93c6.53-.2,12.92-1.44,19.34-2.54.17,1.31,1.68,2.66-.1,3.92-6.57-.56-12.86,1.14-19.22,2.27C510.44,501.36,510.44,500.15,510.43,498.93Z" />
    <path class="rabota7-16"
      d="M510.45,623.15l19.34-2.36c0,1.11,0,2.22.05,3.34l-19.38,2.18C510.46,625.26,510.45,624.21,510.45,623.15Z" />
    <path class="rabota7-16"
      d="M510.45,310.53l19.33-2.44c0,1.26,0,2.53,0,3.8-6.58-.8-12.88,1.48-19.36,1.75C510.46,312.6,510.45,311.57,510.45,310.53Z" />
    <path class="rabota7-16"
      d="M511.45,372.85l18.35-3.06c0,1.34,0,2.69,0,4-6.59-.55-12.88,1.46-19.32,2.16Z" />
    <path class="rabota7-16"
      d="M510.44,246.66c6.55-.09,12.91-1.56,19.34-2.54,0,1.29,0,2.59,0,3.88-6.57-.69-12.87,1.55-19.35,1.77Z" />
    <path class="rabota7-12"
      d="M510.43,435c6.58.17,12.95-1.35,19.37-2.45v3.92c-6.62-.79-12.92,1.35-19.37,2.05Z" />
    <path class="rabota7-16" d="M510.46,561.46l17.95-2.39a3,3,0,0,1,1.36,3.08l-19.3,2.24Z" />
    <path class="rabota7-16"
      d="M499,306.07l-13.54-7.8c0-1,0-2,0-3L499,302.47C499,303.67,499,304.87,499,306.07Z" />
    <path class="rabota7-16"
      d="M485.36,314.29,499,312.73v2.82l-13.6,2C485.37,316.45,485.36,315.37,485.36,314.29Z" />
    <path class="rabota7-8"
      d="M511.63,233.16c.05,1-.06,2-1.2,2.44.07-.88.13-1.76.2-2.64C511,233,511.3,233.08,511.63,233.16Z" />
    <path class="rabota7-8"
      d="M384.82,290.79a6.6,6.6,0,0,0-3.58,3.94,7.3,7.3,0,0,0-5.53,2.13l-5.55,2.46c-1.62-.1-2.5-1-2.27-2.58,1.53-10.64-3.43-18.32-11-25-2.19-1.94-4.93-3.48-6.25-6.33,1.6-1.17,3.72-1.68,4.65-3.69a5.77,5.77,0,0,0,4.52-2.39l4.78-1.46,4.29.56,5.61,3.19a49.39,49.39,0,0,1,10.74,17.47l.09,3.53Z" />
    <path class="rabota7-13"
      d="M382.87,321.3c1.54-3.28,1.76-6.86,2.37-10.35,3,.4,1.69,2.78,2.05,4.4q-1.16,5.07-2.3,10.16Z" />
    <path class="rabota7-6"
      d="M385.33,282.58l-.09-3.53c2.77.22,5.65-.64,8.28.88-.19.05-.52.09-.52.14,0,.27.05.76.12.76,1.31.09,2.62.19,3.93.16,9.3-.28,18.25,1.58,27.23,3.84,2.53.63,5.6-.88,8.42-1.41A2.37,2.37,0,0,0,435,286c11.38,1.42,22.61,4,34.15,4.12,3.71-.27,6.78,3.09,10.66,1.85,2.06.79,4.93.14,5.67,3.24,0,1,0,2,0,3a70.93,70.93,0,0,0-.12,16c0,1.08,0,2.16,0,3.24-.12,2.59-.11,5.21-.39,7.79-.47,4.23-1.73,8-6.44,9.45-.83-2.76,2.37-4,2.32-6.71-.2-9.84-.05-19.69-.06-29.54,0-1.72-.07-4-2.4-3.65-6.19,1-11.66-2.48-17.65-2.41-7.18.08-14.15-1.86-21.15-2.9-15-2.23-29.89-5.16-45-6.13-2.94-.18-5.72-3.49-8.84-.66Z" />
    <path class="rabota7-17"
      d="M363.37,559.41c2.88,1.06,5.84,2,8,4.29-5.92,2.24-4.57,8.49-6.42,12.75-2.21,5.1-5.59,4.31-8.56,3.21a83.06,83.06,0,0,1-14-7.27c-4.78-2.92-4.59-12.74.09-15.34,3.2,6.48,5.68,7.16,14.75,4C360.06,563.21,361.7,561.26,363.37,559.41Z" />
    <path class="rabota7-6"
      d="M356.93,625.56c2.13,1.1,7.08-2.07,7.12,2.11,0,4.5-5,1.91-7.77,2.56a6.71,6.71,0,0,1-2.82,0c-1.77-.35-4.83,1.1-4.68-2.23.13-2.87,2.89-2.34,4.92-2.39C354.64,625.54,355.59,625.56,356.93,625.56Z" />
    <path class="rabota7-15"
      d="M286.8,583.12a8.46,8.46,0,0,1-1.47,4.9c-3.08,0-4.7,3.2-7.64,3.5-2.55.55-5.37.74-5.43,4.38l-.23,5.77c-3-5.48-5.56-11.07-5.94-17.43a141.42,141.42,0,0,1,19.58-11.19C287,576.3,286.23,579.79,286.8,583.12Z" />
    <path class="rabota7-14"
      d="M285.67,573.05a141.42,141.42,0,0,0-19.58,11.19c-2.8-1.77-1.81-2.88.51-4.2,6.54-3.71,13-7.59,19.47-11.4l.85,1C286.5,570.74,286.08,571.9,285.67,573.05Z" />
    <path class="rabota7-15"
      d="M309.5,607.07l-5.87,2.64c-2.28-5,2.18-8.85,2.45-13.41A38.44,38.44,0,0,1,309.5,607.07Z" />
    <path class="rabota7-19"
      d="M286.07,568.64c-6.48,3.81-12.93,7.69-19.47,11.4-2.32,1.32-3.31,2.43-.51,4.2.38,6.36,3,12,5.94,17.43,1.58,1.72,3.46,1.73,5.48,1l.14.16c-.9,4.29-4.77,4.35-7.86,5.51-2.79-8.39-5.48-16.81-8.42-25.13-1-2.78-.69-5,1.81-6.35,7.74-4.13,14.85-9.44,23.14-12.56.16.71.33,1.41.49,2.12C286.56,567.14,286.32,567.89,286.07,568.64Z" />
    <path class="rabota7-8" d="M528.62,136.69c-.15-1.17,0-2.22,1.2-2.81Z" />
    <path class="rabota7-17"
      d="M277.69,591.52c2.94-.3,4.56-3.5,7.64-3.5.29,1.87.59,3.75.88,5.62-.41.09-.82.2-1.24.31-1.9-.52-3-.12-2.56,2.16l-.1-.09c-2.25.73-4.49,1.24-6.75.07l-.28-.27C275,593.78,277.65,593.38,277.69,591.52Z" />
    <path class="rabota7-19"
      d="M285,594c.42-.11.83-.22,1.24-.31a27.66,27.66,0,0,1,.29,9.12c-3-2.87-5.9,1-8.85,0l-.14-.16c1.24-1.62,3.38-2.56,3.73-4.87l1.07-1.75.1.09C283.89,596.13,285,595.67,285,594Z" />
    <path class="rabota7-18"
      d="M363.37,559.41c-1.67,1.85-3.31,3.8-6.07,1.67,5.07-3.39,5.09-9.3,7-14.25.32-.83.09-1.89,1.23-2.26,2.61,3.73,3.27,7.57.11,11.26C364.71,557,363.23,557.62,363.37,559.41Z" />
    <path class="rabota7-17"
      d="M373.44,570.31c3.36,1.69,2.14,4.19,1.44,6.59-2-1.92-1.16-4.34-1.44-6.57Z" />
    <path class="rabota7-17"
      d="M375.29,580.82c-.13.32-.27.63-.4.94-.31-.14-.8-.2-.89-.43s.22-.6.35-.92Z" />
    <path class="rabota7-17" d="M307.23,472.65c1.17-1.84,2.81-2.84,5.56-1.91l-5.44,2.05Z" />
    <path class="rabota7-17" d="M307.35,472.79c-.41.28-.82.55-1.25.8a3.46,3.46,0,0,1-.3-.39l1.43-.55Z" />
    <path class="rabota7-20"
      d="M342.52,293c-.38,1.81-1.34,2.82-3.11,2.56s-2.41-1.53-2.33-3.22,1.19-2.18,2.65-2.09A2.83,2.83,0,0,1,342.52,293Z" />
    <path class="rabota7-1"
      d="M454.72,204.91c.22,4.18-1.41,8.5,1,12.5l-8.82,4.5c-2.91-8.89-8.42-16.41-12.8-24.52-.8-1.48-2-2.74-2-4.58C440.47,195.32,446.78,201.63,454.72,204.91Z" />
    <path class="rabota7-5"
      d="M385.74,282.77c3.12-2.83,5.9.48,8.84.66,15.14,1,30,3.9,45,6.13,7,1,14,3,21.15,2.9,6-.07,11.46,3.37,17.65,2.41,2.33-.37,2.4,1.93,2.4,3.65,0,9.85-.14,19.7.06,29.54.05,2.7-3.15,3.95-2.32,6.71-4.29,4-8.81,2.55-13.08.2-6.79-3.74-13.4-7.8-20.08-11.72l-5.49-3.05c-3.53-1.75-6.54-4.46-10.42-5.53-.81-1-1.58-2-3.11-1.55a14.57,14.57,0,0,0-8.35-4.85,58.92,58.92,0,0,0-16.93-9.74c-.31-1.72-1.86-1.38-2.95-1.78,0-1.88-1.87-1.46-2.73-2.23C391.62,291.09,384.26,290.54,385.74,282.77Z" />
    <path class="rabota7-1"
      d="M429.45,326.57c-.39,1.2-1.89,2.4,0,3.59-.17,2.7-.33,5.41-.5,8.11a4.2,4.2,0,0,1-3.06-2.54q1.71-9.12,3.4-18.26c0,1.53.07,3.06.11,4.59-.12,1.81,1.15,2.29,2.54,2.65Z" />
    <path class="rabota7-12"
      d="M432,324.71c-1.39-.36-2.66-.84-2.54-2.65a27.19,27.19,0,0,0,10.48-1.86l5.49,3.05Z" />
    <path class="rabota7-2"
      d="M480.74,185.35c.08,1.72-1.36,2.12-2.46,2.75q-10.36,5.94-20.76,11.83c-2.25,1.27-12.57-3.15-12.93-5.52-.22-1.45,1-1.9,2-2.45,7.05-4.1,14.07-8.25,21.19-12.22C470.41,178.26,480.51,182.79,480.74,185.35Z" />
    <path class="rabota7-1"
      d="M485.19,170.22a24.38,24.38,0,0,1,11.64,6.31c-8.43,8.45-13,8.57-22.61.29C477.5,173.89,481.39,172.13,485.19,170.22Z" />
    <path class="rabota7-14"
      d="M490.87,227.55c-4.18.32-6.73-4.62-11.17-3.49-1.21-2.38-2.36-5.05,0-7.12s4.76-.86,7.07.72c.83.56,2.11.46,3.19.67l2.25,4.45Z" />
    <path class="rabota7-14"
      d="M471.47,237.84c-3.9.42-6.11-4-10-3.51-1.43-2.11-3.53-4.14-1.12-6.85,2.27-2.55,4.35-.45,6.48.36l4.62,1.75,1.35,2.49Q472.11,235,471.47,237.84Z" />
    <path class="rabota7-8"
      d="M471.47,237.84q.64-2.88,1.3-5.76c2.35.37,4.68,1.28,3.82,4.06C475.94,238.23,474.06,240,471.47,237.84Z" />
    <path class="rabota7-2"
      d="M416.89,325.77c.89-5.8-.86-11.77,1.13-17.5a14.57,14.57,0,0,1,8.35,4.85l-2.79,18C420.1,330.9,418.87,327.87,416.89,325.77Z" />
    <path class="rabota7-1"
      d="M385.74,282.77c-1.48,7.77,5.88,8.32,9.67,11.75.86.77,2.73.35,2.73,2.23-3.76,4.68-6.64,2.54-9.4-1.15-1.23-1.65-2.61-3.21-3.92-4.81l.51-8.21Z" />
    <path class="rabota7-13"
      d="M423.58,331.14l2.79-18c1.53-.46,2.3.58,3.11,1.54-.06.94-.11,1.87-.17,2.81q-1.69,9.13-3.4,18.26C423.63,335,423.69,333,423.58,331.14Z" />
    <path class="rabota7-8"
      d="M490.87,227.55l1.32-4.77c1.48.06,3.17-.16,3.38,2a4.18,4.18,0,0,1-2.38,4.15C491.72,229.79,491.24,228.7,490.87,227.55Z" />
    <path class="rabota7-10"
      d="M281.24,597.77c-.35,2.31-2.49,3.25-3.73,4.87-2,.76-3.9.75-5.48-1,.08-1.92.15-3.85.23-5.77l3-.08.27.27C276.64,599.36,279.16,597.81,281.24,597.77Z" />
    <path class="rabota7-18"
      d="M275.28,595.82l-3,.08c.06-3.64,2.88-3.83,5.43-4.38C277.65,593.38,275,593.78,275.28,595.82Z" />
    <path class="rabota7-18" d="M281.24,597.77c-2.08,0-4.6,1.59-5.69-1.68,2.27,1.17,4.51.66,6.76-.07Z" />
    <path class="rabota7-14" d="M285,594c0,1.72-1.08,2.18-2.56,2.16C282,593.83,283.07,593.43,285,594Z" />
  </g>
</svg>