<svg id="Layer_1" data-name="Layer 1" xmlns="http://www.w3.org/2000/svg" viewBox="0 0 772.43 772.43">
  <defs>
    <style>
      .rabota13-1 {
      fill: #047ffa;
      }

      .rabota13-2 {
      fill: #236bbc;
      }

      .rabota13-3 {
      fill: #ca2224;
      }

      .rabota13-4 {
      fill: #e76037;
      }

      .rabota13-5 {
      fill: #a09f9e;
      }

      .rabota13-6 {
      fill: #772121;
      }

      .rabota13-7 {
      fill: #dde0e4;
      }

      .rabota13-8 {
      fill: #6a6a6a;
      }

      .rabota13-9 {
      fill: #fbde0c;
      }

      .rabota13-10 {
      fill: #dca988;
      }

      .rabota13-11 {
      fill: #4d3838;
      }

      .rabota13-12 {
      fill: #3b2f30;
      }

      .rabota13-13 {
      fill: #d4d8dd;
      }

      .rabota13-14 {
      fill: #4481c6;
      }

      .rabota13-15 {
      fill: #2792fb;
      }

      .rabota13-16 {
      fill: #027ffb;
      }
    </style>
  </defs>
  <g>
    <path class="rabota13-1"
      d="M626,615.66a34.25,34.25,0,0,0-1.34,10.84,26.64,26.64,0,0,1-4.08,16.15c-1.46,0-2.25.49-1.82,2.09l0,0c-2.53-.49-4.89.43-7.33.75-8.69,1.16-17.32-3.58-16.93-13.57.16-4.14-.06-8.29-.1-12.43q.06-7,.13-14c1.88-1.9,1.84-4.27,1.63-6.69.58-2.26,1.17-4.52,1.75-6.79a11.19,11.19,0,0,0,.88-5.51,10.52,10.52,0,0,0,1.92-6.83c2.2-4.2,2.25-8.89,3-13.41q1.73-20.29,4.59-40.45c1.13-8,.16-16.21.14-24.34l.45-4.85c2.24.72,2.66,3.23,5,4.4a53.89,53.89,0,0,0,13,4.18c13.19,3,25.76,1.77,37.78-4.53,2.86-1.68,4.43-1.71,4.09,2.47a115.53,115.53,0,0,0-.07,13.42,6,6,0,0,1-2.52,5.59c-4.34,2.82-8.66,5.47-13.93,6.78-4.42,1.1-10.37-.37-12.82,5.83-.84,2.13-.54,4.2-1,6.27a1.56,1.56,0,0,0-1.69,1.38c-.92,4.35-2,8.66-2.91,13-2.89,14.19-7.13,28.18-6.92,42.88C626.81,604.08,625.51,609.82,626,615.66Z" />
    <path class="rabota13-1"
      d="M615.52,403.17a1.72,1.72,0,0,0,2,1.1c1.19.73,2.45,1,3.34,2.55,2.89,4.91,4.17,10.37,5.78,15.68,1.88,6.22,4.8,8.53,11.09,6.81,8.45-2.3,15.73-7.15,23.25-11.45,2.57-1.48,5.33-3.19,5.62-6.22.7-7.4,1.3-14.94-4.61-21l1-8.19c.6.2,1.41.22,1.78.63,9.3,10.41,11.16,22.62,8.56,35.89a175.51,175.51,0,0,0-7.12,46.58c-.19,7,2.11,13.39,2.52,20.15,1.38,6.35-3.44,9.23-7.13,12.74a55.49,55.49,0,0,1-28.25,4c-9.32-1-18.69-2.57-24.72-11.16l-.15-6.46c.85-3.3.84-6.73,1.53-10.09a31.32,31.32,0,0,0-.54-14.54A46.67,46.67,0,0,1,608.45,443c5-2,8.62-5.34,10.26-10.61,2.94-9.45-.52-17.3-6.09-24.63C612.15,405.29,614.82,404.86,615.52,403.17Z" />
    <path class="rabota13-2"
      d="M661.65,498.48c3.69-3.51,8.51-6.39,7.13-12.74,1.72,7.16,1.59,14.58,1.27,21.72-.92,20.44-.07,40.87-.59,61.29-.36,14.28-.6,28.56-.92,42.85-.08,3.54-.73,6.89-3.8,9.23a2,2,0,0,0-2,1l.19-.12c-5.24,1.47-10.68,1.26-15.87.63s-8.52-4.51-8.52-9.85,2.53-10.37,2-15.76c.26-2.46.51-4.92.78-7.38,1.23-11.09,3.62-22.12.24-33.32-1.47-4.86-2-10-3-15,.41-2.07.11-4.14,1-6.27,2.45-6.2,8.4-4.73,12.82-5.83,5.27-1.31,9.59-4,13.93-6.78a6,6,0,0,0,2.52-5.59,115.53,115.53,0,0,1,.07-13.42c.34-4.18-1.23-4.15-4.09-2.47C666.09,496.56,662.57,499.35,661.65,498.48Z" />
    <path class="rabota13-3"
      d="M216.21,553.76c-.29,5.24-.35,10.41-3.32,15.22s-6.48,7.83-12.15,8.09c-2.61-1.3-3-4-4.09-6.31-3-6.43-4.62-14.27-13.6-15.54-1.78-.25-3.56-.47-5.34-.7-3.6-3.58-8.66-4.4-12.89-6.81-8-4.54-15.89-9.17-24.61-12.18-10.68-6.44-13.44-15.88-10.45-27.53a4.22,4.22,0,0,0-.2-1.45c1.23-.82,2.18-2.49,3.87-.19a11.54,11.54,0,0,0,4.87,4c8.51,3.14,17.26,5.22,26.46,4.14,3.85,1.28,1.93,4.48,2,6.77.29,7.31,3.21,11.46,10.28,13.42,1.27.36,1.89,1.26,2.74,2,3.65,3.15,6.63,2.34,9.06-1.8,1.8-3.07,1.66-6.47,2.55-10.69C200.51,534.15,211.3,541.41,216.21,553.76Z" />
    <path class="rabota13-4"
      d="M608.53,484.86l.15,6.45a.84.84,0,0,0,0,.84c-2.49.12-3-2.55-4.89-3.38l-12.31-10.09c-4.15-1.47-5.35,1.53-6.65,4.39-6.83,8.5-15.48,15.49-21,25.07-2.48,4.31-5.8,8.37-5.28,13.86-3,2.17-1.59,5.33-1.83,8.12-3.59,2.31-1.39,5.84-1.85,8.8-1.93,13.5-.41,26.79,2.55,40,2.77,12.29,8.34,23.76,10.9,36.05,1.26,6.07,2.07,11.59,8.7,13.92-.16,1.59-.33,3.17-.5,4.75l-6-2.59c-4.49,22-11,42.09-39.89,39.49l-9.82-6c-1.09-2.95-3.76-4.28-6.12-5.93a5.82,5.82,0,0,0-4-4c-1.67-3-3.79-5.43-7.42-6-.16-1.61-1.73-2-2.6-3-3.66-3.68-8.26-5.51-13.2-6.65a26.9,26.9,0,0,0-8.54-.38c-1.37-1.18-2.76.29-4.14,0l-.36-2.19c-.23-1.67-.14-3.11,2.09-3.23,3.05-.17,6.09-.38,9.14-.57,3.26-.3,5.75,2.52,9,2.23,3.46,3.35,8.12,4.86,11.86,7.77.12,1.64,1.81,2,2.54,3.2l6.65,6.45c1.49,1,2.49,2.94,4.71,2.76-.31,3.78,2.44,4.72,5.23,5.61a5.44,5.44,0,0,0,4.8,2.39c.32.55.49,1.36,1,1.61,5.38,2.91,10.59,1.69,15.63-.94,13.3-6.92,18.17-24,17.85-34.56a3.08,3.08,0,0,0-1.49-2.88c-11.26-7.09-22.34-14.64-36.63-13.47-1.79-.32-1.83-1.81-2.11-3.14,2-3.19,5.39-1.37,8.06-2.16,11.35,1.2,20.9,7.14,30.88,12.46a10.18,10.18,0,0,0-.49-5.55c-3.49-11-7.09-22-10.27-33.13-3.59-12.53-3.78-25.49-4.13-38.41l.16-7.42c1-2.83,2.43-5.59,1.87-8.76,3.83-13.75,10.34-25.94,20.59-36.05,3.27-3.22,6.77-6.32,8.81-10.59,1.76-1.32,3.05-2.9,2.93-5.28,2.49-.61,2.11-2.52,1.13-3.76-1.5-1.89-1.8-4.13-2.68-6.19-3.34-5.7-3.14-11.75-1.79-17.92l5.13,0c-1.8,6.55-1.53,12.75,3,19.45,1.66-7.18,2.82-13.27,2.28-19.57a10.88,10.88,0,0,1,6.07-1c-1.34,1.43-1.39,3.19-1.42,5-.06,4,.34,8.11-.56,11.92-2.08,8.78.84,14.87,9.41,17.93C604.23,483.24,606.81,483.56,608.53,484.86Z" />
    <path class="rabota13-3"
      d="M182.83,384.84a10.88,10.88,0,0,1,5.55.05c-.28,2.76,2.61,4.32,2.48,7.21-.53,11.63,1.14,23.15,2.07,34.7.36,13.25,2.62,26.42,1.81,39.72l-8,3.39q0-10.12-.08-20.27c.1-1.78,1-4.24-.42-5.16-1.76-1.14-3.6.91-5.24,1.84-5,2.84-9.74,6.21-14.93,8.64-4.06,1.91-6,4.3-5.11,8.73,0,6.43,0,12.86-.11,19.29-.05,3.1,1,4.21,4.15,3.24s6.62-2.1,10.16-1.36c-.26,1.44.43,3.36-1.93,3.71l-14.73-.16c-7-5.88-13.94-11.79-21-17.63a8.13,8.13,0,0,1-3.09-7c0-8.43,2.53-16.58,2.37-25,3.62.5,5-3.28,7.93-4.11,2.72,4.6,5.84,5.57,10.11,3.09q6.92-4,13.81-8a2.74,2.74,0,0,1,2.24-.58c4.68.08,9.29-.76,12.48-4.42,6.7-7.73,7.83-21.68-.63-29.14Z" />
    <path class="rabota13-5"
      d="M520.82,664.56l9.82,6c.82,3.76-.66,5.88-4.12,7.81-16.5,9.21-32.8,18.79-49.21,28.16-1.39.79-2.63,2.93-4.73,1.21.08-14.43.11-28.85.28-43.28,0-2.76-1.78-3.73-3.63-4.79q-13.77-7.89-27.6-15.72c-4.84-3.44-3-7.89-1.85-12.25a5.41,5.41,0,0,0,2.74,2.79c8.47,5,16.91,9.95,25.44,14.8,3,1.68,5.21,3.52,4.76,7.35-.57,4.75,1.7,3.89,4.51,2.28,7.78-4.47,15.61-8.86,23.43-13.28.87,1,2.44,1.39,2.59,3a37.35,37.35,0,0,1-3.16,2.34Q491.59,656,483,661c-3.72,2.14-2.76,6-1.74,8.32,1.24,2.79,3.66-.3,5.21-1.13,8.16-4.36,16.16-9,24.21-13.56a5.82,5.82,0,0,1,4,4c-4.76,2.72-9.53,5.42-14.27,8.17-5.9,3.42-11.8,6.83-17.63,10.34-3.61,2.17-2.52,6.06-1.43,8.44,1.21,2.63,3.38-.42,4.82-1.23C497.8,677.86,509.29,671.18,520.82,664.56Z" />
    <path class="rabota13-6"
      d="M216.21,553.76c-4.91-12.35-15.7-19.61-24.79-29.58-.89,4.22-.75,7.62-2.55,10.69-2.43,4.14-5.41,5-9.06,1.8-.85-.73-1.47-1.63-2.74-2-7.07-2-10-6.11-10.28-13.42-.1-2.29,1.82-5.49-2-6.77,1.91-3.95,3.5-.9,5.18.23-1.68,6.36-.87,12,4.45,16.54,1.13,1,2.23,1.76,3.51.94s.9-2.4.32-3.6a12.54,12.54,0,0,1-.48-10.6,11,11,0,0,0,1-5.31l1.82-.1c.67,5.85-.58,11.85.79,18.06,3.92-2.5,4.07-7.06,7.43-9.07,2.64,1.59,3.29-1.07,3.7-2.28,1-3,2.13-3,4.67-1.49,3.2,1.94,7,3,7.88,7.37.31,1.55,1.63,1.52,2.79,1.12,3.65-1.25,5.09-6,4.08-9.67-1.06-3.83-5.17-7.64-1.12-12,9,5,17.24,11.19,25.42,17.45,6.1,4.67,6.83,10.61,5.38,17.36a34.67,34.67,0,0,1-1.88,5.65c-3.07,7.64-4.37,8.5-12.52,8.59ZM188.11,527c-2.88,1.57-2.75,4.89-5.45,6.06-1.15.5-.25,1.82.25,2.57.91,1.34,1.45.21,2.24-.37C187.91,533.23,187.8,530.25,188.11,527Z" />
    <path class="rabota13-1"
      d="M136.78,438.81c.16,8.41-2.35,16.56-2.37,25a8.13,8.13,0,0,0,3.09,7c7,5.84,14,11.75,21,17.63-5.86,1.83-6.75,8.39-1.92,14-5.45.89-9.39-2.29-13.55-5-3.63-2.35-6.75-5.48-10.89-7-2-2.77-5.11-4.1-7.76-6-5.59-4-8.26-9.38-7.32-16.24,1.53-11.18,1.7-22.46,2.78-33.67.9-9.39,5.33-16.54,14.08-20.65,2.46,3.08,3.1,6.6,2.84,10.46-.19,2.77.05,5.57.09,8.35A12.67,12.67,0,0,0,136.78,438.81Z" />
    <path class="rabota13-7"
      d="M441.63,643.9q13.81,7.86,27.6,15.72c1.85,1.06,3.67,2,3.63,4.79-.17,14.43-.2,28.85-.28,43.28-3.5-.25-6.18-2.52-8.84-4.27-5.85-3.85-12.19-6.76-18.18-10.32-2.8-1.66-3.91-3.55-3.89-6.78C441.78,672.18,441.67,658,441.63,643.9Z" />
    <path class="rabota13-7"
      d="M407.89,520.6c-3.71.33-5.91-2.69-8.7-4.2-20.43-11.16-40.3-23.28-60.45-34.93-8.3-4.81-16.49-9.83-25-14.33-4-2.13-6.72-4.45-5-9.39a8.49,8.49,0,0,0,2.07-3.85q12.48-41.06,25.14-82c6.2-20.05,12.53-40.06,18.81-60.09l6.07,3.72a3.45,3.45,0,0,1-2.27,3.32c-.6.13-1.43-.05-1.34,1l-.32,1.93c-.49,1.21-1.07,2.4-1.46,3.65q-8.73,28.33-17.43,56.67-11.49,37.35-23,74.67c-1,3.27-1,5.36,2.66,7,4.53,2,8.72,4.84,13,7.33l73.93,42.55,1.06-1h0l4.14.09C409.18,515.32,408.53,518,407.89,520.6Z" />
    <path class="rabota13-8"
      d="M615.52,403.17c-.7,1.69-3.37,2.12-2.9,4.55a16.29,16.29,0,0,0-8.13,3.24c-1.18-1.64-.75-3.52-.75-5.31q0-41.81-.07-83.61c0-1.73.72-3.67-.83-5.19,2.34-7.6,4.32-15.34,7.14-22.76,1.72-4.5,1.44-9.85,5.37-13.47.11,2.64.32,5.29.32,7.93Q615.63,345.87,615.52,403.17Z" />
    <path class="rabota13-7"
      d="M302.94,460.6c-4.22-2.24-8.5-4.36-12.63-6.74-7.57-4.36-15.4-8.29-22.57-13.33-3.65-3-7.92-1.62-12-1.74-2-.55-4.28.82-6-1.11h12c-2-2.32-3.68-1.57-5-2.12-.06-2.06-1.92-2.61-3.2-3.35-5.61-3.27-11.34-6.34-17-9.48l-10.59-6.16c-4.36-2.24-8.14-5.58-13-6.79-.73-.85-1.3-2-2.23-2.49-4.52-2.17-5.24-6.33-5.85-10.6C215,363.86,225.4,331.08,235,298.06c4.05-13.95,8.63-27.76,13.07-41.61.43-1.32.41-3,2-3.8l1.69.24,1,5.86a1.8,1.8,0,0,0-.17.82,3.11,3.11,0,0,0-.78.26c-2.3.09-.48,1.64-.85,2.41-.5,4.66-2.31,9-3.67,13.4Q228.83,336.35,210.1,397c-.94,3-.81,4.6,2.35,6.2,6.36,3.22,12.43,7,18.61,10.62q33.87,19.62,67.72,39.26c.16.65.38,1.37,1.22,1.13s.72-1,.71-1.63l0,0c3.14-1.09,1.67,2.64,3.29,3.14-.11.66-.23,1.31-.34,2l-.66,1.39C303,459.59,302.94,460.09,302.94,460.6Z" />
    <path class="rabota13-7"
      d="M463.9,553.7c-15.72-9-31.38-18.17-47.19-27-4.58-2.56-1.9-6-2-9.14,2-2.77,2.48-6.1,3.44-9.24,10.26-33.67,20.42-67.37,30.74-101,3.44-11.22,7.25-22.32,10.88-33.48l3.94,1.07c-.29,1.56-2,2.8-1,4.64q-7.26,23.82-14.54,47.64-14,45.69-28,91.36c-.88,2.85-.39,4.3,2.31,5.79,9.89,5.46,19.62,11.21,29.41,16.86q27.43,15.83,54.89,31.59c1.13.64,2.82,3.51,4.09-.07l2.85,0h0l1.08,2.15c-.54,2-1.09,3.92-1.63,5.88a9.1,9.1,0,0,1-5.15-1.17c-3.82-2.47-7.88-4.56-11.84-6.8l-9.15-5.24-10.14-6.1Z" />
    <path class="rabota13-7"
      d="M254.88,247.87c-2.11-1.53-1.82-3.34-1.12-5.63,8.82-28.82,17.43-57.71,26.27-86.52,5.68-18.52,11.65-36.95,17.49-55.43.55-1.72.76-3.63,2.61-4.61l5.12,1.86a8.91,8.91,0,0,0-4.39,5.38c-.85,3.85-1.43,7.78-2.58,11.53q-19.17,62.62-38.56,125.19c-.91,2.93-.54,4.39,2.23,5.94,12.43,7,24.73,14.16,37.05,21.32q23.91,13.91,47.77,27.88c1.62,2.51,4.2,3.35,6.92,3.94a5.88,5.88,0,0,0-.79,4c-1.49.56-2.52-.45-3.65-1.1-25.5-14.73-50.95-29.53-76.52-44.13C266.87,254.15,261.46,249.91,254.88,247.87Z" />
    <path class="rabota13-9"
      d="M177.71,554.52c1.78.23,3.56.45,5.34.7,9,1.27,10.56,9.11,13.6,15.54,1.1,2.33,1.48,5,4.09,6.31-3.14,11.53-7.87,15.23-19.82,15.57-6.62.19-13.11.07-18.91-3.93-4.75-3.27-7.21-7.4-3.75-14.75.9-1.9,1.12-4.12,1.65-6.2,3.89-5.65,8.13-10.89,15.12-12.94Z" />
    <path class="rabota13-9"
      d="M624.51,365.58c-6.4-7-2.94-13.72.22-20.8,2.84-6.32,5.64-11.64,13.58-12.8,6.13-.89,15.58,2.24,18.57,7.78,2.1,3.87,3.7,8,5.89,11.82s1,7.3-.07,10.93c-3.68,2.94-7.33,5.9-12.29,6.36a30.73,30.73,0,0,0-15.76.06C631,368.73,627.94,366.54,624.51,365.58Z" />
    <path class="rabota13-1"
      d="M192.93,426.8c-.93-11.55-2.6-23.07-2.07-34.7.13-2.89-2.76-4.45-2.48-7.21,5.29-.24,8.4,3.18,11.29,6.84,1.22,1.55,2.17,3.31,3.24,5,.75,2.35,1.37,4.75,2.27,7.05,3,7.73,4.28,16,6.89,23.8,2.84,3,6.18,2,9.5,1.16l3.23-.11,11.57.08c.83,1.53,3.16,1.66,3.44,3.7-1.32.08-2.64.18-4,.24-4.58.19-6.48,2.72-5.12,7.15.42,1.39,1.41,2.6,1,4.18-1.36.21-1.84,1.19-2.09,2.37a8.66,8.66,0,0,0-5.52-.52,37.12,37.12,0,0,0-11.31-1.09,19.15,19.15,0,0,0-3.91-.66c-6.9.27-10.69-3.26-12.67-9.6C195.42,431.83,195,428.94,192.93,426.8Z" />
    <path class="rabota13-10"
      d="M182.83,384.84c0,3.6-.08,7.19-.11,10.79-3.58,2.05-7.07,4.3-10.76,6.11a11.64,11.64,0,0,1-17-10.51c0-5,.54-10.05-.33-15.21l-4.5,1.77c.9-3.31.25-6.93,2.36-10,4.75-7,13.9-7.2,21-3.49,6.33,3.29,10.24,8.36,9.25,16.09A31.94,31.94,0,0,0,182.83,384.84Z" />
    <path class="rabota13-8"
      d="M510.56,213.79c6.41-5,11.67-1.51,17.4,1.85,28.41,16.62,57,33,85.46,49.48,1.54.9,4,1.06,4.14,3.67-3.35.23-5.53,2.94-8.47,4-7.23-4.31-14.38-8.77-21.72-12.9-6.15-3.47-11.83-7.84-18.64-10.09Q557.57,243.4,546.41,237q-18.36-10.64-36.7-21.29C509.68,214.9,509.6,214.11,510.56,213.79Z" />
    <path class="rabota13-11"
      d="M650.41,368.87c5-.46,8.61-3.42,12.29-6.36q.09,7.44.19,14.86l.15,5.12c-.35,2.73-.69,5.46-1,8.19-.9,8.34-2.28,10.11-9.55,12.26-1.47-.19-2.94-.33-4.4-.59-8.71-1.51-14.83-5.67-16.71-15-.86-4.31-2.71-8.43-3.76-12.76-.53-2.19-.72-5-3.56-5.92-.23-1.09-.86-2.24.49-3.06,3.43,1,6.46,3.15,10.14,3.35A27.54,27.54,0,0,0,650.41,368.87Z" />
    <path class="rabota13-12"
      d="M459.81,373.78c-3.63,11.16-7.44,22.26-10.88,33.48-10.32,33.66-20.48,67.36-30.74,101-1,3.14-1.45,6.47-3.44,9.24-2.56.42-4.19,2.9-6.86,3.07.64-2.64,1.29-5.28,1.93-7.92a17.26,17.26,0,0,0,1-2.19q12.42-40.15,24.77-80.34c6.25-20.46,12.33-41,18.49-61.45,3-.51,5.09-3.28,8.23-3.5l-1.47,6.47A2,2,0,0,0,459.81,373.78Z" />
    <path class="rabota13-12"
      d="M510.56,213.79c-1,.32-.88,1.11-.85,1.88a11.14,11.14,0,0,0-.9,1.75c-13.69,44.59-27.43,89.16-40.91,133.8-1.44,4.78-3.1,8.88-7.54,11.41-.87-.3-1.68,1.28-2.59.1l1-5c1.3-1,.87-2.58,1.27-3.88l1.58-5.15a12.77,12.77,0,0,0,.86-1.79q17.12-55.69,34.15-111.41c2.48-8.19,5.77-16.17,7-24.72,3.45.51,5.43-2.76,8.47-3.31C511.62,209.56,511.09,211.68,510.56,213.79Z" />
    <path class="rabota13-11"
      d="M150.14,377.79l4.5-1.77c.87,5.16.32,10.21.33,15.21a11.64,11.64,0,0,0,17,10.51c3.69-1.81,7.18-4.06,10.76-6.11,8.46,7.46,7.33,21.41.63,29.14-3.19,3.66-7.8,4.5-12.48,4.42a2.74,2.74,0,0,0-2.24.58c-7.31-2.95-12.3-8.31-15.83-15.19-1-5.19-2.11-10.31-1.52-15.7.49-4.46,1.31-9.29-3.58-12.31C148.35,383.6,146.5,379.93,150.14,377.79Zm29.64,25.68c-2.37,1.18-4.79,1.33-5.48,3.82-.16.57,1,1.38,1.87,1.18C178.45,407.94,179.64,406.47,179.78,403.47Z" />
    <path class="rabota13-8"
      d="M512.14,207.45c-3,.55-5,3.82-8.47,3.31-6.59-2.41-12.27-6.52-18.3-9.95-23.26-13.2-46.42-26.58-69.62-39.89l-10-6.39.08-1.89c5.42-4.4,10-1.85,15.14,1.15,29.21,17.1,58.59,33.92,87.89,50.87C510.13,205.37,511.78,205.69,512.14,207.45Z" />
    <path class="rabota13-8"
      d="M305.25,97.54l-5.12-1.86c1.13-4.24,6.64-7.45,10-5.53q47.73,27.48,95.37,55.11c.22.13.25.57.38.87-1.2,3.28-4.21,3.8-7,4.63-15.3-8.7-30.59-17.44-45.92-26.1C337,115.66,321.5,106,305.25,97.54Z" />
    <path class="rabota13-9"
      d="M652.45,402.94c7.27-2.15,8.65-3.92,9.55-12.26,5.92,6,5.32,13.56,4.62,21-.29,3-3,4.74-5.62,6.22-7.52,4.3-14.8,9.15-23.25,11.45-6.29,1.72-9.21-.59-11.09-6.81-1.61-5.31-2.89-10.77-5.78-15.68-.89-1.52-2.15-1.82-3.34-2.55,2.45-3,6.26-3.82,9.42-5.68,2.9-.37,4.27,1.85,6.07,3.48C639.61,408.05,646.63,408.32,652.45,402.94Z" />
    <path class="rabota13-12"
      d="M398.83,150.76c2.81-.83,5.82-1.35,7-4.63,3.47,2.17-.66,4.34,0,6.51l-.08,1.89c-2.54-.13-2.29,2.15-2.7,3.49q-20.58,66.73-40.92,133.53c-1.37,4.52-2.8,8.64-7.09,11.12l-2.17.06a5.88,5.88,0,0,1,.79-4c.39-1.08.84-2.15,1.18-3.26q17.49-56.9,34.93-113.81C392.93,171.39,396.72,161.32,398.83,150.76Z" />
    <path class="rabota13-12"
      d="M303.62,457.7c.11-.66.23-1.31.34-2,.59-1.52,1.28-3,1.76-4.57q12-38.9,23.94-77.79,9.87-32.28,19.6-64.59c2.66-.86,4.55-3.68,7.79-3-.28,1.33-.55,2.65-.83,4l-1.41,2c-6.28,20-12.61,40-18.81,60.09q-12.67,41-25.14,82a8.49,8.49,0,0,1-2.07,3.85l-5.85,2.85c0-.51,0-1,0-1.51Z" />
    <path class="rabota13-8"
      d="M500.66,645.59c-7.82,4.42-15.65,8.81-23.43,13.28-2.81,1.61-5.08,2.47-4.51-2.28.45-3.83-1.81-5.67-4.76-7.35-8.53-4.85-17-9.84-25.44-14.8a5.41,5.41,0,0,1-2.74-2.79l11-6.17c.06,1.63.06,3.27.19,4.9.18,2.26,1.77,3.81,3.71,3.67,1.72-.13,3.85-1.16,4-3.57.1-2-.05-3.92-.09-5.88.43-1.23-.39-2.05-1-3,1.06-1.31,2.62-1.69,4.1-2.21l1.05.16c0,1.15,0,2.3,0,3.45-.14,2.26.3,3.72,3.14,3.69S469,625.15,469,623c-.06-1.47-.1-3-.14-4.42,0-1.08,0-2.17,0-3.25l3.81-2a31.68,31.68,0,0,1,.2,3.89c-.22,2.84,1.14,3.65,3.78,3.65s4.45-.64,4.1-3.82c-.17-1.45-.16-2.92-.23-4.38.75-1.74-1.85-2-1.57-3.5l3.92-1.55c.21,7.21.21,7.21,7.19,7.08a4.51,4.51,0,0,1,.95.22c-4.89,4.8-11.19,7.47-17.1,10.53-5,2.62-7.19,5.74-6,11.2a38.51,38.51,0,0,0-.08,3.87c.1,1.49-.69,3.55,1.55,4s4.63.6,5.49-2.39c1.45.2,2.56,2.36,4.31.74,3.2-.38,5.74-2.19,8.34-3.86C492.4,640.08,497,641.91,500.66,645.59Z" />
    <path class="rabota13-12"
      d="M609.09,272.81c2.94-1.08,5.12-3.79,8.47-4a34.45,34.45,0,0,0-2.21,11.83c-3.93,3.62-3.65,9-5.37,13.47-2.82,7.42-4.8,15.16-7.14,22.76-.5,1.74-1,3.47-1.51,5.21-3.11,10.86-7.15,21.45-9.61,32.51-1.81,5.13-5.21,9.88-3.81,15.78-1.46.7-1.14,2.17-1.44,3.36-1.87,1.14-2.08,3.23-2.67,5-1.31,4-2.12,8.16-4,12l-4.13-9.11c3.33-10.59,6.74-21.15,10-31.76Q597.42,311.35,609.09,272.81Z" />
    <path class="rabota13-8"
      d="M357.05,305.74c-3.24-.64-5.13,2.18-7.79,3-23-13.31-45.89-26.67-68.9-39.89-9.47-5.43-18.62-11.43-28.56-16l-1.69-.24c-.18-3.37,3.5-2.87,4.77-4.78,6.58,2,12,6.28,17.85,9.63,25.57,14.6,51,29.4,76.52,44.13,1.13.65,2.16,1.66,3.65,1.1l2.17-.06C356.18,303.4,359.07,303,357.05,305.74Z" />
    <path class="rabota13-3"
      d="M175,554.82c-7,2-11.23,7.29-15.12,12.94l-29.18-7.2c.05-3.1,0-6.2.17-9.3.2-4.55,1.75-8.44,5.86-10.92Z" />
    <path class="rabota13-11"
      d="M136.76,540.34c-4.11,2.48-5.66,6.37-5.86,10.92-.14,3.1-.12,6.2-.17,9.3-.83,1.6.71,1.72,1.47,2.3,4,3.08,3.82,4.55-.89,6.85a10.75,10.75,0,0,1-15.62-8.91c-.22-4.13-.18-8.3,0-12.44.28-6.07,3.85-10,8.9-12.84,1.81-1,3.08-.3,4.59.44,2.5,1.23,4.58,3.29,7.46,3.77A1.83,1.83,0,0,1,136.76,540.34Z" />
    <path class="rabota13-11"
      d="M576.53,633.61c.17-1.58.34-3.16.5-4.75,4-9.77,8.68-12.28,17.45-9.4,0,4.14.26,8.29.1,12.43-.39,10,8.24,14.73,16.93,13.57,2.44-.32,4.8-1.24,7.33-.75-.94,3.73-4.53,4.08-7.18,4.71-6.94,1.64-13.73,1.14-19.65-3.68C586.92,641.61,580.73,638.89,576.53,633.61Z" />
    <path class="rabota13-7"
      d="M472.58,613.23l-3.81,2-5.88.62c1.14-2.69.83-5.53.86-8.34q.19-18.63.37-37.27c4,.93,7.6,3,11.34,4.63q0,17,.08,33.94c-1.42.88-2.89,1.73-2.62,3.77A1,1,0,0,0,472.58,613.23Z" />
    <path class="rabota13-12"
      d="M640.52,596.74c.53,5.39-2,10.36-2,15.76s3.23,9.22,8.52,9.85,10.63.84,15.87-.63c-4.85,5.06-15.59,6.22-22.33,2.37-4.87-2.78-9.7-5.62-14.55-8.43-.52-5.84.78-11.58,1-17.37C631.25,595.54,635.81,595.48,640.52,596.74Z" />
    <path class="rabota13-1"
      d="M152.8,414.58c3.53,6.88,8.52,12.24,15.83,15.19q-6.9,4-13.81,8c-4.27,2.48-7.39,1.51-10.11-3.09l-.06-6c.52-6.64,1.17-13.31-4.2-18.62l6.11-3.49C146.31,411.11,148.76,413.46,152.8,414.58Z" />
    <path class="rabota13-3"
      d="M132.1,490.45c4.14,1.56,7.26,4.69,10.89,7,4.16,2.68,8.1,5.86,13.55,5,4.62.36,8.62,3.16,13.29,3.31l1.13,3c-1.2,1.71-3,1.65-4.84,1.84-7.24.75-14.31-.63-21.23-2.2-5.63-1.28-11.08-3.74-14.13-9.35C131.21,496.2,131.65,493.33,132.1,490.45Z" />
    <path class="rabota13-11"
      d="M210.79,504.61c-4,4.38.06,8.19,1.12,12,1,3.65-.43,8.42-4.08,9.67-1.16.4-2.48.43-2.79-1.12-.88-4.4-4.68-5.43-7.88-7.37-2.54-1.55-3.65-1.49-4.67,1.49-.41,1.21-1.06,3.87-3.7,2.28,0-.27,0-.53,0-.79.06-2.95-.39-6.37,3-7.67,3.2-1.24,6.48-.78,8.84,2.26a2.51,2.51,0,0,0,3,1c1.42-.52,1-1.85,1.25-2.93,1-4.85-3.13-8.94-2-13.8,1.38,0,.19-2.39,1.93-2.06,0,2.21.23,4.64,3.15,4.36,1.42-.14,1.13-2.3.9-3.39-.63-2.95-2.56-1.39-4.12-.87-.62-2,.92-2.19,2.13-2.12a6.12,6.12,0,0,0,4-1.09c-.35,2.09.76,3.12,2.44,4.23,1.89,1.24,4.62,1.42,5.54,4-2.35.24-3.82-1.82-5.9-2.28-.64-.8-1.65-1.74-2.37-.81A3.79,3.79,0,0,0,210.79,504.61Z" />
    <path class="rabota13-10"
      d="M652.45,402.94c-5.82,5.38-12.84,5.11-19.42-.87-1.8-1.63-3.17-3.85-6.07-3.48,3.47-2.32,3.64-4.56-.34-6.37-3.27-1.49-4-4-3.7-7.28.48-5.43.74-10.87,1.1-16.31,2.84,1,3,3.74,3.56,5.93,1,4.33,2.9,8.45,3.76,12.76,1.88,9.36,8,13.52,16.71,15C649.51,402.61,651,402.75,652.45,402.94Z" />
    <path class="rabota13-11"
      d="M130.76,499.07c3.05,5.61,8.5,8.07,14.13,9.35,6.92,1.57,14,2.95,21.23,2.2,1.86-.19,3.64-.13,4.84-1.84l2-.16c5.75-.06,6.55-1,5-6.14l1.1-1.56,1.77-.06c-.15,6.75.08,6.9,5.82,3.82a6.94,6.94,0,0,1,.9-.34c2.58,1.94-1.35,2.6-.81,4.13-1.87,1.66-5,1.49-6.19,4.12l-1.82.1c-3.15-.24-6.2-.06-8.81,2-1.68-1.13-3.27-4.18-5.18-.23-9.2,1.08-17.95-1-26.46-4.14a11.54,11.54,0,0,1-4.87-4c-1.69-2.3-2.64-.63-3.87.19A24.69,24.69,0,0,1,130.76,499.07Z" />
    <path class="rabota13-5"
      d="M236.25,462.37c1.26,12.91.23,25.86.56,38.79,0,1.67-1.07,2.27-2.26,2.92-2.91,1.6-5.8,3.23-8.7,4.85-2-1.29-.1-4.15-2.18-5.4a2,2,0,0,0,.13-.94l-.1,0c4.16-.56,5.08-4.05,5.78-7.15,1.42-6.28,2.17-12.71,3.47-19C233.92,471.73,233.55,466.68,236.25,462.37Z" />
    <path class="rabota13-9"
      d="M663,382.49l-.15-5.12c9.71,1.56,17.76,17.68,11.41,27.57-1.61,2.51-.74,5.46-.85,8.23-.07,2,0,3.92-.06,5.86,2.59-13.29.73-25.5-8.57-35.91C664.45,382.71,663.64,382.69,663,382.49Z" />
    <path class="rabota13-6"
      d="M136.76,540.34a1.83,1.83,0,0,0-.11-.61l3.56-4.2c8.72,3,16.65,7.64,24.61,12.18,4.23,2.41,9.29,3.23,12.89,6.81l-2.68.3Z" />
    <path class="rabota13-5"
      d="M475.45,574.92c-3.73-1.66-7.3-3.7-11.33-4.63-.94-3.16-.14-6.42-.52-9.61,0-.69,0-1.37,0-2.06v-1.94l0-1.06c.09-.64.19-1.28.29-1.92l13,7.67c-4,4.09-1.62,8.69-1.06,13.14A4,4,0,0,1,475.45,574.92Z" />
    <path class="rabota13-3"
      d="M140.45,410.12c5.37,5.31,4.72,12,4.2,18.62l-7.84,3.95c0-2.78-.28-5.58-.09-8.35.26-3.86-.38-7.38-2.84-10.46Z" />
    <path class="rabota13-10"
      d="M152.8,414.58c-4-1.12-6.49-3.47-6.24-7.95,1-4,1.23-7.82-.3-11.93-.94-2.51-1.39-5.84,1.44-8.13,4.89,3,4.07,7.85,3.58,12.31C150.69,404.27,151.84,409.39,152.8,414.58Z" />
    <path class="rabota13-11"
      d="M236.25,462.37c-2.7,4.31-2.33,9.36-3.3,14.08-1.3,6.32-2,12.75-3.47,19-.7,3.1-1.62,6.59-5.78,7.15.09-1.38,1.93-2,1.61-3.53,3.05-1.72,2.95-5,3.46-7.73,1.75-9.57,3.56-19.15,4.79-28.8.73-5.66,3.48-11,2.53-16.89,2.8-.52,1.85-3.8,3.69-5l1.08.08c-.19,2.07-2.13,3.58-1.87,5.79C236.72,451.57,236.41,457,236.25,462.37Z" />
    <path class="rabota13-10"
      d="M239,446.53c-.26-2.21,1.68-3.72,1.87-5.79l.2,0,11.76.06c.81,4.38-1.36,5.94-5.43,5.82C244.59,446.5,241.79,446.54,239,446.53Z" />
    <path class="rabota13-3"
      d="M458.51,624.6c0,2,.19,3.93.09,5.88-.12,2.41-2.25,3.44-4,3.57-1.94.14-3.53-1.41-3.71-3.67-.13-1.63-.13-3.27-.19-4.9a1.12,1.12,0,0,1,.46-.83A8.36,8.36,0,0,0,458.51,624.6Z" />
    <path class="rabota13-13"
      d="M223.67,503.53c2.08,1.25.18,4.11,2.18,5.4-4.14.43-12.16-4.82-12.91-8.47,2.08.46,3.55,2.52,5.9,2.28l-.08-.09C220.13,504.44,222,503.36,223.67,503.53Z" />
    <path class="rabota13-4"
      d="M458.51,624.6a8.36,8.36,0,0,1-7.32,0c.53-4.34,3.85-2.8,6.35-3C458.12,622.55,458.94,623.37,458.51,624.6Z" />
    <path class="rabota13-4"
      d="M462.89,615.9l5.88-.62c0,1.08,0,2.17,0,3.25a5.6,5.6,0,0,1-5.93.27c-.11-.14-.23-.27-.34-.39C462.65,617.57,462.77,616.73,462.89,615.9Z" />
    <path class="rabota13-8"
      d="M255.76,438.79c4.06.12,8.33-1.23,12,1.74a52,52,0,0,1-12-.11C255.72,439.88,255.74,439.33,255.76,438.79Z" />
    <path class="rabota13-12"
      d="M255.76,438.79c0,.54,0,1.09,0,1.63l-1.88-.12c-4.29-.66-8.57-1.53-12.77.4l-.2,0-1.08-.08c-.19-2.82,1.88-1.87,3.33-2,2-.23,4.27.89,5.88-1.21a3.6,3.6,0,0,0,.78.27C251.48,439.61,253.79,438.24,255.76,438.79Z" />
    <path class="rabota13-8" d="M241.06,440.7c4.2-1.93,8.48-1.06,12.77-.4l-1,.46Z" />
    <path class="rabota13-11"
      d="M618.8,644.74c-.43-1.6.36-2.14,1.82-2.09C620.52,643.79,620.46,645,618.8,644.74Z" />
    <path class="rabota13-7" d="M463.58,558.62c0,.69,0,1.37,0,2.06A1.17,1.17,0,0,1,463.58,558.62Z" />
    <path class="rabota13-12" d="M662.72,621.84a2,2,0,0,1,2-1C664.23,621.49,663.87,622.47,662.72,621.84Z" />
    <path class="rabota13-4"
      d="M462.68,619.6l-1.05-.16c.31-.34.61-.69.91-1,.11.12.23.25.34.39A7.19,7.19,0,0,0,462.68,619.6Z" />
    <path class="rabota13-7"
      d="M463.61,555.62l0,1.06a4.25,4.25,0,0,1-.28-.75C463.28,555.85,463.5,555.73,463.61,555.62Z" />
    <path class="rabota13-8"
      d="M591.73,518.66c-11.38,5.34-21.81,12.4-32.88,18.29-1.31.69-2.64,1.32-4,2,.46-3-1.74-6.49,1.85-8.8,9.27-5.21,18.45-10.57,27.83-15.58,8-4.28,15.38-9.81,24-13.08,0,8.13,1,16.38-.14,24.34q-2.86,20.19-4.59,40.45c-.06-9.84.65-19.68-.14-29.52V512.12A40,40,0,0,0,591.73,518.66Z" />
    <path class="rabota13-5"
      d="M608.53,501.46c-8.59,3.27-15.94,8.8-24,13.08-9.38,5-18.56,10.37-27.83,15.58.24-2.79-1.14-6,1.83-8.12,6.42-3.78,12.48-8.46,19.33-11.13,11.65-4.54,16.32-12.13,13.84-24.27-.09-2.64-.17-5.28-.26-7.92l12.31,10.09c-.83,4.06.52,6.58,4.93,6.92a4.22,4.22,0,0,1,.27.92Z" />
    <path class="rabota13-7"
      d="M603.66,536.73c.79,9.84.08,19.68.14,29.52-.76,4.52-.81,9.21-3,13.41-.42-.51-.74-1.32-1.27-1.49-7.77-2.53-8.21-8.48-7.89-15.37.47-10.12.25-20.26.32-30.4Z" />
    <path class="rabota13-4"
      d="M594.61,605.48c-4.55,1.68-9.18,3-14.06,1.8-6.78-1.61-11.51-7-11.4-12.69.11-5.24,4.68-10.29,11.28-11.57s12.83-.52,18.44,3.47A11.25,11.25,0,0,1,598,592c-5.38-4.93-11.72-5.17-18.31-3.47-2.67.69-4.79,2.32-5.1,5.37a6.76,6.76,0,0,0,4,7.24c6.42,3.26,12.1,1.12,17.61-2.36C596.45,601.21,596.49,603.58,594.61,605.48Z" />
    <path class="rabota13-11"
      d="M609,496.61a4.22,4.22,0,0,0-.27-.92c0-1.18,0-2.36,0-3.54a.84.84,0,0,1,0-.84c6,8.6,15.4,10.17,24.72,11.17a55.49,55.49,0,0,0,28.25-4c.92.87,4.44-1.92,3.07,2.18-12,6.3-24.59,7.49-37.78,4.53a53.89,53.89,0,0,1-13-4.18C611.64,499.84,611.22,497.33,609,496.61Z" />
    <path class="rabota13-9"
      d="M604.49,411a16.29,16.29,0,0,1,8.13-3.24c5.57,7.33,9,15.18,6.09,24.63-1.64,5.27-5.23,8.62-10.25,10.61l-4.94,1.58c-2.44.34-5-.38-7.29,1.18a10.88,10.88,0,0,0-6.07,1l-5.3.12-5.13,0c-3.12-2.27-3.9-5.73-5.07-9.15-1.93-5.65-1.08-11.89-4-17.28.71-4.44-1.28-8.45-2-12.65A6.91,6.91,0,0,0,570,403.8a45.53,45.53,0,0,1,4.8-4c2.61-1.67,5.21-2.31,6.29,1.8,1.64,6.55,3.16,13.13,5,19.63,1.67,6,2.08,6,6.53,2C597.88,420.39,599.5,414.05,604.49,411Z" />
    <path class="rabota13-8"
      d="M603.52,444.54l4.94-1.58a46.46,46.46,0,0,0,1.06,17.27,31.32,31.32,0,0,1,.54,14.54c-.69,3.36-.68,6.79-1.53,10.09-1.72-1.3-4.3-1.62-4.87-4.25Q603.6,462.58,603.52,444.54Z" />
    <path class="rabota13-7"
      d="M510.42,604.59c5.48,3.94,11.78.8,17.57,2,1.56.33,3.32-.45,4.73.81-2.67.79-6-1-8.06,2.16-4.41,1.4-8,4.28-11.87,6.67-9,5.57-18.66,9.93-27.14,16.3-3,.19-6.09.4-9.14.57-2.23.12-2.32,1.56-2.09,3.24a6.72,6.72,0,0,1-6.57.19c-1.22-5.46.93-8.58,6-11.2,5.91-3.06,12.21-5.73,17.1-10.53l-.08-.08C498.13,612.82,503.75,607.7,510.42,604.59Z" />
    <path class="rabota13-8"
      d="M526.73,613.65c6.81,3.68,8.36,9.71,3.8,14.88a153.3,153.3,0,0,0-24,14c-3.74-2.91-8.4-4.42-11.86-7.77,5.63-3.22,11.37-6.26,16.85-9.71S523,619.27,526.73,613.65Z" />
    <path class="rabota13-8"
      d="M520.82,664.56c-11.53,6.62-23,13.3-34.63,19.79-1.44.81-3.61,3.86-4.82,1.23-1.09-2.38-2.18-6.27,1.43-8.44,5.83-3.51,11.73-6.92,17.63-10.34,4.74-2.75,9.51-5.45,14.27-8.17C517.06,660.28,519.73,661.61,520.82,664.56Z" />
    <path class="rabota13-5"
      d="M506.52,642.55a153.3,153.3,0,0,1,24-14q0,17.21-.08,34.43a5.44,5.44,0,0,1-4.8-2.39c.19-8,.19-8-5.23-5.61-2.22.18-3.22-1.72-4.71-2.76,1.06-2.42,3.59-2.84,5.58-3.8,3.94-1.88,4.94-4.85,4.48-8.9-.26-2.29-.59-3-2.93-1.61-4.51,2.76-9.18,5.25-13.78,7.86C508.33,644.59,506.64,644.19,506.52,642.55Z" />
    <path class="rabota13-5"
      d="M603.52,444.54q.08,18,.14,36.07c-8.57-3.06-11.49-9.15-9.41-17.93.9-3.81.5-7.94.56-11.92,0-1.85.08-3.61,1.42-5C598.47,444.16,601.08,444.88,603.52,444.54Z" />
    <path class="rabota13-5"
      d="M526.73,613.65c-3.71,5.62-9.85,8.05-15.22,11.42s-11.22,6.49-16.85,9.71c-3.26.29-5.75-2.53-9-2.23,8.48-6.37,18.18-10.73,27.14-16.3,3.84-2.39,7.46-5.27,11.87-6.67.28,1.33.32,2.82,2.11,3.14A2.65,2.65,0,0,0,526.73,613.65Z" />
    <path class="rabota13-8"
      d="M510.68,654.58c-8.05,4.55-16.05,9.2-24.21,13.56-1.55.83-4,3.92-5.21,1.13-1-2.28-2-6.18,1.74-8.32q8.6-4.94,17.09-10a37.35,37.35,0,0,0,3.16-2.34C506.89,649.15,509,651.59,510.68,654.58Z" />
    <path class="rabota13-5"
      d="M559.94,453.57c6.14,2.32,11.35,6.36,17.14,9.34,1.43.73,2.66,1.94,4.44,1.83.88,2.06,1.18,4.3,2.68,6.19,1,1.24,1.36,3.15-1.14,3.77C575,469.5,567,464.16,558,460.55,557.66,458,558.65,455.72,559.94,453.57Z" />
    <path class="rabota13-8"
      d="M558,460.55c9,3.61,17,8.95,25.07,14.15.13,2.37-1.16,3.95-2.92,5.27-8.37-4.05-15.85-9.73-24.44-13.37A17.18,17.18,0,0,1,558,460.55Z" />
    <path class="rabota13-8"
      d="M548.71,542.79c-6.4,3.43-12.36,7.65-19.07,10.53a18.12,18.12,0,0,1,2.21-8.73l17-9.22Z" />
    <path class="rabota13-5"
      d="M548.87,535.37l-17,9.22c.24-3.55,2-6.65,3-10,5.92-1.45,10.22-6.13,15.93-8C551.3,529.78,549.91,532.54,548.87,535.37Z" />
    <path class="rabota13-8"
      d="M509.06,645.75c4.6-2.61,9.27-5.1,13.78-7.86,2.34-1.43,2.67-.68,2.93,1.61.46,4-.54,7-4.48,8.9-2,1-4.52,1.38-5.58,3.8Z" />
    <path class="rabota13-5"
      d="M467.85,636.55a6.72,6.72,0,0,0,6.57-.19l.36,2.18,0,3.52c-.86,3-3.23,2.88-5.49,2.39s-1.45-2.54-1.55-4A38.51,38.51,0,0,1,467.85,636.55Z" />
    <path class="rabota13-8"
      d="M591.73,486.6l-6.91-3.53c1.3-2.86,2.5-5.86,6.65-4.39C591.56,481.32,591.64,484,591.73,486.6Z" />
    <path class="rabota13-8"
      d="M520.42,655c5.42-2.39,5.42-2.39,5.23,5.61C522.86,659.68,520.11,658.74,520.42,655Z" />
    <path class="rabota13-5"
      d="M487.46,638.94c-2.6,1.67-5.14,3.48-8.34,3.86-.06-1.42-.13-2.83-.2-4.24A26.9,26.9,0,0,1,487.46,638.94Z" />
    <path class="rabota13-8"
      d="M608.67,492.15c0,1.18,0,2.36,0,3.54-4.41-.34-5.76-2.86-4.93-6.92C605.62,489.6,606.18,492.27,608.67,492.15Z" />
    <path class="rabota13-13"
      d="M478.92,638.56c.07,1.41.14,2.82.2,4.24-1.75,1.62-2.86-.54-4.31-.74l0-3.52C476.16,638.85,477.55,637.38,478.92,638.56Z" />
    <path class="rabota13-6"
      d="M175.12,484.86c-3.54-.74-6.88.37-10.16,1.36s-4.2-.14-4.15-3.24c.12-6.43.08-12.86.11-19.29,2.6-1.43,5.2-2.88,7.81-4.3q8.94-4.89,17.89-9.75,0,10.14.08,20.27c-1,1.34-3.28.94-3.85,2.85-1.26.4-1.47,1.58-2,2.56C178.94,478.52,178.12,482.35,175.12,484.86Z" />
    <path class="rabota13-10"
      d="M179.08,500.92c-.37.52-.73,1-1.11,1.56l-1.36,1.18c-.71.13-1.63-.13-1.84,1v-.11c-1.73.08-3.55-.17-4.94,1.25-4.67-.15-8.67-2.95-13.29-3.31-4.83-5.66-3.94-12.22,1.92-14l14.73.16c-.29,1.92-1.41,4.09,1.56,5C176.54,495.82,179.44,497.41,179.08,500.92Z" />
    <path class="rabota13-4"
      d="M186.62,449.64q-9,4.88-17.89,9.75c-2.61,1.42-5.21,2.87-7.81,4.3C160,459.26,162,456.87,166,455c5.19-2.43,9.92-5.8,14.93-8.64,1.64-.93,3.48-3,5.24-1.84C187.62,445.4,186.72,447.86,186.62,449.64Z" />
    <path class="rabota13-1"
      d="M174.75,493.56c-3-.9-1.85-3.07-1.56-5,2.36-.35,1.67-2.27,1.93-3.71,3-2.51,3.82-6.34,5.68-9.54.58-1,.79-2.16,2-2.56l3.81,1.07a10.22,10.22,0,0,0-2,2.71A78.46,78.46,0,0,1,174.75,493.56Z" />
    <path class="rabota13-14"
      d="M186.66,473.83l-3.81-1.07c.57-1.91,2.85-1.51,3.85-2.85l8-3.39a36.27,36.27,0,0,0,5-2.08c1.82-1.1,2.67.15,3.73,1.09,1.55,1.37-.43,2-.65,3-.32-2.23-1.52-1.48-2.79-.89C195.56,469.74,191.11,471.78,186.66,473.83Z" />
    <path class="rabota13-6"
      d="M136.81,432.69l7.84-3.95.06,6c-2.92.83-4.31,4.61-7.93,4.11A12.67,12.67,0,0,1,136.81,432.69Z" />
    <path class="rabota13-3"
      d="M169.94,514.72c2.61-2.09,5.66-2.27,8.81-2a11,11,0,0,1-1,5.31,12.54,12.54,0,0,0,.48,10.6c.58,1.2,1.06,2.71-.32,3.6s-2.38,0-3.51-.94C169.07,526.74,168.26,521.08,169.94,514.72Z" />
    <path class="rabota13-3"
      d="M180.57,512.59c1.23-2.63,4.32-2.46,6.19-4.12,3.09.79,2,2.37,1.09,4.34-1.25,2.71-2.54,5.69.9,8,0,.26,0,.52,0,.79-3.36,2-3.51,6.57-7.43,9.07C180,524.44,181.24,518.44,180.57,512.59Z" />
    <path class="rabota13-3"
      d="M188.11,527c-.31,3.22-.2,6.2-3,8.26-.79.58-1.33,1.71-2.24.37-.5-.75-1.4-2.07-.25-2.57C185.36,531.92,185.23,528.6,188.11,527Z" />
    <path class="rabota13-14"
      d="M404.66,513.61l-73.93-42.55c-4.32-2.49-8.51-5.28-13-7.33-3.64-1.65-3.68-3.74-2.66-7q11.61-37.31,23-74.67,8.71-28.33,17.43-56.67c.39-1.25,1-2.44,1.46-3.65l1.75,3,0,2.88c-3.42,2.93-1.79,7.59-3.86,11.09-4.19,7.05-2.42,16.13-7.61,23a3.21,3.21,0,0,0,.84,4.8c4.91,2.8,9.71,5.78,14.75,8.38,2.77,1.43,4.08,1.13,5.41-3.26.54,4.86.69,8.14,4.5,9.1,0,2.24.18,4.43,2.05,6.05,0,1,0,1.92,0,2.88-.56.58-1.48,1.09-1.63,1.77-2.44,11.21-7.15,21.72-10.07,32.78-.52,1.93-1.33,4.71.75,6,7.64,4.83,15.42,9.45,24,12.49h1c.34,2.67.68,5.33,1,8-2,2.11-.75,5-2.14,7.48-3.65,6.37-3.05,14.15-6.54,20.78-1.1,2.08-2.58,4.75-2.45,7.8.18,4.23.91,6.59,4.27,9.16a111.8,111.8,0,0,0,15.72,9.82c2.38,1.27,3.63.67,5.09-.91.12,1.4,1,1.88,2.29,2q-.18,2.88-.34,5.78h0Zm-85.91-57c-.27,2.28.78,3.17,2.73,4.5,2.55,1.75,6,.64,8,3.34,3,4,7.88,5.13,11.84,7.65,1.2.77,2.67.91,3.25-.84,2.11-6.41,4.5-12.76,6.08-19.3,1.32-5.49,2.32-11.06,4.47-16.29,1.53-3.74,0-8.17-4.05-8.76-6.22-.92-10.36-5.27-15.23-8.34-3.88-2.43-5.93-1.69-7.11,3-1.51,6-3.8,11.72-5.31,17.68S319.39,450.6,318.75,456.62Zm52.12-69.57c-.2-2,.23-3.62-1.77-4.29-7.52-2.51-13.11-8.52-20.47-11.37-2.12-.82-3.37-1-3.94,1.65-1.46,6.79-4.21,13.25-6.42,19.76-2,5.94-2.87,12-4.58,17.92-.29,1-.26,1.37.66,1.89,7.23,4,14,8.94,21.49,12.52,2.2,1.05,2.28.72,3.3-1.21,2.36-4.48,2.36-9.75,4.29-13.93,2.28-5,3.19-10.2,5-15.19C369.33,392.21,371.56,389.64,370.87,387.05Zm-22.41,85.43c.12,2,.23,3.88,2.1,4.89,2.8,1.51,5.62,3.95,8.07,4.75,3.94,1.28,6.58,4.1,10,5.78,4.24,2.07,3.88,2.6,5.34-1.34s3.6-7.75,4.61-11.82c1.86-7.4,2.65-15.16,6.3-21.94,2-3.73.27-5.74-2.27-7-6.36-3.26-12.39-7.06-18.6-10.56-2.42-1.37-4.31-1-5.56,2.88-1.83,5.8-3.12,11.77-5.26,17.5C351.18,461.05,350,466.84,348.46,472.48Z" />
    <path class="rabota13-2"
      d="M374.76,386.76c-1.87-1.62-2-3.81-2.05-6.05l.06-2c2.29-7.27,4.61-14.52,6.84-21.81,1.41-4.63,2.1-9.57,4.16-13.87,1.93-4.05.86-6.15-2.53-8q-10.32-5.75-20.63-11.51c-1.54-.86-1.58.34-1.91,1.23l-1.75-3c.1-.64.21-1.28.32-1.93l1.54-.14,1.76.37c.66,2,2.5,2.3,4.17,2.82,9,6.11,18.67,11.13,28.09,16.47,17.32,9.82,34.42,20.05,51.9,29.6,3.33,1.82,3.64,3.54,2.57,7-10.39,33.41-20.51,66.9-30.88,100.31-3.19,10.29-5.75,20.81-10.4,30.61-1.26-.1-2.17-.58-2.29-2,0-.7,0-1.41,0-2.12,1-2.19,2.49-4.3,2.89-6.6,1.49-8.5,5.43-16.25,6.93-24.8.89-5.05,1.26-7.77-3.58-10.06-6.62-3.13-12.95-6.71-19.24-10.41l-1-.13c-.35-2.67-.69-5.33-1-8a28.69,28.69,0,0,1,3.1-13.61c4-8.29,5-17.42,8.68-25.72a1.84,1.84,0,0,0-1-2.48C391.23,396.29,383.59,390.48,374.76,386.76Zm50,23.92c-1.28,1.38,4.36,2.8,0,4.16-6.2-2.37-11.16-7-17.63-9.12-3.14-1-3.62-.53-4.38,2.06-2.87,9.89-4.46,20.16-9.36,29.45-3.08,5.83-2.39,10.44,1.82,12,7.11,2.7,13.06,7.37,19.78,10.69,1.52.75,3.4,1.21,3.44-.81.05-2.7,1.54-4.67,2.39-6.9,2.33-6.1,3.35-12.56,5.43-18.74,1.6-4.79,4.37-9.46,4.22-14.81-.47-2.47,1.63-4,2.28-6,2-8.16,3.61-16.48,7.15-24.13a37.32,37.32,0,0,0,2.39-9.11c.5-2.74,3.62-6.73-1.19-9.17-6.38-3.25-12.52-7-18.86-10.32-4.47-2.37-4.44.76-5.44,3-1.76,4-1.94,8.39-3.57,12.49a198.4,198.4,0,0,0-6.32,19.43c-.79,2.79-.44,5.81,2.54,7.38C414.62,405,419.3,408.59,424.8,410.68Zm-48.17-30.25c-.13,2.2.49,3.34,2.71,4.6,6.51,3.71,13.94,5.73,19.68,10.85,1.46,1.29,2.67,1.1,3.85-1,2.28-4.09,2.21-8.75,3.77-13,2.69-7.35,3.92-15.26,6.95-22.44,1.63-3.86.28-5.08-2.24-6.64-4.9-3-10.12-5.4-14.71-9-4.89-3.84-8.39-2.19-9.91,3.71s-3.59,11.78-5.41,17.66C379.75,370.24,378.2,375.33,376.63,380.43Z" />
    <path class="rabota13-13"
      d="M406,506.81c4.65-9.8,7.21-20.32,10.4-30.61,10.37-33.41,20.49-66.9,30.88-100.31,1.07-3.43.76-5.15-2.57-7-17.48-9.55-34.58-19.78-51.9-29.6-9.42-5.34-19.1-10.36-28.09-16.47-.74-1.91-.58-5.13-4.17-2.82l-1.76-.37a4.29,4.29,0,0,0-.2-.86,3.45,3.45,0,0,0,2.27-3.32c10.24,5.79,20.5,11.54,30.7,17.37q31.28,17.89,62.51,35.85c-6.16,20.48-12.24,41-18.49,61.45q-12.27,40.2-24.77,80.34a17.26,17.26,0,0,1-1,2.19l-4.14-.09Q405.85,509.7,406,506.81Z" />
    <path class="rabota13-8"
      d="M454.09,368.7q-31.24-17.93-62.51-35.85c-10.2-5.83-20.46-11.58-30.7-17.37l-6.07-3.72,1.41-2c3.67-1.75,6.75-.55,10.08,1.39q42.94,25,86.06,49.79c1.64.94,3.14,2.65,5.41,1.83.91,1.18,1.72-.4,2.59-.1.53.95,2.13,1.08,2,2.56C459.18,365.42,457.12,368.19,454.09,368.7Z" />
    <path class="rabota13-14"
      d="M358.61,318.8a4.29,4.29,0,0,1,.2.86l-1.54.14C357.18,318.75,358,318.93,358.61,318.8Z" />
    <path class="rabota13-13" d="M404.66,513.61l1.06-1Z" />
    <path class="rabota13-5"
      d="M604.49,411c-5,3.09-6.61,9.43-11.87,12.25.93-6.33,1.72-12.67,2.82-19,1.87-10.71-.06-20.82-4.4-30.61,1.61-6.31.45-12.72.68-19.08,2.46-11.05,6.5-21.64,9.61-32.5.49-1.74,1-3.47,1.51-5.21,1.55,1.52.82,3.46.83,5.19q.08,41.81.07,83.61C603.74,407.44,603.31,409.32,604.49,411Z" />
    <path class="rabota13-14"
      d="M298.78,453.06q-33.86-19.63-67.72-39.26c-6.18-3.59-12.25-7.4-18.61-10.62-3.16-1.6-3.29-3.19-2.35-6.2q18.75-60.63,37.25-121.34c1.36-4.42,3.17-8.74,3.67-13.4a2.89,2.89,0,0,0,.85-2.41,3.11,3.11,0,0,1,.78-.26l.18,5.25c.65,5.1-1.74,9.49-3.22,14.12-2.36,7.37-4.69,14.77-6.69,22.25-.66,2.46-.65,4.95,3.06,6.16,2.26.73,4.52,2.47,6.69,3.94,4.55,3.09,8.91,6.64,14.17,8.6a11.55,11.55,0,0,1,2,6.92c0,.31,0,.62,0,.93-.59,2.34-1.15,5.35-.88,7,.58,3.62-3.26,4-3.23,6.7.08,6-3.19,11.13-4.79,16.68-1.71,6-1.2,7.54,2.22,11.75,3.62,4.47,8.83,6.26,13,9.74,1.6,1.34,4.74,3.19,7.64,1.19a2.67,2.67,0,0,1,.93.15c-.6,3.9,1.27,7.56,1.05,11.43-.06,2-1.74,3.33-2.21,5.36-1.37,5.93-3.66,11.64-5.28,17.52-1.25,4.53-2.91,8.91-4.31,13.37-.76,2.41-1,5.05,2.91,6.65a61.83,61.83,0,0,1,11.44,6.47c3.27,2.24,6.89,5.14,11.5,4.9,1.53.9.35,3,1.77,4l0,1.94,0,0Zm-48.14-80.54c-.28-.65,1.11-2.89-1.48-3.74-7.29-2.41-12.31-8.72-19.9-11-4-1.24-4.54-.13-5.4,2.77-1.46,5-3.46,9.81-4.43,14.85-1.3,6.8-4.62,12.86-6.25,19.49-.32,1.29-.82,2.8.7,3.56,6.13,3.06,11.2,7.9,17.61,10.47,3.13,1.26,5.81,6.1,8.4-1.68s6-15,6.94-23.09c.18-1.55.3-2.94,1.63-4C250.66,378.44,251.17,376.09,250.64,372.52Zm-22-25.84c-.29,3.09,1.3,6.54,3.12,7.41,6.37,3,12.05,7.1,18.24,10.32,1.37.71,3.78,1.23,4.61-1.28,1.47-4.45,2.67-9,4.17-13.44,2.64-7.8,3.07-16.3,7.44-23.57a2.07,2.07,0,0,0-.92-3.27c-7.14-3.87-14.15-8-21.39-11.69-2.18-1.11-4.45-1.33-5.3,2.66-1.29,6.08-4,11.85-5.45,17.9C232,336.81,229.83,341.59,228.67,346.68Zm26.66,26.17c-.44,2.85-.31,5.31-1.23,7.3-2.14,4.62-3.09,9.74-5.47,14.14-2.52,4.64-.44,10.33-3.9,14.46-3.69,4.4-.58,7.22,2.48,9.2,6.78,4.4,14,8.2,21,12.25,2.45-7.84,4.32-15.6,7.36-22.87,2-4.74,2.3-9.85,4.29-14.4,1.84-4.21.77-6.29-3-8.27C269.78,381,262.22,378.19,255.33,372.85Z" />
    <path class="rabota13-2"
      d="M252.83,264.82l-.18-5.25a1.8,1.8,0,0,1,.17-.82c1.63.83,3.3,1.58,4.87,2.49,27.08,15.63,54.1,31.38,81.29,46.81,4,2.27,4.61,4.27,3.28,8.48-8.09,25.64-15.84,51.4-23.78,77.09-5.89,19-11.89,38-17.84,57-1.42-.94-.24-3.06-1.77-4,0-1.33,0-2.66,0-4,2.85-3.07,2.37-7.32,3.83-10.92,2.42-6,3.81-12.31,6-18.35,2.64-7.21,2.81-7.14-3.71-11.59a21.34,21.34,0,0,0-2-1.51c-5.54-3-10.52-7.24-17.19-7.7l-1-.23c.22-3.86-1.65-7.52-1.05-11.42,1-2.89,2.09-5.75,3-8.66,2.7-8.33,4.29-17,7.66-25.12,1.54-3.72,1.28-8.25-4-9.87-2.11-.65-3.63-2.23-5.46-3.23a82.84,82.84,0,0,0-16.07-7.3,11.55,11.55,0,0,0-2-6.92l.06-1.14c3.22-.71,1.55-3.6,2.32-5.38,4.44-10.32,7-21.25,10-32,.54-1.9.28-3.38-1.26-4.34-6.78-4.23-13.72-8.19-20.41-12.54-3.83-2.49-2.58.57-2.8,2.19Zm86.06,50.23a4.74,4.74,0,0,0-2.49-5.55c-6.51-3.13-12.76-6.7-19-10.3-2.23-1.28-4-.92-4.78,2.6a103.45,103.45,0,0,1-6.27,19.78c-2.46,5.38-2.59,11.34-5.29,16.56-.61,1.17.4,1.85,1.53,2.59a141.7,141.7,0,0,0,19.34,10.41c4.34,1.95,6.49.57,8-3.7,1.75-5.1,2.58-10.39,4.26-15.51C336,326.41,337.25,320.65,338.89,315.05ZM325,361.66c.17-2.32-.87-3.56-2.72-4.91-5.78-4.25-12.53-6.92-18.16-11.42-1.36-1.08-4.37-1.73-5,.83-1.16,4.57-3,8.89-4.33,13.37-2.41,7.85-4.82,15.7-7.38,23.5-.62,1.88-.4,2.62,1.35,3.93,5.41,4.09,12.1,5.85,17.38,10.05,5.11,4.06,7.11,3.23,8.76-3.21a109.43,109.43,0,0,1,5.28-16.26C322.4,372.37,322.88,366.78,325,361.66Zm-52.7-40.76c-.2,1.53.18,3,1.76,3.57,7.31,2.54,13.23,7.61,20.08,11,3.68,1.83,4.16.13,4.56-2.29.63-3.89,2.43-7.35,3.53-11,2.43-8.19,4.48-16.5,6.9-24.69.62-2.1-.18-2.8-1.67-4-6.51-5.09-14.17-8.13-21.21-12.26-1.49-.88-2.78-.7-3.37,1.39-2.63,9.46-5.54,18.84-7.94,28.36C274.1,314.29,271.89,317.22,272.29,320.9Z" />
    <path class="rabota13-13"
      d="M300.64,450.65c5.95-19,11.95-38,17.84-57,7.94-25.69,15.69-51.45,23.78-77.09,1.33-4.21.71-6.21-3.28-8.48-27.19-15.43-54.21-31.18-81.29-46.81-1.57-.91-3.24-1.66-4.87-2.49l-1-5.86c9.94,4.57,19.09,10.57,28.56,16,23,13.22,45.94,26.58,68.9,39.89q-9.79,32.3-19.6,64.59-11.91,38.91-23.94,77.79c-.48,1.56-1.17,3-1.76,4.57-1.62-.5-.15-4.23-3.29-3.14Z" />
    <path class="rabota13-5"
      d="M213,425.53q0-7.87-.07-15.75c4.89,1.21,8.67,4.55,13,6.79-1,.26-2.08.77-1.83,1.92.72,3.35-.64,6.83.71,10.11l-3.23.11C218.23,428.91,216,426,213,425.53Z" />
    <path class="rabota13-8"
      d="M224.8,428.6c-1.35-3.28,0-6.76-.71-10.11-.25-1.15.81-1.66,1.83-1.92l10.59,6.16c0,2-.09,4-.14,5.95Z" />
    <path class="rabota13-4"
      d="M248.91,436.7c2.44-1.52,5.23-.65,7.82-1.14,1.34.55,3-.2,5,2.12h-12a4.2,4.2,0,0,1-.78-.26A5.87,5.87,0,0,1,248.91,436.7Z" />
    <path class="rabota13-13"
      d="M298.78,453.06l1.93-.5c0,.66,0,1.42-.71,1.63S298.94,453.71,298.78,453.06Z" />
    <path class="rabota13-13"
      d="M251.87,259.83a2.89,2.89,0,0,1-.85,2.41C251.39,261.47,249.57,259.92,251.87,259.83Z" />
    <path class="rabota13-13" d="M303.62,457.7l-.66,1.39Z" />
    <path class="rabota13-14"
      d="M510.9,572.66c-1.27,3.58-3,.71-4.09.07Q479.32,557,451.92,541.14c-9.79-5.65-19.52-11.4-29.41-16.86-2.7-1.49-3.19-2.94-2.31-5.79q14.1-45.64,28-91.36,7.28-23.82,14.54-47.64c3.91,2.25,8.06,4.11,11.58,7-2.16.36-4.11.45-6-1.18-1.43-1.22-3.15-1-3.66,1.36a1.88,1.88,0,0,0-1.77,1.46c-1.62,7.31-2.54,14.82-6.77,21.35-.92,1.43-1.05,3.47-1.26,5.26a23.37,23.37,0,0,1-1.56,7.08c-1.07,2.49-2.44,7,3.44,6.92,1.34,0,1.92,1.17,2.86,1.8,5.81,3.86,11.39,8.14,18.18,10.27a19.82,19.82,0,0,1,1,7.87A17,17,0,0,1,476,460.4a6.68,6.68,0,0,0-1.19,3.16c-.54,5.35-1.6,10.77-4.28,15.3-2,3.35-.72,7.16-2.92,10.25-.89,1.25.91,1.23,1.65,1.71,4,2.55,8.29,4.43,12.26,7.08,3.79,2.53,7.18,6.38,12.25,6.78.61,2.27,1.34,4.53,1,6.93,1.65,5.21-2.93,8.48-4,12.86-1.9,7.63-3.19,15.45-7.13,22.51-1.65,3-2.09,7.17,1.5,8.76,7.18,3.18,13.51,7.78,20.46,11.33,4,2.06,3.05-.55,3.43-2.4,1.92,1.51-.85,5,2.44,5.91ZM452,431.18c-2.15.67-2.51,2.81-3.09,4.57-3.84,11.46-7.51,23-11.38,34.45-.64,1.91-.69,2.73,1.41,3.78,6.25,3.1,12.66,5.88,18.35,10.08,4.44,3.27,5.19,2.76,7.83-2.45,5.16-10.18,5.29-22,10.55-32.14,1.33-2.55.95-3.87-2.11-5.59-2.86-1.6-5.76-3.69-8.55-5.65C461.05,435.46,456.48,433.54,452,431.18Zm8.9,64.1c.68-3.36-1.07-5.19-3.66-6.48-6.12-3.07-12.37-5.88-18.34-9.21-3.22-1.79-4.31-.34-5,2.25-3.1,12.34-7.62,24.27-10.26,36.74-.41,1.95.57,1.64,1.48,2.24,6.31,4.12,13.11,7.38,19.66,11.07,3.79,2.14,4.54,1.58,6-2.65,2.56-7.26,3.09-15.12,6.57-22C459.37,503.34,458.52,498.83,460.91,495.28Zm17.76,54.89c-.74-5.18,2.93-8.67,4.39-13,1.93-5.67,2.84-11.63,5.22-17.13,4.15-9.63,3.32-12-6.16-16.91-3.77-1.94-7.81-3.42-11.33-5.72-4.88-3.18-7.47-2.41-7.88,3.63-.63,9.27-4.6,17.44-7.62,25.92-1.73,4.86-.77,12.28,2.76,13.37C465.2,542.57,470.76,547.84,478.67,550.17Z" />
    <path class="rabota13-13"
      d="M474.31,386.49c-3.52-2.89-7.67-4.75-11.58-7-1-1.84.73-3.08,1-4.64q14.7,8.37,29.39,16.74,33.27,19,66.53,38.1-15.28,49.85-30.57,99.68c-4.67,15.17-9.5,30.29-14.27,45.43l-1.08-2.15.23-.42c-.08.14-.16.27-.23.41l-2.85,0,.52-2.08q20.83-67.74,41.76-135.46c.94-3-.64-3.8-2.57-4.91-9.5-5.46-19-11-28.48-16.42q-23.78-13.59-47.61-27.11Z" />
    <path class="rabota13-12"
      d="M514.83,574.8c4.77-15.14,9.6-30.26,14.27-45.43q15.36-49.83,30.57-99.68l8-4c-2.34,8-4.66,16-7,24-.37,1.27-1,2.46-.71,3.83-1.29,2.15-2.28,4.38-2,7a17.36,17.36,0,0,0-2.28,6.05c-6.05,19.52-12.14,39-18.13,58.57-1,3.13-2.6,6.07-2.76,9.44-1,3.33-2.72,6.43-3,10a18.12,18.12,0,0,0-2.21,8.73c-3.64,6.33-4.68,13.56-6.94,20.36-1.54,4.62-4.73,6.84-9.5,7C513.74,578.72,514.29,576.76,514.83,574.8Z" />
    <path class="rabota13-8"
      d="M567.68,425.72l-8,4q-33.27-19.05-66.53-38.1-14.68-8.4-29.39-16.74l-3.94-1.07a2,2,0,0,1,1-2.11c3.72-2.83,7-1.85,10.8.39q40.61,23.78,81.48,47.11c3.08,1.76,5.8,4.47,9.68,4.62,1,1.47,1.88-.08,2.82-.08C566.49,424.19,567.7,424.33,567.68,425.72Z" />
    <path class="rabota13-5"
      d="M496.21,572.71c-1.58,1.82-3.29,1.18-4.91.14-3.42-2.19-3.77-.37-3.74,2.59.1,9.32.07,18.64.09,27.95-2.74-.58-4.53.15-4.49,3.33a3.45,3.45,0,0,0-.38.8l-3.92,1.55-3.32-.21q0-17-.08-33.94a5.18,5.18,0,0,0,.4-.41c3.91-2.06,8.1-3.68,11.2-7Z" />
    <path class="rabota13-8" d="M487.06,567.47c-3.1,3.36-7.29,5-11.2,7-.56-4.45-2.92-9,1.06-13.14Z" />
    <path class="rabota13-14"
      d="M346.77,294.78Q322.89,280.85,299,266.9c-12.32-7.16-24.62-14.35-37.05-21.32-2.77-1.55-3.14-3-2.23-5.94q19.41-62.55,38.56-125.19c1.15-3.75,1.73-7.68,2.58-11.53a3,3,0,0,1,.94-.15c1.47,1.08.81,2.71,1.06,4.11l.05,1.89c-1,4.12-2.73,8.06-3.73,12.08-1.68,6.76-4.37,13.17-6,19.93-1.72,7-2.05,6.63,4.65,10.39,6,3.36,11.94,6.87,17,11.6-7.24.31-12.38-4.58-18.26-7.53-2-1-3.66-3.52-6.07-2.29s-3.25,4-3.6,6.53c-1.53,10.85-5.45,21-9.1,31.2-.53,1.48-1.68,3.17.23,3.68,3.21.85,4.93,3.64,7.85,5,4.63,2.13,9.05,4.87,13.6,7.28,3.06,1.63,5.18,1.3,5.17-2.21,0-3.73,1.86-6.52,3.12-9.68a43.07,43.07,0,0,0,2.91-8.71c1.12-6.76,3.77-13,6.14-19.32a2,2,0,0,1,2,2.14c0,.64,0,1.29,0,1.94.71,2.57-1.36,4.29-2.15,6.34-2.45,6.42-2.81,13.41-5.77,19.67-1.92,4.07-1.69,8.82-3.74,12.92-.84,1.68.33,2.31,1.89,3.18,4.1,2.28,8.37,4.19,12.28,6.95,3.26,2.3,7,4.92,11.47,5.05.6,3.2,2.07,6.22,2,9.57-1.06,4.52-3.25,8.67-4.7,13-2.54,7.63-3.63,15.69-7,23.1-1.45,3.17-.31,6.49,4,8.33a54.23,54.23,0,0,1,12,6.61c2.69,2.08,6.47,2.78,9.76,4.1a3.22,3.22,0,0,0,1.87,3C350.5,295.47,349,295.73,346.77,294.78Zm-71.44-95.53c-1,6.64-4.54,12.24-5.85,18.7-1.38,6.83-4.37,13.33-6.45,20-.44,1.42-1,3.59,1,4.45,7,3,13,7.71,19.68,11.1,4.22,2.12,5.89.78,7.24-3.95.93-3.3,1.44-6.69,2.39-9.91,2-6.93,5-13.58,7.23-20.47.91-2.83.89-6.09-2.3-8C290.81,206.89,283.41,202.5,275.33,199.25Zm30.12,16.1c-2.19,7.41-4.74,14.58-7.05,21.83-1.74,5.49-2,11.45-5.21,16.58-1.44,2.32-.19,4.57,2.33,6.22a162.44,162.44,0,0,0,17.4,9.91c4.24,2.11,7.44.27,7.86-4.57a18.06,18.06,0,0,1,.32-3.47c2.45-8.54,6.62-16.49,8-25.45.89-5.91.76-6.85-4.77-9.87C318,223.11,312,219.25,305.45,215.35Z" />
    <path class="rabota13-13"
      d="M346.77,294.78c2.2,1,3.73.69,3.84-2.13a9.18,9.18,0,0,0,.65-1.34q20.53-66.83,41.05-133.66c1.51-4.92.28-6.18-5.45-5.75l-1.09-1.17c-.82-2.18-2.68-3.19-4.57-4.25-9.22-5.16-18.45-10.31-27.59-15.6-16.06-9.28-32-18.69-48.09-28-1-.61-2.41-2.4-3.72-.14a3,3,0,0,0-.94.15,8.91,8.91,0,0,1,4.39-5.38C321.5,106,337,115.66,352.91,124.66c15.33,8.66,30.62,17.4,45.92,26.1-2.11,10.56-5.9,20.63-9,30.89q-17.37,56.92-34.93,113.81c-.34,1.11-.79,2.18-1.18,3.26C351,298.13,348.39,297.29,346.77,294.78Z" />
    <path class="rabota13-10"
      d="M650.41,368.87a27.54,27.54,0,0,1-15.76.06A30.73,30.73,0,0,1,650.41,368.87Z" />
    <path class="rabota13-7"
      d="M212.86,492.68l0-48a37.12,37.12,0,0,1,11.31,1.09c1,2.37.48,4.85.61,7.29.36,6.35-.81,12.75.71,19-.35,2,.81,4.28-1.17,6.5-1-2.29-2.68-4.93-4.16-1.22-1.13,2.83-1.71,6.93,1.57,9s.79,4.36.93,6.48c.18,2.66-2.26,2.29-3.9,2.76l.12,0c1-1.36-.24-1.62-1-2.1l.06.05c-.93-1.86-2.56-.71-3.88-.92Z" />
    <path class="rabota13-10"
      d="M248.91,436.7a5.87,5.87,0,0,0,.08.72c-1.61,2.09-3.89,1-5.88,1.2-1.45.17-3.52-.78-3.33,2-1.84,1.22-.89,4.5-3.7,5l-3.52-.28c0-.62,0-1.27-.81-1.45.39-1.58-.6-2.79-1-4.18-1.36-4.43.54-7,5.12-7.15,1.32-.06,2.64-.16,4-.24C242.89,433.71,247,432.91,248.91,436.7Z" />
    <path class="rabota13-11"
      d="M231.75,444c.81.18.78.83.81,1.45-2.36.57-1.68,2.57-1.82,4.07-1.41,14.91-4.07,29.63-6.74,44.35-1,2.89-2.35,4.53-5.27,1.86,1.64-.47,4.08-.1,3.9-2.76-.14-2.12,2.35-4.38-.93-6.48s-2.7-6.2-1.57-9c1.48-3.71,3.19-1.07,4.16,1.22,2-2.22.82-4.47,1.17-6.5,1.55-.7,1.19-2.17,1.35-3.42l2.85-22.39C229.91,445.14,230.39,444.16,231.75,444Zm-9.34,41c2-2.77.53-4.82-.74-6.89C220.92,480.39,220.35,482.65,222.41,485Z" />
    <path class="rabota13-5"
      d="M229.66,446.32l-2.85,22.39c-.16,1.25.2,2.72-1.35,3.42-1.52-6.29-.35-12.69-.71-19-.13-2.44.35-4.92-.61-7.29A8.66,8.66,0,0,1,229.66,446.32Z" />
    <path class="rabota13-13"
      d="M213,425.53c3.08.5,5.27,3.38,8.61,3.18-3.32.83-6.66,1.85-9.5-1.16C212.36,426.88,212.66,426.21,213,425.53Z" />
    <path class="rabota13-7"
      d="M562.81,423.79c-3.88-.15-6.6-2.86-9.68-4.62q-40.85-23.39-81.48-47.11c-3.82-2.24-7.08-3.22-10.8-.39l1.47-6.47c.17-1.49-1.43-1.62-2-2.57,4.44-2.53,6.1-6.63,7.54-11.41,13.48-44.64,27.22-89.21,40.91-133.8a11.14,11.14,0,0,1,.9-1.75q18.35,10.64,36.7,21.29,11.15,6.45,22.32,12.86a3.19,3.19,0,0,1-2.22,3.05c-8.92-3.82-16.76-9.6-25.31-14.08-9.6-5-18.35-11.59-28.41-15.78-3.75,1.39-1.82,5-2.58,7.4-13.62,43.52-26.92,87.14-40.42,130.69-1,3-.27,4.3,2.42,5.79,11,6.11,21.89,12.49,32.81,18.79,17,9.81,33.9,19.66,50.92,29.38,1.32.75,3.53,3.75,4.66-.44q4-12.09,8.06-24.17c.77,4.42-1.22,9.12,1.37,13.35a6.91,6.91,0,0,1-1.38,3.94C565.37,412.6,565.09,418.56,562.81,423.79Z" />
    <path class="rabota13-13"
      d="M566.51,252.87a3.19,3.19,0,0,0,2.22-3.05c6.81,2.25,12.49,6.62,18.64,10.09,7.34,4.13,14.49,8.59,21.72,12.9q-11.72,38.51-23.44,77c-3.25,10.61-6.66,21.17-10,31.76l-4.86,1c2-6.22,3.45-12.57,5.47-18.81,8.94-27.56,17-55.41,25.77-83,1.49-4.71.61-6.86-3.61-9.22C587.68,265.52,576.51,260.17,566.51,252.87Z" />
    <path class="rabota13-7"
      d="M457.77,362.73c-2.27.82-3.77-.89-5.41-1.83q-43.08-24.81-86.06-49.79c-3.33-1.94-6.41-3.14-10.08-1.39.28-1.33.55-2.65.83-4,2-2.76-.87-2.34-2-3.07,4.29-2.48,5.72-6.6,7.09-11.12Q382.43,224.73,403.08,158c.41-1.34.16-3.62,2.7-3.49l10,6.39c-.79,3.08-3.38,1.34-5.11,1.92-4.1-1.12-4.78-.27-3.86,4.84,0,.69.07,1.37.11,2.06l-1.18,1.47c-2.08.63-2.43,2.43-3,4.2q-7.59,25.22-15.28,50.42c-7.58,24.76-15.15,49.52-22.89,74.23-.84,2.67-.82,4.11,1.82,5.62q42.19,24.18,84.28,48.53c1.47.84,3,2.45,4.8.38l3.31,3.12Z" />
    <path class="rabota13-13"
      d="M410.64,162.84c1.73-.58,4.32,1.16,5.11-1.92,23.2,13.31,46.36,26.69,69.62,39.89,6,3.43,11.71,7.54,18.3,9.95-1.25,8.55-4.54,16.53-7,24.72q-16.92,55.75-34.15,111.41a12.77,12.77,0,0,1-.86,1.79c-1.88-1.13.46-4.66-2.83-5,.2-1,.32-2,.6-2.89Q478.21,279.38,497.12,218c1-3.23.46-4.67-2.43-6.29-12.34-6.9-24.57-14-36.78-21.13C442.13,181.36,426.39,172.08,410.64,162.84Z" />
    <path class="rabota13-7"
      d="M458.81,343.71c3.29.31.95,3.84,2.83,5q-.78,2.56-1.58,5.15c-2.18.07-3.56-.7-3.32-3.17l.21-1c2.19-1.2,1.84-3.23,1.7-5.2A.79.79,0,0,1,458.81,343.71Z" />
    <path class="rabota13-13"
      d="M456.74,350.66c-.24,2.47,1.14,3.24,3.32,3.17-.4,1.3,0,2.87-1.27,3.88l-3.31-3.12c0-.65.08-1.3.13-1.95Z" />
    <path class="rabota13-10"
      d="M179.78,403.47c-.14,3-1.33,4.47-3.61,5-.86.2-2-.61-1.87-1.18C175,404.8,177.41,404.65,179.78,403.47Z" />
    <path class="rabota13-3"
      d="M482.78,607.52a3.45,3.45,0,0,1,.38-.8c2.66,1,5.22,1.3,7.4-1.05.09,3,.18,6.05.28,9.07l.08.08a4.51,4.51,0,0,0-.95-.22C483,614.73,483,614.73,482.78,607.52Z" />
    <path class="rabota13-3"
      d="M472.58,613.23a1,1,0,0,1,.34-.6,8.81,8.81,0,0,0,7.51-.06c.07,1.46.06,2.93.23,4.38.35,3.18-1.36,3.81-4.1,3.82s-4-.81-3.78-3.65A31.68,31.68,0,0,0,472.58,613.23Z" />
    <path class="rabota13-3"
      d="M462.68,619.6a7.19,7.19,0,0,1,.2-.8,5.6,5.6,0,0,0,5.93-.27c0,1.47.08,3,.14,4.42.07,2.2-.32,3.76-3.16,3.79s-3.28-1.43-3.14-3.69C462.72,621.9,462.67,620.75,462.68,619.6Z" />
    <path class="rabota13-4"
      d="M480.43,612.57a8.81,8.81,0,0,1-7.51.06c-.27-2,1.2-2.89,2.62-3.77l3.32.21C478.58,610.6,481.18,610.83,480.43,612.57Z" />
    <path class="rabota13-4"
      d="M591,373.64c4.34,9.79,6.27,19.9,4.4,30.61-1.1,6.29-1.89,12.63-2.82,19-4.45,4-4.86,4-6.53-2-1.81-6.5-3.33-13.08-5-19.63,1.6-.71,1.23-2.77,2.53-3.7,1.61,4.68,2.61,9.62,5.43,13.9a95.43,95.43,0,0,0,1.59-11.38c.92-9.25-1.36-18-4.2-26.68.3-1.19,0-2.66,1.44-3.35C590.24,370.23,590.35,372.21,591,373.64Z" />
    <path class="rabota13-10"
      d="M579.79,390.69a14.68,14.68,0,0,1,3.86,7.18c-1.3.93-.93,3-2.53,3.7-1.08-4.11-3.68-3.47-6.29-1.8a45.53,45.53,0,0,0-4.8,4c-2.59-4.23-.6-8.93-1.37-13.35a11.21,11.21,0,0,1,2.14-7.84l4.86-1Z" />
    <path class="rabota13-7"
      d="M591,373.64c-.69-1.43-.8-3.41-3.13-3.28-1.4-5.91,2-10.66,3.81-15.79C591.49,360.92,592.65,367.33,591,373.64Z" />
    <path class="rabota13-6"
      d="M169.83,505.77c1.39-1.42,3.21-1.17,4.94-1.25.47,1.85-1.41,2.64-1.83,4.1l-2,.16C170.58,507.77,170.2,506.77,169.83,505.77Z" />
    <path class="rabota13-6"
      d="M188.75,520.79c-3.44-2.29-2.15-5.27-.9-8,.91-2,2-3.55-1.09-4.34-.54-1.53,3.39-2.19.81-4.12,2.5-3.09,2.82-7.48,6.05-10.14a49.88,49.88,0,0,1,9.26,5.47c-1.13,4.86,3,8.95,2,13.8-.23,1.08.17,2.41-1.25,2.93a2.51,2.51,0,0,1-3-1c-2.36-3-5.64-3.5-8.84-2.26C188.36,514.42,188.81,517.84,188.75,520.79Z" />
    <path class="rabota13-13"
      d="M218.73,495.68c2.92,2.67,4.31,1,5.27-1.86,1.54,1.48.22,3.68,1.31,5.28.32,1.56-1.52,2.15-1.61,3.53l.1,0a8.41,8.41,0,0,0-5,.06l.08.09c-.92-2.58-3.65-2.76-5.54-4-1.68-1.11-2.79-2.14-2.44-4.23l2-1.83,1.14.06c1.08,1.18,2.28,1.89,3.88.92l-.06-.05c-1,1.37,0,1.73,1,2.1Z" />
    <path class="rabota13-7"
      d="M204.74,497.72c1.56-.52,3.49-2.08,4.12.87.23,1.09.52,3.25-.9,3.39-2.92.28-3.11-2.15-3.15-4.36Z" />
    <path class="rabota13-2"
      d="M186.66,473.83c4.45-2.05,8.9-4.09,13.33-6.17,1.27-.59,2.47-1.34,2.79.89-2.83,7-7.7,12.94-9.94,20.2-1.13.11-1.56.81-1.93,1.85-1.76,4.95-4.78,8.73-10.06,10.26l-1.77.06c.36-3.51-2.54-5.1-4.33-7.36a78.46,78.46,0,0,0,9.94-17A10.22,10.22,0,0,1,186.66,473.83Z" />
    <path class="rabota13-3"
      d="M180.85,500.86c5.28-1.53,8.3-5.31,10.06-10.26.37-1,.8-1.74,1.93-1.85.37,1.81-.83,3.84.78,5.47-3.23,2.65-3.55,7-6.05,10.13a5.7,5.7,0,0,0-.9.33C180.93,507.76,180.7,507.61,180.85,500.86Z" />
    <path class="rabota13-3"
      d="M172.94,508.62c.42-1.46,2.3-2.25,1.83-4.1v.11c.74-.08,1.51-.12,1.84-1l1.36-1.18C179.49,507.58,178.69,508.56,172.94,508.62Z" />
    <path class="rabota13-11"
      d="M218.76,502.65a8.41,8.41,0,0,1,5-.06,2,2,0,0,1-.13.94C222,503.36,220.13,504.44,218.76,502.65Z" />
    <path class="rabota13-5"
      d="M225.31,499.1c-1.09-1.6.23-3.8-1.31-5.28,2.67-14.72,5.33-29.44,6.74-44.35.14-1.5-.54-3.5,1.82-4.07l3.52.28c1,5.88-1.79,11.23-2.52,16.89-1.23,9.65-3,19.23-4.79,28.8C228.26,494.15,228.36,497.38,225.31,499.1Z" />
    <path class="rabota13-5" d="M603.66,536.73,592,532.4q-.11-6.87-.22-13.74a40,40,0,0,1,11.93-6.54Z" />
    <path class="rabota13-12"
      d="M562.81,423.79c2.28-5.23,2.56-11.19,5.84-16.05.76,4.2,2.75,8.21,2,12.65-1.81.91-3.83,1.52-5.06,3.32C564.69,423.71,563.79,425.26,562.81,423.79Z" />
    <path class="rabota13-8"
      d="M490.84,614.74c-.1-3-.19-6-.28-9.07l-1.65-1.87,4.83-3.15.94.8c.63,2.57-2.46,7.11,2.94,7.17,5.64.06,2.19-4.62,3-7.12l.24-2.74c3.3,1.78,6.71,3.37,9.59,5.83C503.75,607.7,498.13,612.82,490.84,614.74Z" />
    <path class="rabota13-4"
      d="M500.83,598.76l-.24,2.74-5.91,0-.94-.8C495,596,497.94,597.41,500.83,598.76Z" />
    <path class="rabota13-4"
      d="M488.91,603.8l1.65,1.87c-2.18,2.35-4.74,2.07-7.4,1.05,0-3.18,1.75-3.91,4.49-3.33Z" />
    <path class="rabota13-6"
      d="M176.61,503.66c-.33.85-1.1.89-1.84,1C175,503.53,175.9,503.79,176.61,503.66Z" />
    <path class="rabota13-15"
      d="M318.75,456.62c.64-6,3.2-11.57,4.67-17.4s3.8-11.72,5.31-17.68c1.18-4.65,3.23-5.39,7.11-3,4.87,3.07,9,7.42,15.23,8.34,4,.59,5.58,5,4.05,8.76-2.15,5.23-3.15,10.8-4.47,16.29-1.58,6.54-4,12.89-6.08,19.3-.58,1.75-2.05,1.61-3.25.84-4-2.52-8.86-3.67-11.84-7.65-2-2.7-5.45-1.59-8-3.34C319.53,459.79,318.48,458.9,318.75,456.62Z" />
    <path class="rabota13-15"
      d="M370.87,387.05c.69,2.59-1.54,5.16-2.47,7.75-1.78,5-2.69,10.23-5,15.19-1.93,4.18-1.93,9.45-4.29,13.93-1,1.93-1.1,2.26-3.3,1.21-7.53-3.58-14.26-8.48-21.49-12.52-.92-.52-1-.9-.66-1.89,1.71-5.92,2.56-12,4.58-17.92,2.21-6.51,5-13,6.42-19.76.57-2.68,1.82-2.47,3.94-1.65,7.36,2.85,12.95,8.86,20.47,11.37C371.1,383.43,370.67,385,370.87,387.05Z" />
    <path class="rabota13-15"
      d="M348.46,472.48c1.55-5.64,2.72-11.43,4.76-16.89,2.14-5.73,3.43-11.7,5.26-17.5,1.25-3.92,3.14-4.25,5.56-2.88,6.21,3.5,12.24,7.3,18.6,10.56,2.54,1.29,4.28,3.3,2.27,7-3.65,6.78-4.44,14.54-6.3,21.94-1,4.07-3.13,7.85-4.61,11.82s-1.1,3.41-5.34,1.34c-3.45-1.68-6.09-4.5-10-5.78-2.45-.8-5.27-3.24-8.07-4.75C348.69,476.36,348.58,474.46,348.46,472.48Z" />
    <path class="rabota13-15"
      d="M389.78,450.7c.33,0,.66.09,1,.12-.69,5,2,9.26,3.08,13.85,3.07,12.73,5.8,25.57,9.92,38,0,.71,0,1.42,0,2.12-1.46,1.59-2.71,2.19-5.09.92a111.8,111.8,0,0,1-15.72-9.82c-3.36-2.57-4.09-4.93-4.27-9.16-.13-3.05,1.35-5.72,2.45-7.8,3.49-6.63,2.89-14.41,6.54-20.78C389,455.74,387.82,452.81,389.78,450.7Z" />
    <path class="rabota13-1"
      d="M358.7,324.74c.33-.89.37-2.09,1.91-1.23Q370.9,329.3,381.24,335c3.39,1.89,4.46,4,2.53,8-2.06,4.3-2.75,9.24-4.16,13.87-2.23,7.29-4.55,14.54-6.84,21.81-1.38-1.12-1.65-2.72-2.06-4.34-4-15.6-8-31.19-12-46.78C358.69,326.66,358.7,325.7,358.7,324.74Z" />
    <path class="rabota13-16"
      d="M374.76,386.76c8.83,3.72,16.47,9.53,24.8,14.13a1.84,1.84,0,0,1,1,2.48c-3.66,8.3-4.69,17.43-8.68,25.72a28.69,28.69,0,0,0-3.1,13.61h-1c-1.36-5.92-2.63-11.87-4.09-17.77-2.94-11.78-6-23.53-9-35.29C374.73,388.68,374.74,387.72,374.76,386.76Z" />
    <path class="rabota13-15"
      d="M374.72,389.64c3,11.76,6,23.51,9,35.29,1.46,5.9,2.73,11.85,4.09,17.77-8.59-3-16.37-7.66-24-12.49-2.08-1.31-1.27-4.09-.75-6,2.92-11.06,7.63-21.57,10.07-32.78C373.24,390.73,374.16,390.22,374.72,389.64Z" />
    <path class="rabota13-15"
      d="M358.68,327.62c4,15.59,8.07,31.18,12,46.78.41,1.62.68,3.22,2.06,4.34l-.06,2c-3.81-1-4-4.24-4.5-9.1-1.33,4.39-2.64,4.69-5.41,3.26-5-2.6-9.84-5.58-14.75-8.38a3.21,3.21,0,0,1-.84-4.8c5.19-6.85,3.42-15.93,7.61-23C356.89,335.21,355.26,330.55,358.68,327.62Z" />
    <path class="rabota13-16"
      d="M430.48,418.7c.16,5.35-2.61,10-4.21,14.81-2.08,6.18-3.1,12.64-5.43,18.74-.85,2.23-2.34,4.2-2.39,6.9,0,2-1.92,1.56-3.44.81-6.72-3.32-12.67-8-19.78-10.69-4.21-1.6-4.9-6.21-1.82-12,4.9-9.29,6.49-19.56,9.36-29.45.76-2.59,1.24-3.09,4.38-2.06,6.47,2.11,11.43,6.75,17.63,9.12C425.71,417.55,427.55,418.93,430.48,418.7Z" />
    <path class="rabota13-16"
      d="M376.63,380.43c1.57-5.1,3.12-10.19,4.69-15.29,1.82-5.88,3.87-11.71,5.41-17.66s5-7.55,9.91-3.71c4.59,3.59,9.81,6,14.71,9,2.52,1.56,3.87,2.78,2.24,6.64-3,7.18-4.26,15.09-6.95,22.44-1.56,4.28-1.49,8.94-3.77,13-1.18,2.11-2.39,2.3-3.85,1-5.74-5.12-13.17-7.14-19.68-10.85C377.12,383.77,376.5,382.63,376.63,380.43Z" />
    <path class="rabota13-16"
      d="M424.8,410.68c-5.5-2.09-10.18-5.67-15.33-8.4-3-1.57-3.33-4.59-2.54-7.38a198.4,198.4,0,0,1,6.32-19.43c1.63-4.1,1.81-8.51,3.57-12.49,1-2.26,1-5.39,5.44-3,6.34,3.36,12.48,7.07,18.86,10.32,4.81,2.44,1.69,6.43,1.19,9.17a37.32,37.32,0,0,1-2.39,9.11c-3.54,7.65-5.15,16-7.15,24.13C429.75,413.49,427.82,409.92,424.8,410.68Z" />
    <path class="rabota13-1"
      d="M403.77,502.7c-4.12-12.46-6.85-25.3-9.92-38-1.1-4.59-3.77-8.86-3.08-13.85,6.29,3.71,12.62,7.29,19.24,10.42,4.84,2.29,4.47,5,3.58,10.06-1.5,8.55-5.44,16.3-6.93,24.8C406.26,498.4,404.76,500.51,403.77,502.7Z" />
    <path class="rabota13-1"
      d="M424.8,410.68c3-.76,4.95,2.81,8,2-.65,2.05-2.75,3.54-2.29,6-2.93.23-4.77-1.15-5.7-3.86C429.16,413.48,423.52,412.06,424.8,410.68Z" />
    <path class="rabota13-7"
      d="M360.57,320c3.59-2.31,3.43.91,4.17,2.82C363.07,322.33,361.23,322.05,360.57,320Z" />
    <path class="rabota13-15"
      d="M250.64,372.52c.53,3.57,0,5.92-2.18,7.63-1.33,1-1.45,2.41-1.63,4-1,8.11-4.41,15.44-6.94,23.09s-5.27,2.94-8.4,1.68c-6.41-2.57-11.48-7.41-17.61-10.47-1.52-.76-1-2.27-.7-3.56,1.63-6.63,4.95-12.69,6.25-19.49,1-5,3-9.89,4.43-14.85.86-2.9,1.36-4,5.4-2.77,7.59,2.32,12.61,8.63,19.9,11C251.75,369.63,250.36,371.87,250.64,372.52Z" />
    <path class="rabota13-15"
      d="M228.67,346.68c1.16-5.09,3.29-9.87,4.52-15,1.47-6.05,4.16-11.82,5.45-17.9.85-4,3.12-3.77,5.3-2.66,7.24,3.69,14.25,7.82,21.39,11.69a2.07,2.07,0,0,1,.92,3.27c-4.37,7.27-4.8,15.77-7.44,23.57-1.5,4.45-2.7,9-4.17,13.44-.83,2.51-3.24,2-4.61,1.28-6.19-3.22-11.87-7.31-18.24-10.32C230,353.22,228.38,349.77,228.67,346.68Z" />
    <path class="rabota13-15"
      d="M255.33,372.85c6.89,5.34,14.45,8.1,21.49,11.81,3.77,2,4.84,4.06,3,8.27-2,4.55-2.31,9.66-4.29,14.4-3,7.27-4.91,15-7.36,22.87-7-4.05-14.18-7.85-21-12.25-3.06-2-6.17-4.8-2.48-9.2,3.46-4.13,1.38-9.82,3.9-14.46,2.38-4.4,3.33-9.52,5.47-14.14C255,378.16,254.89,375.7,255.33,372.85Z" />
    <path class="rabota13-15"
      d="M298.86,442.71c0,1.32,0,2.65,0,4-4.61.24-8.23-2.66-11.5-4.9a61.83,61.83,0,0,0-11.44-6.47c-3.93-1.6-3.67-4.24-2.91-6.65,1.4-4.46,3.06-8.84,4.31-13.37,1.62-5.88,3.91-11.59,5.28-17.52.47-2,2.15-3.32,2.21-5.36l1,.22c1.33,5.44,2.5,10.92,4,16.31C293,420.16,294.82,431.74,298.86,442.71Z" />
    <path class="rabota13-1"
      d="M268.88,326.81a82.84,82.84,0,0,1,16.07,7.3c1.83,1,3.35,2.58,5.46,3.23,5.33,1.62,5.59,6.15,4,9.87-3.37,8.16-5,16.79-7.66,25.12-.94,2.91-2,5.77-3,8.66a2.93,2.93,0,0,0-.93-.16c-2.79-11.22-5.41-22.48-8.43-33.64-1.76-6.5-2.49-13.3-5.49-19.45C268.9,327.43,268.88,327.12,268.88,326.81Z" />
    <path class="rabota13-15"
      d="M268.92,327.74c3,6.15,3.73,12.95,5.49,19.45,3,11.16,5.64,22.42,8.43,33.64-2.9,2-6,.16-7.64-1.18-4.13-3.48-9.34-5.27-13-9.74-3.42-4.21-3.93-5.79-2.22-11.75,1.6-5.55,4.87-10.68,4.79-16.68,0-2.69,3.81-3.08,3.23-6.7C267.77,333.09,268.33,330.08,268.92,327.74Z" />
    <path class="rabota13-15"
      d="M266.9,318.75l-.06,1.14c-5.26-2-9.62-5.51-14.17-8.6-2.17-1.47-4.43-3.21-6.69-3.94-3.71-1.21-3.72-3.7-3.06-6.16,2-7.48,4.33-14.88,6.69-22.25,1.48-4.63,3.87-9,3.22-14.12l1.91,1.84c-.33,6.13,2.64,11.55,3.8,17.36C260.88,295.69,264.83,307,266.9,318.75Z" />
    <path class="rabota13-16"
      d="M338.89,315.05c-1.64,5.6-2.93,11.36-4.75,16.88-1.68,5.12-2.51,10.41-4.26,15.51-1.48,4.27-3.63,5.65-8,3.7a141.7,141.7,0,0,1-19.34-10.41c-1.13-.74-2.14-1.42-1.53-2.59,2.7-5.22,2.83-11.18,5.29-16.56a103.45,103.45,0,0,0,6.27-19.78c.8-3.52,2.55-3.88,4.78-2.6,6.26,3.6,12.51,7.17,19,10.3A4.74,4.74,0,0,1,338.89,315.05Z" />
    <path class="rabota13-16"
      d="M325,361.66c-2.11,5.12-2.59,10.71-4.83,15.88a109.43,109.43,0,0,0-5.28,16.26c-1.65,6.44-3.65,7.27-8.76,3.21-5.28-4.2-12-6-17.38-10.05-1.75-1.31-2-2-1.35-3.93,2.56-7.8,5-15.65,7.38-23.5,1.38-4.48,3.17-8.8,4.33-13.37.64-2.56,3.65-1.91,5-.83,5.63,4.5,12.38,7.17,18.16,11.42C324.12,358.1,325.16,359.34,325,361.66Z" />
    <path class="rabota13-16"
      d="M272.29,320.9c-.4-3.68,1.81-6.61,2.64-9.92,2.4-9.52,5.31-18.9,7.94-28.36.59-2.09,1.88-2.27,3.37-1.39,7,4.13,14.7,7.17,21.21,12.26,1.49,1.16,2.29,1.86,1.67,4-2.42,8.19-4.47,16.5-6.9,24.69-1.1,3.69-2.9,7.15-3.53,11-.4,2.42-.88,4.12-4.56,2.29-6.85-3.39-12.77-8.46-20.08-11C272.47,323.92,272.09,322.43,272.29,320.9Z" />
    <path class="rabota13-16"
      d="M266.9,318.75c-2.07-11.75-6-23.06-8.36-34.73-1.16-5.81-4.13-11.23-3.8-17.36.22-1.62-1-4.68,2.8-2.19,6.69,4.35,13.63,8.31,20.41,12.54,1.54,1,1.8,2.44,1.26,4.34-3,10.77-5.55,21.7-10,32C268.45,315.15,270.12,318,266.9,318.75Z" />
    <path class="rabota13-1"
      d="M298.86,442.71c-4-11-5.85-22.55-9-33.76-1.51-5.39-2.68-10.87-4-16.31,6.67.46,11.65,4.71,17.19,7.7a21.34,21.34,0,0,1,2,1.51c6.52,4.45,6.35,4.38,3.71,11.59-2.21,6-3.6,12.4-6,18.35C301.23,435.39,301.71,439.64,298.86,442.71Z" />
    <path class="rabota13-2"
      d="M474.52,386.68q23.81,13.54,47.61,27.11c9.52,5.44,19,11,28.48,16.42,1.93,1.11,3.51,1.89,2.57,4.91q-21,67.69-41.76,135.46c-3.29-1-.52-4.4-2.44-5.91-.05-.62-.09-1.24-.14-1.86a2.23,2.23,0,0,0,1.82-1.46c3-8.72,4.69-17.81,7.71-26.56,1-2.83,4.22-7.92-1.25-10.7-7.21-3.66-13.49-9-21.31-11.57l-1.06-.91c.31-2.4-.42-4.66-1-6.93,0-.65,0-1.3.07-1.95,3-10.12,5.73-20.35,9.27-30.29,1-2.83,2.44-5.94,2.79-8.63.45-3.38-4.39-3.74-6.76-5.49-4.79-3.53-9.66-7.19-15.59-8.88-1.48-.42-2.55-.95-2.83,1.13l-1.9-1.89a19.89,19.89,0,0,0-1-7.88c0-.65.09-1.31.13-2a60.28,60.28,0,0,0,2.84-6.57c2.9-9.57,5.11-19.38,8.7-28.67,1.62-4.19.55-5-2.51-7.15C482.62,393.45,476.19,393,474.52,386.68ZM535,482.54c.16-2.07-.46-3.81-2.21-4.78-7.25-4-14.58-7.93-21.84-12-1.18-.66-2.1-.7-2,.68.22,2.56-1.83,4.22-2.13,6.47-1.12,8.44-4.51,16.18-7.47,24-2.35,6.23-.88,10.26,4.54,14.28,4.54,3.38,9.76,5.25,14.46,8.15s4.91,2.69,6.43-2.71c2-6.87,4-13.69,6.07-20.52C532.2,491.61,533.59,487.08,535,482.54Zm13.86-46.22c.76-4.16-2.53-5.9-5.1-7.2-5.86-3-11.75-5.78-17.15-9.54-2.36-1.64-3.3-.85-3.93,1.95-.77,3.47-1.43,7.05-2.52,10.37-2.4,7.25-4.45,14.62-7,21.83s-2,7.56,5.4,11.62c4.42,2.41,9,4.64,13.15,7.42,3.76,2.5,5.67,2.15,7.14-2.38,2-6.06,4.28-12.06,5.53-18.27C545.4,446.68,548.25,441.82,548.83,436.32ZM519,419.67c.61-3.45-1.27-5.36-3.95-6.81-5.44-3-11-5.79-16.31-8.9-4.68-2.71-5.35-2.39-6.11,2.86-.85,5.93-3.12,11.56-4.84,17.23s-3.7,11-5.06,16.67c-.6,2.47.73,4.27,2.61,5.47,5.19,3.31,10.84,5.86,15.74,9.7,3.08,2.42,7.11,1.72,7.6-.84,1.13-5.89,3.63-11.33,5.45-17C516.11,432,517.44,425.81,519,419.67Z" />
    <path class="rabota13-15"
      d="M452,431.18c4.47,2.36,9,4.28,13,7.05,2.79,2,5.69,4,8.55,5.65,3.06,1.72,3.44,3,2.11,5.59-5.26,10.14-5.39,22-10.55,32.14-2.64,5.21-3.39,5.72-7.83,2.45-5.69-4.2-12.1-7-18.35-10.08-2.1-1.05-2.05-1.87-1.41-3.78,3.87-11.46,7.54-23,11.38-34.45C449.5,434,449.86,431.85,452,431.18Z" />
    <path class="rabota13-15"
      d="M460.91,495.28c-2.39,3.55-1.54,8.06-3.47,11.92-3.48,6.92-4,14.78-6.57,22-1.5,4.23-2.25,4.79-6,2.65-6.55-3.69-13.35-6.95-19.66-11.07-.91-.6-1.89-.29-1.48-2.24,2.64-12.47,7.16-24.4,10.26-36.74.65-2.59,1.74-4,5-2.25,6,3.33,12.22,6.14,18.34,9.21C459.84,490.09,461.59,491.92,460.91,495.28Z" />
    <path class="rabota13-15"
      d="M478.67,550.17c-7.91-2.33-13.47-7.6-20.62-9.8-3.53-1.09-4.49-8.51-2.76-13.37,3-8.48,7-16.65,7.62-25.92.41-6,3-6.81,7.88-3.63,3.52,2.3,7.56,3.78,11.33,5.72,9.48,4.9,10.31,7.28,6.16,16.91-2.38,5.5-3.29,11.46-5.22,17.13C481.6,541.5,477.93,545,478.67,550.17Z" />
    <path class="rabota13-15"
      d="M508.84,562.81c.05.62.09,1.24.14,1.86-.38,1.85.6,4.46-3.43,2.4-6.95-3.55-13.28-8.15-20.46-11.33-3.59-1.59-3.15-5.79-1.5-8.76,3.94-7.06,5.23-14.88,7.13-22.51,1.1-4.38,5.68-7.65,4-12.86l1.06.91c1,4.17,1.86,8.37,3,12.49C502.33,537.57,504.49,550.48,508.84,562.81Z" />
    <path class="rabota13-1"
      d="M474.52,386.68c1.67,6.3,8.1,6.77,12.38,9.76,3.06,2.14,4.13,3,2.51,7.15-3.59,9.29-5.8,19.1-8.7,28.67a60.28,60.28,0,0,1-2.84,6.57,6.55,6.55,0,0,1-1-1.62c-2.66-9.79-5.87-19.5-7.7-29.45-1.3-7.09-4.59-13.74-4.53-21.09.51-2.38,2.23-2.58,3.66-1.36,1.92,1.63,3.87,1.54,6,1.18Z" />
    <path class="rabota13-15"
      d="M493.79,502.73c0,.65-.05,1.3-.07,1.95-5.07-.4-8.46-4.25-12.25-6.78-4-2.65-8.29-4.53-12.26-7.08-.74-.48-2.54-.46-1.65-1.71,2.2-3.09.94-6.9,2.92-10.25,2.68-4.53,3.74-9.95,4.28-15.3A6.68,6.68,0,0,1,476,460.4a17,17,0,0,0,2.82-11.72l1.9,1.89c-.59,5,2,9.32,3.14,13.92C487.05,477.26,489.48,490.24,493.79,502.73Z" />
    <path class="rabota13-15"
      d="M464.62,386.67c-.06,7.35,3.23,14,4.53,21.09,1.83,9.95,5,19.66,7.7,29.45a6.55,6.55,0,0,0,1,1.62c0,.66-.09,1.32-.13,2-6.79-2.12-12.37-6.4-18.18-10.26-.94-.63-1.52-1.82-2.86-1.8-5.88.09-4.51-4.43-3.44-6.92a23.37,23.37,0,0,0,1.56-7.08c.21-1.79.34-3.83,1.26-5.26,4.23-6.53,5.15-14,6.77-21.35A1.88,1.88,0,0,1,464.62,386.67Z" />
    <path class="rabota13-7" d="M513.75,572.64c.07-.14.15-.27.23-.41l-.23.42Z" />
    <path class="rabota13-2"
      d="M386.86,151.9c5.73-.43,7,.83,5.45,5.75q-20.51,66.82-41.05,133.66a9.18,9.18,0,0,1-.65,1.34,3.22,3.22,0,0,1-1.87-3c0-1.62.06-3.23.1-4.85,2.89-2.66,3-6.46,3.9-9.88,1.07-3.87,1.28-8.06,2.8-11.72,6.36-15.23,6.28-16-7.75-22.78-.58-.28-1-1.06-1.58-1.15-3.9-.62-5.77-5.81-10.44-4.61a6.4,6.4,0,0,1-1-.19c.08-3.35-1.39-6.37-2-9.57,0-.69,0-1.38.05-2.07,3.25-1.87,3.27-5.83,3.57-8.39,1-8.54,6.14-15.69,6.89-24.37.52-6,1.24-8-4.43-10.68-6.83-3.27-12.46-8.79-20.05-10.54a2,2,0,0,0-2-2.14l-.09-1.85a2.18,2.18,0,0,0,1.07-2c1.86-8,4.44-15.85,6.84-23.73,1.23-4,2.53-8,4-11.92,1.81-5,.06-8.18-4.67-10.72-3.74-2-7.16-4.64-11-6.45-3.15-1.49-5.65-5.57-10.06-3.18-.25-1.4.41-3-1.06-4.11,1.31-2.26,2.67-.47,3.72.14,16.05,9.28,32,18.69,48.09,28,9.14,5.29,18.37,10.44,27.59,15.6,1.89,1.06,3.75,2.07,4.57,4.25-5.58-.27-10-3.6-14.21-6.47-6.36-4.3-9.51-4.11-10.64,2.51-1.79,10.45-5.58,20.34-8.7,30.35-1.78,5.71.46,7.31,4.15,8.83,4.6,1.91,8.46,4.83,12.37,7.72,6.49,4.81,8.42,3.69,10.22-4.26,1.75-7.73,5-15.12,6.91-22.83C387.05,161.86,391.57,157.1,386.86,151.9ZM374.69,205c.25-4.78-3.94-6-6.84-8-4.4-3-9.36-5.2-13.79-8.17-3.92-2.63-5.79-2.63-6.6,1.95-1,5.83-3,11.29-4.69,16.85-1.81,5.84-3.39,11.77-5.48,17.51-.94,2.61.33,4,1.94,5,6.36,3.91,13,7.45,19.28,11.42,2.51,1.57,3.2,1.47,4.62-1.38,5.32-10.74,5.57-23.17,11.54-33.65C374.88,206.11,374.69,205.51,374.69,205Zm-15.17-65.63c-.07-2.06-1.51-2.71-3-3.59-6.56-3.86-13.15-7.7-19.46-11.93-2.54-1.71-3.59-.52-3.83,1.37-.37,2.82-1.58,5.27-2.42,7.88-2.62,8.14-5.49,16.23-7.52,24.52-.63,2.57-4.07,6,.1,8.64,5.23,3.29,10.8,5.95,15.84,9.66,5.23,3.85,9.13,2.66,9.52-2.05.51-6.08,3.83-11.25,5.33-17S356.3,144.71,359.52,139.38Z" />
    <path class="rabota13-15"
      d="M275.33,199.25c8.08,3.25,15.48,7.64,22.9,12,3.19,1.88,3.21,5.14,2.3,8-2.2,6.89-5.19,13.54-7.23,20.47-.95,3.22-1.46,6.61-2.39,9.91-1.35,4.73-3,6.07-7.24,3.95-6.72-3.39-12.71-8.1-19.68-11.1-2-.86-1.4-3-1-4.45,2.08-6.7,5.07-13.2,6.45-20C270.79,211.49,274.37,205.89,275.33,199.25Z" />
    <path class="rabota13-15"
      d="M316.71,164.86l.09,1.85c-2.37,6.34-5,12.56-6.14,19.32a43.07,43.07,0,0,1-2.91,8.71c-1.26,3.16-3.12,5.95-3.12,9.68,0,3.51-2.11,3.84-5.17,2.21-4.55-2.41-9-5.15-13.6-7.28-2.92-1.35-4.64-4.14-7.85-5-1.91-.51-.76-2.2-.23-3.68,3.65-10.21,7.57-20.35,9.1-31.2.35-2.54,1.24-5.32,3.6-6.53s4,1.28,6.07,2.29c5.88,2.95,11,7.84,18.26,7.53l0,0C314.68,164.12,315.37,164.78,316.71,164.86Z" />
    <path class="rabota13-15"
      d="M305.45,215.35c6.52,3.9,12.57,7.76,18.85,11.18,5.53,3,5.66,4,4.77,9.87-1.35,9-5.52,16.91-8,25.45a18.06,18.06,0,0,0-.32,3.47c-.42,4.84-3.62,6.68-7.86,4.57a162.44,162.44,0,0,1-17.4-9.91c-2.52-1.65-3.77-3.9-2.33-6.22,3.19-5.13,3.47-11.09,5.21-16.58C300.71,229.93,303.26,222.76,305.45,215.35Z" />
    <path class="rabota13-15"
      d="M348.84,284.8c0,1.62-.07,3.23-.1,4.85-3.29-1.32-7.07-2-9.76-4.1a54.23,54.23,0,0,0-12-6.61c-4.27-1.84-5.41-5.16-4-8.33,3.41-7.41,4.5-15.47,7-23.1,1.45-4.37,3.64-8.52,4.7-13a6.4,6.4,0,0,0,1,.19c.22,1.47.33,3,.67,4.4,2.17,9,4.09,18.05,6.69,26.9C345,272.25,345.7,278.9,348.84,284.8Z" />
    <path class="rabota13-1"
      d="M302.86,106.88c4.41-2.39,6.91,1.69,10.06,3.18,3.83,1.81,7.25,4.44,11,6.45,4.73,2.54,6.48,5.7,4.67,10.72-1.43,4-2.73,7.9-4,11.92-2.4,7.88-5,15.7-6.84,23.73l-1-.23c-3.09-17.86-9.31-35-12.35-52.87-.07-.41-1-.68-1.55-1Z" />
    <path class="rabota13-1"
      d="M318.84,168.85c7.59,1.75,13.22,7.27,20.05,10.54,5.67,2.71,4.95,4.65,4.43,10.68-.75,8.68-5.88,15.83-6.89,24.37-.3,2.56-.32,6.52-3.57,8.39-2.2-4.52-2.7-9.53-4.05-14.29-3.55-12.52-5.67-25.42-10-37.75C318.83,170.14,318.84,169.49,318.84,168.85Z" />
    <path class="rabota13-15"
      d="M318.83,170.79c4.31,12.33,6.43,25.23,10,37.75,1.35,4.76,1.85,9.77,4.05,14.29,0,.69,0,1.38-.05,2.07-4.49-.13-8.21-2.75-11.47-5.05-3.91-2.76-8.18-4.67-12.28-6.95-1.56-.87-2.73-1.5-1.89-3.18,2.05-4.1,1.82-8.85,3.74-12.92,3-6.26,3.32-13.25,5.77-19.67C317.47,175.08,319.54,173.36,318.83,170.79Z" />
    <path class="rabota13-15"
      d="M302.91,108.77c.54.33,1.48.6,1.55,1,3,17.88,9.26,35,12.35,52.87l-2,.1,0,0c-5.08-4.73-11-8.24-17-11.6-6.7-3.76-6.37-3.39-4.65-10.39,1.67-6.76,4.36-13.17,6-19.93C300.18,116.83,301.94,112.89,302.91,108.77Z" />
    <path class="rabota13-16"
      d="M386.86,151.9c4.71,5.2.19,10-1,14.68-1.92,7.71-5.16,15.1-6.91,22.83-1.8,8-3.73,9.07-10.22,4.26-3.91-2.89-7.77-5.81-12.37-7.72-3.69-1.52-5.93-3.12-4.15-8.83,3.12-10,6.91-19.9,8.7-30.35,1.13-6.62,4.28-6.81,10.64-2.51,4.25,2.87,8.63,6.2,14.21,6.47Z" />
    <path class="rabota13-11"
      d="M217.88,493.66c-1.6,1-2.8.26-3.88-.92C215.32,493,217,491.8,217.88,493.66Z" />
    <path class="rabota13-11"
      d="M218.85,495.71c-1-.37-2-.73-1-2.1C218.61,494.09,219.85,494.35,218.85,495.71Z" />
    <path class="rabota13-13"
      d="M222.41,485c-2.06-2.34-1.49-4.6-.74-6.89C222.94,480.17,224.36,482.22,222.41,485Z" />
    <path class="rabota13-14"
      d="M560.6,414.62c-1.13,4.19-3.34,1.19-4.66.44-17-9.72-34-19.57-50.92-29.38-10.92-6.3-21.78-12.68-32.81-18.79-2.69-1.49-3.37-2.75-2.42-5.79,13.5-43.55,26.8-87.17,40.42-130.69.76-2.44-1.17-6,2.58-7.4.24,1.61-.75,3.49,1,4.77,0,.37,0,.74-.07,1.1-3.8,6.68-3.92,14.55-7,21.46-1.87,4.27-2.72,8.81-3.7,13.28-.49,2.24-1.71,5,1.37,7.11,7,4.75,14.74,8.23,22.29,12a4.68,4.68,0,0,1,1,.17c.34,2.64.68,5.27,1,7.91a22.5,22.5,0,0,1-1.25,6.62,50.6,50.6,0,0,0-2.77,8.25,144.67,144.67,0,0,1-6.25,21.8c-1.44,4.07,0,8.28,4.22,9.08,3.86.74,6.71,3.05,10,4.78s5.56,5.89,10.1,5.38c1.36,2.45,1.4,5.22,1.92,7.87-2.23,7.28-3.87,14.82-6.9,21.76-2.63,6.06-2.19,12.74-5,18.64-.32.67.29,2.6.68,2.66,4.7.75,6.57,5.81,11,7,3.85,1,7.58,2.4,10.51,5.3,1.08,1.08,2.48.7,3.78.76C560.35,411.53,559.17,413.69,560.6,414.62Zm-49.82-77.08c-.31-1.62.87-3.73-1.55-4.73-6.94-2.88-12.61-8-19.68-10.83-4.1-1.67-4.75-.64-5.88,2.6-4.08,11.7-5.89,24.08-10.7,35.57-.73,1.74,0,3.28,1.94,4.51,6.59,4.11,14.32,6,20.6,10.6,2.21,1.63,2.8,1,3.59-1.39,2.38-7.34,5.44-14.48,7.53-21.9C508,347.17,510.94,342.81,510.78,337.54Zm-22.31-25.75c1.76,2.3.86,7.22,6.41,7.06,1.32,0,2.11,1,2.79,1.9,3.1,3.95,7.93,5.14,12,7.49,1.86,1.08,4.41,1.5,5.24-2.16,1-4.26,1.9-8.73,4-12.5,3.85-7,2.44-15.47,7-22.16.81-1.19.71-4.07.33-3.86-3.55,1.94-3.46-2.19-5.35-2.94-5.16-2.05-9.58-5.44-14-8.73-3.4-2.52-6.57-1.34-8.41,2.22-3.75,7.24-3.57,15.64-7.35,22.89C489.5,304,489.39,307.68,488.47,311.79Zm38,80.81c1.78,0,1.89-1.13,2.41-2.21,4.6-9.66,5-20.66,9.8-30.26.54-1.08.51-2.42,1.17-3.66,1.32-2.43,1.38-4-1.78-6.25-6.27-4.41-13.18-7.76-19.29-12.35-1.73-1.3-3.4-2-4,.86-2.53,12.54-9.12,23.84-10.64,36.79-.44,3.78.89,5.29,2.88,6.59,4.44,2.93,9.25,5.31,13.94,7.84C522.84,391,524.78,391.79,526.47,392.6Z" />
    <path class="rabota13-2"
      d="M513.82,227.78c-1.78-1.28-.79-3.16-1-4.77,10.06,4.19,18.81,10.75,28.41,15.78,8.55,4.48,16.39,10.26,25.31,14.08,10,7.3,21.17,12.65,31.92,18.67,4.22,2.36,5.1,4.51,3.61,9.22-8.74,27.63-16.83,55.48-25.77,83-2,6.24-3.48,12.59-5.47,18.81a11.21,11.21,0,0,0-2.14,7.84q-4,12.07-8.06,24.17c-1.43-.93-.25-3.09-1.85-3.94,0-1.64,0-3.28.07-4.93,3.2-4.95,4.28-10.73,5.81-16.25s3.52-10.84,5.13-16.28c1.22-4.14-.17-5.63-2.66-7.16a60.48,60.48,0,0,0-11.67-6c-3.62-1.26-5.74-4.93-9.7-5.32l-1-.16c-.52-2.65-.56-5.42-1.92-7.87,0-1.27,0-2.55,0-3.82a2.5,2.5,0,0,0,2-1.92c3.63-10.54,6.91-21.18,10.12-31.85,1.26-4.2-.2-5-3.37-7.11-6-3.94-13.16-5.42-18.66-10.09-2.64-2.24-1.92.57-2.26,1.69l-1.88-2.81c-.35-2.64-.69-5.27-1-7.91,1.68-5.21,3.08-10.55,5.13-15.61,2.74-6.8,3-14.4,7-20.76,1.69-2.68,1.19-5.47-1.45-6.91-7.49-4.09-15.31-7.58-22.35-12.49C515.68,226.84,514.59,227.54,513.82,227.78Zm34.94,18.94a3.19,3.19,0,0,0-2-1.94h-2c-1.29,0-1.94.64-1.87,1.95l-.17,3.91c-1.23.15-1.92.76-1.79,2.09-1,8.57-4.85,16.34-7.3,24.5-1.59,5.26-1.21,9.7,3.3,12.54,5.22,3.27,10.79,6,16.12,9.07,3.86,2.24,4.87.56,5.83-3.13,2.42-9.22,5.11-18.39,8.17-27.42.85-2.51,1.94-4.81,1.73-7.5,1.64-.26,2.2-1.31,1.68-2.75-.67-1.83-2.4-1.05-3.73-1.25l0,0c.09-1.65-.82-1.54-1.93-1.09a1.88,1.88,0,0,0-1.92-1,1.79,1.79,0,0,0-2.09-1.84l-5.92-.19,0,0c.48-3.1-.88-4.37-3.93-4a1.93,1.93,0,0,0-2.11-2Zm33,20-1-1.05c-1.86-1.53-3.2-3.86-6-3.81-3.4.5-1.53,3.2-2,4.9,0,.62,0,1.24,0,1.86-2.54.44-1.79,2.52-2,4.09a1.87,1.87,0,0,0-1.79,2c-.36,6.76-3.32,12.73-5.7,18.88C561,299,561.58,304,565.06,306c5.2,2.93,10,6.59,15.65,8.73.09,1.26.68,2,2,1.9,1.59-.05,3.63,1,4.07-1.75a8.36,8.36,0,0,0,3.76-7.14l.21-4.92c1.23-.15,1.94-.75,1.82-2.08a6.79,6.79,0,0,0-.82-5c0-.31,0-.63.07-.94a8.69,8.69,0,0,0,.89,0c1.36,0,2-.66,1.9-2l.15-3.9c2.53-.48,1.83-2.48,1.93-4.11a13.67,13.67,0,0,1,.6-3.36c2.56-5.7,1.78-7.29-4.49-8.67-3.81-1.79-6.59-5.45-11.07-6Zm-25,50-.1,1.88c-1.25.16-2,.78-1.81,2.12-.18,1.77.23,3.94-.65,5.24-3.92,5.79-5,12.47-6.62,19-.65,2.67-2.09,4.37,2.32,6.86,6.59,3.72,13.65,7.08,19.57,12,1,.8,2.6,1.28,2.87-.14.57-3,3.76-4.42,3.61-7.9-.11-2.68,1-5.48,2-8.11,2.56-7.21,5.3-14.36,6.67-21.92.27-1.51.92-4-.79-4.55-4.75-1.48-8-5.78-13-6.56-.15-1.25-.77-2-2.1-1.87l-1.94-.12a1.88,1.88,0,0,0-2.06-2,3.4,3.4,0,0,0-.9,0,3.09,3.09,0,0,0-3.1-1.94c-3.36.51-1.67,2.35-1,3.92C557.43,313.06,557,314.83,556.79,316.71Z" />
    <path class="rabota13-14"
      d="M455.61,352.64c-.05.65-.09,1.3-.13,1.95-1.77,2.07-3.33.46-4.8-.38q-42.14-24.27-84.28-48.53c-2.64-1.51-2.66-2.95-1.82-5.62,7.74-24.71,15.31-49.47,22.89-74.23q7.71-25.19,15.28-50.42c.53-1.77.88-3.57,3-4.2.67,3.71-.35,7.12-1.92,10.39-3.33,7-4.5,14.61-6.61,22-.9,3.1-.76,6,3.11,7.17,3,.91,5.43,2.85,8.1,4.39,4.43,2.55,8.49,5.79,13.39,7.52l1,.13c.36,2-.79,4.32,1.14,6l-.93,3.88a89.13,89.13,0,0,1-7.12,23.66c-1.63,3.54.23,7.2-2.05,10.43-2.51,3.55-.77,6.13,2.73,7.9s7.05,4.26,10.86,5.44,5.67,6,10.39,4.66c-.53,2.92,1.59,5.19,2,7.88-1.66,5.68-2.79,11.59-5.12,17-2.91,6.75-3.23,14.29-6.69,20.7-1.41,2.62-.82,3.95.89,5.48,7.37,6.55,16.3,10.5,24.95,14.9Zm-31.84-20.92.43.22-.42-.23c-.39-1.06-.84-1.9,0-3.18a15.11,15.11,0,0,0,2.81-6.13c1.1-8.49,5.08-16,7.61-24,1.43-4.55.45-8.49-3.7-10.92-5.32-3.12-10.55-6.41-15.79-9.69-2-1.24-5.41-1.86-5.42.16,0,5.58-3.95,9.61-4.66,14.85-.81,6.06-3.88,11.6-4.76,17.72-.48,3.28-7.5,7.91,2.07,8.76,1.95,5,7.18,5.85,11,8.29C416.1,329.54,419.24,332.81,423.77,331.72Zm-17.28-63.11c1-.06,1.76-.23,2.1-1.19,1.37-3.95,3.73-7.85,3.94-11.86.37-6.87,3.8-12.64,5.67-18.89,2.24-7.45,3.09-9.85-1.43-12.72-6-3.83-12.34-7.15-18.56-10.66a3.12,3.12,0,0,0-4.72,2.08c-.58,2.92-2.33,5.39-2.68,8.31a69.87,69.87,0,0,1-5.47,19.52c-4.22,9.7-3.51,12,6,16.95,4.74,2.49,10,4,13.94,8C405.55,268.44,406.14,268.48,406.49,268.61Zm-38,28.57c.72,2.14-1.23,4,.82,5.2,6.7,4,13.37,8.05,20.2,11.79,1.68.92,4.14,1.75,5.2-1.47,4-12.21,5.92-25.09,11.64-36.76.63-1.31.13-2.18-1.23-3.22-5.85-4.48-13.16-6.43-18.85-11.26-2.85-2.42-6.57-.59-7.59,2.92-1.49,5.12-3.28,10.16-4.87,15.25C372,285.65,370.16,291.68,368.5,297.18Z" />
    <path class="rabota13-2"
      d="M423.87,228.8c-1.93-1.72-.78-4-1.14-6,.47-5.09,2.56-9.74,4-14.55,1.94-6.31,3.68-12.69,5.93-18.88,2.93-8.05,2.71-8.78-5.07-13a107.92,107.92,0,0,1-11.13-7c-3.08-2.19-6.14-3.13-9.72-1.62-.92-5.11-.24-6,3.86-4.84,15.75,9.24,31.49,18.52,47.27,27.71,12.21,7.12,24.44,14.23,36.78,21.13,2.89,1.62,3.43,3.06,2.43,6.29q-19,61.38-37.71,122.85c-.28.93-.4,1.92-.6,2.89a.79.79,0,0,0-.16.77,8,8,0,0,0-1.7,5.2l-.21,1-1.13,2c-.62-.65-1.23-1.3-1.85-1.94l0-3.95c1.85-1.83.94-4.39,1.69-6.57,3.29-9.64,6.24-19.4,9.14-29.16.42-1.41.73-3.16-1.36-4.26-4.29-2.26-8.2-5.41-12.69-7.08-3.53-1.32-5.43-5.62-9.81-5l-1-2c-.39-2.69-2.51-5-2-7.89l0-2a9,9,0,0,0,2.68-4.67c3.18-10.77,6-21.65,9.94-32.2.5-1.35.29-2.33-1.32-3.16-6.16-3.21-12.21-6.65-18.31-10C429.7,229.27,427.11,228.46,423.87,228.8Zm70.24-13.05c.12-1.48-1.06-2.23-2.18-2.84-7.37-4-14.72-8.11-22.22-11.89-2.08-1.05-2.68.68-2.94,2.65A54.72,54.72,0,0,1,462.63,219c-3.17,7.1-4.9,14.62-7.1,22-.36,1.2.4,1.26,1.1,1.72,5.41,3.59,10.81,7.2,16.13,10.92,4.71,3.29,9.32,3.06,9.89-.83.94-6.39,3.91-12.08,5.78-18.15C490.36,228.4,492.62,222.21,494.11,215.75ZM479,265.91c-.47-3.05.61-5.52-1.85-6.88-6.54-3.61-13.25-6.95-19.61-10.84-2.87-1.76-3.91.14-4.46,1.72-1.71,4.87-2.49,10.1-4.5,14.82-2.27,5.35-2.33,11.25-5.16,16.48-3.35,6.18-2.75,7.54,3.56,10.73,6,3,11.09,7.42,17.5,9.83,3.4,1.29,3.3.49,4.49-2.28,1.94-4.46,1.68-9.26,3.51-13.73C475.21,279,477.05,272,479,265.91Zm-39.77-82.59c-.9,6-4.26,10.75-5.61,16.34-1.83,7.59-4.55,15-7.07,22.36-.64,1.89-.53,3.47,1,4.37,7.26,4.1,14.59,8.05,21.94,12,1.25.67,3.1.63,3-1.18-.12-3.22,2-5.52,2.77-8.35,2.09-7.59,4.29-15.17,7-22.57,2.23-6.13,1.35-10.43-4.19-13C451.74,190.35,446.27,185.76,439.22,183.32Z" />
    <path class="rabota13-16"
      d="M406.78,167.68c3.58-1.51,6.64-.57,9.72,1.62a107.92,107.92,0,0,0,11.13,7c7.78,4.23,8,5,5.07,13-2.25,6.19-4,12.57-5.93,18.88-1.48,4.81-3.57,9.46-4,14.55l-1-.13q-6.31-25-12.63-50.09c-.31-1.23-.44-2.73-2.26-2.8C406.85,169.05,406.81,168.37,406.78,167.68Z" />
    <path class="rabota13-15"
      d="M406.89,169.74c1.82.07,1.95,1.57,2.26,2.8q6.35,25,12.63,50.09c-4.9-1.73-9-5-13.39-7.52-2.67-1.54-5.11-3.48-8.1-4.39-3.87-1.19-4-4.07-3.11-7.17,2.11-7.34,3.28-15,6.61-22,1.57-3.27,2.59-6.68,1.92-10.39Z" />
    <path class="rabota13-13" d="M457,349.68a8,8,0,0,1,1.7-5.2C458.79,346.45,459.14,348.48,457,349.68Z" />
    <path class="rabota13-3"
      d="M494.68,601.45l5.91,0c-.78,2.5,2.67,7.18-3,7.12C492.22,608.56,495.31,604,494.68,601.45Z" />
    <path class="rabota13-16"
      d="M535,482.54c-1.38,4.54-2.77,9.07-4.12,13.62-2,6.83-4.12,13.65-6.07,20.52-1.52,5.4-1.87,5.52-6.43,2.71s-9.92-4.77-14.46-8.15c-5.42-4-6.89-8.05-4.54-14.28,3-7.84,6.35-15.58,7.47-24,.3-2.25,2.35-3.91,2.13-6.47-.13-1.38.79-1.34,2-.68,7.26,4,14.59,7.93,21.84,12C534.51,478.73,535.13,480.47,535,482.54Z" />
    <path class="rabota13-16"
      d="M548.83,436.32c-.58,5.5-3.43,10.36-4.52,15.8-1.25,6.21-3.56,12.21-5.53,18.27-1.47,4.53-3.38,4.88-7.14,2.38-4.18-2.78-8.73-5-13.15-7.42-7.42-4.06-8.05-4.26-5.4-11.62s4.64-14.58,7-21.83c1.09-3.32,1.75-6.9,2.52-10.37.63-2.8,1.57-3.59,3.93-1.95,5.4,3.76,11.29,6.58,17.15,9.54C546.3,430.42,549.59,432.16,548.83,436.32Z" />
    <path class="rabota13-16"
      d="M519,419.67c-1.6,6.14-2.93,12.37-4.87,18.4-1.82,5.65-4.32,11.09-5.45,17-.49,2.56-4.52,3.26-7.6.84-4.9-3.84-10.55-6.39-15.74-9.7-1.88-1.2-3.21-3-2.61-5.47,1.36-5.66,3.38-11.14,5.06-16.67s4-11.3,4.84-17.23c.76-5.25,1.43-5.57,6.11-2.86,5.36,3.11,10.87,5.94,16.31,8.9C517.77,414.31,519.65,416.22,519,419.67Z" />
    <path class="rabota13-1"
      d="M493.79,502.73c-4.31-12.49-6.74-25.47-10-38.24-1.16-4.6-3.73-8.92-3.14-13.92.28-2.08,1.35-1.55,2.83-1.13,5.93,1.69,10.8,5.35,15.59,8.88,2.37,1.75,7.21,2.11,6.76,5.49-.35,2.69-1.78,5.8-2.79,8.63C499.52,482.38,496.81,492.61,493.79,502.73Z" />
    <path class="rabota13-1"
      d="M508.84,562.81c-4.35-12.33-6.51-25.24-10-37.8-1.15-4.12-2-8.32-3-12.49,7.82,2.54,14.1,7.91,21.31,11.57,5.47,2.78,2.23,7.87,1.25,10.7-3,8.75-4.71,17.84-7.71,26.56A2.23,2.23,0,0,1,508.84,562.81Z" />
    <path class="rabota13-16"
      d="M374.69,205c0,.5.19,1.1,0,1.48-6,10.48-6.22,22.91-11.54,33.65-1.42,2.85-2.11,3-4.62,1.38-6.32-4-12.92-7.51-19.28-11.42-1.61-1-2.88-2.37-1.94-5,2.09-5.74,3.67-11.67,5.48-17.51,1.73-5.56,3.67-11,4.69-16.85.81-4.58,2.68-4.58,6.6-1.95,4.43,3,9.39,5.16,13.79,8.17C370.75,199,374.94,200.23,374.69,205Z" />
    <path class="rabota13-16"
      d="M359.52,139.38c-3.22,5.33-3.92,11.59-5.44,17.46s-4.82,11-5.33,17c-.39,4.71-4.29,5.9-9.52,2.05-5-3.71-10.61-6.37-15.84-9.66-4.17-2.63-.73-6.07-.1-8.64,2-8.29,4.9-16.38,7.52-24.52.84-2.61,2.05-5.06,2.42-7.88.24-1.89,1.29-3.08,3.83-1.37,6.31,4.23,12.9,8.07,19.46,11.93C358,136.67,359.45,137.32,359.52,139.38Z" />
    <path class="rabota13-1"
      d="M348.84,284.8c-3.14-5.9-3.86-12.55-5.71-18.84-2.6-8.85-4.52-17.92-6.69-26.9-.34-1.44-.45-2.93-.67-4.4,4.67-1.2,6.54,4,10.44,4.61.57.09,1,.87,1.58,1.15,14,6.81,14.11,7.55,7.75,22.78-1.52,3.66-1.73,7.85-2.8,11.72C351.8,278.34,351.73,282.14,348.84,284.8Z" />
    <path class="rabota13-14"
      d="M314.78,162.75l2-.1,1,.23a2.18,2.18,0,0,1-1.07,2C315.37,164.78,314.68,164.12,314.78,162.75Z" />
    <path class="rabota13-15"
      d="M510.78,337.54c.16,5.27-2.8,9.63-4.15,14.43-2.09,7.42-5.15,14.56-7.53,21.9-.79,2.43-1.38,3-3.59,1.39-6.28-4.63-14-6.49-20.6-10.6-2-1.23-2.67-2.77-1.94-4.51,4.81-11.49,6.62-23.87,10.7-35.57,1.13-3.24,1.78-4.27,5.88-2.6,7.07,2.86,12.74,7.95,19.68,10.83C511.65,333.81,510.47,335.92,510.78,337.54Z" />
    <path class="rabota13-15"
      d="M488.47,311.79c.92-4.11,1-7.82,2.57-10.79,3.78-7.25,3.6-15.65,7.35-22.89,1.84-3.56,5-4.74,8.41-2.22,4.45,3.29,8.87,6.68,14,8.73,1.89.75,1.8,4.88,5.35,2.94.38-.21.48,2.67-.33,3.86-4.53,6.69-3.12,15.18-7,22.16-2.07,3.77-3,8.24-4,12.5-.83,3.66-3.38,3.24-5.24,2.16-4.07-2.35-8.9-3.54-12-7.49-.68-.86-1.47-1.94-2.79-1.9C489.33,319,490.23,314.09,488.47,311.79Z" />
    <path class="rabota13-15"
      d="M526.47,392.6c-1.69-.81-3.63-1.65-5.48-2.65-4.69-2.53-9.5-4.91-13.94-7.84-2-1.3-3.32-2.81-2.88-6.59,1.52-12.95,8.11-24.25,10.64-36.79.57-2.82,2.24-2.16,4-.86,6.11,4.59,13,7.94,19.29,12.35,3.16,2.22,3.1,3.82,1.78,6.25-.66,1.24-.63,2.58-1.17,3.66-4.78,9.6-5.2,20.6-9.8,30.26C528.36,391.47,528.25,392.64,526.47,392.6Z" />
    <path class="rabota13-1"
      d="M513.82,227.78c.77-.24,1.86-.94,2.26-.66,7,4.91,14.86,8.4,22.35,12.49,2.64,1.44,3.14,4.23,1.45,6.91-4,6.36-4.28,14-7,20.76-2.05,5.06-3.45,10.4-5.13,15.61a4.68,4.68,0,0,0-1-.17c-.22-1.46-.33-3-.69-4.38q-6.12-24.73-12.31-49.46C513.78,228.52,513.8,228.15,513.82,227.78Z" />
    <path class="rabota13-15"
      d="M558.82,405.75c0,1.65-.05,3.29-.07,4.93-1.3-.06-2.7.32-3.78-.76-2.93-2.9-6.66-4.27-10.51-5.3-4.39-1.17-6.26-6.23-11-7-.39-.06-1-2-.68-2.66,2.81-5.9,2.37-12.58,5-18.64,3-6.94,4.67-14.48,6.9-21.76l1,.16c1.23,9.68,4.41,18.91,6.77,28.32C554.42,390.67,555.39,398.56,558.82,405.75Z" />
    <path class="rabota13-15"
      d="M542.84,342.89c0,1.27,0,2.55,0,3.82-4.54.51-6.73-3.6-10.1-5.38s-6.13-4-10-4.78c-4.22-.8-5.66-5-4.22-9.08a144.67,144.67,0,0,0,6.25-21.8,50.6,50.6,0,0,1,2.77-8.25,22.5,22.5,0,0,0,1.25-6.62l1.88,2.82A468.71,468.71,0,0,0,542.84,342.89Z" />
    <path class="rabota13-15"
      d="M513.75,228.88q6.16,24.74,12.31,49.46c.36,1.43.47,2.92.69,4.38-7.55-3.76-15.25-7.24-22.29-12-3.08-2.09-1.86-4.87-1.37-7.11,1-4.47,1.83-9,3.7-13.28C509.83,243.43,510,235.56,513.75,228.88Z" />
    <path class="rabota13-16"
      d="M570.84,314.68c5,.78,8.26,5.08,13,6.56,1.71.54,1.06,3,.79,4.55-1.37,7.56-4.11,14.71-6.67,21.92-.94,2.63-2.1,5.43-2,8.11.15,3.48-3,4.94-3.61,7.9-.27,1.42-1.9.94-2.87.14-5.92-5-13-8.32-19.57-12-4.41-2.49-3-4.19-2.32-6.86,1.6-6.54,2.7-13.22,6.62-19,.88-1.3.47-3.47.65-5.24a1.76,1.76,0,0,0,1.81-2.12c0-.63.07-1.25.1-1.88,2.36-.36,2.64-2.21,2.92-4.06-.64-1.57-2.33-3.41,1-3.92.13,2.09,1.62,2,3.1,1.94a3.4,3.4,0,0,1,.9,0,1.81,1.81,0,0,0,2.06,2l1.94.12A1.78,1.78,0,0,0,570.84,314.68Zm-11.1,4.6c-.88.11-.92.79-.92,1.43s0,1.42.9,1.43.92-.77.92-1.41S560.61,319.41,559.74,319.28Z" />
    <path class="rabota13-16"
      d="M544.74,244.78h2a1.8,1.8,0,0,0,2,1.94h0c0,.68,0,1.35,0,2-.59.25-1.42.33-1.72.77-.58.85-2.19,1.26-1.44,2.72.15.29.88.39,1.33.38,1.55,0,1.79-1.16,1.81-2.39,0-.49,0-1,0-1.47l2.13-.06c3-.4,4.41.87,3.93,4-2.48.58-2.1,1.91-1.54,3.93,2-1.33,1.25-2.76,1.56-3.91l5.92.19a1.78,1.78,0,0,0,2.09,1.84,1.88,1.88,0,0,1,1.92,1,2,2,0,0,0,1.93,1.09l0,0c0,.65,0,1.29,0,1.94-.72.13-1.58.1-1.51,1.2a.44.44,0,0,0,.31.31c1.1.07,1.07-.79,1.2-1.51a1.88,1.88,0,0,1,2,2.06c.21,2.69-.88,5-1.73,7.5-3.06,9-5.75,18.2-8.17,27.42-1,3.69-2,5.37-5.83,3.13-5.33-3.1-10.9-5.8-16.12-9.07-4.51-2.84-4.89-7.28-3.3-12.54,2.45-8.16,6.25-15.93,7.3-24.5a1.76,1.76,0,0,0,1.79-2.09c.06-1.31.11-2.61.17-3.91A1.76,1.76,0,0,0,544.74,244.78Zm18,23.1-3.09-9.59C558.08,262.89,558.55,265.89,562.73,267.88Zm-18-9.22c.65-.05,1.42,0,1.43-.9s-.76-.92-1.4-.92-1.42,0-1.43.9S544.09,258.61,544.73,258.66Zm13,15.55c.88-.11.91-.8.91-1.44s0-1.42-.91-1.42-.9.77-.9,1.41S556.88,274.08,557.74,274.21Zm-7.36-16.73c-.28-.12-.62-.39-.82-.31s-.26.51-.38.78c.28.12.62.4.82.32S550.26,257.76,550.38,257.48Z" />
    <path class="rabota13-16"
      d="M572.67,268.59c0-.62,0-1.24,0-1.86,3.22-.58,1.64-3.16,2-4.9,2.84-.05,4.18,2.28,6,3.81,0,.36,0,.72,0,1.08-3.47.48-5.41,4-3.76,6.87a2,2,0,0,0,2.08,1,1.59,1.59,0,0,0,1.56-2.07,9.57,9.57,0,0,1,.13-5.78l1-.05h0c.9,1.57,2.34,3.05,2.6,4.72.66,4.34,3.15,4.35,6.38,3.33.13.72.1,1.57,1.2,1.51a.48.48,0,0,0,.31-.31c.07-1.1-.79-1.07-1.51-1.2a1.91,1.91,0,0,1,2.09-2c6.27,1.38,7,3,4.49,8.67a13.67,13.67,0,0,0-.6,3.36c-2.5.3-1.26-3.11-3.23-3.41-2.17,3,.55,5.1,1.3,7.52l-.15,3.9a1.79,1.79,0,0,0-1.9,2,8.69,8.69,0,0,1-.89,0c-1.2.19-2.64-.65-3.53.79a.88.88,0,0,0,.27.81c1.22.63,2.15-.29,3.19-.66a6.79,6.79,0,0,1,.82,5,1.75,1.75,0,0,0-1.82,2.08l-.21,4.92c-1.8.35-2.95,2.73-5.51,1.41a8.41,8.41,0,0,1,1.75,5.73c-.44,2.72-2.48,1.7-4.07,1.75a1.79,1.79,0,0,0-2-1.9c-5.64-2.14-10.45-5.8-15.65-8.73-3.48-2-4-7-1.93-12.45,2.38-6.15,5.34-12.12,5.7-18.88a1.86,1.86,0,0,1,1.79-2C573.52,272.43,572.53,270.23,572.67,268.59Zm15.12,17.71c-1.28,2.66-1.44,4.25,0,6.36C589.06,290.55,588.89,289,587.79,286.3Zm-6.33,24.8c-.12.28-.4.62-.32.81s.51.26.79.39c.12-.28.4-.62.32-.81S581.74,311.22,581.46,311.1ZM592,290.36c.12-.28.39-.62.31-.82s-.5-.25-.78-.37c-.12.27-.39.61-.31.81S591.71,290.24,592,290.36Zm-14.52,18.78-.36.83c.28.12.61.39.82.31s.25-.51.37-.78Z" />
    <path class="rabota13-1"
      d="M542.84,342.89a468.71,468.71,0,0,1-12.2-49.27c.34-1.13-.38-3.94,2.26-1.7,5.5,4.67,12.69,6.15,18.66,10.09,3.17,2.09,4.63,2.91,3.37,7.11-3.21,10.67-6.49,21.31-10.12,31.85A2.5,2.5,0,0,1,542.84,342.89Z" />
    <path class="rabota13-1"
      d="M558.82,405.75c-3.43-7.19-4.4-15.08-6.32-22.69-2.36-9.41-5.54-18.64-6.77-28.32,4,.39,6.08,4.06,9.7,5.32a60.48,60.48,0,0,1,11.67,6c2.49,1.53,3.88,3,2.66,7.16-1.61,5.44-3.61,10.8-5.13,16.28S562,400.8,558.82,405.75Z" />
    <path class="rabota13-1"
      d="M590.73,274.73c-3.23,1-5.72,1-6.38-3.33-.26-1.67-1.7-3.15-2.6-4.72,4.48.56,7.26,4.22,11.07,6a1.91,1.91,0,0,0-2.09,2Z" />
    <path class="rabota13-1"
      d="M586.8,314.87a8.41,8.41,0,0,0-1.75-5.73c2.56,1.32,3.71-1.06,5.51-1.41A8.36,8.36,0,0,1,586.8,314.87Z" />
    <path class="rabota13-1"
      d="M594.78,288.83c-.75-2.42-3.47-4.48-1.3-7.52,2,.3.73,3.71,3.23,3.41C596.61,286.35,597.31,288.35,594.78,288.83Z" />
    <path class="rabota13-1"
      d="M566.74,258.73c0-.65,0-1.29,0-1.94,1.32.2,3-.58,3.72,1.25.52,1.44,0,2.49-1.68,2.75a1.88,1.88,0,0,0-2-2.06Z" />
    <path class="rabota13-1"
      d="M574.74,261.83c-.41,1.74,1.17,4.32-2,4.9C573.21,265,571.34,262.33,574.74,261.83Z" />
    <path class="rabota13-1"
      d="M559.71,312.65c-.28,1.85-.56,3.7-2.92,4.06C557,314.83,557.43,313.06,559.71,312.65Z" />
    <path class="rabota13-1"
      d="M572.67,268.59c-.14,1.64.85,3.84-2,4.1C570.88,271.11,570.13,269,572.67,268.59Z" />
    <path class="rabota13-1"
      d="M591.77,295.71c-1,.37-2,1.29-3.19.66a.88.88,0,0,1-.27-.81c.89-1.44,2.33-.6,3.53-.79C591.81,295.08,591.79,295.4,591.77,295.71Z" />
    <path class="rabota13-1" d="M563.84,310.67c-1.48.07-3,.15-3.1-1.94A3.09,3.09,0,0,1,563.84,310.67Z" />
    <path class="rabota13-1" d="M562.83,254.7a1.78,1.78,0,0,1-2.09-1.84A1.78,1.78,0,0,1,562.83,254.7Z" />
    <path class="rabota13-1" d="M548.74,248.73c0-.67,0-1.34,0-2a1.93,1.93,0,0,1,2.11,2l-2.13.06Z" />
    <path class="rabota13-1"
      d="M592.73,294.72a1.79,1.79,0,0,1,1.9-2C594.7,294.06,594.09,294.74,592.73,294.72Z" />
    <path class="rabota13-1"
      d="M544.74,244.78a1.76,1.76,0,0,1-1.87,1.95C542.8,245.42,543.45,244.79,544.74,244.78Z" />
    <path class="rabota13-1" d="M566.8,312.69a1.81,1.81,0,0,1-2.06-2A1.88,1.88,0,0,1,566.8,312.69Z" />
    <path class="rabota13-1"
      d="M570.84,314.68a1.78,1.78,0,0,1-2.1-1.87C570.07,312.72,570.69,313.43,570.84,314.68Z" />
    <path class="rabota13-1"
      d="M580.71,314.72a1.79,1.79,0,0,1,2,1.9C581.39,316.7,580.8,316,580.71,314.72Z" />
    <path class="rabota13-1"
      d="M590.77,302.81a1.75,1.75,0,0,1,1.82-2.08C592.71,302.06,592,302.66,590.77,302.81Z" />
    <path class="rabota13-1"
      d="M542.7,250.64a1.76,1.76,0,0,1-1.79,2.09C540.78,251.4,541.47,250.79,542.7,250.64Z" />
    <path class="rabota13-1"
      d="M556.69,318.59a1.76,1.76,0,0,1-1.81,2.12C554.74,319.37,555.44,318.75,556.69,318.59Z" />
    <path class="rabota13-1"
      d="M566.68,256.75a2,2,0,0,1-1.93-1.09C565.86,255.21,566.77,255.1,566.68,256.75Z" />
    <path class="rabota13-1" d="M548.76,246.72a1.8,1.8,0,0,1-2-1.94A3.19,3.19,0,0,1,548.76,246.72Z" />
    <path class="rabota13-1" d="M580.73,266.72c0-.36,0-.72,0-1.08l1,1.05-1,.05Z" />
    <path class="rabota13-15"
      d="M406.49,268.61c-.35-.13-.94-.17-1.25-.49-3.9-4-9.2-5.48-13.94-8-9.47-5-10.18-7.25-6-16.95a69.87,69.87,0,0,0,5.47-19.52c.35-2.92,2.1-5.39,2.68-8.31a3.12,3.12,0,0,1,4.72-2.08c6.22,3.51,12.55,6.83,18.56,10.66,4.52,2.87,3.67,5.27,1.43,12.72-1.87,6.25-5.3,12-5.67,18.89-.21,4-2.57,7.91-3.94,11.86C408.25,268.38,407.48,268.55,406.49,268.61Z" />
    <path class="rabota13-15"
      d="M368.5,297.18c1.66-5.5,3.45-11.53,5.32-17.55,1.59-5.09,3.38-10.13,4.87-15.25,1-3.51,4.74-5.34,7.59-2.92,5.69,4.83,13,6.78,18.85,11.26,1.36,1,1.86,1.91,1.23,3.22-5.72,11.67-7.62,24.55-11.64,36.76-1.06,3.22-3.52,2.39-5.2,1.47-6.83-3.74-13.5-7.8-20.2-11.79C367.27,301.16,369.22,299.32,368.5,297.18Z" />
    <path class="rabota13-15"
      d="M423.76,331.72c-4.52,1.09-7.66-2.18-10.79-4.19-3.81-2.44-9-3.33-11-8.29-9.57-.85-2.55-5.48-2.07-8.76.88-6.12,3.95-11.66,4.76-17.72.71-5.24,4.62-9.27,4.66-14.85,0-2,3.43-1.4,5.42-.16,5.24,3.28,10.47,6.57,15.79,9.69,4.15,2.43,5.13,6.37,3.7,10.92-2.53,8-6.51,15.55-7.61,24a15.11,15.11,0,0,1-2.81,6.13c-.88,1.28-.43,2.12,0,3.18Z" />
    <path class="rabota13-15"
      d="M439.73,292.65l1,2c3.41,17.59,8.12,34.86,13,52.07l0,3.95c-8.65-4.4-17.58-8.35-24.95-14.9-1.71-1.53-2.3-2.86-.89-5.48,3.46-6.41,3.78-13.95,6.69-20.7C436.94,304.24,438.07,298.33,439.73,292.65Z" />
    <path class="rabota13-15"
      d="M437.78,282.77l0,2c-4.72,1.37-6.67-3.5-10.39-4.65s-7.24-3.61-10.86-5.44-5.24-4.35-2.73-7.9c2.28-3.23.42-6.89,2.05-10.43a89.13,89.13,0,0,0,7.12-23.66l1.87.06c.73,6.92,3.35,13.38,5,20.08C432.29,262.85,434.23,273,437.78,282.77Z" />
    <path class="rabota13-1" d="M424.81,232.74l-1.87-.06.93-3.88c3.24-.34,5.83.47,6.9,3.94Z" />
    <path class="rabota13-15" d="M423.78,331.71l.42.23-.43-.22Z" />
    <path class="rabota13-16"
      d="M494.11,215.75c-1.49,6.46-3.75,12.65-5.68,18.94-1.87,6.07-4.84,11.76-5.78,18.15-.57,3.89-5.18,4.12-9.89.83-5.32-3.72-10.72-7.33-16.13-10.92-.7-.46-1.46-.52-1.1-1.72,2.2-7.39,3.93-14.91,7.1-22a54.72,54.72,0,0,0,4.14-15.35c.26-2,.86-3.7,2.94-2.65,7.5,3.78,14.85,7.86,22.22,11.89C493.05,213.52,494.23,214.27,494.11,215.75Z" />
    <path class="rabota13-16"
      d="M479,265.91c-1.94,6-3.78,13.13-6.52,19.85-1.83,4.47-1.57,9.27-3.51,13.73-1.19,2.77-1.09,3.57-4.49,2.28-6.41-2.41-11.53-6.81-17.5-9.83-6.31-3.19-6.91-4.55-3.56-10.73,2.83-5.23,2.89-11.13,5.16-16.48,2-4.72,2.79-10,4.5-14.82.55-1.58,1.59-3.48,4.46-1.72,6.36,3.89,13.07,7.23,19.61,10.84C479.6,260.39,478.52,262.86,479,265.91Z" />
    <path class="rabota13-16"
      d="M439.22,183.32c7,2.44,12.52,7,18.9,10,5.54,2.54,6.42,6.84,4.19,13-2.69,7.4-4.89,15-7,22.57-.78,2.83-2.89,5.13-2.77,8.35.07,1.81-1.78,1.85-3,1.18-7.35-3.92-14.68-7.87-21.94-12-1.58-.9-1.69-2.48-1-4.37,2.52-7.4,5.24-14.77,7.07-22.36C435,194.07,438.32,189.27,439.22,183.32Z" />
    <path class="rabota13-16"
      d="M424.81,232.74h6c6.1,3.35,12.15,6.79,18.31,10,1.61.83,1.82,1.81,1.32,3.16-3.94,10.55-6.76,21.43-9.94,32.2a9,9,0,0,1-2.68,4.67c-3.55-9.75-5.49-19.92-8-29.95C428.16,246.12,425.54,239.66,424.81,232.74Z" />
    <path class="rabota13-16"
      d="M453.79,346.75c-4.91-17.21-9.62-34.48-13-52.07,4.38-.62,6.28,3.68,9.81,5,4.49,1.67,8.4,4.82,12.69,7.08,2.09,1.1,1.78,2.85,1.36,4.26-2.9,9.76-5.85,19.52-9.14,29.16C454.73,342.36,455.64,344.92,453.79,346.75Z" />
    <path class="rabota13-1"
      d="M559.74,319.28c.87.13.9.81.9,1.45s0,1.41-.92,1.41-.9-.79-.9-1.43S558.86,319.39,559.74,319.28Z" />
    <path class="rabota13-1" d="M562.73,267.88c-4.18-2-4.65-5-3.09-9.59Z" />
    <path class="rabota13-1"
      d="M548.74,248.74c0,.49,0,1,0,1.47,0,1.23-.26,2.35-1.81,2.39-.45,0-1.18-.09-1.33-.38-.75-1.46.86-1.87,1.44-2.72.3-.44,1.13-.52,1.72-.77Z" />
    <path class="rabota13-1"
      d="M544.74,258.66c-.65-.05-1.42-.05-1.41-.92s.79-.91,1.43-.9,1.41.05,1.4.92S545.38,258.61,544.74,258.66Z" />
    <path class="rabota13-1" d="M554.82,252.67c-.31,1.15.44,2.58-1.56,3.91-.56-2-.94-3.35,1.54-3.93Z" />
    <path class="rabota13-1"
      d="M557.74,274.21c-.86-.13-.91-.8-.9-1.45s0-1.42.9-1.41.91.78.91,1.42S558.62,274.1,557.74,274.21Z" />
    <path class="rabota13-1"
      d="M550.38,257.48c-.12.28-.18.71-.38.79s-.54-.2-.82-.32c.12-.27.18-.7.38-.78S550.1,257.36,550.38,257.48Z" />
    <path class="rabota13-1"
      d="M566.74,258.73c-.13.72-.1,1.58-1.2,1.51a.44.44,0,0,1-.31-.31c-.07-1.1.79-1.07,1.51-1.2Z" />
    <path class="rabota13-1"
      d="M580.74,266.74a9.57,9.57,0,0,0-.13,5.78,1.59,1.59,0,0,1-1.56,2.07,2,2,0,0,1-2.08-1c-1.65-2.83.29-6.39,3.76-6.87Z" />
    <path class="rabota13-1"
      d="M587.79,286.3c1.1,2.66,1.27,4.25,0,6.36C586.35,290.55,586.51,289,587.79,286.3Z" />
    <path class="rabota13-1"
      d="M590.73,274.73c.72.13,1.58.1,1.51,1.2a.48.48,0,0,1-.31.31c-1.1.06-1.07-.79-1.2-1.51Z" />
    <path class="rabota13-1"
      d="M581.46,311.1c.28.12.71.18.79.39s-.2.53-.32.81c-.28-.13-.71-.19-.79-.39S581.34,311.38,581.46,311.1Z" />
    <path class="rabota13-1"
      d="M592,290.36c-.27-.12-.7-.18-.78-.38s.19-.54.31-.81c.28.12.71.18.78.37S592.1,290.08,592,290.36Z" />
    <path class="rabota13-1" d="M577.46,309.14l.83.36c-.12.27-.18.71-.37.78s-.54-.19-.82-.31Z" />
  </g>
</svg>