<svg id="Layer_1" data-name="Layer 1" xmlns="http://www.w3.org/2000/svg" viewBox="0 0 801.39 801.39">
  <defs>
    <style>
      .rabota3-1 {
      fill: #0480f9;
      }

      .rabota3-2 {
      fill: #2668b9;
      }

      .rabota3-3 {
      fill: #6c6c6c;
      }

      .rabota3-4 {
      fill: #a1a1a1;
      }

      .rabota3-5 {
      fill: #fbde0b;
      }

      .rabota3-6 {
      fill: #4c3936;
      }

      .rabota3-7 {
      fill: #dedddd;
      }

      .rabota3-8 {
      fill: #c4c4c4;
      }

      .rabota3-9 {
      fill: #493b3d;
      }

      .rabota3-10 {
      fill: #d3ac0b;
      }

      .rabota3-11 {
      fill: #382d30;
      }

      .rabota3-12 {
      fill: #828181;
      }

      .rabota3-13 {
      fill: #f9f9f6;
      }

      .rabota3-14 {
      fill: #d9aa88;
      }

      .rabota3-15 {
      fill: #676767;
      }

      .rabota3-16 {
      fill: #fcfcfc;
      }

      .rabota3-17 {
      fill: #a6a6a6;
      }
    </style>
  </defs>
  <g>
    <path class="rabota3-1"
      d="M401.46,552.57a392.76,392.76,0,0,1,6.41,53c.62,10,3.61,19.58,6.39,29.12a181.62,181.62,0,0,1,7.61,48.3c0,5.91-.12,11.82-.06,17.73.06,5.12-1.79,9.29-4.59,13.63-5.75,8.9-24,10.3-35.14,2.26-5.67-7.45-5.51-16.26-5.89-25-.15-3.53-.61-7-.94-10.51,1.65-10-3-19.65-2.22-29.67a202.3,202.3,0,0,0-6.27-45c-3.37-13.49-4.88-27.47-10.47-40.38-.58-9.16-4.28-15.26-9.75-15.85a73,73,0,0,1-28.79-9.06c-4.43-2.54-7.71-6.37-7.38-12.62.44-8.47-.21-17-.39-25.49.17-.84.35-1.68.52-2.51,5.19,4.18,9.66,9.61,17.16,9.66,14.94,5.77,30.3,4.27,45.66,2.65,8.43-.45,15.38-4.83,22.58-8.54,3.84.48,3.16,3.42,3.17,5.92q.06,16.94.05,33.85C399.12,547.12,398.94,550.21,401.46,552.57Z" />
    <path class="rabota3-1"
      d="M310.13,484.67c8.12-29.28,3.6-58.18-2.69-87-1.15-5.31-2.76-10.52-4.16-15.78q0-9,.1-18c2.28-2.4,1-5.35,1.26-8.07l-1.46-2.27a18.09,18.09,0,0,0,1.47-2.25c3.18-7,5-14.63,11.25-19.95,1.3-1.11,2.47-1.51,3.72-1a2.26,2.26,0,0,1,1,3c-.36.77-1.12.3-1.39-.42a7.88,7.88,0,0,1-.3-1.38,17.54,17.54,0,0,1,.74,11.17C309.8,354.5,311,373.44,321.51,383c2.19,2,4.5,1.6,6.61,2.72,8.73,4.67,17.06,10.24,26.57,13.37l1.54,1.19a6.84,6.84,0,0,0,8.51,0l1.78-1.22c5.62-1.24,4.75-6.82,6.67-10.4,4.74-8.86,4.43-20.18,13.2-27.11A23.42,23.42,0,0,1,396.2,367a30.06,30.06,0,0,0-11.77,20.72,10,10,0,0,0,.1,13.88c1.92,9.75,9.14,15.05,16.79,20,1.19,7.42-1,14.54-2.18,21.7-1.66,10.39-.34,20.71-.12,31-.27,7.15,1.12,14.43-1.51,21.43-7.82,7.4-17.57,10.46-27.88,11.74-11.1,1.38-22.28.31-33.43.11l-1.57-.14c-8.54-3.16-17.19-6.11-24.35-12.07Z" />
    <path class="rabota3-2"
      d="M310,503c.18,8.5.83,17,.39,25.49-.33,6.25,2.95,10.08,7.38,12.62a73,73,0,0,0,28.79,9.06c5.47.59,9.17,6.69,9.75,15.85-8.22,27.56-9.68,55.35-2.8,83.42-.11,6.41.15,12.7,1.89,19,3.05,11.06-2.92,18.61-14.24,18.83l-13.53.27-7.47,0,.36-.13L318.82,686l0,.48c-.21-1.53-1.4-1.65-2.57-1.81-5.14-4.26-5.32-10.18-5.39-16.13L309.1,523.31C309.64,516.57,308.1,509.72,310,503Z" />
    <path class="rabota3-3"
      d="M397.37,71.54c3.84-4.14,7.46-3.7,12.31-.89q104.34,60.6,209,120.7c4.15,2.39,6,4.87,5.93,9.91q-.64,118-.77,236.07c0,5.71-2.13,8.36-7.63,8.63.25-60.63-.69-121.27,1.3-181.9.47-14.5-1.06-29.14.39-43.51,1.62-16-2.25-27.17-18.73-31.73a2.93,2.93,0,0,1-.63-.33q-73.35-42.37-146.68-84.76C433.58,93.16,415.52,82.28,397.37,71.54Z" />
    <path class="rabota3-4"
      d="M397.37,71.54c18.15,10.74,36.21,21.62,54.44,32.19q73.29,42.48,146.68,84.76a2.93,2.93,0,0,0,.63.33c16.48,4.56,20.35,15.74,18.73,31.73-1.45,14.37.08,29-.39,43.51-2,60.63-1.05,121.27-1.3,181.9-9-2.66-16.34-8.44-24.3-13Q516.37,389.66,441.08,346a12.56,12.56,0,0,1-2.06-1.88l.87-4c6.57,1,11.25,5.77,16.91,8.57,10.3,5.11,19.26,12.78,30.51,16.09.93,2.88,3.37,3.55,5.92,4.09,4.95,4.6,11,7.28,17.07,10.07,6.58,4.83,13.28,9.45,21.34,11.55.37,2.25,2.35,2.81,4,3.74q22.78,13.15,45.59,26.3c9.75,5.61,19.54,11.16,30.67,17.51-1.92-6.21,0-10.69,0-15.38q-.14-106.65.12-213.3c0-5.64-2.08-8.51-6.69-11.08-13.88-7.72-27.56-15.8-41.3-23.78-27.65-16.07-55.24-32.23-82.94-48.2-21.55-12.43-43.24-24.62-64.84-37-4.42-2.53-9.65-7.9-13.32-6.06-3.1,1.56-.78,9.18-1,14.12-1.07,2.37-3.57,2.86-5.47,4.14C396.57,91.57,394.84,81.49,397.37,71.54Z" />
    <path class="rabota3-5"
      d="M319.24,298.83c-5-8.9,1.21-16.26,4.14-23.56s7-14.21,15.16-18c10.51-4.92,23.12-4.36,31.23,2.93.72.65.67,2.16,1,3.27-7.81,3.74-16.81,5.9-20.27,15.37-2.85.17-2.92,2.19-2.86,4.29a2,2,0,0,0-.49.22c-.09.07-.08.25-.11.38l.62-.58a4.46,4.46,0,0,0,2.86-4.29c7.1-4.14,13.45-9.55,21.19-12.62,1.45-.82.59,1.43,1.6,1.2,3.09,5.82,3.9,12.75,8.66,17.75.13,1.51.25,3,.37,4.54-.48,4.87-.43,10-5.67,12.7C361.11,315.42,334.14,313.73,319.24,298.83Z" />
    <path class="rabota3-6"
      d="M319.24,298.83c14.9,14.9,41.87,16.59,57.42,3.59,2,.9.95,2.47.84,3.82-7.26,10.39-8,23.1-12.14,34.62-2.6,7.3-6.59,12.35-13.58,15.36a56.89,56.89,0,0,1-17.93,4c-9.31-2.12-12.72-9-14.19-17.5a17.5,17.5,0,0,0-.72-11.12c0-3.17,2.14-6.3.46-9.61Q319.31,310.44,319.24,298.83Z" />
    <path class="rabota3-5"
      d="M401.32,421.56c-7.65-4.95-14.87-10.25-16.79-20q0-6.94-.1-13.88A30,30,0,0,1,396.2,367l5.37.25c.24.67.28,1.57.75,1.95,13,10.79,26.44,21.09,34.24,36.73.28.58.86-.55.95-1.15a9.47,9.47,0,0,0,0-1.41c2.36,3.78,1.9,8.11,2.07,12.2.23,5.87-3.9,8.3-9,8.68-6.07.45-12.15.55-18.07-1.76C409,421.09,405.09,421.36,401.32,421.56Z" />
    <path class="rabota3-7"
      d="M396.47,101.6c1.9-1.28,4.4-1.77,5.47-4.14,4.32.52,6.71-6.17,11.52-3.3,12.89,7.7,26.49,14.23,38.48,23.38L420.56,136.1c-2.69-1.49-5.36-3-8.08-4.47-11.24-6-21.68-13.48-33.46-18.54C383.23,106.82,391,106,396.47,101.6Z" />
    <path class="rabota3-4"
      d="M379,113.09c11.78,5.06,22.22,12.52,33.46,18.54,2.72,1.45,5.39,3,8.08,4.47l-.27,74.29c-2.27.13-3.93-1.18-5.8-2.23-11.72-6.55-22.77-14.3-35.28-19.4C378.15,163.54,379.13,138.31,379,113.09Zm6.16,21.23-.39,9.81c0,10,.24,20-.21,30-.22,5,1.45,8,5.69,10.27,6.49,3.48,12.87,7.17,19.19,11,3.77,2.25,5.38,2,5.29-3-.2-10.71,0-21.42,0-32.14q-.06-5.73-.13-11.47c-.37-2.91,1.6-6.59-1.64-8.58-9-5.5-18.16-10.66-28.42-16.62C384.83,128.24,385,131.28,385.18,134.32Z" />
    <path class="rabota3-8"
      d="M379.21,188.76c12.51,5.1,23.56,12.85,35.28,19.4,1.87,1.05,3.53,2.36,5.8,2.23l0,.09.21,22.67c-2.47-.08-4.93-.11-7.07,1.45-.08-3.49-1.77-6.74-5.17-6.38-4.12.44-1.92,4.6-2,6.95-.4,17-.47,34.08-.65,51.11-2.22-.24-3.59-1.92-5.24-3.12,2.93-18.59.72-37.3,1.4-56,.14-3.89-1.7-5.71-5.59-5.46-3-4.29-8.11-5.49-12.27-7.92s-5.48-5.1-5.14-9.58C379.24,199.11,379.11,193.93,379.21,188.76Z" />
    <path class="rabota3-9"
      d="M382.08,716.59c11.12,8,29.39,6.64,35.14-2.26,2.8-4.34,4.65-8.51,4.59-13.63-.06-5.91,0-11.82.06-17.73,13.95-5,26.33,4.16,25.29,18.77a10.28,10.28,0,0,1-4.74,8.28c-7.06,4.76-13.91,9.85-21,14.59-9.46,6.32-26.79,5.49-35.57-1.54C383.79,721.42,382,719.51,382.08,716.59Z" />
    <path class="rabota3-10"
      d="M437.52,403.34a9.47,9.47,0,0,1,0,1.41c-.09.6-.67,1.73-.95,1.15-7.8-15.64-21.26-25.94-34.24-36.73-.47-.38-.51-1.28-.75-1.95-.87-2.85-1.75-5.7-2.62-8.55.36-12.75,6.91-17.11,16.85-11.22,3.49,5.25,7.9,10,9.4,16.37l2.38,2.44c.31,2.1-.86,4.61,1.68,6.09C432.49,382.56,435.74,392.75,437.52,403.34Z" />
    <path class="rabota3-11"
      d="M327.61,687.58l13.53-.27c11.32-.22,17.29-7.77,14.24-18.83-1.74-6.32-2-12.61-1.89-19,6.87-2.82,13.33-1.68,19.54,2-.74,10,3.87,19.64,2.22,29.67.68-4.13-1.13-3.82-3.77-2.25-5.5,3.28-11.06,6.44-16.52,9.77-8.68,5.3-17.8,5.78-27.3,2.77C327.65,690.13,327.63,688.86,327.61,687.58Z" />
    <path class="rabota3-4"
      d="M396.26,221.75c3.89-.25,5.73,1.57,5.59,5.46-.68,18.65,1.53,37.36-1.4,56a4.38,4.38,0,0,1-4.14-2.52l-.55-13.26Q396,244.57,396.26,221.75Z" />
    <path class="rabota3-5"
      d="M319.4,322c1.68,3.31-.44,6.44-.46,9.61a6.58,6.58,0,0,0,.28,1.33c.27.72,1,1.19,1.39.42a2.26,2.26,0,0,0-1-3c-1.25-.53-2.42-.13-3.72,1-6.22,5.32-8.07,13-11.25,19.95a17.27,17.27,0,0,1-1.47,2.24c-2.07,1.39-1.17,3.5-1.3,5.36l-2.52-.2c-1-12.74,1.57-24.19,11.9-32.8C313.62,323.91,316.1,322.07,319.4,322Z" />
    <path class="rabota3-9"
      d="M336.2,507.58c11.15.2,22.33,1.27,33.43-.11,10.31-1.28,20.06-4.34,27.88-11.74l2.67-.13-.75,5.68c-2.17-.16-3.39.78-3.53,3-7.2,3.71-14.15,8.09-22.58,8.54-.74-3.49-3.56-2.51-5.75-2.53-8.56-.08-17.12,0-25.68-.06C339.67,510.21,336.88,511.08,336.2,507.58Z" />
    <path class="rabota3-9"
      d="M429.26,372.35c-2.54-1.48-1.37-4-1.68-6.09a49.66,49.66,0,0,0,5.21-17.93c.14-.78.29-1.56.44-2.34a34,34,0,0,0,5.2-16.29l.32-2.27c2.85-1.89,2.22-5.38,3.64-7.91,1.23-2.19.16-6.07,4.37-6.14-.05,1.26-.09,2.52-.14,3.79l-1.43,3.35q-2.18,8.37-4.34,16.76l-1,2.9-.87,4C434.17,353,433.56,363.31,429.26,372.35Z" />
    <path class="rabota3-2"
      d="M395.9,504.28c.14-2.22,1.36-3.16,3.53-3,2.15,5.92.87,12.08,1.14,18.13.51,11.05.62,22.11.89,33.16-2.52-2.36-2.34-5.45-2.34-8.52q0-16.92-.05-33.85C399.06,507.7,399.74,504.76,395.9,504.28Z" />
    <path class="rabota3-12"
      d="M310,503c-1.88,6.7-.34,13.55-.88,20.29-.62-12.92-1.14-25.83,1-38.66.05,3.59.1,7.15.15,10.72.08,1.71.15,3.42.22,5.13Z" />
    <path class="rabota3-2"
      d="M400.18,495.6l-2.67.13c2.63-7,1.24-14.28,1.51-21.43C399.62,481.4,401.23,488.43,400.18,495.6Z" />
    <path class="rabota3-8"
      d="M301.88,358.88c.13-1.86-.77-4,1.3-5.36.48.77,1,1.52,1.46,2.28-2.43,2.38-.93,5.37-1.26,8.07q0,9-.1,18c-2.49-4.62-.75-9.68-1.48-14.49C301.83,364.56,301.85,361.72,301.88,358.88Z" />
    <path class="rabota3-9" d="M327.61,687.58c0,1.28,0,2.55.05,3.83-2.9-.48-5.58-1.4-7.51-3.79Z" />
    <path class="rabota3-7" d="M301.88,358.88c0,2.84-.05,5.68-.08,8.52-4.84-1.79-2-5.7-2.44-8.72Z" />
    <path class="rabota3-9"
      d="M316.23,684.69c1.17.16,2.36.28,2.57,1.81C317.42,686.64,316.81,685.68,316.23,684.69Z" />
    <path class="rabota3-9" d="M318.82,686l1.68,1.47C319.53,687.47,318.45,687.57,318.82,686Z" />
    <path class="rabota3-6"
      d="M336.2,507.58c.68,3.5,3.47,2.63,5.69,2.65,8.56.07,17.12,0,25.68.06,2.19,0,5-1,5.75,2.53-15.36,1.62-30.72,3.12-45.66-2.65.93-4.49,4.53-2.13,7-2.73Z" />
    <path class="rabota3-9"
      d="M334.63,507.44c-2.44.6-6-1.76-7,2.73-7.5-.05-12-5.48-17.16-9.66-.07-1.72-.14-3.43-.22-5.14C317.44,501.33,326.09,504.28,334.63,507.44Z" />
    <path class="rabota3-13"
      d="M433.23,346c-.15.78-.3,1.56-.44,2.34-2.63,1.42-2.2,4.39-3.33,6.57-1.53,2.92-.49,7.06-4.26,8.92-1.5-6.4-5.91-11.12-9.4-16.36.35-5.06-1.77-9.27-4.54-13.26,3-3.83,8.57-5.22,10.86-11.27-6.79,1.9-9.85,7.77-15.39,9.56-8.43-.42-11.09,5.61-13.41,12-1.57,1.05-3.32,1.92-3.95,3.92l2.51.09c2.6,3.22,2.25,8.48,7.07,10.15.87,2.85,1.75,5.7,2.62,8.55L396.2,367a23.33,23.33,0,0,0-9.81-5.42,48,48,0,0,0-16-8.57c-1.73-4.27-1.73-7.39,3.74-9.21,4.38-1.46,5.43-5.79,4.63-10-1.72-9.12-.92-18.32-1.29-27.48.11-1.36,1.17-2.93-.84-3.83,5.23-2.73,5.18-7.83,5.66-12.69,1.48-6.45,4.28-7.06,9.95-3.48,11.57,7.29,23.39,14.27,35.59,20.42,9.09,4.58,15.66,9.41,10.89,20.76-.11.76-.22,1.52-.32,2.27A28.79,28.79,0,0,0,433.23,346Z" />
    <path class="rabota3-5"
      d="M370.42,353a48,48,0,0,1,16,8.57c-8.77,6.93-8.46,18.25-13.2,27.11-1.92,3.58-1.05,9.16-6.68,10.4l-11.82.05c-9.51-3.13-17.84-8.7-26.57-13.37-2.11-1.12-4.42-.72-6.61-2.72-10.5-9.58-11.71-28.52-1.85-40.26,1.47,8.47,4.88,15.38,14.18,17.49,8.34,5.72,16.84,8.24,25.79,1.25C363.24,358.68,366.82,355.82,370.42,353Z" />
    <path class="rabota3-2" d="M384.43,387.68q0,6.94.1,13.88A10,10,0,0,1,384.43,387.68Z" />
    <path class="rabota3-14" d="M354.69,399.11l11.82-.05-1.77,1.22-8.51,0Z" />
    <path class="rabota3-10" d="M356.23,400.3l8.51,0A6.84,6.84,0,0,1,356.23,400.3Z" />
    <path class="rabota3-15"
      d="M303.38,363.87c.33-2.7-1.17-5.69,1.26-8.07C304.42,358.52,305.66,361.47,303.38,363.87Z" />
    <path class="rabota3-8"
      d="M451.94,117.54c-12-9.15-25.59-15.68-38.48-23.38-4.81-2.87-7.2,3.82-11.52,3.3.2-4.94-2.12-12.56,1-14.12,3.67-1.84,8.9,3.53,13.32,6.06,21.6,12.34,43.29,24.53,64.84,37,27.7,16,55.29,32.13,82.94,48.2,13.74,8,27.42,16.06,41.3,23.78,4.61,2.57,6.71,5.44,6.69,11.08q-.35,106.65-.12,213.3c0,4.69-1.95,9.17,0,15.38-11.13-6.35-20.92-11.9-30.67-17.51q-22.82-13.11-45.59-26.3c-1.61-.93-3.59-1.49-4-3.74l.41-.5c2.69.59,5.14,2.35,8.1,1.6,4.94.19,7.56-2,7.3-7.13V373.14q.12-16.84.25-33.69,2.24,2.43,4.48,4.84c-2.17,5.38,3.16,5,4.66,4.44,7.64-3,15.62-5.86,20.68-13.09l-.24-11.09c2.92-2.13,5.71.76,8.58.23-.2,5.54-3,10.91-1.09,16.59-6,5.51-14.48,7.24-20.15,13.25-8.2-4.69-8.16-4.69-8.42,5-.07,2.3-.48,4.58-.73,6.87-1-1.11-2.22-1.89-3.61-.92-1.16.81-.86,2.24-.25,3.18,1.11,1.72,2.66,1.6,4.18.39.14,2.77.27,5.53.4,8.3-1.77-1.43-3.14-4.41-5.6-3.59-2.83.94-1.34,4.09-1.45,6.25a86.4,86.4,0,0,0,.07,12.67c.27,2.82.3,5.93,3.75,7.67,3.87,1.94,3-3.8,5.85-3.1.4,1.05.21,2.48,1.58,2.87.27.08,1.12-.8,1.19-1.31.21-1.74-.76-2.6-2.47-2.67-3.27-.61-2.9-3.15-2.91-5.49l-.06-13.36c6.38,2.87,7.5,0,7.36-5.92-.13-5.58-1.4-11.38,1.16-16.82l5.94,3.3c0,6.84,0,13.69-.15,20.53,0,1.64.68,4.73-2.28,3.95-6.18-1.63-4.69,2.7-4.79,5.63-.16,4.95.19,9.93-.12,14.87-.23,3.6,2.31,4.78,4.46,6.55,3.14,2.59,3.16-2.42,5.32-2.08.81.82,1.09,2.87,2.93,1.22,2.94.47.22,6.69,4.11,5a76.09,76.09,0,0,0,17.58-10.48c3.4-2.81,1.14-8.1,1.35-12.27.24-4.49,0-9-.07-13.5.42-7.91.86-15.82,1.24-23.73.17-3.39-1.5-3.44-3.93-2.06q-9.21,5.22-18.45,10.41c-1.66-1.25-4.38-1.38-4.52-4.25,5.21-5.78,13.42-7.16,18.87-12.64-1.8-1.66-4.62-1.95-5-4.79L589.37,322c3.83-1.36,3.87-5.41,5.78-8.13l3.94.58c5.27-.84,7.48-3.62,7.25-9.24-.39-9.46,0-19-.07-28.44,0-2.43,1.05-5.32-1.69-7.19.38-3.25-4.3-3.21-4.13-6.33l.06-1.44c4.7-1.25,6-4.36,5.89-9.07-.3-9.73,0-19.47-.13-29.21,0-2.23,1-4.85-1.64-6.48-5-8.71-12.38-10.39-17.08-3.91l-2.62-.15-.24-7c-1-6.84-8.09-6-12.05-9-2.15-1.67-5.44,1.32-6.42,4.64-2.22,1.8-1.42,4.32-1.45,6.58-.08,7.28.09,14.58-.07,21.86-.15,6.87-.93,13.85,5.81,18.52-.39,2.68-4.44,2.68-4.23,5.79-.48.78-1.38,1.54-1.38,2.32-.13,12.23-.07,24.45-.23,36.68,0,3.2,2.43,4.31,4.18,6.08-1.13,8.23,3.35,15,5.78,22.32l-.51,11.44-5,1.33c-.09-5.18-2.45-9.76-4.92-13.92-7.24-12.14-9.33-25.16-8.26-39,4.78-1.05,6-4.08,6-8.82-.19-24.43,0-48.85-.1-73.27,0-2.21,1-4.81-1.41-6.57-1.14-3.88-4.77-4.91-7.75-6.63-21.06-12.15-42.06-24.41-63.27-36.31-12.11-6.79-23.24-15.38-36.49-20.1C453,125.8,454.65,121.5,451.94,117.54Zm116,257.39c-1.13-.17-1.47.33-1.39,1.06,0,.38.46,1.05.6,1a6.22,6.22,0,0,0,1.52-.68C568.37,375.82,568.11,375.3,567.91,374.93Z" />
    <path class="rabota3-8"
      d="M439.89,340.18l1-2.9c2.34,1,4.71,2.05,7,3.14,6.78,3.15,12.27,8.79,19.88,10.34,1.43,1.73,2.66,3.73,5.31,3.7,4.37,4.09,10.55,5.47,14.66,9.92l-.43.46c-11.25-3.31-20.21-11-30.51-16.09C451.14,346,446.46,341.2,439.89,340.18Z" />
    <path class="rabota3-8"
      d="M531.64,390.55c-8.06-2.1-14.76-6.72-21.34-11.55l.54-.57c8,2.17,14.76,6.61,21.22,11.61Z" />
    <path class="rabota3-8"
      d="M510.3,379c-6-2.79-12.12-5.47-17.07-10.07l.16-.16,5.1-.06c3.09,4.54,9.78,4.51,12.35,9.72Z" />
    <path class="rabota3-8" d="M493.23,368.93c-2.55-.54-5-1.21-5.92-4.09l.43-.46,5.65,1.72v2.67Z" />
    <path class="rabota3-12"
      d="M438.75,327.43c4.77-11.35-1.8-16.18-10.89-20.76-12.2-6.15-24-13.13-35.59-20.42-5.67-3.58-8.47-3-9.95,3.48-.12-1.52-.24-3-.37-4.55,3-7.9,3-7.9,14.36-4.55a4.38,4.38,0,0,0,4.14,2.53c1.65,1.2,3,2.88,5.25,3.12a85.57,85.57,0,0,0,22,12.62l3.56,0c0,3.05,2.1,4.3,4.41,5.62,3.6,2.06,7,4.4,10.53,6.61l.08,2.13.43.08c-4.2.08-3.13,4-4.36,6.15C441,322.05,441.6,325.54,438.75,327.43Z" />
    <path class="rabota3-10"
      d="M350.48,278.83c3.46-9.47,12.46-11.63,20.27-15.37.32.91.64,1.82.95,2.75-7.75,3.09-14.1,8.5-21.2,12.64Z" />
    <path class="rabota3-10" d="M347.62,283.12c-.06-2.1,0-4.12,2.86-4.29l0,0a4.46,4.46,0,0,1-2.86,4.29Z" />
    <path class="rabota3-10" d="M347.64,283.14l-.62.58c0-.13,0-.31.11-.38a2,2,0,0,1,.49-.22Z" />
    <path class="rabota3-14"
      d="M370.42,353c-3.6,2.84-7.18,5.7-10.79,8.52-8.95,7-17.45,4.47-25.79-1.25a56.6,56.6,0,0,0,17.94-4c7-3,11-8.06,13.58-15.36,4.11-11.52,4.88-24.23,12.14-34.62.37,9.17-.43,18.37,1.29,27.49.8,4.25-.25,8.58-4.63,10C368.69,345.59,368.69,348.71,370.42,353Z" />
    <path class="rabota3-15"
      d="M451.94,117.54c2.71,4,1.08,8.26,1,12.44q-2.73,1.54-5.45,3.1c-2.63,5.11-.66,10.57-1.21,15.83q.22,6.94.46,13.88L446.23,196l-.33,1.22c-9,3.5-16.26,10.32-25.56,13.22l0-.09.27-74.29Z" />
    <path class="rabota3-7"
      d="M414.76,160.22c0,10.72-.21,21.43,0,32.14.09,4.93-1.52,5.22-5.29,3-6.32-3.78-12.7-7.47-19.19-11-4.24-2.28-5.91-5.29-5.69-10.27.45-10,.18-20,.21-30C395.46,148.23,404.2,155.93,414.76,160.22Zm-25.08-3.13c-1.73,3.64,1.53,6.21.85,9.27-.45,2,1.08,3.15,2.67,3.53,2.47.58,1.3-1.73,1.82-2.72,1.1-2.11,2.19-.33,3.37,0,5.29,1.3,6.35,6,8.21,10.29.65-3.46,7.69-5.93,1.49-9.9C402.2,163.74,395.91,160.59,389.68,157.09Z" />
    <path class="rabota3-15"
      d="M414.76,160.22c-10.56-4.29-19.3-12-30-16.09q.19-4.9.38-9.81c4,2,7.83,4.32,11.91,6.08,6,2.57,10.49,8.13,17.55,8.35Q414.71,154.5,414.76,160.22Z" />
    <path class="rabota3-11"
      d="M414.63,148.75c-7.06-.22-11.59-5.78-17.55-8.35-4.08-1.76-7.95-4-11.91-6.08-.17-3-.34-6.08-.6-10.77,10.26,6,19.45,11.12,28.42,16.62C416.23,142.16,414.26,145.84,414.63,148.75Z" />
    <path class="rabota3-4"
      d="M420.34,210.48c9.3-2.9,16.57-9.72,25.56-13.22,1.32,2.83,4.19,3.85,6.57,5.25,24.13,14.11,48.22,28.31,72.6,42,9.66,5.41,18.6,12.27,29.39,15.57l-.33,7.73a45.23,45.23,0,0,1-4.51-2c-12.75-7.36-25.43-14.85-38.26-22.07-1.77-1-4.27-4.28-6.36-.16-.69,1.37-.19,3.82-2.63,3.38s-3.45-2.82-3.2-4.93c.63-5.12-2.69-7.07-6.32-9.12-11.37-6.43-22.76-12.82-34-19.49-12.36-7.35-12.28-7.48-12.85,6.72a37.56,37.56,0,0,0-9.85,5.88c-2.76.47-5.22,1.71-6.31,4.29-.49,1.17,1.47,1.32,2.4,1.81-.12,3.08-.33,6.16-.37,9.23q-.33,25.26-.59,50.5l-1.15.32,1.15.78a9.38,9.38,0,0,1,0,6l-3.56,0c0-20.66-.24-41.33,0-62,.06-5.19-1.73-5.52-5.62-3.68l-1.56-.08Q420.44,221.81,420.34,210.48Z" />
    <path class="rabota3-16"
      d="M422.12,233.23c3.89-1.84,5.68-1.51,5.62,3.68-.24,20.66,0,41.33,0,62a85.57,85.57,0,0,1-22-12.62c.17-17,.24-34.07.64-51.11.05-2.35-2.15-6.51,2-6.95,3.4-.36,5.09,2.89,5.17,6.38a4.27,4.27,0,0,0,2.6,3.24c.48,2.47,2.24,2.86,4.13,2.07,2.53-1.06,1.45-3.48,1.55-5.42Zm-10.95,31.16c-2,6.3,4.75,8.55,4.69,13.62,0,1.21,1.91.06,3.34-1.06,5.49-4.32,5.72-4.67-.17-8.15C416.61,267.37,414.14,266.05,411.17,264.39Z" />
    <path class="rabota3-17"
      d="M416.08,237.84a4.27,4.27,0,0,1-2.6-3.24c2.14-1.56,4.6-1.53,7.07-1.45l1.57.08-.36,1.26C419.45,234.9,417.26,235.51,416.08,237.84Z" />
    <path class="rabota3-14"
      d="M399,358.67c-4.82-1.67-4.47-6.93-7.07-10.15.33-1.39,3.69-1.7,1.44-4,2.32-6.41,5-12.44,13.41-12-.93,3.79-6,3.65-7.23,7.7,5.44.56,7.79-4.38,11.76-6,2.77,4,4.89,8.2,4.54,13.26C405.86,341.56,399.31,345.92,399,358.67Z" />
    <path class="rabota3-12"
      d="M425.2,363.82c3.77-1.86,2.73-6,4.26-8.92,1.13-2.18.7-5.15,3.33-6.57a49.66,49.66,0,0,1-5.21,17.93C426.79,365.45,426,364.63,425.2,363.82Z" />
    <path class="rabota3-16"
      d="M431.29,291.86q.29-25.25.59-50.5c0-3.07.25-6.15.37-9.23l2.5-.52c0,1.5.38,2.94,1.75,3.65,11,5.73,20.8,13.68,32.64,17.88l.33,2.62c-.15,2.83-.43,5.65-.44,8.47-.09,19.87-.18,39.73-.11,59.6,0,4.33-.64,5.69-5,2.92-5.55-3.54-11.53-6.42-17.32-9.58.05-1.27.09-2.53.14-3.79l-.44-.09c2.6-.8.48-1.43-.08-2.13-3.5-2.21-6.93-4.55-10.53-6.61-2.31-1.32-4.42-2.57-4.41-5.62a9.38,9.38,0,0,0,0-6A1.28,1.28,0,0,0,431.29,291.86Zm14.64-7.09-1.73.49c1.8,4.1,3.56,8.22,5.48,12.26a1.33,1.33,0,0,0,2.17.4c6.09-4.43,5.94-6.4-1.06-10.44C449.18,286.55,447.55,285.67,445.93,284.77Z" />
    <path class="rabota3-17"
      d="M446.62,317.17c5.79,3.16,11.77,6,17.32,9.58,4.34,2.77,5,1.41,5-2.92-.07-19.87,0-39.73.11-59.6,0-2.82.29-5.64.44-8.47l3.94.33a3.87,3.87,0,0,0,0,1.4q-.1,34.88-.2,69.74c0,1.87-.37,4.07,1.52,5.21,5.89,3.56,11.9,6.94,18.82,10.95,0-5.65-.15-9.68,0-13.68.9-19.85-1.69-39.77,1.32-59.56l4.43.59c-.14,24-.24,48-.5,72.05,0,3.35,1.31,5.09,4.12,6.67,12,6.73,23.91,13.69,35.85,20.57l.56.63c-.33.44-.65.89-1,1.33-13.67-5.61-25.42-14.87-38.73-21-3.57,6-.19,12-1.21,17.72l-5.1.06V366.1c0-4.68-.1-9.36.18-14,.27-4.47-1.19-7.21-5.93-7.58l0,0c-2.29-3.58-6.6-4.11-9.71-6.46s-4.87-2.12-4.73,2.42-.08,9.32-.14,14c-2.65,0-3.88-2-5.31-3.7.37-4,.91-8,1-12,.07-2.25,1.22-5.31-1.18-6.65-7.35-4.08-13.64-10.26-22.42-11.56Z" />
    <path class="rabota3-16"
      d="M445.19,320.52c8.78,1.3,15.07,7.48,22.42,11.56,2.4,1.34,1.25,4.4,1.18,6.65-.11,4-.65,8-1,12-7.61-1.55-13.1-7.19-19.88-10.34-2.33-1.09-4.7-2.1-7-3.14Q443,328.9,445.19,320.52Z" />
    <path class="rabota3-12" d="M433.23,346a28.79,28.79,0,0,1,5.2-16.29A34,34,0,0,1,433.23,346Z" />
    <path class="rabota3-6"
      d="M411.26,334.2c-4,1.61-6.32,6.55-11.76,6,1.25-4.05,6.3-3.91,7.23-7.7,5.54-1.79,8.6-7.66,15.39-9.56C419.83,329,414.26,330.37,411.26,334.2Z" />
    <path class="rabota3-9"
      d="M393.32,344.51c2.25,2.31-1.11,2.62-1.44,4l-2.51-.09C390,346.43,391.75,345.56,393.32,344.51Z" />
    <path class="rabota3-7"
      d="M447.46,133.08q2.71-1.56,5.45-3.1c13.25,4.72,24.38,13.31,36.49,20.1,21.21,11.9,42.21,24.16,63.27,36.31,3,1.72,6.61,2.75,7.75,6.63l-5.61,3.08c-25.72-14.81-51.56-29.43-77.11-44.54C467.53,145.56,456.52,140.9,447.46,133.08Z" />
    <path class="rabota3-13"
      d="M498.49,368.71c1-5.76-2.36-11.76,1.21-17.72,13.31,6.13,25.06,15.39,38.73,21a2,2,0,0,0,.81,1c.16,2.89.33,5.77.49,8.65a2.38,2.38,0,0,0,.49,3.08c0,2.31-.05,4.62-.08,6.93-2.95.75-5.4-1-8.09-1.6-6.45-5-13.21-9.45-21.21-11.62C508.27,373.22,501.58,373.25,498.49,368.71Zm14.87-3c-.09-3.72-1.71-6.38-5.71-6.71-2.68-.22-2.95,1.91-2.79,3.92a7.21,7.21,0,0,0,6,6.93C513.69,370.35,513.16,367.56,513.36,365.69Zm18.56,10.16a6.81,6.81,0,0,0-6-6.39c-2.23-.3-2.66,2.32-2.38,4.24a7,7,0,0,0,5.78,6.26C532.15,380.51,531.83,378,531.92,375.85Z" />
    <path class="rabota3-17"
      d="M547.7,339.45q-.12,16.85-.25,33.69a3,3,0,0,1-2.78-1.61c.35-1,1.26-2.28.94-3-.6-1.33-1.83-.51-2.78.07l-3.43,2.05-.56-.63q.31-37.72.62-75.43l6.56-3.1c3.36,7,.74,14.5,1.59,21.71,0,1.33,0,2.65,0,4q-.07,8.78-.13,17.56C546,336.38,547.05,337.91,547.7,339.45Z" />
    <path class="rabota3-15"
      d="M554.81,196.1l5.61-3.08c2.43,1.76,1.41,4.36,1.41,6.57.07,24.42-.09,48.84.1,73.27,0,4.74-1.23,7.77-6,8.82a1.47,1.47,0,0,1-1.18,0l-.61-13.91.33-7.73c-.13-1.23-.27-2.45-.4-3.68,1.31-11.09.42-22.22.58-33.34q-.07-7-.14-14Z" />
    <path class="rabota3-3"
      d="M577.8,361.94q9.23-5.2,18.45-10.41c2.43-1.38,4.1-1.33,3.93,2.06-.38,7.91-.82,15.82-1.24,23.73-1.44.71-2.85,1.51-4.34,2.11-5.78,2.34-10.06,7.88-16.92,7.89Z" />
    <path class="rabota3-4"
      d="M577.68,387.32c6.86,0,11.14-5.55,16.92-7.89,1.49-.6,2.9-1.4,4.34-2.11,0,4.5.31,9,.07,13.5-.21,4.17,2,9.46-1.35,12.27a76.09,76.09,0,0,1-17.58,10.48c-3.89,1.73-1.17-4.49-4.11-4.95.13-.87.25-1.73.38-2.59,2.59-6,.93-12.21.94-18.34Z" />
    <path class="rabota3-4"
      d="M584.93,213l2.62.15,11.52,7.18c0,11.15-.12,22.3,0,33.45,0,2.69-1.16,5.75,1.43,8l-.06,1.44c-2.56.29-4.55-1.37-6.83-2-6.83-4.41-8.27-10.8-7.66-18.53.36-4.48,1.48-9.32-1.05-13.7Q584.91,221,584.93,213Zm5.22,8c0,9.93,0,19.35,0,28.76,0,2.13.79,4.15,2.87,4.18,2.92.05,1.79-2.69,1.83-4.24.19-7.54.16-15.09.26-22.63C595.13,224.12,595.11,221.27,590.15,221Z" />
    <path class="rabota3-4"
      d="M599.09,314.49l-3.94-.58c-1.52-2.81-3.28-1.13-5-.25.15-2.06-.24-3.84-2.38-4.75-2.42-1.71-1.59-4.27-1.6-6.53-.07-9.46-.12-18.93,0-28.39,0-2.7-1.12-5.73,1.41-8L599,273.07Zm-9.09-41c0,9.89,0,19.54,0,29.18,0,2.21,1.11,4,3.12,4,2.9,0,1.71-2.77,1.73-4.3.13-7.8,0-15.6,0-23.4C594.88,276.48,594.71,274.2,590,273.5Z" />
    <path class="rabota3-4"
      d="M568.85,299.47c-1.75-1.77-4.22-2.88-4.18-6.08.16-12.23.1-24.45.23-36.68,0-.78.9-1.54,1.38-2.32,4.38,1.76,7.67,5.86,12.81,6-1.72,2.24-1.51,4.85-1.51,7.44q0,17.67-.09,35.34a.81.81,0,0,1-.86-.07l-2.18,0a2,2,0,0,0-1.16.32l-.69-1.81a.87.87,0,0,0,0-1.22C571.71,298.54,570.32,298.84,568.85,299.47Zm4.47-4.18V266.21c0-2.08-.61-4.17-2.94-4s-1.43,2.57-1.45,4c-.1,7.85,0,15.7-.06,23.56C568.86,292.51,568.85,295.18,573.32,295.29Z" />
    <path class="rabota3-4"
      d="M570.51,248.6c-6.74-4.67-6-11.65-5.81-18.52.16-7.28,0-14.58.07-21.86,0-2.26-.77-4.78,1.45-6.58l11.35,7.19,0,41.5C574.92,250.87,572.9,249,570.51,248.6Zm2.88-6q0-13.06,0-26.09c0-1.18-.06-2.36,0-3.54,0-1.91-.91-3.5-2.67-3.56-2.69-.09-1.66,2.37-1.68,3.71-.12,8.26,0,16.52-.08,24.78C568.91,240.61,569.55,242.59,573.39,242.62Z" />
    <path class="rabota3-4"
      d="M577.8,361.94l-.12,25.38-.39.37c-5.47-2.76-8-1.54-6.32,4.86.86,3.34-.83,6.3-1,9.47l-4.2-2.07a5.67,5.67,0,0,0-.45,1.93c.4,2.5,2.31,2.57,4.28,2.45l3.71.21-.24,2.85c-2.16-.34-2.18,4.67-5.32,2.08-2.15-1.77-4.69-3-4.46-6.55.31-4.94,0-9.92.12-14.87.1-2.93-1.39-7.26,4.79-5.63,3,.78,2.25-2.31,2.28-3.95.14-6.84.12-13.69.15-20.53l2.68-.25C573.42,360.56,576.14,360.69,577.8,361.94Z" />
    <path class="rabota3-3"
      d="M600.51,261.85c-2.59-2.29-1.4-5.35-1.43-8-.13-11.15,0-22.3,0-33.45l5.56-3.27c2.6,1.63,1.61,4.25,1.64,6.48.1,9.74-.17,19.48.13,29.21C606.55,257.49,605.21,260.6,600.51,261.85Z" />
    <path class="rabota3-3"
      d="M599.09,314.49,599,273.07l5.61-3.45c2.74,1.87,1.66,4.76,1.69,7.19.12,9.48-.32,19,.07,28.44C606.57,310.87,604.36,313.65,599.09,314.49Z" />
    <path class="rabota3-15"
      d="M577.54,250.33l0-41.5c2.33-1.05,4.25-3.14,7.12-2.8l.24,7q0,8,0,16c0,3-.29,6.09-.1,9.11.33,5.34.2,10.33-5.88,12.63Z" />
    <path class="rabota3-9"
      d="M554.74,281.7a1.47,1.47,0,0,0,1.18,0c-1.07,13.8,1,26.82,8.26,39,2.47,4.16,4.83,8.74,4.92,13.92l-3,.47c-.48-6.06-3.57-11.17-6.29-16.32-6-11.41-8.54-23.38-6.94-36.19Z" />
    <path class="rabota3-4"
      d="M564.66,354.64c-2.56,5.44-1.29,11.24-1.16,16.82.14,5.91-1,8.79-7.36,5.92l.05.06-.39-8.29-.33-2.66c.25-2.29.66-4.57.73-6.87.26-9.69.22-9.69,8.42-5Z" />
    <path class="rabota3-13"
      d="M566.09,335l3-.47,5-1.33c.43,1.79,1.44,2.77,3.4,2.41-5.06,7.23-13,10.05-20.68,13.09-1.5.59-6.83.94-4.66-4.44,1.36-.36,2.44-1,2.59-2.6,2.87,0,4.93-1.94,7.34-3.05a3.89,3.89,0,0,0,2.85-2.59Z" />
    <path class="rabota3-13"
      d="M573.28,357.69l-2.68.25-5.94-3.3,0,0c5.67-6,14.15-7.74,20.15-13.25l2.35-1.11c.41,2.84,3.23,3.13,5,4.79C586.7,350.53,578.49,351.91,573.28,357.69Z" />
    <path class="rabota3-4"
      d="M558.81,397.34c-2.81-.7-2,5-5.85,3.1-3.45-1.74-3.48-4.85-3.75-7.67a86.4,86.4,0,0,1-.07-12.67c.11-2.16-1.38-5.31,1.45-6.25,2.46-.82,3.83,2.16,5.6,3.59l-.05-.06.06,13.36c0,2.34-.36,4.88,2.91,5.49A2.43,2.43,0,0,1,558.81,397.34ZM554.48,395a9,9,0,0,0-1-2c-.49-.54-1.23-.52-1.37.3a2.29,2.29,0,0,0,.5,1.75C552.85,395.31,553.64,395,554.48,395Z" />
    <path class="rabota3-7"
      d="M584.69,206c-2.87-.34-4.79,1.75-7.12,2.8l-11.35-7.19c1-3.32,4.27-6.31,6.42-4.64C576.6,200.07,583.7,199.19,584.69,206Z" />
    <path class="rabota3-4"
      d="M544.67,371.53a3,3,0,0,0,2.78,1.61v4.25c-5.3,2.37-1.4,4.75,0,7.13.26,5.13-2.36,7.32-7.3,7.13q0-3.47.07-6.93c-.16-1-.32-2.05-.49-3.08-.16-2.88-.33-5.76-.49-8.64A8.86,8.86,0,0,0,544.67,371.53Z" />
    <path class="rabota3-7"
      d="M577.54,250.33l1.39.44c.24,3.69,4.25,4.25,5.74,6.91l-5.58,2.7c-5.14-.13-8.43-4.23-12.81-6-.21-3.11,3.84-3.11,4.23-5.79C572.9,249,574.92,250.87,577.54,250.33Z" />
    <path class="rabota3-7"
      d="M604.63,217.09l-5.56,3.27-11.52-7.18C592.25,206.7,599.61,208.38,604.63,217.09Z" />
    <path class="rabota3-7"
      d="M604.58,269.62,599,273.07,587.61,266c.41-3.61,3.61-3.64,6-4.69,2.28.66,4.27,2.32,6.83,2C600.28,266.41,605,266.37,604.58,269.62Z" />
    <path class="rabota3-9"
      d="M587.12,340.26l-2.35,1.11c-1.91-5.68.89-11.05,1.09-16.59,0-1.12-.05-2.25-.08-3.37q1-6.26,2-12.5c2.14.91,2.53,2.69,2.38,4.74-.26,2.8-.52,5.59-.79,8.39Z" />
    <path class="rabota3-3"
      d="M568.85,299.47c1.47-.63,2.86-.93,3.77.87-.1.12-.3.26-.29.37a5.24,5.24,0,0,0,.27.85c.23.6.46,1.21.69,1.8.2,2.38-1,5.05,1.43,7,0,1.64-.34,3.4,1.28,4.6l0,2.21c-.45,1.55-.89,3.11-1.34,4.66C572.2,314.48,567.72,307.7,568.85,299.47Z" />
    <path class="rabota3-9"
      d="M574.63,321.79c.45-1.55.89-3.11,1.34-4.66.22.56.44,1.11.65,1.66-.23,2-.84,4,.66,5.76l.24,11.09c-2,.36-3-.62-3.4-2.41Z" />
    <path class="rabota3-3"
      d="M577.28,324.55c-1.5-1.78-.89-3.79-.66-5.76a3,3,0,0,0,1.09-.27c2.75.8,4.8,3.54,8.07,2.89,0,1.12.06,2.25.08,3.37C583,325.31,580.2,322.42,577.28,324.55Z" />
    <path class="rabota3-3"
      d="M589.37,322c.27-2.8.53-5.59.79-8.39,1.71-.87,3.47-2.55,5,.26C593.24,316.63,593.2,320.68,589.37,322Z" />
    <path class="rabota3-9"
      d="M554.77,341.69c-.15,1.58-1.23,2.24-2.59,2.6q-2.25-2.42-4.48-4.84c-.65-1.54-1.72-3.07-.18-4.7Z" />
    <path class="rabota3-2"
      d="M555.47,366.49l.33,2.66c-1.53,1.2-3.08,1.32-4.19-.4-.61-.94-.91-2.37.25-3.18C553.25,364.6,554.47,365.38,555.47,366.49Z" />
    <path class="rabota3-2"
      d="M558.81,397.34a2.43,2.43,0,0,0,.3-1.11c1.71.07,2.68.93,2.47,2.67-.07.51-.92,1.39-1.19,1.31C559,399.82,559.21,398.39,558.81,397.34Z" />
    <path class="rabota3-17" d="M547.45,384.52c-1.4-2.38-5.3-4.76,0-7.13Z" />
    <path class="rabota3-1"
      d="M573,407.39l.24-2.85c1.37-.22,2.49.07,3.07,1.49-.13.86-.25,1.72-.38,2.59C574.13,410.26,573.85,408.21,573,407.39Z" />
    <path class="rabota3-2"
      d="M567.91,374.93c.2.37.46.89.73,1.4a6.22,6.22,0,0,1-1.52.68c-.14,0-.57-.64-.6-1C566.44,375.26,566.78,374.76,567.91,374.93Z" />
    <path class="rabota3-13"
      d="M487.64,344.5c4.74.37,6.2,3.11,5.93,7.58-.28,4.66-.14,9.34-.18,14l-5.65-1.72c-4.11-4.45-10.29-5.83-14.66-9.92.06-4.66.29-9.33.14-14s1.53-4.84,4.73-2.42,7.42,2.88,9.71,6.46a7.88,7.88,0,0,1-2.76-.1c-3.19-1.37-5.47-1.35-5.84,2.91s2.09,6.46,5.53,6.9c4.33.55,2.75-3.29,3.05-5.53A31,31,0,0,0,487.64,344.5Z" />
    <path class="rabota3-9"
      d="M446.24,311.16c.56.7,2.68,1.33.08,2.13C446.29,312.58,446.27,311.87,446.24,311.16Z" />
    <path class="rabota3-4"
      d="M554.64,223c-.16,11.12.73,22.25-.58,33.34-28.43-16.24-56.8-32.6-85.35-48.62-7.36-4.13-14-9.77-22.48-11.72l.48-33.25a27.29,27.29,0,0,1,4.65,1.67c21.38,12.35,42.61,24.95,64.11,37.09C528.43,208.87,540.71,217.47,554.64,223Zm-91.11-24.27,1.44.38a20.28,20.28,0,0,0,7.81,3.71c.68,1.62,2.08,1.85,3.6,1.85l.64,0c.18.43.38.86.6,1.27.27.69-.55,2.71,1.5,1.23l.68.14,2.09,1.34c.43,1.53,1.63,1.53,2.87,1.45l2.82,1.82,2.54,1.14c.77,2.93,3.38,2.65,5.52,3.18l3.24,1.61c1.76,1.37,3,3.62,5.65,3.51l3,1.73c1.54,1.24,2.73,3,5,3.31,1.57-2.41.61-5,.78-7.39V212.7c-.11-3.73.92-8-4.65-8.93-1.07-1.06-2.11-2.19-3.81-2.1-1-2.53-3.25-2.66-5.41-3l-3.1-2.14a8.35,8.35,0,0,0-5.72-3.47L488,191.61l-3.21-2.51a2,2,0,0,0-2.68-1.26l-1.4-.55-1.42-1.12c-2.32-.79-3-4.63-6.39-3.41-1.35-1.11-2.67-2.3-4.63-2a2.87,2.87,0,0,0-3.44-1.9c-2.66,1.76-5.45,3.51-.3,5.68a5.73,5.73,0,0,1-.39,4.46C461.09,192.1,460.8,195.34,463.53,198.77Zm79.6,33.33c2.2-6.89-1.9-11.25-8.76-14.19-2.59-1.11-4.93-2.81-7.42-4.15-2.31-1.25-3.22-.47-3.67,2.14-2.14,12.5-.3,16.79,10.28,22.91C543,244.29,543,244.29,543.13,232.1Z" />
    <path class="rabota3-7"
      d="M554.64,223c-13.93-5.57-26.21-14.17-39.17-21.49-21.5-12.14-42.73-24.74-64.11-37.09a27.29,27.29,0,0,0-4.65-1.67q-.22-6.93-.46-13.88c2.87-.71,5.06,1,7.27,2.24,16.84,9.65,33.61,19.42,50.44,29.08S537.65,199.44,554.5,209Z" />
    <path class="rabota3-4"
      d="M554.5,209q-25.28-14.4-50.54-28.81c-16.83-9.66-33.6-19.43-50.44-29.08-2.21-1.26-4.4-3-7.27-2.24.55-5.26-1.42-10.72,1.21-15.83,9.06,7.82,20.07,12.48,30.24,18.48,25.55,15.11,51.39,29.73,77.11,44.54Q554.66,202.57,554.5,209Z" />
    <path class="rabota3-7"
      d="M446.23,196c8.5,2,15.12,7.59,22.48,11.72,28.55,16,56.92,32.38,85.35,48.62.13,1.23.27,2.45.4,3.68-10.79-3.3-19.73-10.16-29.39-15.57-24.38-13.67-48.47-27.87-72.6-42-2.38-1.4-5.25-2.42-6.57-5.25Z" />
    <path class="rabota3-11"
      d="M389.68,157.09c6.23,3.5,12.52,6.65,18.41,10.43,6.2,4-.84,6.44-1.49,9.9-1.86-4.33-2.92-9-8.21-10.29-1.18-.29-2.27-2.07-3.37,0-.52,1,.65,3.3-1.82,2.72-1.59-.38-3.12-1.48-2.67-3.53C391.21,163.3,388,160.73,389.68,157.09Z" />
    <path class="rabota3-7"
      d="M554.74,281.7l-1.88.82c-2.32-1.18-3.91-3.7-6.86-3.69a12,12,0,0,0-6.8-4c-14-6.36-26.76-15-40.17-22.44-12.8-7.09-25-15.3-38.43-21.21-3.12-6-9.47-7.67-14.59-11,.57-14.2.49-14.07,12.85-6.72,11.23,6.67,22.62,13.06,34,19.49,3.63,2.05,6.95,4,6.32,9.12-.25,2.11.73,4.49,3.2,4.93s1.94-2,2.63-3.38c2.09-4.12,4.59-.83,6.36.16,12.83,7.22,25.51,14.71,38.26,22.07a45.23,45.23,0,0,0,4.51,2Q554.43,274.75,554.74,281.7Z" />
    <path class="rabota3-8"
      d="M446,220.15c5.12,3.33,11.47,5,14.59,11-2.85,3.1-.86,5.24,1.6,7s5.38,3,7.83,4.86c4.78,3.58,11.59,4.18,14.76,10.08l-5.74,0c0-3.12-2.33-2.91-4.37-3.14a19.25,19.25,0,0,0-3.09-2.72c-10.89-6.24-21.83-12.4-32.75-18.58L436.16,226A37.56,37.56,0,0,1,446,220.15Z" />
    <path class="rabota3-3"
      d="M436.16,226l2.68,2.67-4.09,2.91-2.5.52c-.93-.49-2.89-.64-2.4-1.81C430.94,227.74,433.4,226.5,436.16,226Z" />
    <path class="rabota3-12" d="M431.29,291.86a1.28,1.28,0,0,1,0,1.1l-1.15-.78Z" />
    <path class="rabota3-9"
      d="M411.17,264.39c3,1.66,5.44,3,7.86,4.41,5.89,3.48,5.66,3.83.17,8.15-1.43,1.12-3.35,2.27-3.34,1.06C415.92,272.94,409.15,270.69,411.17,264.39Z" />
    <path class="rabota3-8"
      d="M416.08,237.84c1.18-2.33,3.37-2.94,5.68-3.35-.1,1.94,1,4.36-1.55,5.42C418.32,240.7,416.56,240.31,416.08,237.84Z" />
    <path class="rabota3-7"
      d="M434.75,231.61l4.09-2.91c10.92,6.18,21.86,12.34,32.75,18.58a19.25,19.25,0,0,1,3.09,2.72l-5.54,3.14c-11.84-4.2-21.64-12.15-32.64-17.88C435.13,234.55,434.74,233.11,434.75,231.61Z" />
    <path class="rabota3-9"
      d="M445.93,284.77c1.62.9,3.25,1.78,4.86,2.71,7,4,7.15,6,1.06,10.44a1.33,1.33,0,0,1-2.17-.4c-1.92-4-3.68-8.16-5.48-12.26Z" />
    <path class="rabota3-3" d="M469.14,253.14l5.54-3.14c2,.23,4.4,0,4.37,3.14l-5.64,2.95-3.94-.33Z" />
    <path class="rabota3-16"
      d="M539.47,294.6,538.84,370C526.9,363.15,515,356.19,503,349.46c-2.81-1.58-4.16-3.32-4.12-6.67.26-24,.36-48,.5-72.05.83-.33,1.65-.65,2.48-1-.34,3.34,2.24,4.43,4.47,5.72Q522.88,285.08,539.47,294.6ZM511.9,322.9c-.2,5.93,4.75,8.74,4.9,13.37,0,.62,1.18.87,2.22.12,6.36-4.57,6.25-5.76-1.24-10.15C516.16,325.29,514.52,324.39,511.9,322.9Zm2.78-31.19c-.26,3.92,1.81,6.24,5.4,7,2.36.47,3.21-1.27,3.2-3.48a7,7,0,0,0-6.08-7.38C514.42,287.25,514.83,289.93,514.68,291.71Z" />
    <path class="rabota3-16"
      d="M494.94,270.15c-3,19.79-.42,39.71-1.32,59.56-.18,4,0,8,0,13.68-6.92-4-12.93-7.39-18.82-10.95-1.89-1.14-1.53-3.34-1.52-5.21q.08-34.87.2-69.74c7.91,1.63,13.34,8.59,21.38,9.94C494.87,268.34,494.9,269.24,494.94,270.15Zm-11.72,6.2c.48,2.45,2,2.93,3.94,1.78,1.48-.9,2.32-2.32.14-3.6,1-3.89-1.29-5.66-4.43-6.67a2.42,2.42,0,0,0-3.22,1.94C479.34,272.64,479.58,275.52,483.22,276.35ZM478,303.45c-1.74,5.69,5.13,8,4.49,13,0,.35,2.15,1.4,2.11.44-.15-3.5,4.42-1.69,4.63-4.62.23-3.19-2.33-3.75-4.23-4.9C482.84,306,480.55,304.85,478,303.45Z" />
    <path class="rabota3-7"
      d="M494.83,267.43c-8-1.35-13.47-8.31-21.38-9.94a3.87,3.87,0,0,1,0-1.4l5.64-2.95,5.74,0h0c1.84,3.41,5,4.26,8.53,4.34h0c1,4.47,5.57,4.65,8.45,6.86Z" />
    <path class="rabota3-3"
      d="M494.83,267.43l6.92-3.13c1.28.81,2.83,1.35,3.1,3.15l-3,2.32-2.48,1-4.43-.59C494.9,269.24,494.87,268.34,494.83,267.43Z" />
    <path class="rabota3-3"
      d="M544.67,371.53a8.86,8.86,0,0,1-5.43,1.47,2,2,0,0,1-.81-1c.32-.44.64-.89,1-1.33l3.43-2.05c.95-.58,2.18-1.4,2.78-.07C545.93,369.25,545,370.51,544.67,371.53Z" />
    <path class="rabota3-8"
      d="M513.36,365.69c-.2,1.87.33,4.66-2.46,4.14a7.21,7.21,0,0,1-6-6.93c-.16-2,.11-4.14,2.79-3.92C511.65,359.31,513.27,362,513.36,365.69Z" />
    <path class="rabota3-8"
      d="M531.92,375.85c-.09,2.13.23,4.66-2.61,4.11a7,7,0,0,1-5.78-6.26c-.28-1.92.15-4.54,2.38-4.24A6.81,6.81,0,0,1,531.92,375.85Z" />
    <path class="rabota3-8" d="M539.73,381.64c.17,1,.33,2.05.49,3.08A2.38,2.38,0,0,1,539.73,381.64Z" />
    <path class="rabota3-8"
      d="M504.85,267.45c-.27-1.8-1.82-2.34-3.1-3.15-2.88-2.21-7.41-2.39-8.45-6.86,3.49-.62,5.61,2.06,8.19,3.51,12.45,7,24.4,14.86,37.41,20.83,3,.59,4.86-1.67,7.1-2.95,3,0,4.54,2.51,6.86,3.69-1.6,12.81.92,24.78,6.94,36.19,2.72,5.15,5.81,10.26,6.29,16.32l-1.13,1c-5-8.23-8.61-17.47-17.35-22.84-.85-7.21,1.77-14.68-1.59-21.71-2.12-5.21-7.72-5.52-11.7-8C524.8,277.65,515.73,270.86,504.85,267.45Z" />
    <path class="rabota3-7"
      d="M504.85,267.45c10.88,3.41,19.95,10.2,29.47,16.07,4,2.46,9.58,2.77,11.7,8l-6.56,3.1q-16.56-9.54-33.14-19.1c-2.23-1.29-4.81-2.38-4.47-5.72Z" />
    <path class="rabota3-8"
      d="M554.77,341.69l-7.25-6.94q.06-8.79.13-17.56c7.42,5.39,10.82,13.5,14.46,21.45C559.7,339.75,557.64,341.7,554.77,341.69Z" />
    <path class="rabota3-9"
      d="M562.11,338.64c-3.64-7.95-7-16.06-14.46-21.45,0-1.33,0-2.65,0-4,8.74,5.37,12.37,14.61,17.35,22.84A3.89,3.89,0,0,1,562.11,338.64Z" />
    <path class="rabota3-8"
      d="M576.35,406c-.58-1.42-1.7-1.71-3.07-1.49l-3.71-.21c.13-.77.25-1.54.37-2.31.2-3.17,1.89-6.13,1-9.47-1.66-6.4.85-7.62,6.32-4.86C577.28,393.82,578.94,400,576.35,406Z" />
    <path class="rabota3-8"
      d="M585.78,321.41c-3.27.65-5.32-2.09-8.07-2.89-.32-2.89.66-5.9-.8-8.69-.1-2.25-.19-4.49-.28-6.74a.81.81,0,0,0,.86.07c6.06-1.54,7.7-5.44,7.42-11.52-.51-11.3-.2-22.64-.24-34-1.49-2.66-5.5-3.22-5.74-6.91,6.08-2.3,6.21-7.29,5.88-12.63-.19-3,.05-6.07.1-9.11,2.53,4.38,1.41,9.22,1.05,13.7-.61,7.73.83,14.12,7.66,18.53-2.4,1.05-5.6,1.08-6,4.69-2.53,2.31-1.37,5.34-1.41,8-.14,9.46-.09,18.93,0,28.39,0,2.26-.82,4.82,1.6,6.53Q586.79,315.15,585.78,321.41Z" />
    <path class="rabota3-11"
      d="M590.15,221c5,.23,5,3.08,4.94,6.07-.1,7.54-.07,15.09-.26,22.63,0,1.55,1.09,4.29-1.83,4.24-2.08,0-2.87-2-2.87-4.18C590.17,240.39,590.15,231,590.15,221Z" />
    <path class="rabota3-11"
      d="M590,273.5c4.71.7,4.88,3,4.87,5.49,0,7.8.1,15.6,0,23.4,0,1.53,1.17,4.26-1.73,4.3-2,0-3.12-1.8-3.12-4C590,293,590,283.39,590,273.5Z" />
    <path class="rabota3-15"
      d="M584.67,257.68c0,11.32-.27,22.66.24,34,.28,6.08-1.36,10-7.42,11.52q0-17.67.09-35.34c0-2.59-.21-5.2,1.51-7.44Z" />
    <path class="rabota3-11"
      d="M573.32,295.29c-4.47-.11-4.46-2.78-4.45-5.51,0-7.86,0-15.71.06-23.56,0-1.44-.93-3.85,1.45-4s2.94,1.92,2.94,4Z" />
    <path class="rabota3-11" d="M576.63,303.09l.27,6.74-.9,5.09c-1.62-1.2-1.24-3-1.28-4.6l-.27-7.27Z" />
    <path class="rabota3-12"
      d="M574.45,303.05l.27,7.27c-2.46-1.91-1.23-4.58-1.43-7A2,2,0,0,1,574.45,303.05Z" />
    <path class="rabota3-12"
      d="M572.6,301.56a5.24,5.24,0,0,1-.27-.85c0-.11.19-.25.29-.37A.88.88,0,0,1,572.6,301.56Z" />
    <path class="rabota3-11"
      d="M573.39,242.62c-3.84,0-4.48-2-4.47-4.7.05-8.26,0-16.52.08-24.78,0-1.34-1-3.8,1.68-3.71,1.76.06,2.7,1.65,2.67,3.56,0,1.18,0,2.36,0,3.54Q573.4,229.57,573.39,242.62Z" />
    <path class="rabota3-2"
      d="M569.94,402c-.12.77-.24,1.54-.37,2.31-2,.12-3.88.05-4.28-2.45a5.67,5.67,0,0,1,.45-1.93Z" />
    <path class="rabota3-2"
      d="M554.48,395c-.84.06-1.63.34-1.85.09a2.29,2.29,0,0,1-.5-1.75c.14-.82.88-.84,1.37-.3A9,9,0,0,1,554.48,395Z" />
    <path class="rabota3-15"
      d="M576,314.92l.9-5.09c1.47,2.79.49,5.8.81,8.69a3,3,0,0,1-1.09.27c-.21-.55-.43-1.1-.65-1.66Z" />
    <path class="rabota3-8"
      d="M487.64,344.5a31,31,0,0,1,0,4.2c-.3,2.24,1.28,6.08-3.05,5.53-3.44-.44-5.89-2.77-5.53-6.9s2.65-4.28,5.84-2.91a7.88,7.88,0,0,0,2.76.1Z" />
    <path class="rabota3-13"
      d="M543.13,232.1c-.11,12.19-.11,12.19-9.57,6.71-10.58-6.12-12.42-10.41-10.28-22.91.45-2.61,1.36-3.39,3.67-2.14,2.49,1.34,4.83,3,7.42,4.15C541.23,220.85,545.33,225.21,543.13,232.1Z" />
    <path class="rabota3-1"
      d="M499.44,198.65c2.16.36,4.45.49,5.41,3q-.17,9.89-.32,19.77c-2.67.11-3.89-2.14-5.65-3.52Q499.17,208.29,499.44,198.65Z" />
    <path class="rabota3-9"
      d="M468.27,180.79c2-.33,3.28.86,4.63,2,0,2.44-.09,4.89-.13,7.34l-.54,4.25a2.83,2.83,0,0,0,.73,3.12l-.18,5.4a20.28,20.28,0,0,1-7.81-3.71l-.12-.24c6.53,1.5,3-3.33,3.51-5.6a6.4,6.4,0,0,0-.16-6.34Q468.25,183.88,468.27,180.79Z" />
    <path class="rabota3-9"
      d="M490.12,213.14,487.58,212c-.13-3.69,1-7.49-1-11,0-.47,0-.94,0-1.41,1.75-2.44.68-5.35,1.36-8l2.61,1.43c-.08,2.8-.15,5.61-.22,8.41l1.3,2.77C489.17,206.84,491,210.23,490.12,213.14Z" />
    <path class="rabota3-11"
      d="M504.53,221.44q.17-9.88.32-19.77c1.7-.09,2.74,1,3.82,2.1-1.6,2.52-1.15,5.27-.91,8l.3,4.13c-.18,2.43-.37,4.85-.55,7.27Z" />
    <path class="rabota3-11"
      d="M499.44,198.65q-.29,9.63-.56,19.27l-3.23-1.6q.09-4.57.19-9.15l-.15-4c.22-2.22.43-4.43.65-6.65Z" />
    <path class="rabota3-11"
      d="M479.79,207.39l-.67-.14-1.5-1.23c-.22-.41-.42-.84-.6-1.27l.9-3.27c1.88-3.62,1.54-7.28.23-11-.1-1.57-.56-3.24,1.14-4.34l1.42,1.12c0,2.92-1.73,6,.87,8.65a.51.51,0,0,0-.15.7l0,4.13c0,.65.07,1.3.11,1.95C480,203.93,480.35,205.83,479.79,207.39Z" />
    <path class="rabota3-15"
      d="M507.51,223.17c.18-2.42.37-4.84.55-7.27l3.46-1.38c1,1.36-2.68,4.55,1.78,4.57-.17,2.43.79,5-.78,7.39C510.24,226.21,509.05,224.41,507.51,223.17Z" />
    <path class="rabota3-1"
      d="M495.84,207.17q-.1,4.58-.19,9.15c-2.15-.53-4.76-.25-5.53-3.18.87-2.91-.95-6.3,1.58-8.92C492.68,205.75,491.39,210.49,495.84,207.17Z" />
    <path class="rabota3-6"
      d="M507.76,211.77c-.24-2.73-.69-5.48.91-8,5.56.89,4.53,5.2,4.64,8.93l-1.78.64A3.63,3.63,0,0,0,507.76,211.77Z" />
    <path class="rabota3-1"
      d="M496.34,196.51c-.22,2.22-.43,4.43-.65,6.63-1.54-1.29-3-2.89-5.29-1.69.07-2.8.14-5.61.22-8.41A8.35,8.35,0,0,1,496.34,196.51Z" />
    <path class="rabota3-2"
      d="M479.29,186.17c-1.7,1.1-1.24,2.77-1.14,4.34l-.76,1.38a7.16,7.16,0,0,0-4.62-1.8c0-2.45.09-4.9.13-7.34C476.28,181.54,477,185.38,479.29,186.17Z" />
    <path class="rabota3-1"
      d="M468.27,180.79q0,3.09-.07,6.18l-1,3.83L464.14,189a5.73,5.73,0,0,0,.39-4.46l.3-5.68A2.87,2.87,0,0,1,468.27,180.79Z" />
    <path class="rabota3-1"
      d="M482.11,187.84a2.05,2.05,0,0,1,2.68,1.25c-.89,2.43,2.42,4.81.08,7.25l-3.44.31a.52.52,0,0,1,.15-.71C481.76,193.24,481.93,190.54,482.11,187.84Z" />
    <path class="rabota3-2" d="M486.61,201c1.93,3.53.84,7.33,1,11l-2.82-1.82.21-6.83Z" />
    <path class="rabota3-12"
      d="M477.92,201.47l-.9,3.28-.64,0c.18-3,.45-6.12-3.42-7.25a2.83,2.83,0,0,1-.73-3.12l4.19,1.68C478.66,197.35,477,199.78,477.92,201.47Z" />
    <path class="rabota3-1"
      d="M485,203.36c-.08,2.27-.15,4.55-.22,6.82-1.24.08-2.44.08-2.87-1.45-.13-2-.25-4-.38-6,0-.65-.07-1.3-.11-1.94l2,.25C484,201.8,484.46,202.58,485,203.36Z" />
    <path class="rabota3-17"
      d="M464.14,189c1,.59,2,1.18,3.06,1.76-.41.64-.82,1.29-1.22,1.94a5.7,5.7,0,0,1-1.3.15c-3.51,1.35-.65,4-1.15,5.89C460.8,195.34,461.09,192.1,464.14,189Z" />
    <path class="rabota3-2"
      d="M484.87,196.34c2.34-2.44-1-4.82-.08-7.25l3.22,2.52c-.68,2.62.39,5.53-1.36,8-.59-.68-1.19-1.35-1.78-2A4.9,4.9,0,0,1,484.87,196.34Z" />
    <path class="rabota3-1" d="M473,197.46c3.87,1.13,3.6,4.21,3.42,7.25-1.52,0-2.92-.23-3.6-1.85Z" />
    <path class="rabota3-2" d="M464.83,178.89l-.3,5.68C459.38,182.4,462.17,180.65,464.83,178.89Z" />
    <path class="rabota3-2" d="M482.11,187.84c-.18,2.7-.35,5.4-.53,8.1-2.6-2.65-.91-5.73-.87-8.65Z" />
    <path class="rabota3-2" d="M463.53,198.77c.5-1.94-2.36-4.54,1.15-5.89.06,2,.11,4,.17,6l.12.24Z" />
    <path class="rabota3-14"
      d="M511.53,213.34l1.78-.64q0,3.2,0,6.39c-4.46,0-.76-3.21-1.78-4.57A1.26,1.26,0,0,0,511.53,213.34Z" />
    <path class="rabota3-2"
      d="M481.51,202.72c.13,2,.25,4,.38,6l-2.1-1.34C480.35,205.83,480,203.93,481.51,202.72Z" />
    <path class="rabota3-12" d="M477.62,206l1.5,1.23C477.07,208.73,477.89,206.71,477.62,206Z" />
    <path class="rabota3-4"
      d="M538.9,281.78c-13-6-25-13.85-37.41-20.83-2.58-1.45-4.7-4.13-8.19-3.51h0c-1.89-3.32-5-4.29-8.53-4.34h0c-3.17-5.9-10-6.5-14.76-10.08-2.45-1.84-5.34-3.08-7.83-4.86s-4.45-3.89-1.6-7c13.45,5.9,25.63,14.11,38.43,21.2,13.41,7.43,26.15,16.08,40.17,22.44Z" />
    <path class="rabota3-3"
      d="M538.9,281.78l.3-7a12,12,0,0,1,6.8,4C543.76,280.11,541.92,282.37,538.9,281.78Z" />
    <path class="rabota3-11"
      d="M511.9,322.9c2.62,1.49,4.26,2.39,5.88,3.34,7.49,4.39,7.6,5.58,1.24,10.15-1,.75-2.2.5-2.22-.12C516.65,331.64,511.7,328.83,511.9,322.9Z" />
    <path class="rabota3-8"
      d="M514.68,291.71c.15-1.78-.26-4.46,2.52-3.91a7,7,0,0,1,6.08,7.38c0,2.21-.84,3.95-3.2,3.48C516.49,298,514.42,295.63,514.68,291.71Z" />
    <path class="rabota3-11"
      d="M478,303.45c2.52,1.4,4.81,2.57,7,3.91,1.9,1.15,4.46,1.71,4.23,4.9-.21,2.93-4.78,1.12-4.63,4.62,0,1-2.15-.09-2.11-.44C483.16,311.48,476.29,309.14,478,303.45Z" />
    <path class="rabota3-17"
      d="M483.22,276.35c-3.64-.83-3.88-3.71-3.57-6.55a2.42,2.42,0,0,1,3.22-1.94c3.14,1,5.47,2.78,4.43,6.67C485.66,274.5,484,274.42,483.22,276.35Z" />
    <path class="rabota3-8"
      d="M483.22,276.35c.77-1.93,2.44-1.85,4.08-1.82,2.18,1.28,1.34,2.7-.14,3.6C485.27,279.28,483.7,278.8,483.22,276.35Z" />
    <path class="rabota3-8"
      d="M484.78,253.09c3.56,0,6.64,1,8.53,4.34C489.77,257.35,486.62,256.5,484.78,253.09Z" />
    <path class="rabota3-8"
      d="M476.42,196l-4.19-1.68.54-4.25a7.16,7.16,0,0,1,4.62,1.8C477.07,193.26,476.74,194.64,476.42,196Z" />
    <path class="rabota3-1"
      d="M464.85,198.91c-.06-2-.11-4-.17-6a5.7,5.7,0,0,0,1.3-.15l2.38.58C467.82,195.58,471.38,200.41,464.85,198.91Z" />
    <path class="rabota3-8"
      d="M468.36,193.31l-2.38-.58c.4-.65.81-1.3,1.22-1.94.33-1.27.66-2.54,1-3.82A6.4,6.4,0,0,1,468.36,193.31Z" />
    <path class="rabota3-17"
      d="M490.4,201.45c2.31-1.2,3.75.4,5.29,1.69l.15,4c-4.45,3.32-3.16-1.42-4.14-2.95Z" />
    <path class="rabota3-7"
      d="M484.87,197.55c.59.67,1.19,1.34,1.78,2,0,.48,0,1,0,1.42-.55.78-1.09,1.57-1.64,2.36-.51-.77-1-1.55-1.54-2.32Z" />
    <path class="rabota3-12"
      d="M511.53,213.34a1.26,1.26,0,0,1,0,1.18l-3.46,1.38-.3-4.13A3.63,3.63,0,0,1,511.53,213.34Z" />
    <path class="rabota3-9"
      d="M476.42,196c.32-1.38.65-2.76,1-4.13l.76-1.38c1.31,3.69,1.65,7.35-.23,11C477,199.78,478.66,197.35,476.42,196Z" />
    <path class="rabota3-8"
      d="M484.87,197.55,483.43,201l-2-.25,0-4.14,3.44-.3A4.9,4.9,0,0,0,484.87,197.55Z" />
  </g>
</svg>