<svg id="Layer_1" data-name="Layer 1" xmlns="http://www.w3.org/2000/svg" viewBox="0 0 732.52 732.52">
  <defs>
    <style>
      .rabota14-1 {
      fill: #cbcbcb;
      }

      .rabota14-2 {
      fill: #a09f9f;
      }

      .rabota14-3 {
      fill: #dedfdf;
      }

      .rabota14-4 {
      fill: #0580f9;
      }

      .rabota14-5 {
      fill: #cb2223;
      }

      .rabota14-6 {
      fill: #ededec;
      }

      .rabota14-7 {
      fill: #782121;
      }

      .rabota14-8 {
      fill: #2367b9;
      }

      .rabota14-9 {
      fill: #097ff6;
      }

      .rabota14-10 {
      fill: #fadf0a;
      }

      .rabota14-11 {
      fill: #696868;
      }

      .rabota14-12 {
      fill: #4b3939;
      }

      .rabota14-13 {
      fill: #dba686;
      }

      .rabota14-14 {
      fill: #9e4a29;
      }

      .rabota14-15 {
      fill: #4e4b4b;
      }

      .rabota14-16 {
      fill: #e8494d;
      }

      .rabota14-17 {
      fill: #fcfcfc;
      }

      .rabota14-18 {
      fill: #fefefe;
      }
    </style>
  </defs>
  <g>
    <path class="rabota14-1"
      d="M245.77,199.56q0-52,0-104c2.08,1,4.26,1.73,6.23,2.87,14.47,8.42,28.83,17,43.35,25.34,16.76,9.61,33.7,18.9,50.45,28.52,14.31,8.23,28.4,16.83,42.68,25.09q29.88,17.28,59.92,34.25c3.7,2.09,6.8,5.41,11.33,5.91,0,2-.07,4-.07,6q0,110.78-.08,221.56c0,2.23.82,4.7-1.15,6.63l-2.79-1.26c-.18-1.83.55-3.85-1.12-5.37.75-3.72-.88-6-4.29-7.34a33.47,33.47,0,0,1-3.92-2.17C427.49,424.76,408.64,414,389.85,403c-2.93-1.71-5.36-1.62-8.35,0-3.77,2-7,5.22-11.51,5.65-1.25-.89-3.79-1.49-2.59-3.44,3.92-6.37,1.69-12.92,1.11-19.44-.31-3.46-2.19-8.14,4.65-5,.74.35,1.93-.27,2.91-.44q21.75,12.71,43.5,25.42c3.43,2,6.8,3.38,10-.31,6.88,6.33,15.67,9.6,23.44,14.51,2.32,1.47,2.58-.92,2.58-2.64,0-4.48.22-9-.05-13.42-.25-4.21,1.24-8.57-1-12.62,0-1.26,0-2.53.08-3.8-.74-1.85-2.43-2.59-4-3.5-10.73-6.17-21.35-12.52-32.19-18.47-4.66-2.57-8.64-6.74-14.48-6.85l-.31-.17c0-1.4-.69-2.05-2.08-2l.07,0c-.36-1-1.15-1.13-2.06-1l.06,0c-.53-1.16-1.57-1.05-2.57-1.05l-.24.14-.2-.19c.05-1.43-.68-2-2.05-1.93l.06,0c-.35-1-1.15-1.13-2.05-1l0,.14c-2.54-3.16-5.07-6.37-9.8-3.66-6.62,3.8-13.38,7.38-19.79,11.51-2.61,1.68-6.59,2-7.38,6-2.09,2.78-.18,3.49,2.07,4,.07.37.13.74.19,1.1-.4,1-.34,2.2.75,2.55,7.33,2.31,8.76,7.74,8.24,14.57-.18,2.4.78,4.88,1,7.34a15.91,15.91,0,0,1-1.08,7.29c-.87,2.28-1.9,2.76-3.94,1.22-3.46-2.61-7.57-4-11.44-5.84q.13-28.05.29-56.09c0-2.08-.56-4.38,1.5-6,.75,1.63,1.38,3.34,2.89,4.48l.88.89c6.09,4.67,13.57,4.7,16.51-.6a14.41,14.41,0,0,1,11.17-7.85l6.94-.18,2,.18a3,3,0,0,0,1.78,2.72,241.42,241.42,0,0,1,25.08,14.53,6.35,6.35,0,0,0,6.9.58c7.62,5.89,16.37,9.88,24.58,14.78,2.9,1.73,3.65.65,3.62-2.37-.1-9.43,0-18.86,0-28.3-.17-1.37.45-2.92-.92-4a12.73,12.73,0,0,0-2.11-2c-8.57-5-17.17-10-25.76-14.95-.13-3.1-.43-6.16-2.58-8.66-.5-.51-1-1-1.49-1.52l-1-1.06-1.62-1.41c-5.44-4.13-11.52-4.32-17.83-2.81-2.51.61-4.86,1.11-6.58-1.48l-1-1.48-.54.54,1.51.95c-.27,1-1.79,1.51-1.1,2.87-.07,2.81-.21,5.63-.19,8.44s-1.67,3.36-3.85,3.49c-2.52.14-3-1.44-3-3.54,0-2.81-.12-5.63-.19-8.45.07-.63.13-1.27.2-1.91.68-2.54-1.62-2.77-2.94-3.76,15.93,1.17,31.07-1.26,44.85-9.83,8.52-5.3,10.7-14.09,5.61-22.76-3.1-5.28-6.44-10.42-9.68-15.63-2.13-2.55-1.21-7.33-5.87-8l0,0c-.44-3.58-3.66-4.39-6.07-5.84-8.44-5-17.82-4.59-27.1-4.18-13.32.58-24.19,5.09-28.71,19l-9,14.1a36.23,36.23,0,0,0-16.61-14.39,39.3,39.3,0,0,1-4.4-2.32Q291.75,223,255.7,202A15.58,15.58,0,0,0,245.77,199.56Z" />
    <path class="rabota14-1"
      d="M458.8,612.23c-14.95-7.54-29.12-16.43-43.61-24.78s-28.7-16.56-43.1-24.77c-1.69-1-3.34-2.22-5.44-2.31l-.09-34.06c4.37-5.22,2.8-9.37-4.86-12.92,0-1.07,0-2.14,0-3.2-.11-1.66-1-4.46-2.3-3.22-4,3.73-6.78.39-10-.7-2.14-2.3-5-3.32-7.76-4.66-2.84-1.77-5.63-3.38-6.65,1.75l-3.26,2.06c-1.43.1-3-.47-4.22.7a3.75,3.75,0,0,0-.82,0l-.23-2.88c3.94-4.23,3.24-9-1.91-12.86,3.86-1.71,8-3,11.5-5.26,2.69-1.73,4-1,5.54,1,2.06,1.72,4.27,2.16,6.18,0s.08-3.23-1.53-4.25l-2.54-1.41c-.37-1.26,1-1.82,1.14-2.89,3.11-3,3.8-7,4.36-11,.2-1.32.4-2.64.61-4,2.67-.23,1.81-2.34,1.81-3.76,0-8.38-.08-16.76-.14-25.14q.12-13.75.22-27.5c4,2.19,7.82,4.82,12.69,2.2,2.09-1.12,3.21.65,4.34,2-4.08,3.38-10.14,3.91-13,9-1.38,1.5-1.67,3.06.5,3.9,3,1.16,5.43,3.16,8.13,4.74,17.85,10.43,35.8,20.67,53.71,31,3.62,2.08,7.2,4.37,11.39,1.28q11.13,6.56,22.27,13.09c2.57,1.51,4.08,1.11,3.93-2.25a34.48,34.48,0,0,1,0-5c.46-4.35-1.28-8.91,1.21-13.07,1,.31,2.1.39,2.75,1.39-.52,26.27.31,52.52-.66,78.8S458.78,585.94,458.8,612.23Z" />
    <path class="rabota14-2"
      d="M458.44,451.75c2-1.93,1.15-4.4,1.15-6.63q.09-110.79.08-221.56c0-2,.05-4,.07-6,11.2-6.39,22.5-12.63,33.57-19.24,7.79-4.64,16-8.6,23.32-14,1.81,1.61,1,3.75,1,5.63q.12,57.94.12,115.88c-2.23,5.2-4.17,10.54-6.77,15.55a10,10,0,0,0,0,10.14,7.73,7.73,0,0,1,.84,3.82c-9.31,2-11.91,5.17-12.34,15.1-1.33,1.59-.81,3.5-.83,5.29-.11,9.82-.15,19.65-.22,29.47-1.72,5.39-.4,10.93-.87,16.38-1.68,5.1-.81,10.36-1,15.56-.38,7.22-.67,14.45-1.2,21.65-.15,2,.41,2.75,2.29,2.72,1.44,3.71-3.44,3.45-3.79,6,.1,2.24-1.68,5,1.68,6.34l-2.13,1.24c-10.84,5.86-21.19,3.46-31.39-1.82C460.9,452.69,459.65,452.26,458.44,451.75Z" />
    <path class="rabota14-2"
      d="M351.7,406.22q-.1,13.74-.22,27.5l-4.78,4.71c-1.33-1.14-1.42-2.86-2-4.36-2.25-5.63-4.65-11.19-8.74-15.82-.61-2.8-2.65-4.53-4.7-6.25a13.74,13.74,0,0,0-5.08-6c-.41-.7-.77-1.44-1.24-2.11-.59-.84-.48-2.56-2.2-2.05a2.61,2.61,0,0,0-1.82,2.67c0,1.15-.35,2.56.18,3.41,2.73,4.35,2.16,9.49,3.66,14.11,1.41,4.37,2.73,8.82,6.42,12a9,9,0,0,0,4.09,5l1,1,1.08.42-.43-1.14-1-1a13.91,13.91,0,0,0-4-4.94c-5.31-7.42-6.44-16.18-8-24.81-.21-1.18.07-2,1.51-1.77a22.83,22.83,0,0,0,5,6,21.55,21.55,0,0,0,4.85,6.21c2.31,4.54,4.83,9,6.87,13.63,3,6.88,2.65,7.44-4.12,9.73-3.09,3-7.8,3.65-10.47,7.25-5.25,1.57-9.32,5.29-14.09,7.73-1,.53-1.85,1.5-2.9.15a21.75,21.75,0,0,0,1.08-4.79c0-14.38-.06-28.75-.11-43.13.06-38.44.33-76.89,0-115.32-.06-8.73-5-15.95-12.48-20.43q-28.25-16.87-56.93-33c-11.61-6.5-22.14-15.2-35.53-18.27C219.79,215,233,207.7,245.77,199.56A15.58,15.58,0,0,1,255.7,202q36,21,72.12,41.94a39.3,39.3,0,0,0,4.4,2.32,36.23,36.23,0,0,1,16.61,14.39c-4.87,9.62-3.93,15.08,3.88,22.51a10.64,10.64,0,0,0-.8,2.83c-.1,11.16-.1,22.32-.18,33.48,0,1.41.5,3-1.1,4l-2.95-1.92c-.87-.48-1.73-1-2.62-1.44-1.21-.62.22-3.71-2.29-2.79-2,.73-.91,2.92-1.08,4.47a10.45,10.45,0,0,0,.29,2.42c2.07-.46,3.44-2.9,5.62-1.24,2.53,3.93,4.07,8.3,5.67,12.64-2.06,1.6-1.49,3.9-1.5,6q-.18,28-.28,56.09c-2.83,0-3.49-2-4-4.22-1.51-6.28-2.86-12.61-4.7-18.79-1.2-4-2.24-8.44-6.75-10.46-.48-.44-.89-1.07-1.46-1.28-1.33-.5.52-3.71-2.2-2.69-2,.75-1.5,2.82-1.25,4.32.85,5.09,3-.79,4.35.45,5.86,6.08,6.9,14.05,8.27,21.79.67,3.76-3.15,9.41-6.14,10.18a4.14,4.14,0,0,1-4.07-.8c-1.18-1-2.28.33-2.36,1.5-.12,1.71-1,3.86.56,5.08,1.08.87,2.06-.52,2.35-1.68.48-2,1.85-2.56,3.62-2.72C344.6,397,349,400.14,351.7,406.22Zm-29.3-76.35c-.75,1.93-1.92,3.77-.89,6a1.4,1.4,0,0,0,1.28.09c1.59-1.82,1.11-3.87.45-5.91C323.21,330,323,330,322.4,329.87Zm.52,43.47c.82-3.46,1.56-5.5-.5-7.78C321.39,368.06,321.25,370,322.92,373.34Zm9.84-43.65c1.31-2.4,1.43-4.07-.25-6.26C331.46,325.77,331.2,327.45,332.76,329.69Zm10.12,30.25c.63-1.71,1.72-3.47-.31-5.37A4.18,4.18,0,0,0,342.88,359.94Z" />
    <path class="rabota14-3"
      d="M206.64,222.51c13.39,3.07,23.92,11.77,35.53,18.27q28.7,16.07,56.93,33c7.49,4.48,12.42,11.7,12.48,20.43.3,38.43,0,76.88,0,115.32-5.55-4-8.93-10.12-14-14.55-7.57-6.64-15.39-13-23.27-19.3-5.37-4.29-10.58-8.84-16.64-12.2q-.09-5-.19-10c.22-6.19,2.48-12.27.53-18.6a5.24,5.24,0,0,0-4.54-3.88c-2.54-.49-2.83,1.87-3.6,3.34-1.49,2.86-1.65,6.5-5,8.19-1.15-.59-2.32-1-3-2.33-4.07-7.26-6-15.29-8.66-23.09a2.18,2.18,0,0,1,.14-1.82c.9-1,1.79,0,2.64.34,6.13,2.38,10.84,7.17,17.05,9.64,7.3,2.89,13.18,8.68,20.76,11.26,8.53,5.08,17.1,10.12,25.59,15.27,3.09,1.86,3.53.55,3.46-2.33-.14-5.32-.18-10.65,0-16a5.18,5.18,0,0,0-2.89-5.25l-28.14-15.84c-1.74-2.72-5.12-2.9-7.4-4.8-5.35-4.45-11.78-7.27-17.49-11.24-3.41-2.36-8.13-3.82-12.13-5.92-8.65-4.53-15.69-10.22-20-19.81-2.79-6.24-6.76-13-13.93-16.14,0-6.65.2-13.3-.13-19.93C200.42,229.25,201.88,225.15,206.64,222.51Zm29.83,33.33c0,7.86,0,15.44,0,23a4.32,4.32,0,0,0,2.59,3.93c11.49,6.6,23,13.13,34.46,19.83,3,1.75,2.91.1,2.91-2,0-5.49-.16-11,.13-16.47.21-3.9-.63-6.81-4.56-8.3-1.05-.39-2.36-.91-2.1-2.41.52-3.09-2.1-3.62-3.74-5.15-2.59-2.4-3.63.58-5.4,1-2,.44-9.22-5.66-9.84-7.85-1-3.53-4.38-4-7-5.56C241.78,260.39,239.25,256.21,236.47,255.84Z" />
    <path class="rabota14-2"
      d="M458.8,612.23c0-26.29-.81-52.62.16-78.88s.14-52.53.66-78.8c2.57.17,4.73,1.54,6.93,2.62,9.21,4.48,18.21,4.38,27.11-.78v.11c.79,3-2.78,4-2.92,6.6l-2.07,2.35-4.76,2c-2.51.67-5.39.77-6.14,4.08,0,.56.15,1,.88,1h0c.24,1.2,1,1.4,2,1l0,0c-.17.85.38,1,1,1h0a3.44,3.44,0,0,0,3,2l-.1,0c1.95,2.15,4.73,3,7.12,4.42,1,.6,2.2.91,2.11,2.4-.25,3.89,1.89,7.38,1.94,11.2,0,2.75,1.32,4.63,3.91,4.94,5,.6,5.92,3.59,5.33,7.84a21.16,21.16,0,0,0-.11,3.47c.34,11.56-.89,23.14.74,34.67l.19,40.76c-9.1,3.73-17.06,9.53-25.65,14.18C473,604.25,465.9,608.28,458.8,612.23Z" />
    <path class="rabota14-4"
      d="M218,447.45a.82.82,0,0,1,.21.73c-.17,10.87-.77,21.76,1.21,32.55,3.37,15.72,2.85,32,6.35,47.68,2.12,9.51,5.64,18.71,6.52,28.49-.07,8.37-.27,16.77-.17,25.16.07,5.26-1.95,9.1-6.52,11.64-7.05,1.4-14,2.41-19.7-3.66-2.83-2.62-2.81-6.18-3.12-9.6-.46-5.09-.84-10.19-1.26-15.28-.1-5.9.67-11.89-1.73-17.57.24-19.94-5.57-38.74-10.82-57.65a10.57,10.57,0,0,1-.82-2.85c0-6.24-3.37-7.31-9.11-8-8.22-.95-16.16-4-21.15-11.57-.66-6.66-1.5-13.32-.06-20,1.78-.32,2.1,2.18,3.81,2,2.71,2.91,6.4,3.59,10,4.48,10.58,2.61,21.14,2.12,31.8.35C209.09,453.42,213.29,450,218,447.45Z" />
    <path class="rabota14-4"
      d="M217.54,419.94q.21,6,.43,12.05c0,3.32,0,6.64-.05,10-6.12,6.93-14.37,9-23,9.49-8.41.45-16.93,1-25.1-2.05-2.15-3.6-2.58-3.78-4-1.7l-1.88-.48a14.7,14.7,0,0,0-6-5.85,15.47,15.47,0,0,1,.23-6.94c5.65-20.63,2-40.79-3-60.88-.65-2.57-1.12-5.19-1.67-7.77q.09-7.95.17-15.91c.71-5,3-9.39,5.6-13.63,1.32-2.15,2.56-4.43,5.45-4.83-1,3,2.09,6.18-.22,9.2-.56,2.2-3.2,3.45-2.79,6.09l-.78,1.19c-1.68,4.52-1.39,9.08-.34,13.67l1.15,1.67c-.27,1.92,1.66,2.77,2.54,3.26,7.94,4.45,16,8.77,24.19,12.71,4,1.93,9.92-.48,11.06-4.46,1.06-3.7,3-7,3.69-10.92.75-4.13,2.51-8.17,6.51-10.54,2.34.83,4.67,1.67,6.09,3.91-8,5-9.32,18.93-7.12,25.07,2,5.69,6.64,8.33,11.19,11.27-.62,6.93-2.31,13.75-2.3,20.75l.05.06A5.07,5.07,0,0,0,217.54,419.94Z" />
    <path class="rabota14-5"
      d="M573.41,505.47c-1.89,23.83,4.84,46.36,10.55,69,3.38,13.43,2.46,27.1,2.34,40.7,0,2.67-1.62,5.33-2.49,8-9.61,6.54-22.14,6.18-28.26-2.76-2.48-8.23-1.85-16.8-2.75-25.2-.77-7.27-1.5-14.58-1.57-21.88-.13-15.3-6-29.16-10.43-43.36-.93-3-1-6.22-2.95-8.84-.17-1.65,0-3.42-.54-4.94-5.86-16.38-16-30-27.54-42.79,2.41-4.58,5.07-.71,7.63-.22,5.51,6.26,5.51,6.26,14.12,2.27,3.64,3.14,7.62.28,11.43.51,1.91.12,3,.22,2.75,2.2-.94,7.35,2.77,14.23,2.11,21.57-.15,1.59.65,3.24.75,4.88.24,4.07,2.46,4.84,6.25,5.1C561.56,510.17,567.19,506.71,573.41,505.47Z" />
    <path class="rabota14-6"
      d="M217.51,414.27c0-7,1.68-13.82,2.3-20.75,6.17-.73,11.81,2.76,17.95,2.23.82,2.72,3.61,1.77,5.36,2.83,11.6,7,23.32,13.88,35,20.76,1.3.76,2.85,2.89,4.16,1.06,1.48-2-.9-3.24-2.38-4.1-7.69-4.51-15.59-8.69-23.14-13.42-3.22-2-7.72-2.65-9.11-7.09,2.48-.81,3.45-2.8,4-5.12q3-13.62,6-27.22c6.06,3.36,11.27,7.91,16.64,12.2,7.88,6.28,15.7,12.66,23.27,19.3,5.05,4.43,8.43,10.54,14,14.55.05,14.38.14,28.75.11,43.13a21.75,21.75,0,0,1-1.08,4.79c-3.3,3.83-7.05,5.24-11.79,2.48-12.05-7-24.05-14.12-36.24-20.86-5.9-3.26-11.16-7.74-17.82-9.58a95,95,0,0,0-19.47-11.59C222.68,416.74,220.84,413.69,217.51,414.27Zm14.05-17.06c-.73-.11-1.42-.17-1.64.66-.52,1.94,1,2.58,2.26,3.34Q250,411.59,267.81,422c3.86,2.25,7.7,4.53,11.59,6.75,1,.57,2.26,1.23,3-.25.63-1.29-.34-2.17-1.38-2.82-.56-.36-1.17-.62-1.75-1q-22.51-13.11-45-26.22C233.36,398,232.45,397.63,231.56,397.21Z" />
    <path class="rabota14-1"
      d="M244.73,429.46c6.66,1.84,11.92,6.32,17.82,9.58,12.19,6.74,24.19,13.85,36.24,20.86,4.74,2.76,8.49,1.35,11.79-2.48,1.05,1.35,1.86.38,2.9-.15,4.77-2.44,8.84-6.16,14.09-7.74l16,9.18c-1.14,5.71-4,10.94-4.72,16.76-.39,1.45.15,3.57-2.35,3.55-4.92,0-9,2.63-13.31,4.27-4.61.17-9.23,3-13.81-.1-1.46-3.21-4.91-3.51-7.48-5.11-2.56-2-4.73-2.19-6.08,1.34a1.38,1.38,0,0,0-.32.58,7,7,0,0,0-3.59,1.95c-3.15-.68-5.11.62-6,3.63L280,487.14a5.08,5.08,0,0,0-.7.35c-1.39,1.9-3,3.55-5.36,4.17-3.27-.73-5,1-5.94,3.83l-2.82,1.69c-2-.12-4-.69-5.53,1.21-2.67-1.65-5.16-3.8-8-4.86-5.78-2.14-7.2-5.91-7.06-11.85C245,464.29,244.73,446.87,244.73,429.46Z" />
    <path class="rabota14-7"
      d="M509.77,473.41c11.49,12.78,21.68,26.41,27.54,42.79.54,1.52.37,3.29.54,4.94-2.81,10.26-5.64,20.47-4,31.37,1.79,12,3.22,24,4.63,36,.46,3.91.92,8-2.8,11-2,.19-3,2.22-5.35,2.1-5.79-.3-11.6-.09-17.4-.13-3.12,0-4.91-1.62-5.25-4.74-.12-1.12.22-2.37-1-3.15-1.24-2.32-.11-4.94-.9-7.32q-.09-20.38-.19-40.76,0-33.18,0-66.34C505.62,476.15,505.42,473.15,509.77,473.41Z" />
    <path class="rabota14-6"
      d="M215.74,357.18c-1.42-2.24-3.75-3.08-6.09-3.91-.82-1.49-2.31-1.73-3.76-2,.38-5.55-3.27-7-8.53-7.68,7.75-2.19,6.43-7.9,6.34-13.1,0-2.63,0-5.27-.1-7.9,0-1.25.27-2.78-1.66-3,.29-1.7,1.31-3.31.67-5.14,4.11-4.75,4.21-9.53,1.55-15.32-1.44-3.13-3.45-6.16-4.21-9.64.92-.7.83-1.33-.15-1.88l-.46-1.75c1.92-1.25,1.37-3.22,1.38-5,.06-8.78.06-17.56.08-26.34,7.17,3.17,11.14,9.9,13.93,16.14,4.3,9.59,11.34,15.28,20,19.81,4,2.1,8.72,3.56,12.13,5.92,5.71,4,12.14,6.79,17.49,11.24,2.28,1.9,5.66,2.08,7.4,4.8,0,2.36,1.28,4.73,0,7.08-.59.16-1.57.16-1.72.51-2.56,6.09.08,11.67,6.84,13.9-1-3-2-5.68-2.95-8.4,2.45.34,1.08-3.31,3.84-3.39a71.5,71.5,0,0,0,.05,7.49c.35,3.42-.16,6.11-4.06,6.92-7.58-2.58-13.46-8.37-20.76-11.26-6.21-2.47-10.92-7.26-17.05-9.64-.85-.33-1.74-1.34-2.64-.34a2.18,2.18,0,0,0-.14,1.82c2.62,7.8,4.59,15.83,8.66,23.09.73,1.31,1.9,1.74,3,2.33.1,2.7-1,5.51.78,8-.86,3.95-1.14,8.18-2.45,11.81s-.83,7.38-2.86,10.81c-1.77,3-2.89,2.93-5.13.91a54.43,54.43,0,0,1-7.36-8.26C224.73,361.61,221,358.38,215.74,357.18Zm49.76-29.5a2,2,0,0,0,.43.23c.11,0,.35-.05.35-.09.29-5.08,1.4-10.2-.59-15.19-2.06-1.48-4-3.23-6.77-3.51-.21,2.59-.35,4.9-.58,7.21C257.59,323.78,258.1,324.61,265.5,327.68Zm-18-10.23c2.3,1.77,5.11,4.75,7.43,3.63,1.87-.9.27-5.1.69-7.79.87-5.63-1.39-9-6.95-10.26-.73-.71-1.76-.81-1.76.29C247,308,245.91,312.8,247.54,317.45Zm-3.72-2.21a29.8,29.8,0,0,0,.05-15.46l-7.34-4.23C234.5,310.5,234.82,311.32,243.82,315.24Zm-11.95-6.38c.64.46,1.56.36,1.57-.29.07-5,1.22-10.08-.61-15a26.93,26.93,0,0,0-8.09-4.27c0,2.35.14,4.34,0,6.31C224.21,301.61,224.39,307.18,231.87,308.86ZM213.8,283.13v9.19c0,6.91.72,7.81,8,9.63,0-2.72-.35-5.43.07-8C222.9,287.88,220.26,284.6,213.8,283.13Z" />
    <path class="rabota14-8"
      d="M157.9,467.54c5,7.6,12.93,10.62,21.15,11.57,5.74.67,9.11,1.74,9.11,8a10.57,10.57,0,0,0,.82,2.85c-.22,1.13-.47,2.25-.64,3.39-1.48,9.59-5.39,18.86-4.5,28.74.74,8.21,2.21,16.36,3.35,24.54.26,5.25.67,10.51.76,15.77.11,5.78-3.22,9.1-9,9.16-5.12.05-10.23,0-15.35-.07a9.69,9.69,0,0,1-4.85-8.68C158.35,531,157,499.3,157.9,467.54Z" />
    <path class="rabota14-3"
      d="M516.63,184.31c-7.32,5.42-15.53,9.38-23.32,14-11.07,6.61-22.37,12.85-33.57,19.24-4.53-.5-7.63-3.82-11.33-5.91q-30-17-59.92-34.25c-14.28-8.26-28.37-16.86-42.68-25.09-16.75-9.62-33.69-18.91-50.45-28.52-14.52-8.33-28.88-16.92-43.35-25.34-2-1.14-4.15-1.92-6.23-2.87,4.75-5.78,5.72-5.76,11.82-2.16,14.84,8.77,29.81,17.32,44.74,25.93q33.8,19.52,67.61,39,26.31,15.12,52.66,30.17c11.08,6.36,22.26,12.57,33.17,19.22,3.05,1.86,5.32,1.86,8.19.18,14.3-8.37,28.7-16.58,43-25C510.8,180.58,513.94,180.08,516.63,184.31Z" />
    <path class="rabota14-9"
      d="M567.93,367.56c10.57,5.28,15.26,13.95,15.78,25.63.5,11.11,1.64,22.21,2.88,33.26.7,6.21-1.14,11.13-5.74,15.08-3.27,2.81-6.74,5.38-10.12,8.05-1.18,2.11-5.19,1.35-5,4.89l-1.11.93a1.32,1.32,0,0,0-.77.21c-4.48.76-6.65,5.54-11.09,6.38-3.23-6.9-3.2-7,3.33-7.57a2.29,2.29,0,0,0,2-1.3c.49-.9,0-1.6-.54-2.24-1.18-1.43-2.85-1.58-4.53-1.64l-.2.15c0-.74-.51-.9-1.12-.91-3.65-2.43-8-.89-11.89-2.18,8.42-5.33,16-11.82,24.26-17.38,3.23-2.18,3.77-4.38,3.71-7.95-.15-8.58-3-16.9-2.32-25.52l0-7.9C566.24,380.88,564.19,373.86,567.93,367.56Z" />
    <path class="rabota14-10"
      d="M511.84,335.33a7.73,7.73,0,0,0-.84-3.82,10,10,0,0,1,0-10.14c2.6-5,4.54-10.35,6.77-15.55,5.9-2.84,11.17-7.12,18.48-6.34,6.6.7,11.19,4,13.6,10.23a47.3,47.3,0,0,0,4.27,9.17c4.8,7.08,2.56,12.41-2.57,17.67a12.81,12.81,0,0,0-5.57,2.87c-3.87,2.29-8.18,1.71-12.38,2.08-6.74.61-12.65-2.17-18.79-4.08C514.11,336.28,513.35,335.28,511.84,335.33Z" />
    <path class="rabota14-2"
      d="M366.56,526.31l.09,34.06c.75,4.57-1.27,7.08-5.35,9.3-12.39,6.73-24.45,14.06-36.73,21-2.14,1.21-4,3.47-7,2.8.05-13.19.6-26.38-.29-39.56l.37-.45c2.56-.32,4.53-1.89,6.67-3.12Q345.45,538.31,366.56,526.31Zm-41.45,35.32c1.27.29,2.23-.47,3.21-1q11.83-6.81,23.65-13.67c2.72-1.58,5.53-3,8.15-4.76s2.2-4.8,1.18-6.72c-1.32-2.47-3.09.16-4.44.92-9.11,5.09-18,10.56-27.27,15.36C325.06,554.07,323.75,557,325.11,561.63Zm36.55-10.12c.61-4.32-1-4-4-2.22-5.37,3.29-10.94,6.24-16.41,9.36-4.75,2.71-9.47,5.48-14.22,8.18-3.18,1.82-3.15,5.16-2,7.41s3.48-.25,4.91-1c9.57-5.29,19-10.8,28.49-16.26C360.58,555.73,362.42,554.32,361.66,551.51Z" />
    <path class="rabota14-10"
      d="M199.34,285.79c.15.58.3,1.17.46,1.75l.15,1.88c.76,3.48,2.77,6.51,4.21,9.64,2.66,5.79,2.56,10.57-1.55,15.32a34.18,34.18,0,0,1-9.5,4.12c-10.83,2.57-20.57.42-29.22-6.59-2-9.06,2.71-16.32,6.84-23.43,4-6.93,16-9,23.37-5.26C195.82,284.1,197.14,285.9,199.34,285.79Z" />
    <path class="rabota14-3"
      d="M277.68,569.43c-5.61.08-8.9-4.73-13.65-6.55-2.58-1-4.64-3.39-7.23-4.29-5.43-1.88-6.34-5.54-6.15-10.76.38-10.79.1-21.6.09-32.4l26.95,15a2.55,2.55,0,0,0,.79.35q.07,17.7.14,35.42C278.62,567.38,278.8,568.6,277.68,569.43Z" />
    <path class="rabota14-11"
      d="M278.48,530.82a2.55,2.55,0,0,1-.79-.35c1.06-5.66-.74-9.66-6.54-11.4-.61-.18-1.06-.81-1.65-1.1-6.65-3.29-12.23-8.54-19.52-10.65,1.58-4.54,6.33-4.73,9.56-7l.36.31-.12,3.44c-.08,2.15.68,3.38,3.11,3.34,2.6-.05,2.9-1.65,2.83-3.62,0-1.14-.16-2.29-.25-3.43a4.27,4.27,0,0,0-.26-3.18l2.82-1.69,1.55-.07c-.05,2.21-1.79,5.56,1.93,5.82,4.17.29,1.84-3.51,2.44-5.49a1.59,1.59,0,0,0,0-.48l.05-3.61c2.39-.62,4-2.27,5.36-4.17,0,.92,0,1.83,0,2.75a19.89,19.89,0,0,1-.87,2.26c-1.09,2.07,0,3.29,1.79,3.62,2,.35,3.57-.44,3.53-2.9l-.06-3c.49-3.1-1.66-3.05-3.71-3.12l5.8-1.56a6.08,6.08,0,0,0,1.75,4.89c1.3,1.29,3.45,1.51,3.7.28.56-2.83,2.88-5.75.59-8.8a7,7,0,0,1,3.59-1.95c.91,2-1.32,5.86,3.34,5.7,4.27-.15,2.57-3.24,2.71-5.44.11-.72.23-1.45.35-2.18,2.57,1.6,6,1.9,7.48,5.12-11,6.17-21.92,12.47-33,18.47-4.15,2.24-4.62,5-2.67,8.84.44,2-1.25,4.62,1.45,5.75a3.33,3.33,0,0,0,4.6-1.8l3,1c1.95,0,3.43-1.15,5-2,9.87-5.68,19.7-11.44,29.53-17.19,2-1.16,3.91-2.41,4.56-4.84l.93-.88,1.83-.12c5.15,3.9,5.85,8.63,1.91,12.86-4.26,1.45-7.93,4-11.77,6.27C302.58,516.53,290.54,523.7,278.48,530.82Z" />
    <path class="rabota14-3"
      d="M317.32,553.91c.89,13.18.34,26.37.29,39.56-4.57-1.06-8.25-4-12.31-6.05-1-.52-1.87-1.51-2.93-1.83-11-3.28-13.38-11.2-11.69-21.37q-.1-7-.23-14l.24-7.81c0-2.34.35-3.33,3.05-1.77C301.54,545.19,309.08,550.18,317.32,553.91Z" />
    <path class="rabota14-12"
      d="M163.89,311.91c8.65,7,18.39,9.16,29.22,6.59a34.18,34.18,0,0,0,9.5-4.12c.64,1.83-.38,3.44-.67,5.14-1.52.74-1.91,2.29-2.15,3.66-1,5.72-3.5,11-4.92,16.55-1.29,5.11-4.48,8.29-9.2,10.18a42.39,42.39,0,0,1-11.49,2.6c-3.29-1.14-6.45-2.58-8.13-5.83-1-1.85-.07-4.31-1.63-6.08,2.31-3-.8-6.16.22-9.2-.07-1.38-.15-2.75-.22-4.13Q164.15,319.59,163.89,311.91Z" />
    <path class="rabota14-12"
      d="M555.55,620.42c6.12,8.94,18.65,9.3,28.26,2.76,1.71,3.25.75,6.05-1.42,8.69-4.76,5.78-9.28,11.77-14.29,17.33-5.52,6.11-12.52,9.17-21,8.34-4.81-.48-6.85-2.66-6.71-7.46.22-7.65,4.13-13.92,7.95-20.15A46.23,46.23,0,0,1,555.55,620.42Z" />
    <path class="rabota14-9"
      d="M553.87,359.54l7.92,4.87c-1.56,1.57-4,2.4-4.19,5.12-2.31.64-1.64,2.62-1.67,4.11-.11,5.93,0,11.88-.06,17.82-3.06,4.73-5.5,5.21-10.18,2.45-5-3-10.51-5.3-15.28-8.64-5.18-3.62-12.16-5.15-14.84-11.91.17-3.62-.62-7.34,1.2-10.77,1.53.89,3,1.83,4.59,2.66,2.52,1.34,4.95,3.37,8,1.33,6.1,2.21,12.39,1.12,18.46.34A6.67,6.67,0,0,0,553.87,359.54Z" />
    <path class="rabota14-12"
      d="M506.67,593.52c1.21.78.87,2,1,3.15.34,3.12,2.13,4.71,5.25,4.74,5.8,0,11.61-.17,17.4.13,2.32.12,3.39-1.91,5.35-2.1.05,1.5-.22,3.08.2,4.46,1.08,3.56,1.64,7.65-1.66,9.52a12.51,12.51,0,0,1-11.41-.06c-1.12-.54-2.08-1.1-3.24-.6-12.07,5.18-24.9,1.63-37.28,3.17-2.41.3-3.51-1.59-4.29-3.49s.16-3.5,1.57-4.85c4.19-4,9.52-6,14.74-8.09,3.52-1.43,7.09-2.77,10.71-3.93A2.05,2.05,0,0,0,506.67,593.52Z" />
    <path class="rabota14-13"
      d="M529.39,366.58c-3.08,2-5.51,0-8-1.33-1.56-.83-3.06-1.77-4.59-2.65-1.63-1.79-1.84-4-2-6.3-.29-4.3,1.09-8.71-.8-12.9-.43-1.56,1.45-2.75.68-4.37l.13-1.61c6.14,1.91,12.05,4.69,18.79,4.08,4.2-.37,8.51.21,12.38-2.08,1.42,3.42-.31,7.33,1.65,11.59,2.08-4.19-.14-9.14,4.17-11.54,2.08-.07,2.73.95,2.92,3,.37,3.95-1.18,7.46-2,11.12C544.38,357,537.05,362.07,529.39,366.58ZM517.12,353c1.62,3.65,2.3,6.14,5.38,6.26a1.52,1.52,0,0,0,1.42-1.72C523.14,354.74,520.48,354.66,517.12,353Z" />
    <path class="rabota14-2"
      d="M317.32,553.91c-8.24-3.73-15.78-8.72-23.58-13.22-2.7-1.56-3.05-.57-3.05,1.77-5.46,1.22-7.51,3.71-5.74,8,1.52,3.73,3.6-.67,5.5-.24q.12,7,.23,14l-9.14,4.9c-1.24.67-2.42,2.07-3.86.31,1.12-.83.94-2,.94-3.19q-.06-17.72-.14-35.42c12.06-7.12,24.1-14.29,36.21-21.32,3.84-2.22,7.51-4.82,11.77-6.27.07,1,.15,1.92.23,2.88-.27.83-.53,1.66-.8,2.5-1.92,1.84-5.45-.54-6.87,2.63l-1.35,1.37a7.66,7.66,0,0,0-4.12,2.64c-1.3.4-3.06-.56-3.88,1.31l-1.81,1.9-2.51,1.32c-2.55.23-5.73-.55-5.84,3.63-4.71,1.32-8.42,4.56-12.69,6.72-2.8,1.42-2.18,4.29-1.87,6.7.26,2.08,1.68,1.62,2.9.68,1.07-.82,1-2.08.9-3.22-.28-4.63,1.51-4.08,4.57-2.15,6,3.8,12.11,7.57,18.44,10.82,4.55,2.34,6.86,5.35,5.93,10.5Z" />
    <path class="rabota14-14"
      d="M571.74,457.46a5.38,5.38,0,0,0-.06,1c0,4.62-.09,9.23,0,13.85,0,1.35-.31,3.42,2.28,2.37,5-2,5.76,1.08,5.8,4.87,0,5.27,0,10.54,0,15.82l-1,1.48c-5.82,2-11.71,3.81-17.43,6.07-5.3,2.09-9,.5-10-5a74.83,74.83,0,0,1-1.49-11.79c0-2.26-1.89-5.49,1.93-6.82h4.07c3.51-1.1,7.59-1.35,8.8-5.9.39,1.72.81,3.28,3.23,2.5,1.72-.56,2.82-1.23,2.78-3.37-.07-5.11.11-10.22.2-15.33A2.3,2.3,0,0,1,571.74,457.46Z" />
    <path class="rabota14-12"
      d="M225.61,593.7c4.57-2.54,6.59-6.38,6.52-11.64-.1-8.39.1-16.79.17-25.16,0,1.66.15,3.31.06,5-.21,4.14-.8,7.78,5.88,5.92,4.22-1.17,9.56,3.78,11,8.42,1.78,5.77.71,8.64-4.45,12.23-3.27,2.28-6.5,4.63-9.76,6.93-8.2,5.78-16.62,5.73-25.23,1,3.48-2.1,7.28-.27,10.87-.92C222.36,595.08,224.72,596.46,225.61,593.7Z" />
    <path class="rabota14-12"
      d="M163.63,571.47c5.12,0,10.23.12,15.35.07,5.75-.06,9.08-3.38,9-9.16-.09-5.26-.5-10.52-.77-15.78,4.4-2.11,8.59-1.56,12.62,1,2.4,5.68,1.63,11.67,1.73,17.57q-6.66,3.74-13.33,7.47Q175.54,579.77,163.63,571.47Z" />
    <path class="rabota14-12"
      d="M551.74,479.32c-3.82,1.33-2,4.56-1.93,6.82a74.83,74.83,0,0,0,1.49,11.79c1,5.47,4.67,7.06,10,5,5.72-2.26,11.61-4.07,17.43-6.07,1,4.56-2.47,6.41-5.29,8.64-6.22,1.24-11.85,4.7-18.6,4.25-3.79-.26-6-1-6.25-5.1-.1-1.64-.9-3.29-.75-4.88.66-7.34-3-14.22-2.11-21.57.25-2-.84-2.08-2.75-2.2-3.81-.23-7.79,2.63-11.43-.51a11.31,11.31,0,0,1,5.25-3.1q5.13,2.63,8.88-1.77c0-2,1.24-3,2.83-3.8l1.45,4.6Q550.83,475.35,551.74,479.32Z" />
    <path class="rabota14-15"
      d="M163.87,447.21l1.88.48c.71,2.07,2.43,1.77,4,1.7,8.17,3.05,16.69,2.5,25.1,2.05,8.66-.46,16.91-2.56,23-9.48l.72,1.56-.21,1.82c-.45.38-.56.79-.13,1.26a1.39,1.39,0,0,1-.29.85c-4.72,2.53-8.92,6-14.52,6.9-10.66,1.77-21.22,2.26-31.8-.35-3.64-.89-7.33-1.57-10-4.48C161.49,447.88,162.31,447.19,163.87,447.21Z" />
    <path class="rabota14-2"
      d="M250,507.32c7.29,2.11,12.87,7.36,19.52,10.65.59.29,1,.92,1.65,1.1,5.8,1.74,7.6,5.74,6.54,11.4l-26.95-15C248.77,512.89,249.81,510.06,250,507.32Z" />
    <path class="rabota14-16"
      d="M529.39,366.58c7.66-4.51,15-9.59,23.27-13q.6,3,1.21,6a6.67,6.67,0,0,1-6,7.38C541.78,367.7,535.49,368.79,529.39,366.58Z" />
    <path class="rabota14-5"
      d="M557.6,369.53c.16-2.72,2.63-3.55,4.19-5.12l6.14,3.15c-3.74,6.3-1.69,13.32-2.46,20-7.07-1-7.81-1.84-7.85-8.54C557.6,375.85,557.61,372.69,557.6,369.53Z" />
    <path class="rabota14-12"
      d="M579.7,495.35c0-5.28.07-10.55,0-15.82,0-3.79-.76-6.91-5.8-4.87-2.59,1-2.27-1-2.28-2.37,0-4.62,0-9.23,0-13.85,1.1,1.66,2.21,3.31,3.31,5-.5,7.5,1,9.09,6.29,6.66,2.7,1.78,1.85,4.64,1.93,7.07.13,4.07-.18,8.16-.31,12.24l-1.35,4Z" />
    <path class="rabota14-10"
      d="M164.42,327.27c.07,1.38.15,2.75.22,4.13-2.89.4-4.13,2.68-5.45,4.83-2.6,4.24-4.89,8.61-5.6,13.63l-1.74-.07c-1.07-7.3,0-13.89,5.78-19.18C159.63,328.78,161.64,327.33,164.42,327.27Z" />
    <path class="rabota14-10"
      d="M581.28,470.06c-5.29,2.43-6.79.84-6.29-6.66,2.86-3.57,4.62-.88,6,1.34A6,6,0,0,1,581.28,470.06Z" />
    <path class="rabota14-2"
      d="M219.43,480.73c-2-10.79-1.38-21.68-1.21-32.55C219.66,459,219.19,469.87,219.43,480.73Z" />
    <path class="rabota14-1"
      d="M581.55,493.36l1.35-4c3.17,4.46,2.12,9.91,3.41,14.82.19.7-.64,1.12-1.34,1-1-.21-1.09-1.07-1.24-1.91C583.14,499.93,583.4,496.41,581.55,493.36Z" />
    <path class="rabota14-12"
      d="M551.77,339.47c-4.31,2.4-2.09,7.35-4.17,11.54-2-4.26-.23-8.17-1.65-11.59a12.81,12.81,0,0,1,5.57-2.87C551.6,337.53,551.68,338.5,551.77,339.47Z" />
    <path class="rabota14-11"
      d="M225.61,593.7c-.89,2.76-3.25,1.38-5,1.7-3.59.65-7.39-1.18-10.87.92-2.89-1.11-3.74-3.49-3.87-6.29C211.58,596.11,218.56,595.1,225.61,593.7Z" />
    <path class="rabota14-15"
      d="M571.74,457.46a2.14,2.14,0,0,0-.93-.24c-.45-3.18-3.09-2.34-5-2.75-.22-3.54,3.79-2.78,5-4.89C571.11,452.2,574.1,454.49,571.74,457.46Z" />
    <path class="rabota14-8"
      d="M163.87,447.21c-1.56,0-2.38.67-2.22,2.31-1.71.21-2-2.29-3.81-2l0-6.19A14.7,14.7,0,0,1,163.87,447.21Z" />
    <path class="rabota14-13" d="M151.85,349.79l1.74.07q-.08,8-.17,15.91Q152.64,357.76,151.85,349.79Z" />
    <path class="rabota14-16"
      d="M265.21,497.18a4.27,4.27,0,0,1,.26,3.18l-5.57.27-.36-.31c0-.64.09-1.28.14-1.93C261.2,496.49,263.25,497.06,265.21,497.18Z" />
    <path class="rabota14-2"
      d="M218.64,443.52l-.72-1.56c0-3.33,0-6.65.05-10A29.69,29.69,0,0,1,218.64,443.52Z" />
    <path class="rabota14-6"
      d="M217.54,419.94a5.07,5.07,0,0,1,0-5.61C217.55,416.2,217.55,418.07,217.54,419.94Z" />
    <path class="rabota14-2"
      d="M218.3,446.6c-.43-.47-.32-.88.13-1.26C218.39,445.76,218.34,446.18,218.3,446.6Z" />
    <path class="rabota14-5"
      d="M352.71,283.17c-7.81-7.43-8.75-12.89-3.88-22.51l9-14.1c.3,0,.6,0,.91,0l0,0c1.36,7.22,6,11.51,12.49,14.32a50.5,50.5,0,0,0,27.56,3.78c12.44-1.69,22.83-5.72,26.79-19.06,3.24,5.21,6.58,10.35,9.68,15.63,5.09,8.67,2.91,17.46-5.61,22.76-13.78,8.57-28.92,11-44.85,9.83l-6.09-.31C369.65,290.94,360.75,288.14,352.71,283.17Z" />
    <path class="rabota14-17"
      d="M404,358.66c5.84.11,9.82,4.28,14.48,6.85,10.84,5.95,21.46,12.3,32.19,18.47,1.58.91,3.27,1.65,4,3.5a24.82,24.82,0,0,0-3.66,1.43q-12,6.91-24,14c-1.26.74-2.15,1.82-3.92.64-2.87-1.9-6-3.38-9-5.1q-17.4-10-34.78-20.06L405,362.84l-.11-.11a.87.87,0,0,0,.69-1.19C405.89,360.11,404.79,359.47,404,358.66Z" />
    <path class="rabota14-17"
      d="M370,408.63c4.54-.43,7.74-3.66,11.51-5.65,3-1.57,5.42-1.66,8.35,0,18.79,10.93,37.64,21.73,56.47,32.58a33.47,33.47,0,0,0,3.92,2.17c3.41,1.35,5,3.62,4.29,7.34-1,.89-2.74.9-2.89,2.67-2,.82-4-.35-6-.29l-2-.12.07,0c-5.9-3-12.1-.54-18.14-1h.05c-1.08-1.62-2.05-3.13-1.8-5.37,1-8.77-2.46-11.7-11.19-9.79-4.32,1-8.47,2.84-13.05,2.39-5.31-.64-8.58-4.93-12.95-7.25l.07.08c.08-.8-.34-1.1-1.08-1.09l.08.09c0-.72-.32-1.12-1.08-1.08l.08.08c0-.75-.33-1.11-1.08-1.09l.09.09c0-.75-.41-1-1.09-1.09l.09.09c0-.7-.31-1.14-1.09-1.08l.08.07a41,41,0,0,0-11.06-11.07l.08.06Z" />
    <path class="rabota14-17"
      d="M426.88,313.56c8.59,5,17.19,9.93,25.76,14.95a12.73,12.73,0,0,1,2.11,2c-5.17,3-10.44,5.8-15.49,9-14,8.74-13.95,8.79-28.16.28-4.08-2.44-9-3.58-11.83-7.91,4.86-.88,9.79-1.42,14.35-3.54,5.19-1.8,9.7-4.44,11.91-9.86Z" />
    <path class="rabota14-11"
      d="M387.49,299.44c.07,2.82.2,5.64.19,8.45,0,2.1.47,3.68,3,3.54,2.18-.13,3.87-.79,3.85-3.49s.12-5.63.19-8.44c3.55-.2,6.72,1.59,10.17,2l6.79,4c.56,2,1.64,3.84,1.21,6-5.85,15.09-38.27,15-44.36,0-.29-4.15,1.41-6.87,5.17-9,2.26-1.26,4.95-1.48,6.91-3.25.22,1,.49,1.94,1.84,1.21A9.84,9.84,0,0,1,387.49,299.44Z" />
    <path class="rabota14-2"
      d="M455.67,334.52c0,9.44-.1,18.87,0,28.3,0,3-.72,4.1-3.62,2.37-8.21-4.9-17-8.89-24.58-14.78C436.67,344.76,445.69,338.78,455.67,334.52Z" />
    <path class="rabota14-16"
      d="M358.71,246.53c-.31,0-.61,0-.91,0,4.52-13.95,15.39-18.46,28.71-19,9.28-.41,18.66-.84,27.1,4.18,2.41,1.45,5.63,2.26,6.07,5.84-10.4-6.55-21.7-9.48-33.95-8-9.05,1.1-17.72,3.32-22.76,12-1.69,2.91-2.89,6.2,1.45,8.26-.89,2.6,1.37,3.49,2.74,4.66,4.78,4,10.52,5.9,16.63,6.77a55.82,55.82,0,0,0,14.89.1,29.06,29.06,0,0,0,11.72-3c3.74-1.83,7.73-3.48,9.29-7.92,3.2-1.86,2-4.79,1.63-7.38-.29-1.86-2.09-3.33-1.66-5.47,4.66.7,3.74,5.48,5.87,8-4,13.34-14.35,17.37-26.79,19.06a50.5,50.5,0,0,1-27.56-3.78c-6.52-2.81-11.13-7.1-12.49-14.32.08-.14.17-.27.26-.4Z" />
    <path class="rabota14-2"
      d="M454.6,391.28c2.21,4.05.72,8.41,1,12.62.27,4.46.08,8.94.05,13.42,0,1.72-.26,4.11-2.58,2.64-7.77-4.91-16.56-8.18-23.44-14.51Z" />
    <path class="rabota14-15"
      d="M370,408.63l.77,1.85c-.69,1.1-1.36,0-2,0-1.13-1.38-2.25-3.15-4.34-2-4.87,2.62-8.71,0-12.69-2.2-2.73-6.08-7.1-9.24-14-7.81,0-.46-.07-.92-.1-1.38,3-.77,6.81-6.42,6.14-10.18-1.37-7.74-2.41-15.71-8.27-21.79a1.88,1.88,0,0,1,.56-.8c4.51,2,5.55,6.42,6.75,10.46,1.84,6.18,3.19,12.51,4.7,18.79.53,2.23,1.19,4.22,4,4.22,3.86,1.84,8,3.23,11.43,5.84,2,1.54,3.07,1.06,3.94-1.22a15.91,15.91,0,0,0,1.08-7.29c-.23-2.46-1.19-4.94-1-7.34.52-6.83-.91-12.26-8.24-14.57-1.09-.35-1.15-1.5-.75-2.55,4,2.32,7.93,4.75,12,6.92,2.42,1.29,5,2.09,6.77-1.22a15,15,0,0,0,6.56-3.77c5-1.69,9.19-4.65,13.45-7.58l4.9-2.49,3.33.38-25.64,15.51a4.92,4.92,0,0,0-3.25,2c-1,.17-2.17.79-2.91.44-6.84-3.17-5,1.51-4.65,5,.58,6.52,2.81,13.07-1.11,19.44C366.2,407.14,368.74,407.74,370,408.63Zm-19.34-8.11-.29-.49c0,.09,0,.24,0,.27a1.37,1.37,0,0,0,.37.15c2.59,6.27,6.67,8.3,13.32,5.94C359.6,403.52,356,400.26,350.65,400.52ZM345.18,396a2,2,0,0,0-.2-3C344.21,394.06,344,395,345.18,396Z" />
    <path class="rabota14-3"
      d="M376.07,380.34a4.92,4.92,0,0,1,3.25-2q17.39,10,34.78,20.06c3,1.72,6.14,3.2,9,5.1,1.77,1.18,2.66.1,3.92-.64q12-7,24-14a24.82,24.82,0,0,1,3.66-1.43c0,1.27-.06,2.54-.08,3.8l-25,14.17c-3.23,3.69-6.6,2.32-10,.31Q397.82,393,376.07,380.34Z" />
    <path class="rabota14-17"
      d="M401.63,362.46l-4.9,2.49c-3.06-5.24-8.7-6.46-13.67-8.7-.25-.11-.94.74-1.43,1.15-3.36,0-6.63.12-7.87,4.14v0a1.76,1.76,0,0,0-2,1.06c-1.4-1.28-2.08.12-3,.79a2.83,2.83,0,0,0-3.11,2.06l0,0c-1.8-.27-3,.7-4.13,1.9a6.56,6.56,0,0,1-.87.14c-1.59-.88-2.92-2.41-5-2,.79-4,4.77-4.29,7.38-6,6.41-4.13,13.17-7.71,19.79-11.51,4.73-2.71,7.26.5,9.8,3.66-2.3-.3-4.55-.32-6.44,1.26C391.61,355,399.45,359.83,401.63,362.46Z" />
    <path class="rabota14-17"
      d="M380.6,299.32c-2,1.77-4.65,2-6.91,3.25-3.76,2.09-5.46,4.81-5.17,9-.95,4.56-2.89,6.55-7.23,3-.73-.61-1.87-.7-2.71-1.2-4-2.35-3.86-5.49.08-7.82,6.7-4,13.34-8,20-12l6.09.31c1.32,1,3.62,1.22,2.94,3.76C385.12,297.32,382.85,298.27,380.6,299.32Z" />
    <path class="rabota14-3"
      d="M455.67,334.52c-10,4.26-19,10.24-28.2,15.89a6.35,6.35,0,0,1-6.9-.58,241.42,241.42,0,0,0-25.08-14.53,3,3,0,0,1-1.78-2.72l5.56-.75c2.81,4.33,7.75,5.47,11.83,7.91,14.21,8.51,14.17,8.46,28.16-.28,5.05-3.16,10.32-6,15.49-9C456.12,331.6,455.5,333.15,455.67,334.52Z" />
    <path class="rabota14-15"
      d="M445.67,447.5c2-.06,3.93,1.11,6,.29.32,2.39,2.42,2.17,4,2.7l2.79,1.26c1.21.51,2.46.94,3.61,1.54,10.2,5.28,20.55,7.68,31.39,1.82.07.43.15.85.22,1.28-8.9,5.16-17.9,5.26-27.11.78-2.2-1.08-4.36-2.45-6.93-2.62-.65-1-1.76-1.08-2.75-1.39l-10.81-3.91a2.46,2.46,0,0,1-.42-.69Z" />
    <path class="rabota14-11"
      d="M360.7,367.48a6.56,6.56,0,0,0,.87-.14l1.46.17c4,3.89,9.55,5.2,13.69,8.79-1.73,3.31-4.35,2.51-6.77,1.22-4.08-2.17-8-4.6-12-6.92-.06-.36-.12-.73-.19-1.1Z" />
    <path class="rabota14-11"
      d="M401.63,362.46c-2.18-2.63-10-7.46-15.42-9.53,1.89-1.58,4.14-1.56,6.44-1.26l0-.14c.28,1.14,1,1.42,2.05,1l-.06,0c0,1.37,1.23,1.43,2.05,1.93l.2.19.24-.14a2.44,2.44,0,0,0,2.57,1.05l-.06,0c.26,1.19,1,1.43,2.06,1l-.07,0c-.06,1.45,1.23,1.47,2.08,2l.31.17c.79.81,1.89,1.45,1.54,2.88l-.69,1.19.11.11Z" />
    <path class="rabota14-15"
      d="M384.72,332.58a14.41,14.41,0,0,0-11.17,7.85c-2.94,5.3-10.42,5.27-16.51.6l.87-.77c8,4.1,11.22,3.38,16.13-3.7a11.09,11.09,0,0,1,10.67-5Z" />
    <path class="rabota14-15"
      d="M404.88,301.48c-3.45-.39-6.62-2.18-10.17-2-.69-1.36.83-1.88,1.1-2.87h0c1.72,2.59,4.07,2.09,6.58,1.48,6.31-1.51,12.39-1.32,17.83,2.81l-.75.83c-3.85-1.53-7.63-3.39-11.94-3C405.9,298.84,403.9,298.77,404.88,301.48Z" />
    <path class="rabota14-15"
      d="M399.27,331.83l-5.56.75-2-.18-1-.94a.54.54,0,0,0,.12-.54,88.79,88.79,0,0,0,21.78-3.53l1.1.9C409.06,330.41,404.13,331,399.27,331.83Z" />
    <path class="rabota14-15"
      d="M353.27,335.66c-1.6-4.34-3.14-8.71-5.67-12.64,0-.47,0-.94.08-1.42l2.95,1.92c2,5.29,3.44,10.82,6.29,15.77l-.76.85C354.65,339,354,337.29,353.27,335.66Z" />
    <path class="rabota14-15"
      d="M426.88,313.56l-1.35,4.87-.93-1.07c-.05-1.95,1.12-3.89,0-5.84.72-2.17-.81-3.88-1.18-5.82l.85-.8C426.45,307.4,426.75,310.46,426.88,313.56Z" />
    <path class="rabota14-3"
      d="M360.7,367.48l-2.95,2c-2.25-.52-4.16-1.23-2.07-4C357.78,365.07,359.11,366.6,360.7,367.48Z" />
    <path class="rabota14-2"
      d="M455.65,450.49c-1.59-.53-3.69-.31-4-2.7.15-1.77,1.93-1.78,2.89-2.67C456.2,446.64,455.47,448.66,455.65,450.49Z" />
    <path class="rabota14-15"
      d="M380.6,299.32c2.25-1.05,4.52-2,7.09-1.79-.07.64-.13,1.28-.2,1.91a9.84,9.84,0,0,0-5.05,1.09C381.09,301.26,380.82,300.32,380.6,299.32Z" />
    <path class="rabota14-12" d="M390.62,331.46l1,.94-6.94.18c0-.34,0-.67,0-1Z" />
    <path class="rabota14-17" d="M395.81,296.63l-1.51-.95.54-.54,1,1.48Z" />
    <path class="rabota14-17"
      d="M403.69,358.49c-.85-.49-2.14-.51-2.08-2C403,356.44,403.71,357.09,403.69,358.49Z" />
    <path class="rabota14-17"
      d="M396.67,354.46c-.82-.5-2.05-.56-2.05-1.93C396,352.44,396.72,353,396.67,354.46Z" />
    <path class="rabota14-17"
      d="M401.68,356.57c-1.06.39-1.8.15-2.06-1C400.53,355.44,401.32,355.57,401.68,356.57Z" />
    <path class="rabota14-15" d="M420.23,300.91l1.62,1.41-.79,1-1.58-1.55Z" />
    <path class="rabota14-17"
      d="M394.68,352.57c-1.06.38-1.77.1-2.05-1C393.53,351.44,394.33,351.56,394.68,352.57Z" />
    <path class="rabota14-15" d="M422.81,303.37l1.49,1.53-.85.8c-.51-.53-1-1.06-1.52-1.58Z" />
    <path class="rabota14-17"
      d="M399.68,355.56a2.44,2.44,0,0,1-2.57-1.05C398.11,354.51,399.15,354.4,399.68,355.56Z" />
    <path class="rabota14-15" d="M421.85,302.32l1,1.06-.88.74-.87-.83Z" />
    <path class="rabota14-15" d="M357,341l-.88-.89.76-.85,1,1Z" />
    <path class="rabota14-11"
      d="M317.69,553.46c.93-5.15-1.38-8.16-5.93-10.5-6.33-3.25-12.41-7-18.44-10.82-3.06-1.93-4.85-2.48-4.57,2.15.07,1.14.17,2.4-.9,3.22-1.22.94-2.64,1.4-2.9-.68-.31-2.41-.93-5.28,1.87-6.7,4.27-2.16,8-5.4,12.7-6.72a11.81,11.81,0,0,1-.92,7.41c7,.7,7.06.7,7-5.64,0-1.8-.19-3.6-.3-5.4l2.51-1.32c0,.83,0,1.66.09,2.49.14,1.72-.51,3.81,2.14,4.36a3.93,3.93,0,0,0,4.62-2c1-1.77,1.77-3.7-.79-5-.12-1-.25-2.05-.37-3.07a7.66,7.66,0,0,1,4.12-2.64c.89,2.23-1.64,5.52,2,6.85,1.18.43,3.12.64,3.56-.7a12.52,12.52,0,0,0,.32-5.81c-.46-2.62-2.9-1.36-4.51-1.71,1.42-3.17,5-.79,6.87-2.63-.34,2.75.06,5.28,2.86,6.57,1.87.87,3.19-.46,3.94-1.92,1-2,1.89-4.23-.82-5.81-.05-.68-.09-1.35-.14-2l3.26-2.06a4.26,4.26,0,0,1,.79.16,10.72,10.72,0,0,0-.1,2c.2,1.47-.77,3.54,1.58,4s3.36-1.53,4.14-3.26c.36-.81.06-1.91.06-2.88l.18-1.75c2.71,1.34,5.62,2.36,7.76,4.66-10.53,6-21,12.21-31.65,17.93-4,2.13-5.8,4.64-4.8,9-.06,1.14-.16,2.28-.18,3.42,0,1.53.16,3.06,1.93,3.53,2,.53,3.56,0,4.1-2.28,1.43.08,2.58,1.79,4.2.72a6.31,6.31,0,0,0,1.94-.39c11.28-6.49,22.58-13,33.79-19.61,1.77-1.06,3.53-2.62,3-5.24,7.66,3.55,9.23,7.7,4.86,12.92q-21.1,12-42.2,24C322.22,551.57,320.25,553.14,317.69,553.46Z" />
    <path class="rabota14-17"
      d="M368.73,410.45c.67.05,1.34,1.13,2,0l-.08-.06a26.7,26.7,0,0,0,11.06,11.07l-.08-.07c0,.38,0,.75-.05,1.13l1.14-.05-.09-.09c-.57,1.29-.2,1.65,1.09,1.09l-.09-.09c0,.38,0,.76-.05,1.14l1.13-.05-.08-.08c0,.37,0,.75-.05,1.12l1.13,0-.08-.09c0,.38,0,.76-.05,1.13l1.13,0-.07-.08c2.28,5,6.77,7,11.67,8.32,4.53,2.05,8.65-.24,12.83-1.31,9.28-2.38,11.62-.56,11.06,8.94-.15,2.46-.24,4.85,3.43,4.07h-.05c1.05,1.92,2.87,1,4.33,1.07,3.56.18,7.13.14,10.7.19-2.77,5-8.54,5.78-12.57,9-2.2,1.75-4.39,1.51-6.83.07-10-5.87-20-11.62-30.11-17.35-11.79-6.69-23.61-13.31-35.42-20C358.59,414.36,364.65,413.83,368.73,410.45Z" />
    <path class="rabota14-3"
      d="M313,533.24c-1-4.4.83-6.91,4.8-9,10.69-5.72,21.12-11.92,31.65-17.93,3.23,1.09,6,4.43,10,.7,1.33-1.24,2.19,1.56,2.3,3.22a5.76,5.76,0,0,0-1.93.46c-10.43,7.4-21.81,13.2-32.85,19.58-3.56,2.06-5.15,4.41-3.93,8.4-1.62,1.07-2.77-.64-4.2-.71C319.89,532.56,315.76,533.73,313,533.24Z" />
    <path class="rabota14-2"
      d="M446.06,449.25l10.81,3.91c-2.49,4.16-.75,8.72-1.21,13.07a34.48,34.48,0,0,0,0,5c.15,3.36-1.36,3.76-3.93,2.25q-11.15-6.52-22.27-13.09c.91-1.5,2.6-1.94,3.93-2.87C437.51,454.62,442.48,453,446.06,449.25Z" />
    <path class="rabota14-3"
      d="M446.06,449.25c-3.58,3.76-8.55,5.37-12.69,8.25-1.33.93-3,1.37-3.93,2.87-4.19,3.09-7.77.8-11.39-1.28-17.91-10.31-35.86-20.55-53.71-31-2.7-1.58-5.14-3.58-8.13-4.74-2.17-.84-1.88-2.4-.5-3.9,11.81,6.65,23.63,13.27,35.42,20,10.07,5.73,20.12,11.48,30.11,17.35,2.44,1.44,4.63,1.68,6.83-.07,4-3.23,9.8-4,12.57-9,1-.45,2.15.7,3.11-.28l-.07,0c-.11,1.66,1.21.95,2,1.18A2.46,2.46,0,0,0,446.06,449.25Z" />
    <path class="rabota14-2"
      d="M323,538.63c-1.22-4,.37-6.34,3.93-8.4,11-6.38,22.42-12.18,32.85-19.58a5.76,5.76,0,0,1,1.93-.46c0,1.06,0,2.13,0,3.2.56,2.62-1.2,4.18-3,5.24-11.21,6.63-22.51,13.12-33.79,19.61A6.31,6.31,0,0,1,323,538.63Z" />
    <path class="rabota14-15"
      d="M338.82,475.47c.73-5.82,3.58-11.05,4.72-16.76,2.22-5.25.16-9.39-3.3-13.23a27.33,27.33,0,0,1-2.2-3.19c6.77-2.29,7.13-2.85,4.12-9.73-2-4.65-4.56-9.09-6.87-13.63.22-.23.43-.46.65-.68,4.09,4.63,6.49,10.19,8.74,15.82.6,1.5.69,3.22,2,4.37a108.92,108.92,0,0,0,3.11,24.18c-.21,1.32-.41,2.64-.61,4l-1.35-.11c0-.83-.06-1.65-.05-2.48,0-1.51.24-3.3-1.67-3.68-2.46-.5-1.69,2-2.1,3-1.6,4-2.75,8.1-4.08,12.17Z" />
    <path class="rabota14-11"
      d="M349.81,462.62a108.92,108.92,0,0,1-3.11-24.18l4.78-4.72c.06,8.38.16,16.76.14,25.14C351.62,460.28,352.48,462.39,349.81,462.62Z" />
    <path class="rabota14-12"
      d="M338.82,475.47l1.13,0c.11,1.21-.82,3,.35,3.52,1.86.9,2.43-1.47,3.67-2.26l.87.8c-.11,1.07-1.51,1.63-1.14,2.89l-.05,1.21c-2.61-.45-3.4.37-1.95,2.78l-.11,1.66c-1.55-2-2.85-2.73-5.54-1-3.51,2.26-7.64,3.55-11.5,5.26l-1.83.12c0-.55,0-1.1,0-1.64a44.11,44.11,0,0,0,16.89-7.91c-7.42-1.32-12,2.52-17,4.83l.57-2.48c4.36-1.64,8.39-4.31,13.31-4.27C339,479,338.43,476.92,338.82,475.47Z" />
    <path class="rabota14-5"
      d="M331.87,507.45c2.71,1.58,1.86,3.8.82,5.81-.75,1.46-2.07,2.79-3.94,1.92-2.8-1.29-3.2-3.82-2.86-6.57.27-.84.53-1.67.8-2.5a3.75,3.75,0,0,1,.82,0C328.15,509.22,329.83,508.93,331.87,507.45Z" />
    <path class="rabota14-16"
      d="M341.64,501.61l-.18,1.76-5.68.15a4.26,4.26,0,0,0-.79-.16C336,498.23,338.8,499.84,341.64,501.61Z" />
    <path class="rabota14-15"
      d="M341.59,486.11l.11-1.66c1.42.86,2.94,2,4.51.71,1.08-.89-.27-1.68-.71-2.46l.74-.84c1.61,1,3.37,2.18,1.53,4.26S343.65,487.83,341.59,486.11Z" />
    <path class="rabota14-12"
      d="M347.85,466.47l1.35.11c-.56,4-1.25,8-4.36,11l-.87-.8A24.71,24.71,0,0,0,347.85,466.47Z" />
    <path class="rabota14-16"
      d="M331.87,507.45c-2,1.48-3.72,1.77-4.36-1.33,1.25-1.17,2.79-.6,4.22-.7C331.78,506.1,331.82,506.77,331.87,507.45Z" />
    <path class="rabota14-15" d="M343.65,481.67l.05-1.21,2.54,1.41c-.25.27-.49.55-.74.83Z" />
    <path class="rabota14-9"
      d="M514.78,337.42c0,.54-.09,1.08-.13,1.61a9.34,9.34,0,0,0-4.15,2c-5,4.14-2.32,9.55-2.83,14.42-3.81,2.59.41,5.28-.11,7.91-.57,7.38-2.6,14.63-2.14,22.12-1.39,1-1.59,2.52-1.59,4q0,15.24.05,30.47a4.17,4.17,0,0,0,1.48,3.56c0,5.93.63,11.87-.07,17.8-2.56-1.09-5.07.3-7.61.18-1.88,0-2.44-.71-2.29-2.72.53-7.2.82-14.43,1.2-21.65,2.18-5.06.64-10.37,1-15.56.47-5.45-.85-11,.87-16.38,1.55-.48,1.19-1.81,1.19-2.9,0-10.62-.09-21.24-.14-31.86.43-9.93,3-13.11,12.34-15.1C513.35,335.28,514.11,336.28,514.78,337.42Z" />
    <path class="rabota14-13"
      d="M497.68,441.5c2.54.12,5.05-1.27,7.61-.18a25.92,25.92,0,0,0,2.46,8.11c-2.12,1.34-4.58,1.62-6.94,2.2l-1.14-.18c-.92-2.79-2.59-4.48-5.78-3.92C494.24,445,499.12,445.21,497.68,441.5Z" />
    <path class="rabota14-8"
      d="M499.5,350.43c.05,10.62.12,21.24.14,31.86,0,1.09.36,2.42-1.19,2.9.07-9.82.11-19.65.22-29.47C498.69,353.93,498.17,352,499.5,350.43Z" />
    <path class="rabota14-10"
      d="M493.89,447.53c3.19-.56,4.86,1.13,5.78,3.92-1,1.43-2.67,1.73-4.1,2.42C492.21,452.5,494,449.77,493.89,447.53Z" />
    <path class="rabota14-8"
      d="M497.58,401.57c-.35,5.19,1.19,10.5-1,15.56C496.77,411.93,495.9,406.67,497.58,401.57Z" />
    <path class="rabota14-12"
      d="M495.57,453.87c1.43-.69,3.1-1,4.1-2.42l1.14.18c0,.55-.07,1.1-.1,1.65l-1.09.86-5.19,2.15a1.93,1.93,0,0,0-.78.21v-.11c-.07-.43-.15-.85-.22-1.28Z" />
    <path class="rabota14-1"
      d="M357.91,340.26l-1-1c-2.85-5-4.29-10.48-6.29-15.77,1.6-1,1.09-2.63,1.1-4,.08-11.16.08-22.32.18-33.48a10.64,10.64,0,0,1,.8-2.83c8,5,16.94,7.77,26,10.29-6.66,4-13.3,8.07-20,12-3.94,2.33-4,5.47-.08,7.82.84.5,2,.59,2.71,1.2,4.34,3.58,6.28,1.59,7.23-3,6.09,15,38.51,15.07,44.36,0,1.23.12,1.57.69,1.31,2a11,11,0,0,1-8.46,9c-1.11.1-2.36-.21-3.06,1.07l.08-.05c-7.66.91-15.31,2-23.13,1.1l9.06,1.87c.53,1.56,2.4,2.48,2.06,4.44a.54.54,0,0,1-.12.54l-5.91.12a11.09,11.09,0,0,0-10.67,5C369.13,343.64,366,344.36,357.91,340.26Z" />
    <path class="rabota14-11"
      d="M338,442.29a27.33,27.33,0,0,0,2.2,3.19c3.46,3.84,5.52,8,3.3,13.23l-16-9.18C330.24,445.94,335,445.28,338,442.29Z" />
    <path class="rabota14-15"
      d="M331.16,434c-3.69-3.16-5-7.61-6.42-12-1.5-4.62-.93-9.76-3.66-14.11-.53-.85-.19-2.26-.18-3.41a2.61,2.61,0,0,1,1.82-2.67c1.72-.51,1.61,1.21,2.2,2.05.47.67.83,1.41,1.24,2.12l-.69.72c-1.44-.2-1.72.59-1.51,1.77,1.52,8.63,2.65,17.39,8,24.81Z" />
    <path class="rabota14-12"
      d="M337.59,397c0,.46.07.92.1,1.38-1.77.16-3.14.76-3.62,2.72-.29,1.16-1.27,2.55-2.35,1.68-1.53-1.22-.68-3.37-.56-5.08.08-1.17,1.18-2.47,2.36-1.5A4.14,4.14,0,0,0,337.59,397Z" />
    <path class="rabota14-12"
      d="M347.68,321.6c0,.48-.05.95-.08,1.42-2.18-1.66-3.55.78-5.62,1.24a10.45,10.45,0,0,1-.29-2.42c.17-1.55-.91-3.74,1.08-4.47,2.51-.92,1.08,2.17,2.29,2.79C346,320.62,346.81,321.12,347.68,321.6Z" />
    <path class="rabota14-12"
      d="M335.46,365.06c-1.36-1.24-3.5,4.64-4.35-.45-.25-1.5-.74-3.57,1.25-4.32,2.72-1,.87,2.19,2.2,2.69.57.21,1,.84,1.46,1.28A1.88,1.88,0,0,0,335.46,365.06Z" />
    <path class="rabota14-11"
      d="M322.4,329.87c.55.13.81.13.84.21.66,2,1.14,4.09-.45,5.91a1.4,1.4,0,0,1-1.28-.09C320.48,333.64,321.65,331.8,322.4,329.87Z" />
    <path class="rabota14-15"
      d="M331.24,412c2.05,1.72,4.09,3.45,4.7,6.25-.22.22-.43.45-.65.68a21.55,21.55,0,0,1-4.85-6.21Z" />
    <path class="rabota14-15" d="M330.44,412.72a22.83,22.83,0,0,1-5-6l.69-.72a13.66,13.66,0,0,1,5.08,6Z" />
    <path class="rabota14-11"
      d="M322.92,373.34c-1.67-3.33-1.53-5.28-.5-7.78C324.48,367.84,323.74,369.88,322.92,373.34Z" />
    <path class="rabota14-11"
      d="M332.76,329.69c-1.56-2.24-1.3-3.92-.25-6.26C334.19,325.62,334.07,327.29,332.76,329.69Z" />
    <path class="rabota14-11"
      d="M342.88,359.94a4.18,4.18,0,0,1-.31-5.37C344.6,356.47,343.51,358.23,342.88,359.94Z" />
    <path class="rabota14-15" d="M331.92,433.28a13.91,13.91,0,0,1,4,4.94l-.71.72a9,9,0,0,1-4.08-5Z" />
    <path class="rabota14-15" d="M336,438.22l1,1a4.52,4.52,0,0,0-.65.73l-1-1Z" />
    <path class="rabota14-15" d="M336.94,439.24l.43,1.14-1.08-.42A4.92,4.92,0,0,1,336.94,439.24Z" />
    <path class="rabota14-10"
      d="M215.74,357.18c5.22,1.2,9,4.43,12.06,8.63a54.43,54.43,0,0,0,7.36,8.26c2.24,2,3.36,2.08,5.13-.91,2-3.43,1.58-7.26,2.86-10.81s1.59-7.86,2.45-11.81c1.66-2.3,3.49-2.15,6.12-1.31s3.25,3.68,5.75,4.22q.11,5,.19,10-3,13.6-6,27.22c-.51,2.32-1.48,4.31-4,5.12l-9.9,0c-6.14.53-11.78-3-17.95-2.23-4.55-2.94-9.15-5.58-11.19-11.27C206.42,376.11,207.75,362.18,215.74,357.18Z" />
    <path class="rabota14-17"
      d="M271.7,319.47c1.32-2.35,0-4.72,0-7.08l28.14,15.84a5.18,5.18,0,0,1,2.89,5.25c-.2,5.31-.16,10.64,0,16,.07,2.88-.37,4.19-3.46,2.33-8.49-5.15-17.06-10.19-25.59-15.27,3.9-.81,4.41-3.5,4.06-6.92a71.5,71.5,0,0,1-.05-7.49c-2.76.08-1.39,3.73-3.84,3.39C273.1,323.49,271.76,321.71,271.7,319.47Z" />
    <path class="rabota14-9"
      d="M236.47,255.84c2.78.37,5.31,4.55,7.46,0,2.6,1.52,6,2,7,5.56.62,2.19,7.83,8.29,9.84,7.85,1.77-.39,2.81-3.37,5.4-1,1.64,1.53,4.26,2.06,3.74,5.15-.26,1.5,1.05,2,2.1,2.41,3.93,1.49,4.77,4.4,4.56,8.3-.29,5.48-.13,11-.13,16.47,0,2.13.09,3.78-2.91,2-11.43-6.7-23-13.23-34.46-19.83a4.32,4.32,0,0,1-2.59-3.93C236.48,271.28,236.47,263.7,236.47,255.84Zm36.67,32.75c-1-3.1,1.55-7.11-3-9.6-9-4.94-17.81-10.26-26.67-15.47-2.64-1.55-3.59-.66-3.57,2.15a68.9,68.9,0,0,1-.12,9c-.41,3.41,1.21,5.11,3.91,6.62,7.09,4,14,8.17,21.13,12.14,2.39,1.34,5.09,4.54,7.22,3.3S272.68,291.5,273.14,288.59Z" />
    <path class="rabota14-13"
      d="M257.47,353.45c-2.5-.54-3.17-3.4-5.75-4.22s-4.46-1-6.12,1.31c-1.79-2.53-.68-5.34-.78-8,3.39-1.69,3.55-5.33,5-8.19.77-1.47,1.06-3.83,3.6-3.34a5.24,5.24,0,0,1,4.54,3.88C260,341.18,257.69,347.26,257.47,353.45Z" />
    <path class="rabota14-12"
      d="M509.77,473.41c-4.35-.26-4.15,2.74-4.15,5.69q0,33.16,0,66.34c-1.63-11.53-.4-23.11-.74-34.67a21.16,21.16,0,0,1,.11-3.47c.59-4.25-.34-7.24-5.33-7.84-2.59-.31-3.87-2.19-3.91-4.94,0-3.82-2.19-7.31-1.94-11.2.09-1.49-1.12-1.8-2.11-2.4-2.39-1.45-5.17-2.27-7.12-4.42,2.55-.5,4.37,1.23,6.47,2.1,2.51,1.06,4.86,1.69,5.64-2,1.77.2,3-.86,4.21-1.88,5.23-2.51,10.44-5.06,14.86-8.92.48-.32,1.52-.19,1-1.28l.05.46.46,0a5.38,5.38,0,0,0,3.91-2.34c1.28.63,2.79-.93,4.26.57a43.93,43.93,0,0,1-5.53,3.36c-3.28,1.41-4.13,3.49-2.52,6.63C514.84,472.7,512.18,468.83,509.77,473.41Z" />
    <path class="rabota14-1"
      d="M515.72,465.77c-4.42,3.86-9.63,6.41-14.86,8.92-.63-1.79-2.63-2-3.71-3.09-2.46-2.61-6.95-2.34-8.49-6.15l2.07-2.35,9.45-4.69c7.46-2.4,12,2.78,17.11,6.57l-.47,0-.05-.46Z" />
    <path class="rabota14-11"
      d="M496.65,476.57c-.78,3.72-3.13,3.09-5.64,2-2.1-.87-3.92-2.6-6.47-2.1l.1,0c0-2.2-1.46-2.17-3-2h0l-1-1,0,0c-.36-1-1.12-1.13-2-1h0l-.88-1c.75-3.31,3.63-3.41,6.14-4.08-.45,2.23,1.68,2.13,2.73,2.89C489.82,472.66,493.75,473.79,496.65,476.57Z" />
    <path class="rabota14-17"
      d="M496.65,476.57c-2.9-2.78-6.83-3.91-10-6.22-1.05-.76-3.18-.66-2.73-2.89l4.76-2c1.54,3.81,6,3.54,8.49,6.15,1.08,1.13,3.08,1.3,3.71,3.09C499.63,475.71,498.42,476.77,496.65,476.57Z" />
    <path class="rabota14-11"
      d="M500.17,458.41l-9.44,4.69c.14-2.57,3.71-3.62,2.92-6.6a1.93,1.93,0,0,1,.78-.21c1.64,1.78,3.31,1.35,5,0l2.23.2Z" />
    <path class="rabota14-12" d="M481.62,474.49c1.56-.14,3-.17,3,2A3.44,3.44,0,0,1,481.62,474.49Z" />
    <path class="rabota14-12"
      d="M478.63,472.49c.9-.11,1.66,0,2,1C479.61,473.89,478.87,473.69,478.63,472.49Z" />
    <path class="rabota14-12" d="M480.62,473.48l1,1C481,474.46,480.45,474.33,480.62,473.48Z" />
    <path class="rabota14-12" d="M477.76,471.54l.88,1C477.91,472.57,477.78,472.1,477.76,471.54Z" />
    <path class="rabota14-10"
      d="M164.42,340.6c1.56,1.77.67,4.23,1.63,6.08,1.68,3.25,4.84,4.69,8.12,5.83,6.45,4.87,12.74,5.2,18.76-.75,4.17-4.12,8.51-3.3,13-.54,1.45.32,2.94.56,3.76,2-4,2.37-5.76,6.41-6.51,10.54-.7,3.89-2.63,7.22-3.69,10.92-1.14,4-7,6.39-11.06,4.46-8.21-3.94-16.25-8.26-24.19-12.71-.88-.49-2.81-1.34-2.54-3.26l0-16.53C161.22,344.05,163.86,342.8,164.42,340.6Z" />
    <path class="rabota14-13" d="M161.63,346.69l0,16.53-1.15-1.67c1.07-4.53.18-9.11.34-13.67Z" />
    <path class="rabota14-10"
      d="M160.85,347.88c-.16,4.56.73,9.14-.34,13.67C159.46,357,159.17,352.4,160.85,347.88Z" />
    <path class="rabota14-8"
      d="M169.79,449.39c-1.61.07-3.33.37-4-1.7C167.21,445.61,167.64,445.79,169.79,449.39Z" />
    <path class="rabota14-13"
      d="M517.4,473.19c-1.61-3.14-.76-5.22,2.52-6.63a43.93,43.93,0,0,0,5.53-3.36c-1.47-1.5-3,.06-4.26-.57-.18-.88-.36-1.75-.53-2.63.71-.8,1.42-1.61,2.14-2.41,3.62-1.07,7-3.09,10.92-3,1.16,1.08,2.6.72,4,.77l2.29.31c.48,2.53,2.76,3.84,4,5.87,3.12,3.56,0,5.15-2.23,7l-5,3.74a11.31,11.31,0,0,0-5.25,3.1C522.91,479.45,522.91,479.45,517.4,473.19Z" />
    <path class="rabota14-1"
      d="M231.56,397.21c.89.42,1.8.79,2.65,1.28q22.53,13.1,45,26.22c.58.33,1.19.59,1.75,1,1,.65,2,1.53,1.38,2.82-.72,1.48-2,.82-3,.25-3.89-2.22-7.73-4.5-11.59-6.75Q250,411.59,232.18,401.21c-1.31-.76-2.78-1.4-2.26-3.34C230.14,397,230.83,397.1,231.56,397.21Z" />
    <path class="rabota14-1"
      d="M237.76,395.75l9.9,0c1.39,4.44,5.89,5.07,9.11,7.09,7.55,4.73,15.45,8.91,23.14,13.42,1.48.86,3.86,2.05,2.38,4.1-1.31,1.83-2.86-.3-4.16-1.06-11.69-6.88-23.41-13.72-35-20.76C241.37,397.52,238.58,398.47,237.76,395.75Z" />
    <path class="rabota14-3"
      d="M323.16,483.29l-.57,2.48-.09,2.28c-6.55,2.39-12.9,5.32-19.64,7.22a49.91,49.91,0,0,0-14.82,6.5c-1.26.69-2.67,1.18-3.46,2.53-2.29,1.54-5.05,2.72-4.88,6.19h0l-6,0c-1.95-3.8-1.48-6.6,2.67-8.84,11.09-6,22-12.3,33-18.47C313.93,486.32,318.55,483.46,323.16,483.29Z" />
    <path class="rabota14-5"
      d="M291.88,482c2.29,3.05,0,6-.59,8.8-.25,1.23-2.4,1-3.7-.28a6.08,6.08,0,0,1-1.75-4.89C286.77,482.57,288.73,481.27,291.88,482Z" />
    <path class="rabota14-5"
      d="M301.52,480.26c-.14,2.2,1.56,5.29-2.71,5.44-4.66.16-2.43-3.68-3.34-5.7a1.38,1.38,0,0,1,.32-.58C297.56,480.66,299.53,480.5,301.52,480.26Z" />
    <path class="rabota14-16"
      d="M274,491.66l-.06,3.61-4.33.15-1.55.07C269,492.66,270.7,490.93,274,491.66Z" />
    <path class="rabota14-16"
      d="M301.52,480.26c-2,.24-4,.4-5.73-.84,1.35-3.53,3.52-3.32,6.08-1.34C301.75,478.81,301.63,479.54,301.52,480.26Z" />
    <path class="rabota14-13"
      d="M205.89,351.22c-4.45-2.76-8.79-3.58-13,.54-6,5.95-12.31,5.62-18.76.75a42.38,42.38,0,0,0,11.5-2.6c4.72-1.89,7.91-5.07,9.2-10.18,1.42-5.58,3.92-10.83,4.92-16.55.24-1.37.63-2.92,2.15-3.66,1.93.24,1.62,1.77,1.66,3,.08,2.63.06,5.27.1,7.9.09,5.2,1.41,10.91-6.34,13.1C202.62,344.2,206.27,345.67,205.89,351.22Z" />
    <path class="rabota14-9"
      d="M231.87,308.86c-7.48-1.68-7.66-7.25-7.16-13.26.17-2,0-4,0-6.31a26.93,26.93,0,0,1,8.09,4.27C232.21,298.64,234.18,303.88,231.87,308.86Z" />
    <path class="rabota14-9"
      d="M213.8,283.13c6.46,1.47,9.1,4.75,8.09,10.82-.42,2.57-.07,5.28-.07,8-7.3-1.82-8-2.72-8-9.63Z" />
    <path class="rabota14-9"
      d="M243.82,315.24c-9-3.92-9.32-4.74-7.29-19.69l7.34,4.23Q243.84,307.51,243.82,315.24Z" />
    <path class="rabota14-9"
      d="M248.71,303c5.56,1.23,7.82,4.63,6.95,10.26-.42,2.69,1.18,6.89-.69,7.79-2.32,1.12-5.13-1.86-7.43-3.63C248.22,312.67,246.23,307.67,248.71,303Z" />
    <path class="rabota14-9"
      d="M265.5,327.68c-7.4-3.07-7.91-3.9-7.16-11.35.23-2.31.37-4.62.58-7.21,2.78.28,4.71,2,6.77,3.51Q265.6,320.16,265.5,327.68Z" />
    <path class="rabota14-9"
      d="M271.7,319.47c.06,2.24,1.4,4,2.17,6,.95,2.72,1.91,5.44,2.95,8.4-6.76-2.23-9.4-7.81-6.84-13.9C270.13,319.63,271.11,319.63,271.7,319.47Z" />
    <path class="rabota14-1"
      d="M231.87,308.86c2.31-5,.34-10.22,1-15.3,1.83,4.93.68,10,.61,15C233.43,309.22,232.51,309.32,231.87,308.86Z" />
    <path class="rabota14-8"
      d="M265.5,327.68q.09-7.51.19-15.05c2,5,.88,10.11.59,15.19,0,0-.24.11-.35.09A2,2,0,0,1,265.5,327.68Z" />
    <path class="rabota14-2" d="M243.82,315.24q0-7.74.05-15.46A29.8,29.8,0,0,1,243.82,315.24Z" />
    <path class="rabota14-2"
      d="M248.71,303c-2.48,4.64-.49,9.64-1.17,14.42-1.63-4.65-.56-9.42-.59-14.13C247,302.22,248,302.32,248.71,303Z" />
    <path class="rabota14-18" d="M200,289.42l-.15-1.88C200.78,288.09,200.87,288.72,200,289.42Z" />
    <path class="rabota14-5"
      d="M533.72,454.64c-3.94-.14-7.3,1.88-10.92,2.95-1.06-.26-2.6.18-2.89-1.3-1.42-7-6.65-7.17-12.16-6.86a25.92,25.92,0,0,1-2.46-8.11c.7-5.93.07-11.87.07-17.8l.06-38c-.46-7.49,1.57-14.74,2.14-22.12,3.12.12,1.54,3.16,2.73,4.47,1.61.35,1.09-2.21,2.42-1.84,1.54.43.78,1.92,1,3,.31,1.61-.84,3.84,1.89,4.41,2.68,6.76,9.66,8.29,14.84,11.91,4.77,3.34,10.24,5.67,15.28,8.64,4.68,2.76,7.12,2.28,10.18-2.45,4-.56,5.46,4.87,9.57,4-.63,8.62,2.17,16.94,2.32,25.52.06,3.57-.48,5.77-3.71,7.95-8.23,5.56-15.84,12.05-24.26,17.38l-2.12-1c0-6.56,0-13.13.05-19.69,0-2.08-.24-3.88-2-5.2,3.38-2.08,3.84-4.23.12-6.43-6.8-4-13.58-8-20.4-12-1.53-.89-3.29-2.72-4.82-1.92-2,1-.66,3.54-.88,5.41,0,5.31.31,10.66-.2,15.93-.63,6.41,1.42,11.14,5.95,15.78,3.76,3.86,7.47,6.75,12.84,7.4,2.46.3,4.88.85,7.31,1.28Z" />
    <path class="rabota14-12"
      d="M564.61,473.41c-1.21,4.55-5.29,4.8-8.8,5.9.48-2.75.46-5.44-1.21-7.87.22-3.31-2.21-6.11-1.81-9.45,4.44-.84,6.61-5.62,11.09-6.38.2,4-1.14,8,.79,11.86Z" />
    <path class="rabota14-3"
      d="M552.79,462c-.4,3.34,2,6.14,1.81,9.45l-4.67-.05q-.73-2.29-1.45-4.61l-2.76-8.13c.2-2.07-.9-3.61-2.08-5.11.72-1.77-3-1.35-1.68-3.34,1-1.5,2.59-.75,4-.95,2.39-.34,4.74,2,7,0,1.68.06,3.35.21,4.53,1.64.53.64,1,1.34.54,2.24a2.29,2.29,0,0,1-2,1.3C549.59,455,549.56,455.09,552.79,462Z" />
    <path class="rabota14-16"
      d="M564.61,473.41l.06-5.94q0-6,0-12.07l1.11-.93c2,.41,4.6-.43,5,2.75-.08,5.1-.26,10.21-.19,15.32,0,2.14-1.06,2.81-2.78,3.37C565.42,476.69,565,475.13,564.61,473.41Z" />
    <path class="rabota14-14"
      d="M565.44,395.45c-4.11.88-5.59-4.55-9.57-4,0-5.94,0-11.89.06-17.82,0-1.49-.64-3.47,1.67-4.11,0,3.16,0,6.32,0,9.48,0,6.7.78,7.5,7.85,8.54Z" />
    <path class="rabota14-1"
      d="M553,449.24c-2.31,2.05-4.66-.33-7,0-1.4.2-3-.55-4,.95-1.34,2,2.4,1.57,1.68,3.34h-1.73c-2.64.41-1.47-3.39-3.71-3.55-1,1.84-.45,3.65-.52,5.4-1.36,0-2.8.31-4-.77l1.92-8.74,2-.56,2.12,1c3.86,1.29,8.24-.25,11.89,2.18l1.12.91Z" />
    <path class="rabota14-14"
      d="M564.65,455.4q0,6,0,12.07c-1.93-3.84-.59-7.9-.79-11.86A1.32,1.32,0,0,1,564.65,455.4Z" />
    <path class="rabota14-3" d="M552.8,449.39l-1.12-.91C552.29,448.49,552.78,448.65,552.8,449.39Z" />
    <path class="rabota14-11"
      d="M325.11,561.63c-1.36-4.61-.05-7.56,4.48-9.91,9.26-4.8,18.16-10.27,27.27-15.36,1.35-.76,3.12-3.39,4.44-.92,1,1.92,1.45,5-1.18,6.72s-5.43,3.18-8.15,4.76q-11.82,6.84-23.65,13.67C327.34,561.16,326.38,561.92,325.11,561.63Z" />
    <path class="rabota14-11"
      d="M361.66,551.51c.76,2.81-1.08,4.22-3.17,5.42-9.48,5.46-18.92,11-28.49,16.26-1.43.8-3.67,3.45-4.91,1s-1.19-5.59,2-7.41c4.75-2.7,9.47-5.47,14.22-8.18,5.47-3.12,11-6.07,16.41-9.36C360.7,547.46,362.27,547.19,361.66,551.51Z" />
    <path class="rabota14-2"
      d="M321.79,491.37c-.65,2.43-2.58,3.68-4.56,4.84-9.83,5.75-19.66,11.51-29.53,17.19-1.54.89-3,2.09-5,2l0-7.1,0,.07c6.41-2.1,12.4-4.91,17-10l0,.05c.89,0,1.77,0,2.13-1C308.28,494.79,315.09,493.26,321.79,491.37Z" />
    <path class="rabota14-15"
      d="M321.79,491.37c-6.7,1.89-13.51,3.42-20,6-.78.2-1.73.05-2.13,1l0-.05c-4,.35-7.12,3-10.79,4.29-.29-.3-.57-.6-.86-.89a49.91,49.91,0,0,1,14.82-6.5c6.74-1.9,13.09-4.83,19.64-7.22a.9.9,0,0,0,.18.8c0,.54,0,1.09,0,1.64Z" />
    <path class="rabota14-5"
      d="M259.9,500.63l5.57-.27c.09,1.14.22,2.29.25,3.43.07,2-.23,3.57-2.83,3.62-2.43,0-3.19-1.19-3.11-3.34Z" />
    <path class="rabota14-2"
      d="M273.67,510.51l6,0,0,4a3.33,3.33,0,0,1-4.6,1.8C272.42,515.13,274.11,512.46,273.67,510.51Z" />
    <path class="rabota14-5"
      d="M283.75,490.26l.06,3c0,2.46-1.56,3.25-3.53,2.9-1.79-.33-2.88-1.55-1.79-3.62a22,22,0,0,0,.88-2.26Z" />
    <path class="rabota14-5"
      d="M269.58,495.42l4.33-.15a1.34,1.34,0,0,1,0,.48c-.6,2,1.73,5.78-2.44,5.49C267.79,501,269.53,497.63,269.58,495.42Z" />
    <path class="rabota14-3" d="M279.72,514.46l0-4h0l3-2.15,0,7.1Z" />
    <path class="rabota14-16"
      d="M283.75,490.26l-4.38,0c0-.92,0-1.83,0-2.75a5.08,5.08,0,0,1,.7-.35C282.09,487.21,284.24,487.16,283.75,490.26Z" />
    <path class="rabota14-11" d="M290.45,550.27c-1.9-.43-4,4-5.5.24-1.77-4.34.28-6.83,5.74-8Z" />
    <path class="rabota14-14"
      d="M515.57,373.36c-2.73-.57-1.58-2.8-1.89-4.41-.19-1.05.57-2.54-1-3-1.33-.37-.81,2.19-2.42,1.84-1.19-1.31.39-4.35-2.73-4.47.52-2.63-3.7-5.32.11-7.91,5.94,2.65,6.91,2.3,5.86-3-.65-3.25-.15-6.07.44-9.06,1.89,4.19.51,8.6.8,12.9.16,2.35.37,4.51,2,6.3C515,366,515.74,369.74,515.57,373.36Z" />
    <path class="rabota14-5"
      d="M514,343.4c-.59,3-1.09,5.81-.44,9.06,1.05,5.28.08,5.63-5.86,3,.51-4.87-2.18-10.28,2.83-14.42a9.34,9.34,0,0,1,4.15-2C515.42,340.65,513.54,341.84,514,343.4Z" />
    <path class="rabota14-16"
      d="M517.12,353c3.36,1.69,6,1.77,6.8,4.54a1.52,1.52,0,0,1-1.42,1.72C519.42,359.11,518.74,356.62,517.12,353Z" />
    <path class="rabota14-5"
      d="M305.35,519.78c.11,1.8.3,3.6.3,5.4,0,6.34,0,6.34-7,5.64a11.81,11.81,0,0,0,.92-7.41C299.62,519.23,302.8,520,305.35,519.78Z" />
    <path class="rabota14-5"
      d="M313.92,518.32c2.56,1.29,1.77,3.22.79,5a3.93,3.93,0,0,1-4.62,2c-2.65-.55-2-2.64-2.14-4.36-.07-.83-.07-1.66-.09-2.49l1.81-1.91C310.18,519.33,312.3,518.22,313.92,518.32Z" />
    <path class="rabota14-5"
      d="M319,511.24c1.61.35,4.05-.91,4.51,1.71a12.52,12.52,0,0,1-.32,5.81c-.44,1.34-2.38,1.13-3.56.7-3.62-1.33-1.09-4.62-2-6.85Z" />
    <path class="rabota14-16"
      d="M313.92,518.32c-1.62-.1-3.74,1-4.25-1.77.82-1.86,2.58-.9,3.88-1.3C313.67,516.27,313.8,517.29,313.92,518.32Z" />
    <path class="rabota14-9"
      d="M549.93,471.39l4.67.05c1.67,2.43,1.69,5.12,1.21,7.87h-4.07Q550.83,475.35,549.93,471.39Z" />
    <path class="rabota14-8"
      d="M545.72,458.65l2.76,8.13c-1.59.8-2.86,1.82-2.83,3.81-1.7.13-2.57-1.41-3.93-2,2.19-1.89,5.35-3.48,2.23-7C545.69,461.3,545.6,459.91,545.72,458.65Z" />
    <path class="rabota14-7" d="M541.72,468.62c1.36.56,2.23,2.1,3.93,2q-3.75,4.4-8.88,1.77Z" />
    <path class="rabota14-15" d="M404.85,362.73l.69-1.19A.87.87,0,0,1,404.85,362.73Z" />
    <path class="rabota14-11"
      d="M425.66,446.44c-3.67.78-3.58-1.61-3.43-4.07.56-9.5-1.78-11.32-11.06-8.94-4.18,1.07-8.3,3.36-12.83,1.31l1.28-1.07c4.58.45,8.73-1.44,13.05-2.39,8.73-1.91,12.19,1,11.19,9.79C423.61,443.31,424.58,444.82,425.66,446.44Z" />
    <path class="rabota14-15" d="M381.74,421.49a26.7,26.7,0,0,1-11.06-11.07A41,41,0,0,1,381.74,421.49Z" />
    <path class="rabota14-15"
      d="M399.62,433.67l-1.28,1.07c-4.9-1.35-9.39-3.29-11.67-8.32C391,428.74,394.31,433,399.62,433.67Z" />
    <path class="rabota14-12"
      d="M443.75,447.42c-1,1-2.11-.17-3.11.28-3.57-.05-7.14,0-10.7-.19-1.46-.08-3.28.85-4.33-1.07C431.65,446.88,437.85,444.41,443.75,447.42Z" />
    <path class="rabota14-12" d="M445.64,448.56c-.75-.23-2.07.48-2-1.18l2,.12Z" />
    <path class="rabota14-15"
      d="M385.74,425.5l-1.13,0c0-.37,0-.75.05-1.12C385.42,424.38,385.74,424.78,385.74,425.5Z" />
    <path class="rabota14-15"
      d="M386.74,426.5l-1.13,0c0-.37,0-.75.05-1.13C386.4,425.4,386.82,425.7,386.74,426.5Z" />
    <path class="rabota14-15"
      d="M382.75,422.5l-1.14.05c0-.38,0-.75.05-1.13C382.44,421.36,382.72,421.8,382.75,422.5Z" />
    <path class="rabota14-15"
      d="M383.75,423.5c-1.29.56-1.66.2-1.09-1.09C383.34,422.46,383.77,422.75,383.75,423.5Z" />
    <path class="rabota14-15"
      d="M384.74,424.5l-1.13.05c0-.38,0-.76.05-1.14C384.41,423.39,384.77,423.75,384.74,424.5Z" />
    <path class="rabota14-11"
      d="M424.6,317.36l.93,1.07c-2.21,5.42-6.72,8.06-11.91,9.86l-1.1-.9C417.31,325,421.92,322.32,424.6,317.36Z" />
    <path class="rabota14-17"
      d="M424.6,317.36c-2.68,5-7.29,7.6-12.08,10a88.79,88.79,0,0,1-21.78,3.53c.34-2-1.53-2.88-2.06-4.44,4.88-.12,9.81,0,14.07-3l-.08.05c1.17.07,2.31.07,3.06-1.07a11,11,0,0,0,8.46-9c.26-1.27-.08-1.84-1.31-2,.43-2.17-.65-4-1.21-6,4.87.83,7.93,5.55,13,6C425.72,313.47,424.55,315.41,424.6,317.36Z" />
    <path class="rabota14-1"
      d="M424.63,311.52c-5-.47-8.09-5.19-13-6l-6.79-4c-1-2.71,1-2.64,2.66-2.78,4.31-.35,8.09,1.51,11.94,3l1.58,1.55.87.83c.51.52,1,1.05,1.52,1.58C423.82,307.64,425.35,309.35,424.63,311.52Z" />
    <path class="rabota14-7"
      d="M364.42,249.8c-4.34-2.06-3.14-5.35-1.45-8.26,5-8.68,13.71-10.9,22.76-12,12.25-1.48,23.55,1.45,33.95,8l0,0c-.43,2.14,1.37,3.61,1.66,5.47.4,2.59,1.57,5.52-1.63,7.38C401.35,242.68,382.92,243,364.42,249.8Z" />
    <path class="rabota14-1"
      d="M364.42,249.8c18.5-6.81,36.93-7.12,55.27.57-1.56,4.44-5.55,6.09-9.29,7.92a29.06,29.06,0,0,1-11.72,3c.32-.93.64-1.87.94-2.81,2.29-7.06-2.91-13.19-10.18-12-6.12,1-8.29,6.65-5.65,14.7-6.11-.87-11.85-2.72-16.63-6.77C365.79,253.29,363.53,252.4,364.42,249.8Z" />
    <path class="rabota14-17"
      d="M383.79,261.23c-2.64-8.05-.47-13.69,5.65-14.7,7.27-1.2,12.47,4.93,10.18,12-.3.94-.62,1.88-.94,2.81A55.82,55.82,0,0,1,383.79,261.23Z" />
    <path class="rabota14-5" d="M358.71,246.53l.24-.42c-.09.13-.18.26-.26.4Z" />
    <path class="rabota14-1"
      d="M381.63,357.4c.49-.41,1.18-1.26,1.43-1.15,5,2.24,10.61,3.46,13.67,8.7-4.26,2.93-8.5,5.89-13.45,7.58a18.32,18.32,0,0,1-14.58-7.95c0-.39.05-.78.07-1.17.87-.67,1.55-2.07,3-.79,1.57,1.38,1.78.12,2-1.06v0C376.94,361.21,379.77,360.23,381.63,357.4Z" />
    <path class="rabota14-6"
      d="M368.7,364.58a18.32,18.32,0,0,0,14.58,7.95,15,15,0,0,1-6.56,3.77c-4.14-3.59-9.74-4.9-13.69-8.79,1.23-.25,2.3-.7,2.67-2.07l0,0Z" />
    <path class="rabota14-1" d="M350.65,400.52c5.34-.26,9,3,13.41,5.87-6.65,2.36-10.73.33-13.32-5.94Z" />
    <path class="rabota14-2" d="M345.18,396c-1.17-.95-1-1.93-.2-3A2,2,0,0,1,345.18,396Z" />
    <path class="rabota14-1" d="M350.74,400.45a1.37,1.37,0,0,1-.37-.15c-.05,0,0-.18,0-.27l.29.49Z" />
    <path class="rabota14-3"
      d="M381.63,357.4c-1.86,2.83-4.69,3.81-7.87,4.14C375,357.52,378.27,357.38,381.63,357.4Z" />
    <path class="rabota14-2"
      d="M365.7,365.44c-.37,1.37-1.44,1.82-2.67,2.07l-1.46-.17C362.68,366.14,363.9,365.17,365.7,365.44Z" />
    <path class="rabota14-3" d="M373.75,361.56c-.25,1.18-.46,2.44-2,1.06A1.76,1.76,0,0,1,373.75,361.56Z" />
    <path class="rabota14-2"
      d="M368.7,364.58l-3,.89a2.83,2.83,0,0,1,3.11-2.06C368.75,363.8,368.72,364.19,368.7,364.58Z" />
    <path class="rabota14-2"
      d="M313,533.24c2.81.49,6.94-.68,5.85,4.68-.54,2.23-2.1,2.8-4.1,2.27-1.77-.47-2-2-1.93-3.53C312.79,535.52,312.89,534.38,313,533.24Z" />
    <path class="rabota14-5"
      d="M335.78,503.52l5.68-.15c0,1,.3,2.06-.06,2.87-.78,1.73-1.65,3.77-4.14,3.26s-1.38-2.56-1.58-4A10.72,10.72,0,0,1,335.78,503.52Z" />
    <path class="rabota14-1"
      d="M347.85,466.47a24.71,24.71,0,0,1-3.88,10.3c-1.24.79-1.81,3.16-3.67,2.26-1.17-.56-.24-2.31-.35-3.52,1.33-4.07,2.48-8.21,4.08-12.17.41-1-.36-3.53,2.1-3,1.91.38,1.68,2.17,1.67,3.68C347.79,464.82,347.83,465.64,347.85,466.47Z" />
    <path class="rabota14-1"
      d="M322.68,488.85a.9.9,0,0,1-.18-.8l.09-2.28c5-2.31,9.56-6.15,17-4.83A44.11,44.11,0,0,1,322.68,488.85Z" />
    <path class="rabota14-1"
      d="M343.65,481.67l1.85,1c.44.78,1.79,1.57.71,2.46-1.57,1.29-3.09.15-4.51-.71C340.25,482,341,481.22,343.65,481.67Z" />
    <path class="rabota14-11"
      d="M505.42,385.47l-.06,38a4.17,4.17,0,0,1-1.48-3.56q-.08-15.24-.05-30.47C503.83,388,504,386.47,505.42,385.47Z" />
    <path class="rabota14-7"
      d="M507.75,449.43c5.51-.31,10.74-.18,12.16,6.86.29,1.48,1.83,1,2.89,1.3-.72.8-1.43,1.61-2.14,2.41-1.36.43-2.21-.35-3-1.28,0-1.49.54-3.14-1-4.26-2-2.85-5.26-2.41-8.16-2.86s-5.11,1.41-7.76,1.68c0-.55.06-1.1.1-1.65C503.17,451.05,505.63,450.77,507.75,449.43Z" />
    <path class="rabota14-13"
      d="M500.71,453.28c2.65-.27,5-2.09,7.76-1.68,1,1.15,2.43,2,2.19,3.84-2.76,2.43-6.18-.7-9,1.1l-2.23-.21c.07-.73.14-1.46.2-2.19Z" />
    <path class="rabota14-10" d="M499.62,454.14c-.06.73-.13,1.46-.2,2.19-1.68,1.31-3.35,1.74-5,0Z" />
    <path class="rabota14-2"
      d="M402.75,323.51c-4.26,3-9.19,2.85-14.07,3l-9.06-1.87C387.44,325.49,395.09,324.42,402.75,323.51Z" />
    <path class="rabota14-2"
      d="M405.73,322.49c-.75,1.14-1.89,1.14-3.06,1.07C403.37,322.28,404.62,322.59,405.73,322.49Z" />
    <path class="rabota14-3"
      d="M273.14,288.59c-.46,2.91,1.06,6.89-1.07,8.12s-4.83-2-7.22-3.3c-7.08-4-14-8.18-21.13-12.14-2.7-1.51-4.32-3.21-3.91-6.62a68.9,68.9,0,0,0,.12-9c0-2.81.93-3.7,3.57-2.15,8.86,5.21,17.66,10.53,26.67,15.47C274.69,281.48,272.17,285.49,273.14,288.59Z" />
    <path class="rabota14-6"
      d="M501.65,456.54c2.83-1.8,6.25,1.33,9-1.1l4,2,3,1.32c.78.93,1.63,1.71,3,1.28.17.88.35,1.75.53,2.63a5.38,5.38,0,0,1-3.91,2.34c-5.08-3.78-9.64-9-17.1-6.56Z" />
    <path class="rabota14-6" d="M515.72,465.77l1-1.28C517.24,465.58,516.2,465.45,515.72,465.77Z" />
    <path class="rabota14-9"
      d="M545.72,458.65c-.12,1.26,0,2.65-1.77,2.93-1.22-2-3.5-3.34-4-5.87a3.42,3.42,0,0,0,1.94-2.16h1.73C544.82,455,545.92,456.58,545.72,458.65Z" />
    <path class="rabota14-3"
      d="M541.91,453.55a3.42,3.42,0,0,1-1.94,2.16l-2.29-.31c.07-1.75-.45-3.56.52-5.4C540.44,450.16,539.27,454,541.91,453.55Z" />
    <path class="rabota14-15"
      d="M282.7,508.34l-3,2.15c-.17-3.47,2.59-4.65,4.88-6.19l.85.88c-.87,1.12-2.52,1.57-2.77,3.23Z" />
    <path class="rabota14-15" d="M284.58,504.3c.79-1.35,2.2-1.84,3.46-2.53.29.29.57.59.86.89l-3.47,2.52Z" />
    <path class="rabota14-7"
      d="M537.67,445.33l-2,.56c-2.43-.43-4.85-1-7.31-1.28-5.37-.65-9.08-3.54-12.84-7.4-4.53-4.64-6.58-9.37-5.95-15.78.51-5.27.17-10.62.2-15.93l26,14.94c1.76,1.32,2,3.12,2,5.2C537.63,432.2,537.68,438.77,537.67,445.33Z" />
    <path class="rabota14-16"
      d="M535.72,420.44l-26-14.94c.22-1.87-1.09-4.39.88-5.41,1.53-.8,3.29,1,4.82,1.92,6.82,4,13.6,8,20.4,12C539.56,416.21,539.1,418.36,535.72,420.44Z" />
    <path class="rabota14-3"
      d="M285.43,505.18l3.47-2.52c3.67-1.26,6.77-3.94,10.79-4.29-4.63,5.13-10.62,7.94-17,10C282.91,506.75,284.56,506.3,285.43,505.18Z" />
    <path class="rabota14-3"
      d="M299.66,498.42c.4-1,1.35-.83,2.13-1C301.43,498.45,300.55,498.44,299.66,498.42Z" />
    <path class="rabota14-11"
      d="M514.68,457.4l-4-2c.24-1.83-1.23-2.69-2.19-3.84,2.9.45,6.11,0,8.16,2.86C516.05,455.48,514.42,455.81,514.68,457.4Z" />
    <path class="rabota14-12" d="M514.68,457.4c-.26-1.59,1.37-1.92,2-2.94,1.58,1.12,1,2.77,1,4.26Z" />
  </g>
</svg>