<svg width="60" height="60" viewBox="0 0 60 60" fill="none" xmlns="http://www.w3.org/2000/svg">
    <path
        d="M45.9375 15.625H24.0625C18.62 15.625 15.625 18.62 15.625 24.0625V45.9375C15.625 51.3799 18.62 54.375 24.0625 54.375H45.9375C51.3799 54.375 54.375 51.3799 54.375 45.9375V24.0625C54.375 18.62 51.3799 15.625 45.9375 15.625ZM50.625 45.9375C50.625 49.2675 49.2675 50.625 45.9375 50.625H24.0625C20.7325 50.625 19.375 49.2675 19.375 45.9375V24.0625C19.375 20.7325 20.7325 19.375 24.0625 19.375H45.9375C49.2675 19.375 50.625 20.7325 50.625 24.0625V45.9375ZM9.375 14.05V35.95C9.375 38.9449 10.5827 39.6825 10.9802 39.9274C11.8652 40.4674 12.1397 41.6224 11.5997 42.5051C11.2448 43.0826 10.63 43.3999 9.99757 43.3999C9.66506 43.3999 9.32479 43.3099 9.01976 43.125C6.76729 41.745 5.625 39.3326 5.625 35.95V14.05C5.625 8.69498 8.69779 5.625 14.0503 5.625H35.9497C40.1621 5.625 42.1751 7.47244 43.125 9.01991C43.665 9.90244 43.3875 11.0574 42.5048 11.5974C41.6198 12.1399 40.47 11.86 39.9274 10.9775C39.6847 10.58 38.9449 9.37256 35.9497 9.37256H14.0503C10.7303 9.37508 9.375 10.73 9.375 14.05Z"
        fill="#121927" />
</svg>
    