<svg id="Layer_1" data-name="Layer 1" xmlns="http://www.w3.org/2000/svg" viewBox="0 0 801.39 801.39">
  <defs>
    <style>
      .rabota5-1 {
      fill: #cbcbcb;
      }

      .rabota5-2 {
      fill: #676767;
      }

      .rabota5-3 {
      fill: #a09f9f;
      }

      .rabota5-4 {
      fill: #ddd;
      }

      .rabota5-5 {
      fill: #dfdfdf;
      }

      .rabota5-6 {
      fill: #0480fa;
      }

      .rabota5-7 {
      fill: #5ca5fb;
      }

      .rabota5-8 {
      fill: #5da3f7;
      }

      .rabota5-9 {
      fill: #504747;
      }

      .rabota5-10 {
      fill: #ca2426;
      }

      .rabota5-11 {
      fill: #fbdf0c;
      }

      .rabota5-12 {
      fill: #9d9d9d;
      }

      .rabota5-13 {
      fill: #4b3939;
      }

      .rabota5-14 {
      fill: #686868;
      }

      .rabota5-15 {
      fill: #6d6d6d;
      }

      .rabota5-16 {
      fill: #dba687;
      }

      .rabota5-17 {
      fill: #fefefe;
      }
    </style>
  </defs>
  <g>
    <path class="rabota5-1"
      d="M316.69,366c0-23.79-.55-47.59.05-71.36,1.67-65.84.23-131.69.87-197.53,0-2.08-.73-4.35.91-6.22,8.91,5.35,17.75,10.81,26.75,16,16.36,9.46,32.83,18.74,49.23,28.15,10.66,6.11,21.27,12.3,31.91,18.44q22.86,13.19,45.74,26.36c10,5.79,20,11.69,30,17.46,9.76,5.63,19.58,11.16,29.37,16.73l0,340.84-8.92-4.14q0-136,0-272c0-1.43.47-3.06-1.15-4.06,1.09-1.64-.49-2-1.33-2.5q-23.56-13.53-47.16-27c-1.61-.92-2.82-.8-4.52.18-19.72,11.39-39.3,23-59.37,33.78C398.16,285,392,293.78,388.41,305.07c-1.51,1.74-.82,3.83-.82,5.76q-.06,69.66,0,139.34c0,2.49.26,5-1.21,7.26-4.34-2.68-8.27-6.09-13.27-7.6-2.77-.83-3.72-2.46-3.68-5.44.17-13.4.13-26.8,0-40.2,0-2.56.81-5.23-.58-7.7a1,1,0,0,1-.33-.52c-.11-2.18-2.08-2.35-3.45-3.14-8.12-4.7-16.12-9.63-24.43-14C332.61,374.67,325.29,369.17,316.69,366Z" />
    <path class="rabota5-2"
      d="M521.45,274.71c1.62,1,1.15,2.63,1.15,4.06q0,136,0,272v3.41c0,2.95,0,5.89-.05,8.84,0,1.41,0,2.81.07,4.22v4.43c0,1.1-.05,2.2-.08,3.29.73,4.61-1.08,9.42,1.17,13.9-1.36.57-1.08,1.81-1.2,2.89l.12,5.89c0,1.12-.05,2.23-.08,3.34v4l-4.33,2.83-15.75,8.92Q476.38,631.86,450.29,647c-1.41.82-3.1,1.3-3.93,2.91l-6.65,2.1q0-134.51,0-269c0-16.3-.08-32.6-.12-48.91,2.44-4.13,5.07-8.16,7.27-12.42a22,22,0,0,1,9.21-9.22C477.91,300,499.65,287.3,521.45,274.71Z" />
    <path class="rabota5-3"
      d="M531.49,554.93l0-340.84c12-7,23.89-14.1,35.94-21,7.28-4.15,14.14-9.1,22.08-12.05q0,171.45-.07,342.9c0,2.49.1,5,.15,7.49a1.92,1.92,0,0,0,.07,2.81l-.08,10.63c0,3.05-.05,6.09-.07,9.14,0,2,0,4,0,6-1.07.94-.71,1.93-.11,2.94a48,48,0,0,0,.08,6.46c.62,4.46-1.26,6.88-5.57,7.63-2.2,1-4.19,0-6.19-.72A262.6,262.6,0,0,1,531.49,554.93Z" />
    <path class="rabota5-4"
      d="M439.54,334.05c0,16.31.12,32.61.12,48.91q0,134.51,0,269c-2.63.26-4.44-2.47-7.14-2-3.05-4.15-8.11-5.16-12.18-7.72A117.91,117.91,0,0,0,403.71,633c-4.27-2.66-8-6.35-13.23-7.2-2.76-1.94-2.92-4.7-3-7.82-.13-4,1.32-8.25-1-12.1,1.59-1.64,1.16-3.71,1.16-5.65q0-34.86,0-69.71c0-1.58.48-3.24-.55-5-6.37,2.82-11.71,7.51-18.33,9.69C364.35,534,360.93,531,357,529c-6.7-3.44-12.6-8.33-19.83-10.81.27-2.48,2.53-2.95,4.16-3.89,13.54-7.76,27-15.69,40.78-23,4.64-2.45,6.28-5.33,5.4-10.14q-.12-9.48-.26-18.95c1-1.82.42-3.36-.89-4.75,1.47-2.24,1.21-4.77,1.21-7.26q0-69.68,0-139.34c0-1.93-.69-4,.82-5.76C405.79,314.14,422.66,324.1,439.54,334.05ZM394.68,618.89c-.23,2.32-.51,4.35,2.2,5.9C407.24,630.72,417.4,637,427.72,643c4.64,2.68,4.73,2.51,4.77-3,0-4.91.5-9.84-.29-14.74.08-1.76.16-3.53.23-5.29l-.09-14.77c.07-2.38.15-4.75.22-7.13q-.1-6.94-.2-13.88c.05-2,.11-4.1.16-6.15q0-6.94-.08-13.89l.07-7.11-.09-13.88,0-6.16-.13-14.77.09-6.25-.06-14.76c.07-2,.14-4.09.2-6.13-.19-4.91.57-9.86-.45-14.75l.33-4.36q0-7.4,0-14.79,0-3.09,0-6.16-.09-7.38-.17-14.76c0-2.08.09-4.17.14-6.26q0-7.38-.1-14.76c.08-2.05.15-4.09.22-6.14l-.16-13.89.09-6.16q-.11-7.38-.23-14.76c.06-1.76.11-3.52.16-5.28q0-7.38-.08-14.75.1-3.57.23-7.13a60.33,60.33,0,0,1,.08-8c.56-4.28-1.27-6.55-5-8.51-7.61-4-14.89-8.67-22.4-12.89-3.39-1.9-6.49-4.45-10.82-5.59.32,5.17-.61,9.95.51,14.7l-.34,6.29a86,86,0,0,0,.19,14.79q-.17,3-.31,6.09.09,7,.2,14l-.17,6.06c.06,4.94-.55,9.89.39,14.81-.1,1.75-.2,3.51-.31,5.26q.07,7.41.14,14.83l-.26,7.05q.09,7,.19,14l-.15,6.05q.08,7,.13,14l-.12,6c.05,4.94-.57,9.89.39,14.8-.11,1.75-.21,3.51-.31,5.26q.08,7.41.14,14.82-.13,3.54-.28,7.06.12,7,.23,14l0,5.21,0,14.79-.18,7.05q.08,7,.16,14l-.08,6.11c-.15,4.94-.47,9.88.21,14.8l-.33,7.09q.15,7,.28,13.94l-.24,6.08Q394.6,611.92,394.68,618.89Z" />
    <path class="rabota5-5"
      d="M316.69,366c8.6,3.13,15.92,8.63,23.95,12.82,8.31,4.34,16.31,9.27,24.43,14,1.37.79,3.34,1,3.45,3.14-16.2,9.36-32.45,18.64-48.57,28.13-11.79,6.94-25.51,11.69-30.87,26.26a33.89,33.89,0,0,1-2.65,4.77,1.5,1.5,0,0,0-.63.11,42.12,42.12,0,0,1-5.84-2.63q-16.74-10.75-34.46-19.81c-2.85-1.46-5.65-3.34-6.74-6.74q-.69-2.74-1.4-5.49c3.66-9.87,11-15.77,20.13-20.68,18-9.64,35.47-20.26,53.17-30.47C312.66,368.27,314.68,367.17,316.69,366Z" />
    <path class="rabota5-6"
      d="M286.43,455.13a33.89,33.89,0,0,0,2.65-4.77C294.44,435.79,308.16,431,320,424.1c16.12-9.49,32.37-18.77,48.57-28.13a1,1,0,0,0,.33.52c0,17.26.17,34.53,0,51.79-.05,6.76,1,13.56-.58,20.28l-1.69-.26c-2.82-1.74-5.7-3.39-8.43-5.25-1.67-1.15-2.9-.75-4.51.18q-27.12,15.6-54.33,31.06c-1.33,1.78-.72,3.84-.73,5.77-.13,18.89-.19,37.78-.28,56.68l-4.13,2.36-.23,0-.09.2-.87.67c-1.35-.07-2.29.69-3.33,1.45-1.57,1.13-3,.91-3.5-1.25,0-.78,0-1.55-.05-2.32a21.32,21.32,0,0,0,.4-2.95Q286.52,505,286.43,455.13Z" />
    <path class="rabota5-7"
      d="M179.63,563.14c-9.74-3.31-13.67-15.84-11.69-27,.31-1.8.53-3.61.8-5.41,2.58,2.24,4.27,5.56,7.66,6.8,17.75,6.52,35.23,7.92,51.93-3.13.93,2.9-1.06,5.11-1.9,7.55s-1,4.32,1,6.35c4.28,4.39,8.56,8.81,12.49,13.51,5.34,6.41,12.73,11.38,14.72,20.23,3.2,15.31-8,25.47-23.5,21.6-20.43-5.09-40.93-9.92-61.39-14.86.24-3.43.43-6.86.72-10.29a15,15,0,0,1,4.28-9.75c7.48,1,13.91,5.13,21,7.24,8.06,2.39,15.52,6.54,23.89,8,.34.43.55,1.27,1.28.39l-1.31-.36C206.71,576.21,193.05,569.9,179.63,563.14Z" />
    <path class="rabota5-8"
      d="M222.06,412.45c1.89-.19,3.8-.65,5.65.27-1.17,2.47,1.77,3.73,1.73,5.86.48,5.91-1.68,12,.94,17.76.3,8,.1,16,1,23.91,1.5,13.1,1.5,26.25,1.83,39.35.19,7.44-.27,15-.58,22.51-3.67,2.28-1,7.16-4,9.73a7.53,7.53,0,0,0-2.42.41c-14.47,7.92-29.61,7.47-44.88,3.24-5-1.37-9.67-3.75-11.48-9.32.42-2.28.83-4.57,1.25-6.85,7.16,3.08,12.22,9.17,18.71,13.24,1.42.9,2.45,2.05,4.26,1.68,7,4.7,18.45.37,21.29-7.88,1.3-3.77.08-5.77-4-6.21-2.7-.28-5.56.31-7.91-1.62-9.52-7-19.09-13.89-28.53-21a5.15,5.15,0,0,1-2.13-5.62c2.44-9.67,1.74-19.68,3.17-29.45,0-3,.11-6-.14-8.95-.22-2.54.93-5.29-1-7.61a5.4,5.4,0,0,0-2-4l6.67-3.84,2.41,3.77c-2.52,5-1.16,10.19-.81,15.34l1.42-.2c.26.73-1.07,2.12.89,2.15.3,1.11.61,2.22.9,3.33,1.32,5,3.41,6.23,8,3.95,5-2.49,10.14-4.89,14.47-8.58,16.32-.69,24.26-11.74,19.7-27.55-.83-2.88-2.42-5.38-5.59-6.34-.05-3.32-.11-6.65-.17-10C221.14,413.47,220.87,412.33,222.06,412.45Zm-21.55,87.46c0,3.17.35,6.38-.08,9.49-.65,4.8,1.34,5.31,5.5,4.7,9.7-1.41,20-10,20.49-18.13.39-7,0-14,.07-21,0-3.24-1.49-3.27-3.74-2-3.62,2.06-7,4.66-10.85,6.1C201.94,482.86,197.84,489.44,200.51,499.91Zm-22.24-55.17-.94,0v14.55l.94-.05Z" />
    <path class="rabota5-9"
      d="M531.49,554.93a262.6,262.6,0,0,0,46.25,21.36c2,.68,4,1.68,6.19.72,2.75,2.11,5.63.71,8.42.23,4.08-.7,7.3-5,7.2-9.61-.1-4.35-4.12-2.73-6.29-3.9-1.11-.6-2.55-.56-3.84-.81-.6-1-1-2,.11-2.94,3.05.41,5.85,2.16,9.11,1.92-1.18-7.24-2.14-8-9.1-7.87,0-3,0-6.09.07-9.14,4.87,5.12,10.46,8,18,5.49-3.93-7.76-10.16-12.77-17.92-16.12a1.92,1.92,0,0,1-.07-2.81c8.73,3.27,15.59,8.75,20,17a9.25,9.25,0,0,0,5.3,4.62c7.14,2.73,12.68,8.39,4.38,17.22a46.24,46.24,0,0,1,4.9,4.57c3.6,4.43,1.51,9.37-4.15,10.12-11.33,1.52-11.3,1.56-20.05,8.21a38,38,0,0,1-6.76,4.18c-3.8,1.77-7.28,3.27-10.22,6.94-4,5-10.49,4-15.7,1.57-4.85-2.22-9.36-2.16-14.31-1.26a50,50,0,0,1-13.45.08c-1.83-.16-3.76-.47-4.18,2.21-1.63,10.31-8,17.84-15.23,24.58-22.14,20.8-47.57,36.12-77.09,43.93-17.63,4.67-34.56,1.95-50.44-7.07-1.29-.74-2.48-1.73-4.12-1.53-.6-1.82-4-3-2.59-4.8,1.69-2.19,3,1.47,4.87,1.58a6.86,6.86,0,0,1,1.41.42c3.06,4.15,7.91,5.29,12.32,6.88,13,4.7,26.29,5.65,39.62,1.58,30.13-9.19,56.5-24.74,78.5-47.36,4.62-4.75,8.66-10.11,9.65-17,.61-3.33-.69-5.19-4.12-5.69a56.37,56.37,0,0,1-5.66-1.41c0-1.11.05-2.22.08-3.34,2.62.72,5,2.5,8.15,2.1a12.34,12.34,0,0,0-8.27-8c.12-1.08-.16-2.32,1.2-2.89l7.78,5.48c1.91,5.14,4.89,8.71,11.08,7.6,4.89,1.41,9.6-.1,15.53-.49-3.05-2.16-4.31-4.82-7.43-5-5.43-6.53-10.5-13.47-18.69-17a16.07,16.07,0,0,0-9.44-4.56c0-1.09.06-2.19.08-3.29,2.28.31,4.06,2.27,6.92,2-2.14-2.66-4.09-5-6.93-6.46l-.07-4.22,9,8a68.8,68.8,0,0,0,27.08,21c3,3,7.1,4.07,11,4.9s7.08-1.79,9.64-4.13c1.74-1.59-1.31-3.54-1.83-5.48-.43-1.59-1.13-3.07-.83-4.77,1.11-1.16,3.75-2.3,0-3.52-15.69-5.17-30.25-12.82-45-20.15-2.86-1.88-5.61-4-9.09-4.63v-3.41Zm73.11,30c-4.54,0-8.34-2.75-12,.42-2.26,2-4.3,4.14-6.61,6-1.58,1.29-1.75,2.35-.87,4.22,1,2.12,2.22,1.37,3.62.9C594.86,594.37,599.87,590.76,604.6,584.88Zm-5.54-31c1.65,6.48,3.73,12.53,12.16,12.14C610.75,553.48,611,552.94,599.06,553.92Zm10.43,29a72.75,72.75,0,0,0,7.3,0c2.51-.27,5.88.13,6.53-3.15.59-3-2.2-4.43-4.31-6-3.14-2.36-5.18-.74-6.64,1.93A62.65,62.65,0,0,0,609.49,582.92ZM613,555.21c.28,3.72.66,7.15.75,10.59,0,1.33.3,2.17,1.5,2.77,1.37.67,2.19-.19,3-1,1.76-1.68,3.08-3.69,2.36-6.17C619.51,557.68,616.39,556.28,613,555.21Zm-28.19,25.84c-2.26.44-5,.49-5.21,3.45-.15,2.31,1.47,5.82,3.17,5.57,3.14-.46,6.5-3.26,7.28-6.09C590.83,581,586.37,582.74,584.77,581.05Zm15.06-5.26c2.11-.6,3.85-1,5.49-1.6,2-.76,5.31-.31,5.19-3.48-.11-3-3.52-2.31-5.37-3.39-2-1.19-2.93.19-3.43,2S600.61,573.14,599.83,575.79ZM565.9,602.58c8.69,3.81,12.93,3.38,16.26-1.87C576.74,601.81,571.14,598.17,565.9,602.58Zm43.73-27.48c-4.83,2.93-9.68,2.06-13.17,5.45C604.28,583.71,606.64,582.91,609.63,575.1Zm-43,24.06-12.12-5.36C557.5,596.87,559.81,601.43,566.58,599.16Z" />
    <path class="rabota5-5"
      d="M589.54,181.06c-7.94,2.95-14.8,7.9-22.08,12.05-12.05,6.88-24,14-35.94,21-9.79-5.57-19.61-11.1-29.37-16.73-10-5.77-20-11.67-30-17.46q-22.86-13.22-45.74-26.36c-10.64-6.14-21.25-12.33-31.91-18.44-16.4-9.41-32.87-18.69-49.23-28.15-9-5.21-17.84-10.67-26.75-16,2.67-4,5.89-4.64,10.12-2.19,17.75,10.31,35.6,20.43,53.36,30.72,18.9,11,37.69,22.13,56.62,33,19.82,11.42,39.77,22.62,59.63,34,10.2,5.84,20.39,11.7,30.43,17.81,2.35,1.43,3.9,1.4,6.19,0,14.67-8.72,29.43-17.29,44.16-25.9C583.15,176,586.38,176.84,589.54,181.06Z" />
    <path class="rabota5-10"
      d="M172.81,442a5.4,5.4,0,0,1,2,4c.45,5.51-1.59,11.2,1.15,16.56-1.43,9.77-.73,19.78-3.17,29.45a5.15,5.15,0,0,0,2.13,5.62c9.44,7.07,19,14,28.53,21-9.1,2.25-10.85,5.19-9.37,15.71-1.81.37-2.84-.78-4.26-1.68-6.49-4.07-11.55-10.16-18.71-13.24-2.14-3.54-5.91-5.24-8.9-7.81-4.81-4.12-6.69-9.05-6-15.44,1.31-12.05,1.89-24.18,3.23-36.22C160.4,451.5,165.18,445.54,172.81,442Z" />
    <path class="rabota5-6"
      d="M228.66,531.84c3-2.57.31-7.45,4-9.74,2,3,.38,7.4,3.9,9.77-1.46,8.3,2.63,14.3,8.13,19.73,2.67,2.64,6.63,2.52,6.76-.35.21-4.43,2.13-8.73,1-13.23.08-2.57.11-4.47,3.58-2.11,7.62,5.2,15,10.66,22.34,16.3l2.61,5c-.17,5.27.36,10.64-2.18,15.58-3,7.94-4.44,9-12.72,9.12-3.82.08-7.63.13-11.45.19-2-8.85-9.38-13.82-14.72-20.23-3.93-4.7-8.21-9.12-12.49-13.51-2-2-1.78-4-1-6.35s2.83-4.65,1.9-7.55Z" />
    <path class="rabota5-2"
      d="M368.71,535.22c6.62-2.18,12-6.87,18.33-9.69,1,1.79.54,3.45.55,5q.06,34.85,0,69.71c0,1.94.43,4-1.16,5.65l-16.69,9.26-1.42.18-.1-.12c.11-2.15.31-4.29.31-6.44Q368.66,572,368.71,535.22Z" />
    <path class="rabota5-3"
      d="M377.15,672.3c-11.14-4.83-21.18-11.67-31.7-17.63-23.68-13.41-47.11-27.27-70.79-40.69-4.37-2.47-7-5.07-6.06-10.35a33.33,33.33,0,0,0,.11-5.48c2.79-.23,4.31,2.66,6.93,2.82l-.06,0a32.55,32.55,0,0,0,13.05,7l0,0c2.13,3.26,5.31,4.64,9,5l-.05,0c.3,1.1,1.2,1,2.06,1.05l-.06-.06c0,.72.37,1,1.05,1.05l0,0c2.38,2.8,5.24,4.77,9,5l-.06,0c.33,1.07,1.15,1.15,2.07,1l-.06-.07c4.85,5.54,11.74,7.78,17.94,11.14,1.17,2,3.41,2.59,5.26,3.57,5.92,3.15,11.13,7.68,17.84,9.32l0,0c7.6,6.33,16.49,10.54,25.08,15.24Z" />
    <path class="rabota5-11"
      d="M222.06,412.45c-1.19-.12-.92,1-1.36,1.56-3.64-.82-6.39,2.27-10,2.09-5.81-.29-11.71.48-17.29-1.87l-6.57-2.92c-4.21-5.5-3.58-10.94-.31-16.73,3.35-5.95,4.33-13.36,12.49-15.82,6.19-1.87,17.7.83,21.72,9.09,1.43,2.94,2.67,6,4.14,8.88C228.05,402.94,227.4,408,222.06,412.45Z" />
    <path class="rabota5-10"
      d="M236.54,531.87c-3.52-2.37-1.95-6.77-3.9-9.77.31-7.5.77-15.06.58-22.5-.33-13.1-.33-26.25-1.83-39.35-.91-7.9-.71-15.94-1-23.91,0-5.94,1.06-11.93-.94-17.76,0-2.13-2.9-3.39-1.73-5.86,4.56,1,7.34,4.13,9.65,7.85q.7,2.74,1.4,5.49c0,3.93.09,7.87.13,11.81-.07,7-.21,13.93-.17,20.9,0,3.3-.48,6.64.53,9.89,5.65,18.2,9.15,36.91,13.25,55.48.5,2.26.85,4.57-.05,6.85-.87-.73-1.77-1.43-2.61-2.2C244.6,524,239.17,525.22,236.54,531.87Z" />
    <path class="rabota5-12"
      d="M368.71,535.22q-.07,36.79-.16,73.58c0,2.15-.2,4.29-.31,6.44-10.5-4.81-20.13-11.18-30.08-17-3.13-1.83-1-5.14-1.57-7.7q0-34.29,0-68.59c0-1.3-.31-2.67.59-3.84,7.23,2.48,13.13,7.37,19.83,10.81C360.93,531,364.35,534,368.71,535.22Zm-2.16,26c0-7.91-.05-14.71,0-21.5,0-1.79-.85-2.67-2.27-3.46-7.53-4.23-15.05-8.47-22.5-12.84-2.07-1.23-3.27-1.78-3.25,1.42.06,6.16,0,12.32,0,18.47a2.89,2.89,0,0,0,1.47,2.9C348.56,551,357.05,555.87,366.55,561.26Zm-3,1.46c0,14.84,0,29.54,0,44.23,0,1.23.44,2.57,1.81,2.53,1.75-.06,1.19-1.72,1.19-2.73.05-13.26,0-26.53,0-39.8C366.56,565.05,366.4,563.27,363.52,562.72Zm-10,17.74c0,6.16-.07,12.31.05,18.47,0,1.64-1,4.5,1.37,4.62,2.75.13,1.47-2.8,1.53-4.33.18-5.15.06-10.31.06-15.47,0-7.32,0-14.64,0-22,0-1.59.48-4.1-1.55-4.18-2.57-.1-1.36,2.52-1.39,3.89C353.44,567.82,353.52,574.14,353.52,580.46Zm-5-26.46c0,15.25,0,29.87,0,44.48,0,1.29.42,2.52,1.76,2.62,2,.14,1.21-1.63,1.22-2.54q.07-20,0-40C351.49,557,351.4,555.29,348.5,554Zm-6.95,41.22q0-21.83,0-43.64c0-1.19-.14-2.57-1.79-2.31s-1.18,1.79-1.19,2.85q0,19.89,0,39.78C338.54,593.67,338.7,595.3,341.55,595.22Zm17-12.23c0,6.33-.08,12.66.05,19,0,1.64-1,4.52,1.4,4.61,2.66.1,1.51-2.83,1.52-4.38.12-10.83.07-21.65.06-32.48q0-3.5-.07-7a1.86,1.86,0,0,0-1.84-2c-1.53,0-1.09,1.38-1.09,2.24C358.49,569.67,358.51,576.33,358.51,583Zm-12,15.27q0-21.87,0-43.63c0-1.16-.1-2.63-1.73-2.36-1.85.3-1.3,2.06-1.3,3.27q-.06,19.4,0,38.79C343.49,596.16,343.32,598.13,346.55,598.26Z" />
    <path class="rabota5-13"
      d="M186.83,411.31l6.57,2.92c2,2.55.6,5.48.9,8.21.18,1.63-.22,3.4,1.52,4.47,6.71,4.13,10.15,6.25,17.41,1.73,2.53-1.57,5.1-3.1,7.64-4.66,3.17,1,4.76,3.46,5.59,6.34,4.56,15.81-3.38,26.86-19.71,27.55-6.09-4.24-11.66-8.95-14.81-15.93-2.35-6.4-1.49-13.06-1.36-19.62.06-3.17-.47-5.54-3.91-6.34ZM219,430.86c-2.35,1.71-4.89,2-5.6,4.4-.2.67.84,1.53,1.68,1.35C217.55,436.05,218.78,434.35,219,430.86Z" />
    <path class="rabota5-12"
      d="M298.33,556.74c.09-18.9.15-37.79.28-56.68,0-1.93-.6-4,.73-5.77,10,7.14,20.73,13,31.37,19L330.54,593c-10.69-4.67-20.22-11.43-30.45-16.93-1.71-.91-1.47-2.43-1.5-3.9Q298.46,564.47,298.33,556.74Zm30.18-30.21h0c0-2.66-.11-5.32,0-8a4.4,4.4,0,0,0-2.33-4.52c-7.48-4.28-14.93-8.62-22.39-12.93-2.17-1.25-3.32-1-3.28,1.88.1,5.81.06,11.62,0,17.44a4,4,0,0,0,1.88,3.82q11.4,6.59,22.86,13.09c2,1.13,3.18.58,3.19-1.84C328.52,532.51,328.51,529.52,328.51,526.53Zm-18.87,28c0,6.47,0,12.94,0,19.41,0,1.9-.56,4.69,2.19,4.72s1.58-2.79,1.6-4.32c.11-12.27.07-24.55.05-36.82a13.88,13.88,0,0,0-.35-3.93c-.33-1.06-1.18-2.2-2.52-1.94s-1,1.55-1,2.48C309.63,540.88,309.64,547.68,309.64,554.48Zm8.89,4c0-6.3,0-12.6,0-18.9,0-2.11.48-5.09-2.52-5-2.49.12-1.26,3-1.29,4.54-.14,8.29-.06,16.58-.06,24.87,0,4.15,0,8.29,0,12.44,0,2.12-.44,5.09,2.52,5,2.48-.11,1.24-3,1.29-4.55C318.62,570.75,318.53,564.61,318.53,558.47Zm-10-5.24q0-10.44,0-20.9c0-1.64-.53-3.1-2.43-3.09-1.66,0-1.48,1.51-1.48,2.63q0,20.4,0,40.8c0,1.65.56,3.19,2.43,3.1s1.44-1.92,1.45-3.13C308.61,566.17,308.58,559.7,308.57,553.23Zm11.93,8.28c0,6.82,0,13.63,0,20.45,0,1.14-.1,2.61,1.46,2.71,1.73.11,1.53-1.44,1.53-2.54q0-20.19,0-40.39c0-1.34,0-3.22-1.59-3.19-2.31,0-1.35,2.25-1.37,3.52C320.44,548.55,320.5,555,320.5,561.51Zm-20-12.24c0,6.31-.08,12.63.06,18.94,0,1.58-1.09,4.4,1.62,4.37,2.21,0,1.26-2.68,1.27-4.14.09-9.81.05-19.61.05-29.41,0-3,0-6,0-9,0-1.46.18-3.49-1.81-3.45s-1.12,2.08-1.13,3.23C300.5,536.31,300.54,542.79,300.54,549.27Zm28,15.38c0-6.32.08-12.64-.07-19,0-1.55,1.16-4.38-1.64-4.32-2.25,0-1.31,2.67-1.32,4.14-.09,11.48,0,23,0,34.45,0,1.33,0,2.66,0,4,0,1.49,0,3.49,1.91,3.42s1.1-2.09,1.11-3.25C328.59,577.63,328.55,571.14,328.55,564.65Z" />
    <path class="rabota5-14"
      d="M330.54,593q.07-39.87.17-79.75L386.55,481a7.47,7.47,0,0,1,.95.12c.88,4.81-.76,7.69-5.4,10.14-13.79,7.29-27.24,15.22-40.78,23-1.63.94-3.89,1.41-4.16,3.89-.9,1.17-.59,2.54-.59,3.84q0,34.29,0,68.59C334.32,590.78,332.91,593.1,330.54,593Z" />
    <path class="rabota5-13"
      d="M174.71,568.77a15,15,0,0,0-4.28,9.75c-.29,3.43-.48,6.86-.72,10.29a6.38,6.38,0,0,0,.59,1.3c1.2,1.58,4.54,1.74,3.6,4.65-.87,2.66-3.69,3.26-6,3.92-5.29,1.51-12.11-2.34-12.94-8-.88-6-1.4-12.22.66-18.19a15.06,15.06,0,0,1,2.34-4.34c5.11-6.44,7.58-6.42,16.69-.15A1.22,1.22,0,0,0,174.71,568.77Z" />
    <path class="rabota5-4"
      d="M377.68,660.15c-8.59-4.7-17.48-8.91-25.08-15.24,5.65,2.62,9.53-1.26,13.77-3.78,1.14-.68,2-1.47.38-2.55a9.56,9.56,0,0,0-9.44-.93c-3.12,1.28-6,3-4.69,7.28-6.71-1.64-11.92-6.17-17.84-9.32-1.85-1-4.09-1.54-5.26-3.57l.78-.76c4.19,2.24,12.47.4,15.34-3.48,1.18-1.6-1.11-1.62-1.33-2.61a19.86,19.86,0,0,1,12.16,6.9c-4.14-1.66-8.19-2.41-12.28.32-1.95,1.31-3.94,2.71-2.25,5,1.26,1.74,3.34,3.37,6,1.79s5.43-3.19,8.19-4.7c1.34-.74.69-1.58.32-2.45,7.06,1.48,12.32,6.47,18.56,9.54,1.13.56,2.71.67,2.26,2.58-5.58-2.8-5,2.72-6.43,5-2,3.3,1,4,3.25,4.86,3.09.86,9.87-2.33,10.81-5.13.08-.21-.25-.57-.38-.86,3.54-1,5.06,1,6,3.92C386.76,655.53,382.1,657.65,377.68,660.15Z" />
    <path class="rabota5-10"
      d="M191.94,441.94c3.15,7,8.72,11.69,14.81,15.93-4.32,3.69-9.44,6.09-14.46,8.58-4.59,2.28-6.68,1.09-8-3.95-.29-1.11-.6-2.22-.89-3.34,1.67-5,2.52-10-.29-15-.43-.76-.18-1.87-1.22-2.31l-2.41-3.77,5.07-3.1C186.3,438.08,187.09,442.18,191.94,441.94Z" />
    <path class="rabota5-9"
      d="M228.66,531.84l-.33,2.59c-16.7,11.05-34.18,9.65-51.93,3.13-3.39-1.24-5.08-4.56-7.66-6.8l1.14-4.59c1.81,5.57,6.53,8,11.48,9.32,15.27,4.23,30.41,4.68,44.88-3.24A7.53,7.53,0,0,1,228.66,531.84Z" />
    <path class="rabota5-6"
      d="M174.71,568.77a1.22,1.22,0,0,1-.06-.8c2.22-1,3.4-3.14,5-4.83,13.42,6.76,27.08,13.07,40,20.87l0,0c-8.37-1.43-15.83-5.58-23.89-8C188.62,573.9,182.19,569.81,174.71,568.77Z" />
    <path class="rabota5-15"
      d="M377.68,660.15c4.42-2.5,9.08-4.62,12.88-8.11,1.56-.14,2,.71,1.94,2.1-.13,3.3-.19,6.6-.28,9.91a6.86,6.86,0,0,0-1.41-.42c-1.85-.11-3.18-3.77-4.87-1.58-1.42,1.85,2,3,2.59,4.8-3.66,2.09-6.59,5.7-11.38,5.45Q377.42,666.23,377.68,660.15Z" />
    <path class="rabota5-4"
      d="M329.52,632c-6.2-3.36-13.09-5.6-17.94-11.14,5.19-.63,9-3.92,12.92-6.88a9.07,9.07,0,0,1,9.08,4.94c-4.05-1.43-7.95-1.75-11.76.92-1.81,1.27-3.4,2.6-2,4.73,1.16,1.74,3.18,3.35,5.48,2.11,3.58-1.92,7.54-3.36,10.25-6.66,3.28-.82,4.87,1.13,6.08,3.7-1.32.09-2.88-.24-3.91.35-3,1.75-8.47,1.18-7.42,7.17Z" />
    <path class="rabota5-3"
      d="M278.77,572.76c2.54-4.94,2-10.31,2.17-15.58.51,1.37.69,3,1.58,4,1.63,1.88,3,1.17,3.66-1.09.54,2.16,1.93,2.38,3.5,1.25,1-.76,2-1.52,3.33-1.45a39.22,39.22,0,0,1,.13,4.46c-.53,6.24-2.93,8.19-9.09,7C281.89,571,280.2,571,278.77,572.76Z" />
    <path class="rabota5-3"
      d="M432.57,650c2.7-.5,4.51,2.23,7.14,2l6.65-2.1c.08,1,.21,2,.23,3,.1,6.66-1.13,8.1-6.89,8.12s-7.05-1.31-7.08-8C432.61,652,432.59,651,432.57,650Z" />
    <path class="rabota5-3"
      d="M502.46,616.75l15.75-8.92c0,1.5,0,3,0,4.5,0,3.37.31,7.14-3.82,8.28-3.74,1-7.65,1.16-10.33-2.72A6.1,6.1,0,0,0,502.46,616.75Z" />
    <path class="rabota5-16"
      d="M191.94,441.94c-4.85.24-5.64-3.86-7.39-6.93,2.41-3.17,2.48-6.49,1.38-10.29-.82-2.8-3.2-6.17.74-8.74,3.44.8,4,3.17,3.91,6.34C190.45,428.88,189.59,435.54,191.94,441.94Z" />
    <path class="rabota5-15"
      d="M285.58,592l2.85,1.09,3.09,2.66c-5.57,2.2-9.43,7.63-15.94,5.18l.06,0c-1.55-3.08-.72-5.06,2.41-6.69A21.51,21.51,0,0,1,285.58,592Z" />
    <path class="rabota5-15"
      d="M330.3,631.28c-1.05-6,4.4-5.42,7.42-7.17,1-.59,2.59-.26,3.91-.35l2.68,1.43c.22,1,2.51,1,1.33,2.61C342.77,631.68,334.49,633.52,330.3,631.28Z" />
    <path class="rabota5-15"
      d="M310.65,605.83l2,1.1c-2.49,5-7.54,6.13-12.09,8l0,0c0-.74-.44-1-1.05-1.05l.06.06a2.38,2.38,0,0,0-2.06-1.05l.05,0c-1.2-2.17-1.11-3.64,1.33-5.28A12.75,12.75,0,0,1,310.65,605.83Z" />
    <path class="rabota5-15"
      d="M324.5,614c-3.95,3-7.73,6.25-12.92,6.88l.06.07a1.8,1.8,0,0,0-2.07-1l.06,0c-2.9-3-1.63-4.85,1.52-6.73s6.33-1.16,9.5-1.55Z" />
    <path class="rabota5-4"
      d="M275.58,600.93c6.51,2.45,10.37-3,15.94-5.18l-3.09-2.66a13.49,13.49,0,0,1,10.18,5.82,29.18,29.18,0,0,0-5.46.12c-2.59.54-5.23,1.58-6.64,3.92s1.16,3.43,2.12,5A32.55,32.55,0,0,1,275.58,600.93Z" />
    <path class="rabota5-15"
      d="M335.55,620.06c-2.71,3.3-6.67,4.74-10.25,6.66-2.3,1.24-4.32-.37-5.48-2.11-1.4-2.13.19-3.46,2-4.73,3.81-2.67,7.71-2.35,11.76-.92Z" />
    <path class="rabota5-15"
      d="M288.63,608c-1-1.59-3.47-2.79-2.12-5s4.05-3.38,6.64-3.92a29.18,29.18,0,0,1,5.46-.12l3.21,1.93c-3.4,4.24-7.56,7.09-13.23,7.09Z" />
    <path class="rabota5-3"
      d="M390.48,625.84c5.25.85,9,4.54,13.23,7.2-1,1.76-2.76,2.29-4.47,2.69C393,637.16,390.48,634.3,390.48,625.84Z" />
    <path class="rabota5-4"
      d="M288.59,607.93c5.67,0,9.83-2.85,13.23-7.09,4.16-.5,6.44,2.34,8.83,5A12.75,12.75,0,0,0,299,607.68c-2.44,1.64-2.53,3.11-1.33,5.28C293.9,612.57,290.72,611.19,288.59,607.93Z" />
    <path class="rabota5-4"
      d="M320.65,611.68c-3.17.39-6.43-.28-9.5,1.55s-4.42,3.71-1.52,6.73c-3.8-.26-6.66-2.23-9-5,4.55-1.87,9.6-3,12.09-8A9.9,9.9,0,0,1,320.65,611.68Z" />
    <path class="rabota5-10"
      d="M374.1,654.11c-2.29-.83-5.27-1.56-3.25-4.86,1.41-2.32.85-7.84,6.43-5l.05,0a.9.9,0,0,0,1.29.61l1.94,2a6.62,6.62,0,0,0-2.09,3C377.6,651.72,377.09,654.3,374.1,654.11Z" />
    <path class="rabota5-4"
      d="M285.58,592a21.51,21.51,0,0,0-7.53,2.28c-3.13,1.63-4,3.61-2.41,6.69-2.62-.16-4.14-3.05-6.93-2.82,4-4.12,9.34-6.17,14.22-8.88C284.34,588.48,285.5,590.25,285.58,592Z" />
    <path class="rabota5-1"
      d="M522.53,601a56.37,56.37,0,0,0,5.66,1.41c3.43.5,4.73,2.36,4.12,5.69-4,1.32-6.11-3.35-9.77-3.1Z" />
    <path class="rabota5-13"
      d="M374.1,654.11c3,.19,3.5-2.39,4.37-4.24a6.62,6.62,0,0,1,2.09-3c1.34.38,2.88.16,4,1.3.13.29.46.65.38.86C384,651.78,377.19,655,374.1,654.11Z" />
    <path class="rabota5-12" d="M368.34,615.36l1.42-.18C369.37,615.94,368.93,616.2,368.34,615.36Z" />
    <path class="rabota5-3" d="M293.88,559.26l.09-.2.23,0s-.1.26-.1.26Z" />
    <path class="rabota5-4" d="M378.62,644.86a.9.9,0,0,1-1.29-.61Z" />
    <path class="rabota5-17"
      d="M439.54,334.05c-16.88-9.95-33.75-19.91-51.13-29,3.55-11.29,9.75-20,20.66-25.87,20.07-10.74,39.65-22.39,59.37-33.78,1.7-1,2.91-1.1,4.52-.18q23.57,13.48,47.16,27c.84.48,2.42.86,1.33,2.5C499.65,287.3,477.91,300,456,312.41a22,22,0,0,0-9.21,9.22C444.61,325.89,442,329.92,439.54,334.05Z" />
    <path class="rabota5-9"
      d="M368.3,468.56c1.6-6.72.53-13.52.58-20.28.14-17.26,0-34.53,0-51.79,1.39,2.47.56,5.14.58,7.7.1,13.4.14,26.8,0,40.2,0,3,.91,4.61,3.68,5.44,5,1.51,8.93,4.92,13.27,7.6,1.31,1.39,1.87,2.93.9,4.75a53.84,53.84,0,0,0-13.51-9.28c-3.28-1.65-4.63-1.32-4.68,2.82S370.34,464.4,368.3,468.56Z" />
    <path class="rabota5-1"
      d="M531.47,594.36l-7.78-5.48c-2.25-4.48-.44-9.29-1.17-13.9a16.07,16.07,0,0,1,9.44,4.56C530.94,584.45,531.72,589.42,531.47,594.36Z" />
    <path class="rabota5-1"
      d="M531.52,571l-9-8c0-2.95,0-5.89.05-8.84,3.48.67,6.23,2.75,9.09,4.63Q531.59,564.92,531.52,571Z" />
    <path class="rabota5-1" d="M522.49,591.77a12.34,12.34,0,0,1,8.27,8c-3.18.4-5.53-1.38-8.15-2.1Z" />
    <path class="rabota5-1"
      d="M522.59,567.26c2.84,1.44,4.79,3.8,6.93,6.46-2.86.24-4.64-1.72-6.92-2C522.6,570.22,522.59,568.74,522.59,567.26Z" />
    <path class="rabota5-14"
      d="M395,330.82c-1.13-4.75-.2-9.53-.52-14.7,4.33,1.14,7.43,3.69,10.82,5.59,7.51,4.22,14.79,8.86,22.4,12.89,3.71,2,5.54,4.23,5,8.51a60.33,60.33,0,0,0-.08,8c-4.91-.28-8.25-3.86-12.27-6C411.71,340.59,403.94,334.63,395,330.82Z" />
    <path class="rabota5-14"
      d="M394.8,577.83c-.68-4.92-.36-9.86-.21-14.8,1.76.08,3.06,1.16,4.5,2q16.62,9.57,33.27,19.1.09,6.95.2,13.88c-6.58-1.5-11.58-6.08-17.45-9C408.18,585.59,402.23,580.36,394.8,577.83Z" />
    <path class="rabota5-14"
      d="M432.35,501.15l.06,14.76a27.45,27.45,0,0,1-2.67-1.14c-11.7-6.57-22.75-14.27-35-19.89q-.08-7.41-.14-14.82c.89.39,1.83.7,2.68,1.17C409.06,487.72,420.23,495.26,432.35,501.15Z" />
    <path class="rabota5-14"
      d="M394.7,515.91q-.12-7-.23-14c2.15-.23,3.74,1,5.49,2,10.92,5.86,21,13.13,32.36,18.26q.06,7.38.13,14.77c-3.2-1.69-6.42-3.36-9.61-5.08C413.35,526.73,404.55,520.39,394.7,515.91Z" />
    <path class="rabota5-14"
      d="M432.33,419.18q.06,7.38.1,14.76c-4.25-1.5-7.84-4.2-11.72-6.38-8.67-4.87-16.81-10.66-26-14.64q-.08-7.43-.14-14.83c2.63,1.42,5.27,2.81,7.87,4.27C412.43,408,422,414.31,432.33,419.18Z" />
    <path class="rabota5-14"
      d="M394.76,598.86q-.15-7-.29-13.94c2.88-.22,5,1.56,7.26,2.86,10.19,5.8,20,12.2,30.61,17.35l.09,14.77a27.52,27.52,0,0,1-2.67-1.15C418,612.21,406.92,604.62,394.76,598.86Z" />
    <path class="rabota5-14"
      d="M432.29,440.2q.09,7.38.17,14.76c-1.78,0-3-1.17-4.49-2-11.19-6.19-21.73-13.53-33.3-19q-.09-7-.19-14c4.3.08,7.12,3.26,10.56,5.11C414.19,430,422.73,436,432.29,440.2Z" />
    <path class="rabota5-14"
      d="M394.65,454q-.06-7-.13-14c2.57.29,4.52,1.89,6.65,3.12q15.61,9,31.25,18,0,7.39,0,14.79Q413.54,464.93,394.65,454Z" />
    <path class="rabota5-14"
      d="M394.92,474.8c-1-4.91-.34-9.86-.39-14.8,4.29,1.06,7.58,4,11.42,5.95,8.9,4.43,16.63,11,26.15,14.32,1,4.89.26,9.84.45,14.75-6-1.62-10.81-5.43-16.08-8.41C409.33,482.58,402.69,477.67,394.92,474.8Z" />
    <path class="rabota5-14"
      d="M394.8,351.9a86,86,0,0,1-.19-14.79c2.62,1.42,5.25,2.82,7.86,4.25,10,5.48,19.53,11.89,29.86,16.84q0,7.37.08,14.75c-2,0-3.22-1.59-4.78-2.45C416.63,364.39,406.23,357.24,394.8,351.9Z" />
    <path class="rabota5-14"
      d="M394.69,372q-.1-7-.2-14c7.33,2.31,13.37,7,20,10.6,5.93,3.18,11.17,7.64,17.73,9.64q.12,7.38.23,14.77c-2.72-.32-4.76-2.06-7-3.37Q410.11,380.75,394.69,372Z" />
    <path class="rabota5-14"
      d="M432.39,399.15l.16,13.89c-6-1.24-10.45-5.35-15.63-8.1-7.4-3.91-14-9.26-22-12.11-.94-4.92-.33-9.87-.39-14.81,1.76.05,3,1.14,4.46,2Q415.68,389.58,432.39,399.15Z" />
    <path class="rabota5-14"
      d="M394.67,556.92q-.07-7-.16-14c3.19.53,5.74,2.43,8.43,4q14.78,8.52,29.5,17.13,0,6.95.08,13.89c-3.21-.46-5.72-2.41-8.41-4Q409.38,565.49,394.67,556.92Z" />
    <path class="rabota5-14"
      d="M394.69,535.91l0-14.79,37.76,22,.09,13.88c-3.19-.48-5.72-2.4-8.41-4Q409.39,544.49,394.69,535.91Z" />
    <path class="rabota5-14"
      d="M432.2,625.19c.79,4.9.27,9.83.29,14.74-1.79.09-3-1.09-4.46-1.88-11.24-6.18-21.84-13.46-33.35-19.16q-.09-7-.17-13.95c5.82,1.59,10.47,5.42,15.68,8.17C417.6,617,424.24,622.31,432.2,625.19Z" />
    <path class="rabota5-1"
      d="M368.3,468.56c2-4.16.71-8.57.76-12.84s1.4-4.47,4.68-2.82a53.84,53.84,0,0,1,13.51,9.28q.12,9.48.25,18.95a7.47,7.47,0,0,0-.95-.12c-2.83-3.88-7.33-5.46-11.07-8.08-2.78-1.95-6.67-1.66-8.87-4.63Z" />
    <path class="rabota5-12"
      d="M432.34,605.13c-10.57-5.15-20.42-11.55-30.61-17.35-2.28-1.3-4.38-3.08-7.26-2.86l.33-7.09c7.43,2.53,13.38,7.76,20.31,11.19,5.87,2.9,10.87,7.48,17.45,9C432.49,600.38,432.41,602.75,432.34,605.13Z" />
    <path class="rabota5-12"
      d="M432.33,358.2c-10.33-4.95-19.83-11.36-29.86-16.84-2.61-1.43-5.24-2.83-7.86-4.25.11-2.1.23-4.19.34-6.29,9,3.81,16.76,9.77,25.34,14.28,4,2.11,7.36,5.69,12.27,6Q432.44,354.63,432.33,358.2Z" />
    <path class="rabota5-12"
      d="M432.29,440.2C422.73,436,414.19,430,405,425.08c-3.44-1.85-6.26-5-10.56-5.11.09-2.35.17-4.7.26-7.05,9.16,4,17.3,9.77,26,14.64,3.88,2.18,7.47,4.88,11.72,6.38C432.38,436,432.34,438.12,432.29,440.2Z" />
    <path class="rabota5-12"
      d="M432.32,522.16C421,517,410.88,509.76,400,503.9c-1.75-.94-3.34-2.19-5.49-2q.15-3.53.28-7.06c12.24,5.62,23.29,13.32,35,19.89a27.45,27.45,0,0,0,2.67,1.14Z" />
    <path class="rabota5-12"
      d="M394.69,535.91q14.7,8.57,29.41,17.11c2.69,1.55,5.22,3.47,8.41,4q0,3.56-.07,7.11Q417.7,555.5,402.94,547c-2.69-1.56-5.24-3.46-8.43-4Z" />
    <path class="rabota5-12"
      d="M432.39,399.15Q415.68,389.57,399,380c-1.42-.82-2.7-1.91-4.46-2q.09-3,.17-6.07,15.39,8.83,30.76,17.68c2.27,1.31,4.31,3.05,7,3.37Z" />
    <path class="rabota5-12"
      d="M432.42,461.12q-15.63-9-31.25-18c-2.13-1.23-4.08-2.83-6.65-3.12l.15-6.05c11.57,5.51,22.11,12.85,33.3,19,1.44.8,2.71,2,4.49,2Q432.43,458,432.42,461.12Z" />
    <path class="rabota5-12"
      d="M432.25,378.23c-6.56-2-11.8-6.46-17.73-9.64-6.66-3.57-12.7-8.29-20-10.6q.15-3,.31-6.09c11.43,5.34,21.83,12.49,32.83,18.6,1.56.86,2.78,2.44,4.78,2.45C432.36,374.71,432.31,376.47,432.25,378.23Z" />
    <path class="rabota5-12"
      d="M394.91,392.83c8,2.85,14.61,8.2,22,12.11,5.18,2.75,9.66,6.86,15.63,8.1-.07,2-.14,4.09-.22,6.14-10.37-4.87-19.9-11.23-29.86-16.82-2.6-1.46-5.24-2.85-7.87-4.27C394.71,396.34,394.81,394.58,394.91,392.83Z" />
    <path class="rabota5-12"
      d="M432.2,625.19c-8-2.88-14.6-8.17-22-12.08-5.21-2.75-9.86-6.58-15.68-8.17l.24-6.08c12.17,5.76,23.29,13.35,35,19.89a27.52,27.52,0,0,0,2.67,1.15C432.36,621.66,432.28,623.43,432.2,625.19Z" />
    <path class="rabota5-12"
      d="M432.42,543.09l-37.76-22c0-1.74,0-3.47,0-5.21,9.85,4.48,18.65,10.82,28.14,15.94,3.19,1.72,6.41,3.39,9.61,5.08Z" />
    <path class="rabota5-12"
      d="M394.92,474.8c7.77,2.87,14.41,7.78,21.55,11.81,5.27,3,10.11,6.79,16.08,8.41-.06,2-.13,4.09-.2,6.13-12.12-5.89-23.29-13.43-35.06-19.92-.85-.47-1.79-.78-2.68-1.17C394.71,478.31,394.81,476.55,394.92,474.8Z" />
    <path class="rabota5-12"
      d="M394.67,556.92q14.71,8.55,29.44,17.09c2.69,1.55,5.2,3.5,8.41,4,0,2-.11,4.1-.16,6.15q-16.64-9.54-33.27-19.1c-1.44-.83-2.74-1.91-4.5-2Q394.64,560,394.67,556.92Z" />
    <path class="rabota5-12"
      d="M432.1,480.27C422.58,477,414.85,470.38,406,466c-3.84-1.92-7.13-4.89-11.42-5.95l.12-6q18.9,11,37.78,22Z" />
    <path class="rabota5-3"
      d="M394.68,618.89c11.51,5.7,22.11,13,33.35,19.16,1.43.79,2.67,2,4.46,1.88,0,5.55-.13,5.72-4.77,3-10.32-6-20.48-12.25-30.84-18.18C394.17,623.24,394.45,621.21,394.68,618.89Z" />
    <path class="rabota5-1"
      d="M286.18,560.13c-.66,2.26-2,3-3.66,1.09-.89-1-1.07-2.67-1.58-4q-1.29-2.49-2.6-5,.14-44.82.28-89.64a3.91,3.91,0,0,0-2-3.77c-12.8-6.6-24.73-14.76-37.76-20.93,0-3.94-.09-7.88-.13-11.81,1.09,3.4,3.89,5.28,6.74,6.74q17.73,9.06,34.46,19.81a42.12,42.12,0,0,0,5.84,2.63q-.09,50.34-.15,100.68a8.2,8.2,0,0,0,.48,1.89C286.15,558.58,286.16,559.35,286.18,560.13Z" />
    <path class="rabota5-3"
      d="M286.13,557.81a8.2,8.2,0,0,1-.48-1.89q0-50.34.15-100.68a1.5,1.5,0,0,1,.63-.11q.06,49.86.1,99.73A21.32,21.32,0,0,1,286.13,557.81Z" />
    <path class="rabota5-5"
      d="M366.61,468.3c2.2,3,6.09,2.68,8.87,4.63,3.74,2.62,8.24,4.2,11.07,8.08l-55.84,32.28c-10.64-6-21.4-11.86-31.37-19q27.17-15.51,54.33-31.06c1.61-.93,2.84-1.33,4.51-.18C360.91,464.91,363.79,466.56,366.61,468.3Z" />
    <path class="rabota5-6" d="M219.58,584l1.31.36c-.73.88-.94,0-1.28-.39Z" />
    <path class="rabota5-6"
      d="M200.51,499.91c-2.67-10.47,1.43-17.05,11.39-20.8,3.83-1.44,7.23-4,10.85-6.1,2.25-1.29,3.76-1.26,3.74,2-.05,7,.32,14-.07,21-.46,8.14-10.79,16.72-20.49,18.13-4.16.61-6.15.1-5.5-4.7C200.86,506.29,200.51,503.08,200.51,499.91Z" />
    <path class="rabota5-16"
      d="M220.87,424c-2.54,1.56-5.11,3.09-7.64,4.66-7.26,4.52-10.7,2.4-17.41-1.73-1.74-1.07-1.34-2.84-1.52-4.47-.3-2.73,1.09-5.66-.9-8.21,5.58,2.35,11.48,1.58,17.29,1.87,3.62.18,6.37-2.91,10-2.09C220.76,417.33,220.82,420.66,220.87,424Z" />
    <path class="rabota5-16"
      d="M194.1,534.24c-1.48-10.52.27-13.46,9.37-15.71,2.35,1.93,5.21,1.34,7.91,1.62,4.09.44,5.31,2.44,4,6.21C212.55,534.61,201.14,538.94,194.1,534.24Z" />
    <path class="rabota5-7" d="M178.27,444.74v14.54l-.94.05V444.78Z" />
    <path class="rabota5-7"
      d="M181.89,441.88c1,.44.79,1.55,1.22,2.3q-.31,6.42-.61,12.84l-1.42.2C180.73,452.07,179.37,446.87,181.89,441.88Z" />
    <path class="rabota5-15"
      d="M182.5,457q.3-6.42.61-12.84c2.81,4.94,2,9.95.29,15C181.43,459.14,182.76,457.75,182.5,457Z" />
    <path class="rabota5-2"
      d="M229.44,418.58c2,5.83,1,11.82.94,17.76C227.76,430.54,229.92,424.49,229.44,418.58Z" />
    <path class="rabota5-14"
      d="M176,462.5c-2.74-5.36-.7-11.05-1.15-16.56,1.94,2.32.79,5.07,1,7.61C176.09,456.52,176,459.51,176,462.5Z" />
    <path class="rabota5-3"
      d="M531.52,571q.08-6.09.14-12.18c14.72,7.33,29.28,15,45,20.15,3.71,1.22,1.07,2.36,0,3.52-6.52,2.17-11.64,7-18,9.48A68.8,68.8,0,0,1,531.52,571Z" />
    <path class="rabota5-3"
      d="M531.47,594.36c.25-4.94-.53-9.91.49-14.82,8.19,3.5,13.26,10.44,18.69,17-2.19,2.57-5.66,3.24-8.1,5.45C536.36,603.07,533.38,599.5,531.47,594.36Z" />
    <path class="rabota5-3"
      d="M238.89,437.87c13,6.17,25,14.33,37.76,20.93a3.91,3.91,0,0,1,2,3.77q-.17,44.82-.28,89.64c-7.3-5.64-14.72-11.1-22.34-16.3-3.47-2.36-3.5-.46-3.58,2.11-1.74-2.5-.88-4.17,1.11-6.32,1.67-1.79-.72-.38-1.08-.71.9-2.28.55-4.59.05-6.85-4.1-18.57-7.6-37.28-13.25-55.48-1-3.25-.51-6.59-.53-9.89C238.68,451.8,238.82,444.83,238.89,437.87Z" />
    <path class="rabota5-16"
      d="M252.45,531c.36.33,2.75-1.08,1.08.71-2,2.15-2.85,3.82-1.11,6.32,1.14,4.5-.78,8.8-1,13.23-.13,2.87-4.09,3-6.76.35-5.5-5.43-9.59-11.43-8.13-19.73,2.63-6.65,8.06-7.91,13.3-3.08C250.68,529.56,251.58,530.26,252.45,531Z" />
    <path class="rabota5-4"
      d="M309.57,619.93a1.8,1.8,0,0,1,2.07,1C310.72,621.08,309.9,621,309.57,619.93Z" />
    <path class="rabota5-4"
      d="M297.58,612.93a2.38,2.38,0,0,1,2.06,1.05C298.78,614,297.88,614,297.58,612.93Z" />
    <path class="rabota5-4"
      d="M299.58,613.92c.61.1,1.09.31,1.05,1.05C300,615,299.57,614.64,299.58,613.92Z" />
    <path class="rabota5-2"
      d="M366.55,561.26c-9.5-5.39-18-10.22-26.5-15a2.89,2.89,0,0,1-1.47-2.9c0-6.15,0-12.31,0-18.47,0-3.2,1.18-2.65,3.25-1.42,7.45,4.37,15,8.61,22.5,12.84,1.42.79,2.29,1.67,2.27,3.46C366.5,546.55,366.55,553.35,366.55,561.26Z" />
    <path class="rabota5-14"
      d="M363.52,562.72c2.88.55,3,2.33,3,4.23,0,13.27,0,26.54,0,39.8,0,1,.56,2.67-1.19,2.73-1.37,0-1.81-1.3-1.81-2.53C363.51,592.26,363.52,577.56,363.52,562.72Z" />
    <path class="rabota5-15"
      d="M353.52,580.46c0-6.32-.08-12.64.06-19,0-1.37-1.18-4,1.39-3.89,2,.08,1.54,2.59,1.55,4.18,0,7.32,0,14.64,0,22,0,5.16.12,10.32-.06,15.47-.06,1.53,1.22,4.46-1.53,4.33-2.38-.12-1.33-3-1.37-4.62C353.45,592.77,353.52,586.62,353.52,580.46Z" />
    <path class="rabota5-15"
      d="M348.5,554c2.9,1.29,3,3,3,4.6q0,20,0,40c0,.91.79,2.68-1.22,2.54-1.34-.1-1.76-1.33-1.76-2.62C348.51,583.87,348.5,569.25,348.5,554Z" />
    <path class="rabota5-14"
      d="M341.55,595.22c-2.85.08-3-1.55-3-3.32q0-19.89,0-39.78c0-1.06-.42-2.6,1.19-2.85s1.79,1.12,1.79,2.31Q341.56,573.41,341.55,595.22Z" />
    <path class="rabota5-15"
      d="M358.51,583c0-6.66,0-13.32,0-20,0-.86-.44-2.24,1.09-2.24a1.86,1.86,0,0,1,1.84,2q.07,3.5.07,7c0,10.83.06,21.65-.06,32.48,0,1.55,1.14,4.48-1.52,4.38-2.41-.09-1.37-3-1.4-4.61C358.43,595.65,358.51,589.32,358.51,583Z" />
    <path class="rabota5-14"
      d="M346.55,598.26c-3.23-.13-3.06-2.1-3.06-3.93q0-19.4,0-38.79c0-1.21-.55-3,1.3-3.27,1.63-.27,1.73,1.2,1.73,2.36Q346.57,576.42,346.55,598.26Z" />
    <path class="rabota5-16"
      d="M219,430.86c-.19,3.49-1.42,5.19-3.92,5.75-.84.18-1.88-.68-1.68-1.35C214.08,432.82,216.62,432.57,219,430.86Z" />
    <path class="rabota5-14"
      d="M328.51,526.53c0,3,0,6,0,9,0,2.42-1.2,3-3.19,1.84q-11.46-6.5-22.86-13.09a4,4,0,0,1-1.88-3.82c0-5.82.08-11.63,0-17.44,0-2.86,1.11-3.13,3.28-1.88,7.46,4.31,14.91,8.65,22.39,12.93a4.4,4.4,0,0,1,2.33,4.52c-.14,2.65,0,5.31,0,8Z" />
    <path class="rabota5-15"
      d="M309.64,554.48c0-6.8,0-13.6,0-20.4,0-.93-.33-2.24,1-2.48s2.19.88,2.52,1.94a13.88,13.88,0,0,1,.35,3.93c0,12.27.06,24.55-.05,36.82,0,1.53,1.19,4.34-1.6,4.32s-2.18-2.82-2.19-4.72C309.62,567.42,309.64,561,309.64,554.48Z" />
    <path class="rabota5-15"
      d="M318.53,558.47c0,6.14.09,12.28-.06,18.41-.05,1.58,1.19,4.44-1.29,4.55-3,.13-2.52-2.84-2.52-5,0-4.15,0-8.29,0-12.44,0-8.29-.08-16.58.06-24.87,0-1.57-1.2-4.42,1.29-4.54,3-.14,2.52,2.84,2.52,5C318.54,545.87,318.53,552.17,318.53,558.47Z" />
    <path class="rabota5-15"
      d="M308.58,553.23c0,6.47,0,12.94,0,19.41,0,1.21.5,3-1.45,3.13s-2.43-1.45-2.43-3.1q0-20.4,0-40.8c0-1.12-.18-2.62,1.48-2.63,1.9,0,2.42,1.45,2.43,3.09C308.58,539.3,308.57,546.27,308.58,553.23Z" />
    <path class="rabota5-15"
      d="M320.5,561.51c0-6.48-.06-13,.05-19.44,0-1.27-.94-3.49,1.37-3.52,1.56,0,1.59,1.85,1.59,3.19q0,20.21,0,40.39c0,1.1.2,2.65-1.53,2.54-1.56-.1-1.45-1.57-1.46-2.71C320.49,575.14,320.5,568.33,320.5,561.51Z" />
    <path class="rabota5-14"
      d="M300.54,549.27c0-6.48,0-13,0-19.44,0-1.15-.79-3.18,1.13-3.23s1.79,2,1.81,3.45c0,3,0,6,0,9,0,9.8,0,19.6-.05,29.41,0,1.46.94,4.11-1.27,4.14-2.71,0-1.59-2.79-1.62-4.37C300.46,561.9,300.54,555.58,300.54,549.27Z" />
    <path class="rabota5-15"
      d="M328.55,564.65c0,6.49,0,13-.05,19.47,0,1.16.78,3.18-1.11,3.25s-1.88-1.93-1.91-3.42c0-1.33,0-2.66,0-4,0-11.49,0-23,0-34.45,0-1.47-.93-4.09,1.32-4.14,2.8-.06,1.61,2.77,1.64,4.32C328.63,552,328.55,558.33,328.55,564.65Z" />
    <path class="rabota5-15"
      d="M356.46,632.09c.37.87,1,1.71-.32,2.45-2.76,1.51-5.48,3.09-8.19,4.7s-4.75,0-6-1.79c-1.69-2.33.3-3.73,2.25-5,4.09-2.73,8.14-2,12.28-.32Z" />
    <path class="rabota5-14"
      d="M352.62,644.93c-1.3-4.26,1.57-6,4.69-7.28a9.56,9.56,0,0,1,9.44.93c1.58,1.08.76,1.87-.38,2.55-4.24,2.52-8.12,6.4-13.77,3.78Z" />
  </g>
</svg>