<svg id="Layer_1" data-name="Layer 1" xmlns="http://www.w3.org/2000/svg" viewBox="0 0 801.39 801.39">
  <defs>
    <style>
      .rabota4-1 {
      fill: #fdf2c2;
      }

      .rabota4-2 {
      fill: #dfdede;
      }

      .rabota4-3 {
      fill: #fcde06;
      }

      .rabota4-4 {
      fill: #d3aa05;
      }

      .rabota4-5 {
      fill: #cc2423;
      }

      .rabota4-6 {
      fill: #f54240;
      }

      .rabota4-7 {
      fill: #0680f8;
      }

      .rabota4-8 {
      fill: #4b3a38;
      }

      .rabota4-9 {
      fill: #a3a3a3;
      }

      .rabota4-10 {
      fill: #dcaa86;
      }

      .rabota4-11 {
      fill: #caccce;
      }

      .rabota4-12 {
      fill: #6f6f6f;
      }

      .rabota4-13 {
      fill: #f8e125;
      }

      .rabota4-14 {
      fill: #fcfaeb;
      }

      .rabota4-15 {
      fill: #f5f5f5;
      }
    </style>
  </defs>
  <g>
    <path class="rabota4-1"
      d="M493.4,269.64c-7.07,1.61-11.19-4.12-15.74-7.31-13.6-9.53-22.94-22.94-29.53-38-4.75-10.87-5-22.71-4.2-34.29s2.91-22.58,8.37-33.46c8.11-16.16,19.82-27.57,35.4-35.91,14.28-7.64,29.23-9.71,45.3-8.49,9.44.72,18.65,1.07,27.11,5.63,12.25,6.59,23.9,13.37,32.06,25.78,5.05,7.69,9.1,15.6,13.45,23.57,6.32,11.59,5.41,23.63,4.06,35.28-1.23,10.54-3.49,21.41-9.49,30.93-7.15,11.35-15.31,21.39-26.7,29-6.34,4.22-12.35,8.43-19.86,10.05q-.15-8.88-.29-17.75c0-1.29,0-2.57-.05-3.86-.08-2.22,1.28-5.1-2.56-5.58a3.83,3.83,0,0,0-2.69-3.85c0-14.55.22-29.11-.17-43.65-.16-6,.82-11.9,1.77-17.7,1.19-7.3-2.34-13.39-9.88-14.69-2.52-8.69-7.12-1.3-10.75-1.38-1.43-3.18,4.21-11.31-5.9-8.4-4.15-4.56-8.67-3.32-12.85-.36-7.43,5.25-11,12.76-11,21.74-.19,22.75-.19,45.49-.26,68.24-1.9.6-5-1.14-5.21,2.74.05,1.83.09,3.67.14,5.5l-.37-.09c-1.08.89-1.2,1.79,0,2.71l.5,1.31c-.14.52-.29,1-.44,1.56-1,.81-1.09,1.63,0,2.45Q493.46,265.49,493.4,269.64Z" />
    <path class="rabota4-2"
      d="M205.75,513.78a8.38,8.38,0,0,0-1.28-1.54c-8.81-6.74-9.13-6.89-4.34-17.07,9.93-21.11,23.3-39.21,45.32-49.27,9.82-4.49,19.63-5.88,29.43.05-2.94,6.85-.8,14.07-1.58,21.07s2.42,10.4,9,11.29c4.07-1.25,8.24-2.41,7.57-8.09a1.43,1.43,0,0,0,.83-.52c5.07,5.68,11.22,8.34,18.89,6.81,2.08,1.3,4,3,6.25,3.81,5,1.83,6.9,5.11,6.09,10.29-.28,1.74.12,3.58-.08,5.34-.72,6.19,2,9.26,8.2,9.23s8.49-3.13,8.21-9.3c-.18-4-1.36-8.37,1-12.28,3.87,2.28,7.66,4.72,11.63,6.8,10.34,5.42,19.75,12.47,30.52,17.11a26.51,26.51,0,0,0,4.07,3.14c4,2.37,8.8,3.71,11.5,8a21.61,21.61,0,0,0-11.89-.49c-17.91,3.61-30.35,15.21-41.17,28.63-8.14,10.1-15.47,21-18,34.17a.77.77,0,0,0,.09.72c-2.77.78-4.57-1.16-6.64-2.36l-37.09-21.47-2.79-2c-10.21-6-20.72-11.41-30.47-18.19-1.88-1.31-3.85-3.32-6.67-2.68C230.59,527.15,218.68,519.58,205.75,513.78Z" />
    <path class="rabota4-3"
      d="M431.79,298.93c2.39,16.89,1.7,34,4.1,50.95a73.5,73.5,0,0,1,.15,21.56c-2.4,15.11-.84,30.58-4.59,45.53a10.85,10.85,0,0,1-2.7,5.19c-1.51-.11-3.57-1.81-4,1.36-2.17,1.14-4.3,2.39-6.53,3.38-24,10.65-48.46,9.13-72.63,1.72-6.17-1.89-13.16-6.08-15.09-14.08q.48-5.37.94-10.74c2.71-8.86,8.35-17.46,2.53-27.12.73-17.66,4.42-35.07,4.41-52.79l2.38-1.26c3.3,5.06-.19,11.28,3.08,18.13,2.14-7.21-.3-13.51,1.9-19,2.7.55.9,4,3.62,3.76,2.23-2-1-6.34,3.42-7.2,4.23,5.5,10.3,7.6,15.22,4.67,10.52-6.26,20.87-12.81,31.29-19.24,14.29-.84,26.37-11.67,25.45-25.9-.18-2.66,1-4.31,3.94-4.18.15,2.76-.6,5.7,1.65,8C429.07,287.61,431.3,293.2,431.79,298.93Zm-8.57,41c-.23-3,1.73-7-1.13-8.8-3.43-2.19-5.95,1.85-8.72,3.38-8.2,4.51-16,9.78-24.49,13.7-6.89,3.19-10.33,7.33-8.71,15,0,11.47-.12,22.94,0,34.4,0,1.47-.88,4.59,2,3.94,11.46-2.61,23.91-2.47,32.23-13.42,6.11-8.05,10.56-15.92,9.1-26.6C422.47,354.47,423.23,347.17,423.22,340Zm-82.8,24.16c2.55-2.6,1.73-4.8,1-8.76C339.06,359.16,339.31,361.32,340.42,364.13Z" />
    <path class="rabota4-4"
      d="M424.79,423.52c.39-3.17,2.45-1.47,4-1.36,2.69,1.23,2.13,3.69,2.13,5.86-.08,53.34.92,106.69-1.53,160-.52,11.23-.34,22.5-.49,33.75-2.21,2.73-3.07,6.57-6.78,8.08-12.5,5-25,4.14-37.49,0-5.43-5.25-5.58-11.77-4.66-18.66.51-3.77.5-7.6.72-11.41,2.11-.16,3.11-2.15,5-2.93,7.63-3.1,11.87-7.81,11.15-17.41-1.1-14.67-.22-29.49-.18-44.24,1.24-.09,1.89,1,2.8,1.41,4.94,2,7.88-2,11.32-4.24,3.86-2.54-.27-5-1.13-5.73-3.83-3.16-6.81-8-12.62-8.07-2.7-4.27-7.5-5.61-11.5-8a26,26,0,0,1-4.06-3.14,22.19,22.19,0,0,1,1.16-7.93c6.63-22.06,20.47-39.64,34.86-56.94,2.88-3.45,7.06-6.54,5.75-12.08C424.29,428.34,430.65,427.3,424.79,423.52Z" />
    <path class="rabota4-5"
      d="M282.28,557.83l37.09,21.47c2.07,1.2,3.87,3.14,6.64,2.36-1,1.92-2.84,3.21-2.81,5.84.17,12.76.14,25.52.06,38.28,0,2.84,1,4.24,3.91,3.9-2.33,2.61-4.57,2.4-7.46.51-4-2.62-8.4-4.65-12.62-6.94-30.51-17.71-60.92-35.62-91.62-53-7-3.94-10.41-8-9.82-16.59.89-13.24.15-26.59.1-39.89,12.93,5.8,24.84,13.37,36.6,21.2l-1.49,2.59a55,55,0,0,0-.71,7.31c.08,3.16-1.18,6.64,3,8.79,10.18,5.27,20.17,10.9,30.23,16.39,5,1.14,7.19-1.32,7.69-5.95C281.28,562,280.44,559.65,282.28,557.83Z" />
    <path class="rabota4-6"
      d="M327.17,629.68c-2.95.34-3.93-1.06-3.91-3.9.08-12.76.11-25.52-.06-38.28,0-2.63,1.84-3.92,2.81-5.84a.77.77,0,0,1-.09-.72c6.85-.52,10.72-5.11,13.34-10.64a82.4,82.4,0,0,1,22.57-29.22c11.06-9,23.79-13.19,34.81-5.82,0,14.75-.92,29.57.18,44.24.72,9.6-3.52,14.31-11.15,17.41-1.91.78-2.91,2.77-5,2.93-7.71,4.16-15.6,8-22.55,13.45-2.94-.08-4.85,2.13-7.17,3.36C343,620.89,335.52,626.13,327.17,629.68Z" />
    <path class="rabota4-7"
      d="M338.42,323.89c0,17.72-3.68,35.13-4.41,52.79a54.39,54.39,0,0,0-2.59,17.55c-2.95,10.15-3.38,20.7-5,31.06-2.11,10.4-1.34,21.42-6.77,31.1-12.58,5.56-19.31,2.29-21.47-10.45,5.19-38,9.61-76.15,11.77-114.52.58-10.18.24-20.76,5.21-30.32,4.25-8.18,9.89-14.88,18.68-18.42,2.19.24,3,1.64,3.1,3.65C336.77,298.87,336.57,311.42,338.42,323.89Z" />
    <path class="rabota4-3"
      d="M364.1,176.22c10.42-14.3,37.59-14,48.07,2.64,5.42,8.61,10.86,17.8,11.42,28.61.13,2.49.12,5-2.23,6.69-20.29,15-51.87,14.72-68.14-4.12-1.41-11.75,5.84-20.36,10.79-29.81,3.35,1.74,7.08,2.33,10.52,4.17,8,4.25,13.16,11.23,19.12,17.5a1.84,1.84,0,0,0,.23.49c.07.08.24.07.37.1l-.59-.6c.17-3.1-1.46-5.41-3.1-7.86C384.13,184.46,375,179.12,364.1,176.22Zm31.41,29.3c-.06.16-.2.35-.17.49.15.58.43.61.68.07a.61.61,0,0,0-.11-.51C395.86,205.5,395.65,205.53,395.51,205.52Z" />
    <path class="rabota4-8"
      d="M428.72,273.69c-2.93-.12-4.12,1.53-3.94,4.19.92,14.23-11.16,25.06-25.45,25.9-1.5-1.73-3.34-3.86-5.63-2.71-3.36,1.69-5.46-.38-7.86-1.67-8.32-4.45-13.16-12.16-18.17-19.69,0-.87.45-2-1.08-2.07l.07,0c-2.09-11-1.8-22.07-1.43-33.13.16-4.7-.78-8.21-5.3-10.18-1.76-5.18-4.7-10.07-3.87-15.87,4.67,2.88,9.1,6.19,14.34,8.06-1.71,3.16-.53,6.69-1.24,9.93-2.2,10.13,1.6,16.14,11.21,20.24,6.22,2.66,11.93,4.41,18,1.34s11.51-6.88,17.25-10.38c6,2.13,8.25,7,9.57,12.65.41,1.78-.32,5.49,3.57,2.58ZM412.5,262c-.05-1.3-.85-2-1.65-1.44-2.63,1.82-6.8,1.93-7.6,5.73-.42,2,1.77,2.36,3.31,2C410,267.56,411.46,264.86,412.5,262Z" />
    <path class="rabota4-8"
      d="M353.32,660.12c10.41,12.79,20.07,26,23.09,42.77,1.66,9.18-2.25,14.38-11.56,14.71-12.21.43-22.48-4.2-30.47-13.31-7.57-8.63-14.59-17.74-22.05-26.47-3.73-4.36-2.74-9.22-2.34-14.11a27.54,27.54,0,0,1,2.73,1.75C324.5,675.15,344.24,672.57,353.32,660.12Z" />
    <path class="rabota4-3"
      d="M353.32,660.12c-9.08,12.45-28.82,15-40.6,5.34a27.54,27.54,0,0,0-2.73-1.75c-6.2-13.11-2.35-27-2.9-40.46,4.22,2.29,8.61,4.32,12.62,6.94,2.89,1.89,5.13,2.1,7.46-.51,8.35-3.55,15.79-8.79,23.76-13,2.32-1.23,4.23-3.44,7.17-3.36C358.87,629.14,356.87,644.71,353.32,660.12Z" />
    <path class="rabota4-7"
      d="M431.79,298.93c-.49-5.73-2.72-11.32-1.42-17.2,2.13-4.82.42-9.9,1-14.83.23-2,.66-4.57-2.36-5.35-.31-10,1.48-20.42-7-28.35,12.46-.21,20.79,6.35,25.89,17,8.11,16.86,13.18,34.74,16.4,53.15-4.59,4.7-8.66,9.62-11.37,15.83-1.48,3.38-.7,8.09-5,10.13-4.81-2.57-6.21-7.44-8.1-12C437.27,311.12,435.87,304.44,431.79,298.93Z" />
    <path class="rabota4-8"
      d="M384.59,629.91c12.5,4.09,25,5,37.49,0,3.71-1.51,4.57-5.35,6.78-8.08,8.36,3.2,16.75,6.31,25.07,9.61a48.74,48.74,0,0,1,15.9,9.91c2.37,2.25,3.1,4.89,1.81,7.91-1.23,2.86-3.16,5-6.59,4.85q-24.58-.82-49.16-1.72a8.65,8.65,0,0,1-5.5-2.29c-1.64-1.46-3.9-2.21-5.59-.91-4.89,3.76-10.38,1.75-15.56,1.93-4.94.18-5.86-4-6.45-7.9C382.1,638.58,384.2,634.36,384.59,629.91Z" />
    <path class="rabota4-9"
      d="M447.94,329.27c4.28-2,3.5-6.75,5-10.13,2.71-6.21,6.78-11.13,11.37-15.83,2.29.4,4.18-.81,6.18-1.57s3.8-1.33,4.61,1.47a3.13,3.13,0,0,1-3,3.11c-4,1.25-6.53,3.81-8.3,7.76-2.55,5.71-3,11.85-4.65,17.73-1.61,15.82-3.62,31.6-3.28,47.58.34,15.69-.38,31.4,1.62,47q3.33,20.44,6.65,40.9c-6.64-4-9.42-10.85-11.69-17.54-9.15-27-11.59-54.75-9.21-83.16C444.23,354.07,447.28,341.83,447.94,329.27Zm2.12,15c-4.6,23.73-5.7,47.54-1.45,71.41C448.88,391.91,448,368.09,450.06,344.31Z" />
    <path class="rabota4-7"
      d="M367.67,279.71c5,7.53,9.85,15.24,18.17,19.69,2.4,1.29,4.5,3.36,7.86,1.67,2.29-1.15,4.13,1,5.63,2.71-10.42,6.43-20.77,13-31.29,19.24-4.92,2.93-11,.83-15.22-4.67.68-3.73-5-6.67-1.36-10.77,4.57-10.42,1.48-24.09-6.95-30.81a60,60,0,0,1,12.35-7.42c1.36,5,5.14,7.18,9.8,8.33l-.07,0Z" />
    <path class="rabota4-10"
      d="M415.59,247.69c-5.74,3.5-11.29,7.35-17.25,10.38s-11.75,1.32-18-1.34c-9.61-4.1-13.41-10.11-11.21-20.24.71-3.24-.47-6.77,1.24-9.93.87.63,1.72,1.78,2.62,1.81,10.57.39,21.14,2,31.71-.93,4.08-1.13,7.28-4.5,11.79-4.18q.14,4.94.26,9.85C414.45,237.8,415.81,242.81,415.59,247.69Z" />
    <path class="rabota4-9"
      d="M499.47,331.44c2.38,14.73,1.25,29.55.63,44.3-.65,15.44-2.12,30.86-3.61,46.26-1,10.23-2.34,20.46-5.33,30.37-1.18,3.9-2.54,7.73-6.73,9.54l-2.26-.15a7.1,7.1,0,0,0-4.35-5.07c-1.67-6.34-5.33-11.78-8-17.68-.42-2.16.71-4.17,0-6.54-3.85-13.82-5.36-28-6-42.32l.45-27.15q2.71-22.17,5.45-44.33l2.3-.48a2.38,2.38,0,0,0,2.54-2.45c.12-1.25.2-3.05,2.12-2.45,1.62.51.95,2.22.88,3.46a11.62,11.62,0,0,1-1.56,4.93c-1.59,3.06-3.2,6.31-2.61,10a9.76,9.76,0,0,0-1.22,2.26,222.33,222.33,0,0,0-4.83,33.86c-1.37,18.85-.67,37.55,4.55,55.87,1.08,2.23-1.73,6,2.72,6.88.13,2.77-2,5.95,1.47,8.09a20.49,20.49,0,0,0,3.9,12.21c.38,1.75.91,3.4,2.85,4.05.52,1.47,1.05,3.82,2.8,1.14a22.56,22.56,0,0,0,2.55-6.91A238,238,0,0,0,495,401.38c.93-23.23,4.07-46.47,1.27-69.79Z" />
    <path class="rabota4-9"
      d="M553.34,254.63q.15,8.88.29,17.75c-2.23,9.24-7.56,16.61-14.12,23.22-3.2.87-6.75.92-9.18,3.71-1.3-.74-1.7-3-3.87-2.27a4.93,4.93,0,0,1-3.57-3.1c-1.28-7.14-.56-14.34-.52-21.52Zm-23.29,25.16c5.47-5.87,18.19-4,17.17-16.41C541,268.46,529.51,267.77,530.05,279.79Z" />
    <path class="rabota4-7"
      d="M473.43,331.7c-.59-3.71,1-7,2.61-10a11.62,11.62,0,0,0,1.56-4.93c.07-1.24.74-2.95-.88-3.46-1.92-.6-2,1.2-2.12,2.45a2.38,2.38,0,0,1-2.54,2.45c.7-4.1,2.11-7.85,5.3-10.72-.19,5.41,2.33,4.34,4.88,1.83,2.34-2.32,4.4-6.11,7.77-5.43,5.8,1.17,11.61-.36,17.3,1a3,3,0,0,0,.39,1.18l-.42,1.6c-9.21,3.62-11.28,10.59-5.24,17.78,1.27,1.5,3,2.71,2.56,5l-5.13,1-3.22.15a1.71,1.71,0,0,0-.84,0c-2-1.17-3.86-.66-5.68.45l-7.07-.09-4.07.06-3.75,0Z" />
    <path class="rabota4-3"
      d="M507.28,307.63l.42-1.59c6.71,3.86,13.54,6.95,21.4,3.38-8,.06-15.71-.48-21.41-7.19-.19-.44-.38-.89-.56-1.33l.45-14.62c5.59,1.57,9.32,6.88,15.31,7.66a4.93,4.93,0,0,0,3.57,3.1c.27,1,1.15,1.9-1.08,2-5.56.35-10.37-1.84-15.31-3.76l-.56-.32.58.3c4.12,5.5,12.12,7.09,20.24,4,2.43-2.79,6-2.84,9.18-3.71.15,4.44,0,8.93.53,13.33.66,5.2-4.69,5.92-6.27,9.36-1.38-.21-2.68-.23-3.33,1.36-5,0-10.05.5-14.92-1.21C511.52,315.79,507.09,313.47,507.28,307.63Zm26.22.35c-.17-.06-.37-.21-.51-.17-.61.17-.64.46-.07.72a.7.7,0,0,0,.53-.11C533.53,308.36,533.49,308.13,533.5,308Zm4.06-2.35c0-.14,0-.35-.1-.41a1.31,1.31,0,0,0-.5-.1l.13.7Z" />
    <path class="rabota4-10"
      d="M507.28,307.63c-.19,5.84,4.24,8.16,8.24,10.81,2.29,6.43,10.16,8.94,15.22,4.77,1.38-1.13,0-2.38-.3-3.56.65-1.59,1.95-1.57,3.33-1.36a40.69,40.69,0,0,1,4.16,2.13c3.58,2.36,6.27,5.49,5.44,10-.89,4.86-5.23,5.08-9,5.35-7,.5-13.84-1-20.64-2.48l-3.61,1.07c-.34-3.4-2.58-4.16-5.51-3.95.4-2.32-1.29-3.53-2.56-5C496,318.22,498.07,311.25,507.28,307.63Z" />
    <path class="rabota4-11"
      d="M469.76,318.68Q467,340.84,464.31,363c-3,8.82-1.42,18.14-2.93,27.12a353.71,353.71,0,0,0,1.54,47.51c.64,5.79,0,12.11,3.67,17.36-1.65,4.61,1.37,8.15,2.75,12.07a17.13,17.13,0,0,0,.18,3.3c.6,2.33,1.05,5.26,3.76,5.71s2.91-2.77,4.19-4.41c2.3-3,1.75-7.26,4.7-9.9l2.26.15c-.51,4.73-2.93,8.76-4.74,13-.95,2.25-2.08,4.35-5.12,4.53-3.47.21-5.41-1.91-6.91-4.36a67,67,0,0,1-3.57-7.78q-3.31-20.44-6.65-40.9c2.2-2.54,1.17-5.6,1.12-8.38-.46-28.86.55-57.62,5.47-86.13,2.34-4.43,1.33-10,4.8-14.05A8,8,0,0,1,469.76,318.68Z" />
    <path class="rabota4-12"
      d="M522.89,293.94c-6-.78-9.72-6.09-15.31-7.66-2.66-1.63-5.24-3.41-8-4.87-4.79-2.55-6-6.87-6.19-11.77q.06-4.15.13-8.31c0-.82,0-1.64,0-2.46.15-.52.3-1,.44-1.56,9.82,4.37,18.12,11.58,28.38,15.11C522.33,279.6,521.61,286.8,522.89,293.94Z" />
    <path class="rabota4-9"
      d="M510.11,334.39l3.61-1.07c-.11,22.72-.19,45.45-2.16,68.12-.36,4.17-.67,8.32,2.61,12.09a7,7,0,0,1,0,8.82c-1.84,2.3-2.65,5-4.23,8.74-.6-5.11-4-6.95-5.94-9.9-1.38-2.15-2.36-4.68-.75-6.19,7.32-6.87,4.6-15.94,5.14-23.93,1.07-15.71.61-31.52.87-47.29C509.35,340.65,509.83,337.52,510.11,334.39Z" />
    <path class="rabota4-3"
      d="M344.51,276.77c8.43,6.72,11.52,20.39,6.95,30.8-2.37-.18-5.31.13-4.51,3.06.92,3.36-.19,5.68-2.59,6.56-3.07,1.13-1.93-3.91-4.56-4.27-.11-4.26.06-8.55-.4-12.77-.48-4.44,1.92-9.25-1.56-13.33a2,2,0,0,0-.86-.49c-.11-2-.92-3.41-3.11-3.65C336.84,279.68,340.73,278.32,344.51,276.77Z" />
    <path class="rabota4-10"
      d="M298.21,445.94c2.16,12.74,8.89,16,21.47,10.45a3.85,3.85,0,0,1-.43,5.67c-5.9-.59-6.37,3.5-6.67,7.73-.3,2.54-3.63,3.75-3,6.72-7.67,1.53-13.82-1.13-18.89-6.81-1.79-4.62,4.23-8.35,1.52-13.08L295,450.1C297.65,450,297.25,447.42,298.21,445.94Z" />
    <path class="rabota4-9"
      d="M292.24,456.62c2.71,4.73-3.31,8.46-1.52,13.08a1.43,1.43,0,0,1-.83.52c-.19-1.31-.34-2.63-.58-3.93a4.72,4.72,0,0,0-4.8-3.86c-3.23-.05-1.84,2.91-2,4.58-.27,3.75-.18,7.53-.23,11.3-6.6-.89-9.8-4.35-9-11.29s-1.36-14.22,1.58-21.07l2.31-.18C280.41,451.87,287,453.37,292.24,456.62Z" />
    <path class="rabota4-10"
      d="M366.66,277.68c-4.66-1.15-8.44-3.31-9.8-8.33,1-7.91,3.15-15.57-.26-23.78-1.12-2.68-4.53-9.59,3.33-11.2,4.52,2,5.46,5.48,5.3,10.18C364.86,255.61,364.57,266.71,366.66,277.68Z" />
    <path class="rabota4-13"
      d="M416.52,223.26c-4.51-.32-7.71,3.05-11.79,4.18-10.57,2.93-21.14,1.32-31.71.93-.9,0-1.75-1.18-2.62-1.81-5.24-1.87-9.67-5.18-14.34-8.06-.42-3-4.27-4.85-2.84-8.46,16.27,18.84,47.85,19.08,68.14,4.12C421.81,218.29,418.3,220.31,416.52,223.26Z" />
    <path class="rabota4-13"
      d="M415.59,247.69c.22-4.88-1.14-9.89,1.19-14.58,1.77-1.72,3.49.14,5.23.08,8.47,7.94,6.68,18.41,7,28.36l-.27,1.37c-3.89,2.91-3.16-.8-3.57-2.58C423.84,254.68,421.54,249.82,415.59,247.69Z" />
    <path class="rabota4-9"
      d="M507.13,300.9c.18.44.37.89.56,1.33-.13.87-.25,1.75-.38,2.62-5.69-1.34-11.5.19-17.3-1-3.37-.68-5.43,3.11-7.77,5.43-2.55,2.51-5.07,3.58-4.88-1.83,2.46-2.07,5.41-3.63,7-6.62C492,299.27,499.55,296.2,507.13,300.9Z" />
    <path class="rabota4-4"
      d="M393.65,201.9c-6-6.27-11.15-13.25-19.12-17.5-3.44-1.84-7.17-2.43-10.52-4.17l.09-4c10.86,2.9,20,8.24,26.46,17.81,1.64,2.45,3.27,4.76,3.1,7.86Z" />
    <path class="rabota4-2"
      d="M292.24,456.62c-5.28-3.25-11.83-4.75-15.05-10.85,2.46-3.79,5.21-5.33,9-1.5,2.51,2.51,6.71,2.55,8.76,5.83Z" />
    <path class="rabota4-11"
      d="M484.36,300.85c-1.59,3-4.54,4.55-7,6.62-3.19,2.87-4.6,6.62-5.3,10.72l-2.3.48a9,9,0,0,0-.93-.81c-.48-4.28,3.14-7.41,3.22-11.54a3.13,3.13,0,0,0,3-3.11C478.05,302,480.47,298.52,484.36,300.85Z" />
    <path class="rabota4-14"
      d="M539.76,165.3c7.54,1.3,11.07,7.39,9.88,14.69-.95,5.8-1.93,11.66-1.77,17.7.39,14.54.16,29.1.17,43.64-.21,5.43-3.71,6.71-8.31,6.6,0-21.55.08-43.11,0-64.66,0-2.44,1.06-6.23-3.17-6-3.79.22-2.21,3.8-2.23,5.9-.22,16.6-.25,33.21-.33,49.82-6.75-.7-4.42,4.72-4.79,7.71-.8,6.58,1.82,13.87-4.43,19.19h-3.69c0-22.54,0-45.07,0-67.6C521.2,181.31,526.47,169.29,539.76,165.3Z" />
    <path class="rabota4-14"
      d="M523.11,155.52c10.11-2.91,4.47,5.22,5.9,8.4-2.62.9-3.71,5-6.87,4.13-6.21-1.66-6.22-1.91-6.3,4.88-.22,20.51-.37,41-.56,61.53-4,1-2.21,4.24-2.42,6.55-.5,5.35-3.85,8-9.51,7.18,2-1.8,1.15-4.17,1.15-6.32,0-21.29-.05-42.59.05-63.89C504.6,167.23,513.23,157,523.11,155.52Z" />
    <path class="rabota4-13"
      d="M515.28,234.46c.19-20.51.34-41,.56-61.53.08-6.79.09-6.54,6.3-4.88,3.16.84,4.25-3.23,6.87-4.13,3.63.08,8.23-7.31,10.75,1.38-13.29,4-18.56,16-18.6,27-.09,22.53,0,45.06,0,67.6l-1.71.41a8.43,8.43,0,0,1-3.76-7.9C515.85,246.45,515.44,240.45,515.28,234.46Z" />
    <path class="rabota4-3"
      d="M523.11,155.52C513.23,157,504.6,167.23,504.55,178c-.1,21.3,0,42.6-.05,63.89,0,2.15.87,4.52-1.15,6.32-2.16,0-4.17-.24-4.39-3.05.07-22.75.07-45.49.26-68.24.07-9,3.61-16.49,11-21.74C514.44,152.2,519,151,523.11,155.52Z" />
    <path class="rabota4-8"
      d="M522.37,272.42c-10.26-3.53-18.56-10.74-28.38-15.11-.17-.43-.34-.87-.5-1.31l0-2.71.37.09c2.57.24,4.48,1.84,6.65,3,7.26,3.93,13.83,9.13,21.77,11.78l31-17.41c0,1.29,0,2.57.05,3.86Z" />
    <path class="rabota4-11"
      d="M524.81,259.9c6.25-5.32,3.63-12.61,4.43-19.19.37-3-2-8.41,4.79-7.71.12,3.3.5,6.61.3,9.9-.24,4.11,1.41,5.7,5.4,5,4.6.11,8.1-1.17,8.31-6.6a3.85,3.85,0,0,1,2.69,3.86C543,251.67,534.66,257.14,524.81,259.9Z" />
    <path class="rabota4-11"
      d="M499,245.14c.22,2.81,2.23,3,4.39,3.05,5.66.82,9-1.83,9.51-7.18.21-2.31-1.6-5.58,2.42-6.55.16,6,.57,12,.37,18a8.43,8.43,0,0,0,3.76,7.9l.15,1.27c-9.22-3.4-16.81-9.88-25.81-13.71C493.93,244,497.06,245.74,499,245.14Z" />
    <path class="rabota4-9"
      d="M519.56,261.59l-.15-1.27,1.71-.41h3.69c9.85-2.76,18.17-8.23,25.92-14.71,3.84.48,2.48,3.36,2.56,5.58l-31,17.41C522.71,265.44,520.85,263.63,519.56,261.59Z" />
    <path class="rabota4-12"
      d="M519.56,261.59c1.29,2,3.15,3.85,2.75,6.59-7.94-2.65-14.51-7.85-21.77-11.78-2.17-1.18-4.08-2.78-6.65-3-.05-1.83-.09-3.67-.14-5.5C502.75,251.71,510.34,258.19,519.56,261.59Z" />
    <path class="rabota4-11"
      d="M493.55,258.87c0,.82,0,1.64,0,2.46C492.46,260.5,492.52,259.68,493.55,258.87Z" />
    <path class="rabota4-11" d="M493.52,253.29l0,2.71C492.32,255.08,492.44,254.18,493.52,253.29Z" />
    <path class="rabota4-3"
      d="M423.22,430.56c1.31,5.54-2.87,8.63-5.75,12.08-14.39,17.3-28.23,34.88-34.86,56.94a22.19,22.19,0,0,0-1.16,7.93c-10.78-4.64-20.19-11.69-30.53-17.11-4-2.08-7.76-4.52-11.63-6.8-.47-3.59.58-8.21-3.29-10s-6.51-4.86-10.31-6.36a250.93,250.93,0,0,1,3-43.29l1.32-2.35c3.33,8.51,10.73,12.07,18.64,14.17C374,442.48,399.19,444.37,423.22,430.56Z" />
    <path class="rabota4-9"
      d="M396.64,535.26c-11-7.37-23.75-3.13-34.81,5.82a82.4,82.4,0,0,0-22.57,29.22c-2.62,5.53-6.49,10.12-13.34,10.64,2.56-13.2,9.89-24.07,18-34.17,10.82-13.42,23.26-25,41.17-28.63a21.61,21.61,0,0,1,11.89.49c5.81.11,8.79,4.91,12.62,8.07.86.71,5,3.19,1.13,5.73-3.44,2.25-6.38,6.21-11.32,4.24C398.53,536.31,397.88,535.17,396.64,535.26Z" />
    <path class="rabota4-11"
      d="M325.69,467.21c3.8,1.5,6.56,4.6,10.31,6.36s2.82,6.44,3.29,10c-2.37,3.91-1.19,8.24-1,12.28.28,6.17-2.06,9.21-8.21,9.3,0-7.38-.09-14.75-.09-22.13,0-2.3-.06-4.36-2.59-5.6-5-2.45-9.88-5.1-14.81-7.66.3-4.23.77-8.32,6.67-7.73C319.72,465.88,322.88,466.32,325.69,467.21Z" />
    <path class="rabota4-9"
      d="M312.58,469.79c4.93,2.56,9.82,5.21,14.81,7.66,2.53,1.24,2.6,3.3,2.59,5.6,0,7.38,0,14.75.09,22.13-6.24,0-8.92-3-8.2-9.23.2-1.76-.2-3.6.08-5.34.81-5.18-1.08-8.46-6.09-10.29-2.24-.82-4.17-2.51-6.25-3.81C309,473.54,312.28,472.33,312.58,469.79Z" />
    <path class="rabota4-1"
      d="M240.86,537.57l1.49-2.59c2.82-.64,4.79,1.37,6.67,2.68,9.75,6.78,20.26,12.23,30.48,18.19l-4.93.75c-3.78-2.24-7.51-4.56-11.34-6.7C255.8,545.74,248.32,541.67,240.86,537.57Z" />
    <path class="rabota4-4"
      d="M274.57,556.6l4.93-.75,2.78,2c-1.84,1.82-1,4.15-1.23,6.28-.5,4.63-2.72,7.09-7.69,5.95C275.75,565.75,274,561.07,274.57,556.6Z" />
    <path class="rabota4-12"
      d="M282.32,478.31c.05-3.77,0-7.55.23-11.3.12-1.67-1.27-4.63,2-4.58a4.72,4.72,0,0,1,4.8,3.86c.24,1.3.39,2.62.58,3.93C290.56,475.9,286.39,477.06,282.32,478.31Z" />
    <path class="rabota4-1"
      d="M423.22,340c0,7.2-.75,14.5.21,21.57,1.46,10.68-3,18.55-9.1,26.6C406,399.09,393.56,399,382.1,401.56c-2.85.65-2-2.47-2-3.94-.08-11.46,0-22.93,0-34.4,6.44-3.63,12.8-7.4,19.35-10.84C407.41,348.24,414.39,342.33,423.22,340Z" />
    <path class="rabota4-8"
      d="M423.22,430.56c-24,13.81-49.22,11.92-74.61,5.18-7.91-2.1-15.31-5.66-18.64-14.15l.57-7c1.93,8,8.92,12.18,15.09,14.07,24.17,7.41,48.67,8.93,72.63-1.72,2.23-1,4.36-2.24,6.53-3.38C430.65,427.3,424.29,428.34,423.22,430.56Z" />
    <path class="rabota4-4"
      d="M423.22,340c-8.83,2.36-15.81,8.27-23.7,12.41-6.55,3.44-12.91,7.21-19.35,10.84-1.62-7.64,1.82-11.78,8.71-15,8.46-3.92,16.29-9.19,24.49-13.7,2.77-1.53,5.29-5.57,8.72-3.38C425,333,423,337,423.22,340Z" />
    <path class="rabota4-13"
      d="M339.8,312.92c2.63.36,1.49,5.4,4.56,4.27,2.4-.88,3.51-3.2,2.59-6.56-.8-2.93,2.14-3.24,4.51-3.06-3.64,4.11,2,7.05,1.36,10.78-4.44.86-1.19,5.23-3.42,7.2-2.72.29-.92-3.21-3.62-3.76-2.2,5.46.24,11.76-1.9,19-3.27-6.85.22-13.07-3.08-18.13-.37-3-.75-6-1.13-9A1.49,1.49,0,0,1,339.8,312.92Z" />
    <path class="rabota4-1"
      d="M331.42,394.23A54.39,54.39,0,0,1,334,376.68c5.82,9.66.18,18.26-2.53,27.12Z" />
    <path class="rabota4-2"
      d="M331.42,394.23l.06,9.57q-.47,5.37-.94,10.74l-.57,7c-.44.76-.88,1.55-1.32,2.33-.73.46-1.46.92-2.2,1.37C328,414.93,328.47,404.38,331.42,394.23Z" />
    <path class="rabota4-12"
      d="M339.67,313.67c.38,3,.76,6,1.13,9l-2.38,1.26c-1.85-12.47-1.65-25-1.45-37.56a2,2,0,0,1,.87.48c.15,4.6.1,9.22.53,13.8C338.77,305,336.76,309.58,339.67,313.67Z" />
    <path class="rabota4-12"
      d="M428.73,262.92l.27-1.37c3,.78,2.59,3.31,2.36,5.35-.57,4.93,1.14,10-1,14.83-2.25-2.33-1.5-5.27-1.65-8Q428.74,268.3,428.73,262.92Z" />
    <path class="rabota4-13"
      d="M340.42,364.13c-1.11-2.81-1.36-5,1-8.76C342.15,359.33,343,361.53,340.42,364.13Z" />
    <path class="rabota4-3"
      d="M274.57,556.6c-.59,4.47,1.18,9.15-1.21,13.46-10.06-5.49-20.05-11.12-30.23-16.39-4.16-2.15-2.9-5.63-3-8.79a55,55,0,0,1,.71-7.31c7.46,4.1,14.94,8.17,22.37,12.33C267.06,552,270.79,554.36,274.57,556.6Z" />
    <path class="rabota4-4"
      d="M395.51,205.52c.14,0,.35,0,.4,0a.61.61,0,0,1,.11.51c-.25.54-.53.51-.68-.07C395.31,205.87,395.45,205.68,395.51,205.52Z" />
    <path class="rabota4-4" d="M393.66,201.89l.59.6c-.13,0-.3,0-.37-.1a1.84,1.84,0,0,1-.23-.49Z" />
    <path class="rabota4-10"
      d="M412.5,262c-1,2.87-2.51,5.57-5.94,6.31-1.54.34-3.73,0-3.31-2,.8-3.8,5-3.91,7.6-5.73C411.65,260,412.45,260.69,412.5,262Z" />
    <path class="rabota4-10" d="M367.67,279.71l-1.08-2.07C368.12,277.72,367.65,278.84,367.67,279.71Z" />
    <path class="rabota4-7"
      d="M464,331.91l-4.93-.1c1.64-5.88,2.1-12,4.65-17.73,1.77-3.95,4.27-6.51,8.3-7.76-.08,4.13-3.7,7.26-3.22,11.54C465.36,321.9,466.37,327.48,464,331.91Z" />
    <path class="rabota4-12"
      d="M482.66,332l7.08.09c-.36,24.32-3.58,48.49-3.24,72.88.21,15.48-1.28,31-6.48,45.92a20.49,20.49,0,0,1-3.9-12.21c3.6-16.52,3.2-33.27,2.9-50,2.33-5.31,1.12-10.86,1.1-16.32l1.26-17.51C482.54,347.25,483.43,339.66,482.66,332Z" />
    <path class="rabota4-12"
      d="M471.93,423.69c2.72-30.5,5.14-61,2.91-91.67l3.75,0q.35,11.38.7,22.77-.07,8.76-.16,17.51l-1.38,16.57c.11,14-1.74,27.81-3.1,41.68C470.2,429.68,473,425.92,471.93,423.69Z" />
    <path class="rabota4-12"
      d="M482.87,454.92c5.21-17,7.26-34.55,9.64-52.06,3.21-23.67,2.81-47.46,2.9-71.23a1.6,1.6,0,0,1,.84,0c2.8,23.32-.34,46.56-1.27,69.79a238,238,0,0,1-6.76,47.77,22.56,22.56,0,0,1-2.55,6.91C483.92,458.74,483.39,456.39,482.87,454.92Z" />
    <path class="rabota4-12"
      d="M466.59,455q1.64-8,3.25-16c2.65,5.9,6.31,11.34,8,17.68-1.81,4.29-1.74,10.11-8.48,10.37C468,463.14,464.94,459.6,466.59,455Z" />
    <path class="rabota4-2" d="M463.86,390.15l-2.48,0c1.51-9-.06-18.3,2.93-27.12Z" />
    <path class="rabota4-15"
      d="M530.05,279.79c-.54-12,11-11.33,17.17-16.41C548.24,275.75,535.52,273.92,530.05,279.79Z" />
    <path class="rabota4-4"
      d="M510.07,295.32c4.94,1.92,9.75,4.11,15.31,3.76,2.23-.14,1.35-1,1.08-2,2.17-.75,2.57,1.53,3.87,2.27-8.12,3.08-16.12,1.49-20.24-4Z" />
    <path class="rabota4-4"
      d="M507.31,304.85c.13-.87.25-1.75.38-2.62,5.7,6.71,13.42,7.25,21.41,7.19-7.86,3.57-14.69.48-21.4-3.38A3.15,3.15,0,0,1,507.31,304.85Z" />
    <path class="rabota4-9"
      d="M530.44,319.65c.28,1.18,1.68,2.43.3,3.56-5.06,4.17-12.93,1.66-15.22-4.77C520.39,320.15,525.44,319.6,530.44,319.65Z" />
    <path class="rabota4-4"
      d="M533.5,308c0,.15,0,.38,0,.44a.7.7,0,0,1-.53.11c-.57-.26-.54-.55.07-.72C533.13,307.77,533.33,307.92,533.5,308Z" />
    <path class="rabota4-4"
      d="M537.56,305.63l-.47.19-.13-.7a1.31,1.31,0,0,1,.5.1C537.55,305.28,537.53,305.49,537.56,305.63Z" />
    <path class="rabota4-4" d="M510.09,295.3l-.58-.3.56.32Z" />
    <path class="rabota4-11"
      d="M339.67,313.67c-2.91-4.09-.9-8.7-1.3-13.06-.43-4.58-.38-9.2-.53-13.8,3.48,4.09,1.08,8.9,1.56,13.34.46,4.22.29,8.51.4,12.77A1.49,1.49,0,0,0,339.67,313.67Z" />
    <path class="rabota4-3"
      d="M539.73,247.93c-4,.67-5.64-.92-5.4-5,.2-3.29-.18-6.6-.3-9.9.08-16.61.11-33.22.33-49.82,0-2.1-1.56-5.68,2.23-5.9,4.23-.24,3.17,3.55,3.17,6C539.81,204.82,539.75,226.38,539.73,247.93Z" />
    <path class="rabota4-2"
      d="M479.29,354.81h2.09l-1.26,17.51a1.46,1.46,0,0,1-1,0Q479.21,363.58,479.29,354.81Z" />
    <path class="rabota4-9"
      d="M479.13,372.32a1.46,1.46,0,0,0,1,0c0,5.46,1.23,11-1.1,16.32a4,4,0,0,0-1.27.24Z" />
  </g>
</svg>