<svg id="Layer_1" data-name="Layer 1" xmlns="http://www.w3.org/2000/svg" viewBox="0 0 798.26 798.26">
  <defs>
    <style>
      .rabota9-1 {
      fill: #d9dcdf;
      }

      .rabota9-2 {
      fill: #0380fa;
      }

      .rabota9-3 {
      fill: #eb582b;
      }

      .rabota9-4 {
      fill: #2566b7;
      }

      .rabota9-5 {
      fill: #f8dd09;
      }

      .rabota9-6 {
      fill: #3c2d2b;
      }

      .rabota9-7 {
      fill: #4b3937;
      }

      .rabota9-8 {
      fill: #6a6a6a;
      }

      .rabota9-9 {
      fill: #963615;
      }

      .rabota9-10 {
      fill: #a92d15;
      }

      .rabota9-11 {
      fill: #cc2120;
      }

      .rabota9-12 {
      fill: #ccc6c6;
      }

      .rabota9-13 {
      fill: #ba3626;
      }

      .rabota9-14 {
      fill: #6e1d07;
      }

      .rabota9-15 {
      fill: #d7a885;
      }

      .rabota9-16 {
      fill: #4281c6;
      }

      .rabota9-17 {
      fill: #2792fb;
      }
    </style>
  </defs>
  <g>
    <path class="rabota9-1"
      d="M297,204c3.78.43,5-1.59,6.06-5,3.81-12.9,8-25.67,12.16-38.47a7.93,7.93,0,0,1,1.36-1.88c3.95,1.81,8.08,3.31,11.83,5.46,23.6,13.51,47,27.3,70.69,40.71C411.7,212,423.78,220.19,437.18,226c.78,1.83.17,3.49-.39,5.29Q418.33,291.15,400,351.05c-6.29,20.48-12.56,41-18.9,61.63,6.06-.29,8.4-3.61,9.94-8.68q25.55-83.79,51.5-167.47c.62-2-.08-5.27,3.53-5.54.65,1.72,2.36,2.13,3.72,2.92q23.24,13.41,46.49,26.77,34.88,20,69.8,39.95c-.32,1.38-.54,2.79-1,4.13q-14.07,45.93-28.18,91.84Q523,441.93,509.18,487.29l-2-.45c-3.83-1.85-6.55-5.6-11-6.39a5.87,5.87,0,0,0-3.84-2.5c-3.64-4.55-7-.55-10.45.35-5.37-1.46-9.25-5.59-14.18-8-4.36-2.1-8.6-4.66-12.81-7.18-15.81-9.47-32.21-18-48-27.43-15.21-9.1-30.53-18-46.08-26.49-10.76-5.87-21.31-12.11-32.23-17.73a112.37,112.37,0,0,1-19.41-12.34c-2.55-2.08-4.91-2.23-6.88.81-.63-4.15,1.8-7.78,2-11.8,1.4-4.39,3.56-3.86,7.06-1.81,20.11,11.82,40.36,23.38,60.6,35,6.27,3.59,6.69,3.28,6.6-4.12,1.49-3.49,3.29-6.87,4.4-10.48,15.54-50.4,30.93-100.84,46.54-151.22,1.24-4,.78-6.08-3.06-8.24-16.34-9.17-32.46-18.74-48.71-28.07-17.44-10-35-19.76-52.36-30-3.73-2.19-6.46-5.41-7.1,1.91-4.45,12.4-8.58,24.9-11.8,37.68C303.69,206.4,299.42,207,297,204ZM507,474.3c2.11-6.77,4.25-13.54,6.34-20.32q22.38-72.72,44.79-145.45c1-3.2.63-5.19-2.53-7q-52.11-29.82-104.1-59.85c-1.92-1.1-3.86-2.18-4.23,1.41-4.64,11.83-7.82,24.12-11.52,36.26q-20,65.5-40.32,130.9c-1,3.08-.18,4.35,2.29,5.77Q450,446.14,502.28,476.43C505.57,478.35,506.54,477.49,507,474.3Z" />
    <path class="rabota9-2"
      d="M304.26,368.17c-.16,4-2.59,7.65-2,11.8l-.24,4.82c-1.89,2.15-5.82-1-7.1,2.75l-.73,2.25c-5.54.94-9.93,4.29-14,7.71-2.49,2.11-4.66,3-7.57,2.42-14.1-2.88-27.32-7.68-38.41-17.33-3.35-2.92-4.62-5.77-1.86-9.64,5.45-18,6.92-36.56,6.1-55.26-.45-10.33-1.61-20.63.63-30.89l3.21-9c1-1.95,1.68-4.09,3-5.8,3.59-4.76,5.75-11.21,13.1-11.86q-.49,5.88-1,11.76c-7.13,2-7.9,8.62-9.43,14.14-2.4,8.68.65,15.62,8.27,20.82a120.49,120.49,0,0,1,15.5,12.42,18.31,18.31,0,0,0,9.41,4.7c7.91,1.64,9.86-4.83,13-9.71,3.85-6,5.06-13.87,12.49-17.27,3.55-.11,6.18,1.16,7.24,4.81-8.71,6.16-13.17,14.36-13.63,25.25-.4,9.38,5.23,14.62,11.25,20l-3.75,11.28C306.59,361.59,303.4,364.16,304.26,368.17Z" />
    <path class="rabota9-3"
      d="M706.76,473.41c3.68,3.73,7.16,7.68,11.07,11.14s3,5.16-1,7.47c-22,12.56-44,25.29-66,38q-81.2,46.89-162.38,93.81c-1.4.8-2.89,1.43-4.34,2.14,1.86-8.83,7.2-16.51,8.41-25.55l1.36-2.3,1.24-1.2h.09c7.28-4,14.63-7.86,21.83-12q53-30.51,105.82-61.16l80.52-46.49C705,476.35,706.79,475.71,706.76,473.41Z" />
    <path class="rabota9-3"
      d="M692.09,458.42a85,85,0,0,1,13,13.69c-1.52,1-3,2.12-4.57,3q-40.9,23.55-81.82,47.08Q557.53,557.54,496.47,593q4.75-13.41,9.53-26.83c.38-.47.77-.93,1.16-1.4q18.7-10.74,37.41-21.5,51.63-29.74,103.25-59.49Q669.93,471.06,692.09,458.42Z" />
    <path class="rabota9-4"
      d="M210.77,473.41q4.46-22.38,8.9-44.75a2.51,2.51,0,0,0,1,.37c6.45,8.39,16.07,10.33,25.56,12.26,6.77,1.37,13.7-.63,20.5.15,6.2.71,9.17-1.2,8.35-7.69,1.94,3,2.14,6.43,2,9.88l-3.36.38-2.47,0-3.95,0c-3.14.82-7.37-3.36-9.51,2.06-.88,2.48-3.47,4.32-2.73,7.4a16.55,16.55,0,0,0-4.67,11c-.47,1.43-2.62,1.92-2.17,3.86-2.39,6.57-6.28,12.58-7.37,19.63l-.39,5.24c-1.93.75-1.77,2.44-1.8,4q-.21,13.55-.39,27.08c-.48,5.85-.8,11.71-1.48,17.54-.94,8-6.45,12.1-14.36,10.67-5.53-1-11.25-1.14-16.52-3.41-2.28-.31-2.91-2.51-4.34-3.79-1.67-7,.5-13.78.84-20.67.83-2.44,1.76-4.86,1.2-7.52,4.32-4.3,3-9.56,2.48-14.67.07-.88.15-1.77.23-2.65.55-.53,1.61-1.08,1.59-1.59C207.49,489.76,211,481.8,210.77,473.41Z" />
    <path class="rabota9-3"
      d="M675.52,441.12c4.51,4.42,9.31,8.58,13,13.81-.22,2.26-2.2,2.75-3.73,3.63q-27.12,15.72-54.28,31.4c-31.08,18-62.1,36.05-93.3,53.81-9.12,5.2-17.63,11.6-27.68,15.1,2.2-8.44,6.68-16.11,8.38-24.72l1.64-2.2q25.05-14.34,50.1-28.69c24.61-14.14,49.31-28.12,73.74-42.58C654.14,454.3,665.81,449.29,675.52,441.12Z" />
    <path class="rabota9-3"
      d="M660.39,425.38l14.06,14.44a65.06,65.06,0,0,0-7.27,3.1Q632.35,463,597.6,483.22q-37.76,21.87-75.54,43.71c1.58-9.52,6.34-17.93,9.4-26.94a2.57,2.57,0,0,0,.42-.92l1.19-1.26h.11a11,11,0,0,0,2.91-.76c19-10.94,37.88-22,56.85-32.91Q626.63,444.71,660.39,425.38Z" />
    <path class="rabota9-3"
      d="M645,409.68c5,3.68,8.83,8.45,12.77,13.13q-23.16,13.28-46.32,26.55-38.67,22.27-77.28,44.6c-.2-2.36,1.29-4.21,1.89-6.31,1.87-6.59,6-12.42,6.63-19.41h0l1.14-1.24,1.23-1.37a34.17,34.17,0,0,0,3.32-1.48c26.46-15.34,52.85-30.82,79.42-46C633.35,415.05,638.22,410.36,645,409.68Z" />
    <path class="rabota9-5"
      d="M297,204c2.46,3,6.73,2.39,9.47,4.81a2.51,2.51,0,0,0,2.59,2.59q1.94,8.49,3.86,17c-.8,3,3.33,4.36,2.43,7.39a19.17,19.17,0,0,1-6.24,11.46c-18.16,7.68-38.48,1.55-46.45-11.49C262.14,217.41,277.16,203.53,297,204Z" />
    <path class="rabota9-3"
      d="M628.48,392.37a86,86,0,0,1,13.25,13.79c-22.12,12.84-44.19,25.77-66.39,38.47-9.13,5.22-17.66,11.56-27.71,15.1.81-8.28,6-15.21,7.2-23.37l.07,0,1-1.19c.26-1.71,1.87-2.36,2.77-3.57,3-.29,5.23-2.08,7.67-3.49Z" />
    <path class="rabota9-6"
      d="M509.18,487.29q13.87-45.35,27.76-90.69,14.07-45.93,28.18-91.84c.41-1.34.63-2.75,1-4.13,3.59-1,6.91-2.35,8.72-5.95,2.86,1.8.74,3.9.27,5.82-2.28,9.43-6.38,18.34-7.89,28A133.34,133.34,0,0,0,561,347.11c-4.28,1.89-1.54,5.7-2.34,8.54-3,8.43-6.78,16.64-7.35,25.76-1.46,1.34-3,2.65-2.41,5-2.12,8.66-6.34,16.7-7.38,25.66.15,2.09-2.82,2.78-2.27,5.05-.48,1.92-.88,3.86-1.46,5.75-2.13,6.94-5.35,13.56-6,20.92.09,2.11-2.79,2.81-2.39,5.06-.31,1.75-.71,3.46-1.16,5.18-1.9,7.2-6,13.77-6.2,21.44,0,.92,0,1.85-.05,2.78C518.9,482.9,514.11,485.19,509.18,487.29Z" />
    <path class="rabota9-7"
      d="M262.62,235.75c8,13,28.29,19.17,46.45,11.49-.17.8-.35,1.6-.53,2.4-7,7.59-10,17.45-14.77,26.25-4,7.35-9.84,10.88-17.88,11.42-2.81.19-5.63.27-8.45.4-8.36-2.29-11.54-7.32-10-15.85q.49-5.88,1-11.76c.13-1.64.27-3.27.4-4.91Q260.72,245.47,262.62,235.75Z" />
    <path class="rabota9-8"
      d="M437.18,226c-13.4-5.82-25.48-14-38.12-21.21-23.65-13.41-47.09-27.2-70.69-40.71-3.75-2.15-7.88-3.65-11.83-5.46,2.82-5.85,8.81-8.19,13.84-5.29q57.36,33,114.68,66.1c1.42.82,4.53.85,2.47,3.95C443.72,222.85,441.08,226.94,437.18,226Z" />
    <path class="rabota9-8"
      d="M574.79,294.68c-1.81,3.6-5.13,5-8.72,5.95q-34.91-20-69.8-39.95Q473,247.34,449.78,233.91c-1.36-.79-3.07-1.2-3.72-2.92,0-.91.08-1.81.13-2.72,8.13-5.33,14.41-.26,21.05,3.59q51.06,29.61,102.18,59.08C571.29,292,573.61,292.56,574.79,294.68Z" />
    <path class="rabota9-9"
      d="M496.21,480.45c4.45.79,7.17,4.54,11,6.39a7,7,0,0,1-4.06,5.68c-7.47,3.17-6.88,11.26-10.45,16.79-.95,1.46-.16,3.73-1.37,5.7-1.64,2.66,1.2,1.91,2.46,2.23l-5.25,3.83c-1.33,1-2.83,1.9-.84,3.64-2.16,4.16-5.34,8.12-6.2,12.53-.9,4.69-6.21,8.83-2.38,14.27-1.21,1.64-4,2.07-3.75,4.82l-1.59.55a3.48,3.48,0,0,0,.33.45c.46-.28.91-.58,1.37-.88l2.39,0c-.73,3.59-5.58,2.25-6.58,5.44-2.23,7-4.54,14.09-4.29,21.64-.6,3.71-6.62,2.77-6.26,7.3-2.82,3.63-.88,9.2-4.1,12.17-3.65,3.36-2.71,8.25-5.41,11.78-.91,1.19.35,2.66,2.14,2.81-2.25,2.29-6.23,3.16-6.12,7.4L436.38,653.4c-3.29,7-8.18,13-12.5,19.39-1.91-3.65,2.11-6.46,1.39-9.94l0,0c1-.45,1.08-1.33,1-2.27,1.62-.83,2.7-2,2.55-4a9.72,9.72,0,0,0,0-1.21L435,639.57a5.13,5.13,0,0,0,1.21-6.1l2.27-2.47c1.91-5.22,4.89-10.1,5.08-15.88l.31-.42-.28.45a3.5,3.5,0,0,1-.95.2l-1.64-.24c.46-3.3,4.7-4,5-7.37,4.41-4.16,4.53-10.14,7.5-15.74l-5,1.21c.84-4.42,6.14-5.54,7.25-9.77,2.35-1.15,2.08-3.62,2.9-5.56s3.2-4.08,1.43-5.87-3.64,1.27-5.62,1.68c-1.77-1.63-.09-2.34.84-3.3,3.37-3.46,6.71-6.93,10.07-10.4a54.53,54.53,0,0,0,6.19-15.86l.06,0a2,2,0,0,0,1-2.25c-1.25-3,1-4.45,2.57-6.27,2.49-4.66,3.89-9.72,5.26-14.79a7.26,7.26,0,0,0,2.15-6l.12-2.36c5.05-4.12,4.41-10.81,7.21-15.95l.05-.05c.91-.69,1.53-1.38,0-2.11-.54-2.35,1.08-3.69,2.41-5.16C495,486.72,495.32,483.48,496.21,480.45Z" />
    <path class="rabota9-7"
      d="M277,443.63c.15-3.45,0-6.84-2-9.88-.16-4.47-.4-8.94-.47-13.42-.05-3-1.88-4.91-4.46-4.48-4.43.73-8.39-1-12.58-1.36-13.85-1.14-23.9-9-34-20.34.66,8-5.1,13.34-3,20.38l-2.21-.42c-.48-12.69.62-25.17,4.92-37.22l2.45-2.9a9.29,9.29,0,0,1,6.76-1c-2.77,3.87-1.5,6.72,1.85,9.64,11.09,9.65,24.31,14.45,38.41,17.33,2.91.6,5.08-.31,7.57-2.42,4-3.42,8.42-6.77,14-7.71q.24,10.43.46,20.86a32.43,32.43,0,0,1-13.33,3.61c-3.31.29-4.35,1.69-4,4.6.66,5.23,1.58,10.43,2.14,15.66.91,8.37.83,8.41,9.05,6.85,1.15-.22,2.19-1,3.34-1.22,6.49-1.16,12-5.2,18.62-6,.29,4.14-1.55,6.87-5.37,8.48-7.42,3.13-14.93,5.87-23.09,6.29C278.92,448.53,277.5,446.53,277,443.63ZM229.09,383.7c-4.62,4.89-3,11.68,3.39,15.91,6.59,4.37,13.86,7.09,21.25,9.56A48.75,48.75,0,0,0,271,412c2.12-.08,3.58-.73,3.67-3.08.08-1.87.16-4.11-2.5-3.89-4.47.37-8.34-1.8-12.29-3C248.2,398.44,236.64,394.31,229.09,383.7Z" />
    <path class="rabota9-6"
      d="M446.19,228.27c-.05.91-.09,1.81-.13,2.72-3.61.27-2.91,3.55-3.53,5.54Q416.63,320.21,391,404c-1.54,5.07-3.88,8.39-9.94,8.68,6.34-20.66,12.61-41.15,18.9-61.63q18.38-59.88,36.8-119.75c.56-1.8,1.17-3.46.39-5.29,3.9.93,6.54-3.16,10.35-2.62C447.08,225,446.64,226.65,446.19,228.27Z" />
    <path class="rabota9-3"
      d="M612.29,375.6c5.27,4,9.4,9.07,13.6,14.1-12.68,7.44-25.18,15.21-38.09,22.21-9.73,5.28-18.63,12.08-29.13,15.95l9.54-25.78,2.91-3.3C585.33,391.92,598.82,383.78,612.29,375.6Z" />
    <path class="rabota9-10"
      d="M436.38,653.4,447.25,625c8.16-4.66,16.25-9.45,24.51-13.94,6.82-3.71,13.12-8.48,20.76-10.6-1.21,9-6.55,16.72-8.41,25.55C468.61,635.83,452.38,644.42,436.38,653.4Z" />
    <path class="rabota9-9"
      d="M496.47,593q61.11-35.4,122.22-70.79,40.86-23.62,81.82-47.08c1.58-.91,3-2,4.57-3l1.68,1.3c0,2.3-1.8,2.94-3.38,3.85l-80.52,46.49Q570,554.34,517,584.91c-7.2,4.15-14.55,8-21.84,12-.19-1.5-.82-2.56-2.55-2.49.09-1.12-.53-2.77.94-3C494.42,591.24,495.5,592.43,496.47,593Z" />
    <path class="rabota9-9"
      d="M509.49,558.87c10-3.5,18.56-9.9,27.68-15.1,31.2-17.76,62.22-35.84,93.3-53.81q27.15-15.69,54.28-31.4c1.53-.88,3.51-1.37,3.73-3.63a6.51,6.51,0,0,1,3.61,3.49Q670,471.1,647.82,483.79q-51.65,29.71-103.25,59.49-18.69,10.77-37.41,21.5l.12-2.24.26-.57-.31.51a8.78,8.78,0,0,0-4.88,1.23C503.46,560.23,505.77,558.52,509.49,558.87Z" />
    <path class="rabota9-11"
      d="M247.91,583.33a19.21,19.21,0,0,1-14.25-6.92c-.39-.46-.77-1.1-1.28-1.26-10.34-3.29-8.93-10-5.07-17.38,2.61-2.52,7.1-.17,9.36-3.61,1.26,2.58,4,3.27,6.16,4.59,7.36,4.43,14.8,8.75,22.21,13.11l-.19,1.52c-2.49.85-3.38,3.19-4.75,5.07-4,.14-8.61-1.16-9.85,4.69Z" />
    <path class="rabota9-10"
      d="M551.34,381.41c.57-9.12,4.37-17.33,7.35-25.76,7.72-3.84,14.32-9.78,22.83-12.14a22.13,22.13,0,0,1,6.75,7.23c-1.58,3.57-4.7,6.76-2.73,11.19L583,363.18Z" />
    <path class="rabota9-11"
      d="M327.46,627.41a16.36,16.36,0,0,1-12.82-5.75,18.64,18.64,0,0,0-6.7-5c-4.83-1.94-5.27-4.83-2.14-8.67q2.2-5.06,4.4-10.13c11.84,6.38,24.09,12.07,34.42,20.93L343.24,620c-4.74-.61-6.84,1.88-7.34,6.25a2.37,2.37,0,0,1-2.39,1.06c-.33-.6-.55-1.64-1-1.74-1.25-.3-1.3.89-1.53,1.74Z" />
    <path class="rabota9-6"
      d="M236.67,554.16c-2.26,3.44-6.75,1.09-9.36,3.61-2.28-.3-2.37,2.14-3.72,3-.1-4.61-3.11-4.46-6.37-3.9-3.95-2.37-9.11-3-11.37-7.8,5.27,2.27,11,2.41,16.52,3.41,7.91,1.43,13.42-2.64,14.36-10.67.68-5.83,1-11.69,1.48-17.54l8.54.06,2.36.14c9.13,5.41,9.73,13.5,7.09,22.6l-8.34,3.49Z" />
    <path class="rabota9-3"
      d="M596.73,359.32a109,109,0,0,1,13.9,14.19c-5.09,2.8-10.15,5.67-15.29,8.37-8.17,4.27-15.57,10-24.43,12.93,3.43-8.49,7.46-16.76,9.66-25.72l1.25-1.31Z" />
    <path class="rabota9-9"
      d="M522.06,526.93q37.77-21.85,75.54-43.71,34.78-20.14,69.58-40.3a65.06,65.06,0,0,1,7.27-3.1l1.07,1.3c-9.71,8.17-21.38,13.18-32.17,19.56-24.43,14.46-49.13,28.44-73.74,42.58q-25,14.38-50.1,28.69a2.62,2.62,0,0,0-1.24-2.63A4.17,4.17,0,0,1,522.06,526.93Z" />
    <path class="rabota9-11"
      d="M428.86,655.42a9.72,9.72,0,0,1,0,1.21c-5,2.14-7,7.94-12.1,10-5.23,2.83-11.14,1.29-16.61,2.61-5.79-2.56-9.17-8.51-15.28-10.73-2.68-1-.32-3.71-1.12-5.48,2.6-2.74,2.11-8.06,7.25-8.67L417.63,659l8.68-4.78Z" />
    <path class="rabota9-11"
      d="M286,605.36c-7.06.6-10.69-4.65-15-8.79-1.12-5.31-4.74-10.05-3.68-15.87-.39-3.12.63-5.08,4.12-5,3,2.19,10.1,2,7.47,7.78s-.72,8.37,4,10.67c4.75,1.9,4.68,1.85,6.65-1.5a53.06,53.06,0,0,1,3.49-4.71,52.21,52.21,0,0,1,11.06,6.42,6.43,6.43,0,0,0-.12,1.16c-5.07-.61-4.94,2.81-4.81,6.22a2.59,2.59,0,0,1-.92,0c-2.42.67-5.5.15-6.4,3.56C289.93,606.68,288,604.88,286,605.36Z" />
    <path class="rabota9-11"
      d="M369.34,650.48c-7.84-1-14.28-4.43-19-10.88l-.11-.1h-.38l-.32-.21c-1.41-6.74-3.5-13.35-3.93-20.28,4.17-.14,6.81,3.13,10.26,4.61,2.17.94,2.2,2.68,1,4.5-3.42,5.26-1.34,8.47,3.88,10.53,3.75,1.56,7,2.13,7.11-3.57a2.71,2.71,0,0,1,2.4-2.87c4.62,2.51,10.07,4,12.22,9.63l-.09,1.43C378.68,646.81,374.72,649.94,369.34,650.48Z" />
    <path class="rabota9-9"
      d="M534.18,494q38.64-22.31,77.28-44.6,23.13-13.32,46.32-26.55a4.53,4.53,0,0,1,2.61,2.57q-33.74,19.38-67.45,38.77c-19,10.94-37.89,22-56.85,32.91a11,11,0,0,1-2.91.76c-.1-.86-.2-1.71-.29-2.57Z" />
    <path class="rabota9-11"
      d="M205.85,549.07c2.26,4.84,7.42,5.43,11.37,7.8-4.21,5.07-9.67,1.48-14.53,2.11-5.24-.26-8.19-3.93-11.19-7.52-2.54-5-5.33-9.91-4.95-15.82.19-2.31.37-4.62.56-6.93,4-1.61,6,2.15,9,3.25,3.25,1.2,3.77,3.71,2.22,6.26-2.55,4.19-.29,5.78,3.15,7.06C202.94,546.56,203.57,548.76,205.85,549.07Z" />
    <path class="rabota9-9"
      d="M547.63,459.73c10-3.54,18.58-9.88,27.71-15.1,22.2-12.7,44.27-25.63,66.39-38.47a5.85,5.85,0,0,1,3.28,3.52c-6.79.68-11.66,5.37-17.19,8.52-26.57,15.14-53,30.62-79.42,46a34.17,34.17,0,0,1-3.32,1.48,2.26,2.26,0,0,0-1.14-2.39,2.27,2.27,0,0,1,2.45-2.33l1.26-1.21Z" />
    <path class="rabota9-12"
      d="M201.51,545.28c-3.44-1.28-5.7-2.87-3.15-7.06,1.55-2.55,1-5.06-2.22-6.26-3-1.1-5-4.86-9-3.25-1.84-5-7.33-5.14-10.79-8-4-3.32-4.51-8.39-.72-11.83,7,8.5,17,12,26.75,15.75C202,531.5,199.84,538.31,201.51,545.28Z" />
    <path class="rabota9-1"
      d="M202.35,524.61c-9.79-3.76-19.75-7.25-26.75-15.75,2.32-3.31,5.38-5.41,9-2.6,4.55,3.5,7.52,3.13,9.63-2.3.45-1.16,1.51-1.15,2.53-1.09-1.71,6.63-1.16,12.17,6.76,14.22C204.11,519.75,203.18,522.17,202.35,524.61Z" />
    <path class="rabota9-9"
      d="M558.67,427.86c10.5-3.87,19.4-10.67,29.13-15.95,12.91-7,25.41-14.77,38.09-22.21a4.24,4.24,0,0,1,2.59,2.67l-62.15,35.72c-2.44,1.41-4.72,3.2-7.67,3.49l-2.43-1.34Z" />
    <path class="rabota9-3"
      d="M267.36,580.7c-1.06,5.82,2.56,10.56,3.68,15.87-3.9-1.23-7.17-6.23-9.17-6.36-4.91-.34-7.77-3.6-11.71-5-.86-.3-1.51-1.23-2.25-1.87l2.34-.18c4.23.41,7-2.25,9.85-4.7,1.37-1.88,2.26-4.22,4.75-5.07,2,4.83-2.69,8.55-2.63,13.23C265.94,585.94,265.7,582.56,267.36,580.7Z" />
    <path class="rabota9-10"
      d="M561,347.11a133.34,133.34,0,0,1,6.14-18.61,98.51,98.51,0,0,1,12,12.28c-5.48.66-9.2,5-14.1,6.8C563.8,348.05,561.92,350.78,561,347.11Z" />
    <path class="rabota9-3"
      d="M345.6,619c.43,6.93,2.52,13.54,3.93,20.28-1.13.37-1.66-.34-2.12-1.17.1-.92-.68-.67-1.13-.87-4.5.27-2.86-3.24-3-5.55-7.49,5.69-10.75-2.43-15.79-4.29l3.52-.14h2.53a2.37,2.37,0,0,0,2.39-1.06c3-1.48,5.83-3.07,7.34-6.25l1.38-1.16A2.37,2.37,0,0,1,345.6,619Z" />
    <path class="rabota9-5"
      d="M258.83,255.19c-.13,1.64-.27,3.27-.4,4.91-7.35.65-9.51,7.1-13.1,11.86-1.29,1.71-2,3.85-3,5.79-3-1.22-1.47-4-2-6.06C242.77,261.45,249.56,255.4,258.83,255.19Z" />
    <path class="rabota9-9"
      d="M570.91,394.81c8.86-2.95,16.26-8.66,24.43-12.93,5.14-2.7,10.2-5.57,15.29-8.37.55.7,1.1,1.4,1.66,2.09-13.47,8.18-27,16.32-41.17,23.18-.08-.52-.16-1-.23-1.56C570.89,396.42,570.9,395.61,570.91,394.81Z" />
    <path class="rabota9-13"
      d="M223.22,376.89c-4.3,12.05-5.4,24.53-4.92,37.22,0,.66-.07,1.32-.1,2-2.72-10.22-2.72-20.67-2.57-31.12,0-2.36.33-4.91,2.63-6.49C219.81,377.65,221.34,376.74,223.22,376.89Z" />
    <path class="rabota9-13"
      d="M203.55,517.09c-7.92-2.05-8.47-7.59-6.76-14.22.4-.56.79-1.12,1.19-1.67,3.16-2.77,5.44.28,8.05,1.22C206.52,507.53,207.87,512.79,203.55,517.09Z" />
    <path class="rabota9-3"
      d="M425.27,662.85c.72,3.48-3.3,6.29-1.39,9.94-1.93,5.56-5,6.64-9.71,2.72a58.19,58.19,0,0,0-6.08-4c3.1,0,6.07-.48,8.63-2.43C420.63,668.48,422,664.37,425.27,662.85Z" />
    <path class="rabota9-3"
      d="M202.69,559c4.86-.63,10.32,3,14.53-2.11,3.26-.56,6.27-.71,6.37,3.9-5.34,6.39-5.31,6.33-13.32,1.76C207.85,561.16,205.22,560.15,202.69,559Z" />
    <path class="rabota9-3"
      d="M286,605.36c1.95-.48,3.92,1.32,5.86-.06,3.07.5,4.83-1.36,6.4-3.56a2.59,2.59,0,0,0,.92,0l4.94-2.55c1.09,3.59-3.91,6.16-1.65,9.94-1.12,3.92-3,4.8-6.58,2.23C292.8,609.07,289.32,607.33,286,605.36Z" />
    <path class="rabota9-14"
      d="M561,347.11c.89,3.67,2.77.94,4,.47,4.9-1.84,8.62-6.14,14.1-6.8l2.38,2.73c-8.51,2.36-15.11,8.3-22.83,12.14C559.49,352.81,556.75,349,561,347.11Z" />
    <path class="rabota9-5"
      d="M223.22,376.89c-1.88-.15-3.41.76-5,1.58-1.71-1.93-1.88-4.39-2-6.73-.06-1.71-1.34-4.26,1.69-4.88,2.51-.52,4.7-.21,5.53,2.92a21.29,21.29,0,0,0,2.17,4.21C224.85,375,224,375.92,223.22,376.89Z" />
    <path class="rabota9-13"
      d="M210.77,473.41c.25,8.39-3.28,16.35-2.92,24.77,0,.51-1,1.06-1.59,1.59-.42-3.87-.83-7.76-1.25-11.64C203.84,482,207.81,477.91,210.77,473.41Z" />
    <path class="rabota9-3"
      d="M369.34,650.48c5.38-.54,9.34-3.67,13.07-7.21,2.86,3.29-1.64,5.68-1.07,8.7,0,4.2-2.47,4.69-5.4,3.08C373.63,653.78,370.82,653,369.34,650.48Z" />
    <path class="rabota9-9"
      d="M302.48,609.09c-2.26-3.78,2.74-6.35,1.65-9.94,0-1.22-.09-2.45-.13-3.67a6.43,6.43,0,0,1,.12-1.16l6.07,3.55Q308,602.94,305.8,608Z" />
    <path class="rabota9-3"
      d="M186.55,535.64c-.38,5.91,2.41,10.82,4.95,15.82C181.24,546.36,181.24,546.36,186.55,535.64Z" />
    <path class="rabota9-3" d="M585.54,361.93c-2-4.43,1.15-7.62,2.73-11.19a17.15,17.15,0,0,1,5.94,5.94Z" />
    <path class="rabota9-3"
      d="M205,488.13c.42,3.88.83,7.77,1.25,11.64-.08.88-.16,1.77-.23,2.65-2.61-.94-4.89-4-8.05-1.22C201.26,497.34,202.69,492.5,205,488.13Z" />
    <path class="rabota9-9"
      d="M381.34,652c-.57-3,3.93-5.41,1.07-8.7,0-.48,0-.95.08-1.43,3.69-2.13,5.67,1.59,8.47,2.47-5.14.61-4.65,5.93-7.25,8.67Z" />
    <path class="rabota9-9"
      d="M585.54,361.93l8.67-5.25a4.58,4.58,0,0,1,2.52,2.64l-14.91,8.46c.39-1.54.78-3.07,1.18-4.6Z" />
    <path class="rabota9-13"
      d="M416.72,669.12c-2.56,2-5.53,2.41-8.63,2.43-2.72-.57-5.62-.55-8-2.36,5.46-1.32,11.37.22,16.6-2.61Z" />
    <path class="rabota9-15"
      d="M240.32,271.69c.57,2.06-1,4.84,2,6.06l-3.21,9.05C238.67,281.7,236.23,276.44,240.32,271.69Z" />
    <path class="rabota9-8"
      d="M218.2,416.08c0-.65.06-1.31.1-2l2.21.42q.06,7.25.11,14.5a2.51,2.51,0,0,1-1-.37C220.16,424.35,218.37,420.31,218.2,416.08Z" />
    <path class="rabota9-11" d="M346.28,637.25c.45.2,1.23,0,1.13.87Z" />
    <polygon class="rabota9-3" points="350.23 639.5 350.34 639.6 350.23 639.82 350.23 639.5" />
    <path class="rabota9-12"
      d="M302.05,384.79l.24-4.82c2-3,4.34-2.89,6.89-.81a112.37,112.37,0,0,0,19.41,12.34c10.92,5.62,21.47,11.86,32.23,17.73,15.55,8.48,30.87,17.39,46.08,26.49,15.82,9.46,32.22,18,48,27.43,4.21,2.52,8.45,5.08,12.81,7.18,4.93,2.38,8.81,6.51,14.18,8-.05,1.94-.14,3.88-.14,5.81,0,3.11-1.68,2.35-3.41,1.53L438.53,463c-6.74-4.13-6.75-4.13-9.45,2.84-7.8,20.08-15.53,40.18-23.37,60.24q-17,43.37-34,86.67a13.94,13.94,0,0,1-7.58-3.66l5.15-13.35c1.24-.91.86-2.28,1-3.5,3.72-6.69,5.91-14,8.58-21.11,1.27-.87,1.11-2.23,1.21-3.5a176.65,176.65,0,0,0,8.57-22.2.38.38,0,0,0,.23-.59c2.88-7.55,6.95-14.67,8.27-22.79a.62.62,0,0,0,.1-.73c4.89-6.76,6.75-14.8,9.58-22.43.06-.72.13-1.45.19-2.17,1.73-.76,1.9-2.47,2.47-4,4.09-10.78,7.73-21.76,12.52-32.22,2.75-6,.22-7.94-4.49-9.48-1.86-.61-3.7-1.78-5.83-1a.69.69,0,0,0-.68-.19c-.19-2.51-2-4-3.85-5-7.82-4.48-15.72-8.81-23.59-13.19L380,429.44a1.09,1.09,0,0,0-1-.47,5.81,5.81,0,0,0-3.89-2.28l-2.48-1.36-14.57-8.4c-4.15-3.62-5.05-.1-6.18,2.83-12.35,31.86-24.55,63.78-37.09,95.56-6.87,17.39-12.84,35.14-20.71,52.13a10.42,10.42,0,0,1-8.35-3.11c2.89-4.23,5-8.73,5-14,5.23-6.94,6.79-15.47,10.07-23.25l.72-1.27q20.81-53.61,41.58-107.23c3.58-9.25,3.48-9.29-5.69-13.81a4.12,4.12,0,0,0-1.19-.21,10.62,10.62,0,0,0-5.11-3.19c-4.76-2.57-8.65-7.18-14.85-6.38-.32-.09-.65-.18-1-.25C313.33,388.14,306.67,387.83,302.05,384.79Z" />
    <path class="rabota9-16"
      d="M507,474.3c-.45,3.19-1.42,4.05-4.71,2.13Q450.1,446.06,397.71,416c-2.47-1.42-3.25-2.69-2.29-5.77q20.35-65.4,40.32-130.9c3.7-12.14,6.88-24.43,11.52-36.26l1.29,2.5c0,1.22,0,2.43,0,3.65-4.52,14.71-8.87,29.47-13.71,44.08-1,3.09.43,4.58,2.17,5.37,10,4.51,18.52,11.56,28.79,15.44,2.27,2-.3,5.62,2.48,7.46l-.21,4.73c-3.32,4.37-3.09,9.91-4.73,14.83-3.16,9.48-4.95,19.45-8.63,28.69-1.66,4.17-.43,6.24,2.23,7.32,10,4.08,18.78,10.41,28.34,15.28,1.67,2.24,1.52,5.07,2.46,7.54,0,1.13-.06,2.26-.08,3.4-3.72,5.93-4.87,12.87-7.1,19.34-2.41,7-3,14.53-6.43,21.37-1.9,3.74-4.3,7.88,1.82,11.78,6.36,4.05,13.83,6,19.56,11.31,2.17,2,5.46,4.23,9.24,3.48ZM415,358.57c-5.67,15.63-8.48,31.95-15.06,47-.77,1.77-1.31,4.81.48,5.7,9.23,4.6,16.74,11.58,25.15,17.27,4.41,3,8.44.15,8.17-5.11-.45-8.53,3.78-15.78,6.27-23.4,2.2-6.72,3.07-13.81,6-20.34.64-1.45.4-3.35-1.8-4.56C434.45,369.83,424.89,364.24,415,358.57Zm21.11,68.59c-.33,3.19.77,5.14,3.63,7,8,5.17,17,8.47,24.65,14.11a2.24,2.24,0,0,0,3.66-1.72c1.11-8.8,6-16.38,7.87-25,1-4.9,1.83-10.29,4-14.71,3.84-7.75,3.26-10.25-4.61-14.51-6.62-3.58-14.08-5.69-19.77-11.06-2.05-1.94-3.24-1-4.86,1.66-4.29,7.09-3.62,15.57-7.16,22.71-2.69,5.44-.87,12.52-6.47,16.94C436.1,423.28,436.37,425.58,436.09,427.16Zm-1-124.73a7.39,7.39,0,0,0-3.95,5c-3.48,11.37-6.86,22.76-10,34.25-3,11.13-3.32,10.88,5.06,17.51,5.61,4.43,13,5.69,18.31,10.59,1.56,1.43,3.63.27,4.65-1.47,1.5-2.56,3.3-5.14,4-7.95,2.68-11.12,5.51-22.16,9.52-32.91,1.38-3.72,3.27-7.89-2.76-10.75-8.06-3.82-15.57-8.78-23.32-13.26C436.15,303.15,435.68,302.8,435.13,302.43Z" />
    <path class="rabota9-4"
      d="M448.55,245.59l-1.29-2.5c.37-3.59,2.31-2.51,4.23-1.41q52,30,104.1,59.85c3.16,1.81,3.52,3.8,2.53,7Q535.67,381.24,513.33,454c-2.09,6.78-4.23,13.55-6.34,20.32l-2.22-3.64c0-1.58,0-3.17,0-4.76a70.61,70.61,0,0,0,2.7-7.31c4.29-11.33,5.47-23.64,11-34.52,1.53-3,.92-4.5-2.22-6.11A98.82,98.82,0,0,1,495,403.6c-2-1.84-3.95-4.23-7.27-3.62-.94-2.47-.79-5.3-2.46-7.54l.06-4.78c1.77-.26,2.05-1.5,2.34-3,.87-4.47,2.08-8.89,3.24-13.25,2.27-8.52,6.09-16.61,8.7-25.06.69-2.24,2-6.09-1.61-7.5-5.66-2.21-9.81-7.13-15.47-8.86s-7.89-8.44-14.26-8.37c-2.78-1.84-.21-5.45-2.49-7.46,0-.78,0-1.55,0-2.33.66-.41,1.73-.7,1.9-1.26,3.88-12.92,7.41-25.93,12.09-38.62,3.36-9.13,2.35-10.23-7.14-14.25-1.44-.61-2.55-2-4-2.6C461.82,252.21,457.07,244.88,448.55,245.59Zm76.35,41.74c-2.57-.24-2.52,1.51-3.15,3.05-5.76,14.23-7.61,29.77-14.59,43.55-1.89,3.72-1.25,5.45,2.55,7.2,6.14,2.82,12.46,5.62,17.84,9.61,9.64,7.16,11.27,6.88,14.11-4.9.09-.39.13-.8.26-1.19,3.91-11.89,7.84-23.78,11.71-35.68,1-3.1-.82-5.25-3.14-6.59-8.14-4.67-17-8.16-24.17-14.43A4.41,4.41,0,0,0,524.9,287.33Zm-7.77.62c-.24-2.07.66-4.11-1.35-5.33-8.06-4.88-16-9.9-24.27-14.49-2-1.13-5.09-2-6.3,2-3.15,10.44-5.87,21.08-10,31.11-1.94,4.66-1,9.9-4.21,14.16-1.32,1.77.61,2.79,2.43,3.84,7.39,4.29,15,8.2,21.88,13.39,4.08,3.09,8.37,1.26,9.5-3.94,1-4.46,2.83-8.59,4.23-12.88C512,306.52,514.51,297.05,517.13,288Zm-11,56-1.64.22c2.07,4.49-1.2,7.58-2.48,11-2.76,7.21-3.44,15-6.83,22-2.28,4.69-2.19,10.14-4.77,14.81-.77,1.39-1,3.85.92,5,9.88,5.79,19.84,11.45,30.27,17.43.76-9.22,5.21-16.55,7.48-24.58,1.69-6,2.63-12.5,5.68-17.75,3.56-6.14,1.23-9.79-3.21-12.72C523.26,353.8,514.59,349,506.09,343.93Z" />
    <path class="rabota9-4"
      d="M318.23,171.14c.64-7.32,3.37-4.1,7.1-1.91,17.32,10.22,34.92,20,52.36,30,16.25,9.33,32.37,18.9,48.71,28.07,3.84,2.16,4.3,4.23,3.06,8.24-15.61,50.38-31,100.82-46.54,151.22-1.11,3.61-2.91,7-4.4,10.48l-2.14.07c0-1.59,0-3.18,0-4.77,2.88-9.76,5.2-19.74,8.91-29.17,1.63-4.15,1.09-8.65,3.38-12.47,2.8-4.69,1.35-8.7-4-9.67a16.89,16.89,0,0,1-6.37-3,88.72,88.72,0,0,0-18.94-9.59c-.16-2.35,1.05-4.19,2.27-6a119.5,119.5,0,0,1,20.59,12.05c7.85,5.63,9.8,5.29,13.06-3,.14-.37.53-.65.67-1,2.82-7.63,5.78-15.22,7.58-23.18,1.22-5.42,1.33-11.13,5-15.85,1.51-2,.29-3-1.66-4.64-4.41-3.75-10.53-4.42-14.46-8.42s-9.12-4.9-13.35-7.93c-2.11-1.51-3.45.11-4,2.69-1.05,5.13-2.53,10.16-3.83,15.23-2.23-2.45,0-6.22-2.56-8.57,1.31-3.44,2.84-6.8,3.86-10.32.56-1.94-.35-3.3-2.35-4.81-7.3-5.52-16.42-7.84-23.5-13.78-1-.85-3.27-4-6-1.76a14,14,0,0,1-2.29-8.61c-.54-3.77,1.42-6.92,2.43-10.34,3.24-11,7.64-21.67,10.6-32.82,1.62-6.13,1.57-10.3-3.92-12.37-7.77-2.94-14.3-7.8-21.33-11.88-2.21-1.29-4.08-2.25-4.92,1.28l-2.39,3.66C318.59,175.85,319.45,173.4,318.23,171.14Zm57.71,91.73c-2.13-4.75,1-6.9,1.46-9.79,2.28-13.16,7.4-25.4,11.9-37.85,1.15-3.16.53-5.5-2.79-7.61-7.1-4.51-15.4-6.82-21.82-12.62-2.93-2.66-8.25-.26-9.06,3.76-2.7,13.29-7.51,25.89-12.05,38.6-1.66,4.63-.41,8.86,5.23,10.38a10.16,10.16,0,0,1,4.41,1.79C359.5,254.8,366.59,258.79,375.94,262.87Zm49.77-31.06c-.52-1.54-2.15-2.59-4.35-3.49-7.58-3.12-14.33-7.75-20.93-12.53-1.77-1.27-3.26-2.54-5.4-1.8s-2.66,2.93-2.77,5c-.4,7.74-4.75,14.31-6.34,21.72s-5.84,14-6.59,21.73c-.26,2.68.36,4.06,2.78,5.21,5.75,2.73,11.46,5.38,16.52,9.53,3.09,2.53,7.64,4.76,11.4,4.56,3.54-.18.86-5.29,2.18-7.89.27-.53.87-.9,1.09-1.44C418.69,259.52,421.08,245.69,425.71,231.81Z" />
    <path class="rabota9-10"
      d="M534.18,494l-1.29,1.29c-13.51,6.47-26,14.78-39.1,22-1.26-.32-4.1.43-2.46-2.23,1.21-2,.42-4.24,1.37-5.7,3.57-5.53,3-13.62,10.45-16.79a7,7,0,0,0,4.06-5.68l2,.45c4.93-2.1,9.72-4.39,12.84-9.06,2.16.12,3.64-1.39,5.45-2.14,5.3-2.2,9.45-6.6,15.23-7.85-.66,7-4.76,12.82-6.63,19.41C535.47,489.75,534,491.6,534.18,494Z" />
    <path class="rabota9-16"
      d="M376.38,397.29l2.14-.07c.09,7.4-.33,7.71-6.6,4.12-20.24-11.6-40.49-23.16-60.6-35-3.5-2.05-5.66-2.58-7.06,1.81-.86-4,2.33-6.58,3.52-9.87.1,1.43,1.07,1.91,2.26,2.47,7.67,3.6,15.55,7,22.19,12.26,4.38,3.47,6.71,1.83,8.33-2,2.08-4.89,3.44-10.1,5.1-15.18l2.45-.54c1.13,2.19,2.6,3.84.47,6.85-1.91,2.69-3.73,6.18-2.95,10.09a2.28,2.28,0,0,1-1.69,2.84c-5.05,1.19-1.19,3.25-.17,4.24,4.18,4.08,9.86,5.92,14.64,9.24C363.75,392.29,369.76,395.71,376.38,397.29Z" />
    <path class="rabota9-16"
      d="M318.23,171.14c1.22,2.26.36,4.71.6,7.06-2.85,11.2-4.94,22.62-9.81,33.21a2.51,2.51,0,0,1-2.59-2.59C309.65,196,313.78,183.54,318.23,171.14Z" />
    <path class="rabota9-8"
      d="M478.37,485.65c1.73.81,3.41,1.57,3.41-1.54,0-1.93.09-3.87.14-5.81,3.46-.9,6.81-4.9,10.45-.35-3.2,1.59-2.46,6.14-5.77,7.65C483.87,486.92,481.14,490.29,478.37,485.65Z" />
    <path class="rabota9-3"
      d="M486.6,485.6c3.31-1.51,2.57-6.06,5.77-7.65a5.87,5.87,0,0,1,3.84,2.5c-.89,3-1.25,6.27-3.66,8.64Z" />
    <path class="rabota9-5"
      d="M348.11,355.33l-2.45.54c-12.39,1-22.45-7.05-34.13-8.85-6-5.38-11.65-10.62-11.25-20,.46-10.89,4.92-19.09,13.63-25.25,5.68,1.44,7.33,7.64,12.06,10.2,1.07,6.13,5.18,10.75,8.43,15.66,1.41,2.11,5,2.3,6.86-1.07,1.26-2.26,2.37-4.55,2.2-7.24,3.32-1.44,2.28-5.34,4.26-7.54.93-4.54,3.65-8.29,5.53-12.41,5.37-1.54,8.2,2.86,12,5.1,1.09,6.5-1.65,12.25-3.58,18.16-1.22,1.83-2.43,3.67-2.27,6,0,.47,0,.93,0,1.4Z" />
    <path class="rabota9-5"
      d="M257.43,271.86c-1.53,8.53,1.65,13.56,10,15.85,5.9,7.74,7.44,7.94,15.71,5,3.4-1.23,6.72-1.95,9.54-4.6,1.75-1.65,4.3-1.39,6.58.55,1.43,1.22,2.3,3.47,4.7,3.39,0,2.16,3.69,2.27,2.7,4.95-7.43,3.4-8.64,11.3-12.49,17.27-3.14,4.88-5.09,11.35-13,9.71a18.31,18.31,0,0,1-9.41-4.7,120.49,120.49,0,0,0-15.5-12.42c-7.62-5.2-10.67-12.14-8.27-20.82C249.53,280.48,250.3,273.88,257.43,271.86Z" />
    <path class="rabota9-16"
      d="M306.67,297c1-2.68-2.74-2.79-2.7-4.95.11-.82.22-1.64.32-2.45,3.89,1.95,8,3.54,11.6,5.93,4.63,3.09,6.77,0,7.52-3.24a290.63,290.63,0,0,1,12.24-41.18,4.84,4.84,0,0,0-1.06-5.62c-5.49-5.13-11.66-8.82-19.28-9.67.9-3-3.23-4.4-2.43-7.39,3-.28,5.13,1.06,7.61,2.65,5.38,3.45,10.64,7.22,16.69,9.53.39.05.79.08,1.18.1a14,14,0,0,0,2.29,8.61q.06,3,.1,5.95c-1.32.23-1.88,1-2.42,2.29-3.59,8.59-4.75,18-8.16,26.51-5.95,14.88-6.13,15.41,7.21,23.26a8.27,8.27,0,0,1,2.27,2c2.14,2.7,4.91,3.18,8.06,2.51-2,2.2-.93,6.1-4.25,7.54-2.11-5.91-8.37-6.68-12.63-9.89-1.49-1.12-4.47-.69-4.86,2.54-4.73-2.56-6.38-8.76-12.06-10.2C312.85,298.12,310.22,296.85,306.67,297Z" />
    <path class="rabota9-17"
      d="M311.53,347c11.68,1.8,21.74,9.81,34.13,8.85-1.66,5.08-3,10.29-5.1,15.18-1.62,3.81-3.95,5.45-8.33,2-6.64-5.26-14.52-8.66-22.19-12.26-1.19-.56-2.16-1-2.26-2.47Z" />
    <path class="rabota9-3"
      d="M294.68,410.65q-.23-10.44-.46-20.86c.24-.75.49-1.5.72-2.25,2.48.55,6-1.57,7,2.77q-.07,9.62-.14,19.21Z" />
    <path class="rabota9-13"
      d="M301.92,390.32c-1-4.35-4.5-2.23-7-2.78,1.29-3.72,5.22-.6,7.11-2.75,4.62,3,11.28,3.35,13.21,9.95-.45,1.35-1.7,1.13-2.71,1.39-1.95-1.66-4.07-2.82-6.77-2.34C303.53,393.71,304.57,390,301.92,390.32Z" />
    <path class="rabota9-14"
      d="M492.65,594.43c1.73-.07,2.36,1,2.55,2.49h-.08l-1.24,1.2-1.36,2.3c-7.64,2.12-13.94,6.89-20.76,10.6-8.26,4.49-16.35,9.28-24.51,13.94-.11-4.24,3.87-5.11,6.12-7.4C466.54,610,480.27,603.35,492.65,594.43Z" />
    <path class="rabota9-9" d="M493.88,598.11l1.24-1.2Z" />
    <path class="rabota9-10"
      d="M492.65,594.43c-12.38,8.92-26.11,15.54-39.28,23.12-1.79-.15-3.05-1.62-2.14-2.81,2.7-3.53,1.76-8.42,5.41-11.78,3.22-3,1.28-8.54,4.1-12.17,2.37-1.06,4.85-1.95,7.11-3.21,12.74-7.09,25.44-14.26,38.15-21.4q-4.77,13.41-9.53,26.83c-1-.58-2.05-1.77-2.88-1.62C492.12,591.66,492.74,593.31,492.65,594.43Z" />
    <path class="rabota9-14"
      d="M506,566.18c-12.71,7.14-25.41,14.31-38.15,21.4-2.26,1.26-4.74,2.15-7.11,3.21-.36-4.53,5.66-3.59,6.26-7.31a11.36,11.36,0,0,0,2.86-.77q16.27-9.45,32.49-19a8.78,8.78,0,0,1,4.88-1.23l0,.06-.12,2.24C506.77,565.25,506.38,565.71,506,566.18Z" />
    <path class="rabota9-2"
      d="M220.62,429q-.06-7.25-.11-14.5c-2.09-7,3.67-12.34,3-20.38,10.1,11.36,20.15,19.2,34,20.34,4.19.35,8.15,2.09,12.58,1.36,2.58-.43,4.41,1.44,4.46,4.48.07,4.48.31,8.95.47,13.42.82,6.49-2.15,8.4-8.35,7.69-6.8-.78-13.73,1.22-20.5-.15C236.69,439.36,227.07,437.42,220.62,429Z" />
    <path class="rabota9-9"
      d="M246.75,524.33l-8.54-.06q.19-13.54.39-27.08c0-1.6-.13-3.29,1.8-4.05a3.23,3.23,0,0,1,.32.85v13.47c3.62-3.81.4-8.94,4.59-11.06,5.23-4.14,4.89-10.58,6.28-16.55L249,483c-2.28-2.24.25-3.11,1.33-4.17,1.82-1.79,4.36-2.93,4.79-5.85,3.38-4.29,4.35-9.63,6.31-14.54,2.14-2.33-2.18-2.8-1.37-4.75l0,0a2.18,2.18,0,0,0,2.29-2.57l1.3-2.37c3.08-.14,2.31-3.16,3.52-4.7l3.95,0c-.5,2.38-1,4.76-1.49,7.14-5.13,3-3.79,9-6,13.35-1.21,3.66-3.35,7-3.56,11-3.57,3.39-6.21,7.15-5,12.46-3,3-2.46,7.55-4.75,10.86-3.26,4-5.63,8.25-5,13.64C240.59,521.36,240.59,521.36,246.75,524.33Z" />
    <path class="rabota9-13"
      d="M255.15,473c-.43,2.92-3,4.06-4.79,5.85-1.08,1.06-3.61,1.93-1.33,4.17-2.92,1.35-4.68,4.64-8.24,4.92,1.09-7.05,5-13.06,7.37-19.63Z" />
    <path class="rabota9-3"
      d="M240.79,487.91c3.56-.28,5.32-3.57,8.24-4.92l2.56-3.14c-1.39,6-1.05,12.41-6.28,16.55-1.59-.68-2.61-2.47-4.59-2.41a3.23,3.23,0,0,0-.32-.85Z" />
    <path class="rabota9-3"
      d="M255.15,473l-7-4.69c-.45-1.94,1.7-2.43,2.17-3.86,4.21-1.06,6.64-5.43,11.13-6C259.5,463.34,258.53,468.68,255.15,473Z" />
    <path class="rabota9-10"
      d="M261.46,458.43c-4.49.56-6.92,4.93-11.13,6a16.55,16.55,0,0,1,4.67-11c1.47,5.31,3.46-1.37,5.09.22C259.28,455.63,263.6,456.1,261.46,458.43Z" />
    <path class="rabota9-13"
      d="M277,443.63c.48,2.9,1.9,4.9,5,5.26-.17,2.61-3.38,4.13-2.51,7.11-3.39,0-1.22,5.15-4.69,5.1q.56-3.09,1.13-6.18c1.54-4.13-1.59-7.27-2.32-10.91Z" />
    <path class="rabota9-3"
      d="M273.66,444c.73,3.64,3.86,6.78,2.32,10.9l-6.28-3.79c.5-2.38,1-4.76,1.49-7.14Z" />
    <path class="rabota9-11"
      d="M260.09,453.68c-1.63-1.59-3.62,5.09-5.09-.22-.74-3.08,1.85-4.92,2.73-7.4l6,2.64-1.3,2.37a2.27,2.27,0,0,0-2.29,2.57Z" />
    <path class="rabota9-3"
      d="M263.72,448.7l-6-2.64c2.14-5.42,6.37-1.24,9.51-2.06C266,445.54,266.8,448.56,263.72,448.7Z" />
    <path class="rabota9-10"
      d="M502.35,563.71q-16.23,9.52-32.49,19a11.36,11.36,0,0,1-2.86.77c-.25-7.54,2.06-14.58,4.29-21.63,1-3.19,5.85-1.85,6.58-5.44,3.48-2,6.92-4.17,10.46-6.13,9.8-5.45,19.21-11.64,29.54-16.13-1.7,8.61-6.18,16.28-8.38,24.72C505.77,558.52,503.46,560.23,502.35,563.71Z" />
    <path class="rabota9-14"
      d="M517.87,534.15c-10.33,4.49-19.74,10.68-29.54,16.13-3.54,2-7,4.08-10.46,6.13l-2.39,0-.11-.12c-.22-2.75,2.54-3.18,3.75-4.82l39.15-22.19a2.62,2.62,0,0,1,1.24,2.63Z" />
    <path class="rabota9-10"
      d="M518.27,529.32l-39.15,22.19c-3.83-5.44,1.48-9.58,2.38-14.27.86-4.41,4-8.37,6.2-12.53L531.46,500c-3.06,9-7.82,17.42-9.4,26.94A4.17,4.17,0,0,0,518.27,529.32Z" />
    <path class="rabota9-14"
      d="M531.46,500,487.7,524.71c-2-1.74-.49-2.67.84-3.64l5.25-3.83c13.1-7.21,25.59-15.52,39.1-22,.09.86.19,1.71.29,2.57l-.11,0-1.19,1.27A2.57,2.57,0,0,1,531.46,500Z" />
    <path class="rabota9-9" d="M531.88,499.07l1.19-1.27Z" />
    <path class="rabota9-14"
      d="M542.7,468.24c-5.78,1.25-9.93,5.65-15.23,7.85-1.81.75-3.29,2.26-5.45,2.14,0-.93,0-1.86,0-2.78l21.88-12.2a2.26,2.26,0,0,1,1.14,2.39L543.85,467l-1.14,1.24Z" />
    <path class="rabota9-10" d="M542.71,468.25l1.14-1.24Z" />
    <path class="rabota9-17"
      d="M315.31,235.78c7.62.85,13.79,4.54,19.28,9.67a4.84,4.84,0,0,1,1.06,5.62,290.63,290.63,0,0,0-12.24,41.18c-.75,3.23-2.89,6.33-7.52,3.24-3.58-2.39-7.71-4-11.6-5.93.71-5.26-6-4.7-7.19-9.15,4.83,0,8.13-2.2,8.17-6.91.07-8.13,1.91-15.94,3.27-23.86.18-.8.36-1.6.53-2.4A19.17,19.17,0,0,0,315.31,235.78Z" />
    <path class="rabota9-17"
      d="M337.18,240.57c-6.05-2.31-11.31-6.08-16.69-9.53-2.48-1.59-4.65-2.93-7.61-2.65q-1.94-8.49-3.86-17c4.87-10.59,7-22,9.81-33.21l2.39-3.66c1.41,10.59,5.23,20.6,7.49,31C331.27,217.28,335.37,228.65,337.18,240.57Z" />
    <path class="rabota9-10"
      d="M543.94,463.25l-21.88,12.2c.22-7.67,4.31-14.24,6.21-21.44.45-1.72.85-3.43,1.16-5.18,1.91-1,3.75-2.25,5.74-3.09,6.7-2.82,12.15-8.27,19.66-9.38-1.2,8.16-6.39,15.09-7.2,23.37l0,0-1.26,1.21A2.27,2.27,0,0,0,543.94,463.25Z" />
    <path class="rabota9-14"
      d="M554.83,436.36c-7.51,1.11-13,6.56-19.66,9.38-2,.84-3.83,2.05-5.74,3.09-.4-2.25,2.48-2.95,2.39-5.06l24.41-13.53,2.43,1.34c-.9,1.21-2.51,1.86-2.77,3.57l-1,1.19Z" />
    <path class="rabota9-10" d="M554.9,436.34l1-1.19Z" />
    <path class="rabota9-10"
      d="M570.91,394.81c0,.8,0,1.61,0,2.41A12.39,12.39,0,0,0,565.3,399c-8.07,4.09-15,10.23-23.75,13.07,1-9,5.26-17,7.38-25.67,2.46-.46,4.32-2.05,6.41-3.24,8.36-4.77,16.81-9.39,25.23-14.06C578.37,378.05,574.34,386.32,570.91,394.81Z" />
    <path class="rabota9-10"
      d="M556.23,430.24l-24.41,13.53c.65-7.36,3.87-14,6-20.92.58-1.89,1-3.83,1.46-5.75,1.88-.07,3.3-1.16,4.92-1.94,8.21-4,15.19-10.23,24-13.08l-9.54,25.78Z" />
    <path class="rabota9-14"
      d="M580.57,369.09c-8.42,4.67-16.87,9.29-25.23,14.06-2.09,1.19-4,2.78-6.41,3.24-.59-2.33,1-3.64,2.41-5L583,363.18c-.4,1.53-.79,3.06-1.18,4.6Z" />
    <path class="rabota9-14"
      d="M568.21,402.08c-8.82,2.85-15.8,9.08-24,13.08-1.62.78-3,1.87-4.92,1.94-.55-2.27,2.42-3,2.27-5.05,8.75-2.83,15.68-9,23.75-13.06a12.39,12.39,0,0,1,5.59-1.77c.07.52.15,1,.23,1.56Z" />
    <path class="rabota9-15"
      d="M308.54,249.64c-1.36,7.92-3.2,15.73-3.27,23.86,0,4.71-3.34,6.9-8.17,6.91,1.23,4.45,7.9,3.89,7.19,9.15-.1.81-.21,1.63-.32,2.45-2.4.08-3.27-2.17-4.7-3.39-2.28-1.94-4.83-2.2-6.58-.55-2.82,2.65-6.14,3.37-9.54,4.6-8.27,3-9.81,2.78-15.71-5,2.82-.13,5.64-.21,8.45-.4,8-.54,13.84-4.07,17.88-11.42C298.59,267.09,301.58,257.23,308.54,249.64Z" />
    <path class="rabota9-11"
      d="M486.6,485.6l5.95,3.49c-1.34,1.47-3,2.81-2.42,5.16l0,2.11-.05.05c-5.87,2.45-8.93,9.48-16.51,9.31,3.36,2.63,6.77,4,9.3,6.64l-.12,2.36c-6.41,4.63-11.56,11.1-19.52,13.48,2.68,4.68,7.68,5.56,12.11,7.36-1.53,1.82-3.82,3.32-2.56,6.27-.34.75-.68,1.5-1,2.25l-.06,0c-6,3.81-11.26,9.44-19.66,8.23L465.49,560c-3.36,3.47-6.7,6.94-10.07,10.4-.93,1-2.61,1.67-.84,3.3-2.82,2.38-6.44,2.13-11,2.69l12.26,7.06c-1.11,4.23-6.41,5.35-7.25,9.77l-.05-.06c-2.67.67-4.45,2.21-4.94,5-2.54,2.39-6.16,0-9.06,1.82,3.29,3.76,8.13,4.68,11.52,7.74-.35,3.37-4.59,4.07-5,7.37l-14.46,8.48c2.48,4.88,7.57,5.56,11.93,7.41l-2.27,2.47c-1.45,1.25-4.19.69-4.73,3.16-1.12,5.08-5,5.58-9.15,5.7a227.36,227.36,0,0,1-27.84-16,10.49,10.49,0,0,0,2.73-5.1c.72-3.75,2.41-7.31,3.69-11,2.82,1.75,5.34,4.14,9.92,4.48-3.22-4.77-3.06-10.09-6.27-14.11,2.21-4.85,2.94-10.29,6-14.81,2.55,2.16,5.09,4.33,8.55,4.88l.57.49-.49-.57c-.71-5-4.28-9.3-3.76-14.64,1.83-4.82,1.37-10.39,4.82-14.68,1.82,2.64,3.73,5.14,7.45,4.89l1.27.91.31-.45-1.56-.47q-1.85-6.76-3.68-13.52c-.28-4.91,2.06-8.76,5-12.39,3.53-.55,5.53,3.92,9.88,3.08-3.09-4.48-5.21-8.82-5.08-13.88-.44-5.27-.16-10.28,4.93-13.54l7.85,3.31c-2.52-4.29-1.21-9.79-5.25-12.94,0-.41-.06-.81-.08-1.21,4.22-1.41,1.61-5,2.34-7.46.06-2.4,2.17-2.79,3.7-3.74,2.43.14,4.93-.25,8.16,2.54-1.89-5.67-3.21-9.61-4.53-13.55.29-2.15.92-4.32.76-6.43-.13-1.75-1.19-3.49-3.54-3.18-1.47.2-2.28.82-.9,2.23-3.39,5.41-8.17,8.21-15.3,7.48,3.44,4,7.93,5.11,11.62,7.43a2.26,2.26,0,0,1-2.38,2.39c-4.6,2.81-7.16,7.94-11.92,10.6-.33.19-.23,1.14-.33,1.74-2,2.31-5.24,0-7.67,1.84l12.52,7.75c-.1,2.37-3.15,3.55-2.51,6.22-6.09,4-10.67,11.27-20.07,9.16,5.41,2.5,9,7.53,15,7.83-2.76,4.06-7.57,6.37-9.55,11.11a2.18,2.18,0,0,0-2.4,2.5l0,0c-3.21.91-7.41-2.33-9.74,2.32,1.46,4.88,6.82,4.77,9.84,7.67.89,4.57-4.32,5.88-5.11,9.55-5.43.06-8.2,4.62-12.14,7.2l-5.07-1.16a16,16,0,0,1,1-5.93c4.16-10.29,8.37-20.58,12.12-31,3.37-9.4,7.9-18.35,11.1-27.73,5.32-15.58,12.22-30.53,17.33-46.16,1-3,2.79-3,4.94-3.3l39.85,22.68C481.14,490.29,483.87,486.92,486.6,485.6Z" />
    <path class="rabota9-3"
      d="M465.49,560,452,552.36c8.4,1.21,13.66-4.42,19.66-8.23A54.53,54.53,0,0,1,465.49,560Z" />
    <path class="rabota9-3"
      d="M446.09,607.74c-3.39-3.06-8.23-4-11.52-7.74,2.9-1.86,6.52.57,9.06-1.83,2.66-.67,4.73-1.93,4.94-5l.05.06,5-1.21C450.62,597.6,450.5,603.58,446.09,607.74Z" />
    <path class="rabota9-3"
      d="M438.52,631c-4.36-1.85-9.45-2.53-11.93-7.41,7,.36,12.27-2.47,16.09-8.24a3.5,3.5,0,0,0,.95-.2l0,0C443.41,620.9,440.43,625.78,438.52,631Z" />
    <path class="rabota9-3"
      d="M475.31,535.56c-4.43-1.8-9.43-2.68-12.11-7.36,7.34,1.13,11.95-4.1,17.37-7.43C479.2,525.84,477.8,530.9,475.31,535.56Z" />
    <path class="rabota9-3"
      d="M482.84,512.36c-2.53-2.64-5.94-4-9.3-6.64,7.58.17,10.64-6.86,16.51-9.31C487.25,501.55,487.89,508.24,482.84,512.36Z" />
    <path class="rabota9-3"
      d="M455.87,583.44l-12.26-7.06c4.53-.56,8.15-.31,11-2.69,2-.41,3.71-3.61,5.62-1.68s-.6,3.92-1.43,5.87S458.22,582.29,455.87,583.44Z" />
    <path class="rabota9-3"
      d="M428.86,655.42l-2.55-1.23c0-3.24,0-6.48.05-9.72,4,.39,4.75-5.12,8.68-4.9Z" />
    <path class="rabota9-10"
      d="M480.57,520.77c-5.42,3.33-10,8.56-17.37,7.43,8-2.38,13.11-8.85,19.52-13.48A7.26,7.26,0,0,1,480.57,520.77Z" />
    <path class="rabota9-10"
      d="M435,639.57c-3.93-.22-4.65,5.29-8.68,4.9a1.46,1.46,0,0,0-.76.19l-3.23-2.33c4.16-.12,8-.62,9.15-5.7.54-2.47,3.28-1.91,4.73-3.16A5.13,5.13,0,0,1,435,639.57Z" />
    <path class="rabota9-10" d="M442.68,615.35c-3.82,5.77-9.14,8.6-16.09,8.24l14.46-8.48Z" />
    <path class="rabota9-10"
      d="M416.72,669.12v-2.54c5.11-2,7.1-7.81,12.1-10,.15,2-.93,3.15-2.55,4l-1,2.27,0,0C422,664.37,420.63,668.48,416.72,669.12Z" />
    <path class="rabota9-14" d="M475.48,556.45c-.46.3-.91.6-1.37.88a3.48,3.48,0,0,1-.33-.45l1.59-.55Z" />
    <path class="rabota9-3" d="M490.1,496.36l0-2.11C491.63,495,491,495.67,490.1,496.36Z" />
    <path class="rabota9-3" d="M471.74,544.08c.33-.75.67-1.5,1-2.25A2,2,0,0,1,471.74,544.08Z" />
    <path class="rabota9-3" d="M425.25,662.88l1-2.27C426.33,661.55,426.28,662.43,425.25,662.88Z" />
    <path class="rabota9-3" d="M443.63,615.15l.28-.45-.31.42Z" />
    <path class="rabota9-13"
      d="M294.68,410.65l7.1-1.13c9.82-.8,10.32-.44,10.82,8.78.25,4.41.41,8.84-1.05,13.12-.21.95.14,2.12-1,2.7-6.58.83-12.13,4.87-18.62,6-1.15.2-2.19,1-3.34,1.22-8.22,1.56-8.14,1.52-9.05-6.85-.56-5.23-1.48-10.43-2.14-15.66-.36-2.91.68-4.31,4-4.6A32.43,32.43,0,0,0,294.68,410.65Z" />
    <path class="rabota9-2"
      d="M310.51,434.12c1.18-.58.83-1.75,1-2.69l2.66-.27c1.8,1.59-.37,5.5,3.45,5.9l-1.29,11.85c-2.61,5-4.6,10.22-4.95,15.94l-2.69,5.67c-5.14-1.86-7.74-7-12.62-9.46s-8.82-6.56-14.84-3.19c-1.18.66-1.38-1-1.73-1.87-.87-3,2.34-4.5,2.51-7.11,8.16-.42,15.67-3.16,23.09-6.29C309,441,310.8,438.26,310.51,434.12Z" />
    <path class="rabota9-2"
      d="M229.09,383.7c7.55,10.61,19.11,14.74,30.75,18.31,4,1.2,7.82,3.37,12.29,3,2.66-.22,2.58,2,2.5,3.89-.09,2.35-1.55,3-3.67,3.08a48.75,48.75,0,0,1-17.23-2.81c-7.39-2.47-14.66-5.19-21.25-9.56C226.09,395.38,224.47,388.59,229.09,383.7Z" />
    <path class="rabota9-14" d="M507.23,562.48l.31-.51-.26.57Z" />
    <path class="rabota9-12"
      d="M391,644.31c-2.8-.88-4.78-4.6-8.47-2.47-2.15-5.65-7.6-7.12-12.22-9.63-3.22-3.4-5.06-2.36-6.41,1.74-.57,1.73-.78,4-3.1,4.7-5.22-2.06-7.3-5.27-3.88-10.53,1.18-1.82,1.15-3.56-1-4.5-3.45-1.48-6.09-4.75-10.26-4.61a2.37,2.37,0,0,0-1-.21c-10.33-8.86-22.58-14.55-34.42-20.93l-6.08-3.55a52.21,52.21,0,0,0-11.06-6.42c-3.74-3.8-6.06-3.09-7.29,2.13-.37,1.59-.66,3.59-2.85,4.08-4.69-2.3-6.67-4.72-4-10.67s-4.42-5.59-7.47-7.77c-1.77-1.91-4.2-2.7-6.44-3.81-7.41-4.36-14.85-8.68-22.21-13.11-2.19-1.32-4.9-2-6.16-4.59l11.19-3.6c0,2.24,1.88,2.82,3.35,3.92,3.91,2.91,8.47,4.59,12.64,7,13.49,7.73,26.83,15.73,40.44,23.22,17.39,9.57,34.48,19.66,51.71,29.49,20.66,11.79,41.15,23.87,62,35.27-.14,3.17-.27,6.35-.4,9.52Z" />
    <path class="rabota9-9"
      d="M265,571.86c2.24,1.11,4.67,1.9,6.44,3.81-3.49,0-4.51,1.91-4.12,5-1.66,1.86-1.42,5.24-5.14,5.91-.06-4.68,4.63-8.4,2.63-13.23C264.91,572.88,265,572.37,265,571.86Z" />
    <path class="rabota9-10"
      d="M260.1,578.45c-2.87,2.45-5.62,5.11-9.85,4.7C251.49,577.29,256.13,578.59,260.1,578.45Z" />
    <path class="rabota9-10"
      d="M343.24,620c-1.51,3.18-4.38,4.77-7.34,6.25C336.4,621.84,338.5,619.35,343.24,620Z" />
    <path class="rabota9-10"
      d="M333.51,627.27H331c.23-.85.28-2,1.53-1.74C333,625.63,333.18,626.67,333.51,627.27Z" />
    <path class="rabota9-1"
      d="M418,649.45c-20.88-11.4-41.37-23.48-62-35.27-17.23-9.83-34.32-19.92-51.71-29.49-13.61-7.49-27-15.49-40.44-23.22-4.17-2.4-8.73-4.08-12.64-7-1.47-1.1-3.31-1.68-3.35-3.92l8.34-3.49A59.17,59.17,0,0,0,268.41,554c2.72,2,5.41,4,8.73,5l8.59,5.36a10.42,10.42,0,0,0,8.35,3.11c.38,3,3,3.42,5.11,4.5l8.55,4.73,8.57,4.69a259.84,259.84,0,0,0,29,16.75l10.24,5.76a25.63,25.63,0,0,0,8.51,5.17,13.94,13.94,0,0,0,7.58,3.66c1.08,2.29,3.26,3,5.4,3.78,3.66,2.39,7.18,5,11.48,6.26a3.54,3.54,0,0,0,3.57,2.19,2.64,2.64,0,0,0,2.41,1.37,227.36,227.36,0,0,0,27.84,16l3.23,2.32C423.58,647.06,420.83,648.29,418,649.45Z" />
    <path class="rabota9-11"
      d="M268.4,554a59.36,59.36,0,0,1-12.2-6.94c2.64-9.1,2-17.19-7.09-22.6-1.48-3.94-1.54-8.31-3.68-12-.67-5.39,1.7-9.68,5-13.64,3.34.61,5.44,4.07,9.6,4.06-2.23-5-4.59-9.64-4.85-14.92-1.22-5.31,1.42-9.07,5-12.46L267,478c-4.39,8.87-3.8,18.39-3,27.73.86,10.37,13,17.24,20.59,12.87a4.51,4.51,0,0,1,1,.16c.09,1.29.26,2.61-1.09,3.45-3.7,1-5.17,3.6-5,7.28-4.94,1-10.43.72-13.35,6.1,2.94,4.34,7.33,6.25,12.23,7.32l-1.35,3.73C273.2,547.94,271.54,551.84,268.4,554Z" />
    <path class="rabota9-3"
      d="M245.43,512.43c2.14,3.73,2.2,8.1,3.68,12l-2.36-.14C240.59,521.36,240.59,521.36,245.43,512.43Z" />
    <path class="rabota9-8"
      d="M418,649.45c2.8-1.16,5.55-2.39,7.57-4.8a1.55,1.55,0,0,1,.76-.18c0,3.24,0,6.48-.05,9.72L417.63,659C417.76,655.8,417.89,652.62,418,649.45Z" />
    <path class="rabota9-8"
      d="M282.92,594.11c2.19-.49,2.48-2.49,2.85-4.08,1.23-5.22,3.55-5.93,7.29-2.13a53.06,53.06,0,0,0-3.49,4.71C287.6,596,287.67,596,282.92,594.11Z" />
    <path class="rabota9-10"
      d="M304,595.48c0,1.22.09,2.45.13,3.67l-4.94,2.55C299.06,598.29,298.93,594.87,304,595.48Z" />
    <path class="rabota9-10"
      d="M298.27,601.74c-1.57,2.2-3.33,4.06-6.4,3.56C292.77,601.89,295.85,602.41,298.27,601.74Z" />
    <path class="rabota9-8"
      d="M360.76,638.65c2.32-.69,2.53-3,3.1-4.7,1.35-4.1,3.19-5.14,6.41-1.74a2.71,2.71,0,0,0-2.4,2.87C367.77,640.78,364.51,640.21,360.76,638.65Z" />
    <path class="rabota9-3" d="M546.39,460.92l1.26-1.21Z" />
    <path class="rabota9-11"
      d="M345.34,598.12a260.87,260.87,0,0,1-29-16.75c-2-6,4.17-9.12,5-14.11,3.14.57,5.11,3.72,8.46,3.84l.56.49-.51-.54c.13-5.25-4.32-9.36-3.71-14.74-.54-5.24,1.62-9.49,4.91-13.32,2.83,1.62,5.35,3.89,9.32,4.55-2.11-5.41-5.57-9.94-4.46-15.65-.29-4.81.79-9.09,4.69-12.31,2.43.85,4,3.88,7.49,2.92-1.2-4.38-2.35-8.53-3.49-12.67,2.62-4.58-1.15-11.19,4.68-14.75a26.73,26.73,0,0,0,2.86,2.05c1.19.64,2.61,2,3.8,1.11,1.68-1.24.09-2.89-.31-4.32-.78-2.82-1.64-5.62-2.47-8.42,1.28-4.75-.68-11.37,7.11-12.38,2.22-.5,3.43,2.88,6.13,1.54-1.19-4.25-2.36-8.41-3.53-12.57V453.6a2.2,2.2,0,0,0,2.41-2.45,2.38,2.38,0,0,1,2.47-2.53c2.41-.15,4.08,2.62,7.17,1.73-1.17-3.91-3.57-7.36-3.44-11.47,2.71-2.82-.51-7.06,2.37-9.84L379,429a1.09,1.09,0,0,1,1,.47,3.21,3.21,0,0,0,.26,1.73c-1.3,1.87-3.62-.06-4.77,1.9,2.07,1.27,3.51,1.28,4.77-1.9a8.46,8.46,0,0,0,3.27.42c7.87,4.38,15.77,8.71,23.59,13.19,1.88,1.08,3.66,2.53,3.84,5l-.48,1.37c-.32,0-.63,0-1,0-5.31-1.82-5.09,5.26-9.34,5.91-1.37.21-5.19.38-5.44,3.78-1.31.24-2.7.78-.84,2,3.3,2.16,6.43,4.75,10.52,5.42-2.67,2.93-6.71,5-6.11,10a3.53,3.53,0,0,1-3.5,2.29c-4.67-.84-8.4,1.61-12.29,3.51-1.48,2.08.63,2.16,1.6,2.75,2.69,1.63,5.42,3.18,8.13,4.75,0,1.23,0,2.45,0,3.67a6.66,6.66,0,0,0-4.9,4.87c-3.29,2.44-7,4.26-9.77,7.42-1.49,2.47-3.82-1.3-5.74,1.19l13,7.43a15.42,15.42,0,0,0-5,8.64c-1.32,1.48-1.64,4.25-4.62,3.58-3.17,1.43-7.51-.45-9.81,3.47-1.38,1.53.19,1.88,1,2.57,2.72,2.25,6.48,3,8.7,5.94l-1.26,3.81c-.4,0-.79,0-1.19.07-5.17,2.48-8.08,7.49-12.32,11-1.83,2.12-4.43-.72-6.9.94,4.12,3,8.81,4.15,11.94,7.67l-.18,3.55c-.38.4-.76.81-1.13,1.22-3.35.06-5.15,2-6.09,5-2.8,1.2-5.34,3.09-8.74,2.47-2.46-.46-3.65.92-3.49,3.41,1.5,4.85,7.13,4.39,9.87,7.65C353.92,592.41,350,595.62,345.34,598.12Zm39.09-102c-.34-.15-.75-.48-1-.38s-.31.62-.46,1c.34.14.75.47,1,.38S384.28,496.47,384.43,496.13Z" />
    <path class="rabota9-11"
      d="M311.42,464.85c.35-5.72,2.34-10.93,4.95-16l2.2-.21c1.65,3.64,4.92,4.36,9.78,5.62-4.24-4.87-3.54-10.32-6.91-14.06,1-3,2.55-6.24-2.23-7.58a1.77,1.77,0,0,1-.44-.73l2.5-3c4.36,1.51,4.59-2.41,6.09-4.65,1.31,3.34,3.85,4.8,7.56,4.91l-.22-.09a1.59,1.59,0,0,0,.19.42c.06.07.21.06.31.09a.7.7,0,0,0-.28-.42c-1.44-3.85-2.67-7.6-3.89-11.36,0-5.12-.15-10.26,5.16-13.31a4.49,4.49,0,0,1,1.19.22c9.17,4.52,9.27,4.56,5.69,13.81q-20.73,53.64-41.58,107.23c-5-4.1-5.19-10.31-7-15.8.19-4.71,2.44-8.63,4.85-12.47,3.13.55,5.08,3.75,8.44,3.8a1.76,1.76,0,0,0,.21.41c.06.07.21.06.32.08l-.5-.52-3.72-13.49c-1.14-3.12,2.8-4.47,2.52-7.28,4.19-.88,1.36-4.31,2.31-6.36,3,.15,4.63,4,8.67,3.13-1.66-4.09-3.65-7.83-3.86-12.12C313.64,463.53,312.27,464.59,311.42,464.85Z" />
    <path class="rabota9-8"
      d="M377.07,616.49c-2.14-.77-4.32-1.49-5.4-3.78q17-43.32,34-86.67c7.84-20.06,15.57-40.16,23.37-60.24,2.7-7,2.71-7,9.45-2.84-2.16.32-4,.34-4.95,3.3-5.11,15.63-12,30.58-17.33,46.16-3.2,9.38-7.73,18.33-11.1,27.73-3.75,10.44-8,20.73-12.12,31a15.82,15.82,0,0,0-.95,5.93l.06,0c-4.76,1.24-2.2,5.76-3.61,8.6C383.63,595.51,378.46,605.34,377.07,616.49Z" />
    <path class="rabota9-8"
      d="M299.19,572c-2.08-1.08-4.73-1.5-5.11-4.5,7.87-17,13.84-34.74,20.71-52.13,12.54-31.78,24.74-63.7,37.09-95.56,1.13-2.93,2-6.45,6.18-2.83-6.27,14.88-11.82,30-17.15,45.27a2.93,2.93,0,0,0-.15,1.1c-.65.42-1.77.75-1.88,1.28-1.44,7.08-5.71,13.14-7.43,20-2.13,8.55-8.28,15.76-8,25a51.87,51.87,0,0,0-9.72,24.69,2.05,2.05,0,0,0-.88.23c-4.35,7.16-6.54,15.13-8.78,23.09a3.37,3.37,0,0,0-.08,1.05C300,562.27,298.8,566.81,299.19,572Z" />
    <path class="rabota9-9"
      d="M340.59,519.58c-3.9,3.22-5,7.5-4.69,12.31-2.54,3.3-4.63,6.79-4.86,11.1-3.29,3.83-5.45,8.08-4.91,13.32-2.67,3.18-3.6,7.12-4.8,11-.86,5-7,8.11-5,14.11l-8.56-4.69c2.18-4,6.91-6,8.64-10.38,5-3.87,4.84-9.95,7.75-16l-7.76,5.06,0-1.44a12.09,12.09,0,0,1,6.79-7c2.77-1.07,3.07-2.65,3.1-4.91,3.89-4.39,4.74-10,7.23-16.14-4.55,3.23-7.2,7.28-12.19,7.28.57-1.19.87-3.14,1.74-3.45,5.81-2,8.37-7.7,12.88-11.14,1.48-3,3.13-6,4.38-9.14.69-1.73,1.65-4.14-1.87-4.3l-.07-1.41c.32-4.81,5-6.32,7.32-9.59q2.72-6.58,5.42-13.17c.72-1.75,1.47-3.53-1.48-3.9-.66-3.13,3.79-3.41,3.51-6.32,5-3.52,6-8.21,2.43-11.19,0-1.16,0-2.32,0-3.48,0-.4.07-.79.09-1.18,1.54-1.32,5.59.62,4.81-3.71,0-.39.07-.79.09-1.19a2.45,2.45,0,0,0,2.33-1.3,11.19,11.19,0,0,0,.18-1.16l1.07-1.08c1.8-4.17,3.54-8.37,5.44-12.5.67-1.46.8-2.63-.55-3.69,0-.35,0-.69,0-1l3.62-3.87c.82.46,1.65.91,2.48,1.36L373.84,429c-2.88,2.78.34,7-2.37,9.84-1.94,3-4,5.91-3.73,9.74a2.38,2.38,0,0,0-2.47,2.53,2.21,2.21,0,0,0-2.41,2.45v8.49c-2.48,3.3-4.69,6.66-2.6,11-7.79,1-5.83,7.63-7.11,12.38l-3.88,9.58c-5.83,3.56-2.06,10.17-4.68,14.75C341.53,512.37,340.82,515.88,340.59,519.58Z" />
    <path class="rabota9-11"
      d="M372.63,425.33,369,429.2c-5.84,1.06-8.23,6.46-12.28,9.77-1.35,1.35-3.46,2.62-.1,4.16,2.15,1,4.19,2.17,6.29,3.28a4.06,4.06,0,0,0,.09,1.1,11.19,11.19,0,0,1-.18,1.16c-1,.07-1.91.23-2.33,1.3,0,.4-.05.8-.09,1.19-2.6-.05-4.8.41-4.81,3.71,0,.39-.05.78-.09,1.18-3.6-.24-5.16,1.5-4.88,5-3,2.23-6.51.52-9.72,1.12,5.33-15.24,10.88-30.39,17.15-45.27Z" />
    <path class="rabota9-11"
      d="M411.64,450c2.13-.77,4,.4,5.83,1,4.71,1.54,7.24,3.49,4.49,9.48-4.79,10.46-8.43,21.44-12.52,32.22-.57,1.49-.74,3.2-2.47,4l-5-11.61c-.61-5.65.71-10.61,5.08-14.5l7.82,3c-3.18-4-2-9-4.29-12.71A23.43,23.43,0,0,0,411.64,450Z" />
    <path class="rabota9-11"
      d="M300.77,527.08c-3.28,7.78-4.84,16.31-10.07,23.25l-.08-.09c-1.25-5.41-5.34-9.94-4.9-15.87,2.27-2.17.84-4.93,1.21-7.4l3.7-7.24C292.64,524.07,297.06,525.1,300.77,527.08Z" />
    <path class="rabota9-2"
      d="M321.27,429l-2.5,3c-4.09-2.43-1.14-7.15-3.31-10.2A43,43,0,0,0,313.8,404c.75-2.81-1.54-5.13-1.25-7.87,1-.26,2.26,0,2.71-1.39.32.07.65.16,1,.25a41.79,41.79,0,0,1,8.53,16c-2.13,2.19-1.16,4.27.23,6.33C320.4,420.15,321.43,424.75,321.27,429Z" />
    <path class="rabota9-11"
      d="M378.82,571.09c-2.67,7.11-4.86,14.42-8.58,21.11q-2.46-6.26-4.94-12.51c-.89-4.43,1.18-8.26,2.51-12.24l2.52-2.49C373.29,566.82,376.73,568,378.82,571.09Z" />
    <path class="rabota9-11"
      d="M388.6,545.39a176.65,176.65,0,0,1-8.57,22.2c-3.88-3.69-4.47-8.58-5-13.51l.06-7.49c3.5.24,1.41-5.16,4.93-4.89C382.93,542.87,385.38,545,388.6,545.39Z" />
    <path class="rabota9-11"
      d="M406.78,498.85c-2.83,7.63-4.69,15.67-9.58,22.42-1.11-5-4.52-9.4-3.8-14.86,1.62-3.61,1-8,3.65-11.24l1.17-2.45C400.23,495.93,404.24,496.37,406.78,498.85Z" />
    <path class="rabota9-11"
      d="M397.1,522c-1.32,8.12-5.39,15.24-8.27,22.79-3.22-3.74-2.48-9.41-6.29-12.86,3.24-4.42,2.31-10.59,6.21-14.73Z" />
    <path class="rabota9-11"
      d="M285.73,564.34,277.14,559c.17-4.1-.39-8.27,1.31-12.2l2.47-2.51c2.8,2.7,6.23,4.36,9.7,6l.08.09C290.78,555.61,288.62,560.11,285.73,564.34Z" />
    <path class="rabota9-11"
      d="M364.09,609.05a25.63,25.63,0,0,1-8.51-5.17c-.43-5.58,4.22-9.42,5-14.59,3.91.75,7.3,2.21,8.66,6.41Z" />
    <path class="rabota9-9"
      d="M398.22,492.72l-1.17,2.45c-3.06.28-.3-3.3-2.41-3.65,2-4.2,4.95-8.16,3.66-13.29-.59-4.93,3.45-7,6.12-10,1.64-5.83,5-11,6.05-17.09l.48-1.37a.7.7,0,0,1,.69.19,23.43,23.43,0,0,1-1.08,10.89c-1.17,3.23-3.54,6-3.53,9.67-4.37,3.89-5.69,8.85-5.08,14.5A19.79,19.79,0,0,0,398.22,492.72Z" />
    <path class="rabota9-9"
      d="M321.27,429c.16-4.21-.87-8.81,3.72-11.61,3.72-2,4.48-5.56,4.9-9.29-2.72-2.78,2.29-4.2,1.19-6.69a10.62,10.62,0,0,1,5.11,3.19c-5.31,3-5.2,8.18-5.16,13.31-2.86,1.22-1.78,4.68-3.67,6.44C325.86,426.55,325.63,430.47,321.27,429Z" />
    <path class="rabota9-11"
      d="M331.08,401.37c1.1,2.49-3.91,3.91-1.19,6.69-2.14.25-3.4,2-5.13,3a41.79,41.79,0,0,0-8.53-16C322.43,394.19,326.32,398.8,331.08,401.37Z" />
    <path class="rabota9-3"
      d="M300.77,527.08c-3.71-2-8.13-3-10.14-7.35l.21-2.41L292,515a10.07,10.07,0,0,0,2.45-5c1.82,5.49,2,11.7,7,15.8Z" />
    <path class="rabota9-3"
      d="M375.06,554.08c.5,4.93,1.09,9.82,5,13.51-.1,1.27.06,2.63-1.21,3.5-2.09-3.07-5.53-4.27-8.49-6.13C371.55,561.18,372.31,557.19,375.06,554.08Z" />
    <path class="rabota9-3"
      d="M369.24,595.7c-1.36-4.2-4.75-5.66-8.66-6.41,2-3,1.85-7,4.72-9.6q2.47,6.25,4.94,12.51C370.1,593.42,370.48,594.79,369.24,595.7Z" />
    <path class="rabota9-3"
      d="M382.55,531.94c3.8,3.45,3.06,9.12,6.28,12.86a.38.38,0,0,1-.23.59c-3.22-.37-5.67-2.52-8.55-3.69C379.73,538.15,382.13,535.3,382.55,531.94Z" />
    <path class="rabota9-3"
      d="M397.1,522l-8.35-4.8c1.35-3.69,2.41-7.5,4.65-10.8-.72,5.46,2.69,9.87,3.8,14.86A.63.63,0,0,1,397.1,522Z" />
    <path class="rabota9-3"
      d="M398.22,492.72a19.79,19.79,0,0,1,3.73-7.65l5,11.61c-.06.72-.13,1.45-.19,2.17C404.24,496.37,400.23,495.93,398.22,492.72Z" />
    <path class="rabota9-13" d="M373.84,429l1.27-2.35A5.81,5.81,0,0,1,379,429Z" />
    <path class="rabota9-13" d="M383.52,431.59l-3.54,0c0-.71,0-1.42,0-2.13Z" />
    <path class="rabota9-17"
      d="M415,358.57c9.91,5.67,19.47,11.26,29.18,16.6,2.2,1.21,2.44,3.11,1.8,4.56-2.9,6.53-3.77,13.62-6,20.34-2.49,7.62-6.72,14.87-6.27,23.4.27,5.26-3.76,8.1-8.17,5.11-8.41-5.69-15.92-12.67-25.15-17.27-1.79-.89-1.25-3.93-.48-5.7C406.5,390.52,409.31,374.2,415,358.57Z" />
    <path class="rabota9-17"
      d="M436.09,427.16c.28-1.58,0-3.88,1-4.62,5.6-4.42,3.78-11.5,6.47-16.94,3.54-7.14,2.87-15.62,7.16-22.71,1.62-2.68,2.81-3.6,4.86-1.66,5.69,5.37,13.15,7.48,19.77,11.06,7.87,4.26,8.45,6.76,4.61,14.51-2.19,4.42-3,9.81-4,14.71-1.85,8.66-6.76,16.24-7.87,25a2.24,2.24,0,0,1-3.66,1.72c-7.69-5.64-16.69-8.94-24.65-14.11C436.86,432.3,435.76,430.35,436.09,427.16Z" />
    <path class="rabota9-17"
      d="M435.13,302.43c.55.37,1,.72,1.53,1,7.75,4.48,15.26,9.44,23.32,13.26,6,2.86,4.14,7,2.76,10.75-4,10.75-6.84,21.79-9.52,32.91-.68,2.81-2.48,5.39-4,7.95-1,1.74-3.09,2.9-4.65,1.47-5.35-4.9-12.7-6.16-18.31-10.59-8.38-6.63-8.06-6.38-5.06-17.51,3.1-11.49,6.48-22.88,10-34.25A7.39,7.39,0,0,1,435.13,302.43Z" />
    <path class="rabota9-2"
      d="M448.55,245.59c8.52-.71,13.27,6.62,20.12,9.48,1.45.61,2.56,2,4,2.6,9.49,4,10.5,5.12,7.14,14.25-4.68,12.69-8.21,25.7-12.09,38.62-.17.56-1.24.85-1.9,1.26-.38-.47-1-.87-1.12-1.4-4.64-18.65-9.19-37.33-13.89-56-.45-1.78.41-4.31-2.24-5.2C448.57,248,448.56,246.81,448.55,245.59Z" />
    <path class="rabota9-17"
      d="M504.79,465.9c0,1.59,0,3.18,0,4.76-3.78.75-7.07-1.48-9.24-3.48-5.73-5.3-13.2-7.26-19.56-11.31-6.12-3.9-3.72-8-1.82-11.78,3.47-6.84,4-14.38,6.43-21.37,2.23-6.47,3.38-13.41,7.1-19.34q4.31,15.6,8.61,31.21C499.15,445,502,455.47,504.79,465.9Z" />
    <path class="rabota9-2"
      d="M468.3,321.59c6.37-.07,8.69,6.66,14.26,8.37s9.81,6.65,15.47,8.86c3.63,1.41,2.3,5.26,1.61,7.5-2.61,8.45-6.43,16.54-8.7,25.06-1.16,4.36-2.37,8.78-3.24,13.25-.29,1.53-.57,2.77-2.34,3-3.83-4.14-3.44-9.77-4.88-14.69-4.5-15.44-7-31.43-12.39-46.64Z" />
    <path class="rabota9-17"
      d="M468.09,326.32c5.43,15.21,7.89,31.2,12.39,46.64,1.44,4.92,1,10.55,4.88,14.69l-.06,4.79c-9.56-4.87-18.31-11.2-28.34-15.28-2.66-1.08-3.89-3.15-2.23-7.32,3.68-9.24,5.47-19.21,8.63-28.69C465,336.23,464.77,330.69,468.09,326.32Z" />
    <path class="rabota9-2"
      d="M504.79,465.9c-2.83-10.43-5.64-20.88-8.5-31.31s-5.74-20.81-8.61-31.21c0-1.14.05-2.27.08-3.4,3.32-.61,5.23,1.78,7.27,3.62A98.82,98.82,0,0,0,516.29,418c3.14,1.61,3.75,3.1,2.22,6.11-5.55,10.88-6.73,23.19-11,34.52A70.61,70.61,0,0,1,504.79,465.9Z" />
    <path class="rabota9-17"
      d="M448.57,249.24c2.65.89,1.79,3.42,2.24,5.2,4.7,18.63,9.25,37.31,13.89,56,.13.53.74.93,1.12,1.4,0,.78,0,1.55,0,2.33C455.55,310.25,447,303.2,437,298.69c-1.74-.79-3.19-2.28-2.17-5.37C439.7,278.71,444.05,264,448.57,249.24Z" />
    <path class="rabota9-2"
      d="M524.9,287.33a4.41,4.41,0,0,1,1.42.62c7.19,6.27,16,9.76,24.17,14.43,2.32,1.34,4.15,3.49,3.14,6.59-3.87,11.9-7.8,23.79-11.71,35.68-.13.39-.17.8-.26,1.19-2.84,11.78-4.47,12.06-14.11,4.9-5.38-4-11.7-6.79-17.84-9.61-3.8-1.75-4.44-3.48-2.55-7.2,7-13.78,8.83-29.32,14.59-43.55C522.38,288.84,522.33,287.09,524.9,287.33Z" />
    <path class="rabota9-2"
      d="M517.13,288c-2.62,9.1-5.09,18.57-8.12,27.87-1.4,4.29-3.26,8.42-4.23,12.88-1.13,5.2-5.42,7-9.5,3.94-6.86-5.19-14.49-9.1-21.88-13.39-1.82-1.05-3.75-2.07-2.43-3.84,3.17-4.26,2.27-9.5,4.21-14.16,4.16-10,6.88-20.67,10-31.11,1.21-4,4.27-3.14,6.3-2,8.23,4.59,16.21,9.61,24.27,14.49C517.79,283.84,516.89,285.88,517.13,288Z" />
    <path class="rabota9-2"
      d="M506.09,343.93c8.5,5.07,17.17,9.87,25.42,15.3,4.44,2.93,6.77,6.58,3.21,12.72-3.05,5.25-4,11.75-5.68,17.75-2.27,8-6.72,15.36-7.48,24.58-10.43-6-20.39-11.64-30.27-17.43-1.92-1.12-1.69-3.58-.92-5,2.58-4.67,2.49-10.12,4.77-14.81,3.39-7,4.07-14.76,6.83-22,1.28-3.37,4.55-6.46,2.48-11Z" />
    <path class="rabota9-2"
      d="M361.63,322.63c1.93-5.91,4.67-11.66,3.58-18.17,3.56-4.72,4.16-10.57,6-15.94,1.3-5.07,2.78-10.1,3.83-15.23.53-2.58,1.87-4.2,4-2.69,4.23,3,9.51,4,13.35,7.93s10.05,4.67,14.46,8.42c2,1.65,3.17,2.67,1.66,4.64-3.64,4.72-3.75,10.43-5,15.85-1.8,8-4.76,15.55-7.58,23.18-.14.37-.53.65-.67,1-3.26,8.33-5.21,8.67-13.06,3A119.5,119.5,0,0,0,361.63,322.63Z" />
    <path class="rabota9-2"
      d="M375.94,262.87c-9.35-4.08-16.44-8.07-22.72-13.34a10.16,10.16,0,0,0-4.41-1.79c-5.64-1.52-6.89-5.75-5.23-10.38,4.54-12.71,9.35-25.31,12.05-38.6.81-4,6.13-6.42,9.06-3.76,6.42,5.8,14.72,8.11,21.82,12.62,3.32,2.11,3.94,4.45,2.79,7.61-4.5,12.45-9.62,24.69-11.9,37.85C376.9,256,373.81,258.12,375.94,262.87Z" />
    <path class="rabota9-2"
      d="M425.71,231.81c-4.63,13.88-7,27.71-12.41,40.59-.22.54-.82.91-1.09,1.44-1.32,2.6,1.36,7.71-2.18,7.89-3.76.2-8.31-2-11.4-4.56-5.06-4.15-10.77-6.8-16.52-9.53-2.42-1.15-3-2.53-2.78-5.21.75-7.72,5-14.33,6.59-21.73s5.94-14,6.34-21.72c.11-2.06.51-4.21,2.77-5s3.63.53,5.4,1.8c6.6,4.78,13.35,9.41,20.93,12.53C423.56,229.22,425.19,230.27,425.71,231.81Z" />
    <path class="rabota9-17"
      d="M348.11,355.33l11.29-25.27c2,6.13,4.42,12.15,5.76,18.42,3.16,14.83,6.74,29.54,11.2,44,0,1.59,0,3.18,0,4.77-6.62-1.58-12.63-5-18-8.7-4.78-3.32-10.46-5.16-14.64-9.24-1-1-4.88-3.05.17-4.24a2.28,2.28,0,0,0,1.69-2.84c-.78-3.91,1-7.4,2.95-10.09C350.71,359.17,349.24,357.52,348.11,355.33Z" />
    <path class="rabota9-2"
      d="M337.18,240.57c-1.81-11.92-5.91-23.29-8.47-35-2.26-10.39-6.08-20.4-7.49-31,.84-3.53,2.71-2.57,4.92-1.28,7,4.08,13.56,8.94,21.33,11.88,5.49,2.07,5.54,6.24,3.92,12.37-3,11.15-7.36,21.78-10.6,32.82-1,3.42-3,6.57-2.43,10.34C338,240.65,337.57,240.62,337.18,240.57Z" />
    <path class="rabota9-2"
      d="M376.36,392.52c-4.46-14.5-8-29.21-11.2-44-1.34-6.27-3.81-12.29-5.76-18.42,0-.47,0-.93,0-1.4a88.22,88.22,0,0,1,18.94,9.58,16.89,16.89,0,0,0,6.37,3c5.33,1,6.78,5,4,9.67-2.29,3.82-1.75,8.32-3.38,12.47C381.56,372.78,379.24,382.76,376.36,392.52Z" />
    <path class="rabota9-2"
      d="M340.75,255.23q0-3-.1-5.95c2.75-2.26,5,.91,6,1.76,7.08,5.94,16.2,8.26,23.5,13.78,2,1.51,2.91,2.87,2.35,4.81-1,3.52-2.55,6.88-3.86,10.32l-8.28.17a47.88,47.88,0,0,0-1.38-5.88c-1.22-3.39.08-4.48,3.35-4.3,1.67.09,4.09,1.47,4.67-1.09.54-2.36-1.91-2.91-3.65-4-6.64-4-14.6-1.44-21.34-4.62C341.6,258.59,341.18,256.91,340.75,255.23Z" />
    <path class="rabota9-15"
      d="M360.38,280.12l8.28-.17c2.56,2.35.33,6.12,2.56,8.57-1.85,5.37-2.45,11.22-6,15.94-3.76-2.23-6.59-6.63-12-5.09a.47.47,0,0,1-.58,0c.87-4.94-.65-10.36,3-14.73C361.25,287.32,360,282.89,360.38,280.12Z" />
    <path class="rabota9-17"
      d="M340.75,255.23c.43,1.68.85,3.36,1.28,5-2.38,5.14-1.69,9.35,3.65,12.17,1.48,9.19,4.37,18,7,26.91a.47.47,0,0,0,.58,0c-1.88,4.12-4.6,7.87-5.53,12.41-3.16.67-5.93.19-8.07-2.51a8.27,8.27,0,0,0-2.27-2c-13.34-7.85-13.16-8.38-7.21-23.26,3.41-8.55,4.57-17.92,8.16-26.51C338.87,256.23,339.43,255.46,340.75,255.23Z" />
    <path class="rabota9-17"
      d="M326,312c.39-3.23,3.37-3.66,4.86-2.54,4.26,3.21,10.52,4,12.63,9.89.17,2.69-.94,5-2.2,7.24-1.87,3.37-5.45,3.18-6.86,1.07C331.15,322.72,327,318.1,326,312Z" />
    <path class="rabota9-7"
      d="M313.8,404a43,43,0,0,1,1.66,17.74c-.41,3.14-1.67,6.17-1.24,9.41l-2.67.28c1.46-4.29,1.3-8.72,1.05-13.13-.5-9.22-1-9.58-10.82-8.78q.08-9.6.14-19.21c2.65-.35,1.61,3.4,3.86,3.48C304.57,402.21,306.21,404.3,313.8,404Z" />
    <path class="rabota9-5"
      d="M313.8,404c-7.59.3-9.23-1.79-8-10.21,2.7-.48,4.82.68,6.77,2.34C312.26,398.87,314.55,401.19,313.8,404Z" />
    <path class="rabota9-11"
      d="M269.7,451.12l6.28,3.79q-.57,3.1-1.13,6.19l0,2.32c-3.24,1.72-2.84,4.66-2.54,7.56-1,1.4-2.58,2.51-2.64,4.49l-2,.27-3.93-11.27C265.91,460.12,264.57,454.16,269.7,451.12Z" />
    <path class="rabota9-3"
      d="M255.14,487.93c.26,5.28,2.62,9.94,4.85,14.92-4.16,0-6.26-3.45-9.6-4.06C252.68,495.48,252.14,490.93,255.14,487.93Z" />
    <path class="rabota9-3"
      d="M263.69,464.47l3.93,11.27c-.2.74-.39,1.48-.59,2.22l-6.9-2.49C260.34,471.49,262.48,468.13,263.69,464.47Z" />
    <path class="rabota9-11" d="M240.72,494c2-.06,3,1.73,4.59,2.41-4.19,2.12-1,7.25-4.59,11.06Z" />
    <path class="rabota9-10" d="M260.13,453.64a2.27,2.27,0,0,1,2.29-2.57A2.18,2.18,0,0,1,260.13,453.64Z" />
    <path class="rabota9-4"
      d="M274.82,463.42l0-2.32c3.47,0,1.3-5.07,4.69-5.1.35.87.55,2.53,1.73,1.87,6-3.37,10,.78,14.84,3.19s7.48,7.6,12.62,9.46l.18,3.66c-1,2.05,1.88,5.48-2.31,6.36-1.37-.07-1.85-.93-2.55-2.07-2.11-3.46-3.92-7.69-7.07-9.81C290.47,464.28,283.45,459.81,274.82,463.42Z" />
    <path class="rabota9-9"
      d="M394.53,626.31a2.64,2.64,0,0,1-2.41-1.37c.28-3,2.94-5.3,2.43-8.51,1.3-1.9,3-3.63,2.58-6.24,3.21-3.76,3.87-8.66,5.74-13,1-2.27-.44-2.3-2.09-1.57-2.1-2.36-.22-3.71,1.44-4.76,2.07-1.31,4.15-2.45,4.54-5.17,1.83-4.35,3.62-8.71,5.51-13,1.05-2.41,0-2.28-1.75-1.61h-1.24c.79-3.67,6-5,5.11-9.55,6.05-2.87,4.38-9.39,6.55-14.25l-3,1.83-1.3,0c2-4.74,6.79-7,9.55-11.11.76-5.94,5.46-10.7,5.06-17-.64-2.67,2.41-3.85,2.51-6.22,3.42-3.4,3.31-8.53,6.08-12.25a2.84,2.84,0,0,1,1.39,2.61c0,.4.05.8.08,1.21.05,3.46-3,6.07-2.6,9.63-5.09,3.26-5.37,8.27-4.93,13.54-3.13,2.92-4.3,6.71-4.8,10.8-2.91,3.63-5.25,7.48-5,12.39q-1.91,4.32-3.79,8.64c-3.45,4.29-3,9.86-4.82,14.68-2.78,2.7-3.19,6.59-4.87,9.84-3,4.52-3.75,10-6,14.8q-1.81,4.82-3.64,9.64c-1.28,3.64-3,7.2-3.69,11A10.49,10.49,0,0,1,394.53,626.31Z" />
    <path class="rabota9-3"
      d="M431.28,521c.4,6.29-4.3,11-5.06,17-6.06-.3-9.6-5.33-15-7.83C420.61,532.22,425.19,525,431.28,521Z" />
    <path class="rabota9-3"
      d="M439.87,502.48c-2.77,3.72-2.66,8.85-6.08,12.25L421.27,507c2.43-1.83,5.68.47,7.67-1.84,3.3.14,5.45-2.18,7.9-3.79C438.56,500.23,439.74,499.73,439.87,502.48Z" />
    <path class="rabota9-3"
      d="M410.52,571.05c1.7-.67,2.8-.8,1.75,1.61-1.89,4.32-3.68,8.68-5.51,13a69.56,69.56,0,0,1-14.62-8.56l-.06,0,5.06,1.16C402.26,577.08,407.43,576,410.52,571.05Z" />
    <path class="rabota9-3"
      d="M418,549.09l3-1.83c-2.17,4.86-.5,11.38-6.55,14.25-3-2.9-8.38-2.79-9.84-7.67,3.44,0,7.06.83,9.74-2.32l0,0Z" />
    <path class="rabota9-3"
      d="M443.57,490.41c-3.69-2.32-8.18-3.41-11.62-7.43,7.13.73,11.91-2.07,15.3-7.47,1.35-1.18,2.64-.86,1.93.88C447.3,481.05,446.68,486.24,443.57,490.41Z" />
    <path class="rabota9-10"
      d="M439.87,502.48c-.13-2.75-1.31-2.25-3-1.13-2.45,1.61-4.6,3.93-7.9,3.79.1-.6,0-1.55.33-1.74,4.76-2.66,7.32-7.79,11.92-10.6a6.5,6.5,0,0,0,2.41,4.83c-.73,2.5,1.88,6.05-2.34,7.46A2.84,2.84,0,0,0,439.87,502.48Z" />
    <path class="rabota9-9"
      d="M443.6,497.63a6.5,6.5,0,0,1-2.41-4.83,2.26,2.26,0,0,0,2.38-2.39c3.11-4.17,3.73-9.36,5.61-14,.71-1.74-.58-2.06-1.93-.88-1.38-1.42-.57-2,.9-2.24,2.35-.31,3.41,1.43,3.54,3.18.16,2.11-.47,4.28-.76,6.43-2,3.4-4.64,6.6-3.63,11C445.77,494.84,443.66,495.23,443.6,497.63Z" />
    <path class="rabota9-3"
      d="M401,610.26q1.83-4.82,3.64-9.64c3.22,4,3.06,9.35,6.28,14.12C406.29,614.4,403.77,612,401,610.26Z" />
    <path class="rabota9-3"
      d="M429,540.27c.5-4.09,1.67-7.88,4.8-10.8-.13,5.06,2,9.4,5.08,13.88C434.54,544.19,432.54,539.72,429,540.27Z" />
    <path class="rabota9-3"
      d="M410.56,585.82c1.68-3.25,2.09-7.14,4.87-9.84-.52,5.34,3.05,9.62,3.76,14.64l-.08.08C415.65,590.15,413.11,588,410.56,585.82Z" />
    <path class="rabota9-3"
      d="M447.3,493.89c-1-4.41,1.59-7.61,3.63-11,1.32,3.94,2.64,7.88,4.53,13.55C452.23,493.64,449.73,494,447.3,493.89Z" />
    <path class="rabota9-3" d="M438.74,515.93c-.43-3.56,2.65-6.17,2.6-9.63,4,3.15,2.73,8.65,5.25,12.94Z" />
    <path class="rabota9-3"
      d="M420.25,561.3q1.89-4.32,3.79-8.64,1.83,6.75,3.68,13.52h0C424,566.44,422.07,563.94,420.25,561.3Z" />
    <path class="rabota9-10"
      d="M410.52,571.05c-3.09,4.94-8.26,6-13.38,7.21,3.94-2.58,6.71-7.14,12.14-7.2Z" />
    <path class="rabota9-10"
      d="M414.29,551.52c-2.68,3.15-6.3,2.37-9.74,2.32C406.88,549.19,411.08,552.43,414.29,551.52Z" />
    <path class="rabota9-9"
      d="M448.57,593.15c-.21,3.09-2.28,4.35-4.94,5C444.12,595.36,445.9,593.82,448.57,593.15Z" />
    <path class="rabota9-10" d="M418,549.09l-3.7,2.46a2.18,2.18,0,0,1,2.4-2.5Z" />
    <path class="rabota9-3" d="M427.72,566.18l1.56.47-.31.45-1.27-.91Z" />
    <path class="rabota9-3" d="M419.19,590.62l.49.57-.57-.49Z" />
    <path class="rabota9-3"
      d="M308.91,474.18l-.18-3.66,2.69-5.67c.85-.26,2.22-1.32,2.3.34.21,4.29,2.2,8,3.86,12.12C313.54,478.15,311.92,474.33,308.91,474.18Z" />
    <path class="rabota9-9"
      d="M318.57,448.69l-2.2.21,1.29-11.83c.52-1.47,1-2.93,1.55-4.4,4.78,1.34,3.22,4.55,2.23,7.58C320.48,443.06,319.53,445.88,318.57,448.69Z" />
    <path class="rabota9-12"
      d="M319.21,432.67c-.51,1.47-1,2.93-1.55,4.4-3.82-.41-1.65-4.32-3.45-5.91-.42-3.25.84-6.28,1.25-9.42,2.17,3.05-.78,7.77,3.31,10.2A1.77,1.77,0,0,0,319.21,432.67Z" />
    <path class="rabota9-11"
      d="M392.14,577.13a69.56,69.56,0,0,0,14.62,8.56c-.39,2.72-2.47,3.86-4.54,5.17-1.66,1-3.54,2.4-1.44,4.76-4.25,3.87-9,6.75-16.27,6.3l7.83,5.79c2.81,3.37-.69,6.72,0,10.07-1.26,1.66-2.52,3.31-3.77,5-4.3-1.22-7.82-3.87-11.48-6.26,1.39-11.15,6.56-21,11.46-30.76C389.94,582.89,387.38,578.37,392.14,577.13Z" />
    <path class="rabota9-11"
      d="M316.38,566.3c-1.73,4.42-6.46,6.33-8.64,10.38L299.19,572c-.39-5.14.85-9.68,4.79-13.26C308.27,561,312.63,563.14,316.38,566.3Z" />
    <path class="rabota9-10"
      d="M365.3,579.69c-2.87,2.56-2.74,6.6-4.72,9.6-.78,5.17-5.43,9-5,14.59l-10.24-5.76c4.67-2.5,8.58-5.71,10.27-11,2.08,1.07,2.89-.53,3.54-1.9,1.84-3.89,4.06-7.69,3.91-12.23a6.75,6.75,0,0,0,1-4.4c.37-.41.75-.82,1.13-1.22l2.62.08C366.48,571.43,364.41,575.26,365.3,579.69Z" />
    <path class="rabota9-13"
      d="M278.45,546.78c-1.7,3.93-1.14,8.1-1.31,12.2-3.32-.93-6-3-8.73-5,3.13-2.17,4.79-6.07,8.65-7.41Z" />
    <path class="rabota9-3"
      d="M388.55,622.75l3.76-5,2.24-1.35c.51,3.21-2.15,5.53-2.43,8.51A3.54,3.54,0,0,1,388.55,622.75Z" />
    <path class="rabota9-6"
      d="M267,478c.2-.74.39-1.48.59-2.22l2-.26c3.06,0,6.21.1,8.82,1.62,3.7,2.16,7.75,5,5.59,10-2.29,5.29-2.49,10.93-3.89,16.34-1.1,4.3-2.57,9.75,3.81,12.31.51.2.44,1.84.63,2.81-7.6,4.37-19.73-2.5-20.59-12.87C263.23,496.35,262.64,486.83,267,478Z" />
    <path class="rabota9-7"
      d="M284.6,518.56c-.19-1-.12-2.61-.63-2.81-6.38-2.56-4.91-8-3.81-12.31,1.4-5.41,1.6-11.05,3.89-16.34,2.16-5-1.89-7.84-5.59-10-2.61-1.52-5.76-1.66-8.82-1.62.06-2,1.59-3.1,2.64-4.5,3.89-.14,4.62-5.26,9-5.24A17.17,17.17,0,0,1,297,478.07c-2.27,3-6,5.28-4.88,9.92l-.18,2.22c-.53,1.21-1.23,2.41-.37,3.76-2.2,1.45-2.31,3.73-2.39,6-4,2.77-3.25,7.78-.56,8.78,4,1.48,3,3.78,3.38,6.2l-1.19,2.35c-2-.46-3.62.39-5.2,1.41A4,4,0,0,0,284.6,518.56Z" />
    <path class="rabota9-3"
      d="M278.4,542.87c-4.9-1.07-9.29-3-12.23-7.32,5.81.18,11.08-1,14.82-6,1.21-.15,1.49-2.5,3.08-1.4.23.15-.46,1.65-.73,2.52Z" />
    <path class="rabota9-13" d="M281,529.58c-3.74,5-9,6.15-14.82,6,2.92-5.38,8.41-5.14,13.35-6.1Z" />
    <path class="rabota9-10"
      d="M281,529.58l-1.47-.13c-.14-3.68,1.33-6.25,5-7.28a6.39,6.39,0,0,0,2.38,4.8c-.37,2.47,1.06,5.23-1.21,7.4a3.54,3.54,0,0,0-1.12.13c-.12-1.37.16-2.87-1.26-3.8.27-.87,1-2.37.73-2.52C282.48,527.08,282.2,529.43,281,529.58Z" />
    <path class="rabota9-9"
      d="M283.34,530.7c1.42.93,1.14,2.43,1.26,3.8-.24,3.63-2.12,6.63-3.68,9.77l-2.47,2.51-1.39-.18c.44-1.24.89-2.49,1.34-3.73Z" />
    <path class="rabota9-9"
      d="M286.93,527a6.39,6.39,0,0,1-2.38-4.8c1.35-.84,1.18-2.16,1.09-3.45,1.58-1,3.21-1.86,5.2-1.4l-.21,2.41Z" />
    <path class="rabota9-10"
      d="M393.4,506.41c-2.24,3.3-3.3,7.11-4.65,10.8-3.9,4.14-3,10.31-6.21,14.73-.41,3.36-2.81,6.21-2.49,9.76-3.52-.27-1.43,5.13-4.94,4.89a2.66,2.66,0,0,0-1.27-2.47l1.26-3.8c4.53-3.65,5.18-9.21,6.84-14.23.43-1.31-1.18-1.22-2.12-1.34a15.42,15.42,0,0,1,5-8.64c4.66-4.79,4.88-11.79,8.53-17.09-.39-1.27-.77-2.54-1.16-3.82,0-1.22,0-2.44,0-3.67h2.39c2.11.35-.65,3.93,2.41,3.65C394.42,498.45,395,502.8,393.4,506.41Z" />
    <path class="rabota9-3"
      d="M393.37,499c-3.65,5.29-3.87,12.29-8.53,17.08l-13-7.43c1.92-2.49,4.25,1.28,5.74-1.19,5.87.44,9.35-3.25,12.59-7.34Z" />
    <path class="rabota9-3"
      d="M365.37,563.82c-3.13-3.52-7.82-4.71-11.94-7.67,2.47-1.66,5.07,1.18,6.9-.94,5.25.22,8.22-4.09,12.32-6.16C370.87,554.29,371.7,560.82,365.37,563.82Z" />
    <path class="rabota9-3"
      d="M379.82,524.75c.94.12,2.55,0,2.12,1.34-1.66,5-2.31,10.58-6.84,14.23-2.22-3-6-3.7-8.7-6-.82-.69-2.39-1-1-2.57,3.61-.2,7.9,1.53,9.81-3.47C378.18,529,378.5,526.23,379.82,524.75Z" />
    <path class="rabota9-3"
      d="M363.06,573c.15,4.54-2.07,8.34-3.91,12.23-.65,1.37-1.46,3-3.54,1.9-2.74-3.26-8.37-2.8-9.87-7.65,4.5.37,8.93.5,12.27-3.36Z" />
    <path class="rabota9-3"
      d="M394.64,491.52h-2.39c-2.71-1.57-5.44-3.12-8.13-4.75-1-.59-3.08-.67-1.6-2.75,4.52.32,9,.46,12.29-3.51a3.53,3.53,0,0,0,3.5-2.29C399.59,483.36,396.68,487.32,394.64,491.52Z" />
    <path class="rabota9-3"
      d="M410.47,451.19c-1,6-4.41,11.26-6.05,17.09-4.09-.67-7.22-3.26-10.52-5.42-1.86-1.21-.47-1.75.84-2,7.1.08,11.63-3.75,14.78-9.69C409.84,451.19,410.15,451.2,410.47,451.19Z" />
    <path class="rabota9-3"
      d="M331,543c.23-4.31,2.32-7.8,4.86-11.1-1.11,5.71,2.35,10.24,4.46,15.65C336.39,546.88,333.87,544.61,331,543Z" />
    <path class="rabota9-9"
      d="M365.37,563.82c6.33-3,5.5-9.53,7.28-14.77h0c1-.46.75-.92,0-1.37l0-3.5c.4,0,.79-.06,1.19-.07a2.66,2.66,0,0,1,1.27,2.47c0,2.5,0,5-.05,7.49-2.75,3.11-3.51,7.1-4.73,10.88l-2.52,2.49-2.62-.08Z" />
    <path class="rabota9-3"
      d="M321.33,567.26c1.2-3.83,2.13-7.77,4.8-11-.61,5.38,3.84,9.49,3.71,14.74l0,.05C326.44,571,324.47,567.83,321.33,567.26Z" />
    <path class="rabota9-3"
      d="M340.59,519.58c.23-3.7.94-7.21,4-9.75,1.14,4.14,2.29,8.29,3.49,12.67C344.62,523.46,343,520.43,340.59,519.58Z" />
    <path class="rabota9-3"
      d="M349.27,495.08l3.88-9.58c.83,2.8,1.69,5.6,2.47,8.42.4,1.43,2,3.08.31,4.32-1.19.88-2.61-.47-3.8-1.11A26.73,26.73,0,0,1,349.27,495.08Z" />
    <path class="rabota9-3"
      d="M360.26,473.12c-2.09-4.37.12-7.73,2.6-11,1.17,4.16,2.34,8.32,3.53,12.57C363.69,476,362.48,472.62,360.26,473.12Z" />
    <path class="rabota9-10"
      d="M409.52,451.18c-3.15,5.94-7.68,9.77-14.78,9.69.25-3.4,4.07-3.57,5.44-3.78C404.43,456.44,404.21,449.36,409.52,451.18Z" />
    <path class="rabota9-10"
      d="M372.65,544.19c0,1.17,0,2.33,0,3.5,0,.46,0,.92,0,1.37h0c-4.1,2.07-7.07,6.38-12.32,6.16C364.57,551.68,367.48,546.67,372.65,544.19Z" />
    <path class="rabota9-3"
      d="M367.74,448.62c-.28-3.83,1.79-6.76,3.73-9.74-.13,4.11,2.27,7.56,3.44,11.47C371.82,451.24,370.15,448.47,367.74,448.62Z" />
    <path class="rabota9-10"
      d="M358,576.11c-3.34,3.86-7.77,3.73-12.27,3.36-.16-2.49,1-3.87,3.49-3.41,3.4.62,5.94-1.27,8.74-2.47C358,574.43,358,575.27,358,576.11Z" />
    <path class="rabota9-10"
      d="M390.13,500.15c-3.24,4.09-6.72,7.78-12.59,7.34,2.73-3.16,6.48-5,9.77-7.42Z" />
    <path class="rabota9-9"
      d="M358,576.11c0-.84,0-1.68,0-2.52.94-3,2.74-4.94,6.09-5a6.75,6.75,0,0,1-1,4.4Z" />
    <path class="rabota9-10"
      d="M394.81,480.52c-3.3,4-7.77,3.83-12.29,3.51C386.41,482.13,390.14,479.68,394.81,480.52Z" />
    <path class="rabota9-10"
      d="M375.2,528.33c-1.91,5-6.2,3.27-9.81,3.47C367.69,527.88,372,529.76,375.2,528.33Z" />
    <path class="rabota9-13"
      d="M390.13,500.15l-2.82-.08a6.66,6.66,0,0,1,4.9-4.87c.39,1.28.77,2.55,1.16,3.82Z" />
    <path class="rabota9-13"
      d="M380.51,430.76c-1.52,3.59-3,3.58-5,2.31C376.63,431.11,379,433,380.51,430.76Z" />
    <path class="rabota9-13"
      d="M384.43,496.13c-.15.34-.22.86-.46,1s-.66-.24-1-.38c.15-.34.22-.87.46-1S384.09,496,384.43,496.13Z" />
    <path class="rabota9-10" d="M362.86,453.6a2.21,2.21,0,0,1,2.41-2.45A2.21,2.21,0,0,1,362.86,453.6Z" />
    <path class="rabota9-3" d="M329.84,571.05l.51.54-.56-.49Z" />
    <path class="rabota9-2"
      d="M297,478.07a17.17,17.17,0,0,0-15.75-12.33c-4.38,0-5.11,5.1-9,5.24-.3-2.9-.7-5.84,2.54-7.56,8.63-3.61,15.65.86,22.16,5.24,3.15,2.12,5,6.35,7.07,9.81.7,1.14,1.18,2,2.55,2.07.28,2.81-3.66,4.16-2.52,7.28-1.18.32-2.53.45-2.31,2.23l-3.63.61-6.17-.45.18-2.22,4.53-2.55C300.78,483.17,300.33,480.69,297,478.07Z" />
    <path class="rabota9-9"
      d="M298.15,490.66l3.62-.61c-.81,2.49-1.63,5-2.44,7.49-2.41,3.84-4.66,7.76-4.85,12.47a10.07,10.07,0,0,1-2.45,5c-.38-2.42.6-4.72-3.38-6.2-2.69-1-3.44-6,.56-8.78.49.95.59,2.83,2.32,1.46s3.4-2.91,4-5.2C297.6,494.94,297.87,492.8,298.15,490.66Z" />
    <path class="rabota9-3"
      d="M299.33,497.54c.81-2.5,1.63-5,2.44-7.49-.22-1.78,1.13-1.91,2.31-2.23l3.72,13.49,0,0C304.41,501.29,302.46,498.09,299.33,497.54Z" />
    <path class="rabota9-3"
      d="M318.57,448.69c1-2.81,1.91-5.63,2.87-8.44,3.37,3.74,2.67,9.19,6.91,14.06C323.49,453.05,320.22,452.33,318.57,448.69Z" />
    <path class="rabota9-3"
      d="M327.36,424.31c1.89-1.76.81-5.22,3.67-6.44q1.83,5.63,3.67,11.26C331.21,429.11,328.67,427.65,327.36,424.31Z" />
    <path class="rabota9-3" d="M307.8,501.31l.5.52c-.11,0-.26,0-.32-.08a1.76,1.76,0,0,1-.21-.41Z" />
    <path class="rabota9-3" d="M335.13,429.32l.07.32c-.1,0-.25,0-.31-.09a1.59,1.59,0,0,1-.19-.42Z" />
    <path class="rabota9-11"
      d="M345.65,494.11c-2.34,3.27-7,4.78-7.32,9.59-6-3.53-4.23,4.24-7.27,5h0c-1.62.52-4.29-3-4.95,1.26l-2.36,0-.32-.33c-.27-9.26,5.88-16.47,8-25,1.72-6.88,6-12.94,7.43-20,.11-.53,1.23-.86,1.88-1.28,4.25,2.25,9,3.72,12.34,7.42.28,2.91-4.17,3.19-3.51,6.32-3.51,6.38-8.89,9.75-17.28,9.75A40.83,40.83,0,0,0,345.65,494.11Z" />
    <path class="rabota9-11"
      d="M335.89,518.55c-4.51,3.44-7.07,9.1-12.88,11.14-.87.31-1.17,2.26-1.74,3.45-2.22,2.29-5,.81-7.56,1.18a52,52,0,0,1,9.73-24.69l.31.32C326.37,514.84,331.82,515.71,335.89,518.55Z" />
    <path class="rabota9-11"
      d="M326.23,542c0,2.26-.33,3.84-3.1,4.91a12.09,12.09,0,0,0-6.79,7c-3.76-.3-7.32,0-9.63,3.58l-2.65.13c2.24-8,4.43-15.93,8.78-23.09Z" />
    <path class="rabota9-3"
      d="M304.06,557.64l2.65-.13c3.43.22,6.91.7,9.66-2.14l7.76-5.06c-2.91,6-2.76,12.12-7.75,16-3.75-3.16-8.11-5.32-12.4-7.61A3.37,3.37,0,0,1,304.06,557.64Z" />
    <path class="rabota9-3"
      d="M326.23,542l-13.39-7.45a2.05,2.05,0,0,1,.88-.23c2.52-.37,5.33,1.11,7.55-1.18,5,0,7.64-4,12.19-7.28C331,532,330.12,537.61,326.23,542Z" />
    <path class="rabota9-3"
      d="M353.1,470.72c-3.38-3.7-8.09-5.17-12.34-7.42a2.93,2.93,0,0,1,.15-1.1c3.21-.6,6.7,1.11,9.72-1.12a8.58,8.58,0,0,0,4.9-1.55C359.08,462.51,358.07,467.2,353.1,470.72Z" />
    <path class="rabota9-3"
      d="M345.65,494.11a40.83,40.83,0,0,1-13.34-7.32c8.39,0,13.77-3.37,17.28-9.75,3,.37,2.2,2.15,1.48,3.9Q348.37,487.53,345.65,494.11Z" />
    <path class="rabota9-3"
      d="M335.89,518.55c-4.07-2.84-9.52-3.71-12.14-8.6l2.37,0c2.22,1.81,3.55.12,4.95-1.26h0c3.07.06,5.64-.9,7.34-3.62,3.52.16,2.56,2.57,1.87,4.3C339,512.54,337.37,515.51,335.89,518.55Z" />
    <path class="rabota9-3"
      d="M362.92,446.41c-2.1-1.11-4.14-2.3-6.29-3.28-3.36-1.54-1.25-2.81.1-4.16,5.63-.75,9.21-4.35,12.24-8.73,1.35,1.06,1.22,2.23.55,3.69-1.9,4.13-3.64,8.33-5.44,12.5A2.67,2.67,0,0,0,362.92,446.41Z" />
    <path class="rabota9-10"
      d="M369,430.24c-3,4.38-6.61,8-12.24,8.73,4-3.31,6.44-8.71,12.28-9.77C369,429.55,369,429.89,369,430.24Z" />
    <path class="rabota9-10"
      d="M316.37,555.37c-2.75,2.84-6.23,2.36-9.66,2.14,2.31-3.62,5.87-3.88,9.63-3.58Z" />
    <path class="rabota9-10"
      d="M338.4,505.11c-1.7,2.72-4.27,3.68-7.34,3.62,3-.79,1.25-8.56,7.27-5C338.36,504.17,338.38,504.64,338.4,505.11Z" />
    <path class="rabota9-10"
      d="M355.53,459.53a8.58,8.58,0,0,1-4.9,1.55c-.28-3.53,1.28-5.27,4.88-5C355.52,457.21,355.52,458.37,355.53,459.53Z" />
    <path class="rabota9-10"
      d="M355.6,454.87c0-3.3,2.21-3.76,4.81-3.71C361.19,455.49,357.14,453.55,355.6,454.87Z" />
    <path class="rabota9-10" d="M360.5,450c.42-1.07,1.35-1.23,2.33-1.3A2.45,2.45,0,0,1,360.5,450Z" />
    <path class="rabota9-10"
      d="M362.92,446.41a2.67,2.67,0,0,1,1.16,0L363,447.51A4.06,4.06,0,0,1,362.92,446.41Z" />
    <path class="rabota9-3" d="M407,470.57c0-3.66,2.36-6.44,3.53-9.67,2.27,3.74,1.11,8.75,4.29,12.71Z" />
    <path class="rabota9-3"
      d="M280.92,544.27c1.56-3.14,3.44-6.14,3.68-9.77a3.54,3.54,0,0,1,1.12-.13c-.44,5.93,3.65,10.46,4.9,15.87C287.15,548.63,283.72,547,280.92,544.27Z" />
    <path class="rabota9-3"
      d="M324.76,411c1.73-.95,3-2.71,5.13-3-.42,3.73-1.18,7.29-4.9,9.29C323.6,415.29,322.63,413.21,324.76,411Z" />
    <path class="rabota9-1"
      d="M345.68,272.44c-5.34-2.82-6-7-3.65-12.17,6.74,3.18,14.7.63,21.34,4.62,1.74,1.05,4.19,1.6,3.65,4-.58,2.56-3,1.18-4.67,1.09-3.27-.18-4.57.91-3.35,4.3a47.88,47.88,0,0,1,1.38,5.88c-.35,2.77.87,7.2-4.71,4.5-.8-2.86-1.95-5.67-2.33-8.58C352.62,270.53,350.5,268.84,345.68,272.44Z" />
    <path class="rabota9-2"
      d="M345.68,272.44c4.82-3.6,6.94-1.91,7.66,3.6.38,2.91,1.53,5.72,2.33,8.58-3.65,4.37-2.13,9.79-3,14.73C350.05,290.45,347.16,281.63,345.68,272.44Z" />
    <path class="rabota9-3"
      d="M392.34,607.71l-7.83-5.79c7.3.45,12-2.43,16.27-6.3,1.65-.73,3.08-.7,2.09,1.57-1.87,4.34-2.53,9.24-5.74,13A7.72,7.72,0,0,0,392.34,607.71Z" />
    <path class="rabota9-13"
      d="M392.34,607.71a7.72,7.72,0,0,1,4.79,2.48c.43,2.61-1.28,4.34-2.58,6.24l-2.24,1.35C391.65,614.43,395.15,611.08,392.34,607.71Z" />
    <path class="rabota9-4"
      d="M297,478.07c3.3,2.62,3.75,5.1-.35,7.37L292.15,488C291.07,483.35,294.76,481.06,297,478.07Z" />
    <path class="rabota9-11"
      d="M295.54,496.25c-.61,2.29-2.28,3.83-4,5.2s-1.83-.51-2.32-1.46c.08-2.29.19-4.57,2.38-6Z" />
    <path class="rabota9-3"
      d="M295.54,496.25l-4-2.28c-.85-1.35-.15-2.55.38-3.76l6.17.45C297.87,492.8,297.6,494.94,295.54,496.25Z" />
    <path class="rabota9-3"
      d="M372.64,549.06c0-.45,0-.91,0-1.37C373.39,548.14,373.66,548.6,372.64,549.06Z" />
    <path class="rabota9-10"
      d="M331.07,508.72c-1.4,1.38-2.73,3.07-4.95,1.26C326.78,505.69,329.45,509.24,331.07,508.72Z" />
  </g>
</svg>