<svg id="Layer_1" data-name="Layer 1" xmlns="http://www.w3.org/2000/svg" viewBox="0 0 801.39 801.39">
  <defs>
    <style>
      .rabota1-1 {
      fill: #782222;
      }

      .rabota1-2 {
      fill: #d3aa04;
      }

      .rabota1-3 {
      fill: #077ff7;
      }

      .rabota1-4 {
      fill: #c22;
      }

      .rabota1-5 {
      fill: #fcde06;
      }

      .rabota1-6 {
      fill: #ca2123;
      }

      .rabota1-7 {
      fill: #4b3939;
      }

      .rabota1-8 {
      fill: #097ef3;
      }

      .rabota1-9 {
      fill: #782f30;
      }

      .rabota1-10 {
      fill: #dda986;
      }

      .rabota1-11 {
      fill: #d4a909;
      }

      .rabota1-12 {
      fill: #fbf1b5;
      }

      .rabota1-13 {
      fill: #e8592e;
      }

      .rabota1-14 {
      fill: #9f4e2e;
      }

      .rabota1-15 {
      fill: #f4db31;
      }

      .rabota1-16 {
      fill: #1477e4;
      }

      .rabota1-17 {
      fill: #dcd2d0;
      }

      .rabota1-18 {
      fill: #f04041;
      }
    </style>
  </defs>
  <g>
    <path class="rabota1-1"
      d="M448.29,452.59c-1.21,12.71-.29,25.45-.53,38.17q-1,55.57-2,111.14c-2.16,6.76-6.06,10.65-13.89,10.27-10.56-.51-21.15-.23-31.72-.28-10-15.57-2.57-31.76-1.42-47.63.94-12.93,3.54-25.72,4.71-38.64,1.13-12.44-4-24.11-5.72-36.22a55.5,55.5,0,0,0-2.06-7.24c.75-1.13,1.86-2.17,2.19-3.42,4.41-16.82,12.84-31.4,23.35-45.18,6.5-8.53,13.91-16.33,20-25.19,1.66-2.42.24-2.65-1.31-3.3,1.2-2.53,2.76-4.67,5.75-5.26l2.69,1.29c-2.14,4.76.07,9.52,0,14.28C448.26,427.78,448.3,440.19,448.29,452.59Z" />
    <path class="rabota1-2"
      d="M325.72,560.54c-22.64-14.51-46.42-27-69.6-40.63-4.55-2.67-8.83-6.1-13.71-7.87-8-2.9-9.62-8.12-9.09-15.94.75-11.1.33-22.28.41-33.43,3.46.78,6.21,3,9.31,4.51,7.57,3.67,13.64,10.58,22.84,10.75h.62l.55.27c.51,1.67-.67,3.26,2.19,4.83,22.64,12.47,45,25.46,67.45,38.29,2.28,1.3,4,2.74,3.95,5.89-.2,13.32,1.24,26.68-1.07,39.95Z" />
    <path class="rabota1-3"
      d="M323.2,290.54c1.7-7.86,1.09-16.07,4.14-23.74a40.82,40.82,0,0,1,21-22.67c2.9,4,5.77,8.07,5.14,13.45,0,.93,0,1.86,0,2.79s0,1.86,0,2.8c0,3.72,0,7.44,0,11.16,1.29,15-2.63,29.72-2.67,44.65l-.39,10.61c-3.92,3.32-1.78,7.94-2.54,11.93-2.5,10-4.17,20.18-3.83,30.57,0,3.78-2.94,7.11-1.63,11.08l-.27,5.57c-3.46,8-4.4,16.42-4.06,25.05l-4.35,8.88c-12.35,7.21-21.46,2.84-22.51-10.8C316.6,374.52,321,337.06,323,299.36c.1-1.84,0-3.7,0-5.54Z" />
    <path class="rabota1-4"
      d="M325.72,560.54l13.85,6.62c2.31.66,3.88-.82,5.68-1.84,10.4-5.86,20.84-11.64,31.26-17.46-1.41,19.89-2.61,39.79-4.31,59.65-.87,10.1-.25,20.39-3.33,30.25-2.26,7.1-6.72,11.88-14.17,13.6-5.84,1.35-11.63.77-17.5.06s-10.38-3.08-13.26-8.3c-3.28-3.07-4.13-7-4.08-11.3C320.11,607.92,318,583.82,325.72,560.54Z" />
    <path class="rabota1-5"
      d="M376.51,547.86c-10.42,5.82-20.86,11.6-31.26,17.46-1.8,1-3.37,2.5-5.68,1.84,2.31-13.27.87-26.63,1.07-39.95.05-3.15-1.67-4.59-3.95-5.89-22.45-12.83-44.81-25.82-67.45-38.29-2.86-1.57-1.68-3.16-2.19-4.83,9.91,2.46,17.54,9.32,26.41,13.79s17.19,10.27,26.44,14.19c2.5,2.93,6,4.18,9.42,5.59l5.26,4.16c7.72,3.25,8.15,3,10.34-5,1.36-5,3.23-9.82,5-14.68,3.5-9.53,7.22-19,9-29.13l.18-11c3.54.47,5.44-2.89,8.47-3.62,2.43,3-.71,7.32,2.43,10.14a10.78,10.78,0,0,0,3.21,5.22q7,13,14.09,25.92-.1,23.83-.22,47.66Z" />
    <path class="rabota1-5"
      d="M378.84,147.32c8.94-12.54,31.76-13.79,44-3.25l3,2.62c0,2.15-.43,4.59,2.81,4.9l0,0c.71,5.93-1.08,12.2,1.63,18.68,3.37-4.93-2.61-9.2,1.17-13.17,3.6,8.09,10,15.24,8.31,25.08-7.47,8.44-16.3,14.24-28,14.83-2.45.12-4.37,1.46-4.11,4.45h-9.54c.12-4.27-2.32-5.51-6.14-5.31s-6.66-1.12-10-2.88c-3.94-2-7.14-6.68-12.56-5.49-6.77-14.6,3-25,9.28-36.24a70,70,0,0,1,26.89,16.17C399.19,157.44,390.61,150.2,378.84,147.32Zm32.4,29.84c-.49-2.67-1-5.35-4-6.74C407.76,173.06,408.23,175.74,411.24,177.16Z" />
    <path class="rabota1-6"
      d="M387.32,493.79q-7.05-13-14.09-25.92c1.87-1.05,5.41-.51,5.14-3.66-.6-6.88,3.22-12.89,3-19.78-.23-8.54.87-17.11,1.32-25.66.16-2.94,1.18-5.6,4.46-4.6,6.8,2.06,13.35-.54,20-.29,11.76.44,22.43-3.5,32.68-8.81,1.55.65,3,.88,1.31,3.3-6.09,8.86-13.5,16.66-20,25.19-10.51,13.78-18.94,28.36-23.35,45.18-.33,1.25-1.44,2.29-2.19,3.42q-2.94,11.16-5.89,22.32C386.2,501.55,390.11,496.9,387.32,493.79Z" />
    <path class="rabota1-7"
      d="M323.94,643.12c2.88,5.22,7.37,7.6,13.26,8.3s11.66,1.29,17.5-.06c7.45-1.72,11.91-6.5,14.17-13.6-1,3.48,1.4,5.6,3.15,8,8.62,11.79,16.94,23.74,19.72,38.51,2,10.75-2.2,16-13.05,16-11.73,0-21.79-4.3-29.54-13-8-9-15.31-18.58-23.16-27.7C321.53,654.38,322.68,648.83,323.94,643.12Z" />
    <path class="rabota1-8"
      d="M359.13,238.29a41.42,41.42,0,0,1,11.56-6.79c2.47,8.33,6.89,11.74,15.45,12s17.08.7,25.59-.47c2.23.47,4.12.71,6.37-.9,3.24-2.34,7.1-3.81,10.69-5.65.47,1.85.36,4.05,2.87,4.65,1,8.4-.37,15.94-8.25,20.72-14.41,8.74-28.82,17.5-43.44,25.86-2.75,1.57-6.58.61-8.81-2-1.48-1.75-3.46-2.62-5-4.16,2.55-3.64.88-7.65,1-11.5C367.9,258.59,368.94,247.06,359.13,238.29Z" />
    <path class="rabota1-7"
      d="M400.15,611.89c10.57.05,21.16-.23,31.72.28,7.83.38,11.73-3.51,13.89-10.27,13.41,4.94,27.48,8.43,39.21,17.13,2.86,2.12,6.56,4.17,5.51,8.81-.86,3.84-2.48,6.66-7.32,6.74-17.2.29-34.33-1.3-51.5-1.64-2.07,0-3.41-1.07-4.88-2.25s-3.39-2.71-5-1.32c-3.88,3.36-8.3,2.15-12.58,2.16-9,0-12.19-3.83-10.71-12.92C398.86,616.34,399.59,614.13,400.15,611.89Z" />
    <path class="rabota1-5"
      d="M265.88,477.93c-9.2-.17-15.27-7.08-22.84-10.75-3.1-1.51-5.85-3.73-9.31-4.51a2.41,2.41,0,0,1-.19-1.27c6.41.09,11.27-1.65,11.3-9.34,0-.81.9-1.57,1.19-2.42q6.47-19.38,12.86-38.77c8.46,3.67,17.06,7.1,23.48,14.16.71,5.3,5.39,8.48,7.08,13.25-1.17,8.14,1.44,16.52-1.59,24.54-7.68-3.75-18.7.66-23.6,9.43A6.56,6.56,0,0,0,265.88,477.93Z" />
    <path class="rabota1-9"
      d="M440.28,183.4c14.55,4.64,25.07,14.24,33.07,26.93,3.88,8.84,7.63,17.67,10.76,26.87,1.82,5.37-.16,11.78,4.5,16.19.15,2.33.29,4.66.44,7q.74,5.4,1.46,10.8l-.09,27c-.85,4.44-1.69,8.89-2.55,13.33-2.77,14.18-12.42,24.6-19.83,36.24,0,1.82-.41,3.36-2.55,3.72-2.71,1.25-4.45,5.25-8,3.69-2.32-1-1.11-3.55-.55-5.48,1.32-.75,2.6-.4,4-.14,1.92.36,3.84.11,4.06-2.49s-1.62-2.91-3.61-3.06c-.79-.06-2,.3-2.08-1.34L463.8,340c4.26.32,6.4-2.68,7.77-5.81,6-13.85,8.69-28.32,6.84-43.48-2.42,15.66-3.48,31.71-13.5,45.06l-2.6,0c1.95-3.4,3.43-6.93,3-11,3.29-.81,4.52-3.94,4.68-6.3.42-6.3,3-12.35,2.09-18.77.44-.49,1.2-.92,1.28-1.46a140.69,140.69,0,0,0-.66-44.68c-.71-4.12-1.08-8.73-4.85-11.73-.78-9.77-9.21-15.59-12.42-24.06-1.9-5-6.33-6.85-10.24-9.4-2-1.33-2.11.58-2.43,1.85L432,201.9l-.12-5.41,3.93-.34,21.07,14.54c.66-5.2-4.35-7.63-3-11.85,1.48-.08,4.08.19,1.85-2.23-1.69-1.83-3.66-4.24-6.91-3.44C445,190.79,436.27,192.73,440.28,183.4Zm22,23C477,241.47,484.8,277.23,482.56,315c6-16.75,6-33.84,3.5-51.14-2.63-18.35-7.29-36-16.91-52C467.62,209.22,466.26,206.47,462.24,206.37Z" />
    <path class="rabota1-10"
      d="M431.92,196.49l.12,5.41q-.06,15.18-.13,30.37l-3.12,4.21c-3.59,1.84-7.45,3.31-10.69,5.65-2.25,1.61-4.14,1.37-6.37.9-13-7-25.18-15.41-38.59-21.64A42.31,42.31,0,0,1,370,202.8c.25-3.28,1.32-4.12,4.21-2.66,5.58,2.75,4.45,7.86,4.47,12.58,0,1.56-.32,3.69,1.88,3.79s2-2,2-3.59c.16-4.6.28-9.2.41-13.8,5,1.43,9.82,3.79,15.25,2.4h9.54C416.56,203.37,424,198.64,431.92,196.49Zm-4.63,28.14c-.07-1.31-.3-3.27-1.46-2.59-2.78,1.64-7.09,1.42-8,5.54-.36,1.67,1.31,2.46,2.66,2.51C424.34,230.23,426.17,227.71,427.29,224.63Z" />
    <path class="rabota1-7"
      d="M448.29,452.59c0-12.4,0-24.81.07-37.21,0-4.76-2.17-9.52,0-14.28,4.4.7,7-.78,7.3-5.6a43.64,43.64,0,0,1,1.47-6.66c1.67.21,2.11,1.3,2.45,2.82a114.38,114.38,0,0,1,2.91,28c-.15,5.91-1.24,12,1.11,17.78a18.86,18.86,0,0,0-1.11,3.19C460.82,450.52,458.88,452.17,448.29,452.59Z" />
    <path class="rabota1-11"
      d="M282.37,425c-6.42-7.06-15-10.49-23.48-14.16a10.13,10.13,0,0,0-5.52-4.34l-.27-9.47c2.54-1.33,4.25.43,6.22,1.56Q282.63,412,306,425.17c0,3.65,0,7.29,0,10.94-2.64-1.28-5.29-2.52-7.9-3.84C292.91,429.67,288.65,425.17,282.37,425Z" />
    <path class="rabota1-12"
      d="M306,425.17q-23.34-13.26-46.67-26.55c-2-1.13-3.68-2.89-6.22-1.56-2.21-.39-3.26-1.52-.94-2.95,4.18-2.57,7.58-7.15,13.89-3.28,13.91,8.51,28.23,16.34,42.35,24.53.41.24.37,1.29.54,2A13.63,13.63,0,0,1,306,425.17Z" />
    <path class="rabota1-10"
      d="M457.1,388.84a43.64,43.64,0,0,0-1.47,6.66c-.32,4.82-2.9,6.3-7.3,5.6l-2.69-1.28q-.75-2.61-1.52-5.22c-.05-1.79-.11-3.58-.17-5.37l3.49-11.65c.15-7.37.15-14.78,5.54-20.74,3.38,1.75,7.39,2.51,9.55,6.15-.09,2-.17,4.08-.26,6.12-4.58,3.74-1.83,9.57-4,14Z" />
    <path class="rabota1-10"
      d="M306,425.17a13.63,13.63,0,0,0,2.95-7.85c2-1.3.93-3.88,2.27-5.46,1.05,13.65,10.16,18,22.51,10.81,1.74,2.32,1.92,4.59-.25,6.76-8.64-3.21-5.34,5.23-7.83,8-1.24,3.13-4,5.83-2.78,9.68a5,5,0,0,1-1.27.14,5.25,5.25,0,0,0-5.22-2.66c-6.21.58-9.41-2.65-10.43-8.51Q306,430.64,306,425.17Z" />
    <path class="rabota1-12"
      d="M253.37,406.53a10.13,10.13,0,0,1,5.52,4.34q-6.42,19.38-12.86,38.77c-.29.85-1.18,1.61-1.19,2.42,0,7.69-4.89,9.43-11.3,9.34-1.17-3.43,2-5.41,2.72-8.2,3.54-14.45,11.62-27.39,14.05-42.19C250.65,408.9,252.51,408.12,253.37,406.53Z" />
    <path class="rabota1-13"
      d="M373.14,221.39c13.41,6.23,25.62,14.62,38.59,21.64-8.51,1.17-17.05.72-25.59.47s-13-3.67-15.45-12Q371.92,226.45,373.14,221.39Z" />
    <path class="rabota1-6"
      d="M359.13,238.29c9.81,8.77,8.77,20.3,8.09,31.74l-10.84,4.4-.14-.12c-1.15-3.66,2.82-8.59-2.77-11.14,0-.94,0-1.87,0-2.8.72-.36,2-.6,2.07-1.09.32-1.51-1.06-1.5-2.08-1.7.63-5.38-2.24-9.42-5.14-13.45Z" />
    <path class="rabota1-14"
      d="M457.1,388.84l1.2-5.73,4.21,1.14c2.06,1.93,4,4.09,4.2,7a167.79,167.79,0,0,1-3.14,46.19c-2.35-5.8-1.26-11.87-1.11-17.78a114.38,114.38,0,0,0-2.91-28C459.21,390.14,458.77,389.05,457.1,388.84Z" />
    <path class="rabota1-15"
      d="M431.92,196.49c-7.95,2.15-15.36,6.88-24.15,5-.26-3,1.66-4.33,4.11-4.45,11.68-.59,20.51-6.39,28-14.83a1,1,0,0,1,.42,1.17c-4,9.33,4.75,7.39,8.61,9.77-1.57.22-3.06.55-3.29,2.52-3.23.53-6.61-2.15-9.75.46Z" />
    <path class="rabota1-15"
      d="M495.47,318.52c-3.69.83-6.08-1-4.75-4.33,4.15-10.34,1.6-21.05,2.58-31.54,4.71-2.82,1.22-7.46,2.47-11,2.66,1.7,2,4.49,2.17,6.95C499.12,292,498,305.3,495.47,318.52Z" />
    <path class="rabota1-15"
      d="M468,347.76c8.79-2.16,12.67-9.18,16.78-16.29,1.94-3.35.73-9.16,6.76-9.67,1.45,9.34-4.73,15.52-9.55,22.06-3.82,5.18-9.56,8.27-15.34,11.06l-1.2-3.44C467.63,351.12,468,349.58,468,347.76Z" />
    <path class="rabota1-15"
      d="M488.61,253.39c-4.66-4.41-2.68-10.82-4.5-16.19-3.13-9.2-6.88-18-10.76-26.87,6.8,6.56,10.92,14.88,13.81,23.55,2.12,6.38,6,12.38,5.61,19.51C491.38,252.28,490,252.82,488.61,253.39Z" />
    <path class="rabota1-15"
      d="M398.23,201.52c-5.43,1.39-10.27-1-15.25-2.4a20,20,0,0,0-8.19-4.26c-.94-3-6-2.85-5.31-7,5.42-1.19,8.62,3.45,12.56,5.49,3.39,1.76,6.37,3.07,10,2.88S398.35,197.25,398.23,201.52Z" />
    <path class="rabota1-16"
      d="M465.49,351.48l1.2,3.44c.11,3.45.53,7.08-4.16,8.07-2.16-3.64-6.17-4.4-9.55-6.15-3.79-4-1.46-6.35,2.35-8.22l1.59,1.07c-.57,1.93-1.78,4.47.54,5.48C461,356.73,462.78,352.73,465.49,351.48Z" />
    <path class="rabota1-2"
      d="M378.84,147.32c11.77,2.88,20.35,10.12,26.81,20.45a70,70,0,0,0-26.89-16.17C378.79,150.18,378.82,148.75,378.84,147.32Z" />
    <path class="rabota1-10"
      d="M387.32,493.79c2.79,3.11-1.12,7.76,2.45,10.69-.09,10.3-.1,20.59-.34,30.88-.05,2.16,1.4,5.22-2.33,6.1Q387.22,517.61,387.32,493.79Z" />
    <path class="rabota1-7"
      d="M374.79,194.86a20,20,0,0,1,8.19,4.26c-.13,4.6-.25,9.2-.41,13.8-.05,1.54.3,3.7-2,3.59s-1.88-2.23-1.88-3.79c0-4.72,1.11-9.83-4.47-12.58C374.4,198.38,374.6,196.62,374.79,194.86Z" />
    <path class="rabota1-5"
      d="M462.51,384.25l-4.21-1.14c2.14-4.43-.61-10.26,4-14C466.75,371.82,466.84,377.56,462.51,384.25Z" />
    <path class="rabota1-15"
      d="M490.52,271.18l-1.47-10.8c6.09,3.17,3.07-2.33,3.93-4.13,3.65,3.6,2.46,8.21,2.61,12.54-1.94,0-2.5,1.29-2.61,2.95Z" />
    <path class="rabota1-15"
      d="M431.55,157.15c-3.78,4,2.2,8.24-1.17,13.17-2.71-6.48-.92-12.75-1.63-18.68C431.21,152.7,431.47,154.89,431.55,157.15Z" />
    <path class="rabota1-5"
      d="M493,271.74c.11-1.66.67-2.91,2.61-2.95l.18,2.81c-1.25,3.59,2.24,8.23-2.47,11-.18-2.81-.35-5.63-.53-8.44Z" />
    <path class="rabota1-5"
      d="M493,256.25c-.86,1.8,2.16,7.3-3.93,4.13-.15-2.33-.29-4.66-.44-7,1.38-.57,2.77-1.11,4.16,0Z" />
    <path class="rabota1-15"
      d="M428.72,151.59c-3.24-.31-2.78-2.75-2.81-4.9C428.51,147.37,428.86,149.34,428.72,151.59Z" />
    <path class="rabota1-7"
      d="M444.12,394.6q.76,2.61,1.52,5.22c-3,.58-4.55,2.72-5.75,5.25-10.25,5.31-20.92,9.25-32.68,8.81-6.68-.25-13.23,2.35-20,.29-3.28-1-4.3,1.66-4.46,4.6-.45,8.55-1.55,17.12-1.32,25.66.19,6.89-3.63,12.9-3,19.78.27,3.15-3.27,2.61-5.14,3.66a10.69,10.69,0,0,1-3.2-5.22c1.57-4.7,6.34-7.88,5.82-13.72-.47-5.22.74-10.51,1-15.73.24-5,3.09-11.06-2.55-15.3,1.91-3.31,1.75-7,1.91-10.62l2.31-2.22c.19,1.27.14,2.68,1.87,3,10.38,0,20.92,1.12,31.11-.28C423.2,406.16,435,403.29,444.12,394.6Z" />
    <path class="rabota1-1"
      d="M265.88,477.93a6.56,6.56,0,0,1-1.62-5.68l2.73.06a10.84,10.84,0,0,0,5.48,3.19c.81,1.19,2.07,1.29,3.34,1.41,4.16.95,7.39,3.79,11.15,5.56,4.44,2.08,8.9-.46,9.22-5.36a46.65,46.65,0,0,0-.37-6.22l4.66,1.69c.13,1.27.5,2.35,1.95,2.63l-4.74,4.93,7-2.11-4.83,5.58-.44-.06c-.91.09-1.67.39-1.79,1.46l0-.06c-2-.33-4.25-.09-4.62,2s1.91,2.16,3.52,2.39l.47-.06a3.56,3.56,0,0,0,3.45,1.45l-.08-.07c.16,1,.88,1.38,1.8,1.48,1,1.2,1.82,3.68,3.34.4.77,2.84,3.91,2.94,5.53,4.79s3.95,3,5.14,1.09c1.33-2.06,1.84-5.42-.95-7.36-1.42-1-3.39-1.19-5.12-1.74q-.53-4.74-1.07-9.46a3.18,3.18,0,0,0,1-.09,2.92,2.92,0,0,0,2.92.91l1.6.12c4.69.49,7.68,4.31,11.76,6a5.92,5.92,0,0,0,4.6,4.14c-1.84,3.16-5,4.86-8.08,6.13-5,2.08-5.76,4.86-3,9.14-9.25-3.92-17.51-9.69-26.44-14.19S277,480.66,267.05,478.2l-.55-.27Z" />
    <path class="rabota1-6"
      d="M455.33,348.62c-3.81,1.87-6.14,4.17-2.35,8.22-5.39,6-5.39,13.37-5.54,20.74-.92.09-2.06-.15-2.73.3-14.51,9.82-31.29,10.75-47.89,12.27a20,20,0,0,1-13.07-2.92c1.49-3.12-.77-11.45,7.57-5,2.17,1.69,6.18,0,7.5-3,1.45-3.34,2.7-6.95,1.93-10.79,1-2.09,3-1.56,4.73-2.11,5.86-1.91,13-1.09,17.62-5.07,9-7.83,18.73-15.7,17-30.07-.74-6.16,0-12.48-.15-18.72-.05-2.66,1-5.62-1.51-7.84,2.12-3.15,2.91-7.43.56-9.64-2-1.9-5.31,1.41-7.82,2.88-9,5.26-17.76,10.9-26.95,15.78-6.31,3.36-10.47,7.32-8.92,15l.1,37.58c-2,1.07-3.65,3.62-6.12,2.76-6.57-2.28-12.2,1-18.09,2.62-2.87.79-6.28,1.58-7.17,4.82-1.11,4,3.68,4,5.24,6.34-2.77.59-5.35.63-8-1-5.22-3.2-10.61-6.11-15.93-9.13,2.4-10.27,7.18-20.35,2.47-31.18.76-4-1.38-8.62,2.55-11.94.71,2.2-.88,5.54,3,6.16.39,1.61-.83,3.75,2,5.08.81-2.5,1.51-4.46-2-5.13,0-3.37.15-6.75-.08-10.11-.17-2.4,1.45-5.7-2.63-6.61,0-14.93,4-29.64,2.67-44.65l2.78,0,.14.12c2.47,3.46,6.28,5.07,9.8,7.1,1.52,1.54,3.5,2.41,5,4.16,2.23,2.63,6.06,3.59,8.81,2,14.62-8.36,29-17.12,43.44-25.86,7.88-4.78,9.24-12.32,8.25-20.73,5.42-.27,9.15-4.52,14.07-6,0,1.89,0,3.79,0,5.68-6.25,3.67-1.82,8.56-2.68,12.84l1.75.29c.4-1.86.79-3.73,1.19-5.6,2.45.72,2.14,2.85,2.07,4.58-.6,14.85,2.49,29.42,3.18,44.16-1,7.27,1.63,14.56-.12,21.83-4.11,3.9-4,9.17.24,12.62C451.07,337.63,451.11,343.61,455.33,348.62Zm-97.74-14.7c1.79-4.6,2-7.28,0-11C355.77,326.7,356,329.38,357.59,333.92Z" />
    <path class="rabota1-14"
      d="M374.29,417.9c5.64,4.24,2.79,10.26,2.55,15.3-.25,5.22-1.46,10.51-1,15.73.52,5.84-4.25,9-5.82,13.72-3.15-2.82,0-7.15-2.44-10.14.35-3.74-2.91-4.29-5.12-5.64-9.64-5.86-19.33-11.63-29-17.44,2.17-2.17,2-4.44.25-6.76l4.35-8.88a4.19,4.19,0,0,0,4.37-3.62c1.61-7.16,2.36-14.32-.31-21.43l.27-5.57,2.5-.1c.06,8.3.32,16.6.12,24.89-.15,6.9,3.63,7.13,8.69,5.79,3.21,4.1,8.37,3.59,12.59,5.32C369,419.18,372,420.73,374.29,417.9Z" />
    <path class="rabota1-7"
      d="M366.3,419.07c-4.22-1.73-9.38-1.22-12.59-5.32,0-9.05,0-18.11-.1-27.17,0-2.18.82-5-2.18-5.9-2.57-.78-5.12-.5-6.53,2.39l-2.5.1c-1.31-4,1.66-7.3,1.63-11.08l1.36.62c5.32,3,10.71,5.93,15.93,9.13,2.62,1.6,5.2,1.56,8,1,4.54-.32,6,1.71,4.91,6.92-1.26,6-4.7,11.59-4.16,18.06C365.78,410.55,368.29,415.56,366.3,419.07Z" />
    <path class="rabota1-17"
      d="M345.39,372.71l-1.36-.62c-.34-10.39,1.33-20.53,3.83-30.57C352.57,352.36,347.79,362.44,345.39,372.71Z" />
    <path class="rabota1-7"
      d="M342.13,388.74c2.67,7.11,1.92,14.27.31,21.43a4.19,4.19,0,0,1-4.37,3.62C337.73,405.16,338.67,396.75,342.13,388.74Z" />
    <path class="rabota1-4"
      d="M350.79,319c4.08.91,2.46,4.21,2.63,6.61.23,3.36.07,6.74.08,10.11l-.05.05c-3.92-.62-2.33-4-3-6.16C350.53,326.05,350.66,322.52,350.79,319Z" />
    <path class="rabota1-4"
      d="M356.24,274.31l-2.78,0c0-3.72,0-7.44,0-11.16C359.06,265.72,355.09,270.65,356.24,274.31Z" />
    <path class="rabota1-4"
      d="M353.48,257.58c1,.2,2.4.19,2.08,1.7-.11.49-1.35.73-2.07,1.09C353.49,259.44,353.49,258.51,353.48,257.58Z" />
    <path class="rabota1-12"
      d="M358.94,467.09c-1.78,10.09-5.5,19.6-9,29.13-1.79,4.86-3.66,9.68-5,14.68-2.19,8.07-2.62,8.28-10.34,5a6.46,6.46,0,0,0,2.32-4.69c1.65-1.35,1-3.2,1.06-4.89q5.55-14.75,11.1-29.48c1.11-3-.42-4.56-2.87-6.1-5-3.17-10.74-5.22-15.09-9.45,1.92.36,3.69-2.25,6,.91,2.55,3.52,1.79-.94,2.51-1.85l1.19.68c.88,5.24,5.79,5.74,9.38,7.35,2,.88,2.18-2.31,3.1-3.73Z" />
    <path class="rabota1-12"
      d="M333.47,429.43c9.67,5.81,19.36,11.58,29,17.44,2.21,1.35,5.47,1.9,5.12,5.64-3,.73-4.93,4.09-8.48,3.62-11.16-6.22-21.77-13.43-33.47-18.68C328.13,434.66,324.83,426.22,333.47,429.43Z" />
    <path class="rabota1-11"
      d="M325.64,437.45c11.7,5.25,22.31,12.46,33.47,18.68-.05,3.65-.11,7.31-.17,11l-5.69-2.41-5.74-3.33a49.16,49.16,0,0,0-14.91-8.44l-7-4.24c-.41-1.36-1.73-1.15-2.7-1.54C321.63,443.28,324.4,440.58,325.64,437.45Z" />
    <path class="rabota1-4"
      d="M319.9,506.18c-2.79-4.28-2-7.06,3-9.14,3.05-1.27,6.24-3,8.08-6.13l2.95.29c.05,4.59.4,9.21,0,13.76-.24,2.83,0,6.68-4.61,6.81C325.91,510.36,322.4,509.11,319.9,506.18Z" />
    <path class="rabota1-14"
      d="M329.32,511.77c4.65-.13,4.37-4,4.61-6.81.37-4.55,0-9.17,0-13.77,2.53,1.94,1.21,4.72,1.38,7.1.31,4.35-.63,8.83,1.62,12.94a6.46,6.46,0,0,1-2.32,4.7Z" />
    <path class="rabota1-2"
      d="M411.24,177.16c-3-1.42-3.48-4.1-4-6.74C410.27,171.81,410.75,174.49,411.24,177.16Z" />
    <path class="rabota1-9"
      d="M445.73,235.16c-4.92,1.44-8.65,5.69-14.07,6-2.51-.59-2.4-2.79-2.87-4.64l3.12-4.21c1.48-1.46,2.88-3.09,5.31-2.62.12,2.67-4.47,3.83-2.09,7.45,2.33-1.07,5.16-1.73,5.43-5,.17-2.11-1.75-2.31-3.4-2.43,1.35-3.84,3.93-5.88,8.12-5.58Z" />
    <path class="rabota1-9"
      d="M366.18,281.53c-3.52-2-7.33-3.64-9.8-7.1l10.84-4.4C367.06,273.88,368.73,277.89,366.18,281.53Z" />
    <path class="rabota1-11"
      d="M331.1,461.32c4.35,4.23,10.07,6.28,15.09,9.45,2.45,1.54,4,3.13,2.87,6.1-3.68,9.84-7.4,19.65-11.09,29.47-2.24-2.63-1.27-5.79-1.31-8.72-.11-8.12-1.41-9.59-10.31-10.85-4.08-1.7-7.07-5.52-11.76-6a2.75,2.75,0,0,0-3-2.7c-6.56-7.2-16-10-23.75-15.24,3-8,.42-16.4,1.59-24.53,2.68,1.3,5.45,2.43,8,3.93,9.65,5.65,18.95,11.9,29.21,16.44.83,1.12,1.61,2.32,3.23,2.35A2.56,2.56,0,0,0,331.1,461.32Z" />
    <path class="rabota1-13"
      d="M287.86,462.82c7.78,5.28,17.19,8,23.75,15.24l-4.26-.06c-1-1.58-1.87-1.74-2.74.07l.05,0-7,2.11,4.74-4.93c.81-2-.88-2.06-1.95-2.63l-4.66-1.68c-3-1.34-6.39-1.89-9-4.19-2.81-2.44-6.09-2.61-9.46-1.09l-8.87,4.06a2.53,2.53,0,0,0-1.45,2.63l-2.73-.06C269.16,463.48,280.18,459.07,287.86,462.82Z" />
    <path class="rabota1-7"
      d="M451.16,318.94c1.75-7.27-.93-14.56.12-21.83,1.17-.19,2.32-.45,2.64-1.82a126.57,126.57,0,0,0-.67-59.08c-1.56-6.39-2.23-13.68-7.42-18.88.44-3-2.59-4.53-3.1-7.14.32-1.27.39-3.18,2.43-1.85,3.91,2.55,8.34,4.39,10.24,9.4,3.21,8.47,11.64,14.29,12.42,24.06-.9,7.77,2.06,15.06,2.9,22.63,1.3,11.75.84,23.5,1.33,35.24.95,6.42-1.67,12.47-2.09,18.77-.16,2.36-1.39,5.49-4.68,6.3-.27-.3-.53-.6-.78-.91.1-1.17.21-2.35.31-3.53C465.12,315,468,310,465.9,303c-1.36,4.4-1.34,7.91-3.6,10.49-2-4.1,1.93-9-1.87-13.6-.75,3.07-2.16,5.41-2.64,7.67-.8,3.78-5.11,6.9-2.42,11.36l-.14.16h-3.37A1,1,0,0,1,451.16,318.94Zm8.77-46.09c3-4.21,2.38-8.55,1.79-12.88l-1.79,0Z" />
    <path class="rabota1-6"
      d="M442.73,210.19c.51,2.61,3.54,4.12,3.1,7.14-.18,2.26-.36,4.53-.55,6.79-4.19-.3-6.77,1.74-8.12,5.58l.06,0c-2.43-.47-3.83,1.16-5.31,2.62q.07-15.2.13-30.37Z" />
    <path class="rabota1-7"
      d="M455.33,348.62c-4.22-5-4.26-11-3.93-17.06.11-1.49.22-3,.32-4.47,5.22-.89,2.63-5.2,3.51-8l.14-.16h4.17c1.22,2.63.1,5-1.06,7.2-1.62,3-3.6,5.74-4.93,9-1.81,4.41.95,3.43,3.25,3.3s5,1,5.5-2.66h0l2.6,0c-.38,1.41-1.82,2.54-1.11,4.23l-4.52,2.69c.12,1.64,1.29,1.28,2.08,1.34,2,.15,3.85.38,3.61,3.06s-2.14,2.85-4.06,2.49c-1.4-.26-2.68-.61-4,.14Z" />
    <path class="rabota1-7"
      d="M435.85,196.15c3.14-2.61,6.52.07,9.75-.46,2.88.8,6,.89,8.35,3.15-1.38,4.22,3.63,6.65,3,11.85Z" />
    <path class="rabota1-14"
      d="M493,271.74l-.21,2.47c-2.83,4.88-.44,10.18-1.19,15.23-.43,2.91.13,5.95-1.16,8.75l.09-27Z" />
    <path class="rabota1-7"
      d="M465.28,324.74c.46,4.05-1,7.58-3,11h0l-3.18-.11c.17-4.53,4.2-7.86,3.9-12.54l.1-.34,1.38,1.09C464.75,324.14,465,324.44,465.28,324.74Z" />
    <path class="rabota1-5"
      d="M454,198.84c-2.33-2.26-5.47-2.35-8.35-3.15.23-2,1.72-2.3,3.29-2.52,3.25-.8,5.22,1.61,6.91,3.44C458,199,455.43,198.76,454,198.84Z" />
    <path class="rabota1-13"
      d="M427.29,224.63c-1.12,3.08-3,5.6-6.78,5.46-1.35-.05-3-.84-2.66-2.51.89-4.12,5.2-3.9,8-5.54C427,221.36,427.22,223.32,427.29,224.63Z" />
    <path class="rabota1-7"
      d="M383.75,387.23a20,20,0,0,0,13.07,2.92c16.6-1.52,33.38-2.45,47.89-12.27.67-.45,1.81-.21,2.73-.3L444,389.23c-8.47,9.34-19.32,13.25-31.64,13.77-3,.41-6.86-2.37-8.66,2.38l-8.27,0c-.5-2.87-2.71-2.64-4.78-2.64H378.89A63.76,63.76,0,0,1,383.75,387.23Z" />
    <path class="rabota1-6"
      d="M395.38,405.4l8.27,0c3.25.51,6.21,0,8.66-2.38,12.32-.52,23.17-4.43,31.64-13.77.06,1.79.12,3.58.17,5.37-9.12,8.69-20.92,11.56-32.63,13.16-10.19,1.4-20.73.28-31.11.28.11-2.78,2.21-2.45,4-2.49C388,405.46,391.71,405.44,395.38,405.4Z" />
    <path class="rabota1-17"
      d="M325.56,448.67c-.66,1.89-1.33,3.78-2.05,5.81-2.67-1.92-2.09-4.62-1.92-7.21a5,5,0,0,0,1.27-.14C323.83,447.52,325.15,447.31,325.56,448.67Z" />
    <path class="rabota1-17"
      d="M383.75,387.23a63.76,63.76,0,0,0-4.86,15.54c-.13.77-.25,1.53-.38,2.29l-2.31,2.22-6.16.51c-.54-6.47,2.9-12,4.16-18.06,1.09-5.21-.37-7.24-4.91-6.92-1.56-2.31-6.35-2.3-5.24-6.34.89-3.24,4.3-4,7.17-4.82,5.89-1.63,11.52-4.9,18.09-2.62,2.47.86,4.13-1.69,6.12-2.76,2.15-.2,3.78.87,5.32,2.18.77,3.84-.48,7.45-1.93,10.79-1.32,3-5.33,4.72-7.5,3C383,375.78,385.24,384.11,383.75,387.23Z" />
    <path class="rabota1-8"
      d="M370,407.79l6.16-.51c-.16,3.62,0,7.31-1.91,10.62-2.31,2.83-5.25,1.28-8,1.17C368.29,415.56,365.78,410.55,370,407.79Z" />
    <path class="rabota1-9"
      d="M378.51,405.06c.13-.76.25-1.52.38-2.29H390.6c2.07,0,4.28-.23,4.78,2.64-3.67,0-7.34.06-11,.15-1.79,0-3.89-.29-4,2.49C378.65,407.74,378.7,406.33,378.51,405.06Z" />
    <path class="rabota1-17"
      d="M277.31,465.62c3.37-1.52,6.65-1.35,9.46,1.09,2.65,2.3,6,2.85,9,4.19a46.4,46.4,0,0,1,.37,6.21c-.32,4.9-4.78,7.44-9.22,5.36-3.76-1.77-7-4.61-11.16-5.57Q276.55,471.26,277.31,465.62Z" />
    <path class="rabota1-4"
      d="M305.52,492.5c-1.52,3.28-2.35.8-3.34-.4-.61-.49-1.2-1-1.8-1.48l.08.07c-.78-1.36-2.09-1.45-3.45-1.45l-.47.06c-.52-1.67.59-2.94,1.1-4.35l0,.06,1.79-1.46.45.06c3.73.34,5.64-3.74,9.21-3.79q.54,4.73,1.07,9.46C307.65,489,306.85,491.13,305.52,492.5Z" />
    <path class="rabota1-17"
      d="M305.52,492.5c1.33-1.37,2.13-3.49,4.6-3.22,1.73.55,3.7.75,5.12,1.74,2.79,1.94,2.28,5.3.95,7.36-1.19,1.87-3.64.63-5.14-1.09S306.29,495.34,305.52,492.5Z" />
    <path class="rabota1-13"
      d="M326.35,486.77c8.9,1.26,10.2,2.73,10.31,10.85,0,2.93-.93,6.09,1.31,8.72-.09,1.7.58,3.55-1.07,4.9-2.25-4.12-1.31-8.6-1.62-12.95-.17-2.38,1.15-5.16-1.38-7.1l-2.95-.28A5.92,5.92,0,0,1,326.35,486.77Z" />
    <path class="rabota1-4"
      d="M277.31,465.62q-.75,5.64-1.51,11.28c-1.26-.11-2.52-.21-3.33-1.4,1.62-4-4.27-2.79-4-5.82Z" />
    <path class="rabota1-18"
      d="M309.05,479.82c-3.57.05-5.48,4.13-9.21,3.79l4.82-5.58-.05,0,2.74-.07,4.26.06a2.75,2.75,0,0,1,3,2.7l-1.6-.12a2.39,2.39,0,0,0-2.92-.91A3.18,3.18,0,0,1,309.05,479.82Z" />
    <path class="rabota1-18"
      d="M268.44,469.68c-.24,3,5.65,1.83,4,5.82a10.84,10.84,0,0,1-5.48-3.19A2.53,2.53,0,0,1,268.44,469.68Z" />
    <path class="rabota1-18"
      d="M297.64,485c-.51,1.41-1.62,2.68-1.1,4.35-1.61-.23-3.87-.45-3.52-2.39S295.65,484.62,297.64,485Z" />
    <path class="rabota1-4"
      d="M300.47,472.58c1.07.57,2.76.67,1.95,2.63C301,474.93,300.6,473.85,300.47,472.58Z" />
    <path class="rabota1-4" d="M310.07,479.73a2.39,2.39,0,0,1,2.92.91A2.92,2.92,0,0,1,310.07,479.73Z" />
    <path class="rabota1-18" d="M297,489.24c1.36,0,2.67.09,3.45,1.45A3.56,3.56,0,0,1,297,489.24Z" />
    <path class="rabota1-18" d="M299.39,483.55,297.6,485C297.72,483.94,298.48,483.64,299.39,483.55Z" />
    <path class="rabota1-18"
      d="M300.38,490.62c.6.49,1.19,1,1.8,1.48C301.26,492,300.54,491.65,300.38,490.62Z" />
    <path class="rabota1-1"
      d="M400.75,368.45c-1.54-1.31-3.17-2.38-5.32-2.18q0-18.79-.1-37.58l43.13-24.05c2.52,2.22,1.46,5.18,1.51,7.84.12,6.24-.59,12.56.15,18.72,1.71,14.37-8,22.24-17,30.07-4.58,4-11.76,3.16-17.62,5.07C403.78,366.89,401.73,366.36,400.75,368.45Z" />
    <path class="rabota1-16"
      d="M445.28,224.12c.19-2.26.37-4.53.55-6.79,5.19,5.2,5.86,12.49,7.42,18.88a126.57,126.57,0,0,1,.67,59.08c-.32,1.37-1.47,1.63-2.64,1.82-.69-14.74-3.78-29.31-3.18-44.16.07-1.73.38-3.86-2.08-4.57q-.12-3.78-.25-7.54c0-1.89,0-3.79,0-5.68Z" />
    <path class="rabota1-18"
      d="M438.46,304.64l-43.13,24.05c-1.55-7.71,2.61-11.67,8.92-15,9.19-4.88,18-10.52,26.95-15.78,2.51-1.47,5.81-4.78,7.82-2.88C441.37,297.21,440.58,301.49,438.46,304.64Z" />
    <path class="rabota1-4"
      d="M445.77,240.84q.14,3.76.25,7.54c-.39,1.86-.78,3.73-1.18,5.59l-1.75-.29C444,249.4,439.52,244.51,445.77,240.84Z" />
    <path class="rabota1-4"
      d="M451.72,327.09c-.1,1.49-.21,3-.32,4.47-4.25-3.45-4.35-8.72-.24-12.62a1,1,0,0,0,.7.16C451.81,321.76,451.77,324.43,451.72,327.09Z" />
    <path class="rabota1-4"
      d="M357.59,333.92c-1.6-4.54-1.82-7.22,0-11C359.54,326.64,359.38,329.32,357.59,333.92Z" />
    <path class="rabota1-4" d="M353.5,335.7c3.48.67,2.78,2.63,2,5.13-2.85-1.33-1.63-3.47-2-5.08Z" />
    <path class="rabota1-18"
      d="M344.9,383.07c1.41-2.89,4-3.17,6.53-2.39,3,.91,2.16,3.72,2.18,5.9.09,9.06.08,18.12.1,27.17-5.06,1.34-8.84,1.11-8.69-5.79C345.22,399.67,345,391.37,344.9,383.07Z" />
    <path class="rabota1-6"
      d="M347.51,461.35l5.74,3.33c-.92,1.42-1.14,4.61-3.1,3.73-3.59-1.61-8.5-2.11-9.38-7.35Z" />
    <path class="rabota1-7"
      d="M347.51,461.35l-6.74-.29-1.19-.68c-2.46-2.36-7-2.78-7-7.47A49.16,49.16,0,0,1,347.51,461.35Z" />
    <path class="rabota1-6"
      d="M437.16,229.7c1.65.12,3.57.32,3.4,2.43-.27,3.24-3.1,3.9-5.43,5-2.38-3.62,2.21-4.78,2.09-7.45Z" />
    <path class="rabota1-12"
      d="M326.66,458.66c1.47.24,4.55-1.73,3.23,2.35C328.27,461,327.49,459.78,326.66,458.66Z" />
    <path class="rabota1-1" d="M307.35,478l-2.74.07C305.48,476.26,306.39,476.42,307.35,478Z" />
    <path class="rabota1-16"
      d="M459.54,318.93h-4.17c-2.69-4.46,1.62-7.58,2.42-11.36.48-2.26,1.89-4.6,2.64-7.67,3.8,4.64-.12,9.5,1.87,13.6l.08-.07c-4.78-.11-2.35,3.51-2.9,5.59Z" />
    <path class="rabota1-14" d="M459.93,272.85V260l1.79,0C462.31,264.3,462.89,268.64,459.93,272.85Z" />
    <path class="rabota1-16"
      d="M451.72,327.09c0-2.66.09-5.33.14-8h3.37C454.35,321.89,456.94,326.2,451.72,327.09Z" />
    <path class="rabota1-16" d="M463.12,322.74a2.55,2.55,0,0,1,1.69-2.44c-.1,1.18-.21,2.36-.31,3.53Z" />
    <path class="rabota1-16"
      d="M462.09,318.86l.93,4.22c.3,4.68-3.73,8-3.9,12.54-1.93-.05-2.47,1.07-2.32,2.77-2.3.13-5.06,1.11-3.25-3.3,1.33-3.22,3.31-6,4.93-9,1.16-2.17,2.28-4.57,1.06-7.2l-.06.09Z" />
    <path class="rabota1-9"
      d="M456.8,338.39c-.15-1.7.39-2.82,2.32-2.77l3.18.11C461.82,339.41,459,338.17,456.8,338.39Z" />
    <path class="rabota1-9"
      d="M412.31,403c-2.45,2.37-5.41,2.89-8.66,2.38C405.45,400.63,409.32,403.41,412.31,403Z" />
    <path class="rabota1-7"
      d="M462.09,318.86l-2.61.16c.55-2.08-1.88-5.7,2.9-5.59C462.28,315.24,462.19,317.05,462.09,318.86Z" />
  </g>
</svg>