<svg id="Layer_1" data-name="Layer 1" xmlns="http://www.w3.org/2000/svg" viewBox="0 0 596.35 596.35">
  <defs>
    <style>
      .rabota11-1 {
      fill: #a2a2a2;
      }

      .rabota11-2 {
      fill: #2468ba;
      }

      .rabota11-3 {
      fill: #cc2221;
      }

      .rabota11-4 {
      fill: #027ffc;
      }

      .rabota11-5 {
      fill: #5fa5f5;
      }

      .rabota11-6 {
      fill: #686868;
      }

      .rabota11-7 {
      fill: #286ab9;
      }

      .rabota11-8 {
      fill: #a0a0a0;
      }

      .rabota11-9 {
      fill: #4a3837;
      }

      .rabota11-10 {
      fill: #067ff8;
      }

      .rabota11-11 {
      fill: #fcde09;
      }

      .rabota11-12 {
      fill: #cbcbcb;
      }

      .rabota11-13 {
      fill: #deae88;
      }

      .rabota11-14 {
      fill: #71a8e9;
      }

      .rabota11-15 {
      fill: #5aa5fb;
      }

      .rabota11-16 {
      fill: #772223;
      }
    </style>
  </defs>
  <g>
    <path class="rabota11-1"
      d="M463.68,203c7.33,2.12,9.21,7.25,9.16,14.46-.24,33-.1,65.92-.1,98.89V489.19c0,7.36-2.2,10.5-9.21,12.85A29.22,29.22,0,0,1,444,502c-7-2.51-9.18-5.5-9.18-13q0-68.43,0-136.86c0-44.78.16-89.57-.11-134.35,0-7.7,2.92-12.27,9.81-14.82a17.29,17.29,0,0,1,.17,2.47c-.26,3.65,0,7.07,4.06,8.64s8,1.58,11.89-.69C464.88,210.87,463,206.59,463.68,203Z" />
    <path class="rabota11-2"
      d="M192.7,570c-1.55,1.78-3,.62-4.43-.18-12.94-7.47-25.81-15.07-38.83-22.41-2.85-1.61-2.94-3.11-2-5.94,7.08-20.54,13.84-41.19,21-61.68,1.36-3.87.57-5.49-2.87-7.24-5.62-2.85-10.84-6.47-16.45-9.34-4.5-2.3-6.47-5.46-5.37-10.43a8.31,8.31,0,0,1,1.88.63c21.93,13.3,44.78,25,66.5,38.7,12.08,7.61,25,14,37.48,20.87.82,1.76,2.34,2.05,4.05,1.94l3.9.1c2.75,2.71,8.36,1.8,12.21-2l1.88-.09a1.79,1.79,0,0,0,2-2v0c1.57-.2,3.64.55,4-2l14-7.94c2.87-1.74,7.07-1.64,8.12-5.88l1.7-.24c4.07,1.29,5.7-2.66,8.42-4.13,9.32-5,18.41-10.46,27.57-15.76,7.17-4.14,14.34-8.27,21.45-12.5,6.05-3.61,13-5.91,17.73-11.49a6.08,6.08,0,0,0,.95-.07c4.33-.28,7.38-2.75,10.05-5.87l1.94-.23,30-17.94c1.35,5.62-1.23,8.91-6,11.66q-70.56,40.8-140.94,81.86c-8.3,4.84-16.28,5-24.42-.08-1.4-.87-2.95-1.5-4.43-2.24-7.82-6.16-17.42-9.3-25.6-14.89-1.31-.9-3.73-1.08-4.56,2-1.87,6.85-4,13.7-6.45,20.28-4.24,11.42-8.4,22.88-12.37,34.39C193.76,563.12,191.44,566.25,192.7,570Z" />
    <path class="rabota11-3"
      d="M291.51,211l6.07,3c.93,2.22-1.37,2.64-2.24,3.75-9.5,12.08-6.57,30.26,7.5,34.53-1,5.22-2.25,10.4-2.83,15.66-.84,7.73-.34,15.52,0,23.28-.07,3.32-.07,6.64-.23,9.95-.07,1.25.24,2.68-1,3.66-5.52,4.28-11.79,7.4-18.62,8.05-13.16,1.26-26.28.89-38.33-5.82a5.89,5.89,0,0,0-3.84-4c-.69-3.88.36-7.59,1.19-11.31,1.08-4.83,2.84-9.56,2.09-14.65.26-2.09.71-4.19-.51-6.16.31-13.25-1.92-26.15-5.49-38.84a53.58,53.58,0,0,1-1.92-9.72c.11-4.77-.31-9.65.45-14.33,1.22-7.51,3.26-14.86,10.64-19.07,2.42,3.12.74,6.72,1.19,10.07-5.53,2.88-5,8.53-5.57,13.33-.77,6.27,1.74,11.18,7.8,14.14,6.53,3.19,12.8,6.93,19.31,10.16,8.14,4,11.71,2.2,15-6.37C284.73,223.61,285,215.76,291.51,211Z" />
    <path class="rabota11-4"
      d="M257.61,515.07l-3.9-.11c-.37-2.68-2.47-1.78-4.05-1.94-12.52-6.91-25.4-13.26-37.48-20.87-21.72-13.69-44.57-25.4-66.5-38.7a8.31,8.31,0,0,0-1.88-.63c-.65-4.43-.32-8.36,4.93-9.82,1.5,1.07,1.14,2.69,1,4.09-.41,4.63,2.78,3.8,5.54,4,3,.17,4.62-.48,4.5-4-.13-3.85-.85-7.87,1.38-11.47,7.3-4.33,14.43-9,22.11-12.6l2.46.07v0c0,1.66,2.24,2.21,1.87,4-3.21,1.25-2,3-.31,4.42,2.13,1.88,4.42,3.13,6.44-.25,4-3.36,7.43-2.75,10.54,1.31a6.92,6.92,0,0,0,2.67,2.17C222.22,441,235.3,451.19,249.71,459c.23,1.79-.53,3.76,1,5.91,1.44-2.1.79-4,1-5.81h2c.73,2.26-1.72,5.37,1.85,6.87v4c-2.68.64-1.79,2.84-1.8,4.48-.08,8.11,0,16.22-.05,24.33,0,3,.75,6.32-.35,8.84-1.84,4.22.92,4.68,3.4,5.39C258.3,513.49,259,513.64,257.61,515.07Zm-9.76-8c-.67,0-1.42,0-1.59.75-.23.94.63,1,1.24,1.08s1.41,0,1.59-.74C249.32,507.21,248.44,507.23,247.85,507.07Z" />
    <path class="rabota11-5"
      d="M358.59,267.09c19.39,11.19,38.84,22.26,58.12,33.61,7.55,4.44,7.56,10.63.22,15.38a6.19,6.19,0,0,0-3.25,6c.12,11.3,0,22.61,0,33.91l-9.25-5.18c.06-4.65.24-9.3.13-13.94-.1-4.11,1.82-10.37-.75-11.79-3.36-1.85-7.45,2.93-11,5.12-3.84,2.35-8.55,3.55-11.18,7.68-2.2.26-4.57.26-5,3.26l.06,49.63c-2.61,2.41-5.78,3.89-9,5.34l-.12-6.23V344.81c-9.47,5.51-18,10.47-26.57,15.51a2.7,2.7,0,0,0-1.26,1.95c.24,4.23-1.24,8.61.95,12.69-1.73,1.41-1.05,3.38-1.07,5.11-.07,11-.05,21.93-.07,32.89-3.41,1.36-6,4.32-9.79,5q0-22.43-.08-44.87c0-5-1.13-5.6-5.49-3.11-3.6,2.05-7.33,3.92-10.74,6.24-2.23,1.52-5.46,2-6.33,5.21-3.76-.51-5.28,1.23-5.23,4.92.09,6.31-.09,12.62,0,18.93.19,9.78-.62,19.58.47,29.35l-8.75,4.51c0-2,.07-4.08.1-6.11,1.48-.14,1.85-1.06,1.85-2.4,0-11.88,0-23.76,0-35.64,0-1.55.58-3.5-1.87-3.93-.17-.75-.11-1.64-1.06-2l-1.08.16c-4.32,1.61-8,4.33-11.71,6.92l-12.4,6.66-2.91.24c-1.51,1.32-.92,3.09-.93,4.68q-.08,14.22,0,28.43c0,1.58-.62,3.36.87,4.7l.12.18q0,7.05,0,14.1c-3,1.81-6,.62-9.06-.07l-.11-13.8c0-10.25-.23-20.51.19-30.75.21-5-.63-8.37-6-9.83-4.18-1.12-6.91-5.6-11.74-5.54-.83-1.89-2.37-2.3-4.23-2-1.74-3.94-5.5-4.9-9-6.19a.32.32,0,0,1-.16-.49c-.37-3-2.2-3.8-4.89-3.42v0c-.13-2.26-1.69-2.07-3.25-1.91a1,1,0,0,1-.73-.24c-.15-2-1.61-1.91-3-1.89l-1-.3c-.15-1.35-1-1.73-2.22-1.61a6.71,6.71,0,0,1-3.79-2.06c.63-3.29,3.3-1.57,5.08-2.06l1.08.55c.18,1.29,1.09,1.42,2.12,1.36a1.3,1.3,0,0,1,.74.23l1.18.82,1.82,1c.14,2.24,1.69,2.1,3.26,1.92a1,1,0,0,1,.72.24c-.41,3,1.56,2.09,3.11,1.85a6.55,6.55,0,0,0,.89,0c2.56,1.54,4.84,3.65,8,4,1.33.94,2.16,4.71,4.34.76.25.95.2,2.44.79,2.77,8.43,4.69,16,12,27,9.29,5.18-1.9,9.39-5.52,14.27-8l25.67-15c4.91-2.77,9.79-5.59,14.74-8.28,1.2-.66,1.82-1.31,1.22-2.67,6.39-.2,8-1.74,8-7.67q.09-21.13.17-42.25c1.32,1.6.69,3.51.7,5.27.07,11.95,0,23.9.12,35.85,0,1.34-1.05,3.16,1,4.06,3.12-.59,5.58-2.42,8-4.34l27.9-15.87a48.11,48.11,0,0,0,9.12-6c1.44.1,2.51-.74,3.66-1.4,10.78-6.24,21.6-12.4,32.33-18.72,6.21-3.66,6.18-5.46,0-9.07-11.91-7-23.86-13.81-35.8-20.7l-1.18-.31-8-4.68L359.68,273c-.16-2-1.6-2-3.05-1.91v0C356.69,269.49,354.46,266.74,358.59,267.09Z" />
    <path class="rabota11-6"
      d="M463.68,203c-.65,3.56,1.2,7.84-3,10.35-3.85,2.27-7.85,2.25-11.89.69s-4.32-5-4.06-8.64a17.29,17.29,0,0,0-.17-2.47c-.16-17.92.66-35.87-.67-53.77-1.75-23.59-13.56-37.73-36.5-43.85-5.11-1.36-10.39-2-15.56-3.19-7-1.56-12.86,2-19.06,4.11a149.18,149.18,0,0,1-32.5,4,140.72,140.72,0,0,1-43.68-5.83c-2.64-1.92-5.89-3-7.93-5.74-1.17-1.58-2.46-3.15-1.58-5.35a41.33,41.33,0,0,0,18,8.81A144.1,144.1,0,0,0,361.22,104c8-1.3,16-2.71,22.94-7.55,4.91-3.44,5.49-5.74,2.64-10.79A25.52,25.52,0,0,1,385.66,83c19.45.79,37.89,4.95,53.68,17,14.61,11.2,21.24,26.78,23.25,44.64C464.78,164.11,463.1,183.59,463.68,203Z" />
    <path class="rabota11-7"
      d="M255.69,455.07c3,.69,6,1.88,9.06.07,6.23-.71,10.54-5.36,15.95-7.66,2.54-1.08,2.94-2.57,3.21-4.67,3.49,1.44,5.81-.58,8.08-2.75a1.83,1.83,0,0,0,.83-.18l.89-.76,8.75-4.51a12.51,12.51,0,0,1,2.41-1.54c4-2.1,8.71-3.39,10.87-8,5.84-.08,9.6-4.31,14.09-7.09,3.77-.66,6.38-3.62,9.79-5,5.86-3.68,11.64-7.45,17.79-10.69,3.52-1.85,7.62-2.9,10.35-6.14,3.19-1.45,6.36-2.93,9-5.34,9.72-4.55,18.71-10.38,27.89-15.88l9.42-5.26c4.56-3.65,4.55-4.17-.09-7.36-3.05-1.33-5.32-4.27-9-4.35-8.65-6.93-18.56-11.72-28.31-16.78.4-3,2.77-3,5-3.26l22.81,12.93L413.7,356c10.24,5.44,12.81,12.55-.11,20a45.43,45.43,0,0,0-9.14,5.21c-4.44,2.51-9,4.88-13.31,7.55s-9.27,4.3-12.74,8.24a4.2,4.2,0,0,0-.7.17,1.9,1.9,0,0,0-2,.62c-2.75,1.7-5.83,2.9-8.19,5.21-7.07,2.57-13,7.33-19.36,11.06-2.74,1.6-6.65,1.82-8.51,5-3.51,1.68-7.28,2.9-9.95,6-5.4,1.46-9.8,4.66-14.08,8.08-4.74,2.27-9.58,4.37-13.74,7.68-2.76,1.81-6.22,2.48-8.4,5.21a1.3,1.3,0,0,0-.85.45c-1.39-1.93-2.31-1.74-2.76.6-2.33,1.33-4.89,2.51-4.26,6-3.62-1.81-10.19,1-13.93,5.92l-2,.16c-2-.11-3.38,1.2-5,1.89l-9-.05a2.66,2.66,0,0,0-2-1.81h-2l-2-.1c-14.41-7.84-27.49-18-42.77-24.36a6.92,6.92,0,0,1-2.67-2.17c-3.11-4.06-6.56-4.67-10.54-1.31A5.67,5.67,0,0,1,187.6,427c.37-1.8-1.92-2.35-1.87-4,.77-.06,1.61-.06,1.54-1.19a.47.47,0,0,0-.32-.32c-1.15-.1-1.09.79-1.21,1.53l-2.45-.07c1.51-1.37,1.23-2.34-.51-3.33-6.77-3.84-13.52-7.71-20.2-11.68-2.54-1.51-3.1-.62-3.08,1.9.06,7.79,0,15.58,0,23.37,0,1.09-.27,2.51,1.63,2.34-2.23,3.6-1.51,7.62-1.38,11.47.12,3.53-1.53,4.18-4.5,4-2.76-.15-5.95.68-5.54-4,.12-1.4.48-3-1-4.09,1.24-1.35,1.18-3,1.18-4.67,0-11.43-.1-22.86,0-34.29a5.06,5.06,0,0,0-2.86-5.06c-8-4.82-8-10.78-.19-16,1.52-1,3.33-1.67,3.06-4,1.55-8.89.43-17.85.66-26.78.21-7.93.05-7.93,7.11-5,2.34,5.43.48,11.15,1.11,16.69.41,3.68-1.2,7.55,1,11.07,7.68-3.26,14.4-8.24,21.78-12,3-.8,4.79.78,6.16,3.15a1.26,1.26,0,0,0-1,0c-8.95,4-17,9.58-25.52,14.35-2.61,1.46-2.59,19.12-.23,21a7.4,7.4,0,0,0,.84.53l24.67,14a1.37,1.37,0,0,0,1.12-1.4c-.13-11.86.61-23.73-.37-35.58v-1.75c.9-3.69.25-7.43.4-11.15,3.74.33,6.51,2.42,9,5q0,19.69,0,39.39c0,1.8-.76,4.55,2.85,2.9,0,1.3-1,1.37-1.86,1.9-2.65,1.73-2.73,6.28-.2,7.73,14.8,8.47,29.51,17.12,44.51,25.22C246.47,450.57,249.92,455.21,255.69,455.07ZM149.53,394.38v-7C144.91,390.83,144.92,391.35,149.53,394.38Z" />
    <path class="rabota11-8"
      d="M385.66,83a25.52,25.52,0,0,0,1.14,2.69c2.85,5,2.27,7.35-2.64,10.79-6.89,4.84-15,6.25-22.94,7.55A144.1,144.1,0,0,1,305,102.11a41.33,41.33,0,0,1-18-8.81c-.56-7.79,4.5-12.75,9.55-17.16,28.17-24.55,62.71-19.52,86.62,4.45Z" />
    <path class="rabota11-9"
      d="M245.58,199c-.45-3.35,1.23-6.95-1.19-10.06.93-2.55.41-5.13.18-7.7,0-3.31.16-6.63,0-9.94-.54-12.17,3.06-17.61,17.38-22.12A20.67,20.67,0,0,1,276,150c9.64,6.14,11.23,10.46,8.61,23.36-2.09,3-3,6.42-4,9.91-1.89,6.74-3.43,13.63-6.95,19.81-5.08,4.22-11.16,6-17.49,7.13C248.65,208.4,246.34,206,245.58,199Z" />
    <path class="rabota11-10"
      d="M192.7,570c-1.26-3.79,1.06-6.92,2.17-10.13,4-11.51,8.13-23,12.37-34.39,2.43-6.58,4.58-13.43,6.45-20.28.83-3.05,3.25-2.87,4.56-2,8.18,5.59,17.78,8.73,25.6,14.89-2.58,8.37-5.21,16.73-7.7,25.13a5.82,5.82,0,0,1-3,3.68Q212.91,558.46,192.7,570Z" />
    <path class="rabota11-11"
      d="M302.84,252.22c-14.07-4.27-17-22.45-7.5-34.53.87-1.11,3.17-1.53,2.24-3.75,1.57-.71,3.23-1.23,4.57.2,5.12,5.49,12.16,9,16,15.87,1,1.77,3.52,4.78,5,.51,2.59-7.66,4.43-15.58,6.58-23.4,4.55-.66,8.79-.39,11.72,3.87,2.64,4.93.35,10-.41,14.68-1.16,7.2-1.82,14.67-5.19,21.46a21.2,21.2,0,0,1-2.69,4.64c-2.11,1.82-5,.95-7.29,2-5.83,1.19-11.58-1.13-17.39-.42C306.64,252.62,304.93,251.47,302.84,252.22Z" />
    <path class="rabota11-4"
      d="M375.71,397.78a1.9,1.9,0,0,1,2-.62l1.14.8c2.05-.46,3.44.92,5,1.8q9.93,5.64,19.81,11.35c1.67,4.67,1,9.53,1,14.31,0,3.3,1.66,4.56,4.54,4.55s4.66-1.08,4.62-4.46c0-2.55-1-5.34,1.05-7.65,4.4,1.55,5.67,4.77,4.83,9.1l-30,17.94c-.29-.48-.54-1.36-.87-1.39-1.1-.11-1,.88-1.07,1.62-2.67,3.12-5.72,5.59-10.05,5.87l-1-1q0-23.77,0-47.55C376.67,400.85,377.09,399.12,375.71,397.78Zm7.52,45.89a3.5,3.5,0,0,0-1.12-.57c-1-.12-.08.56-.27.81l1,.63c.1-.26.21-.51-2.45-1.62l.71.09v-39.3l-.71,0C380.42,416.81,380.42,429.87,383.23,443.67Zm-4,2.07c-.27-.12-.61-.4-.81-.32s-.26.51-.38.79c.27.12.61.4.81.32S379.16,446,379.28,445.74Z" />
    <path class="rabota11-11"
      d="M245.58,199c.76,6.94,3.07,9.39,10.59,11.2,6.28,7.43,17.41,2.22,23.37-5.24a30,30,0,0,1,12,6c-6.48,4.78-6.78,12.63-9.36,19.29-3.32,8.57-6.89,10.4-15,6.37-6.51-3.23-12.78-7-19.31-10.16-6.06-3-8.57-7.87-7.8-14.14C240.6,207.54,240.05,201.89,245.58,199Z" />
    <path class="rabota11-12"
      d="M296.56,104.39a140.72,140.72,0,0,0,43.68,5.83,149.18,149.18,0,0,0,32.5-4c-7.66,12.95-19.18,19.75-34,20.79-12.26.86-23.75-1.32-33.08-10.2a1.81,1.81,0,0,0-1.59-1.69C301,112,297.22,109.26,296.56,104.39Z" />
    <path class="rabota11-5"
      d="M157.71,347.2c-7.06-2.92-6.9-2.92-7.11,5-.23,8.93.89,17.89-.66,26.78-.08-10.43-.26-20.86-.18-31.29,0-3.09-.62-5.09-3.58-6.8-6.86-4-6.93-10.58-.25-15,5.8-3.8,11.87-7.18,17.83-10.75a16.74,16.74,0,0,0,7.14-4,1.11,1.11,0,0,0,.83-.32c2.18-1,4.53-1.76,6.13-3.73l1.06,0c1.13-.12,2.45.07,2.65-1.6l1.06-.52c.74-.22,1.8.68,2.2-.64,0,0-.53-.18-.81-.28l56.7-33.2c1.21,2,.76,4.08.5,6.17a17.46,17.46,0,0,0-8.65,4.9c-2.93.7-5.21,2.56-7.61,4.21l-.38,1c-4.79.5-8.29,3.73-12.13,6.06-5.69,3.47-12.2,5.72-16.86,10.81-3.05-.12-5.17,2.09-7.78,3.09-1.13,0-2.22,0-1,1.57l-2.24.32c-.51.51-2.19-.94-1.83,1.07-2.52,1.59-5,3.23-7.56,4.75-4.86,2.87-11.14,4.63-14.27,8.79-3.33,4.42-.74,11.21-1.14,16.94,0,.5-.1,1-.15,1.49h-.86c0-3.13.2-6.27,0-9.39-.13-2.37,1.31-5.81-.83-6.87s-4.63,1.73-6.94,2.87c-.53.26-.83,1-1.24,1.5-2,.15-3.55,1.21-3.65,3.14-.12,2.21,1.55,3.34,3.66,3.72l8,5.22C157.51,343.88,158.81,345.55,157.71,347.2Z" />
    <path class="rabota11-11"
      d="M284.63,173.36c2.62-12.9,1-17.22-8.61-23.36,5.44-4.89,8.36-11.45,11.43-17.82,1.07-2.2,2.25-3,4.37-3.12a15.52,15.52,0,0,1,9.27,4.84c2.33,7.68-1.54,14.18-4.39,20.66s-6.6,12.25-9.95,18.35Z" />
    <path class="rabota11-5"
      d="M414.81,417.86c-2,2.31-1.08,5.1-1.05,7.65,0,3.38-1.83,4.44-4.62,4.46s-4.53-1.25-4.54-4.55c0-4.78.7-9.64-1-14.31,1.2-.77,1-2,1-3.13q0-13.39-.14-26.78a45.43,45.43,0,0,1,9.14-5.21q.07,18.09.15,36.18C413.75,414.14,413.47,416.15,414.81,417.86Z" />
    <path class="rabota11-13"
      d="M341.41,211c-2.93-4.26-7.17-4.53-11.72-3.87-3.42-5.16,1.07-9,2.45-13.24.86-2.63,1.61-7.1,4.57-7,3.85.17,3.77,5,4.54,7.93A35.14,35.14,0,0,1,341.41,211Z" />
    <path class="rabota11-14"
      d="M325.83,253.75c2.33-1,5.18-.16,7.29-2l25.47,15.32c-4.13-.35-1.9,2.4-2,4l-16.83-8.95c-1.2-.8-2.36-1.68-3.62-2.36-5.26-2.84-5.48-2.69-5.39,3.3,0,2.82-.12,5.65-.12,8.48,0,10.81.05,21.62-.06,32.42,0,1.2,1.39,3.85-2,3.2,1.41-.89,1.05-2.33,1.06-3.6,0-14.76-.09-29.52.08-44.28C329.81,256.18,328.07,255,325.83,253.75Z" />
    <path class="rabota11-13"
      d="M284.63,173.36l2.12-.45c-1.93,4.85-1.32,9.93-.94,14.87.45,5.89-.28,10.84-6.33,13.51-2.27-.49-3.62,2-5.82,1.79,3.52-6.18,5.06-13.07,6.95-19.81C281.59,179.78,282.54,176.37,284.63,173.36Z" />
    <path class="rabota11-11"
      d="M244.57,181.25c.23,2.57.75,5.15-.18,7.7C237,193.15,235,200.5,233.75,208c-.76,4.68-.34,9.56-.45,14.33-.18-7.76-2.57-15.33-1.61-23.13C232.72,190.88,238.1,185.67,244.57,181.25Z" />
    <path class="rabota11-3"
      d="M273.66,203.08c2.2.24,3.55-2.28,5.82-1.79l.06,3.68c-6,7.46-17.09,12.67-23.37,5.24C262.5,209.05,268.58,207.3,273.66,203.08Z" />
    <path class="rabota11-13"
      d="M301.09,133.9a15.52,15.52,0,0,0-9.27-4.84c2-6.48,4.74-12.27,12.24-13.9a1.81,1.81,0,0,1,1.59,1.69c-3.21,3.3-5,6.88-3.54,11.75C302.56,130.13,301.47,132.12,301.09,133.9Z" />
    <path class="rabota11-14" d="M181.57,305.53c-.2,1.67-1.52,1.48-2.65,1.6Z" />
    <path class="rabota11-14" d="M184,304.09c.28.1.82.27.81.28-.4,1.32-1.46.42-2.2.64Z" />
    <path class="rabota11-10"
      d="M339.65,419.06c1.86-3.19,5.77-3.41,8.51-5,6.39-3.73,12.29-8.49,19.36-11.06,0,14.65,0,29.3.12,43.94,0,4.7,1.63,5.92,6.11,4.87,1-.22,1.9-.56,2.85-.85l.12.12C372,456.65,365,459,359,462.56c-7.11,4.23-14.28,8.36-21.45,12.5-9.16,5.3-18.25,10.75-27.57,15.76-2.72,1.47-4.35,5.42-8.42,4.13q.33-14,.65-28a21.64,21.64,0,0,0,14-3.42c4.46-2.92,8.37-6.7,13.35-8.82.06,4.16.21,8.31.14,12.47-.05,3.49.9,5.82,4.93,5.92,4.37.1,5.11-2.35,5.08-6.09C339.6,451,339.66,435,339.65,419.06Z" />
    <path class="rabota11-4"
      d="M269.71,459.1l2-.16.91,1.58c2.8-1.63,3.57-1.72,3.62,2.34.09,6.15,5.22,9.47,11.23,8.35,2.92-.54,4.39.14,4.3,3.46-.16,5.49-.06,11,0,16.49,0,2.48.23,4.34-3.45,2.49-1.93-1-4.34.86-6.39,2.72,7.86,1.34,7.86,1.34,9.87,4.7l-14,7.94c-1.58.18-3.72-.73-4,2v0a1.8,1.8,0,0,0-2,2l-1.88.09c-2.84-1.28-2-3.86-2.11-6.07,3-.63,1.94-3.09,2-4.83C269.74,487.81,269.71,473.46,269.71,459.1Zm4.38,15.18c.27.12.61.39.81.32s.26-.51.38-.79c-.27-.12-.61-.4-.81-.32S274.21,474,274.09,474.28Z" />
    <path class="rabota11-15"
      d="M302.21,466.92l-.66,28-1.7.24c-7.12-.34-7.12-.34-7.14-7.36q0-12.24-.06-24.47a4.75,4.75,0,0,1,.28-.8c1.59-5.47.52-11,.55-16.55,2.18-2.73,5.64-3.4,8.4-5.21q.22,10.9.47,21.82C302.3,464.05,302.25,465.48,302.21,466.92Z" />
    <path class="rabota11-10"
      d="M292.65,463.36q0,12.24.06,24.47c0,7,0,7,7.14,7.36-1.05,4.24-5.25,4.14-8.12,5.88-2-3.36-2-3.36-9.87-4.7,2.05-1.86,4.46-3.7,6.39-2.72,3.68,1.85,3.46,0,3.45-2.49,0-5.5-.12-11,0-16.49.09-3.32-1.38-4-4.3-3.46-6,1.12-11.14-2.2-11.23-8.35,0-4.06-.82-4-3.62-2.34l-.91-1.58c3.74-4.94,10.31-7.73,13.93-5.92l2.15,4.07C288.55,459.84,289,462.86,292.65,463.36Z" />
    <path class="rabota11-10"
      d="M267.44,506.91c.42,2.3-.46,4.88,2.38,6.16-3.85,3.79-9.46,4.7-12.21,2,1.41-1.42.69-1.57-.86-2-2.48-.71-5.24-1.17-3.4-5.39,1.1-2.52.35-5.87.35-8.84,0-8.11,0-16.22.05-24.33,0-1.64-.88-3.84,1.8-4.48,0,12.12.19,24.24.07,36.36,0,3.67,1,5.65,4.95,5.68,4.25,0,4.2-2.69,4.19-5.71-.07-15.11-.06-30.22-.08-45.34,1.65-.69,3.07-2,5-1.89,0,14.36,0,28.71,0,43.07,0,1.74,1.08,4.2-2.22,4.74-.26-11-.26-22.12-.26-33.22C264.93,478.78,265.36,504.05,267.44,506.91Z" />
    <path class="rabota11-10"
      d="M273.73,511c.28-2.76,2.42-1.85,4-2C277.37,511.59,275.3,510.84,273.73,511Z" />
    <path class="rabota11-10"
      d="M249.66,513c1.58.16,3.68-.74,4.05,1.94C252,515.07,250.48,514.78,249.66,513Z" />
    <path class="rabota11-10" d="M387.72,445.13c.09-.74,0-1.73,1.07-1.62.33,0,.58.91.87,1.39Z" />
    <path class="rabota11-10" d="M271.7,513a1.8,1.8,0,0,1,2-2A1.8,1.8,0,0,1,271.7,513Z" />
    <path class="rabota11-10"
      d="M376.69,450l1,1a6.08,6.08,0,0,1-.95.07l-.12-.12A3.75,3.75,0,0,1,376.69,450Z" />
    <path class="rabota11-7"
      d="M328.63,307.21c3.37.65,2-2,2-3.2.11-10.8.05-21.61.06-32.42,0-2.83.08-5.66.12-8.48,1.41,1.36.86,3.12.87,4.72q.07,12.94,0,25.9c0,2.93-.34,5.69,4.12,5.48,2.44-.11,1.72,2.31,1.9,3.84-1.47.66-2.71-2.83-3.54-.82-1,2.43,1.51,4.26,3.54,6.11v-5.28h1.83c.06,2,0,4,.22,6,.16,1.71-1,4,1,5,9,4.86,17.25,11.13,26.9,14.84,0,2.13-.05,4.26-.07,6.39L346.76,323c1.11-1.17,1.63-2.8-.12-3.27-1.3-.35-.75,1.66-1.07,2.6-2.13.14-3.42-3.71-6-1.29-2.16-.34-2-2.05-1.81-3.47.49-3.54-2.13-3.86-4.33-4-2.84-.11-1.64,2.41-1.65,3.74-.07,14,0,27.94,0,41.91-2.07-.91-1-2.73-1-4.07-.11-11.95-.05-23.9-.12-35.85,0-1.76.62-3.67-.7-5.28q-9.12-5.49-18.24-11c-2.11-1.28-3.25-1.25-3.22,1.73.13,17.42.17,34.83.24,52.25-1.31,3.3-.67,7.21-3.16,10.14a2,2,0,0,1-1.46-2.27c.74-8.83-2.78-17.25-2.55-26L301.31,315c.56-5.89-.68-11.77.09-17.71.25-1.88,1.57-4.68-1.41-6.1-.32-7.76-.82-15.55,0-23.28.58-5.26,1.86-10.44,2.83-15.66,2.09-.75,3.8.4,5.6,1.11,0,13.12,0,26.25.08,39.37,0,1.62-.65,3.31,1.82,4.51C316.58,300.25,322.55,303.84,328.63,307.21Z" />
    <path class="rabota11-9"
      d="M300,291.16c3,1.42,1.66,4.22,1.41,6.1-.77,5.94.47,11.82-.09,17.71l-1.25.07c-.62-1.81.46-4-1.11-5.73-2.36.89-3.93,2.82-6.09,4-8.69,4.59-18,3.46-27.15,3.94a40.6,40.6,0,0,1-23.91-6.13,4,4,0,0,1-2.23-2.94,2.37,2.37,0,0,1,2.22-1.15c12,6.71,25.16,7.08,38.32,5.82,6.83-.65,13.1-3.77,18.62-8.05,1.27-1,1-2.41,1-3.66C299.92,297.8,299.92,294.48,300,291.16Z" />
    <path class="rabota11-16" d="M238,307.3l0-4.28a5.89,5.89,0,0,1,3.84,4,2.36,2.36,0,0,0-2.21,1.15Z" />
    <path class="rabota11-15"
      d="M264.68,461c0,15.12,0,30.23.08,45.34,0,3,.06,5.73-4.19,5.71-4,0-5-2-4.95-5.68.12-12.12,0-24.24-.07-36.36v-4c0-1.68.11-3.37.16-5.06Z" />
    <path class="rabota11-10"
      d="M187.6,427a5.67,5.67,0,0,0,6.13,4.17c-2,3.38-4.31,2.13-6.44.25C185.63,430,184.39,428.27,187.6,427Z" />
    <path class="rabota11-10"
      d="M255.71,460.94c-.05,1.69-.11,3.38-.16,5.06-3.57-1.5-1.12-4.61-1.85-6.87A2.66,2.66,0,0,1,255.71,460.94Z" />
    <path class="rabota11-10"
      d="M249.71,459l2,.1c-.19,1.77.46,3.71-1,5.81C249.18,462.79,249.94,460.82,249.71,459Z" />
    <path class="rabota11-10"
      d="M247.85,507.07c.59.16,1.47.14,1.24,1.09-.18.73-.93.82-1.59.74s-1.47-.14-1.24-1.08C246.43,507.09,247.18,507,247.85,507.07Z" />
    <path class="rabota11-3"
      d="M238,307.3l1.61.85a4,4,0,0,0,2.23,2.94,40.6,40.6,0,0,0,23.91,6.13c9.19-.48,18.46.65,27.15-3.94,2.16-1.15,3.73-3.08,6.09-4,1.57,1.76.49,3.92,1.11,5.73q-.12,10.66-.23,21.33c0,1.24.16,2.35,1.71,2.53-.23,8.78,3.29,17.2,2.55,26a2,2,0,0,0,1.46,2.27l.21,7.75-25.66,15c-.46-.62-1.26-1.2-1.33-1.86A140.12,140.12,0,0,0,274.94,369c-1.07-3.89-1.18-8.06-3.33-11.64l-.94-.56c1.23-4.72-2-8.43-2.79-12.67-.52-2.7-1.75-3.06-4-3.07-3.77,0-7.44.07-11.22-1.35A40,40,0,0,1,237.93,330C237.32,322.42,236.81,314.86,238,307.3Z" />
    <path class="rabota11-16"
      d="M237.93,330a40,40,0,0,0,14.71,9.72c3.78,1.42,7.45,1.33,11.22,1.35,2.27,0,3.5.37,4,3.07.81,4.24,4,7.95,2.79,12.67-1.65.56-.23,1.44-.23,2.17-2.74.23-2.45,2.79-2.44,4.17.05,4.89-1.74,9.45-2.73,14.05a16.93,16.93,0,0,0,.47,9.85c0,3.62.05,7.23.08,10.84-11,2.73-18.55-4.6-27-9.29-.59-.33-.54-1.82-.79-2.78q-.18-24.87-.37-49.72l-.37-5.34Z" />
    <path class="rabota11-10"
      d="M255.69,455.07c-5.77.14-9.22-4.5-13.69-6.92-15-8.1-29.71-16.75-44.51-25.22-2.53-1.45-2.45-6,.2-7.73.82-.53,1.9-.6,1.87-1.9L220.87,401c2.65-.3,2.39,1.58,3.07,3.35,1,2.55.54,6.82,5.1,6.54s4.76-3.75,4.7-7.27,0-7,0-10.48c1.86-.31,3.4.1,4.23,2,.07,8.83-.19,17.68.34,26.48.34,5.56-.26,11.75,5.35,15.72a19.11,19.11,0,0,0,11.89,3.92Z" />
    <path class="rabota11-10"
      d="M329.83,417.94c-4.49,2.78-8.25,7-14.09,7.09.13-5.66-1.58-11-2.89-16.42-2.19-9-5.51-17.77-5.66-27.2.87-3.22,4.1-3.69,6.33-5.21,3.41-2.32,7.14-4.19,10.74-6.24,4.36-2.49,5.48-1.89,5.49,3.11Q329.83,395.51,329.83,417.94Z" />
    <path class="rabota11-7"
      d="M237.31,330.75l.37,5.34-3.88,2.13c-2.71-1.76-4.68-2.29-6.48,1.57a15.92,15.92,0,0,0-1.61,7q0,17.11,0,34.24a6.79,6.79,0,0,1-.9,0l-.3-1.17V343.6c-8.59,5-16.22,9.6-24,13.86-2.84,1.54-4.33,3.32-3.91,6.54-6.57-1.69-9.4-5.25-9-12.67.73-14.71.25-29.49.27-44.24,2.61-1,4.73-3.21,7.78-3.09,1.72,1.21,1,3,1.07,4.59.07,5.48,0,11,0,16.44v28.72a29,29,0,0,0,2.8-1.36c6.47-4.22,13.21-8.1,19.85-11.92,5.07-2.93,5.31-6,5.28-10.49-.11-14.28,0-28.57,0-42.85l.38-1c1.64,5,.61,10.2.71,15.29.18,10.27.05,20.54.05,30.78,2.36.46,4.77-3.51,6,.8-.72.14-1.58.11-1.51,1.21a.48.48,0,0,0,.31.31c1.1.06,1.07-.79,1.2-1.51,1.28-.48,3.79,2.58,3.88-1.35Z" />
    <path class="rabota11-16"
      d="M255.58,441.27a19.11,19.11,0,0,1-11.89-3.92c-5.61-4-5-10.16-5.35-15.72-.53-8.8-.27-17.65-.34-26.48,4.83-.06,7.56,4.42,11.74,5.54,5.4,1.46,6.24,4.8,6,9.83C255.35,420.76,255.6,431,255.58,441.27Z" />
    <path class="rabota11-10"
      d="M340.76,375c9.17,4.61,17.37,11,26.88,14.94l.12,6.23c-2.73,3.24-6.83,4.29-10.35,6.14-6.15,3.24-11.93,7-17.79,10.69,0-11,0-21.92.07-32.89C339.71,378.34,339,376.37,340.76,375Z" />
    <path class="rabota11-3"
      d="M307.19,381.41c.15,9.43,3.47,18.19,5.66,27.2,1.31,5.37,3,10.76,2.89,16.42-2.16,4.65-6.84,5.94-10.87,8a12.51,12.51,0,0,0-2.41,1.54c-1.09-9.77-.28-19.57-.47-29.35-.12-6.31.06-12.62,0-18.93C301.91,382.64,303.43,380.9,307.19,381.41Z" />
    <path class="rabota11-3"
      d="M292,440.06c-2.27,2.17-4.59,4.19-8.08,2.75q-.2-5.82-.4-11.65c.71-6.47-1.47-12.65-1.9-19-.3-5.36,1.31-10.91-1.65-16,3.74-2.59,7.39-5.31,11.71-6.92Q291.82,414.64,292,440.06Z" />
    <path class="rabota11-2"
      d="M367.66,339.05c0-1.25-.07-2.5-.11-3.75,0-2.13.05-4.26.07-6.39q.06-25.37.14-50.75l8,4.68q-.06,23.27-.1,46.54c0,1.29-.25,2.68.94,3.68l.17,0A48.11,48.11,0,0,1,367.66,339.05Z" />
    <path class="rabota11-14"
      d="M196.57,364l14.23,9c-1.78.49-4.45-1.23-5.08,2.06-3.29-.72-5.51-3.8-9-4.06-2.5-2.58-5.27-4.67-9-5l0,.06c-1.37-2.37-3.16-3.95-6.16-3.15-5.75-6.59-14.27-8.62-21.78-14.22V375c-2.2-3.52-.59-7.39-1-11.07-.63-5.54,1.23-11.26-1.11-16.69,1.1-1.65-.2-3.32.06-5a6,6,0,0,1,1-.19h.86c.69,1.68,2.26,2.37,3.69,3.19,6.35,3.62,12.8,7.07,19,10.89,3.48,2.13,4.63,2.06,4.57-2.51-.22-15-.09-29.95-.1-44.93-1.19-1.53-.1-1.56,1-1.57,0,14.75.46,29.53-.27,44.24C187.17,358.75,190,362.31,196.57,364Z" />
    <path class="rabota11-2"
      d="M225.72,381q0-17.13,0-34.24a15.92,15.92,0,0,1,1.61-7c1.8-3.86,3.77-3.33,6.48-1.57l-.09,46.84C230.56,384.68,228.28,382.57,225.72,381Z" />
    <path class="rabota11-2"
      d="M339.53,321.05q.12,16.93.23,33.87c-2.41,1.92-4.87,3.75-8,4.34,0-14-.1-27.93,0-41.9,0-1.33-1.19-3.85,1.65-3.74,2.2.1,4.82.42,4.33,4C337.53,319,337.37,320.71,339.53,321.05Z" />
    <path class="rabota11-10"
      d="M283.51,431.16q.19,5.83.4,11.65c-.27,2.1-.67,3.59-3.21,4.67-5.41,2.3-9.72,6.95-15.95,7.66q0-7,0-14.1c1.09-.32,2.76.33,2.84-1.69,1.65-.32,2.95-1.31,4.4-2.06C275.83,435.29,279.07,432.08,283.51,431.16Z" />
    <path class="rabota11-2"
      d="M220.87,401c3.75-1.8,4.07-5,3.72-8.64a42.6,42.6,0,0,1,.14-5.41c3.54,1.29,7.3,2.25,9,6.19,0,3.5-.09,7,0,10.48s0,7-4.7,7.27-4.14-4-5.1-6.54C223.26,402.6,223.52,400.72,220.87,401Z" />
    <path class="rabota11-10"
      d="M265.82,397.88c0-3.61-.05-7.22-.08-10.84,4.17.15,6-1.92,5.92-6-.08-2.81,0-5.63,0-8.44l.09-1.61c1.3-.29,2.68-.44,3.23-2a140.12,140.12,0,0,1,3.83,19.06c.07.66.87,1.24,1.33,1.86C275.21,392.36,271,396,265.82,397.88Z" />
    <path class="rabota11-10"
      d="M280,396.15c3,5.09,1.35,10.64,1.65,16-4.42-2.2-9.17-.95-13.77-1.29l-.27-5.84c0-.74,0-1.48,0-2.21Z" />
    <path class="rabota11-10"
      d="M308.71,357.06c4.79,1.47,8.77,4.45,13,6.94.6,1.36,0,2-1.22,2.67-4.95,2.69-9.83,5.51-14.74,8.28l-.21-7.75C308,364.27,307.4,360.36,308.71,357.06Z" />
    <path class="rabota11-15"
      d="M293.81,391c2.45.43,1.87,2.38,1.87,3.93,0,11.88,0,23.76,0,35.64,0,1.34-.37,2.26-1.85,2.4Z" />
    <path class="rabota11-6"
      d="M292,440.06q-.17-25.41-.32-50.83l1.08-.16q0,25.41.07,50.81A1.83,1.83,0,0,1,292,440.06Z" />
    <path class="rabota11-1"
      d="M292.82,439.88q0-25.41-.07-50.81c.95.33.89,1.22,1.06,2v42c0,2-.07,4.07-.1,6.11Z" />
    <path class="rabota11-7"
      d="M376.61,333.06c-1.19-1-.94-2.39-.94-3.68q0-23.26.1-46.54l1.18.31Q376.79,308.09,376.61,333.06Z" />
    <path class="rabota11-6"
      d="M267.56,402.81c0,.73,0,1.47,0,2.21-2.67.23-1.84,2.28-1.84,3.74-.05,8.72,0,17.44,0,26.16,0,1.74-.72,3.75,1.83,4.43-.08,2-1.75,1.37-2.84,1.69l-.11-.18q0-18.9,0-37.81Z" />
    <path class="rabota11-14"
      d="M264.65,403.05q0,18.9,0,37.81c-1.5-1.34-.86-3.12-.88-4.7q-.09-14.21,0-28.43C263.73,406.14,263.14,404.37,264.65,403.05Z" />
    <path class="rabota11-14" d="M224.57,386.48l-4.89-3.42C222.37,382.68,224.2,383.53,224.57,386.48Z" />
    <path class="rabota11-14"
      d="M219.69,383.08a4.61,4.61,0,0,1-3.25-1.91C218,381,219.56,380.82,219.69,383.08Z" />
    <path class="rabota11-14" d="M221.72,379.13l2.8.68.3,1.17C223.28,381.22,221.31,382.17,221.72,379.13Z" />
    <path class="rabota11-14"
      d="M217.74,377a4.67,4.67,0,0,1,3.26,1.92C219.43,379.07,217.88,379.21,217.74,377Z" />
    <path class="rabota11-14" d="M359.68,273a4.86,4.86,0,0,1-3.05-1.91C358.08,271,359.52,271,359.68,273Z" />
    <path class="rabota11-14"
      d="M215.71,380.93a5.17,5.17,0,0,1-3-1.89C214.1,379,215.56,378.93,215.71,380.93Z" />
    <path class="rabota11-14"
      d="M211.73,378.74a2.89,2.89,0,0,1-2.22-1.61C210.72,377,211.58,377.39,211.73,378.74Z" />
    <path class="rabota11-14" d="M211.88,373.56l2.12,1.36C213,375,212.06,374.85,211.88,373.56Z" />
    <path class="rabota11-14" d="M214.74,375.15l1.18.82Z" />
    <path class="rabota11-15"
      d="M339.65,419.06c0,16,0,31.94.09,47.91,0,3.74-.71,6.19-5.08,6.09-4-.1-5-2.43-4.93-5.92.07-4.16-.08-8.31-.14-12.47l.18-17.78c0-3.95,0-7.9-.07-11.85C332.37,422,336.14,420.74,339.65,419.06Z" />
    <path class="rabota11-15"
      d="M376.69,450a3.75,3.75,0,0,0-.09.94c-1,.29-1.89.63-2.85.85-4.48,1.05-6.08-.17-6.11-4.87-.08-14.64-.08-29.29-.12-43.94,2.36-2.31,5.44-3.51,8.19-5.21,1.38,1.34,1,3.07,1,4.68Q376.72,426.24,376.69,450Z" />
    <path class="rabota11-3"
      d="M302.35,462.62q-.24-10.9-.47-21.82c4.16-3.31,9-5.41,13.74-7.68l.22,1.7c-.06,5.14-.09,10.29-.2,15.44s-4.8,10.27-10.07,10.85C304.31,461.25,302.8,460.77,302.35,462.62Z" />
    <path class="rabota11-5" d="M404.62,374.91l.36-17c3.65.08,5.92,3,9,4.35a23,23,0,0,0,.09,7.36Z" />
    <path class="rabota11-10"
      d="M315.84,434.82l-.22-1.7c4.28-3.42,8.68-6.62,14.08-8.08,0,3.95.05,7.9.07,11.85C325.44,434.08,320.94,432.41,315.84,434.82Z" />
    <path class="rabota11-3"
      d="M287.76,457.09,285.61,453c-.63-3.45,1.93-4.63,4.26-6,3.64,1.82,1.39,5.11,1.86,7.71C292.47,458.84,291,459.58,287.76,457.09Z" />
    <path class="rabota11-6"
      d="M287.76,457.09c3.23,2.49,4.71,1.75,4-2.32-.47-2.6,1.78-5.89-1.86-7.71.45-2.34,1.37-2.53,2.76-.61l.3,16.11a4.75,4.75,0,0,0-.28.8C289,462.86,288.55,459.84,287.76,457.09Z" />
    <path class="rabota11-14"
      d="M186.55,415.89c.08-10.54.14-21.09.26-31.64,0-1.78-.4-3.63.49-5.35,1,11.86.24,23.73.37,35.59A1.37,1.37,0,0,1,186.55,415.89Z" />
    <path class="rabota11-1"
      d="M292.93,462.56l-.3-16.11a1.33,1.33,0,0,1,.85-.44C293.45,451.53,294.52,457.09,292.93,462.56Z" />
    <path class="rabota11-14"
      d="M187.31,377.16c-1.06-3.67-.28-7.42-.52-11.12a1.26,1.26,0,0,1,1,0l0-.06C187.56,369.73,188.21,373.47,187.31,377.16Z" />
    <path class="rabota11-4"
      d="M185.74,423c.12-.74.06-1.63,1.21-1.53a.47.47,0,0,1,.32.32c.07,1.13-.77,1.13-1.54,1.19Z" />
    <path class="rabota11-10" d="M378.4,397l.44,1-1.14-.8A4.2,4.2,0,0,1,378.4,397Z" />
    <path class="rabota11-10" d="M380.42,442.92V403.75l.71,0V443Z" />
    <path class="rabota11-10"
      d="M379.28,445.74c-.12.28-.18.71-.38.79s-.54-.2-.81-.32c.12-.28.18-.71.38-.79S379,445.62,379.28,445.74Z" />
    <path class="rabota11-10"
      d="M383.23,443.67l-.36.87-1-.63c.19-.25-.77-.93.27-.81A3.5,3.5,0,0,1,383.23,443.67Z" />
    <path class="rabota11-2"
      d="M235.6,331.7c-.09,3.93-2.6.87-3.88,1.35h0c-1.23-4.31-3.64-.34-6-.8,0-10.24.13-20.51-.05-30.78-.1-5.09.93-10.26-.71-15.29,2.4-1.65,4.68-3.51,7.61-4.21,1.84,1.33,1.21,3.28,1.21,5,0,13.54,0,27.08.09,40.62C233.88,329,232.4,331.47,235.6,331.7Z" />
    <path class="rabota11-7"
      d="M158.73,342a6,6,0,0,0-1,.19l-8-5.22c0-2.29,0-4.57,0-6.86.41-.51.71-1.24,1.24-1.5,2.31-1.14,4.72-4,6.94-2.87s.7,4.5.83,6.87C158.93,335.76,158.75,338.9,158.73,342Z" />
    <path class="rabota11-14" d="M184.54,309l-1.83,1.07C182.35,308,184,309.49,184.54,309Z" />
    <path class="rabota11-2"
      d="M339.8,262.17q-.14,20.43-.29,40.88h-1.83c-.18-1.53.54-3.95-1.9-3.84-4.46.21-4.13-2.55-4.12-5.48q.09-12.94,0-25.9c0-1.6.54-3.36-.87-4.72-.09-6,.13-6.14,5.39-3.3C337.44,260.49,338.6,261.37,339.8,262.17Z" />
    <path class="rabota11-9"
      d="M315.84,434.82c5.1-2.41,9.6-.74,13.93,2.07l-.18,17.78c-5,2.12-8.89,5.9-13.35,8.82a21.64,21.64,0,0,1-14,3.42l.15-4.29c.45-1.85,2-1.37,3.22-1.51,5.27-.58,10-5.61,10.07-10.85S315.78,440,315.84,434.82Z" />
    <path class="rabota11-10"
      d="M274.09,474.28c.12-.28.18-.71.38-.79s.54.2.81.32c-.12.28-.18.71-.38.79S274.36,474.4,274.09,474.28Z" />
    <path class="rabota11-4" d="M267.18,506.81c-1.82-2.76-2.25-28,0-33.12Z" />
    <path class="rabota11-16"
      d="M301.54,338.9c-1.55-.18-1.72-1.29-1.71-2.53q.12-10.67.23-21.33l1.25-.07Q301.43,326.94,301.54,338.9Z" />
    <path class="rabota11-2" d="M337.68,303.06v5.28c-2-1.85-4.55-3.68-3.54-6.11.83-2,2.07,1.48,3.54.82Z" />
    <path class="rabota11-2"
      d="M346.76,323l-1.19-.67c.32-.94-.23-2.95,1.07-2.6C348.39,320.21,347.87,321.84,346.76,323Z" />
    <path class="rabota11-14"
      d="M271.61,357.36c.37,4.53-.85,9.08.1,13.6l-.09,1.61c-1.54-1.3-1.71-3.08-1.55-4.88.25-2.9,1-5.78.37-8.72,0-.73-1.42-1.61.23-2.17Z" />
    <path class="rabota11-2"
      d="M270.44,359c.59,2.94-.12,5.82-.37,8.72-.16,1.8,0,3.58,1.55,4.88,0,2.81,0,5.63,0,8.44.12,4.11-1.75,6.18-5.92,6a16.93,16.93,0,0,1-.47-9.85c1-4.6,2.78-9.16,2.73-14.05C268,361.76,267.7,359.2,270.44,359Z" />
    <path class="rabota11-2"
      d="M231.72,333.05c-.13.72-.1,1.57-1.2,1.51a.48.48,0,0,1-.31-.31c-.07-1.1.79-1.07,1.51-1.21Z" />
    <path class="rabota11-9"
      d="M267.55,439.35c-2.55-.68-1.87-2.69-1.83-4.43,3.07-.73,3.66-2.88,4.11-5.77,1-6.35-3.05-12-2-18.29,4.6.34,9.35-.91,13.77,1.29.43,6.36,2.61,12.54,1.9,19-4.44.92-7.68,4.13-11.56,6.13C270.5,438,269.2,439,267.55,439.35Z" />
    <path class="rabota11-16"
      d="M267.84,410.86c-1.06,6.26,3,11.94,2,18.29-.45,2.89-1,5-4.11,5.77,0-8.72,0-17.44,0-26.16,0-1.46-.83-3.51,1.84-3.74Z" />
  </g>
</svg>